<svg class="icon" viewBox="0 0 1024 1024" xmlns="http://www.w3.org/2000/svg" width="200" height="200"><path d="M640 213.333L384 128l-256 85.333V896l256-85.333L640 896l256-85.333V128z"/><path d="M384 128v682.667L640 896V213.333z"/><path d="M372.117 301.781c2.987 1.75 4.822 5.334 4.886 11.456.277 20.928-4.758 41.131-5.803 61.739-.448 8.81 3.264 15.19 6.955 23.147 5.568 11.925-1.75 19.712-.491 31.658.341 3.008 2.987 4.203 3.03 7.446.362 17.77-25.366 56.021-48.406 51.285-13.781-2.837-.661-25.728-7.381-35.648-2.56-3.67-20.63-9.259-26.091-9.13-18.112.511-6.208 20.202-2.667 27.711 7.19 15.211 9.75 31.382 19.819 46.315a65.92 65.92 0 0 0-19.179-11.776c-10.24-4.203-19.221.235-28.096-3.819-13.141-5.93-14.144-20.309-20.97-30.72-6.486-9.877-24.448-10.154-32.96-21.162-8.342-10.795-6.294-24.128-2.368-35.926 4.65-13.952 10.965-24.021 20.778-36.096 6.848-8.362 16.47-20.736 4.011-28.522-11.563-7.296-23.616-3.499-33.963 2.133-10.965 5.952-16.256 6.208-19.349-6.784-3.115-12.907 14.336-22.08 23.125-29.867 32.022-28.202 79.723-14.293 106.475 12.224 1.579 1.558 44.032-34.218 58.645-25.664zm-111.21 294.016c2.602 14.678 19.562 5.696 24.17 17.024 3.648 9.003-6.506 21.099-6.912 29.568 24.363 5.504 38.272 25.451 38.166 49.963-.192 35.221 11.584 71.701 39.445 92.203 1.856-7.104 3.99-14.614 4.928-22.272 3.605-29.91-2.39-56.256 20.459-80.726 9.856-10.538 7.893-14.698 7.125-27.968-.405-6.741.96-22.848 6.443-26.496 6.869 3.264 20.757 5.078 26.88-.298 4.032-3.627 8.725-24.043 9.557-29.547 2.688-17.237-3.413-30.997-13.461-44.117-8.256-10.795-21.078-19.968-34.432-22.699-13.184-2.73-27.456-.939-39.872-6.933-5.824-2.859-10.795-6.763-16.79-9.451-7.146-3.179-21.205-5.568-26.581-11.179 7.915 8.256 13.61 20.416 13.376 32-.235 12.075-7.36 13.632-16.576 19.286-12.992 7.936-39.232 22.89-35.925 41.642zm179.925-330.666c-32.555-7.979-56.17 19.114-46.485 50.602 15.872 51.648 48.874-29.546 46.485-50.602zm-12.565 137.28c.725 13.76 5.077 27.114 18.133 30.122 8.448 1.92 17.984-1.706 23.125-10.773 7.254-12.821-12.629-46.848 9.771-45.205 16.085 1.194 16.747 26.09 21.739 36.864a4.437 4.437 0 0 0 4.074 0c3.691-10.454 1.622-22.464 2.582-33.11 18.922-5.141 29.312 22.806 33.685 36.672 3.627 11.542 11.03 15.403-8.021 19.883-10.262 2.432-17.707.107-24.619-8.17-11.499 7.786-17.707 16.405-30.23 22.847-35.22 18.176-44.586 71.488-25.92 107.648 12.8 24.811 42.39 2.219 57.771-5.333-.682 13.93 11.648 27.904 15.936 40.939 12.416 37.632 3.478 73.514 3.222 112.149-.043 7.787 1.877 37.44 11.797 39.232 11.392 2.048 21.248-33.045 23.744-41.216 10.368-33.728 10.517-68.544 29.248-99.797 7.232-12.118 20.352-22.251 14.336-37.547-6.059-15.36-36.672-18.347-33.344-38.336-.917 5.675 30.443 34.667 37.525 35.413 33.088 3.478 1.878-40.576 11.819-51.712 16.021-17.834 27.733 26.326 28.608 34.71 2.517 22.826-2.261 45.525-2.624 68.33-.128 9.536-2.752 48.832 15.147 43.179 13.93-4.416 7.104-34.859 8.981-45.525 1.728-9.878 12.16-47.382 20.65-51.883 18.582-9.792 28.566 32.085 51.393 31.21 5.44-19.37.576-28.671 15.424-42.751 10.922-10.368 27.626-17.067 34.09-32.576 5.035-11.968 6.699-36.31 3.2-48.747-6.613-23.659-29.12-14.187-50.197-19.648-.939-12.139 11.69-17.984 12.181-30.613.278-6.294-9.706-6.336-8.661-14.294.661-4.97 8.107-12.949 11.307-17.088 11.136-14.677 26.88-23.658 43.072-7.85 2.176-10.56-.128-22.891-12.587-22.784-.875-13.056-9.6-43.563-23.51-50.39-13.034-6.506-13.631 2.774-24.234 12.992-11.69 11.328-26.24 18.646-36.117 29.675-9.152 10.24-27.926 35.008-40.747 25.216-6.87-5.29-5.312-24.128-10.432-31.872-6.805-10.347-11.2-12.203-23.872-14.101 1.365-2.304 1.664-8.043 3.328-10.688-3.883 1.344-10.752.042-14.613 1.365-.598-16.128 24.085-16.747 29.738-27.797-10.773-.875-20.736-1.216-30.122 4.906-7.574 4.95-9.344 16.427-16.47 19.84-18.112 8.875-61.504-21.162-81.408-25.514-28.778-6.315-44.096 5.802-55.552 32.362-7.573-1.45-16.597-3.946-22.549 2.176 4.501 5.952 11.221 8.79 18.795 9.835a20.48 20.48 0 0 1 0 8.747c-6.315 1.365-22.4 11.776-26.283 15.424-8.363 7.872-9.6 11.008-11.264 22.741a111.616 111.616 0 0 0-1.045 20.843zM722.41 668.907c-7.552 14.997-23.19 71.786-3.798 75.626 23.467 4.587 33.131-33.557 56.363-27.968 2.07 11.115 10.56 13.995 16.981 4.886 4.011-5.654-.469-23.68-1.408-29.803-3.306-22.293-7.658-35.797-2.346-58.453-4.438 3.818-16.491 22.72-20.822 24-18.176 5.418-7.914-16.384-3.157-23.488-32.49 11.157-57.6 51.605-54.997 86.272"/></svg>