<svg t="1772286133953" class="icon" viewBox="0 0 1024 1024" version="1.1" xmlns="http://www.w3.org/2000/svg" p-id="9726" width="64" height="64"><path d="M512 778.688a348.032 348.032 0 0 1-139.072-27.712 345.472 345.472 0 0 1-110.08-75.52 366.336 366.336 0 0 1-73.728-113.664 377.664 377.664 0 0 1-26.112-140.48c0-49.664 8.704-96.192 26.112-139.52a352 352 0 0 1 73.728-113.664 337.984 337.984 0 0 1 110.08-76.416A348.032 348.032 0 0 1 512 64c49.792 0 95.808 9.216 138.112 27.712a335.36 335.36 0 0 1 111.04 76.416 339.84 339.84 0 0 1 72.832 113.728c18.048 43.264 27.072 89.792 27.072 139.52 0 49.6-9.024 96.448-27.072 140.416a353.024 353.024 0 0 1-72.832 113.664 342.72 342.72 0 0 1-111.04 75.52A341.376 341.376 0 0 1 512 778.688z m0-122.304c31.104 0 60.032-5.76 86.784-17.216 27.392-11.52 51.008-27.392 70.912-47.744 20.544-20.416 36.416-44.928 47.616-73.6 11.84-29.312 17.728-61.44 17.728-96.512a248.32 248.32 0 0 0-17.728-95.552 208.128 208.128 0 0 0-47.616-74.496 212.864 212.864 0 0 0-70.912-47.808A217.984 217.984 0 0 0 512 186.304c-31.104 0-60.352 5.76-87.68 17.152-26.816 11.52-50.432 27.392-70.976 47.808a226.432 226.432 0 0 0-47.616 74.496 260.544 260.544 0 0 0-16.768 95.552c0 35.072 5.632 67.2 16.768 96.512 11.84 28.672 27.712 53.184 47.616 73.6 20.48 20.352 44.16 36.288 70.912 47.744 27.392 11.52 56.64 17.216 87.744 17.216zM759.04 843.392H257.664V960h501.248v-116.608z" p-id="9727"></path></svg>