<svg id="图层_1" data-name="图层 1" xmlns="http://www.w3.org/2000/svg" viewBox="0 0 200 200">
  <g>
    <path d="M76.53,105.13c-10.22-.3-9,6.85-9.06,14.53.62,4.68-2.24,12.43,8.5,12.5,9.93,0,9.51-6.57,9.41-13.14S86.51,105.42,76.53,105.13Z" style="fill: #0092f3"/>
    <path d="M124.53,105.17c-10.29-.64-9.33,6.57-9.35,13.72.55,5.43-2.17,13.22,8.54,13.26,9.19,0,9-6.26,8.6-12.34C131.93,114,135.12,105.84,124.53,105.17Z" style="fill: #0092f3"/>
    <path d="M153.1,77.55A78,78,0,0,0,113.68,56c-.76-.17-1.43-.35-2.05-.54-5.36-2-6.87-4.39-2.9-9,1.31-1.32,2.83-2.79,4.19-4.17A22.87,22.87,0,0,0,115,40c.27-.35.46-.69.69-1s.48-.72.69-1.1a15,15,0,0,0,.87-1.75l.08-.17a16.71,16.71,0,0,0-.82-14.56c-.13-.3-.29-.6-.43-.91,0-.08-.08-.15-.13-.25s-.12-.15-.17-.25A17.6,17.6,0,0,0,100.41,11h-.74A17.6,17.6,0,0,0,84.35,20c0,.1-.12.16-.17.25s-.08.17-.13.25c-.14.31-.3.61-.43.91a16.71,16.71,0,0,0-.82,14.56l.08.17a15,15,0,0,0,.87,1.75c.21.38.46.73.69,1.1s.42.68.69,1a22.87,22.87,0,0,0,2,2.37c1.32,1.32,2.91,2.79,4.19,4.17,4,4.58,2.46,7-2.9,9-.62.19-1.31.37-2,.54A78,78,0,0,0,47,77.55C29.73,94.46,21,118.88,23.54,146.4a48,48,0,0,0,10.08,26.08v.2a40.78,40.78,0,0,0,13.81,10.95l.74.34c.76.35,1.51.67,2.28,1a49.46,49.46,0,0,0,10.75,2.93,99.51,99.51,0,0,0,21.33.91c3.78-.18,7.58-.28,11.37-.32h12.17c3.8,0,7.6.14,11.38.32a99.39,99.39,0,0,0,21.32-.91A49.31,49.31,0,0,0,149.52,185c.78-.31,1.53-.63,2.29-1l.73-.34a40.72,40.72,0,0,0,13.92-10.95v-.2a48,48,0,0,0,10.08-26.08C179.12,118.88,170.35,94.46,153.1,77.55Zm-21,94.42h-1.86c-1.61,0-3.21.08-4.81.11-3.42,0-6.83,0-10.25.06-4.82,0-9.66-.12-14.45-.12H99.46c-4.82,0-9.66.08-14.45.12-3.42,0-6.83,0-10.25-.06-1.6,0-3.21,0-4.81-.11H68.09c-10.63-.89-18.31-4.64-23-11.46A34,34,0,0,1,40.15,146a82.62,82.62,0,0,1-.52-15.08,69.84,69.84,0,0,1,4.86-21.42c4.53-10.67,12.14-20,23.06-27.64.82-.58,1.65-1.11,2.49-1.65.5-.31,1-.64,1.5-.94a57.06,57.06,0,0,1,26.82-8.32h3.26a57,57,0,0,1,26.81,8.32c.52.3,1,.63,1.5.94.84.54,1.67,1.07,2.5,1.65,10.9,7.67,18.52,17,23.06,27.59a69.84,69.84,0,0,1,4.86,21.42,82.62,82.62,0,0,1-.53,15.08A34.13,34.13,0,0,1,155,160.48c-4.69,6.85-12.36,10.6-23,11.49Z" style="fill: #0092f3"/>
  </g>
</svg>
