<svg version="1.1" xmlns="http://www.w3.org/2000/svg" xmlns:xlink="http://www.w3.org/1999/xlink" xml:space="preserve" width="256px" height="256px" viewBox="0 0 256 256">
 <g>
  <path class="fil0" d="M129.254 5.842l102.93 59.427 -31.87 18.4 -0.982 -0.566c0.994,-2.975 -0.028,-5.876 -2.019,-8.167l-4.238 -4.874 -4.875 -4.238c-4.609,-4.007 -11.22,-2.951 -13.087,3.295l-45.859 -26.476 -48.092 27.766c-3.008,-2.576 -6.243,-4.596 -7.711,-5.336 0.556,3.007 1.122,5.906 1.436,8.959l-16.692 9.637 -31.87 -18.4 102.929 -59.427zm106.746 66.036l0 118.854 -102.929 59.426 0 -36.801 71.059 -41.026 0 -82.052 31.87 -18.401zm-110.561 178.28l-102.93 -59.426 0 -118.854 31.87 18.401 0 38.385c-3.301,1.009 -6.634,2.304 -9.941,3.888 3.476,1.394 6.816,2.952 9.941,4.768l0 35.011 13.63 7.87c-0.448,5.196 -0.681,10.447 -0.884,15.81 7.698,-0.047 17.263,-0.298 24.365,-2.254l33.949 19.6 0 36.801zm-51.799 -60.661c0.616,-12.288 0.824,-17.667 6.46,-25.262 5.453,5.878 11.556,10.552 18.453,13.546 1.514,0.657 3.062,1.231 4.644,1.718 -10.202,9.114 -15.093,9.273 -29.557,9.998zm55.206 -82.269c-1.804,1.186 -3.492,2.571 -4.996,4.101 -2.432,2.476 -4.35,5.302 -5.436,8.228l6.691 -6.474c1.381,-1.335 2.902,-4.048 3.741,-5.855zm15.54 -14.454c-2.664,0.429 -4.875,1.064 -6.833,1.861 2.112,0.623 4.007,1.195 6.817,2.037 0.006,-1.3 0.011,-2.599 0.016,-3.898zm15.213 -7.165l1.942 0.821 1.516 -1.49c-2.118,-1 -4.351,-1.885 -6.694,-2.647l3.236 3.316zm-7.44 -4.519c-3.687,-0.918 -7.615,-1.549 -11.775,-1.863 2.509,-1.954 8.004,-2.992 11.839,-3.871 -6.24,-2.525 -17.137,-2.863 -26.058,-0.017 -0.495,1.506 -1.483,3.868 -2.685,4.952 -1.586,1.43 -3.063,2.694 -4.373,3.915 10.1,-4.479 20.923,-4.799 31.527,-1.855l1.525 -1.261zm-70.059 -0.501c1.213,7.898 -1.998,20.612 -2.61,22.231 -0.613,1.618 -1.421,3.479 -4.084,10.137 -2.664,6.658 -2.451,19.463 -0.66,23.5 -4.342,-3.055 -9.693,-4.784 -14.795,-2.94 8.582,4.379 13.448,14.094 19.147,21.551 13.089,17.129 29.219,25.133 49.926,19.37 10.231,-2.847 25.104,-22.701 16.335,-30.342 -15.181,8.569 -31.513,-2.404 -32.155,-19.114 -0.467,-12.171 12.786,-24.526 25.65,-26.107 -5.249,-1.572 -7.043,-2.387 -13.788,-1.313 6.068,-4.449 10.642,-7.967 21.017,-8.998 0.637,-1.192 1.667,-2.01 2.687,-2.853 -12.985,-3.363 -31.961,-2.924 -48.429,18.886 4.904,-10.82 8.443,-15.182 20.698,-27.127 3.233,-3.151 2.587,-7.771 2.183,-10.966 -3.448,5.663 -9.754,8.745 -18.349,12.542 -6.518,2.879 -12.428,7.647 -16.78,13.669 -1.091,-4.665 -2.175,-8.865 -5.993,-12.126zm62.075 89.198c1.551,-0.64 3.084,-1.321 4.608,-2.046 -4.35,7.066 -14.86,14.943 -33.852,17.435 20.304,5.345 39.698,2.31 51.914,-10.359 -0.979,1.719 -1.998,3.546 -3.118,5.174 14.984,-8.658 34.487,-34.111 20.514,-58.638 2.36,1.92 4.335,4.253 6.008,7.432 0.11,-11.661 -3.429,-22.244 -10.167,-30.625l-3.947 4.018 7.299 7.124 -5.446 6.584c-2.667,3.225 -4.416,3.231 -7.72,3.242l-4.616 0.018c-0.087,1.544 -0.742,2.979 -1.882,4.027l-0.072 3.376c-0.069,3.225 -1.915,6.394 -5.122,7.359l0.001 0.005c-3.864,1.15 -7.022,3.497 -9.786,6.353 1.943,1.713 3.186,3.805 3.841,6.157 1.06,3.809 0.418,8.087 -1.322,12.281 -1.663,4.008 -4.251,7.851 -7.135,11.083zm-25.774 -43.979l9.782 -9.463c1.993,-1.929 4.901,-6.745 5.964,-10.318 0.226,-0.761 1.197,-1.434 2.541,-1.463l6.485 -0.139 0.357 -1.122c0.196,-0.616 0.459,-0.706 1.011,-0.709l4.176 -0.02c0.213,-0.001 0.378,-0.187 0.379,-0.39l0.037 -9.184c0.007,-1.797 -0.026,-2.719 1.393,-3.893l2.944 -2.433 7.412 7.594 18.945 -18.61 1.185 -4.634c0.463,-1.81 1.741,-1.749 3.146,-0.528l4.538 3.945 3.945 4.538c1.22,1.405 1.282,2.683 -0.528,3.146l-4.634 1.185 -18.611 18.945 7.595 7.412 -2.434 2.943c-1.173,1.42 -2.096,1.387 -3.892,1.394l-9.184 0.037c-0.203,0 -0.389,0.166 -0.39,0.379l-0.02 4.176c-0.003,0.552 -0.093,0.815 -0.709,1.011l-1.122 0.358 -0.139 6.484c-0.029,1.344 -0.703,2.315 -1.463,2.541 -3.573,1.063 -8.389,3.971 -10.318,5.964l-5.142 5.316c-5.88,2.918 -11.824,2.547 -17.096,-2.205 -3.029,-2.731 -5.197,-6.561 -5.943,-10.779 -0.091,-0.512 -0.161,-1.005 -0.21,-1.478z"/>
 </g>
</svg>
