<svg id="图层_1" data-name="图层 1" xmlns="http://www.w3.org/2000/svg" viewBox="0 0 240 240">
  <g>
    <polygon points="88.06 28.33 119.81 46.67 183.32 83.33 183.32 120 183.32 120 183.32 120 183.32 120 215.07 101.67 215.07 65 119.81 10 88.06 28.33"/>
    <polygon points="88.06 65 88.06 65 88.06 65 88.06 65"/>
    <polygon points="56.3 193.33 56.3 156.67 56.3 156.67 56.3 83.33 88.06 65 56.3 46.67 24.55 65 24.55 65 24.55 175 37.97 182.75 56.3 193.33"/>
    <polygon points="215.07 138.33 215.07 138.33 215.07 138.33 183.32 156.67 183.32 156.67 151.57 175 119.81 193.33 101.48 182.75 88.06 175 88.06 211.67 96.57 216.58 119.81 230 215.07 175 215.07 156.67 215.07 138.33"/>
    <polygon points="83 141.25 83 141.25 119.81 162.5 156.62 141.25 156.62 98.75 119.81 77.5 83 98.75 83 141.25"/>
  </g>
</svg>
