<?xml version="1.0" encoding="utf-8"?>
<!-- Generator: Adobe Illustrator 24.0.1, SVG Export Plug-In . SVG Version: 6.00 Build 0)  -->
<svg version="1.1" id="Capa_1" xmlns="http://www.w3.org/2000/svg" xmlns:xlink="http://www.w3.org/1999/xlink" x="0px" y="0px"
	 viewBox="0 0 512 512" style="enable-background:new 0 0 512 512;" xml:space="preserve">
<g id="_x34_">
	<path d="M364.8,74.7c40,0,72.5,32.5,72.5,72.5v217.5c0,40-32.5,72.5-72.5,72.5H147.2c-40,0-72.5-32.5-72.5-72.5V147.2
		c0-40,32.5-72.5,72.5-72.5H364.8z M364.8,38.5H147.2c-60.1,0-108.8,48.7-108.8,108.8v217.5c0,60.1,48.7,108.8,108.8,108.8h217.5
		c60.1,0,108.8-48.7,108.8-108.8V147.2C473.5,87.2,424.8,38.5,364.8,38.5z"/>
</g>
<g id="_x33_">
	<path d="M149.3,384c-11.8,0-21.3-9.5-21.3-21.3v-128c0-11.8,9.6-21.3,21.3-21.3s21.3,9.6,21.3,21.3v128
		C170.7,374.5,161.1,384,149.3,384z"/>
</g>
<g id="_x32_">
	<path d="M256,384c-11.8,0-21.3-9.5-21.3-21.3V149.3c0-11.8,9.6-21.3,21.3-21.3s21.3,9.6,21.3,21.3v213.3
		C277.3,374.5,267.8,384,256,384z"/>
</g>
<g id="_x31_">
	<path d="M362.7,384c-11.8,0-21.3-9.5-21.3-21.3v-128c0-11.8,9.5-21.3,21.3-21.3c11.8,0,21.3,9.6,21.3,21.3v128
		C384,374.5,374.5,384,362.7,384z"/>
</g>
</svg>
