<?xml version="1.0" encoding="utf-8"?>
<!-- Generator: Adobe Illustrator 25.0.1, SVG Export Plug-In . SVG Version: 6.00 Build 0)  -->
<svg version="1.1" id="图层_1" xmlns="http://www.w3.org/2000/svg" xmlns:xlink="http://www.w3.org/1999/xlink" x="0px" y="0px" viewBox="0 0 256 256" style="enable-background:new 0 0 256 256;" xml:space="preserve">
	<g>
		<g>
			<path class="st0" style="fill:#FA5FA6;" d="M207.64,233.5c-12.91,6.19-26.51,10.25-40.57,12.64c-8.91,1.51-17.95,2.28-26.93,3.41
			c-0.42,0.05-0.82,0.3-1.23,0.45c-6.12,0-12.24,0-18.36,0c-2.6-0.31-5.2-0.68-7.81-0.91c-20.78-1.85-41.03-5.96-60.06-14.75
			c-5.78-2.67-11.42-5.93-16.54-9.71c-6-4.44-8.98-10.98-9.27-18.48c-0.22-5.55-0.05-11.12-0.08-16.68
			c-0.01-2.12,0.79-3.74,2.86-4.34c2.17-0.63,3.98-0.03,5.22,2.04c1.61,2.69,3.29,5.33,5.01,7.94c0.33,0.5,1.01,0.78,1.52,1.16
			c1.25,1.94,2.24,4.11,3.8,5.76c3.43,3.61,7.38,5.3,12.47,3.26c3.21-1.29,5.36-3.57,6.77-6.78c1.63-3.73,5.06-3.95,7.75-0.86
			c1.52,1.75,3.36,3.22,5.05,4.81c3.23,3.07,7.44,4.14,11.48,5.47c7.48,2.48,15.01,4.78,22.52,7.16c3.57,1.9,7.14,3.82,10.72,5.7
			c4.95,2.6,9.88,3.27,14.68-0.37c3.46-1.76,6.92-3.52,10.37-5.28c7.25-2.36,14.56-4.55,21.73-7.13c4.28-1.54,8.35-3.68,12.51-5.55
			c1.8-1.72,3.63-3.42,5.41-5.16c2.8-2.75,5.82-2.33,7.45,1.24c2.4,5.26,6.36,7.69,12.12,7.17c0.46-0.06,0.93-0.08,1.37-0.2
			c4.26-1.12,6.46-4.63,9-7.75c0.14,0.74,0.43,1.48,0.41,2.22c-0.11,3.82-0.26,7.64-0.45,11.46c-0.29,6.03-1.88,11.67-5.24,16.74
			C210.14,229.98,208.87,231.73,207.64,233.5z M183.54,222.26c2.03,0.02,3.77-1.47,3.81-3.28c0.05-1.98-1.69-3.77-3.68-3.8
			c-2.1-0.03-3.84,1.64-3.79,3.63C179.93,220.72,181.53,222.23,183.54,222.26z M81.47,232.13c1.96,0.07,3.63-1.4,3.77-3.32
			c0.13-1.88-1.49-3.67-3.38-3.76c-1.83-0.08-3.85,1.74-3.98,3.59C77.75,230.51,79.35,232.06,81.47,232.13z M72.32,224.6
			c2.22,0.03,3.81-1.36,3.89-3.4c0.06-1.58-2-3.63-3.66-3.64c-1.79-0.01-3.78,2.01-3.74,3.79C68.86,223.23,70.31,224.58,72.32,224.6
			z" />
			<path class="st1" style="fill:#E2C92E;" d="M131.85,9c1.14,0.61,2.35,1.13,3.42,1.85c5.71,3.86,6.68,12.7,0.18,17.76c-3.2,1.62-6.46,2.47-9.91,0.75
			c5.65-2.68,8.63-10.62,3.61-16.35c-1.05-1.2-2.28-2.25-3.42-3.36c0.16-0.22,0.32-0.44,0.47-0.66C128.09,9,129.97,9,131.85,9z" />
			<path class="st2" style="fill:#31A6FA;" d="M136.64,220.41c-4.81,3.63-9.73,2.96-14.68,0.37c-3.59-1.88-7.15-3.8-10.72-5.7
			c0.15-5.92,0.3-11.84,0.44-17.76c0.11-0.84,0.29-1.68,0.32-2.53c0.31-8.67,0.62-17.35,0.87-26.03c0.23-7.74,0.38-15.48,0.57-23.22
			c0.38-9.91,0.75-19.81,1.13-29.72c5.25,0.01,10.5,0.06,15.76-0.01c1.8-0.03,2.46,0.54,2.51,2.42c0.23,9.45,0.59,18.89,0.9,28.34
			c0.32,9.84,0.71,19.67,0.93,29.51c0.25,10.95,0.31,21.91,0.52,32.86c0.04,2.18,0.26,4.36,0.53,6.52
			C135.91,217.14,136.32,218.77,136.64,220.41z" />
			<path class="st3" style="fill:#E1277F;" d="M77.25,202.45c-1.69-1.59-3.53-3.07-5.05-4.81c-2.69-3.08-6.12-2.86-7.75,0.86c-1.41,3.21-3.56,5.5-6.77,6.78
			c-5.08,2.04-9.04,0.35-12.47-3.26c-1.56-1.64-2.55-3.82-3.8-5.76c1.49-10.35,5.93-19.25,13.31-26.64
			c2.79-2.79,6.85-1.96,8.56,1.59c2.25,4.68,4.91,5.14,9.34,2.39c5.04-3.12,10.24-6.1,15.66-8.5c5.42-2.41,9.71-5.62,12-11.2
			c0.02,4.15,0.06,8.3,0.04,12.45c-0.03,7.93-1.17,15.69-3.81,23.17c-1.16,3.29-2.79,6.41-4.2,9.61c-0.9,0.17-1.82,0.3-2.71,0.5
			C85.47,200.57,81.36,201.51,77.25,202.45z M96.51,187c0.05-1.62-1.92-3.71-3.59-3.8c-1.78-0.1-3.86,1.9-3.86,3.72
			c0,1.54,1.93,3.62,3.43,3.7C94.29,190.71,96.45,188.77,96.51,187z" />
			<path class="st4" style="fill:#1D95F8;" d="M136.64,220.41c-0.32-1.64-0.74-3.28-0.95-4.93c-0.27-2.16-0.49-4.34-0.53-6.52
			c-0.2-10.95-0.27-21.91-0.52-32.86c-0.22-9.84-0.61-19.68-0.93-29.51c-0.31-9.45-0.67-18.89-0.9-28.34
			c-0.05-1.87-0.71-2.44-2.51-2.42c-5.25,0.08-10.5,0.02-15.76,0.01c0.11-3.28,0.21-6.56,0.32-9.83c9.57,0,19.15,0,28.72,0
			c0.35,12.13,0.69,24.26,1.05,36.39c0.03,1.09,0.23,2.18,0.35,3.26c0.52,17.17,1.05,34.33,1.57,51.5
			c0.14,5.99,0.29,11.98,0.43,17.97C143.56,216.89,140.1,218.65,136.64,220.41z" />
			<path class="st5" style="fill:#C0206C;" d="M92.3,199.15c1.41-3.2,3.04-6.33,4.2-9.61c2.64-7.48,3.78-15.24,3.81-23.17c0.02-4.15-0.02-8.3-0.04-12.45
			c0.28-2.47,0.5-4.96,0.87-7.42c0.61-4.08,4.54-5.95,8.07-3.85c1.47,0.88,2.82,1.94,4.23,2.91c-0.19,7.74-0.34,15.48-0.57,23.22
			c-0.25,8.68-0.56,17.35-0.87,26.03c-0.03,0.84-0.21,1.68-0.32,2.53c-1.47,0.07-2.94,0.09-4.4,0.23
			C102.28,198.06,97.29,198.61,92.3,199.15z" />
			<path class="st6" style="fill:#FBEE64;" d="M143.61,106c-9.57,0-19.15,0-28.72,0c-5.5-0.05-11.01-0.1-16.51-0.16c2.42-4.17,2.5-8.34,0.02-12.51
			c3.97-0.04,7.94-0.09,11.91-0.13c12.53,0,25.06-0.01,37.6-0.01c4.04,0.04,8.09,0.08,12.13,0.11c-2.58,4.2-2.3,8.39,0.04,12.57
			C154.58,105.92,149.09,105.96,143.61,106z" />
			<path class="st7" style="fill:#D4C3BD;" d="M125.54,29.37c3.45,1.71,6.71,0.86,9.91-0.75c0.07,6.01,0.15,12.01,0.2,18.02
			c0.09,9.49,0.19,18.98,2.24,28.31c-0.94-0.35-1.92-0.61-2.82-1.06c-4.4-2.17-8.78-4.39-13.17-6.59
			c0.31-5.52,0.81-11.04,0.87-16.56c0.08-7.1-0.2-14.2-0.31-21.3c-0.01-0.39,0.03-0.78,0.05-1.17
			C123.52,28.64,124.53,29,125.54,29.37z" />
			<path class="st8" style="fill:#FA61A7;" d="M50.77,152.04c-6.86-0.45-12.49-3.73-17.76-7.79c-3.68-2.83-7.08-5.95-8.9-10.39
			c-2.15-5.23,0.33-10.12,5.64-11.15c2.79-0.54,5.65,0.82,7.33,3.53c1.6,2.59,3.07,5.27,4.76,7.8c2.97,4.48,6.63,8.31,11.19,11.22
			c1.69,1.08,2.69,2.53,1.96,4.53C54.3,151.66,52.66,152.18,50.77,152.04z" />
			<path class="st9" style="fill:#FB7DB6;" d="M44.66,97.76c-0.05-3.55,0.37-6.92,3.05-9.57c2.28-2.25,5.86-2.76,8.7-1.27c2.82,1.48,4.39,4.73,3.68,7.94
			c-1.84,8.43-1.71,16.75,0.77,25.07c0.3,1.01-0.24,2.78-1.02,3.45c-0.8,0.67-2.86,0.99-3.54,0.44c-2.14-1.73-4.29-3.71-5.73-6.03
			C46.78,111.71,44.99,104.92,44.66,97.76z" />
			<path class="st10" style="fill:#B9ACAC;" d="M147.9,93.19c-12.53,0-25.06,0.01-37.6,0.01c4.58-4.66,7.39-10.32,9.41-16.44
			c5.05,2.55,10.09,5.14,15.17,7.63c3.05,1.49,6.18,2.81,9.27,4.2C145.4,90.12,146.65,91.66,147.9,93.19z" />
			<path class="st11" style="fill:#9E9797;" d="M144.16,88.59c-3.09-1.4-6.22-2.71-9.27-4.2c-5.09-2.49-10.12-5.08-15.17-7.63c0.73-3.15,1.46-6.3,2.2-9.46
			c4.39,2.2,8.76,4.42,13.16,6.59c0.9,0.44,1.88,0.71,2.82,1.06C139.98,79.5,142.07,84.04,144.16,88.59z" />
			<path class="st12" style="fill:#65DFC4;" d="M85.77,109.65c-4.87-2.2-7.26-5.85-7.02-10.73c0.21-4.39,3.02-7.94,7.45-9.43c0.42,0.45,0.79,0.97,1.27,1.34
			c5.36,4.03,5.95,11.49,1.24,16.18C87.77,107.93,86.75,108.77,85.77,109.65z" />
			<path class="st13" style="fill:#FBE635;" d="M125.54,29.37c-1.01-0.37-2.02-0.74-3.03-1.1c-4.87-5.12-5.5-10.63-1.46-15.36c1.19-1.4,3.1-2.18,4.67-3.25
			c1.15,1.12,2.37,2.16,3.42,3.36C134.17,18.76,131.19,26.69,125.54,29.37z" />
			<path class="st14" style="fill:#2AD1B3;" d="M85.77,109.65c0.98-0.88,2-1.72,2.94-2.65c4.71-4.69,4.12-12.16-1.24-16.18c-0.49-0.36-0.85-0.89-1.27-1.34
			c5.05-1.83,8.89,0.19,12.21,3.85c2.48,4.18,2.4,8.35-0.02,12.51C94.96,109.74,90.86,111.35,85.77,109.65z" />
			<path class="st15" style="fill:#FA65AA;" d="M76.22,134.26c0.04,1.99-1.7,3.7-3.76,3.69c-1.95-0.01-3.61-1.64-3.62-3.57c-0.01-1.94,1.84-3.8,3.76-3.77
			C74.42,130.64,76.18,132.41,76.22,134.26z" />
			<path class="st15" style="fill:#FA65AA;" d="M37.2,75.17c-0.01,2.02-1.73,3.61-3.83,3.55c-1.97-0.05-3.58-1.67-3.58-3.58c0-2,1.74-3.61,3.85-3.56
			C35.6,71.61,37.21,73.24,37.2,75.17z" />
			<path class="st16" style="fill:#FA62A8;" d="M26.64,98.89c-1.96-0.03-3.54-1.64-3.54-3.61c0-2.18,1.51-3.59,3.77-3.53c2.15,0.05,3.46,1.45,3.39,3.61
			C30.19,97.36,28.59,98.92,26.64,98.89z" />
			<path class="st3" style="fill:#E1277F;" d="M146.58,197.16c-0.52-17.17-1.05-34.33-1.57-51.5c1.2-0.87,2.38-1.78,3.62-2.6c3.94-2.63,8.05-0.43,8.61,4.27
			c0.37,3.13,1.03,6.34,2.23,9.23c1.42,3.41,4.39,5.7,7.75,7.21c6.92,3.13,13.81,6.26,20.03,10.72c1.13,0.81,3.11,0.43,4.7,0.6
			c0.37,0.28,0.82,0.49,1.1,0.84c2.91,3.7,6.03,7.19,8.14,11.54c2.83,5.82,4.68,11.79,5.05,18.24c-5.76,0.52-9.72-1.91-12.12-7.17
			c-1.63-3.57-4.66-3.99-7.45-1.24c-1.78,1.75-3.6,3.44-5.41,5.16c-0.19-0.13-0.36-0.34-0.57-0.39
			C169.44,199.62,158.12,197.62,146.58,197.16z M165.97,177.5c-1.72,0.01-3.95,1.85-3.34,3.09c0.75,1.53,2.12,3.11,3.62,3.82
			c1.44,0.68,3.76-1.94,3.69-3.69C169.87,178.93,168.09,177.49,165.97,177.5z" />
			<path class="st17" style="fill:#FA4397;" d="M207.64,233.5c1.23-1.77,2.5-3.52,3.7-5.32c3.36-5.07,4.94-10.71,5.24-16.74c0.19-3.82,0.34-7.64,0.45-11.46
			c0.02-0.74-0.27-1.48-0.41-2.22c0.17-0.35,0.35-0.7,0.53-1.05c1.97-3,3.99-5.97,5.9-9c1.61-2.56,3.17-3.47,5.28-2.85
			c2.42,0.72,3.33,2.17,3.33,5.2c-0.01,4.85,0.06,9.71-0.02,14.56c-0.16,9.33-4.01,16.82-11.74,22.03
			C216.02,229.25,211.73,231.24,207.64,233.5z" />
			<path class="st18" style="fill:#FA61A8;" d="M207.44,152.17c-1.94-0.07-3.49-0.52-4.15-2.53c-0.59-1.79,0.17-3.06,1.58-4.01
			c7.17-4.77,12.2-11.35,16.15-18.88c1.56-2.97,4.48-4.56,7.28-4.14c3.25,0.48,6.03,2.64,6.38,5.7c0.24,2.07,0.12,4.62-0.9,6.32
			C227.82,144.62,218.78,150.2,207.44,152.17z" />
			<path class="st9" style="fill:#FB7DB6;" d="M213.92,97.1c-0.87,8.61-2.66,16.37-7.75,23.01c-0.85,1.11-1.89,2.08-2.93,3.02
			c-1.32,1.19-2.85,1.73-4.49,0.66c-1.75-1.13-1.76-2.82-1.21-4.59c2.46-7.79,2.58-15.64,0.83-23.59c-0.99-4.5,1.13-8.27,5-9.32
			c4.21-1.14,8.02,1.02,9.46,5.53C213.42,93.67,213.63,95.63,213.92,97.1z" />
			<path class="st19" style="fill:#C1206D;" d="M217.14,196.71c-0.18,0.35-0.35,0.7-0.53,1.05c-2.54,3.12-4.74,6.63-9,7.75c-0.44,0.12-0.91,0.13-1.37,0.2
			c-0.38-6.44-2.23-12.42-5.05-18.24c-2.11-4.34-5.22-7.84-8.14-11.54c-0.28-0.35-0.73-0.56-1.1-0.84c0.99-1.26,2.22-2.39,2.92-3.79
			c1.83-3.67,6.02-4.62,8.89-1.63c6.46,6.73,10.92,14.59,12.8,23.8C216.78,194.55,216.95,195.63,217.14,196.71z" />
			<path class="st20" style="fill:#64DFC3;" d="M160.06,105.88c-2.34-4.18-2.62-8.37-0.04-12.57c1.9-1.28,3.8-2.56,5.7-3.85c0.85,1.08,1.54,2.35,2.58,3.21
			c4.68,3.91,3.54,11.06-0.08,14.36c-0.97,0.89-1.95,1.76-2.92,2.64C163.56,108.41,161.81,107.14,160.06,105.88z" />
			<path class="st21" style="fill:#2BD1B3;" d="M165.3,109.67c0.97-0.88,1.95-1.76,2.92-2.64c3.61-3.3,4.75-10.45,0.08-14.36
			c-1.03-0.86-1.73-2.13-2.58-3.21c4.73-2.37,11.78,1.22,13.49,6.93c1.26,4.19,0.24,7.91-2.87,10.93
			C173.21,110.36,169.44,111.02,165.3,109.67z" />
			<path class="st15" style="fill:#FA65AA;" d="M234.87,89.14c-0.02,1.9-1.72,3.56-3.66,3.58c-2.05,0.02-3.78-1.71-3.74-3.74c0.03-1.86,1.79-3.6,3.66-3.63
			C233.04,85.32,234.89,87.18,234.87,89.14z" />
			<path class="st15" style="fill:#FA65AA;" d="M187.29,131.93c-0.01,2.04-1.76,3.73-3.81,3.66c-1.97-0.06-3.56-1.67-3.59-3.63
			c-0.02-1.96,1.82-3.78,3.78-3.73C185.51,128.29,187.3,130.12,187.29,131.93z" />
			<path class="st22" style="fill:#EE61A2;" d="M187.26,75.49c-0.21,2.07-2,3.44-4.16,3.18c-1.93-0.23-3.38-2.09-3.12-3.99c0.27-1.98,2.02-3.33,4-3.09
			C185.98,71.84,187.46,73.6,187.26,75.49z" />
			<path class="st16" style="fill:#FA62A8;" d="M226.63,108.8c-2.01-0.02-3.53-1.56-3.54-3.58c-0.01-2.2,1.49-3.63,3.74-3.56c2.1,0.07,3.47,1.53,3.43,3.64
			C230.22,107.29,228.64,108.81,226.63,108.8z" />
			<path class="st23" style="fill:#6F4189;" d="M146.58,197.16c11.54,0.46,22.86,2.46,34.11,4.91c0.21,0.04,0.38,0.25,0.57,0.39
			c-4.16,1.87-8.23,4.01-12.51,5.55c-7.17,2.58-14.48,4.77-21.73,7.13C146.87,209.14,146.73,203.15,146.58,197.16z" />
			<path class="st24" style="fill:#6F4188;" d="M92.3,199.15c4.99-0.53,9.98-1.08,14.98-1.59c1.46-0.15,2.94-0.16,4.4-0.23c-0.15,5.92-0.3,11.84-0.44,17.76
			c-7.51-2.38-15.04-4.68-22.52-7.16c-4.04-1.34-8.25-2.4-11.48-5.47c4.11-0.93,8.23-1.87,12.34-2.8
			C90.48,199.45,91.39,199.31,92.3,199.15z" />
			<path class="st25" style="fill:#FBA2CB;" d="M183.54,222.26c-2.01-0.02-3.6-1.54-3.65-3.46c-0.05-1.99,1.68-3.65,3.79-3.63c1.99,0.02,3.73,1.82,3.68,3.8
			C187.31,220.78,185.57,222.28,183.54,222.26z" />
			<path class="st25" style="fill:#FBA2CB;" d="M81.47,232.13c-2.12-0.07-3.72-1.62-3.6-3.49c0.12-1.84,2.15-3.67,3.98-3.59c1.9,0.09,3.52,1.88,3.38,3.76
			C85.1,230.73,83.43,232.2,81.47,232.13z" />
			<path class="st25" style="fill:#FBA2CB;" d="M72.32,224.6c-2.01-0.02-3.46-1.37-3.51-3.25c-0.05-1.78,1.94-3.8,3.74-3.79c1.66,0.01,3.73,2.06,3.66,3.64
			C76.13,223.25,74.54,224.63,72.32,224.6z" />
			<path class="st26" style="fill:#F95DA5;" d="M96.51,187c-0.06,1.77-2.22,3.71-4.02,3.61c-1.51-0.08-3.44-2.16-3.43-3.7c0.01-1.82,2.08-3.81,3.86-3.72
			C94.58,183.28,96.56,185.38,96.51,187z" />
			<path class="st26" style="fill:#F95DA5;" d="M165.97,177.5c2.12-0.01,3.89,1.43,3.97,3.21c0.07,1.76-2.24,4.37-3.69,3.69c-1.5-0.7-2.87-2.29-3.62-3.82
			C162.03,179.35,164.26,177.51,165.97,177.5z" />
		</g>
	</g>
</svg>
