<?xml version="1.0" encoding="iso-8859-1"?>
<!-- Generator: Adobe Illustrator 19.0.0, SVG Export Plug-In . SVG Version: 6.00 Build 0)  -->
<svg version="1.1" id="Capa_1" xmlns="http://www.w3.org/2000/svg" xmlns:xlink="http://www.w3.org/1999/xlink" x="0px" y="0px"
	 viewBox="0 0 512.001 512.001" style="enable-background:new 0 0 512.001 512.001;" xml:space="preserve">
<g>
	<g>
		<path d="M301.861,252.65c-4.143,0-7.5,3.358-7.5,7.5v12.451c0,4.142,3.357,7.5,7.5,7.5c4.143,0,7.5-3.358,7.5-7.5V260.15
			C309.361,256.008,306.004,252.65,301.861,252.65z"/>
	</g>
</g>
<g>
	<g>
		<path d="M140.547,252.65c-4.143,0-7.5,3.358-7.5,7.5v12.451c0,4.142,3.357,7.5,7.5,7.5c4.143,0,7.5-3.358,7.5-7.5V260.15
			C148.047,256.008,144.689,252.65,140.547,252.65z"/>
	</g>
</g>
<g>
	<g>
		<path d="M495.157,276.782c-11.074-20.998-34.697-33.689-63.406-34.173c0.149-2.047,2.474-33.232-18.027-56.29
			c-20.145-22.657-50.515-21.361-50.515-21.361c15.169-20.242,26.847-37.128,29.839-42.257
			c10.724-18.389,4.488-42.074-13.901-52.798c-18.388-10.727-42.074-4.489-52.799,13.9c-4.779,8.195-22.22,45.289-36.486,81.155
			h-29.029c-6.794-28.753-20.076-44.587-32.07-57.203c-8.09-8.508-10.532-11.076-11.343-21.092
			c-1.137-14.01,6.7-23.225,23.292-27.389c16.091-4.039,25.897-20.415,21.858-36.506c-4.038-16.09-20.416-25.896-36.506-21.858
			c-19.08,4.789-36.311,14.886-48.518,28.43c-15.093,16.748-22.045,38.252-20.105,62.188c2.531,31.206,17.084,46.514,27.712,57.692
			c4.604,4.843,8.785,9.258,12.164,15.74H78.255c-18.912,0-36.475,7.573-49.455,21.325c-13.045,13.821-19.625,31.907-18.525,50.925
			c2.307,39.915,12.406,97.523,47.124,146.989c-2.096,5.903-3.248,12.249-3.248,18.862v17.408h-9.124
			c-10.26,0-19.317,6.298-23.634,16.435c-4.854,11.399-2.636,24.336,5.651,32.959l20.135,20.951
			c13.13,13.663,30.24,21.187,48.176,21.187h251.701c17.936,0,35.045-7.524,48.176-21.187l20.135-20.95
			c8.287-8.624,10.505-21.561,5.651-32.96c-4.318-10.138-13.374-16.435-23.634-16.435h-44.41
			c0.623-0.557,14.157-13.791,19.578-20.162c5.118,0.859,32.48,3.417,66.538-10.665c3.828-1.583,5.316-6.266,3.529-10.002
			c-1.788-3.736-6.294-5.374-10.002-3.529c-23.382,11.631-47.549,10.432-49.203,10.335c3.549-4.924,6.849-9.934,9.922-15.005
			c12.056-0.782,24.592-4.442,36.317-10.626c16.705-8.81,30.277-22.149,37.237-36.599c3.453-7.168,8.983-21.448,1.733-33.437
			c-11.595-19.175-38.573-18.19-38.575-18.19c-0.587,0-1.18,0.02-1.772,0.035c0.82-5.109,1.507-10.129,2.072-15.031
			c23.672,0.081,42.929,9.857,51.542,26.189c11.883,22.533,2.19,53.034-24.121,75.899c-3.127,2.717-3.458,7.454-0.742,10.581
			c1.483,1.707,6.605,4.269,10.581,0.742C499.004,343.147,510.359,305.605,495.157,276.782z M339.305,91.359
			c6.557-11.245,21.04-15.058,32.285-8.5c11.244,6.558,15.057,21.04,8.5,32.284c-3.305,5.667-18.251,26.985-35.691,49.814h-38.375
			C319.792,130.988,335.433,97.999,339.305,91.359z M196.022,138.881c-10.091-10.614-21.529-22.645-23.631-48.567
			c-3.546-43.743,28.663-67.664,57.323-74.857c8.069-2.024,16.281,2.893,18.306,10.961c0.981,3.909,1.473,15.48-10.961,18.306
			c-33.875,7.698-35.415,32.994-34.591,43.15c1.24,15.298,6.579,20.914,15.423,30.215c10.588,11.138,21.349,23.946,27.471,46.868
			h-31.634C208.996,152.56,202.422,145.613,196.022,138.881z M397.382,435.467c6.064,0,8.897,5.114,9.834,7.313
			c1.895,4.447,2.333,11.487-2.666,16.688l-20.135,20.951C374.14,491.111,360.871,497,347.055,497H95.354
			c-13.816,0-27.085-5.889-37.36-16.581l-20.135-20.951c-4.998-5.201-4.56-12.24-2.665-16.688c0.936-2.199,3.769-7.313,9.833-7.313
			H397.382z M344.638,407.782c-5.004,4.634-10.418,8.885-16.127,12.686H69.15V403.06c0-22.897,18.628-41.524,41.524-41.524h20.912
			c21.046,0,38.774,15.733,41.236,36.596c0.485,4.113,4.21,7.056,8.327,6.569c4.114-0.485,7.055-4.213,6.569-8.327
			c-3.352-28.413-27.484-49.838-56.132-49.838h-20.912c-18.505,0-34.962,8.939-45.28,22.726
			c-29.268-45.14-38.05-96.662-40.145-132.917c-0.858-14.854,4.277-28.976,14.459-39.764c10.117-10.718,23.807-16.621,38.547-16.621
			h285.872c14.792,0,28.534,5.919,38.697,16.667c10.064,10.643,15.157,24.524,14.342,39.086
			C414.34,286.184,399.463,357.008,344.638,407.782z M430.051,287.586c12.293,0,21.988,3.903,25.302,10.188
			c3.595,6.816-0.187,16.208-1.979,19.93c-5.597,11.619-16.794,22.496-30.72,29.84c-6.598,3.479-13.457,6.003-20.255,7.491
			c11.226-22.342,18.487-45.379,23.078-67.274C427.016,287.646,428.546,287.586,430.051,287.586z"/>
	</g>
</g>
<g>
	<g>
		<path d="M241.633,257.603h-40.859c-8.366,0-15.171,6.806-15.171,15.171v20.43c0,19.63,15.97,35.6,35.6,35.6
			c19.629,0,35.6-15.97,35.601-35.6v-20.43C256.805,264.409,249.998,257.603,241.633,257.603z M241.804,293.204
			c0,11.359-9.242,20.601-20.601,20.601s-20.6-9.241-20.6-20.6v-20.43c0-0.094,41.201-0.094,41.201,0V293.204z"/>
	</g>
</g>
<g>
	<g>
		<path d="M125.655,19.517c-15.526-5.843-32.913,2.036-38.756,17.563c-1.837,4.88-3.416,9.854-4.693,14.78
			c-1.039,4.01,1.369,8.103,5.379,9.142c4.008,1.039,8.103-1.369,9.142-5.379c1.144-4.414,2.561-8.874,4.211-13.259
			c2.93-7.787,11.648-11.739,19.434-8.808c7.786,2.93,11.737,11.649,8.808,19.435c-6.721,17.855-7.893,34.771-3.484,50.276
			c2.26,7.946-2.375,16.154-10.553,18.688c-4.462,1.382-15.208,1.553-18.47-10.435c-2.441-8.971-3.792-18.373-3.712-28.03
			c0.035-4.142-3.295-7.528-7.437-7.562c-4.143-0.027-7.528,3.296-7.562,7.437c-0.092,11.087,1.349,21.941,4.284,32.258
			c2.411,8.482,7.695,15.461,14.494,19.147c2.969,1.609,10.893,5.097,22.842,1.513c16.071-4.82,25.049-21.27,20.541-37.119
			c-3.511-12.348-2.47-26.105,3.095-40.89C149.06,42.748,141.182,25.361,125.655,19.517z"/>
	</g>
</g>
<g>
</g>
<g>
</g>
<g>
</g>
<g>
</g>
<g>
</g>
<g>
</g>
<g>
</g>
<g>
</g>
<g>
</g>
<g>
</g>
<g>
</g>
<g>
</g>
<g>
</g>
<g>
</g>
<g>
</g>
</svg>
