<?xml version="1.0" encoding="utf-8"?>
<!-- Generator: Adobe Illustrator 24.0.1, SVG Export Plug-In . SVG Version: 6.00 Build 0)  -->
<svg version="1.1" id="Layer_1" xmlns="http://www.w3.org/2000/svg" xmlns:xlink="http://www.w3.org/1999/xlink" x="0px" y="0px"
	 viewBox="0 0 512 512" style="enable-background:new 0 0 512 512;" xml:space="preserve">
<style type="text/css">
	.st0{fill-rule:evenodd;clip-rule:evenodd;}
</style>
<path class="st0" d="M366.8,287.2c0.3-3.9,3.6-6.8,7.5-6.5c3.9,0.3,6.8,3.6,6.5,7.5c-3.8,52.5-24.8,93-56.1,120.6
	c-30.8,27.2-71.5,41.6-115.2,42.3c0.4-1.8,0.8-3.6,1-5.5c0.4-2.9,0.5-5.8,0.3-8.6c39.8-1,76.7-14.2,104.6-38.8
	C344.1,373,363.4,335.7,366.8,287.2z M196.5,443.8c2-16.2-8.2-31.9-24.4-36.2c-17.6-4.7-35.7,5.6-40.6,23.1c0,0.1-0.1,0.3-0.1,0.4
	c-4.8,17.7,5.8,36,23.5,40.7c17.7,4.8,36-5.8,40.7-23.5C196,446.8,196.3,445.3,196.5,443.8z M101.4,172.5
	c4.7-17.6-5.6-35.7-23.1-40.6c-0.1,0-0.3-0.1-0.4-0.1c-17.7-4.8-36,5.8-40.7,23.5c-4.8,17.7,5.8,36,23.5,40.7c1.5,0.4,3,0.7,4.5,0.9
	C81.4,198.9,97,188.7,101.4,172.5z M312.1,65.5c-2,16.2,8.2,31.9,24.4,36.2c17.6,4.7,35.7-5.6,40.6-23.1c0-0.1,0.1-0.3,0.1-0.4
	c4.8-17.7-5.8-36-23.5-40.7c-17.7-4.8-36,5.8-40.7,23.5C312.6,62.5,312.3,64,312.1,65.5L312.1,65.5z M443.5,312.5
	c-16.2-2-31.9,8.2-36.2,24.4c-4.7,17.6,5.6,35.7,23.1,40.6c0.1,0,0.3,0.1,0.4,0.1c17.7,4.8,36-5.8,40.7-23.5
	c4.8-17.7-5.8-36-23.5-40.7C446.5,313,445,312.7,443.5,312.5L443.5,312.5z M193.5,238.4c-9,33.6,10.9,68.1,44.5,77.1
	s68.1-10.9,77.1-44.5c9-33.6-10.9-68.1-44.5-77.1S202.5,204.8,193.5,238.4z M221.8,367.2c-48.5-3.5-85.8-22.8-111-51.4
	C86.2,287.8,73,251,72,211.1c-2.8,0.2-5.7,0.1-8.6-0.3c-1.8-0.2-3.7-0.6-5.5-1c0.7,43.7,15.1,84.4,42.3,115.2
	c27.6,31.3,68.1,52.4,120.6,56.1c3.9,0.3,7.2-2.6,7.5-6.5C228.6,370.8,225.7,367.5,221.8,367.2z M76.4,117.1
	c4.8-11.4,10.5-22.8,17.3-33.9c8.8-14.5,19.2-28.7,31.4-42.2c2.6-2.9,7-3.1,9.9-0.5c2.9,2.6,3.1,7,0.5,9.9
	c-11.5,12.8-21.4,26.3-29.8,40.1c-6.1,10.1-11.4,20.4-15.8,30.8c-2.5-1.2-5.1-2.2-7.9-3c-0.2-0.1-0.4-0.1-0.5-0.1
	C79.8,117.7,78.1,117.3,76.4,117.1z M141.8,222.1c-0.3,3.9-3.6,6.8-7.5,6.5c-3.9-0.3-6.8-3.6-6.5-7.5c3.8-52.5,24.8-93,56.1-120.6
	c30.8-27.2,71.5-41.6,115.2-42.3c-0.4,1.8-0.8,3.6-1,5.5c-0.4,2.9-0.5,5.8-0.3,8.6c-39.8,1-76.7,14.2-104.6,38.8
	C164.6,136.4,145.3,173.7,141.8,222.1L141.8,222.1z M391.9,76.8c11.4,4.8,22.8,10.5,33.9,17.3c14.5,8.8,28.7,19.2,42.2,31.4
	c2.9,2.6,3.1,7,0.5,9.9c-2.6,2.9-7,3.1-9.9,0.5c-12.8-11.5-26.3-21.4-40.1-29.8c-10.1-6.1-20.4-11.4-30.8-15.8
	c1.2-2.5,2.2-5.1,3-7.9c0.1-0.2,0.1-0.4,0.1-0.5C391.3,80.2,391.7,78.5,391.9,76.8L391.9,76.8z M286.9,142.2
	c48.5,3.5,85.8,22.8,111,51.4c24.6,27.9,37.8,64.8,38.8,104.6c2.8-0.2,5.7-0.1,8.6,0.3c1.8,0.2,3.7,0.6,5.5,1
	c-0.7-43.7-15.1-84.4-42.3-115.2c-27.6-31.3-68.1-52.4-120.6-56.1c-3.9-0.3-7.2,2.6-7.5,6.5C280.1,138.5,283,141.9,286.9,142.2
	L286.9,142.2z M432.2,392.3c-1.7-0.3-3.4-0.6-5.1-1.1c-0.2,0-0.4-0.1-0.5-0.1c-2.8-0.8-5.4-1.8-7.9-3c-4.4,10.4-9.7,20.7-15.8,30.8
	c-8.3,13.8-18.3,27.2-29.8,40.1c-2.6,2.9-2.4,7.3,0.5,9.9c2.9,2.6,7.3,2.4,9.9-0.5c12.1-13.5,22.6-27.7,31.4-42.2
	C421.7,415.1,427.4,403.7,432.2,392.3L432.2,392.3z M116.7,432.6c-11.4-4.8-22.8-10.5-33.9-17.3c-14.5-8.8-28.7-19.2-42.2-31.4
	c-2.9-2.6-3.1-7-0.5-9.9c2.6-2.9,7-3.1,9.9-0.5c12.8,11.5,26.3,21.4,40.1,29.8c10.1,6.1,20.4,11.4,30.8,15.8c-1.2,2.5-2.2,5.1-3,7.9
	c-0.1,0.2-0.1,0.4-0.1,0.5C117.3,429.2,117,430.9,116.7,432.6z"/>
</svg>
