<?xml version="1.0" encoding="utf-8"?>
<!-- Generator: Adobe Illustrator 27.0.1, SVG Export Plug-In . SVG Version: 6.00 Build 0)  -->
<svg version="1.1" id="图层_1" xmlns="http://www.w3.org/2000/svg" xmlns:xlink="http://www.w3.org/1999/xlink" x="0px" y="0px"
	 viewBox="0 0 256 256" style="enable-background:new 0 0 256 256;" xml:space="preserve">
<g>
	<g>
		<path d="M79.6,256c-0.2-0.4-0.3-0.8-0.4-1.2c-4.1-14.1-9.3-27.8-14.8-41.4c-5.2-12.8-10-25.8-15.4-38.5
			c-11.7-27.6-23.8-55.1-38.1-81.5c-0.3-0.5-0.4-1.2-0.3-1.7c3.2-11.1,2.5-22.1-0.3-33.1c-0.5-2.1-1.2-4.1-1.9-6.4
			c2.8-0.3,5.6-0.6,8.6-1c-3.4-6.3-6.7-12.4-10.1-18.7c1.6-0.6,3.3-1.3,4.9-1.9C39.2,21,67.1,13,95.5,7.2c16.8-3.4,33.7-6.2,50.9-7
			c4.2-0.2,8.4-0.1,12.6-0.1c0.6,0,1.3,0.6,1.7,1.1c4.7,7.2,9.6,14.2,14,21.5c14.4,23.3,27.6,47.3,39.5,72
			c11.1,22.9,21,46.2,29.2,70.3c2,5.9,3.8,12,5.7,18c0.2,0.6-0.2,1.3-0.3,2c-1.9,9.3-5,18.1-9.5,26.5c-1.7,3.2-4,5-7.4,5.8
			c-14.7,3.4-29.3,6.9-43.9,10.4c-9.7,2.3-19.5,4.6-29.2,7.1c-18.3,4.7-36.6,9.6-54.8,14.5c-7.8,2.1-15.5,4.3-23.3,6.5
			C80.4,255.8,80,255.9,79.6,256z M90,245.3c0.8-0.2,1.1-0.3,1.5-0.4c14-3.9,27.9-7.8,41.9-11.6c32.2-8.7,64.5-16.5,97.4-22.2
			c0.5-0.1,1.2-0.6,1.4-1.1c3.7-6.7,6.5-13.7,7.9-21.3c0.2-0.9,0.3-1.8,0.4-2.9c-0.8,0.2-1.3,0.3-1.7,0.4
			c-16.8,3.8-33.7,7.7-50.5,11.5c-17.5,3.9-35,7.6-52.6,11.4c-17.1,3.7-34.3,7.3-51.5,10.9c-0.3,0.1-0.6,0-0.9,0.1
			c-0.1-0.3-0.1-0.4-0.2-0.6c-2.1-9.1-4-18.3-6.2-27.4c-1.8-7.3-3.4-14.8-6.1-21.8C56.2,132.7,39.6,96,21.5,60
			c-1.4-2.7-1.4-2.7-4.3-2.1c-0.1,0-0.2,0.1-0.3,0.1c2.5,5.3,3.1,10.9,2.9,16.6c-0.2,5.8-0.9,11.6-1.4,17.4c0,0.6,0.1,1.4,0.4,1.9
			c2.6,4.7,5.5,9.2,8,13.9c11.6,22.5,21.5,45.8,31.1,69.2c8.2,20.1,16.3,40.1,24.5,60.2c0.1,0.3,0.3,0.5,0.7,1.2
			c1.6-5.6,0.8-11,1.2-16.4c1.5,2.1,2.7,4.2,4.1,6.3c1.1,1.6,1.7,3.4,1.7,5.4C90,237.5,90,241.3,90,245.3z M33.1,34.4
			c11.9,23,24.6,45.3,34.5,69.1c9.8,23.7,19.3,47.6,28.9,71.5c13.6-7,27.5-14.1,43.6-14.6c-0.2-0.6-0.2-0.9-0.4-1.2
			c-3.9-8.6-7.6-17.3-11.7-25.8c-5.9-12.3-12.1-24.6-18.2-36.9C101.7,79.8,93.6,63.1,84,47.2c-4.9-8.1-9.8-16.1-14.7-24.1
			c-0.2-0.4-1.1-0.7-1.6-0.6c-9.7,1.3-19,4.1-27.9,8.1C37.6,31.7,35.5,33.1,33.1,34.4z M207.1,93.5c-4.3,0.9-8.3,1.9-12.4,2.8
			c-2.5,0.5-2.6,0.5-3.8-1.8c-6.4-11.9-12.7-23.8-19-35.7c-0.1-0.2-0.1-0.4-0.2-0.7c5.3-0.8,10.5-1.6,15.9-2.5
			c-1.2-1.9-2.3-3.6-3.3-5.5c-0.5-0.9-1.1-1.1-2.1-1c-4.3,0.6-8.6,1.1-12.9,1.7c-0.9,0.1-1.4-0.1-1.9-0.9
			c-5.8-10.2-11.6-20.3-17.4-30.5c-0.1-0.2-0.2-0.4-0.3-0.8c2.4-0.2,4.6-0.4,6.8-0.6c2.2-0.2,4.4-0.3,6.9-0.5
			c-1-1.7-1.8-3.1-2.7-4.5c-0.3-0.4-1-0.8-1.5-0.8c-3.9,0-7.8,0.2-11.7,0.3c-0.8,0-1.3-0.2-1.7-0.9c-1-1.7-2-3.4-3.1-5.1
			c-0.2-0.3-0.7-0.8-1-0.8c-2.3,0.1-4.5,0.4-6.9,0.6c33.3,57,62.4,115.7,84.2,178c3.1-0.9,6-1.8,9-2.8c-3-7.6-5.9-15-9-22.7
			c4.7-1.3,9.2-2.5,13.9-3.8c-1.1-2.6-2.1-5.1-3.2-7.8c-4.7,1.1-9.3,2.1-13.9,3.1c-6.6-15.1-13.2-30.1-20-45.4
			c5.1-1.3,10.1-2.6,15.2-3.9c-0.1-0.2-0.1-0.4-0.2-0.6C209.4,98.2,208.2,95.9,207.1,93.5z"/>
		<path d="M69.2,75.9c-0.5-1.4-1.3-0.7-2-0.5c-0.8,0.3-1.6,0.6-2.5,0.9c-0.3-0.7-0.5-1.5-1-1.9c-0.5-0.4-1.2-0.4-2-0.6
			c0.3-2.4,0.6-4.7,1-7.1c0-0.3,0.5-0.6,0.9-0.6c0.6-0.1,1.2,0,1.9,0c0,0.6,0,1,0,1.7c1.4-0.7,2.7-1.3,4-1.9
			c1.8-0.9,1.8-0.9,2.7,1.2c-0.9,0.4-1.9,0.8-3.1,1.4c1,0.4,1.7,0.7,2.7,1.1c-0.5,0.8-1,1.5-1.6,2.3c1.9,0.2,3.1-1.3,5-2.2
			c-1-0.2-1.8-0.4-2.6-0.6c0.2-2.3,0.4-4.5,0.6-6.9c1,0,1.8,0,2.8,0c0,0.5,0,0.9,0,1.3c0.2,0,0.3,0.1,0.4,0.1
			c1.2-0.4,2.5-0.9,3.7-1.3c2-0.8,2-0.8,2.9,1.4c-0.8,0.3-1.6,0.5-2.2,0.8c0.9,1,1.7,2,2.7,3.1c1.4-0.5,1.7,0.8,2.2,2
			c-0.6,0.2-1.1,0.4-1.7,0.5c0.1,0.8,0.3,1.3,1.2,0.8c0.2-0.1,0.4-0.2,0.7-0.2c2-0.7,2.1-0.6,3,1.4c-4,1.5-8.1,3-12.2,4.5
			c0.4,0.7,0.6,1.1,0.8,1.6c-0.9,0.6-1.9,1.1-2.8,1.7c0,0.2,0,0.3,0,0.5c1.5,0.3,2.9,0.6,4.4,1c-0.2-1.8-0.4-3.4-0.5-4.6
			c1.6-0.7,2.9-1.2,4.1-1.9c4.3-2.1,8-0.2,8.9,4.5c0.3,1.5-0.2,2.8-1.5,3.7c-1.9,1.3-4.1,1.9-6.4,1.7c-1.9-0.1-3.2-1.3-4.3-3
			c0.1,2.3-1.3,1.8-2.9,1.5c0.7,1.3,1.3,2.4,2,3.6c-0.9,0.3-1.7,0.6-2.6,1c-0.8-1.5-1.6-2.9-2.5-4.6c-0.3,1.3-0.5,2.3-0.7,3.3
			c-0.4,1.9-0.5,1.9-2.4,1.6c-0.3,0-0.5-0.2-0.8-0.3c0.5-1.8,1-3.5,1.5-5.6c-0.9,0.5-1.6,0.8-2.3,1.2c-0.5-0.6-1-1.2-1.7-2
			c1.2-0.6,2.3-1.2,3.3-1.8c0.3-0.2,0.4-0.7,0.6-1c-0.4,0-0.8-0.1-1.2,0c-0.2,0-0.3,0.2-0.5,0.3c-1.9,1.1-1.9,1.1-3.4-1
			C66.9,77.2,68,76.6,69.2,75.9z M82.4,81.1c-0.1,0.2-0.1,0.4-0.2,0.6c0.7,0.2,1.5,0.7,2.2,0.7c1-0.1,2-0.4,2.9-0.8
			c1.1-0.4,1.6-1.2,1.3-2.4c-0.4-1.6-1.5-3.1-2.5-3c-2,0.2-3.5,1.2-4.8,2.7c1.2,0,2.4-0.2,3.5-0.4c1.8-0.3,1.9-0.3,2.2,1.7
			C85.6,80.5,84,80.8,82.4,81.1z M80.6,68.4c-0.1-1.7-1.3-1.9-2.3-2.3c-2.1-1-3.1-0.3-2.8,1.7c0.7,0.4,1.1,0.7,1.6,1
			c0.3,0.2,0.7,0.4,1.1,0.3C78.9,68.9,79.7,68.6,80.6,68.4z M68.8,71c0-0.2,0-0.3,0-0.5c-1.1-0.2-2.6-0.8-3.2-0.3
			c-0.8,0.7-0.9,2.2-1.3,3.4c0.1,0.1,0.3,0.2,0.4,0.2c0.9-0.3,1.7-0.6,2.6-0.8c-0.1-0.5-0.1-0.9-0.2-1.2
			C67.7,71.5,68.3,71.3,68.8,71z M73.6,73.4c0.6,0.6,0.8,0.9,1.2,1.3c0.9-0.4,1.8-0.7,2.7-1.1c-0.4-0.6-0.7-1.1-1.2-1.9
			C75.4,72.2,74.6,72.8,73.6,73.4z M78.8,71c0.5,1.3,1.1,2,2.4,1.3c0.6-0.3,1-0.7,0.6-1.2C80.8,69.7,79.9,71.1,78.8,71z M75.9,76
			c-1.4-0.7-2.1,0.4-3,0.8C73.5,77.8,73.9,77.7,75.9,76z"/>
		<path d="M89.1,133.7c1.6-2.7,3.2-5.3,4.8-7.9c1.3-2.3,2.7-4.6,3.9-6.9c0.6-1.1,1-1.4,2.1-0.7c0.4,0.3,0.9,0.5,1.4,0.8
			c-0.3,0.5-0.5,1-0.8,1.6c1.9,0.5,3.7,1.1,5.5,1.5c2.2,0.6,4.3,1.1,6.5,1.8c2.1,0.6,2.1,0.6,1.5,3c-2.4-0.7-4.8-1.4-7.2-2
			c-2.2-0.6-4.5-1-6.8-1.6c-0.8-0.2-1.3,0-1.7,0.7c-1.3,2.2-2.6,4.4-4.1,6.9c1.4-0.4,2.4-0.7,3.4-1c3.6-1.1,7.1-2.2,10.7-3.3
			c2.4-0.7,2.4-0.6,3.2,2c-2.3,0.6-4.5,1.2-7,1.9c0.4,1.1,0.8,2.2,1.3,3.4c1.6-0.5,3.1-1.1,4.6-1.6c2.4-0.8,2.5-0.7,3.2,2
			c-2.2,0.6-4.5,1.3-6.7,1.9c0,0.3,0,0.5,0,0.6c0.8,2.9,0.8,2.9,3.6,2c1.7-0.5,3.4-1,5.1-1.5c2.4-0.7,2.4-0.7,3.2,1.8
			c-7.4,2.4-14.7,4.8-22.3,7.2c0.1,0.1,0,0-0.1-0.1c-1.1-2.5-1.1-2.5,1.5-3.3c2.3-0.8,4.6-1.5,7-2.3c-0.4-1.1-0.7-2-1.1-3.2
			c-2.1,0.8-4.1,1.6-6.3,2.4c-0.3-0.8-0.7-1.5-0.8-2.2c0-0.3,0.5-0.9,0.9-1c1.7-0.6,3.4-1.1,5.1-1.7c0-0.3,0.1-0.4,0.1-0.4
			c-1-3.1-1-3.1-4.1-2c-1.2,0.4-2.4,0.9-3.7,1.4c-0.3-0.7-0.6-1.3-1-2.2c-0.5,0.8-1,1.3-1.2,2c-0.5,1.4-1.4,1.4-2.5,0.7
			C89.8,134.1,89.5,134,89.1,133.7z"/>
		<path d="M69.1,55.8c-0.2-0.9-0.4-1.6-0.6-2.4c1.1-0.2,2.1-0.3,3.1-0.5c1.7-0.4,2-1.1,1.2-2.7c-1-1.8-2.1-2.2-4-1.4
			c-1.8,0.7-3.6,1.6-5.6,2.4c1.7,2.9,3.4,5.6,5.2,8.5c-1,0.4-1.9,0.7-2.9,1.1c-1.5-2.8-3.1-5.5-4.7-8.4c-2.3,1.4-4.6,2.6-6.8,4
			c-1.7,1-1.7,1.1-3-1c2.8-1.7,5.6-3.4,8.5-5.1c-0.7-1.2-1.5-2.4-2.3-3.8c-1.3,0.9-2.6,1.7-3.8,2.6c-1.8,1.3-1.9,1.3-3.5-0.7
			c1.9-1.3,3.9-2.7,6-4.1c-0.7-1.2-1.4-2.5-2.2-3.9c0.8-0.3,1.5-0.6,2.2-0.7c0.4,0,1,0.2,1.2,0.5c0.6,0.9,1,1.9,1.4,2.5
			c2.2-0.3,4.3-1,6.2-0.8c2.3,0.2,3.2,2.5,4,4.4c4-0.3,5.9,0.8,7.1,4.3c0.8,2.2,0,3.8-2.2,4.5C72,55.5,70.5,55.6,69.1,55.8z
			 M61.9,49.2c1.2-0.5,2.2-1,3.2-1.5c0.2-0.1,0.5-0.5,0.5-0.7c0-1.8-1.7-3.1-3.4-2.7c-0.9,0.2-1.7,0.6-2.7,1
			C60.4,46.7,61.1,47.9,61.9,49.2z"/>
		<path d="M83.7,90.9c2.8-0.7,3.1-0.6,3.7,2c0.2,0.8,0.3,1.6,0.5,2.6c0.6-0.1,1-0.3,1.5-0.4c2.4-0.6,4.8-1.3,7.3-1.9
			c2.3-0.6,2.4-0.5,3,2.1c-2.6,0.6-5.2,1.2-7.8,1.8c-3.6,0.9-3.5,0.9-3.5,4.5c0,4.2-0.8,8.3-1.8,12.4c-0.3,1.2-0.8,1.7-2,1.2
			c-0.4-0.2-0.9-0.2-1.5-0.4c1.5-5.1,2.6-10.2,2.1-15.8c-2,0.8-3.8,1.5-5.7,2.2c-2.3,0.9-2.3,0.9-3.2-1.8c1.2-0.4,2.5-0.9,3.7-1.3
			c1.3-0.4,2.5-0.9,3.8-1.3c0.8-0.2,1-0.6,0.9-1.4C84.3,93.9,84,92.4,83.7,90.9z"/>
		<path d="M90.3,101.9c0-0.1,0-0.3,0.1-0.4c0.9-1.9,0.9-2,2.8-1c4.3,2.3,8.5,4.6,12.9,7c-0.6,0.8-1,1.6-1.5,2.3
			C99.8,107.2,95.1,104.6,90.3,101.9z"/>
		<path d="M61,39.9c0.4-0.7,0.7-1.1,1.1-1.7c1.7,0.5,3.3,1.1,5.1,1.7c-0.3,0.7-0.6,1.3-0.9,1.9C64.5,41.1,62.9,40.5,61,39.9z"/>
	</g>
</g>
</svg>
