<svg id="图层_1" data-name="图层 1" xmlns="http://www.w3.org/2000/svg" viewBox="0 0 282.33 323.54"><title>bps-recipe</title><path d="M-17.31,50.7c0-11.49.09-23-.05-34.48-.05-3.69,1.36-6,4.54-7.84C7.31-3.17,27.32-14.94,47.52-26.37a8.3,8.3,0,0,1,6.93,0C74.76-14.9,94.9-3.11,115.12,8.53a7.63,7.63,0,0,1,4.23,7.28q-.12,34.67,0,69.34a7.61,7.61,0,0,1-4.19,7.29q-30,17.24-60,34.61a7.59,7.59,0,0,1-8.41,0Q16.49,109.45-13.9,92.06c-2.57-1.48-3.48-3.6-3.46-6.5.08-11.62,0-23.24,0-34.86ZM1.08,86.47c.78.58,1.22,1,1.72,1.26,15.35,8.87,30.68,17.78,46.13,26.47,1.22.69,3.61.38,5-.38,16.94-9.6,33.76-19.42,50.68-29,2.17-1.24,2.82-2.62,2.8-5q-.14-29.23,0-58.49c0-2.68-1-3.94-3.17-5.17C89.68,7.8,75.21-.6,60.71-9c-1-.6-2.13-1.15-3.71-2v4.08c0,16.49.1,33-.09,49.49,0,3.31,1,5.07,3.86,6.68C71.15,55,81.38,61,91.6,67c4.73,2.8,5.07,8.88.49,10.66a9.33,9.33,0,0,1-7-.72C74.72,71.29,64.47,65.32,54.28,59.25a5.46,5.46,0,0,0-6.43,0C33.42,67.67,18.89,76,4.41,84.33,3.37,84.93,2.39,85.63,1.08,86.47ZM45-10.88c-1.52.8-2.6,1.33-3.65,1.93C26.87-.61,12.42,7.8-2.13,16.05c-2.35,1.32-3.28,2.72-3.25,5.49.15,16.86.07,33.73.08,50.59,0,1.08.09,2.17.15,3.6.82-.36,1.39-.55,1.89-.84,15.47-8.9,31-17.78,46.33-26.83a5.21,5.21,0,0,0,1.85-3.87C45.05,30.58,45,17,45,3.34Z" transform="translate(90.17 111.28)"/><path d="M57-95.07V-77.3c0,9,0,18,0,27,0,4.42-2.36,7.07-6,7S45-45.92,45-50.39C45-65,45-79.62,45-95c-4,2.3-7.59,4.42-11.23,6.4s-7.08,1.07-8.77-2c-1.6-2.88-.77-6.19,2.36-8.09,6.83-4.14,13.66-8.3,20.72-12a7.85,7.85,0,0,1,6.29.22c6.51,3.42,12.78,7.3,19.12,11,4,2.38,5.31,5.75,3.45,8.95s-5.35,3.76-9.48,1.44C64.12-90.94,60.82-92.87,57-95.07Z" transform="translate(90.17 111.28)"/><path d="M57,196.06c4-2.28,7.41-4.27,10.87-6.19,3.85-2.14,7.31-1.47,9.11,1.69s.58,6.5-3.22,8.75c-6.45,3.82-12.84,7.75-19.46,11.22a7.83,7.83,0,0,1-6.29.14,234.91,234.91,0,0,1-20.33-11.93,8.19,8.19,0,0,1-3.12-6.07c0-1.66,2.24-3.83,4-4.7,1.32-.65,3.67,0,5.23.77,3.66,1.78,7.12,4,11.2,6.29v-8c0-12.13,0-24.25,0-36.38,0-4.75,2.24-7.44,6-7.42S57,147,57,151.75q0,20.07,0,40.12Z" transform="translate(90.17 111.28)"/><path d="M-78.06-17.07c0,4.47,0,8.29,0,12.1-.05,4.67-2.34,7.46-6.06,7.44S-90-.26-90-5c0-7.37,0-14.74-.1-22.1a6.34,6.34,0,0,1,3.57-6.06C-80.29-36.75-74-40.34-67.72-43.9c4.19-2.37,7.54-1.89,9.48,1.32s.63,6.66-3.62,9.17c-3.18,1.87-6.37,3.72-10,5.85,1.6,1,2.7,1.72,3.84,2.39q17.18,9.92,34.35,19.82c2.55,1.45,4.5,3.26,4.29,6.43C-29.7,5.7-34.48,7.93-39,5.44-45.19,2-51.3-1.64-57.46-5.19Z" transform="translate(90.17 111.28)"/><path d="M-72,128.5c3.89,2.25,7.12,4.1,10.31,6,4,2.39,5.37,5.69,3.62,8.89s-5.34,3.9-9.42,1.61c-6.41-3.61-12.91-7.08-19.1-11A8.15,8.15,0,0,1-90,128.32c-.37-7.59-.15-15.22-.09-22.84,0-4.37,2.43-7,6.08-7,3.49.09,5.81,2.71,5.89,6.85.08,4,0,8,0,12.64,1.92-1.07,3.41-1.88,4.87-2.72,11.12-6.43,22.19-13,33.42-19.19a9.49,9.49,0,0,1,6.61-1,6.13,6.13,0,0,1,3.52,4.61,8,8,0,0,1-3,5.81c-5.7,3.79-11.79,7-17.72,10.45Z" transform="translate(90.17 111.28)"/><path d="M174-27.51c-4.15-2.43-7.62-4.4-11-6.47s-4.57-5.49-2.81-8.52,5.13-3.82,8.79-1.79c6.64,3.69,13.36,7.3,19.76,11.38A8.2,8.2,0,0,1,192-27.22c.35,7.6.15,15.23.08,22.84,0,4.18-2.31,6.77-5.82,6.85s-6.07-2.65-6.14-7c-.07-3.95,0-7.9,0-12.47-3.64,2.06-6.76,3.81-9.85,5.59C160.7-5.9,151.27-.28,141.63,5a9.75,9.75,0,0,1-7,.73c-1.49-.49-3.22-3.29-3.08-4.9a8.36,8.36,0,0,1,3.47-5.59c9.14-5.61,18.53-10.81,27.82-16.18C166.4-23,169.9-25.1,174-27.51Z" transform="translate(90.17 111.28)"/><path d="M180.06,117.93c0-4.7-.07-8.69,0-12.68s2.51-6.72,6-6.72,5.91,2.58,5.95,6.71c.07,7.61,0,15.23.1,22.85a6.37,6.37,0,0,1-3.53,6.08c-6.4,3.63-12.79,7.28-19.2,10.88-3.94,2.2-7.29,1.63-9.17-1.46s-.69-6.6,3.28-9c3.11-1.85,6.25-3.64,9.37-5.48.17-.11.24-.39.51-.85-.89-.58-1.75-1.21-2.68-1.75q-17.64-10.22-35.32-20.39c-2.86-1.65-4.7-3.81-3.8-7.29,1.1-4.23,5.3-5.65,9.64-3.17,11.38,6.48,22.7,13.07,34,19.61C176.66,116.1,178.07,116.84,180.06,117.93Z" transform="translate(90.17 111.28)"/></svg>