<svg id="图层_1" data-name="图层 1" xmlns="http://www.w3.org/2000/svg" viewBox="0 0 353.56 353.7"><title>bps-collection</title><path d="M-42.82-126.55H190.63c7,5.28,7.27,9,1.25,15.78q-34.4,38.49-68.75,77c-.58.65-1,1.4-1.61,2.15L159.88,7.5Q176.44,24.39,193,41.28c4.06,4.15,4.17,8.07.43,12.5-1.11,1.31-2.31,2.56-3.45,3.85l-11.55,13c1.8.09,2.9.2,4,.2,12.2,0,24.4,0,36.6.06a7.73,7.73,0,0,1,7.86,6c.91,3.38-.48,6.72-3.87,8.81-2.15,1.32-4.46,2.39-6.7,3.55l-17,8.76a6.34,6.34,0,0,0,3.4.83c5.07,0,10.13-.07,15.2,0s8.1,2.34,9,6.4c.86,3.74-1,7-5.39,9.34-6.83,3.57-13.69,7.06-20.52,10.61-.71.37-1.35.87-2.66,1.73,7,0,13.26,0,19.47,0,5,0,8.12,2.31,9.08,6.36.9,3.72-1,7.13-5.29,9.4-6.73,3.52-13.49,6.94-20.23,10.43-.85.44-1.63,1-3.24,2h4.7c5.52,0,11.05-.07,16.57.08A7.64,7.64,0,0,1,226.8,161c1,3.31-.19,6.5-3.29,8.71a22.28,22.28,0,0,1-2.69,1.54q-52.42,27-104.91,53.87A18,18,0,0,1,108,227q-111.87.15-223.76.14c-5,0-8.64-1.59-10.68-6.28v-3.45c2-4.76,5.53-6.35,10.6-6.34q110.31.13,220.63,0a15,15,0,0,0,6.54-1.54Q147,191.4,182.53,173c.83-.42,1.59-1,3-1.86-5.55,0-10.28-.22-15,.09a20.73,20.73,0,0,0-7.81,1.92c-15.5,7.79-30.87,15.86-46.38,23.64a19.07,19.07,0,0,1-8.18,2.05q-112,.16-224.09.15c-5.08,0-8.62-1.65-10.51-6.44v-2.76c1.67-5.39,5.6-6.91,10.88-6.9q110.31.09,220.63,0a12.09,12.09,0,0,0,5.3-1q36.39-18.57,72.69-37.33a17.87,17.87,0,0,0,2.12-1.61c-5.06,0-9.46-.27-13.8.09a25.76,25.76,0,0,0-9.13,2.21C146.87,153,131.62,161,116.22,168.79a18.24,18.24,0,0,1-7.86,2q-112.21.17-224.43.12c-5,0-8.63-1.77-10.33-6.7v-2.77c1.81-5.34,5.85-6.68,11.05-6.68q110,.09,220,0a16.29,16.29,0,0,0,7.19-1.71c23.26-11.83,46.44-23.81,69.64-35.75,1-.54,2.05-1.11,3.07-1.66a57.1,57.1,0,0,0-13.35-.58,25.58,25.58,0,0,0-9.13,2.24C146.64,125,131.38,133,116,140.78a18.41,18.41,0,0,1-7.86,1.93Q-4,142.86-116,142.85c-5,0-8.45-1.6-10.38-6.24v-4.15c1.32-1.7,2.54-3.49,4-5.09q34.34-38.52,68.7-77c.68-.77,1.3-1.58,2-2.43-.81-.86-1.5-1.62-2.22-2.36q-33.34-34-66.66-68c-2.06-2.1-3.85-4.47-5.77-6.71v-4.15a53.71,53.71,0,0,1,3.7-5.29q36.93-41.47,74-82.84A59.2,59.2,0,0,1-42.82-126.55ZM169,39.79c-1.42-1.52-2.17-2.38-3-3.19Q137.69,7.76,109.44-21.13a7.55,7.55,0,0,0-6-2.49q-69.06.11-138.14,0a25.69,25.69,0,0,1-4.81-.27,7.68,7.68,0,0,1-6.3-7.58A7.49,7.49,0,0,1-40-39a21.38,21.38,0,0,1,5.12-.48q69.24,0,138.49,0a6.36,6.36,0,0,0,5.33-2.3Q138-74.57,167.29-107.25c.8-.9,1.53-1.87,2.64-3.22-1.23-.06-1.87-.13-2.52-.13q-101,0-202,.08a6.11,6.11,0,0,0-4,1.85Q-68.54-75.4-98.26-42c-.56.63-1.06,1.33-2,2.46,10.15,0,19.67,0,29.2,0,5.45,0,8.94,3.24,8.95,8s-3.43,7.9-8.94,8c-8.17.07-16.34,0-24.52,0-1,0-1.93.12-3.29.22.73.88,1.12,1.42,1.59,1.9Q-68.11,8.28-38.91,37.93a7.47,7.47,0,0,0,4.81,1.79q51.29.15,102.57.08A29.1,29.1,0,0,1,73,40a7.61,7.61,0,0,1,6.56,7.34,7.45,7.45,0,0,1-5.8,7.89,21.4,21.4,0,0,1-5.12.51q-51.1,0-102.22,0a7,7,0,0,0-5.87,2.67q-29,32.67-58.14,65.22c-.78.87-1.47,1.82-2.6,3.23h3.14q100.5,0,201,.05a6,6,0,0,0,5-2.33q28-31.49,56.09-62.88c1.57-1.76,3.13-3.54,5.21-5.9h-4.48q-29.7,0-59.4,0a19,19,0,0,1-4.77-.53,7.49,7.49,0,0,1-5.68-8A7.63,7.63,0,0,1,102.16,40a25.68,25.68,0,0,1,4.48-.24H169Zm15.7,47.78-.16-.73c-4.19,0-8.41.37-12.55-.09-5.8-.64-9.91,1.19-13.41,6s-8,9.17-12.06,13.72l.47.55Z" transform="translate(126.4 126.55)"/></svg>