<?xml version="1.0" encoding="utf-8"?>
<!-- Generator: Adobe Illustrator 22.1.0, SVG Export Plug-In . SVG Version: 6.00 Build 0)  -->
<svg version="1.1" id="图层_1" xmlns="http://www.w3.org/2000/svg" xmlns:xlink="http://www.w3.org/1999/xlink" x="0px" y="0px"
	 viewBox="0 0 256 256" style="enable-background:new 0 0 256 256;" xml:space="preserve">
<path d="M74.4,22.6C57.6,22.6,44,36.2,44,53.1v148.1c0,16.8,13.6,30.4,30.4,30.4c47.4,0,94.9,0,142.3,0c0-69.7,0-139.4,0-209
	C169.2,22.6,121.8,22.6,74.4,22.6z M92.7,34.8h16.8v38.8l-8.4-8.4l-8.4,8.4C92.7,73.6,92.7,34.8,92.7,34.8z M204.5,195.1H74.4
	c-3.4,0-6.1,2.7-6.1,6.1s2.7,6.1,6.1,6.1h130.1v12.2H74.4c-10.1,0-18.3-8.2-18.3-18.3c0-10.1,8.2-18.3,18.3-18.3h130.1V195.1z
	 M204.5,170.8H74.4c-6.9,0-13.2,2.3-18.3,6.1V53.1c0-10.1,8.2-18.3,18.3-18.3h6.1v53.5c0,3.4,2.7,6.2,6.1,6.2c1.7,0,3.2-0.7,4.3-1.8
	l10.2-10.2l10.2,10.2c1.1,1.1,2.6,1.8,4.3,1.8c3.4,0,6.1-2.7,6.1-6.1V34.8h82.8V170.8z"/>
</svg>
