<?xml version="1.0" encoding="utf-8"?>
<!-- Generator: Adobe Illustrator 26.0.3, SVG Export Plug-In . SVG Version: 6.00 Build 0)  -->
<svg version="1.1" id="图层_1" xmlns="http://www.w3.org/2000/svg" xmlns:xlink="http://www.w3.org/1999/xlink" x="0px" y="0px"
	 viewBox="0 0 256 256" style="enable-background:new 0 0 256 256;" xml:space="preserve">
<g>
	<path d="M141,141.1c0,4.8,3.4,7.2,7.3,5.1c4.4-2.4,8-2.4,12.4,0c3.9,2.2,8.1-0.8,7-5c-1.4-5.3,0.3-8.8,4-12.3
		c2.9-2.7,1.6-7.4-2.2-7.7c-5.7-0.5-8.7-3.4-11.2-8.2c-1.9-3.5-6.7-3.2-8.1,0.2c-2,5-5.4,7-10.6,7.7c-3.8,0.5-5.5,5-2.9,7.6
		C140.6,132.5,143.5,136.2,141,141.1z"/>
	<path d="M227.8,34.1h-12.6v-8.7c0-9.7-7.9-17.6-17.6-17.6c-9.7,0-17.6,7.9-17.6,17.6v8.7H76v-8.7c0-9.7-7.9-17.6-17.6-17.6
		s-17.6,7.9-17.6,17.6v8.7H28.2c-9.9,0-17.9,8.1-17.9,17.9v27.1v144.5v6.6c0,9.9,8.1,17.9,17.9,17.9h199.6c9.9,0,17.9-8.1,17.9-17.9
		v-6.6V79.1V52C245.7,42.1,237.7,34.1,227.8,34.1z M192,25.4c0-3.1,2.5-5.6,5.6-5.6c3.1,0,5.6,2.5,5.6,5.6v8.7h0v20.8
		c0,3.1-2.5,5.6-5.6,5.6c-3.1,0-5.6-2.5-5.6-5.6V25.4z M52.8,25.4c0-3.1,2.5-5.6,5.6-5.6s5.6,2.5,5.6,5.6v8.7h0v20.8
		c0,3.1-2.5,5.6-5.6,5.6c-3.1,0-5.6-2.5-5.6-5.6V25.4z M233.7,230.2c0,3.3-2.7,5.9-5.9,5.9H28.2c-3.3,0-5.9-2.7-5.9-5.9v-6.6h211.5
		V230.2z M233.7,211.6H22.3V91.1h211.5V211.6z M233.7,79.1H22.3V52c0-3.3,2.7-5.9,5.9-5.9h12.6v8.8c0,0,0,0,0,0V55
		c0,9.7,7.9,17.6,17.6,17.6S76,64.7,76,55v-9H180v8.8c0,0,0,0,0,0V55c0,9.7,7.9,17.6,17.6,17.6c9.7,0,17.6-7.9,17.6-17.6v-9h12.6
		c3.3,0,5.9,2.7,5.9,5.9V79.1z"/>
	<path d="M131.2,201.2c19.2,0,35.9-10.6,44.5-26.3c-4.2,1.1-8.5,1.7-13,1.7c-28.1,0-50.9-22.8-50.9-50.9c0-8.9,2.3-17.3,6.3-24.6
		c-21.8,5.7-37.8,25.6-37.8,49.2C80.3,178.4,103.1,201.2,131.2,201.2z"/>
</g>
</svg>
