<svg id="图层_1" data-name="图层 1" xmlns="http://www.w3.org/2000/svg" viewBox="0 0 378.09 378.13"><defs><style>.cls-1{fill:#4c9da5;}.cls-2{fill:#98c752;}.cls-3{fill:#60a892;}.cls-4{fill:#59a49b;}.cls-5{fill:#6daf84;}.cls-6{fill:#67ac8b;}.cls-7{fill:#87bd67;}.cls-8{fill:#7cb774;}.cls-9{fill:#84bc6b;}.cls-10{fill:#8fc260;}.cls-11{fill:#80b96f;}.cls-12{fill:#78b579;}.cls-13{fill:#6daf81;}.cls-14{fill:#72b27e;}.cls-15{fill:#64aa8a;}.cls-16{fill:#79b574;}.cls-17{fill:#92c358;}.cls-18{fill:#74b379;}.cls-19{fill:#74b37c;}.cls-20{fill:#52a0a0;}.cls-21{fill:#8cc05e;}.cls-22{fill:#5ba595;}.cls-23{fill:#89be70;}.cls-24{fill:#56a29a;}.cls-25{fill:#91c36e;}.cls-26{fill:#87bd7a;}.cls-27{fill:#8cc063;}.cls-28{fill:#7cb797;}</style></defs><title>calendar</title><path class="cls-1" d="M555.75,538.41l5.76-.33V321.27l-5-.36V309.2l5.24-.31v-4.06c0-13.56-.16-27.11.08-40.66.1-5.93-1.88-10.37-6.91-13.46q0-6.08.08-12.15c10.22,1.86,18.18,11.18,18.71,21.92,0,.88,0,1.75,0,2.63V548.37c0,12.46-6.07,20.66-18,24.46l-.84-12.09c4.77-3.32,6-5.25,6.62-10.43l-5.75-.38Z" transform="translate(-195.66 -195.65)"/><path class="cls-2" d="M217.5,320.92h-9.75V424.65a23.27,23.27,0,0,1-.12,3.74,6,6,0,0,1-6.08,5,5.87,5.87,0,0,1-5.7-5,16.52,16.52,0,0,1-.1-3q0-81.31,0-162.63c0-13.18,8.38-23,20.92-24.61l.12,11.74c-6.67,2.59-9.26,7.46-9.13,14.57.27,14.67.08,29.36.08,44.75h9.75Z" transform="translate(-195.66 -195.65)"/><path class="cls-2" d="M217.48,549.93h-9.23c-.27,6,2.86,9.6,10,11.9v11.74c-12.14-.57-22.33-10.65-22.43-22.82-.19-23.22-.08-46.45,0-69.68,0-4,2.58-6.76,6-6.74s5.95,2.76,6,6.78q.06,26.24,0,52.45v4.86h9.75C217.49,542.26,217.48,546.09,217.48,549.93Z" transform="translate(-195.66 -195.65)"/><path class="cls-3" d="M498,293c-13.19,0-24.43-10.92-24.73-24-.14-6.22,0-12.44,0-19.36H465V237.87h8.25c0-6.25-.1-12.08,0-17.9A24.36,24.36,0,0,1,489,197.88q.39,6.45.79,12.89c-3.49,3.64-4.69,7.93-4.61,13,.22,14,.07,28,.08,42,0,9.29,3.55,13.6,12.77,15.56Z" transform="translate(-195.66 -195.65)"/><path class="cls-4" d="M498,293V281.31c9.82-1.4,13.65-5.79,13.65-15.72,0-13.59-.16-27.18.08-40.77.11-5.79-.82-10.87-5.52-14.71l0-12.87c9.68,3.94,17.14,10.3,17.39,23.69.1,5.46,0,10.93,0,16.57l4.34.37v11.76l-4.33.29c0,4.69.12,9.36,0,14-.13,3.71-.06,7.56-1,11.09A24.61,24.61,0,0,1,498,293Z" transform="translate(-195.66 -195.65)"/><path class="cls-5" d="M433.5,417.46c-4,2-8,4-12,6.05-3.39,1.75-6.75,1.91-9.9-.34a8.63,8.63,0,0,1-3.68-9.5,9.82,9.82,0,0,1,.18-1.48c3.54-8.77.37-15.16-6.85-20.4a9.18,9.18,0,0,1,5.53-16.62c9.31.24,15-3.79,17.7-12.72,1.24-4.06,4.21-6.79,9-6.34l0,15.91a51.61,51.61,0,0,0-3.45,6.07c-1.94,4.71-5.43,6.93-10.35,7.36-2,.18-4.07.61-7.54,1.14,9.93,5.87,12.17,13.67,8.24,23.1l13.11-4.58Z" transform="translate(-195.66 -195.65)"/><path class="cls-6" d="M433.49,372l0-15.91c3.8.07,6.33,2.23,8.13,5.27a35.27,35.27,0,0,1,3.61,7.38c1.23,4.06,4.05,5.19,7.79,5.46a77.52,77.52,0,0,1,8.16,1.07c3.57.65,6.3,2.59,7.35,6.15A8.91,8.91,0,0,1,466,391a79.62,79.62,0,0,0-7.4,7.41,8.2,8.2,0,0,0-1.68,5.2,77,77,0,0,0,1.67,9.94,8.9,8.9,0,0,1-3.34,9.32,8.67,8.67,0,0,1-9.84.81c-4-2-8-4.17-11.93-6.26V405.11l12.85,4.9c-4.74-10.28-1.31-17.6,7-23.77C442,387.33,436.59,381.19,433.49,372Z" transform="translate(-195.66 -195.65)"/><path class="cls-7" d="M280.53,197.87a24.43,24.43,0,0,1,15.69,21.72c.15,5.85,0,11.71,0,18.28H306v11.76h-9.74c0,6.61.08,12.8,0,19a24.63,24.63,0,0,1-16.41,22.74l-.12-13.22c3.38-3.51,4.68-7.65,4.62-12.55q-.25-20.92,0-41.86c.06-5-1.11-9.32-4.6-12.94Q280.15,204.33,280.53,197.87Z" transform="translate(-195.66 -195.65)"/><path class="cls-8" d="M334.6,351.8c2-1.46,3.94-3,6-4.37,3.88-2.51,8-2.49,11.17-.09s4.27,6.27,2.63,10.77a84.11,84.11,0,0,0-4.9,33.45c.54,10.46,3.49,20.33,7.45,29.95-.49,1.08-1.32,2.13-1.41,3.24-.42,5.23-.63,10.48-.91,15.73a5.29,5.29,0,0,1-.78-.79c-13.15-19.46-18.47-40.86-15.79-64.21.48-4.18,1.09-8.34,1.63-12.51l.38-.2c-.06,0-.14,0-.17,0a.94.94,0,0,0-.16.23l-3.66,2.5c-.29-2.42-.58-4.84-.85-7.26C335,356.11,334.82,354,334.6,351.8Z" transform="translate(-195.66 -195.65)"/><path class="cls-9" d="M314.65,481.44A85,85,0,0,1,298,441.5c-3.6-24.31,1.45-46.85,15.05-67.4a10.58,10.58,0,0,1,1.24-1.36c.25,4.29.43,8.58.78,12.87.2,2.41.69,4.8,1,7.2-3.78,9.53-6.55,19.28-7.1,29.6-.73,13.84,2.1,26.95,7.54,39.59-.25,3.48-.45,7-.78,10.44C315.45,475.45,315,478.44,314.65,481.44Z" transform="translate(-195.66 -195.65)"/><path class="cls-10" d="M261.72,291.1a23.9,23.9,0,0,1-15.79-21.55c-.19-6.46,0-12.93,0-19.51l-3.65-.41V237.87l3.66-.41c0-6.23-.36-12.36.08-18.43.73-9.89,5.8-17,15-21,.25,2.06.51,4.13.74,6.19s.43,4.32.65,6.49c-3.61,3.55-4.69,7.87-4.62,12.88q.3,20.91,0,41.81c-.07,5,1.1,9.31,4.72,12.85Z" transform="translate(-195.66 -195.65)"/><path class="cls-6" d="M433.5,468.85a93.9,93.9,0,0,0,27.43-5.47c3.75-1.38,7-.27,9.48,2.56s3.2,6.48,1.22,9.77c-8.94,14.88-20.91,26.64-36.58,34.42q-.39-6.44-.8-12.87a32.43,32.43,0,0,0,3-2.2c5.85-5.43,11.65-10.91,17.48-16.38.14-.18.29-.35.44-.53l-.89.09L433.5,480.6Z" transform="translate(-195.66 -195.65)"/><path class="cls-5" d="M434.25,497.26q.4,6.44.8,12.87c-9.53,5.6-19.9,8.63-30.79,10.07l0-11.79A103,103,0,0,0,434.25,497.26Z" transform="translate(-195.66 -195.65)"/><path class="cls-5" d="M433.5,468.85V480.6a81,81,0,0,1-31.56-4.89c0-2.61-.14-5.24.14-7.83.13-1.29,1.07-2.5,1.65-3.75A102.27,102.27,0,0,0,433.5,468.85Z" transform="translate(-195.66 -195.65)"/><path class="cls-11" d="M314.65,481.44c.36-3,.8-6,1.08-9,.33-3.47.53-7,.78-10.44a99.81,99.81,0,0,0,20.3,26.81L336,503A80.69,80.69,0,0,1,314.65,481.44Z" transform="translate(-195.66 -195.65)"/><path class="cls-12" d="M354.65,440.48c.28-5.25.49-10.5.91-15.73.09-1.11.92-2.16,1.41-3.24,4.88,10.37,12.27,18.86,20.15,27-.46,1-1.26,1.94-1.31,2.94-.17,3.54-.08,7.09-.09,10.64A77.28,77.28,0,0,1,354.65,440.48Z" transform="translate(-195.66 -195.65)"/><path class="cls-11" d="M316.07,392.81c-.35-2.4-.84-4.79-1-7.2-.35-4.29-.53-8.58-.78-12.87A76.25,76.25,0,0,1,334.6,351.8c.22,2.15.42,4.31.65,6.46.27,2.42.56,4.84.85,7.26A95.26,95.26,0,0,0,316.07,392.81Z" transform="translate(-195.66 -195.65)"/><path class="cls-13" d="M394.5,561.87c8.71,0,17.42-.13,26.13-.09,3.77,0,6.42,2.5,6.54,5.78s-2.62,6.14-6.54,6.16c-8.71,0-17.42-.05-26.13-.09Z" transform="translate(-195.66 -195.65)"/><path class="cls-11" d="M306,249.63V237.87h30.75v11.76Z" transform="translate(-195.66 -195.65)"/><path class="cls-14" d="M375.72,462.09c0-3.55-.08-7.1.09-10.64.05-1,.85-2,1.31-2.94a112.14,112.14,0,0,0,26.6,15.62c-.57,1.25-1.51,2.46-1.64,3.75-.28,2.59-.12,5.22-.14,7.83A76.46,76.46,0,0,1,375.72,462.09Z" transform="translate(-195.66 -195.65)"/><path class="cls-15" d="M431.27,538.36l30,0c0,3.84,0,7.68,0,11.52l-29.9.07Z" transform="translate(-195.66 -195.65)"/><path class="cls-14" d="M389.25,538.41l28.48-.06c0,3.89,0,7.77,0,11.66l-28.42-.07C389.26,546.1,389.26,542.25,389.25,538.41Z" transform="translate(-195.66 -195.65)"/><path class="cls-16" d="M336.75,249.63V237.87H364.5v11.74Z" transform="translate(-195.66 -195.65)"/><path class="cls-15" d="M465,237.87v11.76H437.25V237.87Z" transform="translate(-195.66 -195.65)"/><path class="cls-17" d="M217.5,320.92V309.2h27.75v11.71Z" transform="translate(-195.66 -195.65)"/><path class="cls-18" d="M394.5,561.87v11.76H366.75V561.88Z" transform="translate(-195.66 -195.65)"/><path class="cls-19" d="M367.5,309.2c7.49-.05,15-.2,22.46-.1a5.81,5.81,0,0,1,6.1,6.17c-.1,3.33-2.44,5.71-6.1,5.74-7.48.07-15-.05-22.46-.09Z" transform="translate(-195.66 -195.65)"/><path class="cls-20" d="M528,249.63V237.87c7.8,0,15.6-.08,23.4,0a17.7,17.7,0,0,1,3.6.73q0,6.08-.08,12.15c-6.87-.32-13.75-.65-20.63-1C532.2,249.67,530.1,249.67,528,249.63Z" transform="translate(-195.66 -195.65)"/><path class="cls-16" d="M337.52,538.38l27,0c0,3.84,0,7.67,0,11.51l-26.93.05Z" transform="translate(-195.66 -195.65)"/><path class="cls-21" d="M244.5,538.41l27,0,0,11.59-26.93,0C244.51,546.09,244.51,542.25,244.5,538.41Z" transform="translate(-195.66 -195.65)"/><path class="cls-17" d="M244.5,538.41c0,3.84,0,7.68,0,11.52h-27c0-3.84,0-7.67,0-11.51Z" transform="translate(-195.66 -195.65)"/><path class="cls-17" d="M218.25,573.57V561.83l27,0v11.76Z" transform="translate(-195.66 -195.65)"/><path class="cls-22" d="M483.76,309.2H510v11.71H483.75Q483.75,315.05,483.76,309.2Z" transform="translate(-195.66 -195.65)"/><path class="cls-3" d="M483.76,309.2q0,5.85,0,11.72c-6.85,0-13.71.15-20.57.09a6,6,0,0,1-6.2-5.72,6.16,6.16,0,0,1,6.21-6.18C470,309,476.9,309.15,483.76,309.2Z" transform="translate(-195.66 -195.65)"/><path class="cls-23" d="M292.49,538.37H318V550H292.53Q292.5,544.19,292.49,538.37Z" transform="translate(-195.66 -195.65)"/><path class="cls-16" d="M367.5,309.2v11.72H342V309.2Z" transform="translate(-195.66 -195.65)"/><path class="cls-17" d="M242.25,237.87v11.76l-25.45.25-.12-11.74Z" transform="translate(-195.66 -195.65)"/><path class="cls-16" d="M366.75,561.88v11.74h-25.5V561.87Z" transform="translate(-195.66 -195.65)"/><path class="cls-8" d="M336,503q.4-7.11.8-14.23l21.69,13.8v12.56Z" transform="translate(-195.66 -195.65)"/><path class="cls-22" d="M508.5,573.63c-6.7,0-13.41.16-20.12.08-3.83,0-6.22-2.48-6.22-6s2.39-5.92,6.22-6c6.71-.07,13.42,0,20.12.08Z" transform="translate(-195.66 -195.65)"/><path class="cls-18" d="M364.48,549.93c0-3.84,0-7.67,0-11.51h24.75c0,3.84,0,7.69,0,11.53Z" transform="translate(-195.66 -195.65)"/><path class="cls-21" d="M245.25,573.63V561.87H270v11.76Z" transform="translate(-195.66 -195.65)"/><path class="cls-24" d="M508.5,538.42h24.75c0,3.84,0,7.68,0,11.52h-24.7Z" transform="translate(-195.66 -195.65)"/><path class="cls-5" d="M437.25,237.87v11.76H412.5V237.87Z" transform="translate(-195.66 -195.65)"/><path class="cls-21" d="M245.25,320.91V309.2H270v11.72Z" transform="translate(-195.66 -195.65)"/><path class="cls-18" d="M364.5,249.62V237.88h24.75v11.76Z" transform="translate(-195.66 -195.65)"/><path class="cls-14" d="M404.23,508.41l0,11.79-24.76.19.75-11.75Z" transform="translate(-195.66 -195.65)"/><path class="cls-9" d="M318,320.92H294V309.19h24Z" transform="translate(-195.66 -195.65)"/><path class="cls-11" d="M318,320.92V309.19h24v11.72Z" transform="translate(-195.66 -195.65)"/><path class="cls-7" d="M294,309.19v11.73H270V309.2Z" transform="translate(-195.66 -195.65)"/><path class="cls-24" d="M510,320.91V309.2h24v11.71Z" transform="translate(-195.66 -195.65)"/><path class="cls-24" d="M508.5,573.63V561.87h24v11.76Z" transform="translate(-195.66 -195.65)"/><path class="cls-22" d="M508.5,538.42l0,11.51h-24l0-11.52Z" transform="translate(-195.66 -195.65)"/><path class="cls-7" d="M270,573.63V561.87h24v11.76Z" transform="translate(-195.66 -195.65)"/><path class="cls-11" d="M341.25,561.87v11.76h-24V561.87Z" transform="translate(-195.66 -195.65)"/><path class="cls-9" d="M317.25,561.87v11.76H294V561.87Z" transform="translate(-195.66 -195.65)"/><path class="cls-13" d="M389.25,249.63V237.87H412.5v11.76Z" transform="translate(-195.66 -195.65)"/><path class="cls-3" d="M484.5,538.41l0,11.52h-23.3c0-3.84,0-7.68,0-11.52Z" transform="translate(-195.66 -195.65)"/><path class="cls-20" d="M532.5,573.63V561.87c4.93,0,9.85,0,14.77-.16,2.56-.1,5.09-.63,7.64-1l.84,12.09Z" transform="translate(-195.66 -195.65)"/><path class="cls-12" d="M380.25,508.64l-.75,11.75-21-5.22V502.61Z" transform="translate(-195.66 -195.65)"/><path class="cls-20" d="M533.23,549.93c0-3.84,0-7.68,0-11.52h22.5l0,11.52Z" transform="translate(-195.66 -195.65)"/><path class="cls-20" d="M534,320.91V309.2h22.51v11.71Z" transform="translate(-195.66 -195.65)"/><path class="cls-25" d="M292.49,538.37q0,5.82,0,11.63l-21.08,0,0-11.59Z" transform="translate(-195.66 -195.65)"/><path class="cls-26" d="M318,550V538.36l19.55,0,0,11.6Z" transform="translate(-195.66 -195.65)"/><path class="cls-27" d="M262.4,210.73c-.22-2.17-.42-4.33-.65-6.49s-.49-4.13-.74-6.19a21.77,21.77,0,0,1,19.52-.18q-.39,6.47-.79,12.91C274,207,268.19,206.6,262.4,210.73Z" transform="translate(-195.66 -195.65)"/><path class="cls-6" d="M458,573.73c-1.62,0-3.25.11-4.86,0a6.1,6.1,0,0,1-5.8-6.15,6,6,0,0,1,5.79-5.76c3.36-.15,6.74-.17,10.09,0a5.69,5.69,0,0,1,5.68,5.75,5.78,5.78,0,0,1-5.67,6.16C461.49,573.85,459.74,573.73,458,573.73Z" transform="translate(-195.66 -195.65)"/><path class="cls-27" d="M261.72,291.1l.78-12.83q8.64,5.7,17.21-.14l.12,13.22A21.4,21.4,0,0,1,261.72,291.1Z" transform="translate(-195.66 -195.65)"/><path class="cls-22" d="M506.25,197.24q0,6.44,0,12.87c-5.63-3.46-11.1-3-16.45.66q-.4-6.44-.79-12.89A20.78,20.78,0,0,1,506.25,197.24Z" transform="translate(-195.66 -195.65)"/><path class="cls-2" d="M207.68,456.71a26.89,26.89,0,0,1,0,4.49c-.55,3.24-2.62,5.17-5.92,5.16a5.53,5.53,0,0,1-5.85-5.21,46.85,46.85,0,0,1-.08-7.86,6.18,6.18,0,0,1,6-6,6.24,6.24,0,0,1,5.95,6.06c.08,1.12,0,2.25,0,3.37Z" transform="translate(-195.66 -195.65)"/><path class="cls-5" d="M425.39,321c-1.24,0-2.49.09-3.72,0-3.28-.31-5.23-2.1-5.51-5.44a5.57,5.57,0,0,1,4.93-6.35,38,38,0,0,1,8.53,0,5.93,5.93,0,0,1-.88,11.81C427.63,321.09,426.51,321,425.39,321Z" transform="translate(-195.66 -195.65)"/><path class="cls-28" d="M417.69,550c0-3.89,0-7.77,0-11.66h13.54l.06,11.64Z" transform="translate(-195.66 -195.65)"/></svg>