<?xml version="1.0" encoding="UTF-8"?>
<svg xmlns="http://www.w3.org/2000/svg" xmlns:xlink="http://www.w3.org/1999/xlink" version="1.1" id="Capa_1" x="0px" y="0px" viewBox="0 0 512 512" style="enable-background:new 0 0 512 512;" xml:space="preserve" width="512" height="512">
<path style="fill:none;stroke:currentColor;stroke-width:30;stroke-linecap:round;stroke-linejoin:round;stroke-miterlimit:10;" d="&#10;&#9;M404.352,126.471c-2.395-4.499-3.752-9.624-3.752-15.071c0-17.738,14.398-32.133,32.133-32.133&#10;&#9;c17.735,0,32.133,14.396,32.133,32.133c17.735,0,32.133,14.396,32.133,32.133s-14.398,32.133-32.133,32.133&#10;&#9;c-5.445,0-10.575-1.358-15.071-3.752L413.91,207.8l-45.444-45.445L404.352,126.471z"/>
<path style="fill:none;stroke:currentColor;stroke-width:30;stroke-linecap:round;stroke-linejoin:round;stroke-miterlimit:10;" d="&#10;&#9;M304.2,191.733c32.133,0,64.267-29.378,64.267-29.378L413.91,207.8c0,0-29.377,32.133-29.377,64.267&#10;&#9;c0,44.336-35.996,80.333-80.333,80.333s-80.333-35.997-80.333-80.333S259.862,191.733,304.2,191.733z"/>
<path style="fill:none;stroke:currentColor;stroke-width:30;stroke-linecap:round;stroke-linejoin:round;stroke-miterlimit:10;" d="&#10;&#9;M390.218,245.621l74.649,74.646c0,62.114-50.353,112.467-112.467,112.467c-68.696,0-156.237,0-224.933,0&#10;&#9;C65.353,432.733,15,382.38,15,320.267c0,0,0-0.016,0-0.04c0-75.361,45.396-143.298,115.021-172.138&#10;&#9;c68.56-28.398,147.317-13.375,200.596,37.974c-8.326,3.342-17.371,5.671-26.417,5.671c-44.338,0-80.333,35.997-80.333,80.333&#10;&#9;S259.862,352.4,304.2,352.4s80.333-35.997,80.333-80.333C384.533,263.013,386.866,253.96,390.218,245.621z"/>















</svg>
