<svg id="Layer_1_1_" enable-background="new 0 0 64 64" height="512" viewBox="0 0 64 64" width="512" xmlns="http://www.w3.org/2000/svg"><path d="m61 6h-40.10107c-.46466-2.2793-2.4845-4-4.89893-4s-4.43427 1.7207-4.89893 4h-8.10107c-.55273 0-1 .44727-1 1v54c0 .55273.44727 1 1 1h50c.26562 0 .51953-.10547.70703-.29297l8-8c.1875-.1875.29297-.44141.29297-.70703v-46c0-.55273-.44727-1-1-1zm-45-2c1.30194 0 2.40161.8385 2.81573 2h-5.63147c.41413-1.1615 1.5138-2 2.81574-2zm-3 4h2v7c0 .55176-.44824 1-1 1s-1-.44824-1-1zm39.58594 52h-48.58594v-52h7v7c0 1.6543 1.3457 3 3 3s3-1.3457 3-3v-7h43v44h-7c-.55273 0-1 .44727-1 1v4h2v-3h4.58594z"/><path d="m15 22h4v2h-4z"/><path d="m22 22h27v2h-27z"/><path d="m15 28h4v2h-4z"/><path d="m22 28h27v2h-27z"/><path d="m15 34h4v2h-4z"/><path d="m22 34h27v2h-27z"/><path d="m15 40h4v2h-4z"/><path d="m22 40h27v2h-27z"/><path d="m15 46h4v2h-4z"/><path d="m22 46h27v2h-27z"/></svg>