<svg id="图层_1" data-name="图层 1" xmlns="http://www.w3.org/2000/svg" viewBox="0 0 200 200"><defs><style>.cls-1{fill:#24292e;}</style></defs><path class="cls-1" d="M190.37,102.35l-.89-5.93a87.76,87.76,0,0,0-175.09,0l-.89,5.93a64.82,64.82,0,0,0,63,69.28,50.28,50.28,0,0,1-5.73,5.11,53.83,53.83,0,0,1-31,10.73A167.38,167.38,0,0,0,96.35,189c35.82-5.27,58.44-21.31,69.68-31.47A64.69,64.69,0,0,0,190.37,102.35ZM172.74,91.67a12,12,0,1,1-12,12A12,12,0,0,1,172.74,91.67ZM115.81,66.22c4.19-2.57,8.71-4.38,24.82-8.82,7.79-2.15,11.45-3,11.65-5,.26-2.57-5.5-5.07-5.88-5.23a15.3,15.3,0,0,0-8.71-.87,27,27,0,0,1,12.09-.43c2.36.46,8.79,1.74,9.47,5.11.5,2.52-2.44,5.06-4,6.43-6.14,5.29-12.18,4.38-19.82,10-1.74,1.29-3.37,2.77-3,3.92.26.93,1.68,1.24,2.83,1.53a45.45,45.45,0,0,1,11.54,4.57c1.08.65,6,3.58,5.55,6.21-.34,1.89-3.81,3-10.78,5-5.05,1.49-9.31,2.39-9.36,2.18s3.16-.94,7.51-3.16c2.14-1.09,6.67-3.39,6.31-5-.15-.7-1.17-1-1.74-1.2-5.9-1.71-16-.25-22.21-.44-5.71-.17-14.47-1.91-15.13-5.55C106.25,72.05,112.5,68.24,115.81,66.22ZM52.46,139.37c-14-16.84-6-38.21-6-38.21h108s8,21.37-6,38.21S113.37,158,101,158,66.5,156.21,52.46,139.37Z"/></svg>