<svg id="图层_1" data-name="图层 1" xmlns="http://www.w3.org/2000/svg" viewBox="0 0 251.94 252.02"><title>cooking</title><path d="M144.1,146.67a32.52,32.52,0,0,1-7.6,19.79,27,27,0,0,1-21.62,10.07q-62.23-.1-124.47,0c-16.71,0-28-9.75-30.48-26.39-.15-1-.27-2-.46-3.35-1.28-.32-2.7-.67-4.1-1C-61.9,141.17-75.31,124.25-75,107.37c.12-7.41,2.27-9.52,9.68-9.53h11.69c.08-1.83.55-3.5.16-4.94C-60,68.26-51,49-32.44,33.46c17-14.26,37.33-21.33,59-24.92A148.62,148.62,0,0,1,74.65,8.3c1.51.24,3.15-.44,4.74-.56,4.21-.33,8.43-.46,12.61-1a9.75,9.75,0,0,0,5.2-1.86c3.33-3,6.15-6.57,9.38-9.68,6.34-6.1,13.49-9.42,22.46-6a3,3,0,0,0,2.54-.59c2.72-2.37,5.31-4.9,8.18-7.59-.86-.77-1.27-1.17-1.71-1.53-6-4.86-7.75-10.42-5.33-16.85,2.5-6.65,8.91-11.3,15.39-11.15s12.17,5,14.37,11.78a4.93,4.93,0,0,0,2.57,2.91c7.5,2.38,11.48,7,11.85,14.09a15.79,15.79,0,0,1-9.66,15.49C160.42-1.58,154.1-3.47,149-9.7c-.24-.29-.45-.6-1.19-1.59-2.65,2.92-5.15,5.52-7.43,8.3a3.49,3.49,0,0,0-.54,2.93c3.23,8.51.4,15.35-5.59,21.43-2.16,2.19-4.25,4.47-6.44,6.79C151.15,45.7,164.24,67.26,154,97.84c5.19,0,10.18,0,15.16,0,4.59,0,6.76,1.3,7.27,5.8a33.63,33.63,0,0,1-.66,12.54c-4.26,15.17-13.9,25.37-29.31,29.7C145.75,146.1,145.05,146.36,144.1,146.67ZM10.86,83.83a10.2,10.2,0,0,0,.73-.76c9.28-11.74,21.31-16.84,36-13.81,14.41,3,23.44,12.18,27.26,26.31.69,2.55,2.15,2.27,3.87,2.27h51c12.76,0,12.89-.1,15.32-13a25.74,25.74,0,0,0,.45-3.71c.75-18.85-9.1-31.77-23.6-42.06-.11-.08-.42.13-.64.2-2.1,17.58-9.59,27.94-23.66,32.05-13.54,4-25.47.73-34.57-10C51.72,48,52.33,33.62,61.62,19c-7.89,0-15.51-.53-23,.1C18.3,20.81-.95,26.17-18.23,37.34c-9.95,6.42-18.26,14.5-22.49,25.84-1.68,4.51-2.33,9.4-3.44,14.11C-24.9,62.69-2,66.72,10.86,83.83Zm-73.48,26.23c.29,1.58.43,2.93.8,4.22,3.49,12.15,14.5,20.93,27.13,21q85.68.15,171.35,0A28.6,28.6,0,0,0,163.93,114a35.66,35.66,0,0,0,.63-3.92Zm194.41,37.43H-28a16.39,16.39,0,0,0,16.29,17q63.53.06,127.06,0C124.55,164.48,131.68,157.18,131.79,147.49ZM88.35,18.32c-3.1.61-6,.78-8.65,1.8C70.08,23.86,64.48,35,67.18,44.54c3,10.65,13.91,18,24.22,16.36,8.1-1.29,18.58-10,17.48-21.58-.16-1.73-.09-3.49-.27-5.23a8,8,0,0,1,2.72-7q7.82-7.53,15.37-15.34c3.13-3.23,3.15-7.12.32-10s-6.64-2.94-10,.21c-3.08,2.91-6.2,5.82-9,9C102.72,17.13,97.17,22.33,88.35,18.32ZM62.92,97.71c-2.66-11-13-18-24.7-17.21-9.65.68-19.31,8.93-20,17.21Zm-59.27.13A21.31,21.31,0,0,0-4.55,85.2c-11-8.4-27.31-5.37-34.37,6.38-1.86,3.1-.66,6.22,2.55,6.23C-23.13,97.88-9.89,97.84,3.65,97.84ZM147.87-27.51c1.56-2.28,2.95-3.45,3.15-4.8.34-2.27-1.25-4.1-3.48-3.69-1.38.25-3.44,2.21-3.41,3.36C144.17-31.22,146.05-29.84,147.87-27.51Zm18.74,8.77c-2.45-1.71-3.7-3.18-5.16-3.45a2.92,2.92,0,0,0-3.54,3.52,5.06,5.06,0,0,0,3.52,3.19C162.69-15.36,164.12-17.08,166.61-18.74Z" transform="translate(75.03 75.49)"/><path d="M7.72-23.73A28.72,28.72,0,0,1,18-45.69a79.51,79.51,0,0,0,6.62-6.07c3.66-4,3.86-7.2,1.15-11.91-.55-1-1.17-1.91-1.71-2.89-1.42-2.57-1.47-5,.8-7.15s4.89-2.13,7.54-.59c4.86,2.81,8,10.44,7.1,17.08-1,7.45-5,13.17-10.51,18a52.38,52.38,0,0,0-6,5.62c-6.67,8.1-3.4,18.53,6.62,21.52,3.38,1,5.17,3.52,4.71,6.62S31.55-.37,28-.34c-9.06.09-17.66-8-19.66-18.52C8-20.7,7.86-22.57,7.72-23.73Z" transform="translate(75.03 75.49)"/><path d="M77.21-60.08c-.31,8.84-4.39,15.31-10.51,20.74a71.44,71.44,0,0,0-5.54,5C53.7-26.06,56.7-15.26,67.29-12c3.3,1,5.07,3.61,4.58,6.7s-2.83,5-6.41,5c-9.2,0-18-8.7-19.7-19.44-1.62-10.39,1.92-18.86,9.64-25.77a89.72,89.72,0,0,0,6.87-6.33c3.55-3.9,3.75-7.06,1.19-11.6C62.79-64.68,62-65.83,61.4-67a5.12,5.12,0,0,1,.85-6.52,5.38,5.38,0,0,1,6.83-1.19C75.1-71.54,76.63-65.87,77.21-60.08Z" transform="translate(75.03 75.49)"/><path d="M-29.88-23.67A29,29,0,0,1-19.32-45.93,70,70,0,0,0-13-51.73c3.64-4,3.85-7.24,1.17-11.92-.68-1.19-1.45-2.33-2-3.57a5.15,5.15,0,0,1,1.1-6.48,5.62,5.62,0,0,1,6.88-1c4.94,2.37,8.47,10,7.79,16.72C1.17-50.32-2.76-44.45-8.32-39.45a56.31,56.31,0,0,0-6.26,5.88C-21.25-25.49-18-15-8-12.06c3.4,1,5.15,3.48,4.69,6.62S-6-.37-9.57-.34C-18.5-.25-27-8.12-29.15-18.49-29.55-20.44-29.71-22.44-29.88-23.67Z" transform="translate(75.03 75.49)"/></svg>