<svg id="Capa_1" enable-background="new 0 0 497.948 497.948" height="512" viewBox="0 0 497.948 497.948" width="512" xmlns="http://www.w3.org/2000/svg"><g><g fill="#fee45a"><path d="m129.116 85.945h-10.156c-16.957 0-30.704-13.747-30.704-30.704v-16.52c0-3.545 2.873-6.418 6.418-6.418h3.738c16.957 0 30.704 13.747 30.704 30.704z"/><path d="m98.833 114.498 4.712 8.997c7.868 15.022 26.424 20.821 41.445 12.953l14.634-7.665c3.14-1.645 4.352-5.523 2.708-8.663l-1.735-3.312c-7.868-15.022-26.424-20.821-41.445-12.953z"/><path d="m74.771 144.467h-10.157c-16.957 0-30.704-13.747-30.704-30.704v-16.52c0-3.545 2.873-6.418 6.418-6.418h3.738c16.957 0 30.704 13.747 30.704 30.704v22.938z"/><path d="m44.251 232.304h-10.157c-16.957 0-30.704-13.747-30.704-30.704v-16.52c0-3.545 2.873-6.418 6.418-6.418h3.738c16.957 0 30.704 13.747 30.704 30.704v22.938z"/><path d="m45.254 252.882 9.639 3.201c16.093 5.344 33.472-3.37 38.816-19.463l5.206-15.678c1.117-3.364-.704-6.997-4.068-8.114l-3.548-1.178c-16.093-5.344-33.472 3.37-38.816 19.463z"/><path d="m69.625 351.706 10.079-1.253c16.828-2.091 28.775-17.428 26.683-34.256l-2.037-16.394c-.437-3.518-3.643-6.015-7.161-5.578l-3.71.461c-16.828 2.091-28.775 17.428-26.683 34.256z"/><path d="m55.322 321.388-9.502 3.587c-15.865 5.989-33.581-2.016-39.57-17.88l-5.835-15.455c-1.252-3.316.421-7.019 3.738-8.271l3.497-1.32c15.865-5.989 33.581 2.016 39.57 17.88z"/><path d="m94.489 387.771-7.182 7.182c-11.991 11.991-31.432 11.991-43.422 0l-11.681-11.681c-2.506-2.506-2.506-6.57 0-9.076l2.643-2.643c11.991-11.991 31.432-11.991 43.422 0z"/><path d="m158.347 437.266-4.958 8.864c-8.278 14.8-26.986 20.087-41.786 11.81l-14.418-8.064c-3.094-1.73-4.199-5.641-2.469-8.734l1.825-3.263c8.278-14.8 26.986-20.087 41.786-11.81z"/><path d="m188.216 448.961 5.078-8.796c8.479-14.686 3.447-33.464-11.239-41.943l-14.306-8.26c-3.07-1.772-6.995-.721-8.767 2.349l-1.869 3.237c-8.479 14.686-3.447 33.464 11.239 41.943z"/><path d="m368.833 85.945h10.156c16.957 0 30.704-13.747 30.704-30.704v-16.52c0-3.545-2.873-6.418-6.418-6.418h-3.738c-16.957 0-30.704 13.747-30.704 30.704z"/><path d="m399.115 114.498-4.712 8.997c-7.868 15.022-26.424 20.821-41.445 12.953l-14.634-7.665c-3.14-1.645-4.352-5.523-2.707-8.663l1.734-3.312c7.868-15.022 26.424-20.821 41.445-12.953z"/><path d="m423.177 144.467h10.156c16.957 0 30.704-13.747 30.704-30.704v-16.52c0-3.545-2.873-6.418-6.418-6.418h-3.738c-16.957 0-30.704 13.747-30.704 30.704z"/><path d="m453.698 232.304h10.156c16.957 0 30.704-13.747 30.704-30.704v-16.52c0-3.545-2.873-6.418-6.418-6.418h-3.738c-16.957 0-30.704 13.747-30.704 30.704z"/><path d="m452.694 252.882-9.639 3.201c-16.093 5.344-33.472-3.37-38.816-19.463l-5.206-15.678c-1.117-3.364.704-6.997 4.068-8.114l3.548-1.178c16.093-5.344 33.472 3.37 38.816 19.463z"/><path d="m428.323 351.706-10.079-1.252c-16.828-2.091-28.775-17.428-26.683-34.256l2.037-16.394c.437-3.518 3.643-6.015 7.161-5.578l3.71.461c16.828 2.091 28.775 17.428 26.683 34.256z"/><path d="m442.626 321.388 9.502 3.587c15.865 5.989 33.581-2.016 39.57-17.88l5.835-15.455c1.252-3.316-.421-7.019-3.738-8.271l-3.497-1.32c-15.865-5.989-33.581 2.016-39.57 17.88z"/><path d="m403.46 387.771 7.182 7.182c11.991 11.991 31.432 11.991 43.422 0l11.681-11.681c2.506-2.506 2.506-6.57 0-9.076l-2.643-2.643c-11.991-11.991-31.432-11.991-43.422 0z"/><path d="m339.601 437.266 4.958 8.864c8.278 14.8 26.986 20.087 41.786 11.81l14.418-8.064c3.094-1.73 4.199-5.641 2.469-8.734l-1.825-3.263c-8.278-14.8-26.986-20.087-41.786-11.81z"/><path d="m309.732 448.961-5.078-8.796c-8.479-14.686-3.447-33.464 11.239-41.943l14.306-8.26c3.07-1.772 6.995-.721 8.767 2.349l1.869 3.237c8.479 14.686 3.447 33.464-11.239 41.943z"/></g><path d="m261.533 119.589 25.13 50.92c2.04 4.133 5.983 6.998 10.545 7.661l56.193 8.165c11.487 1.669 16.073 15.785 7.762 23.888l-40.662 39.636c-3.301 3.217-4.807 7.853-4.028 12.396l9.599 55.966c1.962 11.44-10.046 20.165-20.32 14.763l-50.261-26.424c-4.08-2.145-8.954-2.145-13.034 0l-50.261 26.424c-10.274 5.401-22.282-3.323-20.32-14.763l9.599-55.966c.779-4.543-.727-9.179-4.028-12.396l-40.662-39.636c-8.312-8.102-3.725-22.218 7.762-23.888l56.193-8.165c4.561-.663 8.505-3.528 10.545-7.661l25.13-50.92c5.138-10.409 19.98-10.409 25.118 0z" fill="#fed402"/><g><path d="m230.838 277.296c.779-4.543-.727-9.179-4.028-12.396l-40.662-39.636c-8.312-8.102-3.725-22.218 7.762-23.888l56.193-8.165c4.561-.663 8.505-3.528 10.545-7.661l16.719-33.877-15.835-32.085c-5.137-10.409-19.98-10.409-25.117 0l-25.13 50.92c-2.04 4.133-5.983 6.998-10.545 7.661l-56.193 8.165c-11.487 1.669-16.073 15.785-7.762 23.888l40.662 39.636c3.301 3.217 4.807 7.853 4.028 12.396l-9.599 55.966c-1.962 11.44 10.046 20.165 20.32 14.763l31.974-16.81z" fill="#fac600"/></g></g><g><path d="m248.974 465.645c-117.02 0-212.223-95.203-212.223-212.223 0-43.872 13.276-85.976 38.392-121.762 24.548-34.976 58.549-61.47 98.326-76.619 3.874-1.474 8.205.469 9.678 4.339 1.474 3.871-.469 8.204-4.339 9.678-36.966 14.078-68.567 38.705-91.387 71.218-23.335 33.248-35.669 72.373-35.669 113.145 0 108.749 88.474 197.223 197.223 197.223s197.223-88.474 197.223-197.223c0-40.772-12.334-79.896-35.669-113.145-22.82-32.514-54.421-57.14-91.387-71.218-3.871-1.474-5.813-5.807-4.339-9.678s5.807-5.814 9.678-4.339c39.777 15.148 73.778 41.643 98.326 76.619 25.116 35.786 38.392 77.89 38.392 121.762-.002 117.02-95.205 212.223-212.225 212.223z" fill="#fed402"/></g></svg>