<?xml version="1.0" standalone="no"?><!DOCTYPE svg PUBLIC "-//W3C//DTD SVG 1.1//EN" "http://www.w3.org/Graphics/SVG/1.1/DTD/svg11.dtd"><svg t="1645124738263" class="icon" viewBox="0 0 1024 1024" version="1.1" xmlns="http://www.w3.org/2000/svg" p-id="5063" xmlns:xlink="http://www.w3.org/1999/xlink" width="200" height="200"><defs><style type="text/css"></style></defs><path d="M892.498502 161.874761l-730.640626 730.624253c-4.14132 4.237511-9.673313 6.299473-15.141862 6.299473-5.516644 0-11.048637-2.062985-15.205307-6.299473-8.394181-8.394181-8.394181-21.969361 0-30.347169l730.656999-730.640626c8.362458-8.394181 21.969361-8.394181 30.331819 0C900.892683 139.889027 900.892683 153.49593 892.498502 161.874761L892.498502 161.874761zM447.519941 340.089675 103.737154 340.089675c-11.864212 0-21.521153-9.625218-21.521153-21.457708 0-11.864212 9.657964-21.521153 21.521153-21.521153l343.782787 0c11.879562 0 21.505803 9.657964 21.505803 21.521153C469.025745 330.464457 459.399503 340.089675 447.519941 340.089675L447.519941 340.089675zM275.652596 512.005117c-11.879562 0-21.521153-9.641591-21.521153-21.457708L254.131443 146.653081c0-11.799744 9.641591-21.457708 21.521153-21.457708 11.83249 0 21.457708 9.657964 21.457708 21.457708l0 343.895351C297.110303 502.363526 287.484062 512.005117 275.652596 512.005117L275.652596 512.005117zM920.335501 662.46285l-343.830883 0c-11.879562 0-21.521153-9.641591-21.521153-21.521153 0-11.864212 9.641591-21.457708 21.521153-21.457708l343.830883 0c11.83249 0 21.457708 9.593496 21.457708 21.457708C941.793208 652.821259 932.166967 662.46285 920.335501 662.46285L920.335501 662.46285zM920.335501 834.378292l-343.830883 0c-11.879562 0-21.521153-9.641591-21.521153-21.521153 0-11.864212 9.641591-21.457708 21.521153-21.457708l343.830883 0c11.83249 0 21.457708 9.593496 21.457708 21.457708C941.793208 824.736701 932.166967 834.378292 920.335501 834.378292L920.335501 834.378292z" p-id="5064"></path></svg>