<?xml version="1.0" encoding="utf-8"?>
<!-- Generator: Adobe Illustrator 26.0.3, SVG Export Plug-In . SVG Version: 6.00 Build 0)  -->
<svg version="1.1" id="图层_1" xmlns="http://www.w3.org/2000/svg" xmlns:xlink="http://www.w3.org/1999/xlink" x="0px" y="0px"
	 viewBox="0 0 256 256" style="enable-background:new 0 0 256 256;" xml:space="preserve">
<g>
	<path d="M234.8,158.8h-90.4c-5.9,0-10.7,4.8-10.7,10.6c0,5.9,4.8,10.7,10.7,10.7h90.4c2.9,0,5.6-1.1,7.6-3.2c2-2,3.1-4.7,3-7.5
		C245.4,163.5,240.7,158.8,234.8,158.8z"/>
	<path d="M53.7,87.2h2v2v32.6c0,5.8,4.8,10.6,10.7,10.6c5.8,0,10.6-4.8,10.6-10.7V89.2v-2h2h32.5c5.9,0,10.7-4.8,10.7-10.6
		c0-5.9-4.8-10.7-10.7-10.7H79h-2v-2V31.5c0-5.8-4.8-10.6-10.6-10.6c-5.9,0-10.7,4.8-10.7,10.6V64v2h-2H21.2
		c-5.9,0-10.7,4.8-10.7,10.7c0,5.8,4.8,10.6,10.7,10.6H53.7z"/>
	<path d="M234.8,203.8h-90.4c-5.9,0-10.7,4.8-10.7,10.6c0,5.9,4.8,10.7,10.7,10.7h90.4c2.9,0,5.6-1.1,7.6-3.2c2-2,3-4.7,3-7.5
		C245.4,208.6,240.7,203.8,234.8,203.8z"/>
	<path d="M223.5,21.8c-2.8,0-5.5,1.1-7.5,3.1L24,217c-2,2-3.1,4.6-3.1,7.5c0,2.8,1.1,5.5,3.1,7.5c2,2.1,4.7,3.2,7.6,3.2
		c2.8,0,5.5-1.2,7.5-3.2l192-192c2-1.9,3.1-4.6,3.1-7.5c0-2.9-1.1-5.4-3.1-7.5C229.1,22.9,226.5,21.8,223.5,21.8z"/>
</g>
</svg>
