<?xml version="1.0" encoding="iso-8859-1"?>
<!-- Generator: Adobe Illustrator 19.0.0, SVG Export Plug-In . SVG Version: 6.00 Build 0)  -->
<svg version="1.1" id="Capa_1" xmlns="http://www.w3.org/2000/svg" xmlns:xlink="http://www.w3.org/1999/xlink" x="0px" y="0px"
	 viewBox="0 0 511.999 511.999" style="enable-background:new 0 0 511.999 511.999;" xml:space="preserve">
<g>
	<g>
		<path d="M86.035,73.661c-4.181,0-7.57,3.389-7.57,7.57v20.06c0,4.181,3.388,7.57,7.57,7.57c4.181,0,7.57-3.389,7.57-7.57v-20.06
			C93.605,77.051,90.216,73.661,86.035,73.661z"/>
	</g>
</g>
<g>
	<g>
		<path d="M86.035,127.669c-4.181,0-7.57,3.389-7.57,7.57v20.06c0,4.181,3.388,7.57,7.57,7.57c4.181,0,7.57-3.389,7.57-7.57v-20.06
			C93.605,131.059,90.216,127.669,86.035,127.669z"/>
	</g>
</g>
<g>
	<g>
		<path d="M123.068,110.695h-20.06c-4.181,0-7.57,3.389-7.57,7.57c0,4.181,3.389,7.57,7.57,7.57h20.06c4.181,0,7.57-3.389,7.57-7.57
			C130.638,114.085,127.249,110.695,123.068,110.695z"/>
	</g>
</g>
<g>
	<g>
		<path d="M69.061,110.695h-20.06c-4.181,0-7.57,3.389-7.57,7.57c0,4.181,3.389,7.57,7.57,7.57h20.06c4.181,0,7.57-3.389,7.57-7.57
			C76.631,114.085,73.242,110.695,69.061,110.695z"/>
	</g>
</g>
<g>
	<g>
		<path d="M468.445,291.972l-51.462-53.353c0,0,0,0-0.001,0l-0.009-0.01c-0.006-0.006-0.013-0.01-0.019-0.016
			c-0.79-0.815-1.768-1.459-2.886-1.858l-44.484-15.866c-3.938-1.406-8.268,0.649-9.672,4.586c-1.405,3.937,0.649,8.268,4.586,9.672
			l24.492,8.736l-125.472,44.749l-125.472-44.749l25.203-8.989c3.937-1.404,5.991-5.735,4.586-9.672
			c-1.404-3.937-5.735-5.99-9.672-4.586l-45.194,16.119c-1.117,0.399-2.095,1.044-2.886,1.858c-0.006,0.006-0.013,0.01-0.019,0.016
			l-0.009,0.01h-0.001l-51.462,53.353c-1.786,1.851-2.509,4.481-1.922,6.984s2.405,4.538,4.827,5.401l90.612,32.318
			c0.841,0.3,1.699,0.442,2.543,0.442c3.111,0,6.026-1.932,7.13-5.028c1.405-3.937-0.649-8.268-4.586-9.672L77.633,294.04
			l39.937-41.403l132.355,47.205l-39.937,41.403l-25.678-9.158c-3.938-1.406-8.268,0.649-9.672,4.586
			c-1.405,3.937,0.649,8.268,4.586,9.672l30.279,10.799c2.803,1.001,5.928,0.265,7.991-1.874l46.025-47.715l46.025,47.715
			c1.451,1.505,3.43,2.314,5.449,2.314c0.852,0,1.711-0.144,2.541-0.441l148.006-52.787c2.421-0.863,4.239-2.898,4.827-5.401
			S470.231,293.823,468.445,291.972z M317.049,341.243l-39.937-41.403l132.355-47.205l39.937,41.403L317.049,341.243z"/>
	</g>
</g>
<g>
	<g>
		<path d="M349.977,473.594c-1.404-3.936-5.735-5.989-9.673-4.586l-76.782,27.385l-140.437-50.088V343.049
			c0-4.181-3.389-7.57-7.57-7.57s-7.57,3.389-7.57,7.57v108.593c0,3.201,2.013,6.055,5.026,7.13l148.007,52.788
			c0.823,0.294,1.683,0.44,2.543,0.44c0.861,0,1.721-0.147,2.544-0.44l79.326-28.292
			C349.328,481.863,351.382,477.532,349.977,473.594z"/>
	</g>
</g>
<g>
	<g>
		<path d="M411.528,335.479c-4.181,0-7.57,3.389-7.57,7.57v103.257l-34.494,12.303c-3.937,1.404-5.991,5.735-4.586,9.672
			c1.104,3.098,4.019,5.028,7.13,5.028c0.844,0,1.703-0.142,2.544-0.442l39.52-14.095c3.014-1.075,5.026-3.929,5.026-7.13V343.049
			C419.098,338.868,415.709,335.479,411.528,335.479z"/>
	</g>
</g>
<g>
	<g>
		<path d="M263.521,335.075c-4.181,0-7.57,3.389-7.57,7.57v128.682c0,4.181,3.389,7.57,7.57,7.57c4.181,0,7.57-3.389,7.57-7.57
			V342.645C271.091,338.464,267.702,335.075,263.521,335.075z"/>
	</g>
</g>
<g>
	<g>
		<path d="M425.59,85.882l-14.353-2.91c-11.187-2.269-19.882-10.962-22.15-22.15l-2.91-14.353
			c-1.331-6.563-6.938-11.147-13.635-11.147c-6.697,0-12.304,4.584-13.635,11.148l-2.91,14.352
			c-2.268,11.187-10.962,19.882-22.15,22.15l-14.353,2.91c-6.564,1.33-11.147,6.937-11.147,13.634
			c0,6.698,4.583,12.305,11.147,13.635l14.353,2.91c11.187,2.268,19.882,10.962,22.15,22.15l2.91,14.353
			c1.331,6.563,6.938,11.147,13.635,11.147c6.697,0,12.304-4.584,13.635-11.148l2.91-14.352c2.268-11.187,10.962-19.882,22.15-22.15
			l14.353-2.91c6.564-1.33,11.147-6.937,11.147-13.635C436.737,92.819,432.153,87.213,425.59,85.882z M408.228,101.223
			c-17.162,3.479-30.5,16.817-33.98,33.98l-1.706,8.416l-1.706-8.416c-3.479-17.163-16.817-30.5-33.98-33.98l-8.416-1.706
			l8.416-1.706c17.162-3.48,30.5-16.818,33.98-33.98l1.706-8.416l1.706,8.416c3.479,17.161,16.817,30.5,33.98,33.98l8.416,1.706
			L408.228,101.223z"/>
	</g>
</g>
<g>
	<g>
		<path d="M273.662,64.842l-18.418-3.734c-15.203-3.082-27.019-14.898-30.101-30.101l-3.734-18.418
			C219.905,5.176,213.575,0,206.013,0c-7.562,0-13.893,5.176-15.395,12.587l-3.734,18.418
			c-3.082,15.203-14.898,27.019-30.101,30.101l-18.418,3.734c-7.411,1.503-12.587,7.833-12.587,15.395s5.176,13.893,12.587,15.396
			l18.418,3.734c15.203,3.082,27.019,14.898,30.101,30.101l3.734,18.418c1.503,7.411,7.833,12.587,15.395,12.587
			c7.562,0,13.893-5.176,15.395-12.587l3.734-18.418c3.083-15.203,14.898-27.019,30.101-30.101l18.418-3.734
			c7.411-1.503,12.587-7.833,12.587-15.395S281.073,66.344,273.662,64.842z M270.652,80.793l-18.418,3.734
			c-21.178,4.294-37.637,20.753-41.93,41.93l-3.734,18.418c-0.067,0.332-0.092,0.456-0.557,0.456c-0.465,0-0.491-0.124-0.557-0.456
			l-3.734-18.418c-4.294-21.178-20.753-37.637-41.93-41.93l-18.418-3.734c-0.332-0.067-0.456-0.092-0.456-0.557
			c0-0.465,0.125-0.491,0.456-0.557l18.418-3.734c21.178-4.294,37.637-20.753,41.93-41.93l3.734-18.418
			c0.067-0.332,0.092-0.456,0.557-0.456c0.465,0,0.491,0.124,0.557,0.456l3.734,18.418c4.294,21.178,20.753,37.637,41.93,41.93
			l18.418,3.734c0.332,0.067,0.456,0.092,0.456,0.557C271.108,80.701,270.984,80.727,270.652,80.793z"/>
	</g>
</g>
<g>
	<g>
		<path d="M211.133,239.878c-20.053-49.359-64.95-93.104-66.85-94.942c-3.006-2.905-7.796-2.824-10.702,0.181
			c-2.906,3.005-2.826,7.796,0.178,10.703c0.443,0.429,44.519,43.409,63.348,89.756c1.195,2.94,4.027,4.723,7.016,4.723
			c0.949,0,1.914-0.18,2.846-0.558C210.842,248.166,212.707,243.75,211.133,239.878z"/>
	</g>
</g>
<g>
	<g>
		<path d="M238.434,145.836c-4.181,0-7.57,3.389-7.57,7.57v69.64c0,4.181,3.389,7.57,7.57,7.57s7.57-3.389,7.57-7.57v-69.64
			C246.003,149.225,242.614,145.836,238.434,145.836z"/>
	</g>
</g>
<g>
	<g>
		<path d="M369.345,172.506c-3.247-2.634-8.015-2.138-10.647,1.11c-18.804,23.182-32.619,45.476-41.064,66.261
			c-1.574,3.873,0.292,8.289,4.164,9.862c0.934,0.378,1.898,0.558,2.846,0.558c2.989,0,5.822-1.782,7.016-4.723
			c9.817-24.163,26.515-47.283,38.795-62.422C373.088,179.907,372.592,175.14,369.345,172.506z"/>
	</g>
</g>
<g>
	<g>
		<path d="M303.498,121.676c-4.147-0.54-7.943,2.386-8.481,6.532l-12.192,93.863c-0.538,4.145,2.386,7.943,6.532,8.481
			c0.331,0.042,0.659,0.064,0.984,0.064c3.747,0,7.003-2.781,7.497-6.596l12.192-93.863
			C310.569,126.012,307.644,122.214,303.498,121.676z"/>
	</g>
</g>
<g>
</g>
<g>
</g>
<g>
</g>
<g>
</g>
<g>
</g>
<g>
</g>
<g>
</g>
<g>
</g>
<g>
</g>
<g>
</g>
<g>
</g>
<g>
</g>
<g>
</g>
<g>
</g>
<g>
</g>
</svg>
