<?xml version="1.0" encoding="utf-8"?>
<!-- Generator: Adobe Illustrator 22.1.0, SVG Export Plug-In . SVG Version: 6.00 Build 0)  -->
<svg version="1.1" id="图层_1" xmlns="http://www.w3.org/2000/svg" xmlns:xlink="http://www.w3.org/1999/xlink" x="0px" y="0px"
	 viewBox="0 0 512 512" style="enable-background:new 0 0 512 512;" xml:space="preserve">
<g>
	<path d="M270.6,491h-29.1c-5.7-0.7-11.4-1.3-17-2.1c-46.5-6.7-87.6-25.3-122.7-56.6c-40.3-35.9-65.4-80.5-75-133.7
		c-1.6-8.6-2.4-17.3-3.6-26v-29.1c1.1-8.1,1.9-16.2,3.3-24.2c8.2-48.2,29.5-89.7,63.8-124.5c34.8-35.3,76.8-57.5,125.7-66.1
		c8.5-1.5,17-2.4,25.6-3.6h29.1c7.9,1,15.9,1.8,23.8,3.1c43.6,7.5,82.2,25.6,115.3,55c40.7,36.1,66.2,81,75.8,134.7
		c1.5,8.5,2.4,17.1,3.6,25.6v29.1c-0.7,5.7-1.3,11.4-2.1,17.1c-6.6,46.5-25.3,87.6-56.6,122.7c-35.9,40.3-80.5,65.4-133.7,75
		C288,488.9,279.2,489.8,270.6,491z M256,52.3c-113.3,0-205.7,92.4-205.7,205.8c0.1,113.2,92.1,205.4,205.4,205.6
		s205.8-92.1,206-205.5S369.5,52.3,256,52.3z"/>
	<path d="M256,246.2h143.3c11.7,0,17,5.5,16.5,17.1c-2.8,75.1-51.9,135.2-124.7,152.5c-84.1,20-172-34.8-190.6-119.2
		c-2.5-11.2-3.4-22.8-4.3-34.2c-0.8-10.4,5.1-16.2,15.6-16.2C159.8,246.2,207.9,246.2,256,246.2z M124.3,273.6
		c6.6,68,67.7,125.3,144.5,118.1c72.7-6.8,115.6-67.8,118.6-118.1H124.3z"/>
	<path d="M367.3,153.2c11.2,0.1,28.4,7,42.9,20.4c6.8,6.3,7.5,14.6,2,20.5s-13.7,5.8-20.6-0.4c-19.9-17.9-46.4-17.9-66.6,0.2
		c-4.4,4-9.3,5.8-15,3.8c-5.2-1.8-8.2-5.6-9-11c-0.7-5.1,1.4-9.1,5-12.6C320.1,160.5,338.7,153.1,367.3,153.2z"/>
	<path d="M154.1,153.1c19,0,37.3,7.2,51.1,20.3c7.2,6.5,8,14.7,2.3,20.8c-5.5,6-13.7,5.8-20.6-0.5c-20-17.9-46.5-17.8-66.7,0.2
		c-6.7,6-14.8,6.2-20.3,0.5c-5.6-5.9-5-14.3,1.7-20.5C116.4,160.1,133.8,153.1,154.1,153.1z"/>
</g>
<path d="M-514,200"/>
</svg>
