<?xml version="1.0" encoding="utf-8"?>
<!-- Generator: Adobe Illustrator 22.1.0, SVG Export Plug-In . SVG Version: 6.00 Build 0)  -->
<svg version="1.1" id="图层_1" xmlns="http://www.w3.org/2000/svg" xmlns:xlink="http://www.w3.org/1999/xlink" x="0px" y="0px"
	 viewBox="0 0 256 256" style="enable-background:new 0 0 256 256;" xml:space="preserve">
<g>
	<g>
		<path d="M52.1,123.6c0.9-0.6,2.1-0.9,2.8-1.8c12.2-14,26.6-25.7,41.7-36.5c4-2.9,7.9-6,12.2-8.6c2.6-1.6,5.6-2.8,8.6-3.5
			c1.4-0.3,3.7,0.7,4.7,2c1.6,2-0.8,2.8-2.1,3.8c-10.4,8.3-16.3,19.6-20,32c-2.5,8.4,2.5,14.6,11.3,14.8
			c17.4,0.2,30.5-7.7,39.5-22.2c2.6-4.3,3.7-9,0.6-13.6c-2.1-3-3.8-3.6-7.1-1.9c-5,2.6-9.6,5.7-14.6,8.4c-1,0.6-2.4,0.5-3.6,0.7
			c0-1.6-0.4-3.3,0-4.8c0.3-1,1.8-1.7,2.7-2.4c14.3-10.7,30.6-17.2,47.8-21.6c5.6-1.4,11.2-2.5,16.9-3.6c3.6-0.7,4.1-0.1,3.9,3.6
			c-0.3,5.4-2.3,10.3-5.2,14.8c-0.4,0.7-0.7,1.4-1,2.1c0.8-0.1,1.8,0,2.5-0.2c13.2-4.2,26.5-3.1,39.8-1.4
			c8.6,1.1,12.6,10.1,8.7,17.9c-2.6,5.1-6.8,8.9-11.5,12.1c-11.7,7.9-24.8,12.3-38.3,15.4c-3.8,0.8-7.6,1.7-11.4,2.3
			c-7.2,1.1-13.1-2-15.8-8.7c-1.6-4-2.2-8.4-3.4-12.5c-0.2-0.7-0.4-1.4-0.7-2.1c-0.6,0.4-1.3,0.7-1.8,1.2
			c-10.3,11.4-22.4,20.7-35.5,28.6c-8.9,5.3-18.7,8.5-29.2,9c-8.8,0.4-12.1-3.3-15.1-11.3c-3.6-9.3-0.2-17.2,3.5-25
			c3.1-6.5,7.5-12.5,11.2-18.9c0.4-0.6,0.6-1.3,0.8-2c-0.7,0.3-1.4,0.4-2,0.7c-9.7,7.2-17.9,15.9-25,25.6
			c-15.4,21.2-27.8,44.3-37.6,68.6c-1,2.4-2.1,4.9-3.1,7.3c-1.7,4-2.1,4.1-4.7,0.8c-10.5-13.6-13.9-28.5-9.7-45.3
			c6.5-26.2,16.7-50.8,29.9-74.3c7.9-14.1,16.6-27.8,25.2-41.5c0.8-1.4,1.2-5.6,5-2.6c0.1,0.1,1.1-0.9,1.7-1.3
			c4.4-2.9,8.8-5.9,13.2-8.7c0.8-0.6,2.1-0.8,3.1-1c2.5-0.4,3.1,0.7,2.1,3.4c-0.2,0.6-0.5,1.1-0.7,1.6c0.7-0.1,1.4-0.1,2.1-0.4
			c4-1.7,8.1-3,12.6-2.1c4.5,0.8,5.3,2.7,2.6,6.3c-1.9,2.4-4,4.9-6.5,6.6c-7.2,4.9-12.4,11.6-17,18.9c-12.3,19.9-21.9,41.2-30.3,63
			C54.6,118,53.3,120.9,52.1,123.6l0.2,0.4L52.1,123.6z M203.8,88.1c-10.9-0.1-16.3,4.5-20.6,10.5c-1.7,2.4-2.3,5.4-0.9,8.4
			c1.5,3.1,4.6,5,9.2,3.5c7.9-2.6,15.5-6.1,23.3-9.3c1.9-0.7,1.5-2.1,0.7-3.5C212.5,91.8,207.8,88.1,203.8,88.1z M174.5,74.8
			c0-0.1-0.1-0.3-0.1-0.4c-3.6,0.9-7.2,1.9-10.8,2.7c-2.5,0.6-3.1,1.7-2.3,4.3c1.8,5.8,2.1,11.6-1.2,17.2c-0.8,1.5-1.4,3.2-1.9,4.8
			c-0.3,0.9-0.2,2-0.3,2.9c0.8-0.6,2.1-1,2.5-1.9c1.2-2.1,2.1-4.4,3-6.7c2.9-7.5,7.7-13.5,14.1-18.1c0.8-0.7,1.3-1.9,1.9-2.9
			c-1-0.6-2-1.3-3.1-1.8C175.8,74.8,175.2,74.9,174.5,74.8z"/>
		<path d="M239.2,155.1c2.2,0.8,4,1.4,5.7,2.1c-1.4,1.2-2.7,3.1-4.3,3.6c-13.6,4-27.2,7.9-40.8,11.7c-19.5,5.3-39.3,9.7-58.5,16
			c-11.8,3.8-22.6,10.2-33.8,15.4c-2.7,1.2-5.2,4.7-8.4,0.6c-0.3-0.4-2,0.2-2.9,0.7c-19,8.4-37.3,17.9-53.2,31.5
			c-2.6,2.2-5,3.8-7.9,0.5c-0.5-0.6-1.9-0.8-2.5-0.5c-1.9,0.9-3.9,2.4-5.1-0.2c-1-2.3-1.7-5.1,0.6-7.4c2.2-2.1,4.5-4.4,6.9-6.2
			c15.1-11.3,32.7-17.9,50-24.8c37.1-14.8,75.1-26.4,114-35.4C212.4,159.4,225.9,157.4,239.2,155.1z"/>
		<path d="M218.5,140.5c6.9,0.4,12.6,0.7,18.3,1.1c0.9,0.1,1.8,0.9,2.6,1.4c-0.7,0.8-1.3,2.1-2.2,2.4c-4,1.1-8.1,2.3-12.2,2.9
			c-14,1.9-28.1,3.4-42.2,5.3c-15.1,2.1-30,5.6-44.1,11.5c-4.3,1.8-8.5,3.9-12.6,6c-1.9,0.9-3.4,1.5-4.7-0.9c-0.4-0.7-2.1-1-3-0.7
			c-19.2,6.5-37.9,14.3-55,25.3c-3.6,2.3-7.2,4.9-10.8,7.3c-2.2,1.5-4.2,2.1-5.5-1.2c-1-2.5-2.6-2.8-5.1-1.4c-3,1.6-4.4,0.1-4.2-3.4
			c0.3-5,3.2-7.9,7-10.4c12.6-8.2,26.2-14.3,40.6-18.7c30.6-9.3,61.4-17.1,93.1-21.8C192,143.2,205.8,142,218.5,140.5z"/>
	</g>
</g>
</svg>
