<?xml version="1.0" encoding="utf-8"?>
<!-- Generator: Adobe Illustrator 22.1.0, SVG Export Plug-In . SVG Version: 6.00 Build 0)  -->
<svg version="1.1" id="Layer_1" xmlns="http://www.w3.org/2000/svg" xmlns:xlink="http://www.w3.org/1999/xlink" x="0px" y="0px"
	 viewBox="0 0 512 512" style="enable-background:new 0 0 512 512;" xml:space="preserve">
<g>
	<path d="M457.9,190c0-7.7-6.3-14-14-14h-35.6C399.1,74.7,294.8,9.5,199.5,46.4c-7.3,2.8-10.8,10.9-8,18.1c2.8,7.3,10.9,10.8,18.1,8
		C291.9,40.8,381,101.7,381,190.2c0,69.5-56.5,126-126,126c-71.3,0-128.7-59.5-125.9-130.8c0.5-13.6-16.6-19.8-25-9.2H66
		c-7.7,0-14,6.3-14,14c0,108.9,84.9,195.5,189,202.5v63.5h-49c-7.7,0-14,6.3-14,14c0,7.7,6.3,14,14,14h126c7.7,0,14-6.3,14-14
		c0-7.7-6.3-14-14-14h-49v-63.5C373.1,385.5,457.9,299,457.9,190L457.9,190z M80.6,204h21c7.1,78.3,73.2,140,153.3,140
		s146.2-61.6,153.3-140h21.1C422.3,294,346.7,365,255,365S87.8,294,80.6,204L80.6,204z"/>
	<path d="M87,134c30.8,0,56,25.1,56,56c0,7.7,6.3,14,14,14c7.7,0,14-6.3,14-14c0-30.9,25-56,56-56c7.7,0,14-6.3,14-14
		c0-7.7-6.3-14-14-14c-30.9,0-56-25-56-56c0-7.7-6.3-14-14-14s-14,6.3-14,14c0,30.8-25,56-56,56c-7.7,0-14,6.3-14,14
		C73.1,127.8,79.3,134,87,134z M157,96.6c6.1,9.2,14.1,17.3,23.5,23.5c-9.3,6.2-17.4,14.3-23.6,23.6c-6.2-9.3-14.2-17.3-23.6-23.6
		C142.4,114.2,150.6,106.2,157,96.6z"/>
	<path d="M294.1,124.2l-105,105c-5.4,5.4-5.4,14.3,0,19.8c5.4,5.4,14.3,5.4,19.8,0l105-105c5.4-5.4,5.4-14.3,0-19.8
		C308.4,118.7,299.6,118.7,294.1,124.2L294.1,124.2z"/>
	<path d="M301.1,194.2l-42,42c-5.4,5.4-5.4,14.3,0,19.8c5.4,5.4,14.3,5.4,19.8,0l42-42c5.4-5.4,5.4-14.3,0-19.8
		C315.5,188.7,306.6,188.7,301.1,194.2z"/>
</g>
</svg>
