<?xml version="1.0" encoding="utf-8"?>
<!-- Generator: Adobe Illustrator 22.1.0, SVG Export Plug-In . SVG Version: 6.00 Build 0)  -->
<svg version="1.1" id="Layer_1" xmlns="http://www.w3.org/2000/svg" xmlns:xlink="http://www.w3.org/1999/xlink" x="0px" y="0px"
	 viewBox="0 0 512 512" style="enable-background:new 0 0 512 512;" xml:space="preserve">
<g>
	<path d="M444.9,194.5c0-7.2-5.9-13.1-13.1-13.1h-33.4C389.8,86.4,292,25.3,202.7,59.9c-6.8,2.6-10.1,10.2-7.5,17
		c2.6,6.8,10.2,10.1,17,7.5c77.1-29.8,160.6,27.3,160.6,110.2c0,65.1-53,118.1-118.1,118.1c-66.8,0-120.6-55.8-118-122.6
		c0.5-12.7-15.6-18.6-23.4-8.6H77.6c-7.2,0-13.1,5.9-13.1,13.1c0,102.1,79.6,183.2,177.1,189.8v59.5h-45.9
		c-7.2,0-13.1,5.9-13.1,13.1c0,7.2,5.9,13.1,13.1,13.1h118.1c7.2,0,13.1-5.9,13.1-13.1c0-7.2-5.9-13.1-13.1-13.1h-45.9v-59.5
		C365.4,377.7,444.9,296.6,444.9,194.5L444.9,194.5z M91.3,207.6H111c6.7,73.4,68.6,131.2,143.7,131.2s137-57.7,143.7-131.2h19.8
		c-6.7,84.3-77.5,150.9-163.5,150.9S98,291.9,91.3,207.6L91.3,207.6z"/>
	<path d="M97.3,142c28.9,0,52.5,23.5,52.5,52.5c0,7.2,5.9,13.1,13.1,13.1c7.2,0,13.1-5.9,13.1-13.1c0-29,23.4-52.5,52.5-52.5
		c7.2,0,13.1-5.9,13.1-13.1c0-7.2-5.9-13.1-13.1-13.1c-29,0-52.5-23.4-52.5-52.5c0-7.2-5.9-13.1-13.1-13.1
		c-7.2,0-13.1,5.9-13.1,13.1c0,28.9-23.4,52.5-52.5,52.5c-7.2,0-13.1,5.9-13.1,13.1C84.2,136.2,90.1,142,97.3,142z M162.9,106.9
		c5.7,8.6,13.2,16.2,22,22c-8.7,5.8-16.3,13.4-22.1,22.1c-5.8-8.7-13.3-16.2-22.1-22.1C149.2,123.4,156.9,115.9,162.9,106.9z"/>
	<path d="M291.4,132.8L193,231.2c-5.1,5.1-5.1,13.4,0,18.6c5.1,5.1,13.4,5.1,18.6,0l98.4-98.4c5.1-5.1,5.1-13.4,0-18.6
		C304.8,127.6,296.5,127.6,291.4,132.8L291.4,132.8z"/>
	<path d="M297.9,198.4l-39.4,39.4c-5.1,5.1-5.1,13.4,0,18.6c5.1,5.1,13.4,5.1,18.6,0l39.4-39.4c5.1-5.1,5.1-13.4,0-18.6
		C311.4,193.2,303.1,193.2,297.9,198.4z"/>
</g>
</svg>
