<svg id="图层_1" data-name="图层 1" xmlns="http://www.w3.org/2000/svg" viewBox="0 0 269.98 189.58"><title>share</title><path d="M16.37,144c.5-5.4.86-10.82,1.54-16.2,1.1-8.62,2.35-17.22,3.66-25.81.61-4,3.08-5.91,7.08-5.16a67.69,67.69,0,0,1,11.87,3.33c10.71,4.17,21.3,8.62,31.95,13,.7.28,1.44.48,2.47.83C64.84,98.41,62.12,81.49,62.75,63.77c.18-5,1.67-6.68,6.59-6.93,14.22-.74,28.05,1,41.15,6.91a52.32,52.32,0,0,1,26.67,26.53c.37.79.75,1.57,1.26,2.65L146,82c3.54-5.16,7.24-5.14,10.83.08L164.32,93l1.29-2.76c8.06-17.23,22.07-26.8,40.16-31a93.62,93.62,0,0,1,28.51-2.28c3.51.28,5.44,2,5.62,5.4.74,13.66-.64,27-5.86,39.8-1.64,4-3.86,7.77-6,12,6.39-2.62,12.6-5.21,18.84-7.7,7.17-2.85,14.35-5.67,21.58-8.38a24.44,24.44,0,0,1,5.64-1.21c4-.48,6.35,1.28,7.07,5.27,3.31,18.27,5.4,36.67,5.14,55.27-.21,14.63-1.91,29-6.64,43C272.53,221.45,258.17,235,237,241.65c-18.07,5.7-36.28,5.87-54.58,1.5A44.74,44.74,0,0,1,161,230.78c-2-2-3.95-4-6-5.95-2.57-2.49-4.78-2.49-7.34,0-1.21,1.15-2.42,2.3-3.55,3.53a50.85,50.85,0,0,1-32,16.61c-15,1.95-29.73,1.66-44.37-2.58-25.61-7.44-41.06-24.4-47-50-1.93-8.25-2.63-16.79-3.9-25.19-.13-.86-.31-1.71-.46-2.56Zm15-36.13a29.77,29.77,0,0,0-.62,2.93c-1.25,12-2.87,23.9-3.58,35.9a142.47,142.47,0,0,0,4,44.18c5.32,20.7,17.66,34.62,38.35,41,12.34,3.81,24.85,4.28,37.54,3.06,8.24-.79,16.2-2.63,22.84-7.86,3.5-2.77,6.54-6.12,9.83-9.15a19.38,19.38,0,0,1,4.3-3.42c1.82-.89,2.18-2,2.16-3.88-.11-7.38-.06-14.76,0-22.15,0-3.82,2-6.28,5.17-6.35s5.36,2.43,5.37,6.43c0,7.55,0,15.11,0,22.67a3.61,3.61,0,0,0,.82,2.46c3.48,3.17,7.22,6.07,10.63,9.33,4.19,4,8.7,7.52,14.31,9.09,18.71,5.23,37.27,4.93,55.59-2,15.23-5.74,25.53-16.25,31.09-31.55a114.8,114.8,0,0,0,6.16-30.09c1.14-14,.35-27.92-1.15-41.83-.67-6.17-1.65-12.31-2.57-19.08-30.92,13.1-61.42,26.09-94.51,30.44,0,2-.05,4,0,5.89.21,6.7-2.74,8.92-9,6.7-4.71-1.67-9.38-3.48-14.15-5a8.9,8.9,0,0,0-5,0c-5.19,1.61-10.27,3.58-15.41,5.34-4.8,1.64-8-.73-7.93-5.8,0-2.43,0-4.86,0-7.34a69.62,69.62,0,0,1-8.14-1c-9.29-2.19-18.54-4.53-27.78-6.92C74.62,126,60.46,119.58,46.1,113.7,41.25,111.72,36.35,109.83,31.35,107.85ZM229.52,67.21c-14.12.14-27.37,2-39.17,9.61-8.09,5.21-13.43,12.62-16.8,21.87,3.94,1.18,7.7,2.26,11.45,3.42,4.89,1.51,6.09,5.21,3,9.31-3.33,4.41-6.74,8.76-10.1,13.15-.5.66-.92,1.38-1.7,2.55,1.51-.09,2.44-.11,3.36-.21a76,76,0,0,0,20.86-5c7.64-3.13,14-7.58,18.7-14.32C227.45,95.56,229.48,81.82,229.52,67.21ZM72.85,67.06c.56,5.89.79,11.24,1.6,16.5,3.27,21.09,14.18,35.74,35.61,41.06,5.18,1.29,10.53,1.91,15.81,2.83l.34-.85c-.47-.7-.91-1.42-1.42-2.09-3.26-4.25-6.54-8.48-9.79-12.73-3.45-4.53-2.32-8.12,3.06-9.76,3.66-1.12,7.33-2.2,11.47-3.44-1.86-3.49-3.27-6.82-5.26-9.76C112,70.76,93.33,67.83,72.85,67.06Zm54.38,43.26a22.37,22.37,0,0,0,2,2.65c6.51,6.14,8.75,13.64,7.32,22.37a22,22,0,0,0,0,3.36c4-1.44,7.65-2.58,11.14-4a9.57,9.57,0,0,1,7.39,0c3.58,1.39,7.23,2.6,10.94,3.92,0-4.33.1-8.36,0-12.39a8.59,8.59,0,0,1,2-6.07c2.55-3.11,4.94-6.37,7.6-9.83-3.37-1-6.42-2.09-9.56-2.76a12.68,12.68,0,0,1-9-6.55c-1.56-2.79-3.59-5.31-5.62-8.24-2.52,3.67-4.62,7.13-7.15,10.23a12.83,12.83,0,0,1-5.11,3.71C135.35,108.16,131.41,109.08,127.23,110.32Z" transform="translate(-16.37 -56.63)"/><path d="M210.84,209.05a75.53,75.53,0,0,1-26.43-5.24c-3.52-1.34-4.63-3-4-6.67,1.84-11.78,5.75-22.78,13.14-32.3,8.7-11.2,20.54-15.37,34.3-14.92a76.26,76.26,0,0,1,25.12,5.28c3.32,1.28,4.49,3,4,6.51-1.86,12-5.82,23.13-13.41,32.73C235.16,205,224,209.2,210.84,209.05Zm-20.2-14.22c9.63,3.07,18.43,4.6,27.56,3.11a26,26,0,0,0,15.29-8.09c6.79-7.31,10-16.29,12.33-26-7.87-2.35-15.6-3.93-23.7-3.26-10.69.89-18.58,6.24-23.5,15.53C195.52,182,193.39,188.29,190.64,194.83Z" transform="translate(-16.37 -56.63)"/><path d="M91.94,209.35c-19.77,0-32.65-10-40.13-27.53-2.57-6-4.14-12.45-5.76-18.8-1.17-4.62.17-6.5,4.73-8.17A73,73,0,0,1,79.91,150c16.51.86,27.79,9.52,35.1,23.94a79.84,79.84,0,0,1,7.27,22.16c.82,4.55-.23,6.49-4.69,8A109.24,109.24,0,0,1,105,207.63C100.68,208.5,96.28,208.8,91.94,209.35Zm-35-45.48c1.88,8,4.43,15.28,8.92,21.81,4.71,6.85,11,11.39,19.36,12.32a67.1,67.1,0,0,0,13.88-.13c4.12-.41,8.16-1.63,12.32-2.51-2-8.46-4.65-16-9.43-22.69A27.44,27.44,0,0,0,83.61,161C74.55,159.46,65.83,161.17,56.91,163.87Z" transform="translate(-16.37 -56.63)"/><path d="M151.46,158.21a5.28,5.28,0,0,1,5.16,5.47,5.26,5.26,0,0,1-10.51-.2A5.26,5.26,0,0,1,151.46,158.21Z" transform="translate(-16.37 -56.63)"/></svg>