<svg id="图层_1" data-name="图层 1" xmlns="http://www.w3.org/2000/svg" viewBox="0 0 379.8 373.88"><title>fb-attr</title><path d="M6.56,66.27c-6.09-1-11.56-2-17-2.92q-23.83-3.9-47.68-7.76a3.28,3.28,0,0,1-1.1-.25c-1.81-1.07-4.54-1.82-5.14-3.38s.8-4.07,1.32-6.17c-.39-1.69-1.76-4.09-1.09-5.58s3.26-3,5.18-3.24c22.65-3.07,45.33-5.92,68-8.83.71-.1,1.42-.26,2.73-.5-.93-1.52-1.63-2.77-2.43-3.95q-33-48.91-66.09-97.81l-.63-.93q-3.84-5.72-.1-8.19c2.4-1.58,4.69-.72,7.27,2.56,1.65-1.08,3.32-3,4.88-3,1.93.09,4.09,1.56,5.62,3Q-1-44.39,37.59-8c1.07,1,2.17,2,3.86,3.49.46-6.62.88-12.45,1.27-18.27q2.18-32.55,4.35-65.08c.28-4.12,1.89-5.91,4.84-5.72S56.29-91.2,56-87.24Q53.16-44.6,50.34-1.95C50.1,1.58,49,4.48,45.57,5.85c-3.57,1.43-6.44,0-9.13-2.52Q-2.14-33.09-40.82-69.4a8.42,8.42,0,0,0-3.31-2.17c.67,1,1.33,2.06,2,3.07L18.94,21.86a30.3,30.3,0,0,1,2.4,3.8c2.27,4.75-.36,9.79-5.82,10.62C6.14,37.68-3.29,38.8-12.71,40q-21.37,2.71-42.74,5.4a3.21,3.21,0,0,0-2,1.1Q-41,49.24-24.56,52q16.81,2.76,33.64,5.47c3.51.57,6.52,1.8,7.8,5.51s-.45,6.14-2.79,8.69Q-54.62,146.74-123.3,221.9c-2.44,2.67-5,5.24-7.58,7.78-2.15,2.13-4.56,2.14-6.63,0s-1.79-4.19.33-6.49Q-79,160.1-20.88,96.86c8.28-9,16.44-18.16,24.64-27.25C4.58,68.71,5.32,67.75,6.56,66.27Z" transform="translate(138.93 135.42)"/><path d="M36.88,92.3c-3.62,3.28-6.66,6-9.68,8.78L-117.46,233.39c-1.47,1.35-2.9,2.76-4.49,4a4.13,4.13,0,0,1-6-.45c-1.76-1.93-1.53-4.11.1-6.11a16,16,0,0,1,1.63-1.55L30,86.31c1-.93,2-1.85,3.06-2.75,2.35-2,5-2.88,8-1.6a7.52,7.52,0,0,1,4.76,6.63q1.86,19.95,3.7,39.92,2.13,23.13,4.23,46.26c.16,1.74.32,3.49.35,5.24,0,2.81-1.38,4.56-4.2,4.71s-4.39-1.66-4.7-4.32c-.59-5.21-1-10.44-1.48-15.66q-3.12-34.53-6.23-69C37.37,94.87,37.17,94,36.88,92.3Z" transform="translate(138.93 135.42)"/><path d="M82.74-11.68l22.93-20.09L221.75-133.54c.75-.66,1.52-1.8,2.3-1.82,1.92-.06,4.6-.26,5.57.83s.48,3.74.2,5.65c-.12.77-1.34,1.4-2.09,2.06Q158.15-65.8,88.56-4.77c-2.61,2.29-5.25,4.36-9,3.14s-5-4.39-5.62-8.06c-4.49-26.2-9.08-52.37-13.61-78.56-.54-3.16,1-5.63,3.65-5.91,3-.3,4.65,1.31,5.15,4.21q4.82,27.66,9.64,55.31Z" transform="translate(138.93 135.42)"/><path d="M116.29,9.78c7.23,0,13.84.14,20.43,0,15-.38,30-.92,44.95-1.39,1,0,2.29-.38,2.94.09,1.45,1.07,3.47,2.51,3.59,3.92s-1.51,3.46-2.91,4.43c-1.17.8-3.13.53-4.74.58-22.1.72-44.2,1.39-66.3,2.14-3.9.14-7.3-.59-9.07-4.47s-.09-6.68,2.47-9.45Q170-61.81,232.34-129.24a7.61,7.61,0,0,1,4.63-2.55c1.31-.05,3.56,1.49,3.81,2.66a6.91,6.91,0,0,1-1.41,5.26c-7.29,8.22-14.82,16.24-22.28,24.32q-49,53-97.9,106C118.28,7.43,117.44,8.46,116.29,9.78Z" transform="translate(138.93 135.42)"/><path d="M118.62,46c9.47,7.44,18.29,14.36,27.11,21.3l55.38,43.53a20.38,20.38,0,0,1,2,1.66c2,1.93,2.41,4.17.57,6.33-1.68,2-3.87,2.08-6.06.67-.73-.47-1.41-1-2.09-1.57Q153.72,85.06,111.87,52.2c-2.88-2.27-4.73-4.83-4-8.61s3.43-5.15,6.82-6q34.41-8.91,68.78-18c4.16-1.08,6.55-.15,7.28,2.79S190,27.09,186,28.16q-32.37,8.55-64.77,17C120.61,45.35,120.06,45.56,118.62,46Z" transform="translate(138.93 135.42)"/><path d="M104.68,79.21c3.7,12.11,7,23.05,10.39,34,1.61,5.25,3.25,10.49,4.86,15.74.92,3,.59,5.52-2.7,6.75-2.53.95-4.87-.66-6-4.15C105.89,114,100.57,96.46,95.16,78.94c-1.08-3.49-.5-6.5,2.27-8.81s5.94-2.1,9.07-.32q43.42,24.78,86.86,49.51c3.35,1.92,4.35,4.54,2.85,7s-4,2.71-7.56.67l-78.09-44.5C109,81.57,107.33,80.69,104.68,79.21Z" transform="translate(138.93 135.42)"/><path d="M74.58,98Q73.31,109.5,72,121q-3,28.1-6.06,56.2c-.32,3-1.82,5-5.09,4.66-3.09-.33-4.16-2.51-3.87-5.36q1.93-18.61,4-37.22c1.65-15.26,3.35-30.52,5-45.78.48-4.55,2.39-7.42,5.73-8.33s6.3.4,9.05,4.38q14.17,20.47,28.3,41c.35.52.72,1,1,1.55,1.44,2.4,1.22,4.65-1.1,6.25s-4.6,1.08-6.23-1.15c-2.8-3.83-5.42-7.78-8.12-11.68L75.57,97.81Z" transform="translate(138.93 135.42)"/><path d="M125.64,219.31c-4.76-.16-8.52-2.21-10.66-6.44a17.68,17.68,0,0,0-7.65-7.75c-8.8-4.89-8.83-16.28-.06-21.21A19.28,19.28,0,0,0,115,176.2c4.94-8.77,16.32-8.8,21.26-.06a19.32,19.32,0,0,0,7.67,7.72c8.77,4.93,8.81,16.3.06,21.24a17.61,17.61,0,0,0-7.68,7.71C134.17,217.05,130.41,219.13,125.64,219.31Zm.11-41.32c-1.38,1.28-2.73,2-3.19,3.07a19,19,0,0,1-10.2,10.32c-3.47,1.59-3.42,4.67.1,6.3a19.52,19.52,0,0,1,10,10c1.67,3.59,4.66,3.63,6.32.06a19.76,19.76,0,0,1,9.95-10.06c3.68-1.73,3.63-4.71-.1-6.5-4.47-2.16-7.81-5.12-9.72-9.78C128.4,180.22,127.05,179.37,125.75,178Z" transform="translate(138.93 135.42)"/><path d="M-39.94,186.49a25.59,25.59,0,0,1,2.56-4.14q30.29-32.16,60.66-64.24c2-2.17,4.28-3.11,6.88-1,2.16,1.73,2.06,4.64-.36,7.21q-30.45,32.27-61,64.4a6.64,6.64,0,0,1-5.22,1.44C-37.72,189.91-38.67,187.9-39.94,186.49Z" transform="translate(138.93 135.42)"/><path d="M-71.6-61.62c-.14.79,0,2.27-.63,3.2-4,5.72-8.49,11.26-14.78,14.48-4.33,2.22-9.43-.13-12.41-4.27a18.42,18.42,0,0,0-4.34-4.38,11,11,0,0,1,0-18.57,15.71,15.71,0,0,0,4.12-4.09c4.75-7,14-7,18.76,0a16,16,0,0,0,4.13,4.08A11.52,11.52,0,0,1-71.6-61.62Zm-8.72,0c-.7-.91-1-1.73-1.58-2a13.81,13.81,0,0,1-6.69-6.69c-1.11-2.09-2.45-1.1-3.73.42A44.07,44.07,0,0,1-98.19-64c-2,1.62-2.17,2.63,0,4.27a31.86,31.86,0,0,1,5.68,5.57c1.93,2.47,2.73,2.47,4.64-.11a48.26,48.26,0,0,1,5-5.18C-82.1-60.2-81.26-60.84-80.32-61.65Z" transform="translate(138.93 135.42)"/><path d="M150.63,155.56a6.55,6.55,0,0,1,.54-2.75c3.89-5.86,8.53-11.21,14.7-14.54,4.43-2.39,9.58,0,12.66,4.43a16.64,16.64,0,0,0,4.09,4.11c6.87,4.68,7,13.83.19,18.57a17.88,17.88,0,0,0-4.35,4.37c-4.7,6.79-13.89,6.74-18.57-.13a17,17,0,0,0-4.09-4.11A11.32,11.32,0,0,1,150.63,155.56Zm28.38.77c-.56-.79-.84-1.63-1.4-1.89a13.34,13.34,0,0,1-6.69-6.69c-.85-1.8-2.61-1.68-3.48.05a13.24,13.24,0,0,1-6.37,6.48c-2.23,1.06-1.67,2.51.12,4a39.8,39.8,0,0,1,5.89,5.86c1.65,2.06,2.61,2.1,4.26,0a70.9,70.9,0,0,1,5.85-5.91C177.77,157.64,178.33,157,179,156.33Z" transform="translate(138.93 135.42)"/><path d="M-98.12,156.22a33,33,0,0,1,2.75-4.07q21.93-23.33,44-46.58c2.55-2.69,5.16-3,7.15-.94,2.47,2.58,1.47,4.93-.67,7.19q-22,23.25-44,46.55c-1.64,1.73-3.54,3.17-5.88,1.7C-96.11,159.24-96.94,157.64-98.12,156.22Z" transform="translate(138.93 135.42)"/><path d="M134-86.4c4.06-.13,6.4,3.27,5,6.2a11.2,11.2,0,0,1-2,2.65Q119.22-58.77,101.46-40c-.68.72-1.41,1.83-2.21,1.91-1.69.17-4,.38-5-.55S93-41.9,93.06-43.59c0-.9,1.17-1.84,1.93-2.65Q112.71-65,130.48-83.75A23.28,23.28,0,0,1,134-86.4Z" transform="translate(138.93 135.42)"/><path d="M165.27-16.61c-4.07.15-6.4-3.51-4.73-6.5a11.65,11.65,0,0,1,2.2-2.52q11.2-10.73,22.46-21.44c2.24-2.14,4.59-3.15,7.19-.72,2,1.89,1.67,4.68-.92,7.16q-11.61,11.16-23.31,22.19A14.75,14.75,0,0,1,165.27-16.61Z" transform="translate(138.93 135.42)"/><path d="M20.39,190.11c.34-5.08,2.54-7.5,6.58-7.22,4.28.3,7.49,3.65,7.15,7.48-.36,4.21-3.12,6.83-7,6.64S20.14,193.71,20.39,190.11Z" transform="translate(138.93 135.42)"/><path d="M-99.75,168c0,2.81-6.87,10-9.62,10.05-3.27.08-5.86-3.48-4.07-6.16a33.66,33.66,0,0,1,7-7.63C-103.71,162.1-99.74,164.55-99.75,168Z" transform="translate(138.93 135.42)"/><path d="M204.79-55.42c.07,2.82-5.27,8.29-8.13,8.13a4.37,4.37,0,0,1-4.48-4.53c-.11-2.57,5.32-7.81,8-7.92A4.4,4.4,0,0,1,204.79-55.42Z" transform="translate(138.93 135.42)"/><path d="M97.85-103a5.42,5.42,0,0,1-5.57-5.65c.15-3.69,1.92-5.78,4.92-5.79,3.27,0,6.24,2.72,6.22,5.71A5.48,5.48,0,0,1,97.85-103Z" transform="translate(138.93 135.42)"/><path d="M-81.09-5.27c.09-4,1.82-5.94,5.16-5.79S-70-8.37-70-5.48C-70-2.11-72.36.34-75.52.31A5.32,5.32,0,0,1-81.09-5.27Z" transform="translate(138.93 135.42)"/></svg>