<svg id="图层_1" data-name="图层 1" xmlns="http://www.w3.org/2000/svg" viewBox="0 0 324.21 323.93"><title>packet</title><path d="M163.58-9.79,98.26-47.54a27.71,27.71,0,0,1-2.57-1.54c-2.75-2.05-3.45-5.18-1.83-7.92a5.84,5.84,0,0,1,7.83-2.27c3.34,1.68,6.53,3.66,9.77,5.53q33.45,19.22,66.88,38.46a9.71,9.71,0,0,1,2.54,2.15q15,18,30,36c3.54,4.25,2.9,8-1.87,10.75-8,4.59-16,9.29-24.06,13.74-2.41,1.33-3.22,2.89-3.21,5.61.1,26.12,0,52.24.14,78.37,0,4.69-1.53,7.54-5.64,9.9q-60.75,34.86-121.32,70a7,7,0,0,1-7.72,0q-60.6-35.1-121.3-70.07c-4.1-2.35-5.72-5.14-5.69-9.86.18-26,0-52,.15-78,0-2.95-.72-4.73-3.47-6.22-8.13-4.38-16.06-9.13-24.07-13.73-4.41-2.53-5.12-6.32-1.89-10.22Q-93.92,4.9-78.7-13.39a8.67,8.67,0,0,1,2.3-1.87Q-39.56-36.45-2.69-57.62a21.86,21.86,0,0,1,3.28-1.8c3-1.09,5.76-.5,7.49,2.39s1.07,5.56-1.45,7.69a23.94,23.94,0,0,1-3.47,2.2L-61.45-9.86a27.16,27.16,0,0,0,2.37,1.75q53.67,31,107.42,61.9a6,6,0,0,0,5,.23Q107.59,22.91,161.7-8.47C162.22-8.78,162.69-9.16,163.58-9.79ZM57.28,79.31V195.8c.89-.44,1.44-.68,2-1q54-31.18,108.05-62.32c2.13-1.22,2.49-2.68,2.48-4.84q-.08-33.75,0-67.5c0-1.08-.11-2.16-.2-3.62-1.07.53-1.84.86-2.56,1.28q-39.91,23-79.8,46.08c-5.36,3.1-7.19,2.77-11.09-2C70,94.52,63.87,87.21,57.28,79.31Zm-125-23.07v4.53c0,22.12.06,44.24-.07,66.37A5.75,5.75,0,0,0-64.45,133q53.12,30.48,106.11,61.17c.94.54,1.91,1,3,1.56V79.33c-6.79,8.2-13.1,15.79-19.38,23.4-3,3.63-5.45,4.1-9.42,1.8L-59.36,61C-61.93,59.53-64.51,58.08-67.75,56.24ZM41.84,64l-114.26-66L-95.8,26.12,18.43,92.07ZM83.59,92.1l114.23-66-23.38-28L60.2,64Z" transform="translate(111.12 111.47)"/><path d="M21-15.58V-78.39c0-6.23,1.8-9,5.88-9.08S33-84.63,33-78.24v66.36c0,6.38-1.45,8-8.44,8.61L51,18.6,76.8-2.71c-2.27-1-5-1.44-6.18-3s-1.55-4.35-1.56-6.6C69-34.43,69-56.55,69-78.67a20.23,20.23,0,0,1,.12-3.74c.61-3.06,2.54-4.93,5.67-5,3.32-.09,5.38,1.79,6.07,5A17.89,17.89,0,0,1,81-78.7v63.13c4.25,0,8.32.13,12.39,0,3.24-.14,5.83.83,6.87,3.95s-.35,5.61-3,7.76C83.42,7.38,69.67,18.8,55.92,30.2c-3.73,3.1-6.12,3.09-9.89,0Q25.26,12.94,4.39-4.18C1.83-6.27.75-8.73,1.76-11.71s3.42-4,6.54-3.91C12.39-15.47,16.49-15.58,21-15.58Z" transform="translate(111.12 111.47)"/><path d="M45-69.6c0-11.48,0-23,0-34.45,0-4.7,2.28-7.45,6-7.42s6,2.76,6,7.5q0,34.46,0,68.91c0,4.66-2.34,7.48-6,7.45S45-30.45,45-35.14Q45-52.37,45-69.6Z" transform="translate(111.12 111.47)"/></svg>