<svg id="图层_1" data-name="图层 1" xmlns="http://www.w3.org/2000/svg" viewBox="0 0 384 344.5"><title>map</title><path d="M243-91.25v309c-3.76,5.47-5.59,6.09-12.31,4.22q-42-11.65-84-23.24a12.22,12.22,0,0,0-6.15-.16c-28.28,7.72-56.5,15.67-84.8,23.32a18.87,18.87,0,0,1-9.44,0c-28-7.59-56-15.47-84.07-23.13a12.9,12.9,0,0,0-6.5-.07c-28.4,7.75-56.76,15.66-85.14,23.5-7.55,2.08-11.55-1-11.55-8.82V-87c0-6,1.55-8.07,7.24-9.65,28.86-8,57.73-15.91,86.54-24a21.18,21.18,0,0,1,12,0Q6.25-109,47.78-97.73a13,13,0,0,0,6.5,0c28.28-7.73,56.51-15.65,84.8-23.34a16.67,16.67,0,0,1,8.36,0c29.25,8,58.43,16.16,87.67,24.18C238.56-95.94,241.22-94.32,243-91.25ZM43.5-18.82v-4.61c0-18.5-.11-37,.1-55.49,0-3.4-1-4.72-4.18-5.57C23.51-88.72,7.66-93.19-8.21-97.58l-25.54-7v4.53c0,7.49.08,15,0,22.49C-33.86-73-37-69.93-41.3-70s-7.15-3-7.42-7.37c-.08-1.24,0-2.49,0-3.74v-23.45c-1.59.41-2.79.7-4,1-23,6.34-45.91,12.77-68.92,19-3.34.9-4.45,2.1-4.45,5.71q.19,140,.1,280.06v4.22c1.5-.34,2.59-.54,3.66-.83q31-8.56,62.05-17.15c3.71-1,8.86-1.14,10.67-3.62,1.94-2.65.83-7.61.85-11.57.06-12.48,0-25,0-37.39-5.93-1.26-8.29-3.49-8.36-7.7s2.24-6.61,8.36-8.09V-6.77a33.26,33.26,0,0,1,.07-3.74,7.33,7.33,0,0,1,7.24-6.75,7.35,7.35,0,0,1,7.62,6.75,33.26,33.26,0,0,1,.07,3.74V119.14a6.07,6.07,0,0,0,1,.68c3.28,1.17,5.28,3.48,5.42,6.92s-1.68,5.8-4.82,7.38a4.09,4.09,0,0,0-1.58,3.14c-.1,14.62,0,29.24-.13,43.86,0,2.49.82,3.37,3.15,4,19.26,5.24,38.48,10.64,57.71,16,5.37,1.48,10.75,2.91,16.24,4.39V134.8c-7.62-.8-10.42-2.94-10.4-7.8s2.74-6.83,10.43-7.79V65.4c-5.66,0-11.15,0-16.63,0s-8.78-3.11-8.7-7.68,3.29-7.25,8.62-7.29c5.57-.05,11.14,0,16.64,0V-3.83c-4.62,0-9,.07-13.36,0-5.26-.1-8.48-3-8.48-7.48s3.2-7.35,8.48-7.47C34.25-18.9,38.61-18.82,43.5-18.82Zm131.19,7.45c3.9,3.79,7.38,7,10.67,10.42s3.42,7.54.33,10.73Q175.13,20.69,164.2,31.24c-3.07,3-6.91,2.72-10.16,0-1-.82-1.89-1.7-3.11-2.81-.1,1-.17,1.4-.17,1.77q0,75.54-.06,151.1c0,2.26.62,3.19,2.91,3.81,19.63,5.31,39.21,10.79,58.81,16.22,5.08,1.41,10.18,2.8,15.45,4.24.06-1,.12-1.52.12-2q0-141.91.08-283.83c0-2.7-1.24-3.32-3.35-3.89q-22.58-6.15-45.11-12.41c-9.48-2.62-19-5.28-28.68-8v53.52c.79-.66,1.25-1,1.67-1.39,5.17-4.76,8.44-4.7,13.44.28,6.29,6.26,12.6,12.51,18.82,18.83,4,4,4,8.12.07,12.13C181.79-18,178.47-15,174.69-11.37Zm-62.81,0c-3.75-3.59-7-6.55-10-9.65-4.31-4.33-4.27-8.27.06-12.64,5.37-5.42,10.78-10.79,16.17-16.18,8-8,8.41-8,17.5-1.7v-52.88c-.93.17-1.67.24-2.38.44-24,6.67-48.06,13.42-72.13,20-2.89.78-2.56,2.45-2.56,4.42q0,98.22.08,196.44a8.09,8.09,0,0,0,1.92,4.77c2.93,3.43,2.93,7.39,0,10.81a8.08,8.08,0,0,0-1.93,4.75c-.12,21.62-.08,43.24-.07,64.86,0,1.06.11,2.13.18,3.34.88-.16,1.5-.23,2.09-.39,24.17-6.69,48.31-13.45,72.51-20,2.92-.8,2.46-2.59,2.46-4.52q0-74.22,0-148.45c0-1.06-.08-2.11-.15-3.57-.78.62-1.16.89-1.51,1.21-5.37,5-8.54,4.92-13.71-.25q-9-9-18-18c-4.91-4.92-5-8.62-.14-13.44C105.2-5,108.31-7.91,111.88-11.33Zm5-15.36C119.88-23.85,123-21,126-18c4.72,4.72,4.74,8.51.09,13.18-3,3.07-6.19,6.06-8.83,8.64l10.58,11.29c3.06-3.22,6-6.45,9.1-9.53,4.43-4.41,8.19-4.42,12.64,0,3.16,3.15,6.19,6.44,8.67,9L169.42,4c-2.93-2.84-6-5.75-9-8.76-4.64-4.65-4.62-8.46.1-13.17,3.06-3,6.24-6,9-8.6L158.66-38.11c-3.13,3.39-6.07,6.78-9.22,10-4.21,4.24-8.17,4.24-12.37,0-3.15-3.18-6.08-6.57-9.14-9.89Z" transform="translate(141 121.57)"/><path d="M-63.44,87.81c-.44,10.52-4.91,17.84-13.67,22.31-2.1,1.07-2.91,2.21-2.81,4.53.17,4,.15,8,0,12-.18,4.76-3.11,7.8-7.29,7.88-4.34.09-7.42-3-7.61-8-.14-3.73-.18-7.49,0-11.22.13-2.59-.71-3.86-3.2-5a24.11,24.11,0,0,1-13.62-27.21A24.53,24.53,0,0,1-88.68,64,24.12,24.12,0,0,1-64.33,82.23,50.7,50.7,0,0,1-63.44,87.81Zm-15.12.65A9.26,9.26,0,0,0-87.62,79a9.39,9.39,0,0,0-9.55,9.4,9.44,9.44,0,0,0,9.32,9.29A9.31,9.31,0,0,0-78.56,88.46Z" transform="translate(141 121.57)"/><path d="M-1.68,56.8c-2.48-1.32-4.73-1.82-5.8-3.22A116.06,116.06,0,0,1-17.3,39.15c-2.1-3.79-.11-8,3.64-9.69,3.59-1.66,7.4-.29,9.68,3.23,2.43,3.75,5,7.41,7.6,11.05,1.83,2.57,2.58,5.47.76,8C2.93,53.77.48,55.07-1.68,56.8Z" transform="translate(141 121.57)"/><path d="M2.47,134.5c-2.5,0-5,.12-7.49,0a7.22,7.22,0,0,1-7.09-7.26,7.16,7.16,0,0,1,6.76-7.57c5.36-.26,10.75-.24,16.12,0a7.35,7.35,0,0,1,7,7.43,7.54,7.54,0,0,1-7.42,7.43C7.73,134.61,5.1,134.51,2.47,134.5Z" transform="translate(141 121.57)"/><path d="M-8.81,15.27c-5.78-.74-9.36-6-7.13-10.94A35.28,35.28,0,0,1-3.53-10.39,7.11,7.11,0,0,1,6.22-8.87a7.58,7.58,0,0,1-.45,9.93C2.76,4.53,0,8.23-3.18,11.53-4.7,13.12-6.91,14.05-8.81,15.27Z" transform="translate(141 121.57)"/><path d="M-33.77-43.78A7.44,7.44,0,0,1-41-36.21a7.45,7.45,0,0,1-7.74-7.43A7.4,7.4,0,0,1-41.32-51,7.41,7.41,0,0,1-33.77-43.78Z" transform="translate(141 121.57)"/><path d="M75.53,50c3.91.65,7.88,1,11.7,2a7.11,7.11,0,0,1,5.4,8.53c-.88,4.09-4.22,6.33-8.59,5.91s-8.64-.77-13-1c-4.83-.3-8-3.23-8.08-7.52s3.13-7.33,8-7.48c1.5,0,3,0,4.48,0Z" transform="translate(141 121.57)"/><path d="M118.74,90.32c-.48,5.31-2.46,8.54-6.42,9.5-4.31,1.05-8.23-1.89-9.11-6.61-.77-4.15-1.61-8.29-2.72-12.35-1.15-4.22.31-8.13,4-9.71a7.24,7.24,0,0,1,9.87,4.19C116.19,80.2,117.31,85.32,118.74,90.32Z" transform="translate(141 121.57)"/><path d="M86,133.23c-4.36-.06-7.29-2.35-8-5.56a7.43,7.43,0,0,1,3.87-8.53l12.82-6.8a7.44,7.44,0,0,1,9.22,1.57c2.34,2.65,2.8,6.65.39,9.28A34.24,34.24,0,0,1,86,133.23Z" transform="translate(141 121.57)"/><path d="M77.72-3.74a47.47,47.47,0,0,1-5.21-.34,7.18,7.18,0,0,1-6.1-7.36,7,7,0,0,1,6.32-7.13,63.72,63.72,0,0,1,10.43-.05,7.21,7.21,0,0,1,6.71,7.21A7.37,7.37,0,0,1,83.31-4a45.28,45.28,0,0,1-5.59,0Z" transform="translate(141 121.57)"/></svg>