<svg id="图层_1" data-name="图层 1" xmlns="http://www.w3.org/2000/svg" viewBox="0 0 384.01 320.83"><title>fb-story</title><path d="M243,179.5a10.57,10.57,0,0,0-.84,1.55c-3.16,8.36-9.34,12.79-18.28,12.82-21.75,0-43.5,0-65.25,0H153.7c0,3.51,0,6.71,0,9.92-.09,6.4-4,8.69-9.72,5.67-3.87-2-7.61-4.32-11.57-6.15a6.26,6.26,0,0,0-4.66-.09c-4.42,2-8.62,4.5-13,6.65-4.91,2.41-8.8,0-9-5.44-.1-3.35,0-6.71,0-10.56h-167c-6.1,0-8.47-1.5-8.57-5.4s2.56-5.85,8.59-5.85H105.52V166.75h-4.3q-95.23,0-190.48,0c-11.62,0-20.18-6.3-22.75-16.79a26.6,26.6,0,0,1-.61-6.31q-.07-28.48,0-57c0-.5,0-1,0-1.5.21-3.54,2.38-5.86,5.5-5.89a5.66,5.66,0,0,1,5.66,5.81c.17,6.24.06,12.5.07,18.75v21.82h4.64c37,0,74,.12,111-.08,11.16-.06,21.7,1.17,31.18,9.71v-4.85q0-101.05,0-202.1c0-17.25-9.75-27-26.89-27H-91.36c-8.23,0-10,1.84-10,10.19q0,73.88,0,147.74a17.94,17.94,0,0,1-.45,4.81c-.78,2.77-2.87,4-5.7,3.79a5,5,0,0,1-5-4.72,29.72,29.72,0,0,1-.11-4.12V-75a110.69,110.69,0,0,0-11.14.09c-3.51.36-5.41,2.87-5.89,6.32a27.38,27.38,0,0,0-.07,3.74V172.49c0,8.14,2,10.14,10.2,10.15q15.19,0,30.38,0a14.81,14.81,0,0,1,3.71.31,5.19,5.19,0,0,1,4.25,5.79c-.26,2.9-2,5-5.1,5-13,.07-26,.35-39-.2-8.38-.36-15.17-8.41-15.67-17-.07-1.24,0-2.5,0-3.75V-65.27c0-14,7.25-21.21,21.24-21.23h7.13c0-2.14,0-3.85,0-5.57.3-9.9,7.78-17.78,17.6-17.81,39.25-.12,78.5-.18,117.74,0,10.53.06,19.2,4.93,26,13,.7.84,1.36,1.72,2.26,2.86.78-.92,1.39-1.65,2-2.38,7.22-8.89,16.55-13.51,28-13.6,13-.1,26-.15,39,.11a8.62,8.62,0,0,1,5.81,3c.89,1.13.75,4.32-.23,5.37a9.34,9.34,0,0,1-6.09,2.6c-12.24.24-24.49.11-36.74.12-15.9,0-26,10-26,26q-.06,101.79,0,203.6c0,1.09.11,2.18.19,3.69a18.85,18.85,0,0,0,1.8-1.06c7.05-5.59,15.13-7.9,24.06-7.89q57.93.06,115.86,0h4.86v-4.36q0-105.18,0-210.35c0-7.56-2.05-9.62-9.5-9.62-16.25,0-32.5.1-48.74-.13a9.1,9.1,0,0,1-6.33-2.82c-2.85-3.67.44-8.25,5.72-8.28,11.75-.06,23.5,0,35.25,0,5,0,10,0,15,0,12.3,0,19.67,7.22,19.85,19.41,0,1.11,0,2.22,0,4.12,12.66-1.16,23.84.67,28.32,14.66Zm-89.14,3.14h67.46c8.45,0,10.43-2,10.43-10.29V-64.89a26,26,0,0,0-.08-3.75c-.46-3.27-2.22-5.81-5.56-6.2-3.64-.41-7.37-.09-11.43-.09v5q0,106.46,0,212.89c0,14.82-9,23.74-23.82,23.77-11,0-22,0-33,0h-4ZM44.52,155.5c-.29-1.26-.4-2-.64-2.67-3.45-9.69-12.51-15.92-23.51-15.93q-59.19-.06-118.38,0c-1.06,0-2.12.16-3.1.24-1.54,12.8,1.68,18.64,15.91,18.5,41.58-.4,83.17-.14,124.76-.14Zm97.63,39.63v-58H117.23V195.6c4.3-1.94,8.32-5.13,12.4-5.21S137.81,193.35,142.15,195.13Zm61.07-58H154v18.21c.55.09.8.15,1,.16,10.86,0,21.73-.33,32.57.11,11.85.48,16.75-3.77,15.8-16.23C203.38,138.74,203.32,138.13,203.22,137.11Zm-97.64-.22c-8.29,0-16.37,0-24.44,0a29.07,29.07,0,0,0-5.57.63c-8.86,1.77-16.73,9.61-17.75,17.73h47.76Z" transform="translate(141.01 110)"/><path d="M-25.41,106.33q-24.57,0-49.12,0c-6.9,0-8.3-1.42-8.3-8.4q0-24.94,0-49.87c0-7,1.43-8.47,8.27-8.47H23.67c6.48,0,8.08,1.56,8.09,7.88q0,25.49,0,51c0,6.37-1.55,7.87-8.06,7.88Q-.85,106.35-25.41,106.33Zm-45.94-11.5H20.31V51.08H-71.35Z" transform="translate(141.01 110)"/><path d="M105.46.5c-8.13,0-16.25,0-24.37,0-5.23,0-7-1.78-7-6.95q-.06-20.62,0-41.25c0-5.13,1.85-6.95,7-7q24.36-.06,48.74,0c5.19,0,7.1,1.84,7.12,7q.09,20.63,0,41.24c0,5.14-1.92,6.93-7.12,7C121.71.53,113.58.5,105.46.5Zm20.05-43.71h-40V-11h40Z" transform="translate(141.01 110)"/><path d="M-27.75-28.31H19.49a29.12,29.12,0,0,1,3.37.07c3,.37,4.8,2,5,5.09.25,3.24-1.48,5.23-4.53,5.92a20.89,20.89,0,0,1-4.48.17h-93a20.24,20.24,0,0,1-3.74-.1c-3.07-.58-5-2.43-4.87-5.67s1.92-5,5.1-5.41a29.07,29.07,0,0,1,3.37-.07Z" transform="translate(141.01 110)"/><path d="M-27.24-5.14c16,0,32-.05,48,.07a9.51,9.51,0,0,1,5.5,1.61c3.15,2.53,1.93,7.74-2,9a15.33,15.33,0,0,1-4.8.51q-46.86,0-93.72,0c-.75,0-1.5,0-2.25,0-4-.22-6.39-2.47-6.25-5.93s2.38-5.27,6.39-5.29c14,0,28,0,42,0Z" transform="translate(141.01 110)"/><path d="M-27.39,18H19.46a29,29,0,0,1,3.74.12,5,5,0,0,1,4.69,5c.21,3-1.2,5.09-4.17,5.79a19.61,19.61,0,0,1-4.47.35H-74.08c-.62,0-1.25,0-1.87,0-4.44-.18-6.85-2.24-6.8-5.79s2.41-5.43,7-5.44Q-51.57,18-27.39,18Z" transform="translate(141.01 110)"/><path d="M129.65,18h46.86a23.31,23.31,0,0,1,3.74.15A5,5,0,0,1,184.72,23c.27,2.81-.92,4.95-3.67,5.78a16.78,16.78,0,0,1-4.81.5q-46.86,0-93.71,0a17.82,17.82,0,0,1-4.45-.4,5,5,0,0,1-4-5.59,5,5,0,0,1,4.57-5.1A24.49,24.49,0,0,1,82.43,18Z" transform="translate(141.01 110)"/><path d="M129.33,105.5c-16,0-32,.09-48-.11a9.41,9.41,0,0,1-6.2-2.42c-2.6-2.73-.84-7.28,2.88-8.3a17,17,0,0,1,4.45-.4q46.86,0,93.71,0c.63,0,1.25,0,1.88,0,4.37.17,6.82,2.31,6.71,5.86s-2.43,5.35-6.72,5.36Q153.69,105.54,129.33,105.5Z" transform="translate(141.01 110)"/><path d="M129.37,43.42h46.86a23.33,23.33,0,0,1,4.1.2,5,5,0,0,1,4.42,5.24,5,5,0,0,1-4.14,5.46,17.94,17.94,0,0,1-4.09.33q-47,0-94.08,0a17,17,0,0,1-4.46-.4c-2.77-.77-4-2.82-3.86-5.66a4.94,4.94,0,0,1,4.29-4.94,21.67,21.67,0,0,1,4.11-.23Z" transform="translate(141.01 110)"/><path d="M-27.44-40.22H-74.68A17.17,17.17,0,0,1-78-40.34c-2.93-.58-4.64-2.42-4.68-5.45s1.69-4.89,4.58-5.55a15.66,15.66,0,0,1,3.36-.13H20.07a13.91,13.91,0,0,1,3.36.15c2.86.71,4.57,2.54,4.49,5.61s-1.85,4.82-4.76,5.39a18,18,0,0,1-3.37.09Z" transform="translate(141.01 110)"/><path d="M129.4,80.08H82.54a20.73,20.73,0,0,1-4.1-.24,5,5,0,0,1-4.32-5.3,5,5,0,0,1,4.2-5.4,18.61,18.61,0,0,1,4.09-.29q47.06,0,94.09,0c1.49,0,3.43-.31,4.36.48,1.63,1.37,3.32,3.33,3.75,5.31.54,2.5-1.25,4.52-3.89,5.13a19.59,19.59,0,0,1-4.47.3Q152.82,80.09,129.4,80.08Z" transform="translate(141.01 110)"/><path d="M-60.59-64.44c-5.12,0-10.25,0-15.37,0-4.39-.06-6.85-2.2-6.79-5.76s2.36-5.43,6.64-5.46q15.56-.08,31.12,0c4.48,0,6.86,2.1,6.79,5.69s-2.5,5.49-7,5.53C-50.34-64.4-55.47-64.44-60.59-64.44Z" transform="translate(141.01 110)"/><path d="M163.22-40.23c-4.74,0-9.49,0-14.24,0-4.07,0-6.52-2.24-6.5-5.65s2.49-5.55,6.58-5.57q14.63-.06,29.25,0c4.06,0,6.52,2.25,6.49,5.66s-2.47,5.52-6.58,5.56C173.22-40.18,168.22-40.23,163.22-40.23Z" transform="translate(141.01 110)"/><path d="M163.78-28.3c4.88,0,9.75-.05,14.63,0,4,.05,6.47,2.29,6.39,5.72-.08,3.25-2.48,5.46-6.31,5.49q-14.81.09-29.61,0c-4,0-6.47-2.34-6.39-5.77.08-3.26,2.45-5.38,6.3-5.44C153.79-28.35,158.79-28.3,163.78-28.3Z" transform="translate(141.01 110)"/><path d="M163.69-5.13c5,0,10-.06,15,0,3.86.07,6.14,2.23,6.11,5.58,0,3.14-2.26,5.53-5.83,5.58q-15.36.18-30.73,0A5.45,5.45,0,0,1,142.49.39c0-3.29,2.36-5.44,6.2-5.5C153.69-5.19,158.69-5.13,163.69-5.13Z" transform="translate(141.01 110)"/></svg>