<?xml version="1.0" encoding="utf-8"?>
<!-- Generator: Adobe Illustrator 22.1.0, SVG Export Plug-In . SVG Version: 6.00 Build 0)  -->
<svg version="1.1" id="图层_1" xmlns="http://www.w3.org/2000/svg" xmlns:xlink="http://www.w3.org/1999/xlink" x="0px" y="0px"
	 viewBox="0 0 288.6 286.4" style="enable-background:new 0 0 288.6 286.4;" xml:space="preserve">
<title>fb</title>
<path d="M81,49.4l10.4,13.4c5.6-2.8,10.8-5.9,16.4-8.3c34.1-15,75.8-7.3,102.8,18.7c15.1,14.5,24.7,32.1,28.4,52.7
	c9.2,50.6-24.2,100-74.5,110.3c-6.1,1.2-12.4,1.6-18.6,2c-5,0.3-8.5-2.8-8.6-7.3s3-7.8,8-8c7.9-0.2,15.8-1.4,23.4-3.6
	c12.5-3.5,27.5-13.2,36.1-23.5l-12.7-9.4c-4.2,3.3-8,6.8-12.1,9.5c-23.3,15.1-51.5,14.5-73.5-2.4c-19.8-15.2-28.2-35.7-24.6-60.4
	c3.9-26.9,23.1-46.8,49.8-52.9c4.4-0.9,8.9-1.3,13.4-1.3c4-0.1,7.3,3,7.4,7c0,0.1,0,0.1,0,0.2c0.2,4.3-2.7,7.7-7,7.9
	c-7.9,0.4-15.6,1.6-22.6,5.5c-17.3,9.5-26.3,24.2-26.6,44c0,0.2,0,0.5,0.1,0.7c0.1,0.2,0.2,0.4,0.3,0.6c5.6-2.3,11.3-4.6,17-7.1
	c0.8-0.3,1.3-1.6,1.5-2.6c2.2-8.9,8.3-16.3,16.6-20.1c20.5-9.9,44.3,5.7,43.6,28.4c-0.5,16.3-13.4,29.4-29.4,29.9
	c-5,0.2-8.5-2.6-8.8-6.9c-0.4-4.7,2.6-8.1,7.8-8.5c6.2-0.4,10.9-3.2,13.5-8.7c2.7-5.8,2.1-11.4-2.1-16.3s-9.7-6.7-15.9-4.9
	c-6.2,1.8-10.2,6-10.7,12.4c-0.5,5.7-3.1,8.8-8.4,10.7c-7.3,2.7-14.4,5.9-21.9,9c1.6,4.7,4.1,9,7.3,12.8
	c12.8,15.1,29.1,21.4,48.4,17c20.2-4.6,32.8-17.8,37.1-38.1c3-14.1-0.4-27.1-9-38.6c-0.4-0.5-0.8-1.1-1.2-1.6c-3-4.1-2.7-8,1-11.3
	c5-4.6,10.1-9.1,15.2-13.7c0.6-0.5,1.3-1.1,2-1.7c-7.5-7.4-16.5-13.1-26.3-16.9c-20-7.7-40.1-7.6-59.9,0.5
	c-17.7,7.3-31.5,19.4-40.2,36.5C59.9,132.8,61.3,160.4,78,187c5.2,8.1,11.9,15.1,19.7,20.6c2.2,1.6,3.9,3.3,4.2,6.2
	c0.4,3-1,5.9-3.7,7.4c-3,1.8-5.9,1.5-8.7-0.6c-8.7-6.2-16.3-13.8-22.5-22.5c-0.8-1.2-1.6-2.3-2.5-3.4c-0.1-0.1-0.3-0.2-0.5-0.4
	l-14.8,7.6c7.5,12.1,17.3,22.7,28.8,31.2c15.1,11.3,32.8,18.5,51.4,21c30.9,4,59.1-3.3,83.8-22.3c22-16.8,36-39,41.7-66.2
	c5.4-24.7,2-50.5-9.4-73.1C234.3,70,217.3,53.2,195,41.8c-8.7-4.3-18-7.5-27.5-9.5c-4.6-1-7.1-3.6-7.2-7.4c-0.3-4.1,2.8-7.7,7-8
	c0.7,0,1.3,0,2,0.1c36.1,7.1,67.5,29.3,86,61.2c8.9,15,14.5,31.7,16.4,49.1c4.6,42.9-8.8,79.4-40,109.2
	c-17.9,17.3-40.8,28.6-65.5,32.2c-45,6.8-83.7-6.2-115.1-39.2c-18.8-19.5-30.5-44.8-33.1-71.7c-3.7-35.2,4.8-67.2,27.1-95.1
	c19.5-24.2,44.6-39.3,75-45.6c4.1-0.9,8.2,1.6,9.2,5.7c1,4-1.4,8-5.4,9c-0.1,0-0.2,0.1-0.3,0.1c-8.9,2.1-17.8,4.5-26,8.5
	C92,43.2,86.7,46.3,81,49.4z M69.3,59.3c-16.2,14-32.6,38.6-36.3,69.8c-2.5,20.2,0.6,40.7,9,59.2l14.8-7.7
	c-15.2-41-7.6-76.9,22.6-108.2L69.3,59.3z M213.9,183.2c16.5-27.2,14.2-62.6-3.5-86.8l-12,10.8c13,21.9,14,43.9,2.5,66.3
	L213.9,183.2z"/>
</svg>
