<?xml version="1.0" encoding="utf-8"?>
<!-- Generator: Adobe Illustrator 22.1.0, SVG Export Plug-In . SVG Version: 6.00 Build 0)  -->
<svg version="1.1" id="Capa_1" xmlns="http://www.w3.org/2000/svg" xmlns:xlink="http://www.w3.org/1999/xlink" x="0px" y="0px"
	 viewBox="0 0 389.1 389.1" style="enable-background:new 0 0 389.1 389.1;" xml:space="preserve">
<g>
	<path d="M191.5,172.4c12.3,0,22.3,10,22.3,22.3c0,3.9,3.2,7.1,7.1,7.1c3.9,0,7.1-3.2,7.1-7.1c0-20.1-16.4-36.4-36.4-36.4
		c-20.1,0-36.4,16.4-36.4,36.4c0,20.1,16.3,36.4,36.4,36.4c6.6,0,13-1.8,18.6-5.1c3.4-2,4.5-6.3,2.5-9.7c-2-3.4-6.3-4.5-9.7-2.5
		c-3.4,2-7.4,3.1-11.4,3.1c-12.3,0-22.3-10-22.3-22.3C169.2,182.4,179.2,172.4,191.5,172.4z"/>
	<path d="M131.4,36.3C78,56.6,38.7,101.9,26.2,157.6c-0.9,3.8,1.5,7.6,5.3,8.5c3.8,0.9,7.6-1.5,8.5-5.3
		c11.5-51,47.5-92.6,96.4-111.2c80-30.4,169.8,10,200.2,90c30.4,80-10,169.8-90,200.2c-80.1,30.4-169.9-10-200.2-90
		c-1.4-3.7-5.5-5.5-9.1-4.1c-3.7,1.4-5.5,5.5-4.1,9.1c25.7,67.6,90.2,109.2,158.5,109.2c19.9,0,40.2-3.6,60-11
		C339,319.9,383,221.8,349.9,134.5C316.7,47.2,218.7,3.1,131.4,36.3z"/>
	<path d="M174.7,93.5c-55.8,9.3-93.6,62.2-84.4,118c8.3,50.1,51.9,85.8,101.1,85.8c5.6,0,11.2-0.5,16.8-1.4
		c55.8-9.3,93.6-62.2,84.4-118c-5.7-34.1-27.9-62.9-59.4-76.9c-3.6-1.6-7.7,0-9.3,3.6c-1.6,3.6,0,7.8,3.6,9.3
		c27.2,12.1,46.4,36.9,51.2,66.3c8,48.1-24.6,93.7-72.7,101.7c-48.1,8-93.7-24.7-101.7-72.7c-8-48.1,24.6-93.7,72.7-101.7
		c3.9-0.6,6.5-4.3,5.8-8.1C182.2,95.5,178.6,92.8,174.7,93.5z"/>
</g>
</svg>
