<?xml version="1.0" encoding="utf-8"?>
<!-- Generator: Adobe Illustrator 22.1.0, SVG Export Plug-In . SVG Version: 6.00 Build 0)  -->
<svg version="1.1" id="Capa_1" xmlns="http://www.w3.org/2000/svg" xmlns:xlink="http://www.w3.org/1999/xlink" x="0px" y="0px"
	 viewBox="0 0 833.7 833.7" style="enable-background:new 0 0 833.7 833.7;" xml:space="preserve">
<g>
	<path d="M415.5,88.8C252.9,88.8,121,220.7,121,383.4v138.8c0,7.3,3.4,14.2,9.3,18.7L256.9,637v79.2c0,13,10.5,23.4,23.4,23.4h18.8
		c13,0,23.4-10.5,23.4-23.4v-32.2c0-8.2,6.6-14.8,14.8-14.8l0,0c8.2,0,14.8,6.6,14.8,14.8v32.2c0,13,10.5,23.4,23.4,23.4h0.8
		c13,0,23.4-10.5,23.4-23.4v-32.2c0-8.2,6.6-14.8,14.8-14.8h1.6c8.2,0,14.8,6.6,14.8,14.8v32.2c0,13,10.5,23.4,23.4,23.4h0.8
		c13,0,23.4-10.5,23.4-23.4v-32.2c0-8.2,6.6-14.8,14.8-14.8l0,0c8.2,0,14.8,6.6,14.8,14.8v32.2c0,13,10.5,23.4,23.4,23.4h18.9
		c13,0,23.4-10.5,23.4-23.4v-79.3l126.6-96.1c5.9-4.5,9.3-11.3,9.3-18.7V383.4C710,220.7,578.1,88.8,415.5,88.8z M292.4,524.5
		c-44.8,0-81.2-36.4-81.2-81.2c0-44.8,36.4-81.2,81.2-81.2s81.2,36.4,81.2,81.2C373.6,488.2,337.2,524.5,292.4,524.5z M438.6,584.2
		h-46.1c-10.7,0-17.5-11.5-12.3-20.8l23.1-41.9c5.3-9.7,19.3-9.7,24.6,0l23.1,41.9C456,572.8,449.2,584.2,438.6,584.2z M538.6,524.5
		c-44.8,0-81.2-36.4-81.2-81.2c0-44.8,36.4-81.2,81.2-81.2c44.8,0,81.2,36.4,81.2,81.2C619.8,488.2,583.5,524.5,538.6,524.5z"/>
</g>
</svg>
