<?xml version="1.0" encoding="utf-8"?>
<!-- Generator: Adobe Illustrator 22.1.0, SVG Export Plug-In . SVG Version: 6.00 Build 0)  -->
<svg version="1.1" id="图层_1" xmlns="http://www.w3.org/2000/svg" xmlns:xlink="http://www.w3.org/1999/xlink" x="0px" y="0px"
	 viewBox="0 0 256 256" style="enable-background:new 0 0 256 256;" xml:space="preserve">
<g>
	<g>
		<path d="M85.2,22.6c16.8-0.2,31.3,4.9,45.9,8.9c5.7,1.5,11.1,3.5,16.4,5.8c2.1,1,4,3.4,4.9,5.7c7.8,20,15.3,40.3,22.8,60.4
			c2.7,7.1,5.4,14.3,7.6,21.6c1.2,3.8,1.3,8,1.4,12c0,1.2-1.3,2.9-2.6,3.7c-28.8,19.5-57.4,39-86.3,58.3c-6.9,4.7-14.8,8-22.1,12.2
			c-3.5,2-4.2,0.8-5-2.5c-7-27.4-13.8-54.9-21.5-82.3c-2.3-8.1-0.8-15.3,1.1-22.7c2.7-11,5.5-22.1,9.1-32.7
			c4.4-12.9,9.9-25.7,14.9-38.5c0.2-0.5,0.5-0.9,0.6-1.3C73.9,23.1,78.9,20.8,85.2,22.6z M124.5,88.1c0.4-9.9-8.2-18.9-17.2-17.6
			c-7.4,1.1-11.4,5.8-13.4,12.5c-1.9,6.2-2,12.6,3.2,17.2c2.5,2.2,6.6,3.4,10,3.6c3.3,0.3,6.1-5.5,4.7-8.6c-1.9-4.1-4-1-6.2,0
			c-2.4,1.2-5,0.5-5.5-2.1c-0.5-2.6-0.3-5.8,0.9-8.2c1.7-3.7,4.6-7.4,9.2-6.7c4.3,0.7,4.9,5.3,5.9,8.6c3.7,12.6-0.4,24-6.9,34.2
			c-5.9,9.4-13.3,17.9-20.4,26.5c-5.9,7.4-6.7,10.5-1.5,17.5c0.9,1.2,3.2,1.5,4.9,2c0.7,0.2,2.2-1.1,2.2-1.3
			c-0.5-1.5-0.9-3.6-2.1-4.5c-3.6-2.6-2.7-4.8-0.5-7.6c6.1-8,11.9-16.3,18.3-24.1C120.2,117.5,123.6,103.3,124.5,88.1z M148.5,111
			c-1.6-3.1-2.6-6.6-4.9-8.4c-3.1-2.5-6.4-0.2-9.4,1.6c-5.8,3.7-7,9.7-2.7,15.9c2.1,3.1,1.6,5-0.7,7.1c-2.3,2.2-4.8,4.4-7.2,6.5
			c-4,3.5-8.4,6.6-12.3,10.3c-1.2,1.1-1,3.4-1.4,5.1c1.2,0.1,2.6,0.6,3.2,0.1c10.8-8.4,22.7-15.6,30.5-27.5
			C145.8,118.8,146.8,115,148.5,111z M166.9,126.7c-1.8,2-3.5,4.5-5.8,6.2c-19.7,14.8-39.3,29.5-59.2,44c-5.6,4-11.6,7.6-17.7,10.6
			c-5.8,3-6.9,2.2-10.3-3.6c-0.3-0.5-0.7-1.1-1.1-1.4c0,0.6-0.2,1.2-0.1,1.7c0.5,1.7,1.2,3.4,1.5,5.1c1.1,4,2.6,4.7,6.8,3.2
			c12.1-4.6,21.6-13,32.1-19.9c11.7-7.6,22.5-16.4,33.6-24.7c6.6-5,12.9-10.3,19.4-15.4c2.7-2.2,3.5-4.7,2.4-8.1
			c-3.5-12-6.8-24-10.4-36c-1.4-4.8-3.4-9.4-5.2-14.1c-0.3-0.6-1.1-0.9-1.6-1.3c0,0.6-0.1,1.2,0.1,1.8c3.3,11.1,6.6,22.3,9.9,33.5
			C163.3,114.1,165,119.9,166.9,126.7z M92.3,104c-4.7-0.1-11.8,8.1-10.5,12.6c0.3,1.1,3.1,2.5,3.6,2.2c1.5-1.1,2.6-3,3.9-4.5
			c1.2-1.4,2.3-3,3.5-4.4c1.2,1.7,3.3,3.5,3.5,5.3c0.5,4.7-1.6,8.6-5,12.1c-3.7,3.8-7.1,8-10.5,12c-0.4,0.5-0.3,1.3-0.4,2.1
			c0.6-0.2,1.3-0.2,1.7-0.5c8.9-6.7,17-14.2,18.6-26.1C101.4,110.2,96.5,104.1,92.3,104z M54.3,110.6c1.3,4.9,2.4,9.5,3.7,14.2
			c0.2,0.6,0.6,1.2,0.9,1.6c0.1-0.7,0.5-1.4,0.4-2.1c-3.2-8.6-1.6-17.2,0.8-25.6c1.7-5.8,3-12.1,5.2-17.6c5.8-14,12.1-27.9,18-41.8
			c1.1-2.3,2.5-2.8,5-2.2c4.6,1,9.3,1.3,13.9,1.9c0.5,0.1,1-0.2,1.3-0.3c-0.4-0.2-0.8-0.5-1.2-0.6c-5.6-1.3-11-2.8-16.5-4
			C83.4,33.6,82,34.6,81,37c-6,15.1-12.6,30.3-18.5,45.7c-2.3,5.9-3.5,12.5-5.4,18.6C56.3,104.6,55.2,107.5,54.3,110.6z M136.2,45.3
			c-0.5,0.1-1.2,0.4-1.7,0.5c0.6,0.5,1.2,1.2,1.8,1.3c6.1,1.3,8.8,5.4,9.4,11.2c0.1,0.8,0.3,1.6,0.6,2.3c0.5,1.2,1.3,2.2,2,3.2
			c0-1.2,0.2-2.3-0.1-3.5c-0.6-2.5-1.6-4.9-2.2-7.4C144.8,47.9,141,46.5,136.2,45.3z"/>
		<path d="M109.8,236.3c-5.2-2.2-11-4-16.2-6.9c-6.1-3.3-11.8-7.5-17.6-11.1c-2-1.3-2.6-2.2,0-3.6c4.5-2.3,8.9-4.7,13.2-7.3
			c12.3-7.5,24.6-15,36.8-22.7c4-2.6,7.7-5.9,11.8-8.6c14.6-10.1,29.1-20,43.7-29.9c5.9-4,7-3.5,12.1,1.7c4.5,4.6,10,8.2,15,12.4
			c11.4,9.3,11.6,10.5-0.4,19c-26.4,18.5-53.2,36.1-82.5,49.9c-4,2-8.1,4-12.2,6C112.6,235.4,111.5,235.7,109.8,236.3z"/>
		<path d="M158.3,43.8c1.5,0.8,2.7,1.2,3.5,1.8C174.1,56.3,186,67.2,191,83.9c4.4,14.8,11.1,28.7,16.5,43.1
			c3.9,10.3,7.5,20.8,11.1,31.2c0.5,1.2,0.4,2.4,0.5,3.6c-1.3-0.5-2.7-0.9-3.7-1.6c-3-2.2-5.7-4.9-8.6-7.1
			c-10.4-7.8-15.9-18.4-20.2-30.5c-8.8-24.7-18.6-49.1-28.1-73.6c-0.5-1.1-1-2.1-1.2-3.2C157.4,45.1,158,44.4,158.3,43.8z"/>
		<path d="M137.5,107.5c1.2,2,2.3,3.2,2.5,4.5c0.1,0.7-1.3,1.6-2.2,2.5c-1.1-1.2-2.3-2.3-3-3.8C134.6,110.4,136.2,109.2,137.5,107.5
			z"/>
	</g>
</g>
</svg>
