<?xml version="1.0" encoding="utf-8"?>
<!-- Generator: Adobe Illustrator 22.1.0, SVG Export Plug-In . SVG Version: 6.00 Build 0)  -->
<svg version="1.1" id="Capa_1" xmlns="http://www.w3.org/2000/svg" xmlns:xlink="http://www.w3.org/1999/xlink" x="0px" y="0px"
	 viewBox="0 0 512 512" style="enable-background:new 0 0 512 512;" xml:space="preserve">
<g>
	<g>
		<path d="M475.9,195.4c-15.7-48.4-67.9-75-116.3-59.2c-6.4,2.1-12.9,4.9-19.3,8.5c1.4-7.2,2.1-14.2,2.1-20.9
			c0-51.4-35.5-92.3-86.1-92.3c-50.7,0-88,41-88,92.3c0,6.7,0.7,13.8,2.1,20.9c-6.4-3.6-12.9-6.4-19.3-8.5
			C102.9,120.4,50.8,147,35.1,195.4c-15.9,49.1,11.2,103.7,59.2,119.4c6.4,2.1,13.3,3.6,20.6,4.4c-5.4,5-10.1,10.2-14,15.7
			c-29.9,41.2-20.7,99,20.4,128.9c41.1,29.9,94.6,20.9,124.6-20.4c4-5.4,7.5-11.6,10.6-18.2c3.1,6.6,6.6,12.8,10.6,18.2
			c30,41.4,81.7,50.2,122.7,20.4c41.2-29.9,50.3-87.7,20.4-128.9c-3.9-5.4-8.7-10.7-14-15.7c7.3-0.9,14.2-2.4,20.6-4.4
			C464.7,299.1,491.9,244.5,475.9,195.4z M256.4,57.8c34.6,0,59.8,27.7,59.8,65.9c0,17.2-6.7,38.4-18,56.7c-1.4,2.2-2,4.7-2,7.1
			l-13.7,23.8c-4.1-1.8-8.6-3.2-13.1-4.1v-54.1c0-7.3-5.7-13.2-13-13.2c-7.3,0-13.2,5.9-13.2,13.2v54.1c-4.6,0.9-9,2.4-13.2,4.2
			l-15.3-25.1c-0.2-2-0.8-4.1-1.9-5.9c-11.3-18.3-18-39.5-18-56.7C194.8,86.1,221.3,57.8,256.4,57.8z M102.4,289.7
			c-33.9-11-53.7-51.3-42.3-86.1c11.2-34.6,48.5-53.5,83.1-42.3c14.2,4.6,29.7,15,42.6,28.4l22.6,37.1c-3.6,3.8-6.7,8.1-9.4,12.7
			l-51.4-16.7c-6.9-2.3-14.4,1.5-16.6,8.5c-2.3,6.9,1.5,14.4,8.5,16.6l51.4,16.7c-0.6,5.3-0.6,10,0,15.1L158,291
			C138.3,295.1,117.8,294.7,102.4,289.7z M243.2,371.8c-1.7,21.3-8.7,42.2-18.7,56c-21.5,29.5-58.4,35.9-87.8,14.6
			c-29.4-21.4-35.9-62.7-14.6-92.1c17.5-24,47.8-34.9,50.1-36.4l27-9.4c2.4,4.2,5.3,8.2,8.6,11.8L176,360c-4.3,5.9-3,14.1,2.9,18.4
			c5.9,4.3,14.1,3,18.4-2.9l31.8-43.8c4.5,2,9.2,3.6,14.1,4.6L243.2,371.8L243.2,371.8z M256.4,311.3c-21.8,0-39.5-17.7-39.5-39.5
			c0-21.8,17.7-39.5,39.5-39.5c21.8,0,39.5,17.7,39.5,39.5C296,293.6,278.2,311.3,256.4,311.3z M374.2,442.4
			c-30.3,22-65.2,14-85.9-14.6c-10-13.8-17.2-34.7-18.9-56v-35.4c4.9-1,9.8-2.6,14.3-4.6l31.8,43.8c4.3,5.9,12.5,7.2,18.4,2.9
			c5.9-4.3,7.2-12.5,2.9-18.4L305,316.3c3.2-3.5,6.1-7.5,8.5-11.7l24.6,8.9c3,2.2,33,12.5,50.7,36.9
			C410.2,379.8,403.6,421.1,374.2,442.4z M353.9,291.2l-32.1-11.6c0.6-5.2,0.6-10,0-15.2l51.4-16.7c6.9-2.3,10.7-9.7,8.5-16.6
			c-2.3-6.9-9.7-10.7-16.6-8.5l-51.4,16.7c-2.7-4.7-5.9-9-9.5-12.9l21.8-37.7c12.8-13,27.9-23,41.8-27.6
			c34.6-11.2,71.8,7.8,83.1,42.3c11.3,34.9-8.4,75.1-42.3,86.1h0C393.5,294.6,373.4,295.1,353.9,291.2z"/>
	</g>
</g>
</svg>
