<?xml version="1.0" encoding="utf-8"?>
<!-- Generator: Adobe Illustrator 24.0.1, SVG Export Plug-In . SVG Version: 6.00 Build 0)  -->
<svg version="1.1" id="图层_1" xmlns="http://www.w3.org/2000/svg" xmlns:xlink="http://www.w3.org/1999/xlink" x="0px" y="0px"
	 viewBox="0 0 512 512" style="enable-background:new 0 0 512 512;" xml:space="preserve">
<style type="text/css">
	.st0{fill-rule:evenodd;clip-rule:evenodd;}
</style>
<g id="Icon">
	<path class="st0" d="M193,126.4c28.8-25.4,66.7-40.9,108.2-40.9c90.3,0,163.7,73.3,163.7,163.7s-73.3,163.7-163.7,163.7
		c-41.5,0-79.3-15.5-108.2-40.9c-7-6.2-17.7-5.5-23.9,1.5c-6.2,7-5.5,17.7,1.5,23.9c34.8,30.7,80.6,49.4,130.6,49.4
		c109,0,197.5-88.5,197.5-197.5S410.2,51.6,301.1,51.6c-50,0-95.8,18.6-130.6,49.4c-7,6.2-7.7,16.9-1.5,23.9
		C175.2,131.9,186,132.6,193,126.4L193,126.4z"/>
	<path class="st0" d="M275.2,149.8v90.3c0,4.5,1.8,8.8,5,12l72.2,72.2c6.6,6.6,17.3,6.6,23.9,0c6.6-6.6,6.6-17.3,0-23.9L309,233.1
		v-83.3c0-9.3-7.6-16.9-16.9-16.9C282.8,132.9,275.2,140.5,275.2,149.8L275.2,149.8z"/>
	<path class="st0" d="M30.3,187.1h135.4c9.3,0,16.9-7.6,16.9-16.9s-7.6-16.9-16.9-16.9H30.3c-9.3,0-16.9,7.6-16.9,16.9
		S20.9,187.1,30.3,187.1z"/>
	<path class="st0" d="M52.8,266.1h135.4c9.3,0,16.9-7.6,16.9-16.9s-7.6-16.9-16.9-16.9H52.8c-9.3,0-16.9,7.6-16.9,16.9
		S43.5,266.1,52.8,266.1z"/>
	<path class="st0" d="M75.4,345.1h135.4c9.3,0,16.9-7.6,16.9-16.9c0-9.3-7.6-16.9-16.9-16.9H75.4c-9.3,0-16.9,7.6-16.9,16.9
		C58.5,337.5,66.1,345.1,75.4,345.1z"/>
</g>
</svg>
