<?xml version="1.0" encoding="utf-8"?>
<!-- Generator: Adobe Illustrator 27.0.1, SVG Export Plug-In . SVG Version: 6.00 Build 0)  -->
<svg version="1.1" id="图层_1" xmlns="http://www.w3.org/2000/svg" xmlns:xlink="http://www.w3.org/1999/xlink" x="0px" y="0px"
	 viewBox="0 0 256 256" style="enable-background:new 0 0 256 256;" xml:space="preserve">
<g>
	<g>
		<path d="M241.9,182.1c-0.4-0.2-0.8-0.3-1.1-0.5c-11.2-6.6-23.1-11.2-35.8-13.9c-1.1-0.2-2.3-0.3-3.4-0.3c-7.6,0.2-15.1,1-22.5,2.5
			c-13.3,2.7-25.9,7.1-38,13.1c-12.7,6.3-24.4,14.2-35.2,23.5c-16.4,14-30.1,30.3-41.9,48.3c-0.1,0.1-0.1,0.3-0.2,0.4
			c-0.2,0.3-0.5,0.5-0.7,0.8c0.1-0.4,0.1-0.7,0.2-1.1c2.5-8.3,6.3-16,10.5-23.6c3.8-6.9,7.9-13.6,12.1-20.3
			c5.4-8.5,10.9-17,16.7-25.3c6.2-9,13.1-17.4,20.1-25.8c2.7-3.2,4.6-7.1,6.4-10.8c2-4,3.6-8.2,5.3-12.4c2.2-5.6,3.8-11.3,4.2-17.3
			c0.4-6.1,0.9-12.3,1.2-18.4c0.1-1.8-0.2-3.7-0.6-5.5c-0.5-2.3-0.2-4.3,0.9-6.3c2.9-5.1,4.7-10.7,6.2-16.3c1.7-6.2,2.8-12.6,3-19.1
			c0.2-5.9-1.3-11.3-3.5-16.7c-0.2-0.4-0.2-0.9-0.2-1.3c0.4,0.1,0.9,0.2,1.3,0.4c8.8,4.1,16.5,9.9,23.7,16.3
			C176,57.4,181,62.8,185,68.9c3,4.5,5.6,9.2,8.4,13.7c0.4,0.6,0.9,1.3,1.3,1.8c11.3,13.6,22.9,27,35.3,39.7l0,0
			c-3.1-0.6-6.3-1-9.4-1.9c-4.5-1.2-8.8-2.8-13.2-4.2c-0.3-0.1-0.7-0.1-1.1-0.2c0.1,0.3,0.2,0.7,0.5,1c5,7.2,11.1,13.4,17.8,19
			c3.6,3.1,7.5,5.9,11.2,8.9c0.3,0.2,0.5,0.5,0.8,0.7c-0.4,0.1-0.8,0.3-1.1,0.4c-5.3,0.5-10.6,0.4-15.8-0.9
			c-0.5-0.1-1.1-0.1-1.6-0.2c0.1,0.5,0.2,1.1,0.4,1.6c2.6,7,6.4,13.3,10.9,19.1c3.4,4.4,7.2,8.5,10.8,12.8
			C240.8,180.9,241.3,181.5,241.9,182.1L241.9,182.1z"/>
		<path d="M126.2,92.7c-0.1,0.5-0.2,1.2-0.5,1.8c-1.6,2.5-3,5-4.8,7.3c-5.3,6.7-12.3,11.3-19.5,15.6c-6.1,3.7-12.5,6.9-19.4,9
			c-3.5,1.1-6.7,2.7-10.1,4.1c-1.6,0.6-3.2,1.2-4.8,1.8c-0.9,0.4-1.6,0.3-2.3-0.6c-5-6.7-11.5-11.6-18.3-16.3
			c-3.8-2.6-8.1-3.3-12.4-4c-0.7-0.1-1.5,0.1-2.3,0.1c-0.4,0-0.8-0.1-1.2-0.1c0.2-0.3,0.4-0.7,0.7-1c2.2-2,4.4-3.9,6.5-5.9
			c2.8-2.7,5.6-5.5,8.2-8.4c4.9-5.3,9.8-10.6,14.7-16c3.4-3.7,5.5-8.1,7.1-12.8c0.9-2.7,2.5-4.6,5-5.9c3.9-2,7.8-4.2,11.7-6.2
			c0.6-0.3,1.5-0.5,2.2-0.5c2.5,0.1,5,0.1,7.5,0.4c1.1,0.1,2.2,0.7,3.1,1.2c4.6,2.8,9.4,5.3,13.7,8.5c2.5,1.9,4.4,4.8,6.2,7.5
			c2.1,3.3,4,6.8,5.6,10.3c1.3,2.8,2.1,5.8,3,8.7C126,91.9,126.1,92.2,126.2,92.7z M78.5,88c2.9-0.4,5.8-0.7,8.7-1.2
			c0.5-0.1,1-0.6,1.4-1.1c1.1-1.4,2.1-2.8,3.1-4.2c0.3-0.5,0.7-1.3,0.5-1.6c-0.5-0.8-1.2-1.5-2.5-1.1c-2.4,0.9-4.9,1.6-7.4,2.5
			c-0.5,0.2-1.1,0.4-1.4,0.8c-1.1,1.5-2.2,3-3.2,4.5C77.2,87.4,77.6,88,78.5,88z"/>
		<path d="M13.9,150c0.4-2.7,0.7-5.3,1.2-8c0.7-3.5,1-6.9,0.6-10.4c-0.3-2.7,0.3-5.2,2.4-7.2c0.9-0.9,1.9-1.7,2.7-2.7
			c1.7-2.2,4.1-2.6,6.7-2.9c6.5-0.5,12.1,1.9,17.2,5.7c2.1,1.6,4.2,3,6.2,4.7c1,0.8,1.7,1.8,2.5,2.8c1.2,1.5,2.2,3.2,3.6,4.6
			c2.4,2.5,3.6,5.7,4.9,8.7c1.7,3.7,3,7.6,4.6,11.4c0.4,1,0.1,1.6-0.4,2.5c-1,1.5-1.9,3.2-2.9,4.7c-3.2,5.1-7.7,8.5-13.4,10
			c-2.8,0.7-5.7,1.3-8.7,0.5c-2.3-0.6-3.1-2.5-1.7-4.3c1.3-1.6,2.8-3.1,4.2-4.6c0.4-0.4,0.9-0.7,1.1-1.1c0.3-0.7,0.4-1.6,0.5-2.4
			c-0.6,0-1.3-0.1-1.9,0c-2.6,0.4-5.2,0.9-7.8,1.5c-2.3,0.5-4.1,1.9-5,4c-1.2,2.9-4.6,3.7-7,0.9c-3.1-3.6-5.5-7.5-8-11.5
			C14.2,154.9,14,152.5,13.9,150z"/>
		<path d="M139.8,50c0.1,8.1-0.7,14-2.7,19.7c-0.9,2.5-1.5,5.2-2.4,7.7c-0.2,0.7-0.7,1.4-1.1,2.1c-0.5-0.6-1.1-1.1-1.5-1.7
			c-2.7-4.1-5.2-8.3-7.9-12.2c-1.2-1.7-2.9-3-4.4-4.4c-3.5-3.3-6.9-7-11.3-9.2c-4.8-2.3-9.2-5.4-14.8-5.8c-1.3-0.1-2-1.6-1.1-2.9
			c1.2-1.7,1.3-3.1,0.6-4.9c-0.1-0.3,0.5-1.2,1-1.4c3.5-1.2,7-2.3,10.5-3.3c2-0.6,4.1-1.1,6.1-1.9c0.6-0.2,1.4-1,1.5-1.6
			c0.4-3.5,0.9-7,0.8-10.6c-0.1-6.2-0.7-12.4-1-18.6c0-0.3,0.1-0.7,0.2-1c0.3,0.2,0.6,0.3,0.8,0.5c7.4,7.6,14.5,15.3,18.7,25.2
			c0.5,1.1,0.8,2.2,1.1,3.4c0.5,2,1.8,3.5,3,5.1c0.6,0.8,1.3,1.6,1.5,2.5C138.7,41.8,139.9,46.9,139.8,50z"/>
		<path d="M130.5,111c0,4.8-1,9.4-2.2,14c-0.8,2.8-1.2,5.7-2.1,8.5c-1,3-2.2,5.9-3.6,8.8c-1.6,3.5-3.2,7.1-5.4,10.2
			c-2,2.9-4.6,5.4-7.3,7.7c-2.2,1.8-5.2,1.9-7.9,1.5c-2.8-0.4-5.6-1.3-8.2-2.3c-3.4-1.4-6.6-3.1-9.9-4.7c-2.2-1.1-4.6-1.2-7-1
			c-2,0.2-2,0.2-2.5-1.7c-0.6-2.2-1.1-4.4-1.8-6.6c-0.6-1.6-1.4-3.1-2.2-4.5c-0.8-1.4-0.8-1.6,0.7-2.1c4.9-1.7,9.8-3.3,14.5-5.2
			c7.9-3.1,15.8-6.2,23.4-9.7c4.3-2,8.3-4.9,11.7-8.4c2.8-2.9,5.5-5.9,8.1-8.8c0.8-0.9,1.2-0.3,1.3,0.3
			C130.3,108.2,130.4,109.6,130.5,111z"/>
		<path d="M230,124.1L230,124.1C229.9,124.2,230,124.1,230,124.1C230,124.1,230,124.1,230,124.1z"/>
		<path d="M241.8,182.1c0.1,0.1,0.1,0.2,0.2,0.3l0,0C242,182.3,241.9,182.2,241.8,182.1C241.9,182.1,241.8,182.1,241.8,182.1z"/>
		<polygon points="242,182.4 242.1,182.5 242,182.5 		"/>
	</g>
</g>
</svg>
