<?xml version="1.0" encoding="utf-8"?>
<!-- Generator: Adobe Illustrator 22.1.0, SVG Export Plug-In . SVG Version: 6.00 Build 0)  -->
<svg version="1.1" id="图层_1" xmlns="http://www.w3.org/2000/svg" xmlns:xlink="http://www.w3.org/1999/xlink" x="0px" y="0px"
	 viewBox="0 0 242.5 276" style="enable-background:new 0 0 242.5 276;" xml:space="preserve">
<title>icons</title>
<path d="M120.3,262c-1.9-1.4-3.8-3-5.5-4.7c-34.7-39.6-69.4-79.2-104-118.8c-3.2-3.7-3.5-6.2-1.3-10.6c9.7-19.5,19.5-39,29.2-58.5
	c1.9-3.8,4.6-5.4,8.9-5.4c49.7,0.1,99.3,0.1,149,0c4.6,0,7.5,1.8,9.6,5.9c9.5,19.2,19.1,38.2,28.7,57.4c2.6,5.3,2.3,7.5-1.5,11.9
	c-34.7,39.6-69.3,79.2-104,118.8c-1.5,1.5-3.2,2.9-5,4.1L120.3,262z M122,231.9h0.6l34.3-91.6H87.6C99.2,171,110.6,201.4,122,231.9z
	 M144.6,216.5l0.5,0.2l67-76.6c-12.6,0-24.6,0-36.5,0c-1.5-0.2-2.9,0.7-3.2,2.2c-6,16.2-12.1,32.4-18.2,48.6
	C151,199.5,147.8,208,144.6,216.5L144.6,216.5z M32.4,140.1l67.1,76.7c-0.8-3.3-1.8-6.6-3.1-9.7c-8.1-21.6-16.2-43.2-24.3-64.7
	c-0.4-1-0.4-2.2-2.2-2.2C57.7,140.2,45.4,140.1,32.4,140.1z M152.6,124.8c-10.2-13.6-20.2-26.9-30.4-40.5l-30.4,40.5H152.6z
	 M77.9,118.1l29-38.7H58.6L77.9,118.1z M166.7,118.1L186,79.3h-48.4C147.4,92.4,157,105.1,166.7,118.1L166.7,118.1z M46.1,88.6
	l-18,36.1h36.1L46.1,88.6z M180.4,124.7h36.1l-18-36.1C192.3,101,186.4,112.7,180.4,124.7L180.4,124.7z"/>
<path d="M124.4,2c4.4,2,5.8,5.5,5.7,10.2c-0.3,6.4,0,12.8-0.1,19.3c0,5.2-3.1,8.6-7.6,8.6s-7.6-3.4-7.6-8.6c0-6.4,0.2-12.8-0.1-19.3
	c-0.2-4.7,1.3-8.2,5.7-10.2L124.4,2z"/>
<path d="M99.9,39.8c-0.4,3.2-2.2,6.1-5,7.3c-2.9,1.4-6.3,0.7-8.4-1.6c-3.6-3.4-7.1-7-10.6-10.6c-1.6-1.6-3.3-3.2-4.8-4.9
	c-2.8-3-2.8-7.7,0.2-10.5c2.8-2.9,7.4-3,10.4-0.2c0,0,0.1,0.1,0.1,0.1c5.3,5.1,10.5,10.3,15.6,15.6C98.5,36.2,99,38.1,99.9,39.8z"/>
<path d="M153.5,47.8c-3.8-0.3-6.1-1.6-7.5-4.3c-1.4-2.7-1.3-5.7,0.8-7.8c5.4-5.7,10.9-11.3,16.7-16.7c2.8-2.6,7.2-2.1,9.9,0.5
	c2.7,2.7,3.3,7.1,0.7,9.9c-5.3,5.7-11,11.2-16.6,16.7C156.2,47.1,154.4,47.4,153.5,47.8z"/>
</svg>
