<?xml version="1.0" encoding="utf-8"?>
<!-- Generator: Adobe Illustrator 22.1.0, SVG Export Plug-In . SVG Version: 6.00 Build 0)  -->
<svg version="1.1" id="图层_1" xmlns="http://www.w3.org/2000/svg" xmlns:xlink="http://www.w3.org/1999/xlink" x="0px" y="0px"
	 viewBox="0 0 256 256" style="enable-background:new 0 0 256 256;" xml:space="preserve">
<g>
	<g>
		<path d="M13,159.3c0.7-0.6,1.5-1.1,2.1-1.8c14.6-15.6,30.8-29.1,49.3-39.6c6.5-3.7,13.3-6.7,20.2-9.8c-15.2,13.9-24,30.9-24,51.6
			c0,20.8,8.7,37.8,24,51.8c-3.3-1.4-6.7-2.8-9.9-4.4c-16-7.7-30.5-17.7-43.7-29.6c-5.6-5-10.8-10.5-16.3-15.8
			c-0.6-0.5-1.2-1-1.8-1.5C13,159.9,13,159.6,13,159.3z"/>
		<path d="M243,160.2c-0.7,0.6-1.5,1.1-2.1,1.8c-14.6,15.6-30.7,29.1-49.3,39.6c-6.5,3.7-13.3,6.7-20.2,9.8
			c15.2-13.9,24-30.9,24-51.6c0-20.8-8.7-37.8-24-51.8c3.3,1.4,6.7,2.8,9.9,4.4c16,7.7,30.5,17.7,43.7,29.6
			c5.6,5,10.8,10.5,16.3,15.8c0.6,0.5,1.2,1,1.8,1.5C243,159.6,243,159.9,243,160.2z"/>
		<path d="M128.1,213.7c-29.6,0.1-53.8-24-54-53.8c-0.2-29.7,24.2-54.1,53.9-54c29.7,0,53.8,24.2,53.9,53.9
			C181.9,189.3,157.8,213.6,128.1,213.7z M128.1,193.4c18.5,0,33.7-15.3,33.6-33.8c-0.1-18.5-15.2-33.5-33.6-33.6
			c-18.5,0-33.7,15.1-33.7,33.7C94.3,178.3,109.5,193.5,128.1,193.4z"/>
		<path d="M50.5,97.9c-2.3,3.9-4.4,7.7-6.7,11.7c-9.9-5.6-19.6-11.2-29.6-16.8c2.3-3.9,4.5-7.7,6.7-11.7
			C30.8,86.7,40.6,92.3,50.5,97.9z"/>
		<path d="M235.1,81.1c2.2,3.9,4.4,7.6,6.7,11.7c-9.8,5.6-19.6,11.2-29.6,16.8c-2.2-3.9-4.4-7.7-6.8-11.7
			C215.4,92.3,225.2,86.7,235.1,81.1z"/>
		<path d="M134.6,78.8c-4.5,0-8.8,0-13.2,0c0-11.1,0-22.2,0-33.4c4.3,0,8.7,0,13.2,0C134.6,56.4,134.6,67.5,134.6,78.8z"/>
		<path d="M73.1,53.8c5.6,9.7,11.2,19.3,16.8,29.2c-3.9,2.3-7.7,4.5-11.7,6.7C72.7,80,67.1,70.4,61.4,60.5
			C65.3,58.3,69.1,56.1,73.1,53.8z"/>
		<path d="M182.9,53.8c4,2.3,7.7,4.5,11.7,6.7c-2.9,5-5.6,9.8-8.4,14.6c-2.8,4.8-5.5,9.6-8.4,14.6c-3.9-2.2-7.7-4.4-11.7-6.7
			C171.7,73.3,177.2,63.6,182.9,53.8z"/>
		<path d="M107.8,159.4c0.3-11.1,9.6-20.1,20.5-19.9c11.2,0.3,20.3,9.7,19.9,20.6c-0.4,11.2-9.7,20.1-20.6,19.8
			C116.4,179.6,107.5,170.3,107.8,159.4z M134.6,166.4c0-4.5,0-8.9,0-13.2c-4.5,0-8.9,0-13.2,0c0,4.5,0,8.8,0,13.2
			C125.8,166.4,130.1,166.4,134.6,166.4z"/>
	</g>
</g>
</svg>
