<svg id="图层_1" data-name="图层 1" xmlns="http://www.w3.org/2000/svg" viewBox="0 0 258.56 329.07"><title>item_plan</title><path d="M-50.79,215.07c-3.24-1-6.62-1.7-9.69-3.1-12-5.48-18.66-14.55-18.65-28.11q0-110.7,0-221.41A33.09,33.09,0,0,1-46.26-70.93c9.73-.18,19.47,0,29.75,0V-81.89c0-6,2.15-8.38,8.25-8.53,6.85-.17,13.71-.1,20.56,0a3.17,3.17,0,0,0,3.45-2c6.74-14.3,18.11-21.61,33.9-21.49s27.62,6.62,34.27,21.46a4.08,4.08,0,0,0,3,2c6.43.18,12.86,0,19.28.12a22.12,22.12,0,0,1,5.4.56c3.67,1,5.11,3,5.17,6.73,0,3.94,0,7.89,0,12.2,3.79,0,7.3,0,10.8,0,8,.15,16.12-.3,24,.68,15.65,2,27.73,16,27.74,31.78q.1,111.82,0,223.66c0,14.42-10.81,26.38-25.89,29.25-.81.15-1.61.44-2.41.67ZM-16.51-54.85a6.26,6.26,0,0,0-1.16-.37c-8.79,0-17.57-.08-26.35-.06-12.44,0-19.51,7.11-19.51,19.53q0,109.09,0,218.18c0,.86,0,1.72,0,2.57a13.18,13.18,0,0,0,6.14,11.05c3.78,2.56,8,3.38,12.5,3.38q94.95,0,189.91,0a34.08,34.08,0,0,0,5.43-.43c8.54-1.44,13.37-7.14,13.37-15.75V-36.56c0-11.16-7.24-18.56-18.4-18.71-6.53-.09-13.07,0-19.6,0h-9c0,5.87,0,11.41,0,16.95,0,7.33-3,10.45-10.24,10.46H-6.56c-7,0-9.93-3-9.94-10C-16.52-43.53-16.51-49.19-16.51-54.85Zm117.42-20c-6.7,0-13.11,0-19.51,0-6.65,0-9-1.75-10.76-8.16-2.89-10.29-12.3-17.12-22.55-16.36C38.79-98.69,31-92,28.3-82.26c-1.5,5.35-4.17,7.38-9.73,7.4-2,0-4.08,0-6.11,0H-.49V-43.7h101.4Z" transform="translate(79.13 114)"/><path d="M87.32,15.22q22,0,44,0c4.52,0,7.62,2.12,8.65,5.74a7.71,7.71,0,0,1-6,9.69,23.08,23.08,0,0,1-4.16.26q-42.37,0-84.76,0a27.55,27.55,0,0,1-3.52-.14A7.56,7.56,0,0,1,34.57,23a7.61,7.61,0,0,1,7.17-7.65c2.76-.22,5.56-.08,8.34-.08Z" transform="translate(79.13 114)"/><path d="M87.6,140.58c14.24,0,28.47,0,42.71,0a16.63,16.63,0,0,1,4.73.58,7.73,7.73,0,0,1-.75,14.79,17.43,17.43,0,0,1-3.82.37q-43.18,0-86.36,0a14.13,14.13,0,0,1-5-.83,7.56,7.56,0,0,1-4.39-8.71,7.75,7.75,0,0,1,7.63-6.15c4.59-.14,9.2,0,13.8,0Z" transform="translate(79.13 114)"/><path d="M87.47,78c14.66,0,29.32,0,44,0,4.86,0,8,2.45,8.66,6.44a7.78,7.78,0,0,1-7.25,9.1c-1.71.13-3.43,0-5.14,0H43.61c-5.47,0-8.85-2.82-9-7.43-.19-4.8,3-8.1,8.26-8.15,10.49-.08,21,0,31.47,0Z" transform="translate(79.13 114)"/><path d="M-15.77,84.31C-8,76.89-.22,69.4,7.67,62A13.07,13.07,0,0,1,12.75,59a7.69,7.69,0,0,1,8.64,4c1.76,3.19,1.27,6.45-1.7,9.3C10.9,80.72,2,89.09-6.82,97.48c-1.39,1.33-2.74,2.72-4.22,3.93-3.37,2.76-7.35,2.72-10.43-.33q-8.19-8.13-16.13-16.53a8,8,0,0,1,0-11.3c3.13-3,7.67-2.74,11.19.69,1.76,1.72,3.4,3.56,5.16,5.28S-17.79,82.43-15.77,84.31Z" transform="translate(79.13 114)"/><path d="M-15.78,21.61q12-11.43,24-22.8c3.28-3.1,6.57-3.66,9.89-1.81,4.74,2.65,5.86,8.4,2,12.17q-15.42,15-31.2,29.58c-3.19,3-7.25,2.69-10.36-.41q-8-7.92-15.7-16.06c-3.5-3.68-3.54-8.69-.31-11.76s7.89-2.53,11.43,1c3.25,3.26,6.43,6.57,9.65,9.86C-16.37,21.46-16.24,21.47-15.78,21.61Z" transform="translate(79.13 114)"/><path d="M-15.51,146.74C-7.75,139.35.28,131.67,8.35,124c3.46-3.27,7.33-3.58,10.72-1,3.93,3,4.61,8,1.06,11.45q-15.42,15-31.19,29.59c-3.3,3.07-7.36,2.75-10.6-.49q-7.82-7.85-15.48-15.83c-3.52-3.69-3.63-8.66-.46-11.78s7.93-2.55,11.69,1.08C-22.61,140.25-19.19,143.32-15.51,146.74Z" transform="translate(79.13 114)"/></svg>