<svg id="Layer_1" enable-background="new 0 0 509.6 509.6" viewBox="0 0 509.6 509.6" xmlns="http://www.w3.org/2000/svg"><path d="m496.584 212.319c-2.688-3.187-4.53-5.879-5.797-8.477-2.711-5.556-3.75-12.971-4.85-20.821-1.746-12.456-3.725-26.574-13.182-38.375-9.43-11.765-22.736-16.714-34.477-21.081-7.406-2.754-14.401-5.356-19.189-9.193-4.813-3.857-8.898-10.143-13.224-16.797-6.861-10.557-14.638-22.521-28.251-29.165-13.75-6.709-28.169-5.588-40.892-4.601-8.007.623-15.573 1.21-21.736-.215-6.445-1.49-13.231-5.419-20.416-9.58-11.322-6.557-24.155-13.989-39.771-13.989s-28.449 7.432-39.771 13.989c-7.185 4.161-13.971 8.09-20.416 9.58-6.164 1.425-13.728.837-21.736.215-12.721-.987-27.141-2.109-40.892 4.601-13.613 6.643-21.39 18.607-28.251 29.164-4.325 6.654-8.41 12.939-13.224 16.797-4.788 3.836-11.783 6.438-19.189 9.193-11.74 4.366-25.047 9.316-34.477 21.081-9.457 11.801-11.436 25.918-13.182 38.375-1.1 7.85-2.139 15.265-4.851 20.824-1.266 2.595-3.107 5.288-5.797 8.475-10.561 12.522-14.82 27.698-12.313 43.887 2.755 17.79 13.97 29.094 23.432 36.954l64.325 53.442c-5.028 10.21-7.656 21.416-7.656 32.925 0 41.355 33.645 75 75 75h62.56l5.519 4.585c8.385 6.966 18.726 10.462 29.564 10.462 10.197 0 20.836-3.097 30.692-9.312.553-.348 1.082-.733 1.585-1.15l5.519-4.585h62.56c41.355 0 75-33.645 75-75 0-11.563-2.627-22.738-7.654-32.928l64.322-53.439c9.463-7.861 20.678-19.166 23.433-36.954 2.507-16.189-1.752-31.364-12.317-43.887zm-340.784 212.208c-24.813 0-45-20.187-45-45 0-4.376.64-8.678 1.875-12.804l69.575 57.804zm243-45c0 24.813-20.187 45-45 45h-26.451l69.581-57.809c1.232 4.118 1.87 8.417 1.87 12.809zm80.454-127.912c-.985 6.364-4.618 11.542-12.957 18.469l-112.145 93.171 76.451-97.472c5.112-6.519 3.973-15.947-2.546-21.06-6.518-5.114-15.947-3.972-21.06 2.545l-104.934 133.788 62.83-172.394c2.837-7.783-1.173-16.393-8.956-19.229-7.786-2.834-16.393 1.173-19.229 8.957l-66.949 183.697v-200.465c0-8.284-6.716-15-15-15s-15 6.716-15 15v202.451l-71.922-190.837c-2.92-7.751-11.569-11.668-19.326-8.746-7.752 2.921-11.668 11.574-8.746 19.326l66.532 176.534-117.754-148.156c-5.155-6.486-14.592-7.564-21.076-2.41-6.485 5.154-7.564 14.59-2.41 21.076l87.267 109.8-109.022-90.576c-8.338-6.926-11.971-12.104-12.956-18.468-1.172-7.57.659-14.096 5.598-19.949 4.329-5.13 7.453-9.793 9.832-14.67 4.797-9.833 6.284-20.447 7.597-29.811 1.385-9.878 2.58-18.41 6.882-23.777 4.245-5.298 12.253-8.276 21.524-11.724 8.874-3.301 18.932-7.042 27.491-13.901 8.578-6.874 14.442-15.897 19.617-23.858 5.425-8.346 10.109-15.554 16.254-18.552 3.628-1.771 8.022-2.32 13.001-2.32 3.82 0 7.984.323 12.41.667 9.453.735 20.163 1.567 30.816-.895 10.83-2.503 20.321-8 28.694-12.849 9.219-5.339 17.181-9.95 24.737-9.95 7.557 0 15.519 4.611 24.737 9.95 8.373 4.85 17.864 10.346 28.694 12.849 10.652 2.462 21.364 1.63 30.816.895 10.196-.792 19-1.475 25.411 1.653 6.145 2.998 10.829 10.206 16.254 18.552 5.175 7.961 11.039 16.984 19.617 23.858 8.56 6.859 18.617 10.6 27.491 13.901 9.271 3.448 17.279 6.426 21.524 11.724 4.302 5.368 5.497 13.899 6.882 23.777 1.313 9.364 2.8 19.978 7.596 29.809 2.38 4.881 5.505 9.543 9.832 14.671 4.942 5.854 6.773 12.38 5.601 19.949z"/></svg>