<svg id="Layer_1" enable-background="new 0 0 509.6 509.6" viewBox="0 0 509.6 509.6" xmlns="http://www.w3.org/2000/svg"><g><g><path d="m353.8 454.527h-198c-41.355 0-75-33.645-75-75s33.645-75 75-75h198c41.355 0 75 33.645 75 75s-33.644 75-75 75z" fill="#fdbf00"/></g><path d="m353.8 304.526h-99v150h99c41.355 0 75-33.645 75-75 0-41.354-33.644-75-75-75z" fill="#ff8856"/><g><path d="m223.879 459.112-199.748-165.952c-9.462-7.86-20.677-19.164-23.431-36.954-2.507-16.189 1.752-31.365 12.315-43.886 2.689-3.188 4.531-5.88 5.797-8.475 2.712-5.559 3.751-12.974 4.851-20.824 1.746-12.456 3.725-26.574 13.182-38.375 9.43-11.765 22.736-16.715 34.477-21.081 7.406-2.754 14.401-5.356 19.189-9.193 4.813-3.857 8.898-10.143 13.224-16.797 6.861-10.557 14.638-22.521 28.251-29.164 13.751-6.71 28.171-5.588 40.892-4.601 8.009.623 15.572 1.21 21.736-.215 6.445-1.49 13.231-5.419 20.416-9.58 11.322-6.557 24.155-13.989 39.771-13.989s28.449 7.432 39.771 13.989c7.185 4.161 13.971 8.09 20.416 9.58 6.163 1.425 13.729.837 21.736.215 12.723-.987 27.142-2.108 40.892 4.601 13.613 6.643 21.39 18.608 28.251 29.165 4.325 6.654 8.41 12.939 13.224 16.797 4.788 3.836 11.783 6.438 19.189 9.193 11.74 4.366 25.047 9.316 34.477 21.081 9.457 11.801 11.436 25.919 13.182 38.375 1.1 7.85 2.139 15.265 4.85 20.821 1.267 2.598 3.108 5.291 5.797 8.477 10.564 12.522 14.823 27.698 12.316 43.887-2.755 17.788-13.97 29.092-23.433 36.954 0 0-200.779 166.754-201.332 167.103-9.857 6.213-51.873 5.814-60.258-1.152z" fill="#ffde46"/></g><path d="m496.584 212.319c-2.688-3.187-4.53-5.879-5.797-8.477-2.711-5.556-3.75-12.971-4.85-20.821-1.746-12.456-3.725-26.574-13.182-38.375-9.43-11.765-22.736-16.714-34.477-21.081-7.406-2.754-14.401-5.356-19.189-9.193-4.813-3.857-8.898-10.143-13.224-16.797-6.861-10.557-14.638-22.521-28.251-29.165-13.75-6.709-28.169-5.588-40.892-4.601-8.007.623-15.573 1.21-21.736-.215-6.445-1.49-13.231-5.419-20.416-9.58-11.322-6.557-24.155-13.989-39.771-13.989v424.613c12.339.076 24.581-1.379 29.336-4.377.553-.348 201.332-167.103 201.332-167.103 9.463-7.861 20.678-19.166 23.433-36.954 2.508-16.187-1.751-31.362-12.316-43.885z" fill="#ffcd00"/><path d="m428.057 253.724c-6.518-5.113-15.947-3.972-21.06 2.545l-104.934 133.787 62.83-172.394c2.837-7.783-1.173-16.393-8.956-19.229-7.786-2.835-16.393 1.173-19.229 8.957l-66.949 183.697v-200.465c0-8.284-6.716-15-15-15s-15 6.716-15 15v202.451l-71.922-190.837c-2.92-7.751-11.569-11.667-19.326-8.746-7.752 2.921-11.668 11.574-8.746 19.326l66.532 176.534-117.754-148.156c-5.155-6.486-14.592-7.564-21.076-2.41-6.485 5.154-7.564 14.59-2.41 21.076l157.467 198.126 1.355 1.126c8.385 6.966 18.726 10.462 29.564 10.462 10.197 0 20.836-3.097 30.692-9.312.038-.024 1.014-.828 2.791-2.296l143.676-183.182c5.113-6.519 3.974-15.947-2.545-21.06z" fill="#ffeb95"/><path d="m428.057 253.724c-6.518-5.113-15.947-3.972-21.06 2.545l-104.934 133.787 62.83-172.394c2.837-7.783-1.173-16.393-8.956-19.229-7.786-2.835-16.393 1.173-19.229 8.957l-66.949 183.697v-200.465c0-8.27-6.693-14.975-14.958-14.998v293.924c9.781-.262 19.915-3.346 29.336-9.286.038-.024 1.014-.828 2.791-2.296l143.676-183.182c5.111-6.519 3.972-15.947-2.547-21.06z" fill="#ffe470"/></g></svg>