<?xml version="1.0" encoding="utf-8"?>
<!-- Generator: Adobe Illustrator 22.1.0, SVG Export Plug-In . SVG Version: 6.00 Build 0)  -->
<svg version="1.1" id="图层_1" xmlns="http://www.w3.org/2000/svg" xmlns:xlink="http://www.w3.org/1999/xlink" x="0px" y="0px"
	 viewBox="0 0 500 500" style="enable-background:new 0 0 500 500;" xml:space="preserve">
<path d="M154.8,60.1c2-0.4,38.1-0.6,108.2-0.6h19.3c40.7,0,66.8,0.3,78.5,0.9c7.4,0.4,12.3,1.9,14.9,4.4l0.9,0.9
	c2.1,2.3,3.6,5.1,4.4,8.1c0.8,2.7,1.2,7.3,1.2,13.7v11.5H260.7l-121.4-0.3V86.4c0-5.5,0.2-9.1,0.6-10.8c0.2-1.7,0.9-3.7,2.1-5.8
	C144.9,64.5,149.1,61.3,154.8,60.1z M165,121.6v-16.3h94.4h94.4v3.2c0,2.1-0.3,3.2-0.9,3.2c-0.9,0-31.5,4.4-92,13.1
	c-60.3,8.7-91.4,13.1-93.3,13.1h-2.5L165,121.6L165,121.6z M268.3,158.9l84.9-12.3l0.3,17.9l0.2,17.9l30.3,3.4
	c19.5,2.2,31.7,3.7,36.5,4.5c4.7,0.9,8.1,2.1,9.9,3.6c2.7,2.2,4.1,5.1,4.5,8.7c0.3,3.6-0.4,6.9-2.4,9.9c-1.9,3-4.5,4.8-7.9,5.5
	c-2,0.3-13.8-0.7-35.5-3.2c-21.3-2.5-32.6-3.8-33.8-3.8c-0.3,0-0.6,0.9-0.9,2.9c-0.2,2-0.3,6.7-0.4,14.3c-0.1,7.6-0.2,17.5-0.3,29.5
	c0,12.1-0.1,29.7-0.1,52.9v99.7h8.3c4.8,0,8.5,0.6,11,1.9c2.5,1.3,4.7,3.6,6.7,7c1,1.8,1.7,3.7,2,5.5c0.3,1.8,0.4,5.1,0.4,10V446
	l-121.4-0.2l-121.4-0.3l-0.3-7.9c-0.5-10.7,1.3-17.9,5.3-21.7c2.5-2.3,4.6-3.9,6.3-4.5c1.8-0.7,4.4-1,7.9-1h6.4v-16.3
	c0-10.8-0.4-16.3-1.4-16.3c-0.9,0-17.9,2.8-50.9,8.4c-33.1,5.6-50.3,8.4-51.8,8.4c-3.9,0-7.7-1.2-11.4-3.6c-3.7-2.4-6.5-5.4-8.4-9.1
	c-1.2-2.3-1.9-5.5-2-9.4s0.3-7.2,1.5-9.7c0.9-2.3,2.7-4.6,5.1-6.9c2.5-2.3,5-3.9,7.5-4.9c1.6-0.6,20.1-3.9,55.4-10.1
	c35.3-6.2,53.8-9.3,55.6-9.3c0.5,0,0.8-26.4,0.8-79.1v-79.1l9.3-1.3c1.5-0.3,6.3-0.9,14.6-2.1c8.2-1.2,20.7-3,37.1-5.3
	C242.5,162.7,256.6,160.6,268.3,158.9L268.3,158.9z M284.6,171.9c-4.5-0.9-10.3-1.5-17.3-1.5c-10.2,0.1-19.3,1.7-27.2,5.1
	s-15.5,8.6-22.8,15.9c-13.1,13.1-20.3,28.7-21.5,46.7c-0.6,8.3,0.3,16.4,2.4,24.2c2.2,7.8,5.5,14.8,9.9,20.9
	c4.4,6.1,9.6,11.6,15.7,16.5c6.1,4.9,12.9,8.5,20.1,10.9c7.3,2.4,14.9,3.8,23,4.2c8.1,0.4,16.1-0.9,24.3-3.8
	c9.3-3.2,17.7-8.1,25.1-14.9c7.4-6.8,12.9-14.5,16.8-23.1c3.9-8.6,6.2-17.8,6.9-27.7c0.8-9.9-0.9-19.5-4.7-28.8
	c-4.2-10.9-11-20.4-20.1-28.5C305.8,179.9,295.7,174.6,284.6,171.9L284.6,171.9z M305.4,220.3c2.8-1.5,6-2,9.5-1.2s6.2,2.4,7.9,5
	c1.1,1.6,1.7,4.1,1.7,7.5c0,2.2-0.2,3.9-0.6,4.9c-0.4,1-1.4,2.3-2.9,3.9c-1.5,1.5-2.7,2.4-3.7,2.9c-1,0.4-2.4,0.7-4.1,0.7
	c-2.8,0-5.3-0.5-7.5-1.5c-4-2.1-6.1-5.7-6.2-10.9C299.4,226.1,301.3,222.5,305.4,220.3z M224.2,222.1c2.1-0.9,3.7-1.4,4.7-1.4
	s2.6,0.4,4.8,1.4c5.3,2.1,8,6.1,8,11.7c0,1.9-0.3,3.4-0.7,4.5c-0.4,1.1-1.5,2.5-2.9,4.1c-1.6,1.8-2.9,2.8-3.9,3.3
	c-0.9,0.4-2.7,0.6-5.1,0.6c-2.5,0-4.2-0.2-5.1-0.6c-0.9-0.4-2.2-1.5-3.9-3.3c-1.5-1.6-2.4-3-2.9-4.1c-0.4-1.1-0.7-2.6-0.7-4.5
	C216.4,228.4,219,224.5,224.2,222.1z M289.1,248.2c1.1-1.9,1.8-2.8,2.1-2.9c0.3-0.1,0.4,0.3,0.5,1c0,0.1,0,0.3,0.1,0.4
	c0.3,2-0.6,4.5-2.7,7.5c-2.1,3-4.4,5.1-6.9,6.3c-8.7,4.2-16.2,2.7-22.5-4.5c-3.5-3.9-4.3-5.9-2.3-5.9c0.7,0,1,0.3,1,0.9
	c0,0.5,1.5,1.6,4.3,3.3c4.5,2.5,9.4,3.1,14.8,1.8C282.9,254.9,286.8,252.2,289.1,248.2z M311.1,250.6c1.9-1.3,4-1.8,6.3-1.5
	c2.3,0.3,4.4,1.3,6.1,3c3.3,3.3,3.8,7.2,1.5,11.7c-1.8,3.4-4.8,5-8.9,4.5c-4.2-0.5-7-2.7-8.5-6.4c-0.6-1.6-0.6-3.6,0.2-6
	C308.5,253.3,309.7,251.6,311.1,250.6z M222.6,257.4c2.7-2.7,5.7-3.7,9.1-2.9c3.3,0.8,5.6,2.9,6.8,6.6c1,3.2,0.7,6-1.2,8.5
	c-1.8,2.5-4.5,3.7-7.9,3.7c-2.4,0-4.2-0.3-5.3-0.9s-2.1-1.7-3-3.4C218.8,264.6,219.3,260.7,222.6,257.4z M96.3,212.2
	c2.8-1.2,5.4-1.7,7.9-1.4c2.7,0.3,12.2,1.4,28.1,3.1s24.3,2.6,25.1,2.6c0.9,0,1.4,5.1,1.4,15.2v15.2h-2.5c-2.2,0-11.9-1.3-29-3.8
	c-17.1-2.5-26.6-4.1-28.6-4.7c-3.1-1-5.5-2.7-7.4-5.1c-1.9-2.4-2.8-5.1-2.8-8C88.5,219.1,91,214.7,96.3,212.2z M360.6,293.5
	c0.3-0.8,1.1-1.1,2.4-0.9c4.1,0.9,19.5,3.8,46.5,8.8c23.5,4.4,37.5,7.3,42,8.7c4.5,1.4,8,3.8,10.3,7.1c1.4,2.1,2.1,5,2.3,8.7
	c0.2,3.7-0.3,6.8-1.5,9.1c-1.1,2.2-2.7,4.1-5,5.8c-2.2,1.7-4.5,2.7-6.8,3.1c-2.7,0.4-18.3-2.1-47-7.5l-43-8.1l-0.3-16.7
	C360.2,300.3,360.3,294.3,360.6,293.5L360.6,293.5z"/>
</svg>
