<svg id="图层_4" data-name="图层 4" xmlns="http://www.w3.org/2000/svg" viewBox="0 0 400 400"><path d="M193.09,101.23v.13c0,.26,0,.56-.05.89,0,.06,0,.13,0,.19,0,.31-.05.65-.09,1s-.08.8-.14,1.24c-.1.85-.24,1.79-.43,2.8s-.42,2.15-.73,3.3a40.28,40.28,0,0,1-2.16,6.27c-.3.67-.62,1.33-1,2a30.1,30.1,0,0,1-2.4,3.9c-.45.63-.94,1.25-1.45,1.85-.32.36-.65.71-1,1.07h33.22c-.33-.36-.67-.71-1-1.07-.52-.6-1-1.22-1.46-1.85a31.24,31.24,0,0,1-2.4-3.9c-.34-.66-.66-1.32-1-2a41.35,41.35,0,0,1-2.16-6.27c-.3-1.15-.54-2.26-.73-3.3s-.33-2-.43-2.8c0-.19-.05-.37-.07-.55,0-.34-.07-.67-.1-1-.15-1.63-.16-2.74-.16-3.07V81.73a30.58,30.58,0,0,1-14.32,0v18.35c0,.09,0,.24,0,.45S193.1,101,193.09,101.23Z"/><path d="M341.05,205.15c.18-.31.64-1.11,1.2-2.23.16-.32.33-.66.5-1,.26-.54.52-1.14.78-1.77.17-.43.34-.86.51-1.31a27.83,27.83,0,0,0,.87-2.81,21.16,21.16,0,0,0,.43-2.19c.06-.48.11-1,.13-1.44,0-.24,0-.48,0-.71a10.45,10.45,0,0,0-.1-1.39c0-.23-.07-.45-.12-.67a7.93,7.93,0,0,0-.4-1.28,6.3,6.3,0,0,0-1-1.7,6.14,6.14,0,0,0-.71-.73c-.09-.08-.2-.15-.29-.22l-.53-.41-.39-.21a5.79,5.79,0,0,0-.54-.31c-.14-.07-.3-.12-.45-.19s-.36-.16-.56-.23l-.5-.15-.58-.17-.54-.11-.61-.12-.56-.06-.63-.07-.58,0-.6,0h-.06l-.68,0-.59,0-.69.07-.6.07-.7.12-.59.1-.7.17-.59.14-.7.22-.55.17-.72.28-.51.2c-.26.11-.51.23-.77.36l-.4.19c-.38.19-.75.4-1.11.62-5.91,3.63-6.43,9.28-10.08,17A49.83,49.83,0,0,1,312.6,209a48.18,48.18,0,0,1-2.91,4.07c-.34.42-.67.83-1,1.23-.67.79-1.36,1.55-2,2.26a54.77,54.77,0,0,1-8,6.86c.41.31.79.64,1.16,1C309,223.88,331.62,221.23,341.05,205.15Z"/><path d="M55.22,193.81a21.16,21.16,0,0,0,.43,2.19c.24,1,.55,1.91.87,2.81.17.45.34.88.51,1.31.26.63.53,1.23.78,1.77.17.37.34.71.5,1,.56,1.12,1,1.92,1.21,2.23,9.24,15.77,31.19,18.62,40.67,19.18a14.36,14.36,0,0,1,1.4-1.16,54.26,54.26,0,0,1-7.67-6.65c-.68-.71-1.36-1.47-2-2.26-.34-.4-.67-.81-1-1.23-1-1.26-2-2.61-2.91-4.07a49.83,49.83,0,0,1-3.13-5.64c-3.65-7.68-4.17-13.33-10.08-17-.36-.22-.73-.43-1.11-.62l-.4-.19c-.26-.13-.51-.25-.77-.36L72,185l-.72-.28-.56-.17-.69-.22-.6-.14-.68-.17-.61-.1-.69-.12-.61-.07-.68-.07-.59,0-.68,0h-.06l-.59,0-.59,0-.62.07-.57.06-.6.12-.55.11-.57.17-.51.15-.55.23c-.16.07-.32.12-.46.19s-.36.2-.53.3-.27.14-.39.22-.36.27-.54.41-.2.14-.29.22a6.14,6.14,0,0,0-.71.73,6.57,6.57,0,0,0-1,1.7,7.93,7.93,0,0,0-.4,1.28c0,.22-.09.44-.12.67a10.45,10.45,0,0,0-.1,1.39c0,.23,0,.47,0,.71C55.11,192.85,55.16,193.33,55.22,193.81Z"/><path d="M100.85,251.93A5.21,5.21,0,0,1,97.19,255a4.89,4.89,0,0,1-.66.05h-.06l-.28,0H96l-.42-.07-.14,0q-.28-.06-.57-.15l-.11,0-.45-.17-.21-.1-.36-.16-.22-.13-.34-.18-.24-.15a3,3,0,0,1-.33-.21,1.88,1.88,0,0,1-.23-.16l-.33-.23-.24-.17-.33-.26-.23-.17-.34-.29-.21-.17-.37-.32-.19-.17-.42-.38-.12-.11c-1-1-2.06-2-3-2.95l-.14-.13-.34-.33-.2-.19-.31-.29-.22-.19-.29-.27-.23-.2-.28-.24-.24-.2L84,246l-.25-.19-.25-.19-.29-.2-.22-.15c-.15-.1-.3-.2-.45-.28l-.19-.1-.29-.15-.2-.09-.27-.11-.21-.07-.26-.08-.2,0-.26,0h-.4a2.4,2.4,0,0,0-.6.07,3.41,3.41,0,0,0-.48.18,3.15,3.15,0,0,0-1.14,1,5.26,5.26,0,0,0-.55,1,8.08,8.08,0,0,0-.43,1.26,30.11,30.11,0,0,0-.77,5.51l-.12,1.69c-.07,1.13-.14,2.24-.24,3.26,0,.51-.1,1-.17,1.46s-.15.89-.24,1.29c-.33,1.38-.84,2.32-1.7,2.47l-.24,0a.86.86,0,0,1-.17,0l-.25,0a1.82,1.82,0,0,1-.3-.11,1.42,1.42,0,0,1-.25-.12c-.1,0-.2-.12-.31-.19l-.25-.19-.31-.27-.25-.23-.33-.35-.24-.26-.34-.41-.23-.28-.36-.47-.21-.27-.42-.58-.14-.19-.61-.84-.49-.65c0-.08-.11-.14-.16-.21l-.37-.48c-.07-.09-.14-.16-.21-.24s-.21-.26-.32-.37l-.21-.22-.3-.3-.21-.17a2.55,2.55,0,0,0-.28-.21,2.25,2.25,0,0,0-.21-.12,1.51,1.51,0,0,0-.26-.12l-.2,0a1,1,0,0,0-.17,0l-.16,0h0c-1,.17-1.44,2-1.55,4.72,0,.43,0,.87,0,1.34s0,1,0,1.47,0,1,.05,1.57c0,.27,0,.54,0,.82s0,.59,0,.89c0,.84.1,1.71.16,2.6s.14,1.83.21,2.77c0,.31,0,.63.08,1l.15,1.91.06.64a20.16,20.16,0,0,1,4.56-.88q.78-.06,1.56-.06a21.2,21.2,0,0,1,11.71,3.6c5.51,3.58,9.29,9.09,12.9,14.49a255,255,0,0,1,26.78-6.07l2.87-.48a21.75,21.75,0,0,1,6.08-.95q4-.58,8.08-1.11c3-.37,6-.71,9-1l4.68-.46,5.64-65.95c-6.05,3.18-9,9.56-12.07,15.05q-.53.93-1.05,1.8a29.73,29.73,0,0,1-2.23,3.27c-.4.49-.81,1-1.24,1.4a11.18,11.18,0,0,1-4.32,2.77,10.52,10.52,0,0,1-1,.29c-.35.07-.72.14-1.1.18a11,11,0,0,1-1.14.06h-.79l-.54,0-.29,0-.69-.11-.13,0c-.27,0-.54-.12-.8-.19l-.24-.07-.55-.17-.29-.11a4.09,4.09,0,0,1-.49-.18l-.31-.12-.46-.21-.3-.14-.46-.22-.29-.15-.48-.26-.25-.15-.54-.31-.19-.11-.72-.46-.05,0-.66-.44-.21-.14-.5-.35-.23-.15-.49-.35-.21-.15-.57-.41-.05,0-.78-.56-.28-.2-.38-.27-.24-.17h0l-.16-.11-.26-.18-.65-.44-.22-.15-.43-.28-.27-.16c-.13-.08-.26-.17-.39-.24l-.28-.16c-.12-.08-.25-.15-.38-.22l-.28-.15-.38-.19-.27-.14-.41-.17-.25-.11-.45-.17-.21-.07c-.22-.08-.44-.14-.65-.2l-.1,0-.56-.11-.23,0-.43,0h-.64l-.53,0-.26,0a7.32,7.32,0,0,0-.79.15,7.54,7.54,0,0,0-4.53,3.68,16.07,16.07,0,0,0-.87,1.65c-.13.29-.25.59-.37.89a30.2,30.2,0,0,0-1,2.87c-.29,1-.56,2-.82,3,0,.22-.11.44-.17.66h0c-.11.45-.23.9-.34,1.34s-.18.65-.26,1c-.18.64-.36,1.27-.55,1.88s-.39,1.18-.61,1.73A13.73,13.73,0,0,1,100.85,251.93Z"/><path d="M268.31,241l-.68.11-.29,0-.54,0H266a11,11,0,0,1-1.14-.06c-.38,0-.75-.11-1.1-.18a10.52,10.52,0,0,1-1-.29,11.07,11.07,0,0,1-4.31-2.77,18.61,18.61,0,0,1-1.25-1.4,29.73,29.73,0,0,1-2.23-3.27c-.35-.58-.7-1.18-1-1.8-2.59-4.6-5.07-9.82-9.36-13.27l5.5,64.42,2.1.21c5.89.6,11.6,1.32,17.09,2.13a21.75,21.75,0,0,1,6.08.95l2.87.48A255,255,0,0,1,305,292.43c3.61-5.4,7.39-10.91,12.9-14.49a21.2,21.2,0,0,1,11.71-3.6q.78,0,1.56.06a20.16,20.16,0,0,1,4.56.88l.06-.64.15-1.91c.16-1.9.3-3.76.41-5.5q0-.89.09-1.71c0-.83.07-1.63.09-2.39,0-.51,0-1,0-1.47s0-.91,0-1.34c0-.63-.07-1.22-.13-1.75-.21-1.75-.65-2.84-1.42-3h0l-.16,0a1,1,0,0,0-.17,0l-.2,0a1.51,1.51,0,0,0-.26.12l-.21.11-.28.22-.21.17-.31.3-.2.21-.34.4-.18.22c-.14.16-.27.34-.41.52l-.13.16c-.43.57-.86,1.18-1.3,1.78l-.36.48-.22.3-.35.45-.24.29c-.11.13-.22.27-.33.39a3.2,3.2,0,0,1-.25.27c-.1.12-.21.24-.32.35l-.25.23-.31.27-.25.19c-.11.07-.21.14-.31.19a1.42,1.42,0,0,1-.25.12,1.82,1.82,0,0,1-.3.11l-.25,0a.86.86,0,0,1-.17,0l-.24,0c-1.11-.2-1.64-1.69-1.94-3.76-.07-.46-.12-.95-.17-1.46-.15-1.53-.23-3.26-.36-4.95,0-.57-.09-1.13-.14-1.68l-.09-.82a21.48,21.48,0,0,0-.37-2.31c0-.24-.11-.48-.17-.7a8.08,8.08,0,0,0-.43-1.26,4.69,4.69,0,0,0-.89-1.45,2.85,2.85,0,0,0-.8-.6,3.41,3.41,0,0,0-.48-.18,2.4,2.4,0,0,0-.6-.07h-.4l-.26,0-.2,0-.27.08-.19.06-.29.13-.18.07-.34.18-.14.07-.49.3a.24.24,0,0,1-.08.06l-.41.29-.18.14L316,246l-.21.17-.3.25-.22.19-.29.26-.23.21-.29.26-.24.22-.3.29-.22.21-.32.31c-.07.07-.15.14-.22.22l-.37.35c-.09.1-.19.19-.29.29l-.39.38-.32.31-.23.23-.54.52-.13.12-.42.39-.2.18-.35.32-.23.2-.32.29a2.43,2.43,0,0,0-.25.2l-.31.26-.25.19-.31.24-.25.19-.32.22-.25.17-.32.2-.24.15-.33.18-.23.13-.36.16-.21.1-.44.16-.12.05q-.28.09-.57.15l-.15,0L304,255h-.21l-.28,0h-.06a4.89,4.89,0,0,1-.66-.05,5.21,5.21,0,0,1-3.66-3.08,13.73,13.73,0,0,1-.7-1.54c-.22-.55-.42-1.13-.61-1.73s-.37-1.24-.55-1.88c-.08-.33-.17-.65-.26-1s-.23-.9-.35-1.36l-.16-.64c-.26-1-.53-2-.82-3a30.2,30.2,0,0,0-1-2.87c-.12-.3-.24-.6-.37-.89a16.07,16.07,0,0,0-.87-1.65,7.54,7.54,0,0,0-4.53-3.68,7.32,7.32,0,0,0-.79-.15l-.25,0-.54,0h-.63l-.45,0-.22,0q-.3,0-.6.12h-.05c-.22.06-.45.12-.67.2l-.16.06a5,5,0,0,0-.5.18l-.22.1-.44.19-.23.11-.43.22-.24.13-.44.25-.22.12-.47.29-.18.12-.6.38-.06,0-.69.47h0c-.78.54-1.58,1.12-2.38,1.7l-.16.11-.46.33-.28.2-.39.27-.35.24-.34.24-.45.29-.26.17-.69.44-.26.15-.46.28-.3.16-.44.24-.31.16-.44.22-.32.15-.45.19-.32.13c-.15.07-.31.12-.47.18l-.3.11-.55.17-.24.07c-.26.07-.53.14-.8.19Z"/><path d="M186.08,289.29a22.8,22.8,0,0,1,9.32,3.08,26.3,26.3,0,0,1,4.6,3.49,26.3,26.3,0,0,1,4.6-3.49,22.75,22.75,0,0,1,9.32-3.08c.82-.08,1.64-.13,2.46-.13h0a24.58,24.58,0,0,1,13.15,3.92c.49.3,1,.6,1.42.92l-.08-.85-1-12.07-5.58-65.26h0l-1-12.16-3.06-35.76H182.4l-3.12,36.45-1.05,12.31h0l-5.5,64.3-1,11.37a24.15,24.15,0,0,1,11.86-3.16C184.44,289.16,185.26,289.21,186.08,289.29Z"/><path d="M183.42,155.89h44.79a27.21,27.21,0,0,1-1.54-9c0-.25,0-.5,0-.76a27.16,27.16,0,0,1,1.52-8.25H174.84a27.16,27.16,0,0,1,1.52,8.25c0,.26,0,.51,0,.76a27.21,27.21,0,0,1-1.54,9Z"/><path d="M193.12,69.14a18.48,18.48,0,1,0-11.32-17A18.34,18.34,0,0,0,193.12,69.14Z"/><path d="M149.18,162.08a15.22,15.22,0,0,0,15.2-15.21c0-.25,0-.5,0-.76V146a15.41,15.41,0,0,0-.64-3.68,14.91,14.91,0,0,0-2.3-4.49,16.29,16.29,0,0,0-1.47-1.74,15.19,15.19,0,0,0-9.35-4.38c-.46,0-.93-.07-1.4-.07a15.21,15.21,0,0,0-14.52,10.68,15.36,15.36,0,0,0-.68,4.52,15.21,15.21,0,0,0,15.2,15.21Z"/><path d="M243.12,157.62a15.2,15.2,0,0,0,25.95-10.75,15.36,15.36,0,0,0-.68-4.52,15.13,15.13,0,0,0-26.74-4.49,14.6,14.6,0,0,0-2.94,8.23c0,.26,0,.52,0,.78a15.13,15.13,0,0,0,3,9A14.29,14.29,0,0,0,243.12,157.62Z"/><path d="M354.85,272.71c0,.37-.07.79-.12,1.24-.49,3.86-2.21,10.35-5.22,14.66a12.3,12.3,0,0,1-2.8,3h0a7,7,0,0,1-2.77,1.27,7.34,7.34,0,0,1-1,.1h0a6.19,6.19,0,0,1-.63-.05l-.19,0H342a5.72,5.72,0,0,1-.74-.19l-.22-.09a5.55,5.55,0,0,1-.56-.24,2.09,2.09,0,0,1-.29-.16c-.15-.08-.3-.16-.45-.26a3.37,3.37,0,0,1-.31-.21l-.42-.29-.32-.25-.4-.31-.34-.29-.43-.36-.55-.48-.37-.31-.43-.35-.35-.28-.43-.33-.36-.26-.21-.14h0l-.25-.16-.37-.24-.51-.27-.38-.2c-.18-.09-.37-.16-.56-.24l-.39-.15-.68-.19c-.12,0-.23-.07-.35-.09a7.6,7.6,0,0,0-1.11-.16l-.65,0h-.35c-.15,0-.31,0-.46,0l-.29,0-.43.07-.29.06-.41.1-.29.08-.41.14-.28.1-.41.18-.25.12-.45.23-.21.11-.64.39c-2.76,1.8-5.2,4.89-7.6,8.35h0c-1.51,2.19-3,4.52-4.57,6.76-.75,1.08-1.51,2.15-2.3,3.16l-.21.27c-.19.25-.39.49-.58.73a22.27,22.27,0,0,1-7.08,6.1,11.78,11.78,0,0,1-2,.79,11.19,11.19,0,0,1-2.18.4c-.31,0-.62,0-.92,0l-.25,0c-.21,0-.41,0-.62,0l-.7-.08-.61-.11c-.22,0-.45-.09-.67-.15l-.59-.18-.65-.23-.57-.23-.63-.3-.55-.28-.61-.36-.53-.33-.61-.41-.51-.38-.6-.45-.49-.41-.59-.5-.48-.42-.59-.54-.47-.44-.59-.58-.44-.44c-.21-.21-.41-.42-.62-.62l-.42-.43c-.23-.24-.47-.48-.7-.73l-.68-.7-.62-.64-.63-.65-.39-.4c-.34-.35-.69-.69-1-1l-.64-.61-.21-.19-.44-.4-.26-.23-.4-.35-.27-.23-.4-.31-.28-.23-.39-.29-.29-.21-.4-.29-.28-.18-.45-.29-.24-.14c-.22-.13-.43-.25-.65-.36l-.06,0c-.23-.12-.47-.23-.7-.33l-.25-.1-.48-.2h0l-.27-.09-.45-.14-.31-.08-.45-.11-.32-.06-.45-.07-.33,0-.48,0h-1.12a8.15,8.15,0,0,0-.83.1c-3.41.53-5.81,2.65-7.82,5.35-.4.55-.79,1.11-1.16,1.69s-.75,1.17-1.1,1.77l-1.07,1.82c-.53.92-1.06,1.83-1.61,2.71s-1.1,1.73-1.69,2.53c-.08.11-.17.21-.25.31q-.48.63-1,1.2a13.88,13.88,0,0,1-1.35,1.31,9.48,9.48,0,0,1-5,2.26,10.09,10.09,0,0,1-1.09.06h0a7.37,7.37,0,0,1-.82-.05h-.13q-.48-.06-1-.15l-.3-.08-.64-.16-.36-.13-.56-.2-.38-.17c-.18-.08-.35-.15-.52-.24l-.39-.2-.5-.28-.39-.23-.49-.32-.38-.26-.48-.34-.37-.28-.49-.38-.36-.3-.49-.41-.34-.3-.51-.46-.32-.29-.56-.52-.26-.25-.67-.64,0-.06h0l-.09-.08c-1.07-1-2.13-2.13-3.21-3.17l-.08-.08-.54-.52-.31-.29-.48-.44c-.12-.12-.25-.23-.38-.34l-.45-.41-.41-.35-.45-.37-.42-.35-.46-.35-.43-.33-.46-.32-.45-.31-.46-.29c-.15-.1-.31-.19-.47-.28l-.45-.26-.49-.26-.46-.22-.52-.22-.46-.19-.55-.18-.44-.14-.62-.15-.4-.1-.83-.12a1.81,1.81,0,0,1-.23,0c-.34,0-.69,0-1.05,0h0a9.57,9.57,0,0,0-1.18.07c-8.76.92-10.88,11-15.17,11.78-4.29-.74-6.41-10.86-15.17-11.78a9.57,9.57,0,0,0-1.18-.07h0c-.36,0-.71,0-1.06,0l-.18,0q-.44,0-.87.12l-.36.09-.67.16-.4.13a5.84,5.84,0,0,0-.59.2l-.42.16-.56.25-.41.2-.55.28-.4.23-.53.32-.4.25c-.17.12-.35.23-.52.36l-.38.27c-.18.13-.35.25-.52.39l-.37.29c-.18.13-.35.27-.52.42l-.35.29-.54.47c-.11.09-.22.18-.32.28l-.57.52-.28.25-.65.62L171,308l-.64.63h0L167.91,311l-.17.17-.48.46-.36.35-.43.41-.4.38-.42.38-.42.37-.41.36-.43.36-.41.34-.44.34c-.13.11-.27.21-.41.31l-.45.32-.4.28-.47.3-.41.24-.48.27-.4.21c-.17.09-.34.16-.51.24l-.39.17-.55.2-.37.13-.64.16-.3.08q-.48.09-1,.15h-.13a7.37,7.37,0,0,1-.82.05h0a10.09,10.09,0,0,1-1.09-.06,9.44,9.44,0,0,1-5-2.24l0,0a13.88,13.88,0,0,1-1.35-1.31c-.43-.48-.84-1-1.24-1.51-.59-.8-1.15-1.65-1.69-2.53s-1.08-1.79-1.61-2.71l-1.07-1.82c-.35-.6-.72-1.19-1.1-1.77s-.76-1.14-1.16-1.69c-2-2.7-4.41-4.82-7.82-5.35a8.15,8.15,0,0,0-.83-.1h-1.12l-.48,0-.32,0-.46.07-.32.06-.45.11-.31.08a4.11,4.11,0,0,0-.46.15l-.26.09h0l-.5.2-.22.09a13.7,13.7,0,0,0-1.42.74l-.22.13-.47.3-.26.18c-.15.09-.29.19-.43.29l-.27.2-.41.31-.27.21-.4.33-.27.22-.41.36-.24.21-.46.42-.2.18-.64.61c-.34.33-.69.67-1,1l-.39.4-.63.65-.57.58c-.26.28-.53.55-.79.82l-.63.66-.46.47-.58.58-.47.47-.57.55-.48.46-.57.52-.5.44-.57.49-.51.41-.58.45-.53.38-.59.4-.54.34-.61.35-.55.29-.63.3-.57.23c-.22.09-.43.16-.65.23l-.59.18c-.22.06-.45.11-.67.15l-.61.11-.7.08c-.21,0-.41,0-.62,0l-.25,0c-.31,0-.61,0-.92,0a11.19,11.19,0,0,1-2.18-.4,11.78,11.78,0,0,1-2-.79,22.27,22.27,0,0,1-7.08-6.1c-.19-.24-.39-.48-.58-.73l-.21-.27c-.79-1-1.55-2.08-2.3-3.16-1.56-2.24-3.06-4.57-4.57-6.76h0c-2.4-3.46-4.84-6.55-7.6-8.35l-.64-.39a1.51,1.51,0,0,0-.22-.11l-.44-.23-.25-.12-.41-.18-.28-.1-.4-.13-.3-.09-.4-.1-.3-.06-.43-.07-.29,0c-.15,0-.31,0-.46,0h-.35l-.65,0a7.6,7.6,0,0,0-1.11.16c-.12,0-.23.06-.35.09l-.68.19-.39.15c-.19.08-.38.15-.56.24l-.39.2-.5.27-.37.24-.25.16h0l-.21.14-.36.26-.43.33-.35.28-.43.35-.36.31-.57.48-.41.36-.36.29-.39.31-.33.25-.4.29c-.11.07-.21.15-.32.21s-.3.18-.45.26a2.09,2.09,0,0,1-.29.16c-.18.09-.37.17-.55.24l-.23.09a5.72,5.72,0,0,1-.74.19h-.07l-.19,0a6.19,6.19,0,0,1-.63.05H57a5.59,5.59,0,0,1-.89-.09h0a7,7,0,0,1-2.77-1.27h0a12.3,12.3,0,0,1-2.8-3c-3-4.31-4.73-10.8-5.22-14.66-.05-.45-.1-.87-.12-1.24l0-.06.14,1.31,3.49,32.66L50,318.06h.1c2.76,26.84,67.4,48.31,146.76,48.31h6.34c79.36,0,144-21.47,146.76-48.31h.1l1.22-11.44L354.74,274l.14-1.31Z"/></svg>