<?xml version="1.0" encoding="utf-8"?>
<!-- Generator: Adobe Illustrator 24.0.1, SVG Export Plug-In . SVG Version: 6.00 Build 0)  -->
<svg version="1.1" id="图层_1" xmlns="http://www.w3.org/2000/svg" xmlns:xlink="http://www.w3.org/1999/xlink" x="0px" y="0px"
	 viewBox="0 0 720 720" style="enable-background:new 0 0 720 720;" xml:space="preserve">
<g>
	<g>
		<path d="M360.2,689.8c-6.2-10.1-11.9-19.4-17.6-28.7c-9.6-15.7-19.3-31.2-28.5-47.1c-2.6-4.4-3.8-9.8-4.8-14.9
			c-3.7-18-6.9-36.2-10.6-54.2c-0.3-1.5-2.1-3.4-3.6-3.8c-38.1-10-69.9-30.1-95.3-60.2c-0.2-0.2-0.2-0.6-0.5-1.3
			c13.3-3.9,21.5-12.1,20.7-26.7c-0.6-10.4-6.5-17.5-16.1-21.3c-9.8-3.9-18.3-1.2-29.2,9.2c-0.9-1.9-1.8-3.7-2.5-5.5
			c-19.2-48.3-19.1-96.4,2-143.9c16.1-36.4,40.8-64.7,79.5-78.6c1.9-0.7,3.7-1.3,6.4-2.2c-23.3,22.7-35.2,50-39.9,80.7
			c-4.7,30.9,0.8,60.3,14.2,88.6c-9.6-7-17.6-15.5-22.9-25.9c-5.2-10.2-9.1-21.2-12.9-30.3c-2.8,19.6,4.4,60.8,26.6,92.5
			c22.5,32.2,52.9,52.5,91.2,61.4c1.5-5.2-1.5-8.8-4.1-11.8c-5.4-6.2-5.7-13.1-5.3-20.6c0.9-22.9,1.7-45.8,2.4-68.7
			c0.1-4.4,1.6-7.6,5.1-10.5c3.1-2.5,6.4-4.7,7.3-9.7c1.4-7.6-1.1-12.2-7-16.2c-1.4-1-2.6-3.5-2.6-5.3c0-8.6,0.4-17.3,0.9-25.9
			c0.2-3-0.6-4.9-2.9-6.8c-7.4-6.1-14.6-12.4-21.9-18.6c-5.6-4.7-5.5-4.8-1.7-12.1c-14.1,12-24.7,25.4-33,40.7
			c-0.4-0.1-0.8-0.3-1.2-0.4c0.3-2.5,0.6-5.1,1-7.6c5.3-29.5,17.1-56.1,36.7-79c1-1.1,1.8-3.8,1.2-4.6
			c-9.7-12.6-11.9-28.1-17.1-42.4c-2.2-6-3.9-12.2-5.9-18.3c-1.6-4.8-0.8-6.2,4.3-6.9c4.2-0.6,8.4-1.5,12.6-1.6c2.1,0,4.9,1,6.3,2.6
			c4,4.4,7.4,9.4,11.1,14c4.5,5.6,15.8,5,19.6-1c1.1-1.7,2.3-3.4,3.2-5.2c3.2-6.9,8.6-11,15.7-13.2c3.6-1.2,5.1-3.3,5-7.3
			c-0.3-28.6-0.1-57.2-0.5-85.8c-0.1-8.2-1.6-16.4-2.6-25.1c11.6,0,22.9,0,34.2,0c-0.9,14.3-2.4,28.7-2.7,43.1
			c-0.5,22-0.3,44-0.2,66c0,3.6,0.4,7.3,5,8.5c9.9,2.6,14.8,10.5,19.4,18.6c3.8,6.6,14.9,7.1,19.7,1.1c3.6-4.5,7.2-9.1,10.6-13.8
			c1.9-2.5,4-3.6,7.3-2.8c3.6,0.8,7.4,1.3,11.2,1.5c4.4,0.2,5.8,2.5,4.7,6.4c-2,7.1-4,14.1-6.4,21.1c-1.3,3.7-0.8,5.3,3.1,6.9
			c27.8,11.5,51.2,29,70.8,52.7c-13.9,3.8-21.9,12.2-21.1,26.7c0.5,10.2,6.1,17.5,15.6,21.1c11.7,4.5,21.1,0.2,29.6-9
			c0.9,2,1.7,3.6,2.4,5.2c22.8,58.2,18.3,114-14.4,167.5c-16.2,26.4-38.5,44.8-67.4,55.5c-1.7,0.6-3.4,1.1-4.9,1.6
			c22.1-22.4,34.5-49.4,39-80.1c4.5-30.9-0.6-60.4-14.2-88.6c9.9,6.8,17.7,15.6,23,26c5.2,10.2,9.1,21.1,12.9,30.2
			c5-62-38.4-129.5-100.4-148.4c1.1,2.8,1.7,5.2,2.9,7.2c4.2,6.4,8.5,12.8,13.1,19c2.4,3.2,2,5.4-1.1,7.9
			c-7.8,6.3-15.3,13-23.1,19.4c-3,2.4-4,5.1-3.7,9c0.6,8,1,16,0.7,24c-0.1,2.6-2.3,5.8-4.5,7.6c-6.6,5.6-7.9,15.8-1,21
			c6.9,5.2,8.6,11.6,8.8,19.4c0.5,22.5,1.5,44.9,1.9,67.3c0.1,4.5-1.3,9-2.1,13.7c22.5-13.4,40.5-32.1,53.6-55.7
			c0.4,0.2,0.7,0.3,1.1,0.5c-0.4,2.9-0.7,5.7-1.2,8.6c-5.8,30.6-18.4,58-39.5,81.2c-1.6,1.8-2.7,4.2-3.5,6.5
			c-0.3,0.9,0.3,3.2,0.9,3.4c7.3,2.7,4.6,8.6,3.8,13.2c-3.4,18.7-7.3,37.4-11,56c-2,10-3.7,20-5.7,29.9c-0.5,2.2-1.6,4.4-2.8,6.4
			c-14.7,24.5-29.5,48.9-44.3,73.4C362.3,687.2,361.5,688.1,360.2,689.8z"/>
		<path d="M282.2,636C250,617.4,218,599,186,580.5c-22.8-13.2-45.7-26.4-68.5-39.6c-23.9-13.7-35.8-34.3-35.8-61.9
			c0-79.2,0-158.4,0-237.7c0-27.4,11.7-48,35.4-61.6c62-35.8,124-71.6,186-107.4c1.3-0.8,2.7-1.5,4.6-2.5c0.3,2.4,0.8,4.5,0.8,6.6
			c0.3,12.1,0.4,24.2,0.6,36.3c0.1,3.9-1.7,5.3-5.3,3.9c-16.9-6.3-33.5-2.4-49.7,2.5c-9.8,3-16.8,10.7-20.4,20.2
			c-2.4,6.3-2.4,13.4-3.8,20.1c-0.3,1.5-2,3-3.4,3.8c-22.8,13.3-45.6,26.5-68.5,39.6c-23.9,13.6-35.6,34.2-35.6,61.5
			c0,63.8,0,127.6,0,191.4c0,27.3,11.8,47.9,35.6,61.6c35.3,20.3,70.4,40.7,105.7,60.9c3,1.7,4.4,3.7,5.1,7.2
			c2.1,11.9,4.5,23.7,7.4,35.5C277.4,626.1,280,630.8,282.2,636z"/>
		<path d="M412.2,117.2c0-15.3,0-30.3,0-46.1c2.1,1.1,3.6,1.8,5,2.6c60.8,35.1,121.5,70.3,182.4,105.2
			c24.8,14.2,36.9,35.1,36.8,63.7c-0.2,78.9-0.1,157.8-0.1,236.7c0,27.2-11.7,47.7-35.2,61.3c-52.8,30.5-105.5,60.9-158.3,91.4
			c-1.2,0.7-2.4,1.3-4.4,2.3c9.5-16,9.7-33.6,13.6-50.2c0.8-3.4,2.3-5.1,5.1-6.6c34.3-19.7,68.5-39.7,102.9-59.2
			c24.7-14,36.7-35,36.7-63.3c-0.1-63.2-0.1-126.4,0-189.6c0-27.9-11.8-48.8-36.2-62.7c-22.5-12.8-44.9-25.9-67.4-38.8
			c-2.4-1.4-3.5-2.5-3.2-5.7c1.6-14.4-7.9-32.6-21-38.2c-7.1-3-15.2-3.4-22.8-5.5c-11.2-3-21.7-0.4-32.2,3
			C413.6,117.6,413.1,117.3,412.2,117.2z"/>
	</g>
</g>
</svg>
