<?xml version="1.0" encoding="utf-8"?>
<!-- Generator: Adobe Illustrator 25.0.1, SVG Export Plug-In . SVG Version: 6.00 Build 0)  -->
<svg version="1.1" id="图层_1" xmlns="http://www.w3.org/2000/svg" xmlns:xlink="http://www.w3.org/1999/xlink" x="0px" y="0px"
	 viewBox="0 0 256 256" style="enable-background:new 0 0 256 256;" xml:space="preserve">
<g>
	<g>
		<g>
			<path d="M226.22,243.67h-55.22v9.4h55.22c14.81,0,26.85-12.05,26.85-26.85v-55.22h-9.4v55.22
				C243.67,235.84,235.84,243.67,226.22,243.67z"/>
			<path d="M226.22,256h-58.15v-15.27h58.15c8.01,0,14.52-6.51,14.52-14.52v-58.15H256v58.15C256,242.64,242.64,256,226.22,256z
				 M173.92,250.14h52.29c13.19,0,23.92-10.73,23.92-23.92v-52.29h-3.54v52.29c0,11.24-9.14,20.38-20.38,20.38h-52.29V250.14z"/>
		</g>
		<g>
			<path d="M12.33,226.22v-55.22h-9.4v55.22c0,14.81,12.05,26.85,26.85,26.85h55.22v-9.4H29.78
				C20.16,243.67,12.33,235.84,12.33,226.22z"/>
			<path d="M87.94,256H29.78C13.36,256,0,242.64,0,226.22v-58.15h15.27v58.15c0,8.01,6.51,14.52,14.52,14.52h58.16V256z
				 M5.86,173.92v52.29c0,13.19,10.73,23.92,23.92,23.92h52.29v-3.54H29.78c-11.24,0-20.38-9.14-20.38-20.38v-52.29H5.86z"/>
		</g>
		<g>
			<path d="M29.78,12.33h55.22v-9.4H29.78c-14.81,0-26.85,12.05-26.85,26.85v55.22h9.4V29.78C12.33,20.16,20.16,12.33,29.78,12.33z"
				/>
			<path d="M15.27,87.94H0V29.78C0,13.36,13.36,0,29.78,0h58.16v15.27H29.78c-8.01,0-14.52,6.51-14.52,14.52V87.94z M5.86,82.08H9.4
				V29.78C9.4,18.55,18.55,9.4,29.78,9.4h52.29V5.86H29.78c-13.19,0-23.92,10.73-23.92,23.92V82.08z"/>
		</g>
		<g>
			<path d="M243.67,29.78v55.22h9.4V29.78c0-14.81-12.05-26.85-26.85-26.85h-55.22v9.4h55.22
				C235.84,12.33,243.67,20.16,243.67,29.78z"/>
			<path d="M256,87.94h-15.27V29.78c0-8.01-6.51-14.52-14.52-14.52h-58.15V0h58.15C242.64,0,256,13.36,256,29.78V87.94z
				 M246.6,82.08h3.54V29.78c0-13.19-10.73-23.92-23.92-23.92h-52.29V9.4h52.29c11.24,0,20.38,9.14,20.38,20.38V82.08z"/>
		</g>
	</g>
	<g>
		<path d="M42.34,178.84l-0.72-25.6l42.25,3.22l0.72,13.07L42.34,178.84z M115.56,195.67H84.23l1.25-7.34l-5.73-0.18l-0.18-12.71
			l8.59-0.89l5.01-27.21l-47.8-3.4L50.39,87l16.11,0.36l4.3,39.38l41-0.54L115.56,195.67z M86.91,83.42l-39.74-5.01V64.45l58-2.69
			l2.51,58.54l-28.82,0.18L86.91,83.42z M123.61,132.48h14.14l0.36,2.33l11.82-0.54l-0.72-11.46h27.57l-0.89,10.2l24.88-1.07
			l4.12,46.01H180.9l0.54-2.86l-9.13,0.36l-1.07,12.35l19.87,1.07l-0.36-5.19l11.28-2.33l12.35,22.38l-22.02,5.55l-0.54-7.7
			l-71.97,6.09l-0.72-22.91l34.73,1.97l-0.72-10.56l-32.94,1.07L123.61,132.48z M164.43,74.83l-1.79,8.95l19.51-12.71l-59.26-1.43
			l-0.18-22.91l73.94,6.62l5.73,30.97l-21.66,11.82l28.29,8.59l-10.38,23.45l-41.18-19.15l-29.18,15.93l-8.06-13.43l17.72-11.64
			l-18.26-8.59l4.83-12.35l22.91,6.98l-3.4-11.1H164.43z M141.69,158.97l10.2,1.07L151,148.59l-11.1-1.07L141.69,158.97z
			 M174.46,150.91l-0.89,11.1l9.85,0.9l1.97-10.92L174.46,150.91z"/>
	</g>
</g>
</svg>
