<?xml version="1.0" encoding="utf-8"?>
<!-- Generator: Adobe Illustrator 22.1.0, SVG Export Plug-In . SVG Version: 6.00 Build 0)  -->
<svg version="1.1" id="图层_1" xmlns="http://www.w3.org/2000/svg" xmlns:xlink="http://www.w3.org/1999/xlink" x="0px" y="0px"
	 viewBox="0 0 256 256" style="enable-background:new 0 0 256 256;" xml:space="preserve">
<g>
	<g>
		<g>
			<path d="M219.2,236.5h-51.6v8.8h51.6c13.8,0,25.1-11.2,25.1-25.1v-51.6h-8.8v51.6C235.5,229.2,228.2,236.5,219.2,236.5z"/>
			<path d="M219.2,248h-54.3v-14.3h54.3c7.5,0,13.6-6.1,13.6-13.6v-54.3H247v54.3C247,235.5,234.5,248,219.2,248z M170.4,242.5h48.8
				c12.3,0,22.3-10,22.3-22.3v-48.8h-3.3v48.8c0,10.5-8.5,19-19,19h-48.8L170.4,242.5L170.4,242.5z"/>
		</g>
		<g>
			<path d="M19.5,220.2v-51.6h-8.8v51.6c0,13.8,11.2,25.1,25.1,25.1h51.6v-8.8H35.8C26.8,236.5,19.5,229.2,19.5,220.2z"/>
			<path d="M90.1,248H35.8C20.5,248,8,235.5,8,220.2v-54.3h14.3v54.3c0,7.5,6.1,13.6,13.6,13.6h54.3L90.1,248L90.1,248z M13.5,171.4
				v48.8c0,12.3,10,22.3,22.3,22.3h48.8v-3.3H35.8c-10.5,0-19-8.5-19-19v-48.8L13.5,171.4L13.5,171.4z"/>
		</g>
		<g>
			<path d="M35.8,20.5h51.6v-8.8H35.8C22,11.7,10.7,23,10.7,36.8v51.6h8.8V36.8C19.5,27.8,26.8,20.5,35.8,20.5z"/>
			<path d="M22.3,91.1H8V36.8C8,21.5,20.5,9,35.8,9h54.3v14.3H35.8c-7.5,0-13.6,6.1-13.6,13.6L22.3,91.1L22.3,91.1z M13.5,85.6h3.3
				V36.8c0-10.5,8.5-19,19-19h48.8v-3.3H35.8c-12.3,0-22.3,10-22.3,22.3C13.5,36.8,13.5,85.6,13.5,85.6z"/>
		</g>
		<g>
			<path d="M235.5,36.8v51.6h8.8V36.8c0-13.8-11.2-25.1-25.1-25.1h-51.6v8.8h51.6C228.2,20.5,235.5,27.8,235.5,36.8z"/>
			<path d="M247,91.1h-14.3V36.8c0-7.5-6.1-13.6-13.6-13.6h-54.3V9h54.3C234.5,9,247,21.5,247,36.8V91.1z M238.2,85.6h3.3V36.8
				c0-12.3-10-22.3-22.3-22.3h-48.8v3.3h48.8c10.5,0,19,8.5,19,19V85.6z"/>
		</g>
	</g>
	<g>
		<path d="M47.5,176l-0.7-23.9l39.4,3l0.7,12.2L47.5,176z M115.9,191.7H86.6l1.2-6.9l-5.3-0.2l-0.2-11.9l8-0.8l4.7-25.4l-44.6-3.2
			L55,90.2l15,0.3l4,36.8l38.3-0.5L115.9,191.7z M89.1,86.9L52,82.2v-13l54.1-2.5l2.3,54.7l-26.9,0.2L89.1,86.9z M123.4,132.7h13.2
			l0.3,2.2l11-0.5l-0.7-10.7H173l-0.8,9.5l23.2-1l3.8,43h-22.4l0.5-2.7l-8.5,0.3l-1,11.5l18.6,1l-0.3-4.8l10.5-2.2l11.5,20.9
			l-20.6,5.2l-0.5-7.2l-67.2,5.7l-0.7-21.4l32.4,1.8l-0.7-9.9l-30.8,1L123.4,132.7z M161.5,78.9l-1.7,8.4l18.2-11.9L122.7,74
			l-0.2-21.4l69,6.2l5.3,28.9l-20.2,11l26.4,8l-9.7,21.9L155,110.8l-27.2,14.9l-7.5-12.5l16.5-10.9l-17-8l4.5-11.5l21.4,6.5
			l-3.2-10.4C142.4,78.9,161.5,78.9,161.5,78.9z M140.3,157.4l9.5,1l-0.8-10.7l-10.4-1L140.3,157.4z M170.9,149.9l-0.8,10.4l9.2,0.8
			l1.8-10.2L170.9,149.9z"/>
	</g>
</g>
</svg>
