<?xml version="1.0" encoding="utf-8"?>
<!-- Generator: Adobe Illustrator 26.0.3, SVG Export Plug-In . SVG Version: 6.00 Build 0)  -->
<svg version="1.1" id="Layer_1" xmlns="http://www.w3.org/2000/svg" xmlns:xlink="http://www.w3.org/1999/xlink" x="0px" y="0px"
	 viewBox="0 0 256 256" style="enable-background:new 0 0 256 256;" xml:space="preserve">
<g>
	<path d="M237.3,190.7h-11.8v-31h-11.2v4.5h-8V123h17.4c1.9,0,19.1-0.4,24.3-12.3l3.7-8.5H243c-0.3,0-26.3-0.4-36.6-17.9v-9.8h5.9
		c1.9,0,19.1-0.4,24.3-12.3l3.2-7.4l-7.5-1h-0.1c-1.6-0.3-28.1-4.7-37.9-23.5l-1.6-3.1H63.3l-1.6,3.1c-9.6,18.8-36.2,23.3-37.8,23.6
		l-7.6,1.1l3.2,7.4c5.2,12,22.2,12.3,24.2,12.3h5.9v9.9c-10.3,17.5-36.3,17.8-36.6,17.8H4.3l3.7,8.4c5.2,12,22.2,12.3,24.2,12.3
		h17.4v41.1h-8v-4.5H30.4v30.8H18.6v-4.5H7.4V229h241v-42.9h-11.2v4.5H237.3z M60.8,80.2v-5.8H107v5.8H60.8z M118.2,80.2v-5.8h19.5
		v5.8H118.2z M148.9,80.2v-5.8h46.3v5.8H148.9z M58.1,92.1h139.7c6.9,10.7,17.6,16.2,26.2,18.8c-0.1,0-0.2,0-0.2,0H32.3
		C40.8,108.1,51.3,102.8,58.1,92.1z M186.1,39.1c8,12.7,21.3,19.5,30.9,22.9c-1.8,0.4-3.5,0.5-4.8,0.5H43.7c-1.3,0-3-0.2-4.8-0.5
		c10.7-3.8,23.2-10.7,30.9-22.9H186.1z M164.2,217.2v-14.6h73.2v14.6H164.2z M41.6,190.7v-14.6h61.6v14.6H41.6z M122,128.7V123h11.8
		v5.8H122z M122,164.1v-23.4h11.8v23.4H122z M145,128.7V123h19.5v5.8H145z M145,164.1v-23.4h19.5v23.4H145z M114.4,190.7v-14.6h27.2
		v14.6H114.4z M91.4,128.7V123h19.5v5.8H91.4z M110.9,140.7v23.4H91.4v-23.4H110.9z M153,202.6v14.6h-50.2v-14.6H153z M152.7,190.7
		v-14.6h61.6v14.6H152.7z M175.7,128.7V123h19.5v5.8H175.7z M175.7,164.1v-23.4h19.5v23.4H175.7z M80.3,140.7v23.4H60.8v-23.4H80.3z
		 M80.3,123v5.8H60.8V123H80.3z M18.6,217.2v-14.6h73.2v14.6H18.6z"/>
	<rect x="95.5" y="146.5" width="11.2" height="12"/>
	<rect x="64.9" y="146.5" width="11.2" height="12"/>
	<rect x="149.2" y="146.5" width="11.2" height="12"/>
	<rect x="179.9" y="146.5" width="11.2" height="12"/>
	<rect x="72.6" y="44.8" width="11.2" height="12"/>
	<rect x="87.9" y="44.8" width="11.2" height="12"/>
	<rect x="103.2" y="44.8" width="11.2" height="12"/>
</g>
</svg>
