<?xml version="1.0" encoding="utf-8"?>
<!-- Generator: Adobe Illustrator 22.1.0, SVG Export Plug-In . SVG Version: 6.00 Build 0)  -->
<svg version="1.1" id="Layer_1" xmlns="http://www.w3.org/2000/svg" xmlns:xlink="http://www.w3.org/1999/xlink" x="0px" y="0px"
	 viewBox="0 0 291.8 291.8" style="enable-background:new 0 0 291.8 291.8;" xml:space="preserve">
<g>
	<g>
		<g>
			<path d="M265.1,209h-16.4v-28.7h-8.2v4.1h-12.3v-41h20.5c1.9,0,19.1-0.3,24.2-10.5l3-5.9l-6.6,0c-0.3,0-29.6-0.3-41-17.7v-11h8.2
				c1.9,0,19.1-0.3,24.2-10.5l2.6-5.2l-5.7-0.7c-0.3,0-30.9-4.1-42.1-22.6l-1.2-2H78.4l-1.2,2C66.2,77.9,35.5,82,35.2,82l-5.7,0.7
				l2.6,5.2c5.1,10.2,22.2,10.5,24.1,10.5h8.2v11c-11.4,17.4-40.7,17.7-41,17.7l-6.6,0l3,5.9c5.1,10.2,22.2,10.5,24.1,10.5h20.5v41
				H52.1v-4.1h-8.2V209H27.5v-4.1h-8.2v36.9h254v-36.9h-8.2V209z M240.5,192.6V209h-69.6v-16.4H240.5z M187.3,159.8v24.6h-24.6
				v-24.6H187.3z M162.7,151.6v-8.2h24.6v8.2H162.7z M220.1,159.8v24.6h-24.6v-24.6H220.1z M195.5,151.6v-8.2h24.6v8.2H195.5z
				 M56.2,90.2c-2.7,0-7.2-0.5-11-1.8c10.7-2.7,28.3-9,37.8-22.8h126.6c9.5,13.7,27,20.1,37.8,22.8c-3.8,1.3-8.3,1.8-11,1.8H134
				h-8.2H56.2z M220.1,98.4v8.2h-53.3v-8.2H220.1z M158.6,98.4v8.2H134v-8.2H158.6z M125.8,98.4v8.2H72.6v-8.2H125.8z M43.9,135.2
				c-2.1,0-5.5-0.3-8.7-1.1c10.9-1.8,26.5-6.7,35.3-19.4h55.3h8.2h88.1c8.8,12.6,24.4,17.5,35.3,19.3c-3.2,0.8-6.5,1.1-8.7,1.1H43.9
				z M154.5,159.8v24.6h-16.4v-24.6H154.5z M138.1,151.6v-8.2h16.4v8.2H138.1z M162.7,192.6V209h-32.8v-16.4H162.7z M105.3,151.6
				v-8.2h24.6v8.2H105.3z M129.9,159.8v24.6h-24.6v-24.6H129.9z M72.6,151.6v-8.2h24.6v8.2H72.6z M97.2,159.8v24.6H72.6v-24.6H97.2z
				 M52.1,192.6h69.6V209H52.1V192.6z M109.4,233.6H27.5v-16.4H48h61.5V233.6z M175,233.6h-57.4v-16.4H175V233.6z M265.1,233.6
				h-81.9v-16.4h61.5h20.5V233.6z"/>
			<rect x="113.5" y="168" width="8.2" height="8.2"/>
			<rect x="80.8" y="168" width="8.2" height="8.2"/>
			<rect x="170.9" y="168" width="8.2" height="8.2"/>
			<rect x="203.7" y="168" width="8.2" height="8.2"/>
			<rect x="89" y="73.8" width="8.2" height="8.2"/>
			<rect x="105.3" y="73.8" width="8.2" height="8.2"/>
			<rect x="121.7" y="73.8" width="8.2" height="8.2"/>
		</g>
	</g>
</g>
</svg>
