<?xml version="1.0" encoding="utf-8"?>
<!-- Generator: Adobe Illustrator 26.0.3, SVG Export Plug-In . SVG Version: 6.00 Build 0)  -->
<svg version="1.1" id="Capa_1" xmlns="http://www.w3.org/2000/svg" xmlns:xlink="http://www.w3.org/1999/xlink" x="0px" y="0px"
	 viewBox="0 0 412.7 412.7" style="enable-background:new 0 0 412.7 412.7;" xml:space="preserve">
<path d="M396.3,64.2h-24v-8.7c0.2-4.9-2.6-9.4-6.9-10.8c-18.2-5.7-37-8.5-55.9-8.5c-29.9,0-71.8,7.8-103.2,44.3
	c-30.9-36.6-73-44.3-103.2-44.3c-0.2,0-0.4,0-0.5,0c-18.7,0-37.3,2.9-55.4,8.5c-4.2,1.4-7,5.9-6.8,10.7V64H16.6
	c-5.3,0-9.7,4.8-9.7,10.9v290.7c0,6,4.3,10.9,9.7,10.9c1.7,0,3.4-0.6,4.9-1.5h0.1c3.5-2.2,22.6-13.6,53.2-21.4
	c42.3-10.7,85.7-9.5,129.1,3.4l0.3,0.1h2c0.8,0.1,1.5,0.1,2.3,0l0.3-0.1c103.7-31.3,177.8,14.8,182,17.6l0.4,0.3
	c1.5,1,3.3,1.6,5,1.6c1.8,0,3.5-0.6,5-1.6c2.9-2,4.6-5.4,4.6-9.2V75C406,69,401.6,64.2,396.3,64.2z M313.6,318.8
	c15.9,0.1,32,1.6,47.8,4.5c2.2,0.4,4.5-0.1,6.4-1.3c2.6-1.7,4.3-4.6,4.7-7.9c0.1-0.6,0.1-1.1,0.1-1.7V86h14.3l-0.3,262.3
	c-33.4-15.7-69-23.8-104.8-23.8c-5.9,0-11.7,0.2-17.6,0.7C280.4,320.6,296.9,318.4,313.6,318.8z M353,299.9
	c-13-1.9-26.3-2.9-39.4-2.9c-48.5,0-79.4,14.2-97.5,27V101.7c27.2-35.8,65.9-43.3,93.5-43.3c14.6,0.1,29.2,1.9,43.4,5.5V299.9z
	 M99.2,297.1L99.2,297.1c-13.2,0-26.5,1-39.6,2.9v-236c14.2-3.6,28.8-5.5,43.4-5.5c27.8,0,66.6,7.5,93.6,43.3l0.2,222.3
	C178.9,311.2,148.1,297.1,99.2,297.1L99.2,297.1z M50.1,323.4c0.6,0,1.1,0,1.7-0.1c15.7-2.9,31.6-4.4,47.5-4.6
	c16.6-0.3,33.1,1.8,49.1,6.4c-41.5-3-83.4,4.8-122.1,23.1V86h14.3v226.4C40.5,318.4,44.8,323.3,50.1,323.4z"/>
</svg>
