<?xml version="1.0" encoding="utf-8"?>
<!-- Generator: Adobe Illustrator 22.1.0, SVG Export Plug-In . SVG Version: 6.00 Build 0)  -->
<svg version="1.1" id="图层_1" xmlns="http://www.w3.org/2000/svg" xmlns:xlink="http://www.w3.org/1999/xlink" x="0px" y="0px"
	 viewBox="0 0 256 256" style="enable-background:new 0 0 256 256;" xml:space="preserve">
<g>
	<g>
		<path d="M64,201.8c-2.4,1.3-4.5,2.5-6.8,3.6c-6.6,3-12,1.6-15.6-4.5c-6.7-11.2-13.2-22.4-19.5-33.8c-4.1-7.4-2.4-12.8,4.9-17.3
			c1.6-1,3.2-2,5.1-3.1c-1.8-11.7-2.2-23.4,0.2-35.5c-1.6-1-3.2-1.9-4.7-3c-1.6-1.2-3.3-2.3-4.7-3.7c-2.8-2.8-3.5-6.3-2.3-10.1
			c0.4-1.4,1-2.8,1.6-4c6.3-11,12.6-22.1,19.1-33c1.2-2.1,3-3.9,4.9-5.3c3.2-2.3,6.9-1.7,10.3-0.2c2.5,1.1,4.9,2.5,7.5,3.8
			c9.1-7.8,19.5-13.5,30.9-18c0-1.5-0.1-3,0-4.3c0.1-1.6,0.1-3.2,0.4-4.8c1.1-6.3,4.6-9.3,10.9-9.6c3.2-0.2,6.3,0,9.6,0
			c9.7,0,19.4,0,29.1,0c1.7,0,3.5,0.3,5.1,0.5c4.8,0.9,7.2,4.1,7.8,8.7c0.4,3,0.3,6.1,0.6,9.5c11.1,4.2,21.5,9.9,31.1,17.9
			c1.9-1,3.7-2.1,5.6-3.1c6.9-3.6,13.1-2.3,17.1,4.5c6.5,11,12.9,22.2,19.2,33.5c4,7.2,2.3,12.6-4.6,17c-1.7,1-3.5,2.1-5.2,3.2
			c0.4,6,1.2,11.9,1.2,17.8s-0.8,11.8-1.3,18.2c1.4,0.9,3.2,2,5,3.1c2.5,1.6,4.7,3.4,5.9,6.2c1.7,3.8,0.9,7.4-1.1,10.8
			c-5,8.8-10.1,17.5-15.1,26.3c-1.6,2.8-3.1,5.6-4.9,8.2c-3.3,5-7.8,6.8-13.5,4.9c-5.8-2-10.3-5.6-13.1-11.1c2.1-3.5,3.6-4,6.7-2.5
			c2.1,1,4,2.3,6.1,3.4c1.4,0.8,2.8,1.4,4.5,2.3c1-1.1,1.9-2.1,2.5-3.1c6-10.2,12-20.5,17.8-30.7c0.9-1.5,1.2-3.1,1.9-4.9
			c-4.3-2.7-8.3-5.3-12.7-8.1c0.3-3.2,0.6-6.3,1-9.5c1.6-10.1,1.4-20.1-0.6-30.2c-0.2-1-0.3-2-0.3-3c0-0.9,0.3-1.6,0.5-3
			c3.7-2.4,7.6-4.9,11.9-7.6c-0.5-1.6-0.9-3.3-1.6-4.7C216.9,83.1,211,72.8,205,62.6c-0.6-1.1-1.5-2-2.3-3.1
			c-5.5,1.3-9.2,6-15.3,6.3C176.7,56,164.1,48.7,150,44.3c-1.5-5.3,0.4-10.7-1.2-15.5c-4.4-1.5-39.7-1.6-44-0.2
			c-1.8,4.9,0.6,10.3-1.9,15.6c-13.5,4.5-26,11.5-37.1,21.8c-2.5-1-4.9-1.9-7.2-3c-2.3-1.1-4.5-2.5-7.1-3.9c-1,1-2,1.9-2.6,3
			c-6.3,10.9-12.6,22.1-18.9,33.1c-0.3,0.5-0.4,1-0.7,1.8c2.7,4.8,9,4.9,12.3,9.7c-0.3,2.3-0.3,5-0.8,7.7
			c-1.7,10.9-1.1,21.6,0.4,32.4c0.4,3.3-0.5,5.3-3.2,6.9c-1.4,0.8-2.8,1.5-4.2,2.3c-1.6,1-3.2,2.3-4.8,3.4
			c1.3,4.6,19.2,35.3,22.1,38.3c5-1.4,8.9-5.7,14-6.2c6.3,4.3,12,8.9,18.1,12.5c6.1,3.6,12.7,6.2,19.5,9.3c2.9,4.5,0.1,10.2,2,15.1
			c3.5,0.9,39.1,1,43.9,0.2c1.9-4.6,0-9.8,1.2-15.1c6.3-2.7,12.7-5.5,19.1-8.2c2.3,2,4.3,3.8,4.6,7c-4.4,3.6-10.1,4.8-15.5,7.6
			c0,2.3,0.2,4.7,0,7.1c-0.5,7.7-4.2,11.1-12,11.3c-4.5,0.1-8.9,0-13.5,0c-8,0-15.9,0-23.9,0c-1.6,0-3.2-0.1-4.8-0.4
			c-4.9-1-8-3.9-8.7-8.9c-0.4-3-0.5-6-0.8-9.5C83.7,215.3,73.2,209.5,64,201.8z"/>
		<path d="M101.7,192.6c1.3-2.5,2.3-4.3,3.4-6.3c1.6,0.3,3.1,0.4,4.6,0.9c10.2,2.8,20.5,3.6,30.8,1c24.3-6.2,41.9-24.9,45.6-50.1
			c4.3-30-15.6-61.1-49.2-67c-32.7-5.7-64.4,17.3-68.9,50.2c-2.8,20.2,3.6,37.7,18.1,52.1c1.1,1.1,2.1,2.3,3.4,3.6
			c-1.1,2.1-2.2,3.9-3.1,5.5c-2.9,0.9-4.1-1-5.6-2.3c-8.2-7.6-14.3-16.6-18.1-27.2c-13.4-37.9,7.9-77.5,44.6-88.6
			c37.6-11.4,77,11.4,86.1,49.8c9.2,38.6-16.2,76.7-55.6,83.2c-10.6,1.7-21,1-31.3-2.4C105.2,194.5,103.7,193.6,101.7,192.6z"/>
		<path d="M94.7,130.3c5.3,5.5,10.5,10.9,15.9,16.5c-0.2,3-2.2,4.9-5.4,6.4c-7.8-7.4-15.6-14.8-23.6-22.2c0.7-1.1,1-2.1,1.7-2.8
			c6.9-6.6,13.9-13.1,20.8-19.6c0.4-0.3,1-0.6,1.5-1c2.6,1.3,4.4,3.1,5.5,6.3C106.1,119.7,99.9,124.6,94.7,130.3z"/>
		<path d="M148.7,107.7c7.7,7.2,15.5,14.6,23.4,21.9c-1.6,3.1-17,18.1-23.4,23c-3.1-0.2-4.3-3-6.3-5.2c4.9-6.3,11.5-11,16.9-17.2
			c-5.5-5.2-10.9-10.5-16.3-15.7C143.7,110.7,145.1,109.1,148.7,107.7z"/>
		<path d="M114.8,152.3c0-3.7,11.7-36.3,15.9-44.5c3.8-1.5,6-1.4,9.3,0.7c-5.6,14.7-11.4,29.3-17,43.9
			C120,153.4,117.6,153.6,114.8,152.3z"/>
	</g>
</g>
</svg>
