<?xml version="1.0" encoding="utf-8"?>
<!-- Generator: Adobe Illustrator 24.0.1, SVG Export Plug-In . SVG Version: 6.00 Build 0)  -->
<svg version="1.1" id="Capa_1" xmlns="http://www.w3.org/2000/svg" xmlns:xlink="http://www.w3.org/1999/xlink" x="0px" y="0px"
	 viewBox="0 0 512 512" style="enable-background:new 0 0 512 512;" xml:space="preserve">
<g>
	<g>
		<g>
			<path d="M435,110.3l-140.5-81c-23.7-13.7-53.2-13.7-76.9,0L77,110.3C53.2,124,38.5,149.6,38.5,177V339c0,27.4,14.8,53,38.5,66.7
				l140.5,81c23.7,13.7,53.2,13.7,76.9,0l140.5-81c23.8-13.7,38.5-39.3,38.5-66.7V177C473.5,149.6,458.8,124,435,110.3z M436.2,339
				c0,14.1-7.6,27.3-19.9,34.4l-140.5,81c-12.2,7.1-27.4,7.1-39.6,0l-140.5-81c-12.2-7.1-19.9-20.2-19.9-34.4V177
				c0-14.1,7.6-27.3,19.9-34.4l140.5-81c12.2-7.1,27.4-7,39.6,0l140.5,81c12.2,7.1,19.9,20.2,19.9,34.4V339z"/>
			<path d="M238.3,243.7l-69.3-58.7c-7.9-6.7-19.7-5.7-26.3,2.2c-6.7,7.9-5.7,19.7,2.2,26.3l52.5,44.4l-52.5,44.4
				c-7.9,6.7-8.9,18.4-2.2,26.3c6.7,7.9,18.5,8.8,26.3,2.2l69.3-58.7C247.1,264.8,247.1,251.2,238.3,243.7z"/>
			<path d="M355.2,298h-84c-10.3,0-18.7,8.4-18.7,18.7c0,10.3,8.4,18.7,18.7,18.7h84c10.3,0,18.7-8.4,18.7-18.7
				C373.8,306.4,365.5,298,355.2,298z"/>
		</g>
	</g>
</g>
</svg>
