<?xml version="1.0" encoding="utf-8"?>
<!-- Generator: Adobe Illustrator 26.0.3, SVG Export Plug-In . SVG Version: 6.00 Build 0)  -->
<svg version="1.1" id="图层_1" xmlns="http://www.w3.org/2000/svg" xmlns:xlink="http://www.w3.org/1999/xlink" x="0px" y="0px"
	 viewBox="0 0 256 256" style="enable-background:new 0 0 256 256;" xml:space="preserve">
<g>
	<path d="M222.9,209.2c1.7-2.4,3.1-4.9,4.5-7.4c0.3-0.6,0.7-1.2,1-1.8c2.7-4.8,5.5-9.6,8.2-14.3l0.1-0.2c2.8-4.8,5.6-9.6,8.3-14.4
		c2.8-4.8,3.3-9.4,1.3-13.7c-1.6-3.8-4.6-6-7.3-7.8l0.5-0.8l0,0l-0.6,0.8c-1.3-0.8-2.7-1.6-3.9-2.4l-0.5-0.3l0.1-0.6
		c0.1-1.5,0.3-2.9,0.4-4.3l1,0c0,0,0,0,0,0l-1-0.1c0.5-4.8,0.9-9.3,0.9-13.9c0-4.4-0.4-8.8-0.8-13.1c-0.1-1.6-0.3-3.2-0.4-4.9l0-0.6
		l0.5-0.3c1.3-0.8,2.7-1.7,4.2-2.5l0.1,0c8.6-5.5,10.6-12.7,5.7-21.4c-7.4-13.2-14.3-25.3-21.2-37c-4.8-8.1-12.8-10.3-21.5-5.7
		c-1.1,0.6-2.1,1.2-3.1,1.7l-1.9,1l-0.5-0.4c-9.3-7.5-19.6-13.4-31.5-18.1l-0.6-0.2l0-0.6c-0.1-0.9-0.1-1.8-0.1-2.7
		c-0.1-2-0.2-4-0.4-5.9c-0.8-6.2-4.4-10.2-10.2-11.3l-1.2-0.2c-1.5-0.2-3.2-0.4-4.8-0.4H116c-1.2,0-2.3,0-3.5,0
		c-2.4-0.1-4.8-0.1-7.2,0c-8,0.4-12.5,4.4-13.9,12.2c-0.3,1.5-0.3,2.9-0.4,4.3c0,0.5,0,0.9-0.1,1.3c-0.1,1-0.1,1.9,0,2.9l0,0.7
		l-0.6,0.3c-12.2,5-22.4,10.9-31.2,18.1l-0.5,0.4l-1.9-1c-1.7-0.9-3.5-1.9-5.3-2.6c-5.2-2.3-9.7-2.2-13.4,0.4
		c-2.5,1.9-4.6,4.1-5.9,6.4c-6.1,10.2-12.1,20.7-17.9,30.8L11,85c-0.8,1.6-1.5,3.2-1.9,4.6c-1.6,5-0.5,9.7,3,13.2
		c1.3,1.3,2.7,2.3,4.1,3.3c0.5,0.3,0.9,0.6,1.3,1c1.1,0.8,2.3,1.6,3.5,2.3l0.6,0.4l-0.1,0.7c-2,11.2-2,22.5-0.1,35.8l0.1,0.7
		l-0.6,0.3c-1.4,0.8-2.7,1.6-3.9,2.4C8,155.2,6,162.4,11,171.4c6.5,11.7,13.5,23.9,21.5,37.3c4.5,7.6,11.3,9.6,19.8,5.7
		c2-0.9,3.8-1.9,5.8-3l0.6-0.3l0.6,0.4c8.8,7.1,19.1,13.1,30.6,17.8l0.6,0.2l0,0.6c0.1,0.7,0.1,1.4,0.1,2.1c0.2,2.3,0.3,4.5,0.6,6.7
		c0.9,6.1,4.8,10.2,11.2,11.5c1.7,0.3,3.5,0.5,5.6,0.5h26.3c1.6,0,3.2,0,4.7,0l0.3,0c3.2,0,6.6,0,9.9,0c9.7-0.2,14.5-4.8,15.2-14.3
		c0.2-1.9,0.1-3.7,0.1-5.5l0-1.3l0.6-0.3c1.6-0.7,3.2-1.4,4.8-2c3.8-1.5,7.7-3.1,10.9-5.8l0.8-0.7l-0.1-1.1c-0.4-4.4-3.1-6.8-5.7-9
		l-0.9-0.8l-1.1,0.5c-4.5,1.9-9,3.8-13.5,5.8c-2.5,1.1-5.1,2.2-7.6,3.3l-0.9,0.4l-0.2,1c-0.7,2.9-0.5,5.8-0.5,8.3
		c0.1,2.2,0.2,4.3-0.2,6.2l-0.2,0.7l-0.8,0.1c-8.3,0.6-36.2,0.5-43.9-0.1l-0.8-0.1l-0.1-0.8c-0.3-1.6-0.2-3.3-0.1-5
		c0.1-3.2,0.3-6.9-1.8-10.2l-0.3-0.5l-0.5-0.2c-1.9-0.9-3.8-1.7-5.6-2.5c-5.5-2.4-10.7-4.7-15.7-7.6c-4.2-2.5-8.2-5.4-12.4-8.4
		c-2.4-1.8-4.9-3.5-7.4-5.3l-0.6-0.4l-0.7,0.1c-3.6,0.4-6.6,2.1-9.5,3.8c-1.5,0.9-2.9,1.7-4.3,2.3l-0.8,0.3l-0.5-0.7
		c-4.7-6.7-18.3-30-21.8-37.7l-0.3-0.7l0.9-0.7c1-0.7,2-1.5,3-2.1c0.8-0.4,1.5-0.8,2.2-1.2l0.6,0.8l0,0l-0.5-0.9
		c0.8-0.4,1.5-0.8,2.3-1.3c3.6-2.2,5-5.1,4.5-9.6c-1.9-13.9-2.1-24.7-0.5-35c0.4-1.9,0.5-3.8,0.6-5.5c0.1-1.1,0.2-2.1,0.3-3.1
		l0.1-0.8l-0.4-0.6c-2.1-3-5-4.5-7.6-5.9c-1.9-1-3.8-2-5.1-3.5l-0.4-0.5l0.4-0.7c2.8-4.8,5.5-9.7,8.3-14.6
		c4.1-7.2,8.3-14.7,12.5-21.9c0.2-0.3,0.5-0.7,0.9-1.2l0.5-0.6l1.9,1.1c1.6,0.9,3.2,1.8,4.8,2.6c2.1,1,4.2,1.8,6.4,2.7l2.8,1.1
		l0.9-0.9C73.8,49.7,86.9,42,102.4,36.8l0.8-0.3l0.4-0.8c1.7-3.6,1.6-7.2,1.5-10.3c0-1.9-0.1-3.6,0.2-5.3l0.1-0.7l0.7-0.1
		c7.6-1,36.3-0.8,43.9,0.2l0.7,0.1l0.1,0.7c0.3,1.9,0.2,3.9,0.2,6c-0.1,2.9-0.2,6.1,0.7,9.3l0.3,1l1,0.3
		c15.2,4.7,28.8,12.6,40.5,23.3l0.6,0.6l0.8,0c4.3-0.2,7.7-2.2,10.6-3.9c1.6-0.9,3.1-1.8,4.7-2.5l0.7-0.3l0.5,0.6
		c0.4,0.5,0.8,1,1.1,1.6c8,13.5,13.9,24,19.1,33.9c0.4,0.8,0.7,1.8,1,2.7l0.2,0.7l-0.6,0.4c-3.6,2.3-7.3,4.6-11.2,7.2l-0.8,0.5
		l-0.1,0.9c-0.1,0.6-0.2,1-0.3,1.4c-0.2,0.7-0.3,1.4-0.3,2.2c0,1.2,0.1,2.5,0.4,3.7c2.2,11,2.4,21.7,0.6,32.7
		c-0.4,3.5-0.8,7-1.1,10.5l-0.1,1.2l1,0.7c1.8,1.1,3.5,2.2,5.2,3.3l0.1,0.1c2.2,1.4,4.4,2.8,6.6,4.2l0.7,0.4l-0.2,0.7
		c-0.4,1.1-0.7,2-1.2,2.9c-5.7,9.9-11.9,20.7-19.6,33.8c-0.2,0.4-0.6,0.8-1,1.4l-0.5,0.6l-0.9-0.5c-0.9-0.4-1.7-0.9-2.6-1.3l-0.1,0
		c-0.9-0.5-1.8-1-2.8-1.6c-1.3-0.8-2.6-1.5-4-2.2c-4.4-2.2-7.1-1.2-10,3.5l-0.6,1l0.5,1c3.2,6.3,8.5,10.8,15.6,13.2
		C212.7,217.7,218.7,215.6,222.9,209.2z"/>
	<path d="M192.4,170.8c12-18,15.8-39.5,10.7-60.5c-5-21.1-18.1-38.6-36.8-49.4c-18.6-10.7-40.1-13.2-60.6-6.9
		C85.6,60,68.5,74.3,59,93.1c-9.6,19-11,40.7-3.8,61.1c4.2,11.7,11.1,22.1,20.5,30.8c0.2,0.2,0.4,0.4,0.7,0.6
		c1.5,1.4,3.6,3.5,7.4,2.3l0.8-0.2L85,187c0.3-0.6,0.7-1.2,1-1.8c0.8-1.3,1.6-2.7,2.4-4.3l0.7-1.3l-1-1c-0.7-0.7-1.3-1.4-1.9-2.1
		c-0.6-0.7-1.2-1.3-1.8-1.9C68.5,158.9,62,140.1,65,118.8c2.3-16.9,11.3-31.9,25.4-42.2c14.1-10.3,31.3-14.4,48.2-11.4
		c34.4,6,57.5,37.5,52.6,71.6c-3.9,26.8-22.2,46.8-48.8,53.6c-10.1,2.6-20.9,2.2-32.9-1.1c-1.3-0.4-2.5-0.6-3.7-0.8
		c-0.5-0.1-1.1-0.2-1.6-0.3l-1.4-0.3l-1.1,2c-1.1,2-2.1,3.8-3.4,6.3l-0.9,1.8l1.8,0.9c0.8,0.4,1.5,0.8,2.1,1.1l0,0
		c1.2,0.7,2.3,1.2,3.3,1.6l0.1,0c11.3,3.7,23.3,4.7,35.4,2.7C161.9,200.9,180.4,188.9,192.4,170.8z"/>
	<g>
		<g>
			<path d="M109.8,147l0-0.8l-15.4-18.4l0.5-0.6c1.9-2.3,4-4.5,6-6.7c3-3.3,6.2-6.7,8.9-10.4h0l0.6-0.8l-0.3-1
				c-1.2-3.9-3.2-6.6-6.4-8.4l-1.3-0.7l-1.1,1c-0.2,0.2-0.4,0.3-0.7,0.5c-0.3,0.2-0.5,0.4-0.8,0.6l-0.2,0.2
				c-2.1,2.3-4.2,4.6-6.3,6.9l-0.4,0.4c-4.6,5-9.4,10.1-14.1,15.4c-0.6,0.7-1,1.5-1.3,2.3c-0.2,0.5-0.4,0.8-0.6,1.3l-0.7,1.3l1,1.1
				c8,8.5,15.8,17.1,23.4,25.4l1.2,1.3l1.4-0.7C107.5,153.8,109.6,150.9,109.8,147z"/>
			<path d="M179.1,128.3l0.5-1.2l-0.9-1c-5.1-5.5-10.2-11.2-15.2-16.6l-0.6-0.7c-2.5-2.8-5.1-5.6-7.6-8.3l-1-1.1l-1.3,0.6
				c-4.3,1.9-6.1,4.4-6.8,9.5l-0.1,0.9l0.6,0.7c1.8,2,3.6,4.1,5.4,6.1c3,3.4,6.1,6.9,9.2,10.4l0.6,0.6l-0.5,0.7
				c-2,2.5-4.1,4.8-6.1,7c-3.2,3.5-6.5,7.1-9.3,11.3l-0.8,1.2l0.9,1.1c0.4,0.6,0.8,1.2,1.3,1.8c1.5,2.2,3.1,4.8,6.5,5l0.9,0.1
				l0.6-0.6C161.2,150.7,177.2,132.6,179.1,128.3z"/>
		</g>
		<path d="M129.3,102c-3.9,8.7-16.1,46.6-16.1,51.2v1.2l1.1,0.6c1.6,0.9,3.2,1.3,4.9,1.3c1.9,0,3.7-0.6,4.9-1.1l0.9-0.3l0.3-0.9
			c2.5-7.4,5-14.8,7.6-22.2l0.1-0.4c3-8.8,6.2-18,9.3-27.2l0.5-1.4l-1.2-0.9c-3.8-2.8-6.8-3-11.3-1l-0.7,0.3L129.3,102z"/>
	</g>
</g>
</svg>
