<?xml version="1.0" encoding="utf-8"?>
<!-- Generator: Adobe Illustrator 22.1.0, SVG Export Plug-In . SVG Version: 6.00 Build 0)  -->
<svg version="1.1" id="图层_1" xmlns="http://www.w3.org/2000/svg" xmlns:xlink="http://www.w3.org/1999/xlink" x="0px" y="0px"
	 viewBox="0 0 522.5 522.5" style="enable-background:new 0 0 522.5 522.5;" xml:space="preserve">
<style type="text/css">
	.st0{fill:#353B44;}
	.st1{fill:#2B4F89;}
</style>
<path class="st0" d="M325.8,70.5l-17.7-4.9c-2.3-0.8-4.5-0.5-6.7,0.7c-2.2,1.2-3.7,3.1-4.4,5.6L190.4,440.5c-0.8,2.5-0.5,4.8,0.7,7
	c1.2,2.2,3.1,3.7,5.6,4.4l17.7,4.9c2.3,0.8,4.5,0.5,6.7-0.7c2.2-1.2,3.7-3.1,4.4-5.6L332,81.9c0.8-2.5,0.5-4.8-0.7-7
	C330.1,72.7,328.2,71.3,325.8,70.5z"/>
<path class="st1" d="M166.2,142.5c0-2.5-1-4.7-2.9-6.6L149,121.6c-1.9-1.9-4.1-2.9-6.6-2.9s-4.7,1-6.6,2.9l-133,133
	c-1.9,1.9-2.9,4.1-2.9,6.6s1,4.7,2.9,6.6l133,133c1.9,1.9,4.1,2.9,6.6,2.9s4.7-1,6.6-2.9l14.3-14.3c1.9-1.9,2.9-4.1,2.9-6.6
	c0-2.5-1-4.7-2.9-6.6L51.1,261.2L163.3,149C165.2,147.1,166.2,144.9,166.2,142.5z"/>
<path class="st1" d="M519.6,254.7l-133-133c-1.9-1.9-4.1-2.9-6.6-2.9c-2.5,0-4.7,1-6.6,2.9l-14.3,14.3c-1.9,1.9-2.9,4.1-2.9,6.6
	s0.9,4.7,2.9,6.6l112.2,112.2L359.2,373.4c-1.9,1.9-2.9,4.1-2.9,6.6c0,2.5,0.9,4.7,2.9,6.6l14.3,14.3c1.9,1.9,4.1,2.9,6.6,2.9
	c2.5,0,4.7-1,6.6-2.9l133-133c1.9-1.9,2.9-4.1,2.9-6.6C522.5,258.8,521.5,256.6,519.6,254.7z"/>
</svg>
