<?xml version="1.0" encoding="utf-8"?>
<!-- Generator: Adobe Illustrator 26.0.3, SVG Export Plug-In . SVG Version: 6.00 Build 0)  -->
<svg version="1.1" id="图层_1" xmlns="http://www.w3.org/2000/svg" xmlns:xlink="http://www.w3.org/1999/xlink" x="0px" y="0px"
	 viewBox="0 0 256 256" style="enable-background:new 0 0 256 256;" xml:space="preserve">
<g>
	<path d="M155.81,194.02c2.42,1.55,4.74,3.05,7.06,4.53c6.64,4.24,13.3,8.46,19.93,12.71c3.24,2.08,6.52,4.1,9.64,6.35
		c6.42,4.62,8.76,12.82,5.89,20.05c-1.57,3.96-4.25,6.99-8.07,8.83c-4.98,2.4-10.1,2.38-15.05-0.04c-2.24-1.1-4.29-2.62-6.36-4.05
		c-3.36-2.32-6.67-4.71-10-7.08c-4.78-3.39-9.55-6.79-14.33-10.18c-3.53-2.5-7.07-4.98-10.59-7.49c-1.66-1.18-3.31-2.39-4.95-3.61
		c-0.44-0.33-0.8-0.43-1.28-0.08c-2.05,1.46-4.12,2.89-6.18,4.35c-3.33,2.36-6.65,4.74-9.98,7.11c-5.36,3.81-10.72,7.62-16.09,11.42
		c-3.57,2.53-7.19,5-10.74,7.56c-2.32,1.67-4.84,2.85-7.65,3.35c-5.01,0.89-9.66-0.03-13.65-3.25c-3.71-2.99-5.82-6.96-6.26-11.75
		c-0.42-4.52,0.82-8.56,3.64-12.1c1.7-2.12,3.92-3.64,6.19-5.08c2.95-1.88,5.89-3.79,8.84-5.67c6.84-4.37,13.69-8.73,20.53-13.1
		c1.38-0.88,2.75-1.78,4.24-2.75c-1.18-0.84-2.29-1.63-3.4-2.41c-7.37-5.24-14.75-10.47-22.12-15.71
		c-3.48-2.48-6.93-4.98-10.41-7.47c-0.72-0.51-1.46-0.6-2.31-0.2c-4.32,2.02-8.86,3.19-13.63,3.51c-5.78,0.39-11.32-0.61-16.66-2.75
		c-3.76-1.51-7.2-3.59-10.34-6.16c-3.9-3.2-7.14-6.95-9.65-11.32c-2.71-4.71-4.3-9.77-4.75-15.2c-0.35-4.21,0.11-8.33,1.44-12.33
		c1.26-3.81,3.18-7.24,5.83-10.3c2.81-3.24,6.12-5.78,9.97-7.64c3.43-1.66,7.09-2.52,10.85-2.92c5.85-0.62,11.56,0.12,17.1,2.06
		c4.62,1.62,8.82,3.99,12.59,7.13c2.87,2.39,5.38,5.11,7.49,8.18c2.23,3.26,3.86,6.81,4.93,10.62c0.92,3.3,1.14,6.69,1.31,10.09
		c0.05,0.9,0.1,1.8,0.16,2.71c0.05,0.73,0.35,1.28,1,1.7c7.57,4.8,15.14,9.61,22.7,14.43c3.89,2.48,7.77,5,11.65,7.49
		c4.4,2.83,8.8,5.65,13.18,8.49c0.53,0.34,0.97,0.29,1.47-0.03c2.82-1.84,5.64-3.68,8.48-5.51c6.81-4.37,13.62-8.74,20.44-13.1
		c6.15-3.93,12.3-7.85,18.45-11.77c0.75-0.48,1.1-1.13,1.05-2c-0.26-4.96,0.37-9.81,1.99-14.51c1.55-4.53,3.93-8.6,7.09-12.22
		c3.72-4.26,8.14-7.58,13.24-9.99c6.41-3.02,13.16-4.45,20.24-3.88c6.63,0.53,12.67,2.76,17.91,6.92c2.97,2.36,5.42,5.21,7.31,8.53
		c3.05,5.35,4.26,11.12,3.91,17.22c-0.34,5.96-2.19,11.47-5.25,16.59c-2.1,3.52-4.72,6.62-7.76,9.33
		c-5.89,5.27-12.73,8.62-20.58,9.81c-7.12,1.07-13.96,0.09-20.55-2.73c-2.17-0.93-2.14-0.92-3.99,0.42
		c-2.95,2.13-5.92,4.21-8.89,6.31c-5.11,3.62-10.22,7.24-15.32,10.85c-3.51,2.48-7.01,4.96-10.52,7.45
		C156.13,193.78,156.02,193.86,155.81,194.02z M17.68,135.66c0.02,2.56,1.27,6.71,3.52,10.61c3.07,5.32,7.36,9.36,12.78,12.18
		c4.7,2.44,9.71,3.5,15.01,2.91c3.55-0.39,6.91-1.42,9.98-3.25c3.45-2.06,6.51-2.01,9.43,0.13c3.34,2.44,6.73,4.82,10.1,7.22
		c3.42,2.43,6.84,4.84,10.26,7.26c5.56,3.95,11.11,7.91,16.66,11.85c3.44,2.44,6.89,4.87,10.33,7.31c4.67,3.32,9.33,6.65,14,9.97
		c3.94,2.79,7.89,5.57,11.82,8.36c5.19,3.68,10.38,7.38,15.56,11.07c3.13,2.23,6.26,4.47,9.4,6.68c4.08,2.87,8.14,5.77,12.25,8.58
		c2.96,2.02,6.7,1.39,8.79-1.38c2.01-2.65,1.87-5.97-0.6-8.2c-1.5-1.36-3.25-2.46-4.95-3.57c-4.85-3.15-9.73-6.26-14.6-9.38
		c-6.68-4.28-13.36-8.56-20.04-12.83c-4.69-3-9.39-6-14.08-9.01c-7.24-4.64-14.47-9.29-21.7-13.93
		c-7.82-5.01-15.64-10.01-23.47-15.01c-5.66-3.61-11.32-7.2-16.99-10.8c-1.84-1.17-2.99-2.77-3.08-5c-0.03-0.71,0.06-1.43,0.18-2.13
		c0.51-2.83,0.5-5.66-0.03-8.48c-1.17-6.33-4.25-11.59-9.04-15.86c-3.13-2.79-6.68-4.83-10.68-6.12c-4.85-1.57-9.77-1.98-14.76-0.88
		c-4.54,1-8.42,3.22-11.44,6.75C19.15,124.45,17.65,128.82,17.68,135.66z M138.02,182.62c2.29,1.52,4.5,2.99,6.7,4.47
		c1.25,0.84,1.69,0.83,2.99-0.12c1.69-1.24,3.4-2.45,5.1-3.67c3.67-2.62,7.35-5.23,11.02-7.84c4.76-3.38,9.51-6.76,14.27-10.14
		c3.39-2.41,6.78-4.83,10.17-7.25c1.85-1.32,3.78-2.36,6.14-1.51c0.89,0.32,1.71,0.82,2.54,1.3c4.93,2.85,10.23,4.07,15.9,3.46
		c6.34-0.68,11.74-3.5,16.42-7.72c3.38-3.06,6.04-6.68,7.75-10.95c1.92-4.78,2.41-9.67,0.94-14.65c-1.15-3.9-3.41-7.08-6.5-9.7
		c-3.56-3.02-7.63-4.73-12.3-4.98c-4.53-0.24-8.89,0.61-13.07,2.29c-4.98,2-9.31,4.92-12.64,9.22c-2.44,3.15-4.16,6.63-5.03,10.52
		c-0.79,3.53-0.73,7.05-0.16,10.61c0.38,2.37-0.27,4.49-2.33,5.87c-3.99,2.67-8.03,5.27-12.07,7.86
		c-7.05,4.53-14.13,9.03-21.19,13.55c-2.55,1.63-5.1,3.25-7.65,4.89C142.68,179.6,140.37,181.1,138.02,182.62z M119.12,207.11
		c-2.98-2.12-5.88-4.17-8.76-6.24c-0.34-0.25-0.57-0.19-0.91,0.02c-2.02,1.32-4.06,2.61-6.09,3.91c-7.04,4.5-14.08,9-21.12,13.5
		c-3.38,2.16-6.77,4.28-10.11,6.49c-1.2,0.8-2.44,1.65-3.36,2.74c-2.24,2.67-1.38,6.38,0.55,8.2c2.56,2.4,5.74,2.54,8.68,0.55
		c1.71-1.16,3.38-2.38,5.07-3.58c4.24-3,8.49-6,12.72-9.01c5.21-3.7,10.42-7.41,15.62-11.11
		C113.97,210.77,116.52,208.96,119.12,207.11z"/>
	<path d="M98.22,22.23c7.64-9.75,17.49-14.99,29.93-15c12.43-0.01,22.32,5.12,29.93,14.94c0.98-0.59,1.91-1.18,2.87-1.73
		c4.77-2.74,9.91-4.39,15.36-5.13c5.22-0.71,10.34-0.23,15.33,1.44c4.32,1.44,8.21,3.66,11.72,6.56c3.46,2.85,6.58,6.01,8.98,9.83
		c2.88,4.6,4.58,9.59,5.04,15c0.59,6.93-0.81,13.52-3.46,19.87c-1.49,3.57-3.58,6.77-6.19,9.66c-4.55,5.03-10.22,8.17-16.65,10.04
		c-1.6,0.47-3.25,0.8-4.88,1.15c-1.62,0.35-1.87,0.56-2.19,2.16c-0.91,4.67-1.81,9.34-2.74,14c-2.51,12.56-5.03,25.11-7.56,37.66
		c-0.14,0.68-0.32,1.34-0.5,2.01c-0.31,1.12-0.81,1.43-1.93,1.21c-2.24-0.45-4.48-0.9-6.72-1.34c-1.26-0.25-1.63-0.7-1.41-2
		c0.46-2.64,0.99-5.27,1.48-7.91c0.06-0.34,0.1-0.68,0.17-1.11c-24.43,0-48.79,0-73.23,0c0.18,1.02,0.35,2,0.54,2.99
		c0.38,1.98,0.78,3.96,1.16,5.94c0.26,1.35-0.05,1.83-1.43,2.12c-2.21,0.46-4.43,0.9-6.64,1.34c-1.33,0.26-1.88-0.1-2.15-1.44
		c-1.55-7.71-3.1-15.42-4.65-23.13c-1.51-7.53-3.03-15.05-4.54-22.58c-0.54-2.71-1.05-5.42-1.57-8.14c-0.25-1.29-0.39-1.49-1.7-1.72
		c-4.08-0.71-7.98-1.91-11.65-3.85c-2.64-1.39-5.07-3.06-7.32-5.03c-3.87-3.39-6.9-7.38-9.09-12.03c-1.85-3.93-2.92-8.07-3.27-12.39
		c-0.46-5.67,0.32-11.18,2.27-16.52c1.5-4.12,3.69-7.84,6.58-11.16c3.34-3.84,7.26-6.89,11.86-9.06c4.13-1.96,8.48-3.17,13.04-3.61
		c5.32-0.51,10.49,0.09,15.53,1.88c3.04,1.08,5.88,2.54,8.57,4.31C97.46,21.73,97.82,21.96,98.22,22.23z M102.23,122.74
		c-0.38-2.72-0.73-5.32-1.1-7.92c-0.65-4.55-1.31-9.09-1.95-13.63c-0.12-0.86,0.25-1.43,1.1-1.57c2.54-0.41,5.09-0.79,7.64-1.13
		c0.89-0.12,1.38,0.36,1.52,1.25c0.04,0.24,0.04,0.48,0.08,0.71c1.05,7.2,2.1,14.39,3.13,21.59c0.08,0.57,0.26,0.75,0.84,0.74
		c2.95-0.03,5.9-0.01,8.86-0.02c0.23,0,0.45-0.04,0.71-0.07c0-0.39,0-0.71,0-1.02c0-13.46,0-26.92,0-40.38c0-1.83,0.28-2.1,2.14-2.1
		c2.13,0,4.26,0,6.38,0c1.71,0,1.97,0.26,1.97,1.99c0,13.51,0,27.02,0,40.54c0,0.34,0,0.68,0,1.06c3.41,0,6.72,0,10.09,0
		c0.44-3.04,0.88-6.05,1.32-9.07c0.67-4.6,1.34-9.19,2.03-13.78c0.2-1.3,0.65-1.63,1.97-1.44c2.26,0.32,4.52,0.65,6.77,1.01
		c1.23,0.19,1.62,0.71,1.45,1.92c-0.65,4.68-1.32,9.35-1.98,14.03c-0.34,2.41-0.68,4.82-1.02,7.25c4.35,0,8.62,0,12.9,0
		c1.89-9.47,3.77-18.87,5.66-28.27c0.75-3.75,1.47-7.51,2.33-11.23c0.62-2.68,1.93-3.7,4.64-4.02c1.37-0.16,2.74-0.3,4.11-0.49
		c5.13-0.7,9.69-2.74,13.59-6.11c3.12-2.7,5.55-5.97,7.17-9.81c2.62-6.19,3.01-12.49,0.88-18.88c-1.58-4.72-4.32-8.7-8.13-11.95
		c-2.2-1.88-4.64-3.35-7.29-4.47c-3.86-1.64-7.91-2.12-12.08-1.82c-3.41,0.24-6.63,1.15-9.67,2.68c-2.86,1.44-5.35,3.43-7.68,5.62
		c-2.07,1.95-5.28,2.43-7.32-0.07c-0.68-0.84-1.29-1.75-1.85-2.67c-2.2-3.59-4.85-6.77-8.35-9.15c-4.39-2.99-9.26-4.37-14.55-4.41
		c-3.93-0.03-7.73,0.58-11.31,2.2c-4.67,2.11-8.32,5.41-11.15,9.66c-1.11,1.67-1.96,3.53-3.51,4.9c-1.23,1.09-2.56,1.38-4.12,0.94
		c-1.85-0.52-3.11-1.87-4.5-3.05c-2.8-2.37-5.85-4.29-9.33-5.5c-4.59-1.59-9.26-1.67-13.98-0.6c-6.25,1.43-11.4,4.61-15.36,9.66
		c-3.08,3.92-5.09,8.34-5.59,13.32c-0.82,8.14,1.75,15.24,7.15,21.29c3,3.37,6.79,5.65,11.05,7.13c2.58,0.89,5.25,1.28,7.97,1.4
		c3.44,0.15,4.98,1.5,5.67,4.86c0.15,0.75,0.33,1.5,0.48,2.26c2.4,11.93,4.8,23.86,7.17,35.79c0.13,0.65,0.33,0.87,1.01,0.86
		c3.72-0.04,7.45-0.02,11.17-0.02C101.59,122.78,101.85,122.76,102.23,122.74z"/>
	<path d="M210.14,187.86c-4.55-0.17-9.03-0.71-13.43-1.77c-1.29-0.31-2.32-0.01-3.35,0.73c-4.5,3.23-9.01,6.45-13.53,9.66
		c-1.36,0.96-2,0.84-2.97-0.49c-1.25-1.71-2.49-3.44-3.71-5.17c-0.71-1-0.55-1.99,0.44-2.7c4.34-3.14,8.68-6.26,13.04-9.38
		c1.53-1.09,3.04-2.23,4.65-3.19c1.56-0.93,3.3-0.94,5.01-0.42c5.62,1.71,11.36,2.47,17.22,2.01c4.91-0.38,9.58-1.65,14.06-3.72
		c4.39-2.03,8.33-4.72,12.04-7.8c0.22-0.19,0.46-0.36,0.7-0.53c0.67-0.48,1.44-0.47,2.02,0.14c1.79,1.92,3.57,3.85,5.32,5.81
		c0.61,0.68,0.46,1.61-0.31,2.15c-3.22,2.28-6.35,4.71-9.69,6.79c-5.82,3.62-12.16,5.98-18.95,7.01
		C215.86,187.41,212.99,187.58,210.14,187.86z"/>
	<path d="M22.7,55.14c0.07-7.27,1.37-13.59,3.53-19.73c2.23-6.34,5.32-12.24,9.52-17.5c2.66-3.33,5.7-6.28,9.33-8.57
		c0.65-0.41,1.32-0.79,2.03-1.07c0.87-0.34,1.42-0.15,1.93,0.61c1.27,1.87,2.52,3.75,3.75,5.63c0.58,0.88,0.38,1.72-0.45,2.36
		c-5.14,3.94-9.55,8.56-12.89,14.13c-3.05,5.09-4.93,10.59-5.51,16.52c-0.61,6.24,0.13,12.34,1.72,18.37
		c0.4,1.52,0.13,2.03-1.38,2.58c-1.86,0.68-3.74,1.32-5.61,1.97c-1.19,0.41-1.73,0.18-2.37-0.89c-1.91-3.2-2.85-6.71-3.29-10.38
		C22.83,57.6,22.77,56,22.7,55.14z"/>
	<path d="M44.51,81.2c-0.1,1.18-0.95,1.65-1.59,2.25c-1.22,1.14-2.49,2.21-3.75,3.31c-0.22,0.19-0.44,0.39-0.67,0.55
		c-1.1,0.78-1.82,0.67-2.63-0.43c-0.88-1.19-1.75-2.4-2.62-3.6c-0.92-1.26-1.83-2.54-2.76-3.79c-0.71-0.96-0.58-1.88,0.45-2.49
		c2.05-1.22,4.11-2.4,6.19-3.58c0.97-0.55,1.73-0.35,2.47,0.65c1.24,1.69,2.45,3.4,3.67,5.09c0.28,0.39,0.59,0.75,0.84,1.15
		C44.29,80.64,44.41,80.99,44.51,81.2z"/>
</g>
</svg>
