<svg id="图层_1" data-name="图层 1" xmlns="http://www.w3.org/2000/svg" viewBox="0 0 276.17 243.38"><title>artificial-intelligence</title><path d="M34.07,94.53c1.62.28,3.47.17,4.83.92,2.91,1.61,4.5.17,6.4-1.75Q62.9,75.92,80.65,58.33C82,57,82.58,55.94,81.84,53.85a18.6,18.6,0,0,1,34.32-14.19,3.62,3.62,0,0,0,3.91,2.41q33.18-.09,66.37,0a3.6,3.6,0,0,0,3.91-2.4,18.62,18.62,0,0,1,34.24,14.52c-.7,1.92-.56,3.05.92,4.53q18.21,18.18,36.23,36.55c1.27,1.3,2.19,1.51,3.95.8a18.64,18.64,0,0,1,14.9,34.16,3.2,3.2,0,0,0-2.19,3.45q.11,26.61,0,53.22c0,1.49.26,2.38,1.82,3.1,7.79,3.66,12.12,11.55,10.92,19.48a18.56,18.56,0,0,1-16,16c-2,.3-3,.94-3.28,2.82a9.76,9.76,0,0,1-.63,1.94c-1.85,4.47-2.74,8,1.79,12.37,5.47,5.26,5.58,12.71,2.12,19.58s-9.33,10.43-17,10.27-13.38-3.94-16.56-11c-1-2.17-2.11-2.75-4.33-2.72-9.26.12-18.52.1-27.78,0-2.08,0-3.22.41-4.15,2.55A18.6,18.6,0,1,1,172.57,244c1.17-1.85,1-3-.18-4.55-3.1-4.25-6.09-8.58-9-12.95a2.65,2.65,0,0,0-3.27-1.39c-9.68,2.09-17.8-2.17-22-11.16a3.7,3.7,0,0,0-2.67-1.83c-16.18-.2-32.36-.22-48.54-.42-2,0-2.36,1-3,2.42a18.66,18.66,0,0,1-35.9-7.92,30.88,30.88,0,0,1,1.7-7c1.27-4.17-3.19-4.71-4.5-7.24-.72-1.38-1.81-1.49-3.41-.78-10,4.39-20.75.31-25-9.3s0-20.41,9.94-24.78a2.72,2.72,0,0,0,1.92-3c-.07-6.53-.11-13.06,0-19.59.05-2.11-.46-3.19-2.55-4.11a18.3,18.3,0,0,1-10.46-21A18.92,18.92,0,0,1,34.07,94.53Zm84.7-43c-2.3,3.62-4.28,6.58-6.06,9.65a3.82,3.82,0,0,0-.39,3c2.19,5,4.51,9.93,7,14.78a3.71,3.71,0,0,0,2.76,1.69c8.32.14,14.27,3.82,18,11.3a3.75,3.75,0,0,0,2.74,1.74c7,.15,14,.14,21,0A3.49,3.49,0,0,0,166.4,92c3.78-7.73,9.91-11.45,18.48-11.42A3.43,3.43,0,0,0,187.43,79c2.4-5,4.63-10.09,6.79-15.19a3.17,3.17,0,0,0-.22-2.52c-1.91-3.19-4-6.29-6.26-9.82ZM254.12,202.88a31.23,31.23,0,0,1,1.9-4.42c.89-1.43.66-2.32-.48-3.5q-10-10.46-19.83-21.06a2.71,2.71,0,0,0-3.48-.89,17.35,17.35,0,0,1-16.2-1.65c-1.61-1-2.52-.6-3.8.34-12.29,9.08-24.64,18.09-36.91,27.2-.83.62-1.19,1.85-1.77,2.8a10.84,10.84,0,0,0,3.21,1q30.24.15,60.48.13Zm.08,10-.18-.64h-3.13c-24,0-48,0-71.93-.15-3.49,0-6.29.15-7.19,4.21-.16.71-1,1.25-1.23,2a2.72,2.72,0,0,0,0,2.06c3.65,5.38,7.39,10.69,11.08,16,7.35-2.37,13.78-1.21,19.34,3.74,1.3,1.15,2.14.74,3.31.1,6.83-3.75,13.69-7.44,20.52-11.17Q239.49,220.93,254.2,212.88ZM216.41,64.14a20.14,20.14,0,0,1-11.61,2.42,2.75,2.75,0,0,0-2,1.42c-2.36,5-4.63,10.07-6.77,15.19-.29.69.19,1.86.61,2.64,1.68,3.13,3.43,6.22,5.28,9.25a4.26,4.26,0,0,0,2.26,2q24.57,4.44,49.18,8.6a3,3,0,0,0,2.55-1,2.82,2.82,0,0,0-.58-2.59C242.52,89.55,229.66,77.05,216.41,64.14ZM51.26,104.69c.82-.08,1.12-.09,1.4-.13,16.63-2.55,33.25-5.08,49.86-7.72.8-.13,1.63-1.1,2.12-1.88q2.89-4.63,5.53-9.41a3.59,3.59,0,0,0,.47-2.67q-3.28-7.47-7-14.76a4.18,4.18,0,0,0-2.58-1.54C97.56,65.72,94,65,90.41,64.31a3.82,3.82,0,0,0-2.88.49c-3.34,3.11-6.52,6.4-9.76,9.64Q64.36,87.85,51,101.3a3.82,3.82,0,0,0-1,2.4C50,104.09,51,104.52,51.26,104.69ZM52.83,114a17.37,17.37,0,0,1-.64,3.15c-1,2.27-.2,3.61,1.75,5,5.15,3.68,10.11,7.62,15.15,11.45,3.16,2.41,6.33,4.8,9.44,7.16,4.94-3.39,10-4.7,15.74-3.48a3,3,0,0,0,2.5-1.07c4.17-7.26,8.22-14.58,12.24-21.92a2.45,2.45,0,0,0,.16-2.05c-1.31-2.12-2.81-4.13-4.29-6.23Zm32.9,88.43c-.57-.2-.39-.08-.22-.08,16.66.11,33.31.23,50,.25.79,0,2.15-.83,2.25-1.45a3.48,3.48,0,0,0-1.06-2.79Q119.91,184.9,103,171.7a3.29,3.29,0,0,0-2.94-.28,21.69,21.69,0,0,1-10.87,2.85,3.19,3.19,0,0,0-2.35,1.5Q83,183.3,79.45,191a3.07,3.07,0,0,0,.26,2.5C81.5,196.34,83.46,199.08,85.73,202.4Zm150.92-62.2c5.32-4.65,10.33-9.28,15.63-13.57,2.81-2.26,4.89-4.27,2.38-8-.31-.44-.11-1.24-.43-1.67-.55-.74-1.24-1.76-2-1.9q-24.57-4.41-49.18-8.59a2.91,2.91,0,0,0-2.46,1.12c-.64,1.3-2.61,2.31-1.15,4.32,6.06,8.36,12,16.78,18.12,25.12a2.47,2.47,0,0,0,2.15.74C225.68,135.82,231.22,136.85,236.65,140.2ZM269,131.85a11.17,11.17,0,0,1-2.93-1c-2.37-1.7-4-.59-5.77,1-5.2,4.71-10.5,9.3-15.83,13.87-1.25,1.07-1.73,1.93-1.06,3.66a16.54,16.54,0,0,1-1,14.39c-1.12,2-.57,3.06.78,4.46,5.79,6,11.51,12.18,17.25,18.29,3.48,3.71,3.47,3.71,8.52,1.78ZM108.89,151.39h32.72c1.49-2.92,2.89-5.66,4.39-8.58L130,117.68c-4,0-7.38-.08-10.73.06a3.09,3.09,0,0,0-2.11,1.38q-6.27,11-12.35,22.19a2.92,2.92,0,0,0-.19,2.32C105.87,146.21,107.36,148.68,108.89,151.39Zm98.31.1a52.72,52.72,0,0,1,2.78-5.81,2.54,2.54,0,0,0-.23-3.35c-5.83-8.05-11.57-16.16-17.46-24.17a3.7,3.7,0,0,0-2.79-1c-2.21.12-4.4.77-6.61.82a2.56,2.56,0,0,0-2.76,1.88c-2.52,6.33-5.22,12.59-7.69,18.94a4,4,0,0,0,.58,2.94c1.59,2.75,3.3,5.44,5.1,8.06.49.72,1.43,1.6,2.17,1.61C189.25,151.53,198.22,151.49,207.2,151.49Zm-53.47-14c2.84-.25,5.36-.37,7.83-.74a3,3,0,0,0,2.05-1.45q4.14-9.65,8-19.4a3.67,3.67,0,0,0-.54-2.71c-1.69-2.9-3.52-5.73-5.36-8.55-.41-.62-1.09-1.52-1.65-1.52-7.57-.11-15.15-.07-22.34-.07-1.39,2.68-2.68,5-3.74,7.33a3.12,3.12,0,0,0,.16,2.54C143.28,121.19,148.53,129.37,153.73,137.52ZM38.12,154.81c3.78,2.77,6.93,5.1,10.12,7.37.57.41,1.39,1,1.93.84,7.08-2,14.12-4,20.88-6a42.2,42.2,0,0,1,1.12-6.71c.59-1.76.12-2.62-1.22-3.63-7.23-5.43-14.49-10.82-21.55-16.47-2.36-1.9-4.15-2.57-6.69-.46-1.21,1-3,1.36-4.59,2.05ZM143.88,192c3.08-1.45,7-2.07,8.46-4.31,1.59-2.45.91-6.39,1.21-9.68.08-.87.13-1.75.26-2.61a2.53,2.53,0,0,0-1.71-3.14,18.83,18.83,0,0,1-9.11-9.46,3.7,3.7,0,0,0-2.64-1.87c-10.11-.14-20.23-.11-30.35,0-.79,0-1.58.69-2.36,1.06.39.78.59,1.78,1.21,2.29,3.28,2.73,6.67,5.35,10,8ZM162,189.16a37.54,37.54,0,0,0,4.49,2.56,3.29,3.29,0,0,0,2.72-.08Q188.15,177.9,206.93,164a7,7,0,0,0,1.28-2c-.79-.37-1.58-1.05-2.37-1.06-8.58-.08-17.15-.09-25.73,0a3.1,3.1,0,0,0-2.34,1.46,19.48,19.48,0,0,1-13,11.33,2.47,2.47,0,0,0-1.55,1.62C162.74,180,162.4,184.62,162,189.16Zm45.87,59.61.13.57c.66,0,1.31.09,2,.09,9.25,0,18.5-.06,27.74.06,2,0,2.77-.7,3.48-2.51,2.3-5.91,6.61-10.55,12.84-11.07,5.73-.47,7.18-3.48,8.13-7.93a18.84,18.84,0,0,0,.79-2.49c.06-.91.05-2.26-.49-2.67-1.22-.93-2.18-2.78-4.45-1.4-4,2.43-8.17,4.51-12.27,6.74ZM78.8,170.72c-1.33-1.43-2.31-2.66-3.47-3.68a2.9,2.9,0,0,0-2.17-.78c-6.82,1.87-13.61,3.87-19.79,5.66-1,3.85-2.11,7.16-2.58,10.56s3.15,4.21,4.69,6.38c.54.76,1.81,1,2.76,1.46.11.05.33-.2.51-.24,3.22-.59,6.45-1.11,9.64-1.79A3.83,3.83,0,0,0,70.83,187C73.58,181.6,76.16,176.16,78.8,170.72Zm90.82-15.16a9.34,9.34,0,1,0-9.32,9.3A9.38,9.38,0,0,0,169.62,155.56ZM122.8,108.7a9.34,9.34,0,1,0-9.3-9.31A9.43,9.43,0,0,0,122.8,108.7ZM43.27,174.36a9.35,9.35,0,1,0-9.4,9.22A9.39,9.39,0,0,0,43.27,174.36Zm23.44,42a9.35,9.35,0,1,0-9.37-9.25A9.42,9.42,0,0,0,66.71,216.34Zm206,0a9.35,9.35,0,1,0-9.47-9.15A9.44,9.44,0,0,0,272.72,216.34Zm-84.41,46.79a9.34,9.34,0,1,0-9.3-9.31A9.42,9.42,0,0,0,188.31,263.13Zm70.34-18.68a9.34,9.34,0,1,0,9.25,9.37A9.38,9.38,0,0,0,258.65,244.45ZM164.94,207.1a9.35,9.35,0,1,0-9.38,9.24A9.4,9.4,0,0,0,164.94,207.1ZM183.76,90A9.35,9.35,0,1,0,193,99.37,9.39,9.39,0,0,0,183.76,90ZM33.9,122.74a9.34,9.34,0,1,0-9.32-9.3A9.39,9.39,0,0,0,33.9,122.74Zm248-9.47a9.35,9.35,0,1,0-9.15,9.46A9.44,9.44,0,0,0,281.94,113.27ZM99.55,38.53a9.35,9.35,0,1,0,9.23,9.38A9.44,9.44,0,0,0,99.55,38.53ZM225.69,146.17a9.34,9.34,0,1,0,9.45,9.17A9.39,9.39,0,0,0,225.69,146.17Zm-9.27-98.39a9.35,9.35,0,1,0-9.17,9.44A9.4,9.4,0,0,0,216.42,47.78ZM90,164.86a9.35,9.35,0,1,0-9.28-9.33A9.39,9.39,0,0,0,90,164.86Z" transform="translate(-15.19 -29.13)"/></svg>