<?xml version="1.0" encoding="iso-8859-1"?>
<!-- Generator: Adobe Illustrator 19.0.0, SVG Export Plug-In . SVG Version: 6.00 Build 0)  -->
<svg version="1.1" id="Capa_1" xmlns="http://www.w3.org/2000/svg" xmlns:xlink="http://www.w3.org/1999/xlink" x="0px" y="0px"
	 viewBox="0 0 512 512" style="enable-background:new 0 0 512 512;" xml:space="preserve">
<g>
	<g>
		<path d="M457.628,326.142V185.858c14.925-5.975,25.5-20.575,25.5-37.608c0-22.332-18.168-40.5-40.5-40.5
			c-9.454,0-18.155,3.265-25.054,8.715L296.076,46.317c0.275-1.901,0.424-3.842,0.424-5.817C296.5,18.168,278.332,0,256,0
			c-22.332,0-40.5,18.168-40.5,40.5c0,1.976,0.149,3.917,0.424,5.817L94.425,116.465c-6.899-5.45-15.6-8.715-25.054-8.715
			c-22.332,0-40.5,18.168-40.5,40.5c0,17.033,10.575,31.634,25.5,37.608v140.284c-14.925,5.975-25.5,20.575-25.5,37.608
			c0,22.332,18.168,40.5,40.5,40.5c9.454,0,18.155-3.265,25.054-8.715l121.499,70.148c-0.275,1.901-0.424,3.842-0.424,5.817
			c0,22.332,18.168,40.5,40.5,40.5s40.5-18.168,40.5-40.5c0-1.976-0.149-3.917-0.424-5.817l121.499-70.148
			c6.899,5.45,15.6,8.715,25.054,8.715c22.332,0,40.5-18.168,40.5-40.5C483.128,346.717,472.553,332.116,457.628,326.142z
			 M84.371,326.141V185.858c3.642-1.457,7.022-3.427,10.054-5.823l98.416,56.821C191,242.918,190,249.344,190,256
			s1,13.082,2.841,19.144l-98.416,56.82C91.393,329.569,88.013,327.599,84.371,326.141z M241,433.891
			c-3.641,1.458-7.021,3.428-10.054,5.823l-121.499-70.148c0.275-1.901,0.424-3.842,0.424-5.817
			c0.001-1.975-0.149-3.916-0.423-5.817l98.432-56.83c8.77,9.351,20.222,16.147,33.12,19.157V433.891z M241,191.74
			c-12.898,3.01-24.35,9.806-33.12,19.157l-98.432-56.83c0.275-1.901,0.424-3.842,0.424-5.818c0-1.976-0.149-3.917-0.424-5.817
			l121.499-70.148c3.032,2.397,6.412,4.367,10.053,5.824V191.74z M271,78.108c3.641-1.458,7.021-3.428,10.054-5.823l121.499,70.147
			c-0.275,1.901-0.424,3.842-0.424,5.818s0.149,3.917,0.423,5.818l-98.432,56.83c-8.77-9.351-20.222-16.147-33.12-19.157V78.108z
			 M402.552,369.568l-121.498,70.147c-3.033-2.396-6.413-4.366-10.054-5.823V320.26c12.898-3.01,24.35-9.806,33.12-19.157
			l98.432,56.83c-0.275,1.901-0.424,3.842-0.424,5.817C402.128,365.726,402.277,367.667,402.552,369.568z M427.629,326.143
			c-3.642,1.456-7.022,3.426-10.054,5.822l-98.416-56.82C321,269.082,322,262.656,322,256s-1-13.082-2.841-19.144l98.416-56.82
			c3.033,2.395,6.412,4.365,10.054,5.823V326.143z"/>
	</g>
</g>
<g>
</g>
<g>
</g>
<g>
</g>
<g>
</g>
<g>
</g>
<g>
</g>
<g>
</g>
<g>
</g>
<g>
</g>
<g>
</g>
<g>
</g>
<g>
</g>
<g>
</g>
<g>
</g>
<g>
</g>
</svg>
