<?xml version="1.0" encoding="utf-8"?>
<!-- Generator: Adobe Illustrator 22.1.0, SVG Export Plug-In . SVG Version: 6.00 Build 0)  -->
<svg version="1.1" id="图层_1" xmlns="http://www.w3.org/2000/svg" xmlns:xlink="http://www.w3.org/1999/xlink" x="0px" y="0px"
	 viewBox="0 0 262.5 262.5" style="enable-background:new 0 0 262.5 262.5;" xml:space="preserve">
<title>more</title>
<path d="M75.7,124.3c-8.5,0-17,0-25.5,0c-13.4,0-23.1-9.7-23.1-23.1c0-17,0-34,0-51C27,36.7,36.7,27,50.2,27c17,0,34,0,51,0
	c13.5,0,23.1,9.7,23.1,23.1c0,17,0,34,0,51c0,13.5-9.7,23.1-23.1,23.1C92.6,124.3,84.1,124.3,75.7,124.3z M109.3,75.5
	c0-8.3,0-16.7,0-25c0-5.6-3-8.6-8.5-8.6c-16.8,0-33.7,0-50.5,0C45,42,42,45,42,50.4c0,16.8,0,33.7,0,50.5c0,5.4,3,8.4,8.3,8.4
	c16.9,0,33.8,0,50.7,0c5.2,0,8.2-3,8.3-8.3C109.3,92.5,109.3,84,109.3,75.5z"/>
<path d="M188,27c8.4,0,16.8,0,25.2,0c13.6,0,23.2,9.7,23.2,23.3c0,16.9,0,33.8,0,50.7c0,13.6-9.7,23.2-23.3,23.2
	c-16.9,0-33.8,0-50.7,0c-13.6,0-23.2-9.7-23.2-23.3c0-16.9,0-33.8,0-50.7c0-13.6,9.7-23.2,23.3-23.2C171.1,27,179.5,27,188,27z
	 M154.2,75.5c0,8.6,0,17.1,0,25.7c0,4.9,3.1,8.1,8,8.1c17.1,0,34.1,0,51.2,0c5.1,0,8.1-3.1,8.1-8.2c0-17,0-34,0-51
	c0-5.1-3.1-8.2-8.1-8.2c-17,0-34,0-51,0c-5.2,0-8.2,3.1-8.2,8.3C154.2,58.7,154.2,67.1,154.2,75.5z"/>
<path d="M27,187.6c0-8.4,0-16.8,0-25.2c0-13.4,9.7-23.1,23.1-23.1c17,0,34,0,51,0c13.5,0,23.1,9.7,23.1,23.1c0,17,0,34,0,51
	c0,13.5-9.7,23.1-23.1,23.1c-17,0-34,0-51,0c-13.4,0-23.1-9.7-23.1-23.1C27,204.8,27,196.2,27,187.6z M42,187.9c0,8.5,0,17,0,25.5
	c0,5.1,3.1,8.2,8.1,8.2c17,0,34,0,51,0c5.2,0,8.2-3,8.2-8.3c0-16.9,0-33.8,0-50.7c0-5.2-3-8.3-8.2-8.3c-16.9,0-33.8,0-50.7,0
	c-5.3,0-8.3,3-8.4,8.4C42,171.1,42,179.5,42,187.9L42,187.9z"/>
<path d="M236.5,187.9c0,8.4,0,16.8,0,25.2c0,13.7-9.6,23.3-23.4,23.4c-16.8,0-33.7,0-50.5,0c-13.8,0-23.3-9.6-23.3-23.4
	c0-16.8,0-33.7,0-50.5c0-13.7,9.6-23.3,23.4-23.3c16.8,0,33.7,0,50.5,0c13.8,0,23.3,9.6,23.3,23.4
	C236.5,171.1,236.5,179.5,236.5,187.9z M221.6,188c0-8.6,0-17.1,0-25.7c0-4.9-3.1-8-8-8.1c-17.1,0-34.1,0-51.2,0
	c-5,0-8.1,3.1-8.1,8.2c0,17,0,34,0,51c0,5.1,3.1,8.2,8.1,8.2c17,0,34,0,51,0c5.2,0,8.2-3,8.2-8.3C221.6,204.8,221.6,196.4,221.6,188
	L221.6,188z"/>
</svg>
