<svg id="图层_1" data-name="图层 1" xmlns="http://www.w3.org/2000/svg" viewBox="0 0 120 120"><defs><style>.cls-1{fill:#fff;}</style></defs><title>mingpai</title><rect class="cls-1" x="25.22" y="30.19" width="81.77" height="46.73" rx="11.5" transform="translate(-17.39 37.23) rotate(-27.95)"/><path d="M88.93,21.39h0l16.61,31.3-62.26,33L26.67,54.42l62.26-33m0-5.65a5.62,5.62,0,0,0-2.65.66L24,49.43a5.65,5.65,0,0,0-2.35,7.64l16.61,31.3a5.65,5.65,0,0,0,7.64,2.34l62.25-33A5.65,5.65,0,0,0,110.53,50L93.92,18.74a5.64,5.64,0,0,0-5-3Z"/><polygon points="101.4 51.43 44.62 82.71 30.81 55.68 87.59 24.4 101.4 51.43"/><path class="cls-1" d="M39.1,74.51a2.46,2.46,0,1,1,3.37,1.1A2.46,2.46,0,0,1,39.1,74.51Z"/><path class="cls-1" d="M43.34,66.2a7.51,7.51,0,0,1,3-10.61A6.59,6.59,0,0,1,51,55l-.44,3.14a3.44,3.44,0,0,0-2.51.22c-2,1.09-2.49,3.45-1.14,6s3.57,3.35,5.49,2.31a4.68,4.68,0,0,0,2-2.45L57,65.7a7.5,7.5,0,0,1-3.46,3.94C49.87,71.62,45.7,70.57,43.34,66.2Z"/><path class="cls-1" d="M55.09,59.86c-2.39-4.42-.71-8.61,2.59-10.4S65.42,48.58,67.8,53s.69,8.57-2.62,10.35S57.45,64.23,55.09,59.86Zm9.16-5c-1.35-2.5-3.24-3.58-5-2.61s-1.93,3.14-.58,5.65,3.23,3.54,5,2.57S65.59,57.39,64.25,54.91Z"/><path class="cls-1" d="M67.13,44.79,70,43.26l1.2,1.64.09,0a6.33,6.33,0,0,1,2.93-4.29,4.1,4.1,0,0,1,4.89.35c.51-1.93,1.23-3.65,3-4.59,2.81-1.51,5.18-.23,7,3.1l4.45,8.24L90,49.54l-4.22-7.82c-1.1-2-2.09-2.44-3.34-1.77a4.37,4.37,0,0,0-1.74,2.87l4.91,9.09-3.48,1.88L77.89,46c-1.09-2-2.08-2.45-3.33-1.77a4.37,4.37,0,0,0-1.75,2.86l4.91,9.1L74.27,58Z"/><rect class="cls-1" x="16.69" y="46.05" width="98.83" height="56.48" rx="11.83"/><path d="M109.87,51.7V96.88H22.34V51.7h87.53m0-5.65H22.34a5.65,5.65,0,0,0-5.65,5.65V96.88a5.65,5.65,0,0,0,5.65,5.65h87.53a5.65,5.65,0,0,0,5.65-5.65V51.7a5.65,5.65,0,0,0-5.65-5.65Z"/><rect x="26.57" y="55.8" width="79.07" height="36.98"/><path class="cls-1" d="M42.14,62.32c-.13.28-.3.53-.44.81a51.07,51.07,0,0,1,6.86,6.58l-1.77,2.46a23.52,23.52,0,0,0-1.88-2.24v2.49H35.84V70.87A28.77,28.77,0,0,1,33,73.38a17.45,17.45,0,0,0-1.44-3.09,26.35,26.35,0,0,0,7.88-9Zm5.45,19.11.14,2.85c-4.9.91-10.18,1.82-14,2.49L33,83.53c2.18-.27,5.17-.66,8.4-1.16a54.74,54.74,0,0,0,3-8.87l3,.6c-.88,2.6-2,5.53-3,7.83ZM35.81,74.49a40.85,40.85,0,0,1,2,6.36l-2.68,1a43,43,0,0,0-1.86-6.5Zm8.82-4.87a57,57,0,0,0-4.37-4.12A45.68,45.68,0,0,1,37,69.62ZM40.9,73.5a48.83,48.83,0,0,1,1.35,6.38l-2.73.69a52.58,52.58,0,0,0-1.19-6.49Zm10.84,6.77H48.92V64.81h2.82Zm5.2-18.14V83.67c0,1.69-.34,2.49-1.33,3s-2.55.61-4.84.61a10.76,10.76,0,0,0-.94-3c1.6.06,3.12.06,3.62.06s.64-.17.64-.64V62.13Z"/><path class="cls-1" d="M84.19,83.42c0,1.85-.42,2.77-1.63,3.29s-2.94.64-5.56.61A13.22,13.22,0,0,0,75.78,84c1.74.14,3.76.11,4.31.11s.81-.22.81-.74V66.22H64.14V71l1.6-1.72c.86.92,1.77,1.94,2.66,3,.33-1.52.55-3.15.75-4.81l2.93.31A58.58,58.58,0,0,1,70.69,75c1,1.22,1.83,2.41,2.46,3.32l-2,2.29c-.38-.66-.94-1.46-1.57-2.35a18.42,18.42,0,0,1-3.52,5.92,11.86,11.86,0,0,0-1.93-1.38v4.59H60.85V63.1H84.19Zm-20-1.66a17.23,17.23,0,0,0,3.4-6.25c-1.13-1.38-2.29-2.82-3.4-4Zm14.55-.5a31.32,31.32,0,0,0-1.58-2.87,19.26,19.26,0,0,1-3.65,6,20.69,20.69,0,0,0-2.54-1.74,16.92,16.92,0,0,0,4.2-7.25,48,48,0,0,0-3.46-4.2l2-1.8c.78.8,1.58,1.69,2.35,2.63a43.4,43.4,0,0,0,.72-4.56l2.9.27A49,49,0,0,1,78.27,75a27.36,27.36,0,0,1,2.57,4.23Z"/><path class="cls-1" d="M87.05,82.54,89,80a6.52,6.52,0,0,0,4.56,2.1c2.07,0,3.49-1,3.49-2.85,0-2-1.2-3.26-5.65-3.26V73c3.76,0,5-1.29,5-3.12,0-1.6-1-2.54-2.74-2.57a5.89,5.89,0,0,0-3.87,1.82l-2.07-2.48a9.07,9.07,0,0,1,6.14-2.52c4,0,6.63,1.93,6.63,5.45A4.85,4.85,0,0,1,97,74.27v.14a5.11,5.11,0,0,1,4.09,5c0,3.76-3.29,6-7.19,6A8.71,8.71,0,0,1,87.05,82.54Z"/><path d="M16.69,62.3A12.28,12.28,0,1,1,29.87,50.06,12.16,12.16,0,0,1,28,56.6h3.22a14.93,14.93,0,0,0,1.51-6.54,15.11,15.11,0,1,0-16,15.07Z"/></svg>