<svg id="图层_1" data-name="图层 1" xmlns="http://www.w3.org/2000/svg" viewBox="0 0 120 120"><title>mingpai 副本</title><path d="M56.32,27.65l3.84-1A32.86,32.86,0,0,0,56.32,27.65Z"/><path d="M26.28,86.63c-4.12,5.56-5.68,10.2-6.13,19.19,10.58-.53,14.16-.65,21.63-7.32a31.43,31.43,0,0,1-3.4-1.25C33.33,95.05,30.27,90.93,26.28,86.63Z"/><path d="M95.56,86.09a5.78,5.78,0,0,1-3,2c-1.35-.15-2.69-.32-4-.49a1.6,1.6,0,0,1-.68-.18c-2-1.28-4-2.56-6-3.87a2,2,0,0,1-.59-.82c-.86-1.79-1.64-3.58-2.57-5.29C78,75.93,77,74.54,76.13,73.11l-.27.08a4.18,4.18,0,0,0-.19.6c-.6,3.66-1.12,7.36-1.86,11a48.93,48.93,0,0,1-1.86,6c-.25.76-2.45,1.41-3.18,1.09-1-.45-2-.88-3.1-1.23A3.08,3.08,0,0,1,63.83,89a3.76,3.76,0,0,0-1.46-1.55c-1.92-1-3.93-1.79-5.9-2.7a2.34,2.34,0,0,1-.91-.6c1.3.11,2.6.2,3.9.33A7.37,7.37,0,0,0,63.63,84a1.86,1.86,0,0,1,1.06-.23c.85.18,1.23-.19,1.51-.92a47.36,47.36,0,0,0,3-11.15,1.82,1.82,0,0,0,0-.33L62,78.64l.09.12,2-1.68a.69.69,0,0,1,0,.34A23.2,23.2,0,0,1,57,82.63c-.49.24-.89.31-1-.46l-1.69.9c4.31-4.37,9-8.35,11.79-14.16a3.65,3.65,0,0,0-2.89,1.57c-1.43,1.79-2.83,3.58-4.3,5.36l-1.24-.93c-.23.25-.55.59-.88,1-1.32-.52-1.9,1-3.32,1.2a9.19,9.19,0,0,1,.76-1.58q5-6.37,10-12.7a5,5,0,0,1,1-1,1.41,1.41,0,0,1,2.25.29C69,63.84,69,63.84,67.2,65.29l-1.53,1.3,3.66,1.19a8.46,8.46,0,0,0-2.5-8.54c-.21.18-.41.34-.6.52L57.07,68.4c-.08.07-.19.12-.22.21-.51,1.49-2.17,1.66-3.08,2.69a1.73,1.73,0,0,1-1.13.39l.63-.93-.1-.09-2.08,1.64-.2-.2,2-2.24-.1-.18-2.57,1.36L50,70.79,65.08,54.65,65,54.48c-.59.32-1.24.6-1.82,1C60.83,57,58.55,58.55,56.2,60a17,17,0,0,1-2.84,1.31,2.29,2.29,0,0,1-1.1.15c-1.72-.22-1.65-.22-2,1.47-.46,1.86-1.08,3.69-1.6,5.54C47,74.27,45.36,80,43.8,85.8a6.25,6.25,0,0,1-2,3.2,6.72,6.72,0,0,1-2,.8l-.7-1.19-1.53,1.47c.29-3.22-1.43-5.45-3.3-7.66A3.08,3.08,0,0,1,33.87,79c.65-1.33,1.45-2.59,2.21-3.87a10,10,0,0,0,1.79-5.71,7.64,7.64,0,0,0-.1-.85c-1,.59-1.79,1.11-2.63,1.66-1.54,1-1.87,1-2.81-.67a3.61,3.61,0,0,1,.48-4.74c1.49-1.65,3-3.3,4.5-5l-.1-.16c-1.67.6-3.33,1.27-5,1.85-1.22.41-1.38.32-1.78-.87-.45-1.42-.84-2.85-1.26-4.28a1.45,1.45,0,0,1,.6-1.7c4.34-3,7.46-7.25,11.15-10.93a10.94,10.94,0,0,0,2.93-4.81c.06-.22.09-.45.15-.81-1.09.28-.91,1.31-1.51,2.11l.46-2.38-.6-.79a7.65,7.65,0,0,0-.9-1.14c-.55-.49-1.2-.9-1.71-1.31a4,4,0,0,1,3.3-.83,2.62,2.62,0,0,1,.87.47,14.65,14.65,0,0,0,1.64,1c.7.34,1.52.47,2.2.85,1.37.79,2.7,1.67,4,2.53.6.38,1.63,3,1.34,3.68a1.93,1.93,0,0,1-1,.8,28.28,28.28,0,0,0-7.82,5.19c-.36.34-.68.73-1.25,1.35,1.9-.25,3.63-.67,4.41,1.42l1-1.14c.26,2.28-1,4-1.55,5.88l.8-.87.16.1a8.21,8.21,0,0,1-.44.83c-2.35,3.14-4.68,6.3-7.09,9.4-.65.84-.7,1.41,0,2.16a18.91,18.91,0,0,1,1.54,1.91l5.77-8.08c0-.09.14-.21.12-.27-.66-1.4.59-2.15,1.08-3.14a21.66,21.66,0,0,1,1.4-2.17l.36.6c.48-1,1-1.89,1.34-2.84a1.34,1.34,0,0,1,1.58-1c1.56.37,2.78-.54,4.27-.78-.42-1.76-.78-3.4-1.22-5a1.49,1.49,0,0,1,.74-1.94,18.41,18.41,0,0,0,7.25-8c.73-1.55.67-1.86-.6-2.9l.47-.22-.89-.36A2.5,2.5,0,0,1,66.3,31a2.42,2.42,0,0,1,.83.21c.74.31,1.52.5,2.28.77.3.1.6.28.51.49l-.5,3,.25.1.71-.56.16.08-.78,2c1.59-.39,3-.72,4.44-1.11s2.84-.85,4.27-1.28c1.92-.6,2.38-.37,3.35,1.37.15.26.28.53.45.82-2.38,2.77-4.77,5.58-7.84,7.61-.28.18-.6.53-.87.49-1.78-.22-1.92,1.44-2.77,2.28l.12.23c1.37-.44,2.73-.89,4.1-1.32,2.15-.69,4.29-1.44,6.47-2a2.85,2.85,0,0,1,1.88.32c1.24.67,2.39,1.49,3.64,2.28-.6.59-1.06,1.19-1.92.59a.65.65,0,0,0-.59,0c-1.11.86-2.45.49-3.67.72a3.2,3.2,0,0,0-1.37.64l2.17-.56.06.17c-1.13.41-2.26.79-3.37,1.24-2.09.83-4.17,1.67-6.24,2.58a5.57,5.57,0,0,0-3.42,3.77l7.15,7.4C76.94,61,78.44,59,78.41,56.46c0-1,1.08-.73,1.57-1.52l2.14,4.48.35-1.51A11.85,11.85,0,0,1,81.1,64c-.2.35-.39.71-.59,1.07a2.09,2.09,0,0,0,.3,2.61c1.41,1.55,2.77,3.16,4.26,4.64,2.14,2.12,4.39,4.13,6.55,6.22a3.45,3.45,0,0,0,3.83.81c2.13-.74,4.28-1.41,6.5-2l-1,.8.06.13,2.24-.8A26.21,26.21,0,0,0,101.08,56a17.13,17.13,0,0,1,4.4,5.44A34.76,34.76,0,0,0,98,39l-2.89,2.94-3-2.31,11.29-11.49,3.39-.87c1.32-.34,1.28-1.27.39-2.3l-2.89-3.32L101,18.74c-1-.89-2-.94-2.3.39l-.87,3.39-12.25,12,0-5.24a42.7,42.7,0,0,0-4.9-1.94l-4.19,0,1.11-.92A51.83,51.83,0,0,0,69,25.13c1.83-1.43,5.85-2.19,8.66-2.83-4.57-1.85-12.54-2.1-19.07,0a9.49,9.49,0,0,1-2,3.63c-.94.85-1.83,1.61-2.64,2.35L49.2,29.5c1.56-1.65,3.4-3.48,5.63-5.66s1.89-5.68,1.6-8C53.91,20,49.29,22.22,43,25A30.5,30.5,0,0,0,30.72,35c-.8-3.42-1.59-6.49-4.38-8.87.89,5.77-1.46,15.08-1.91,16.26s-1,2.55-3,7.42S19.65,64.05,21,67c-3.18-2.24-7.1-3.5-10.83-2.15,6.28,3.2,9.84,10.31,14,15.77,6.08,7.94,13,13.2,21.2,14.91h.06a28.12,28.12,0,0,0,5.24.58c4.71.5,11.59,1.14,16.41,1.22a44.41,44.41,0,0,1-16.69,5.3c14.86,3.91,29.05,1.69,38-7.58-.72,1.25-1.46,2.59-2.28,3.78a40.9,40.9,0,0,0,16-18.27c-2.39,1.73-4.79,3.48-7.26,5.29ZM60.16,26.65l.29-.07.27,0c-.19,0-.37.09-.56.12l-3.84,1A32.86,32.86,0,0,1,60.16,26.65Z"/><path d="M48.24,62.43l.75-.65.12,1.2c.61-1.19,1.11-2.2,1.73-3.44v0C48.85,59.8,48.61,61.09,48.24,62.43Z"/><path d="M60.45,26.58l-.29.07c.19,0,.37-.08.56-.12Z"/><path d="M67.93,43.32c1.85-.23,2.57-1.67,3.53-2.87l-.16-.3-3.08,1.2c-.27-.07-.92-.45-1.23-.27-1.62,1-3.17,2.1-4.74,3.16l.16.27A56,56,0,0,1,67.93,43.32Z"/><path d="M68.49,47.44,62.3,50.65l.11.23c1.89-.77,3.79-1.51,5.65-2.32.3-.13.46-.6.68-.9Z"/><path d="M107.67,75.93l-4.47,1.59c-.33,1-.72,2.07-1.15,3.07.84-.61,1.68-1.23,2.53-1.83a22.87,22.87,0,0,1,2.81-1.49l-.12-.23-3.52,1.49-.14-.27,4.18-2Z"/><polygon points="62.24 44.22 62.24 44.25 62.25 44.24 62.24 44.22"/></svg>