<?xml version="1.0" encoding="utf-8"?>
<!-- Generator: Adobe Illustrator 22.1.0, SVG Export Plug-In . SVG Version: 6.00 Build 0)  -->
<svg version="1.1" id="图层_1" xmlns="http://www.w3.org/2000/svg" xmlns:xlink="http://www.w3.org/1999/xlink" x="0px" y="0px"
	 viewBox="0 0 300 300" style="enable-background:new 0 0 300 300;" xml:space="preserve">
<g>
	<g>
		<path d="M293.2,128.8c-0.5,2-1,4.1-1.6,6.1c-4.4,14.9-27.4,31.6-47.8,21.9c-20.3-9.6-24.4-37.9-7.2-52.4
			c5.7-4.8,11.7-9.1,19.4-10.4c17-3,33.2,7.9,36.6,24.8c0.1,0.7,0.4,1.4,0.6,2.1C293.2,123.6,293.2,126.2,293.2,128.8z M261.8,110.3
			c-4.7-0.1-9.5,2.3-14.8,7.4c-4.5,4.3-5.8,11.2-3.1,16.9c2.8,5.8,8.7,9,15,8.3c5-0.5,8.6-3.6,12.3-6.6c5-4.1,6.5-10.3,4.3-16.3
			C273.4,114.2,268,110.4,261.8,110.3z"/>
		<path d="M233.1,211.1c0,6.7,0.2,13.9-2.2,21c-5.8,17.1-17.7,27.5-35.2,31.5c-9.6,2.2-19,0.9-28-3.1c-3.6-1.6-7.3-3.3-11.1-4.3
			c-6.6-1.7-13.1-0.7-19.2,2.3c-8.2,4.1-16.7,6.5-26,5.9C90,263,71.6,247.6,68.7,226.3c-4-29.1,1.3-56.2,22.6-78.2
			c12.9-13.3,28.5-21.6,46.8-24.3c35.1-5.1,68.1,11.3,85.1,42.4C229.9,178.4,233.6,190.9,233.1,211.1z M217.1,210.4
			c-0.2,0-0.5-0.1-0.7-0.1c0.3-14.9-1.8-22.5-5.3-30.7c-11.9-27.6-40.9-43.9-71.1-39.2c-24.8,3.9-46.9,23.8-53.2,48.1
			c-2.8,11-2.9,22.1-2,33.2c1,13.8,13.3,25,27.1,25.9c6.5,0.5,12.5-1.3,18.2-4.2c6.3-3.2,13.1-4.7,20.1-4.8
			c8.8-0.1,16.7,2.8,24.5,6.5c15.6,7.3,34.7-0.9,39.9-17.3C216.3,222.3,216.3,216.2,217.1,210.4z"/>
		<path d="M105.3,34.3c13.2,0.2,24.8,7.9,29.1,20.4c2.7,7.7,5.6,15.5,6.4,23.5c1.6,15.8-9.2,28.9-25.2,32.5c-14,3.2-29.5-5-34.9-19
			c-2.8-7-5.4-14.3-6.6-21.7C70.8,51.2,86.2,34.1,105.3,34.3z M124.3,78.4c-1.5-6.3-3.2-14.2-7.3-21.1c-3.5-6-11.3-7.8-17.7-5.1
			C92.8,55,89,61.7,90.7,68.5c1.5,5.9,3.4,11.8,5.6,17.4c2.6,6.5,9.5,9.7,16.5,8.2C119.5,92.8,124.3,86.8,124.3,78.4z"/>
		<path d="M192.8,111.6c-22.4-0.1-37.4-19.7-31.9-39.6c1.6-5.9,3.5-11.7,5.7-17.4c5.9-15.4,23-23.5,38.8-18.4
			c15.9,5.1,25.3,21.7,20.9,37.7c-2.2,7.8-4.7,15.8-8.5,22.8C212.2,106.8,202.6,111.2,192.8,111.6z M191.4,94.8
			c6.4,0,11.6-3.8,13.9-10.4c1.6-4.5,3.1-9.1,4.4-13.8c2.3-8.1-1.7-16-9.4-18.6c-7.5-2.5-15.5,1.3-18.5,9.1
			c-1.9,5-3.6,10.2-4.9,15.3C174.5,86,181.6,94.8,191.4,94.8z"/>
		<path d="M43.4,159c-14.5,0.4-36.6-14.8-35.8-35.1c0.5-11.9,5.7-21.1,16-27c10.4-5.9,21.2-5.7,31.6,0.3c7.4,4.4,14,9.8,17.5,18.1
			C81.4,136.2,65.9,159.3,43.4,159z M43.5,142.2c5.8,0,10.9-3.1,13.4-8.3c2.5-5.4,2.3-11-1.8-15.3c-3.1-3.3-7-6.2-11.1-8
			c-7.9-3.4-16.9,1.7-19.1,10.1C22.4,130.5,32.5,142.2,43.5,142.2z"/>
	</g>
</g>
</svg>
