<?xml version="1.0" encoding="iso-8859-1"?>
<!-- Generator: Adobe Illustrator 19.0.0, SVG Export Plug-In . SVG Version: 6.00 Build 0)  -->
<svg version="1.1" id="Capa_1" xmlns="http://www.w3.org/2000/svg" xmlns:xlink="http://www.w3.org/1999/xlink" x="0px" y="0px"
	 viewBox="0 0 512 512" style="enable-background:new 0 0 512 512;" xml:space="preserve">
<path style="fill:#5C626B;" d="M40.786,57.044c-18.848-1.828-35.8,11.618-38.31,30.387c-5.274,39.437-6.006,107.933,38.646,158.53
	l145.235-115.197C147.253,75.766,80.388,60.886,40.786,57.044z"/>
<path style="fill:#F3C0CC;" d="M69.524,223.433c-31.493-34.816-35.237-82.353-32.803-116.205
	c0.568-7.892,7.732-13.575,15.547-12.331c33.516,5.336,78.953,19.803,105.686,58.395L69.524,223.433z"/>
<path style="opacity:0.1;enable-background:new    ;" d="M52.268,94.898c-7.814-1.244-14.979,4.439-15.547,12.331
	c-0.136,1.886-0.249,3.821-0.342,5.787c22.292,1.143,68.196,30.461,89.056,66.069l32.519-25.793
	C131.222,114.701,85.785,100.233,52.268,94.898z"/>
<path style="fill:#5C626B;" d="M471.214,57.044c18.848-1.828,35.8,11.618,38.31,30.387c5.275,39.437,6.006,107.933-38.646,158.53
	L325.643,130.764C364.747,75.766,431.612,60.886,471.214,57.044z"/>
<path style="fill:#F3C0CC;" d="M442.476,223.433c31.493-34.816,35.237-82.353,32.802-116.205
	c-0.568-7.892-7.732-13.575-15.547-12.331c-33.516,5.336-78.953,19.803-105.686,58.395L442.476,223.433z"/>
<path style="opacity:0.1;enable-background:new    ;" d="M459.732,94.898c7.814-1.244,14.979,4.439,15.547,12.331
	c0.136,1.886,0.249,3.821,0.342,5.787c-22.292,1.143-68.196,30.461-89.056,66.069l-32.519-25.793
	C380.778,114.701,426.216,100.233,459.732,94.898z"/>
<path style="fill:#F3C0CC;" d="M294.835,397.472L294.835,397.472c-26.435-4.848-53.532-4.848-79.968,0l0,0
	c-11.423,2.095-16.475,15.623-9.222,24.693l12.087,15.114c19.027,23.792,55.21,23.792,74.237,0l12.087-15.114
	C311.31,413.095,306.258,399.567,294.835,397.472z"/>
<g>
	<path style="fill:#494F57;" d="M176.907,403.713c-0.672,0-1.355-0.091-2.034-0.282l-69.701-19.603
		c-3.987-1.121-6.312-5.263-5.189-9.251c1.122-3.986,5.265-6.308,9.25-5.189l69.701,19.603c3.987,1.121,6.311,5.263,5.189,9.251
		C183.192,401.55,180.183,403.713,176.907,403.713z"/>
	<path style="fill:#494F57;" d="M102.481,451.867c-3.675,0-6.885-2.704-7.416-6.448c-0.581-4.102,2.271-7.897,6.373-8.479
		l71.688-10.165c4.092-0.583,7.896,2.271,8.479,6.373c0.581,4.101-2.271,7.897-6.373,8.479l-71.687,10.165
		C103.188,451.843,102.832,451.867,102.481,451.867z"/>
	<path style="fill:#494F57;" d="M332.794,403.713c-3.276,0-6.285-2.163-7.216-5.471c-1.122-3.988,1.202-8.129,5.19-9.251
		l69.701-19.603c3.987-1.121,8.129,1.202,9.25,5.189c1.122,3.988-1.202,8.129-5.19,9.251l-69.701,19.603
		C334.149,403.622,333.466,403.713,332.794,403.713z"/>
	<path style="fill:#494F57;" d="M407.22,451.867c-0.351,0-0.706-0.024-1.063-0.075l-71.688-10.165
		c-4.102-0.582-6.954-4.378-6.373-8.479c0.582-4.101,4.387-6.955,8.478-6.373l71.688,10.165c4.102,0.582,6.954,4.378,6.373,8.479
		C414.105,449.163,410.895,451.867,407.22,451.867z"/>
</g>
<path style="fill:#5C626B;" d="M484.313,435.224c-1.184,0-2.384-0.118-3.59-0.365c-9.637-1.973-15.852-11.385-13.879-21.022
	c2.901-14.179,4.373-28.779,4.373-43.392c0-118.671-96.545-215.216-215.216-215.216S40.783,251.774,40.783,370.445
	c0,14.613,1.472,29.213,4.373,43.392c1.973,9.638-4.242,19.05-13.879,21.022c-9.631,1.974-19.05-4.241-21.023-13.88
	c-3.382-16.525-5.097-33.527-5.097-50.535C5.158,232.13,117.685,119.603,256,119.603S506.842,232.13,506.842,370.445
	c0,17.007-1.715,34.01-5.097,50.535C500.02,429.412,492.598,435.224,484.313,435.224z"/>
<path style="opacity:0.1;enable-background:new    ;" d="M228.461,395.424c-4.546,0.545-9.08,1.22-13.594,2.048
	c-11.423,2.095-16.475,15.623-9.222,24.693l12.087,15.114c13.509,16.892,35.663,21.777,54.188,14.682
	C234.827,448.384,225.391,407.726,228.461,395.424z"/>
<g>
</g>
<g>
</g>
<g>
</g>
<g>
</g>
<g>
</g>
<g>
</g>
<g>
</g>
<g>
</g>
<g>
</g>
<g>
</g>
<g>
</g>
<g>
</g>
<g>
</g>
<g>
</g>
<g>
</g>
</svg>
