<?xml version="1.0" encoding="utf-8"?>
<!-- Generator: Adobe Illustrator 22.1.0, SVG Export Plug-In . SVG Version: 6.00 Build 0)  -->
<svg version="1.1" id="Capa_1" xmlns="http://www.w3.org/2000/svg" xmlns:xlink="http://www.w3.org/1999/xlink" x="0px" y="0px"
	 viewBox="0 0 512 512" style="enable-background:new 0 0 512 512;" xml:space="preserve">
<g>
	<path d="M257,113.1c8.1,0,14.8-6.7,14.8-14.8V45.9c0-8.1-6.7-14.8-14.8-14.8s-14.8,6.7-14.8,14.8v52.4
		C242.2,106.5,248.8,113.1,257,113.1z"/>
	<path d="M175.2,138.4c5.7,5.7,15.1,5.7,21,0c5.7-5.7,5.7-15.1,0-21l-37-37c-5.7-5.7-15.1-5.7-21,0c-5.7,5.7-5.7,15.1,0,21
		L175.2,138.4z"/>
	<path d="M328.2,142.6c3.8,0,7.6-1.5,10.4-4.4l37-37c5.7-5.7,5.7-15.1,0-21c-5.7-5.7-15.1-5.7-21,0l-37,37
		C308.4,126.7,315.2,142.6,328.2,142.6L328.2,142.6z"/>
	<path d="M509.3,444.7l-39.5-126.5c-2-6.2-7.6-10.4-14.2-10.4h-69.2l-36.3-116.1c-2-6.2-7.6-10.4-14.2-10.4h-158
		c-6.5,0-12.2,4.2-14.2,10.4l-36.3,116.1H58.3c-6.5,0-12.2,4.2-14.2,10.4L4.7,444.7c-3,9.5,4.2,19.2,14.2,19.2h476.4
		C505.1,464,512.3,454.3,509.3,444.7z M188.9,211h136.4l30.3,96.8c-23.5,0-173.4,0-196.9,0L188.9,211z M257,399.4l-19.4-62h38.7
		L257,399.4z M38.9,434.4l30.3-96.8h137.3l30.3,96.8L38.9,434.4L38.9,434.4z M277.1,434.4l30.3-96.8h137.3l30.3,96.8L277.1,434.4
		L277.1,434.4z"/>
</g>
</svg>
