<?xml version="1.0" encoding="utf-8"?>
<!-- Generator: Adobe Illustrator 22.1.0, SVG Export Plug-In . SVG Version: 6.00 Build 0)  -->
<svg version="1.1" id="图层_1" xmlns="http://www.w3.org/2000/svg" xmlns:xlink="http://www.w3.org/1999/xlink" x="0px" y="0px"
	 viewBox="0 0 307.2 307.2" style="enable-background:new 0 0 307.2 307.2;" xml:space="preserve">
<g>
	<path d="M185.5,129.8c34.3-27.9,63.8-61.5,87-99.4c0.5-0.8,0.4-1.9-0.4-2.5s-1.8-0.7-2.5-0.1c-8.1,6-20.7,14.8-33.4,21.1
		c-16.4,8.1-34.1,11.4-43,12.7c-3.8,0.5-7.1,2.7-9.2,5.8c-4.4,6.7-12.9,19.4-23.9,33.6c5.1,6.3,10.6,12.8,16.3,19
		C179.6,123.5,182.6,126.7,185.5,129.8L185.5,129.8z"/>
	<path d="M120,146.9c-14.5,15.5-24.8,25.9-30.7,31.8l-2.7-2.7c-3.3-3.3-8.6-3.3-11.9,0c-3.3,3.3-3.3,8.6,0,11.9l1.2,1.2
		c-3-0.3-6.1,0.7-8.5,3c-2.7,2.7-3.6,6.5-2.7,10c-3.5-0.9-7.3,0-10,2.7c-2.7,2.7-3.6,6.5-2.7,10c-3.5-0.9-7.3,0-10,2.7
		c-2.5,2.5-3.5,6-2.9,9.2l-1.6-1.6c-3.3-3.3-8.6-3.3-11.9,0c-3.3,3.3-3.3,8.6,0,11.9l35.5,35.5c1.4,1.4,3.1,2.2,5,2.4l19.5,2.1
		c0.3,0,0.6,0.1,0.9,0.1c4.2,0,7.9-3.2,8.3-7.5c0.5-4.6-2.8-8.8-7.4-9.3l-16.5-1.8l-12-12c0.6,0.1,1.2,0.2,1.8,0.2
		c2.7,0,5.4-1,7.4-3.1c2.7-2.7,3.6-6.5,2.7-10c0.8,0.2,1.7,0.3,2.6,0.3c2.7,0,5.4-1,7.4-3.1c2.7-2.7,3.6-6.5,2.7-10
		c0.8,0.2,1.7,0.3,2.6,0.3c2.7,0,5.4-1,7.4-3.1c2.3-2.3,3.3-5.4,3-8.5l2.4,2.4l1.8,16.5c0.5,4.3,4.1,7.5,8.3,7.5
		c0.3,0,0.6,0,0.9-0.1c4.6-0.5,7.9-4.7,7.4-9.3l-2.1-19.5c-0.2-1.9-1.1-3.7-2.4-5l-4.9-4.9l34.5-34.5
		C134.8,157.8,127.3,152.5,120,146.9L120,146.9z"/>
	<path d="M278.7,225.2c-3.3-3.3-8.6-3.3-11.9,0l-1.6,1.6c0.6-3.3-0.4-6.7-2.9-9.2c-2.7-2.7-6.5-3.6-10-2.7c0.9-3.5,0-7.3-2.7-10
		c-2.7-2.7-6.5-3.6-10-2.7c0.9-3.5,0-7.3-2.7-10c-1-1-2.1-1.7-3.3-2.2c-1.6-0.7-3.4-1-5.2-0.8l1.2-1.2c3.3-3.3,3.3-8.6,0-11.9
		c-3.3-3.3-8.6-3.3-11.9,0l-2.7,2.7c-8-8-24-24.3-47.8-50.1c-21.8-23.7-39.8-50.2-46.9-61.2c-2.1-3.2-5.4-5.3-9.2-5.8
		c-8.9-1.2-26.6-4.6-43-12.7c-12.7-6.3-25.3-15.1-33.4-21.1c-0.4-0.3-0.8-0.4-1.2-0.4c-0.5,0-1,0.2-1.3,0.5
		c-0.7,0.6-0.9,1.7-0.4,2.5c30.6,49.8,71.9,92.2,120.9,124.1l2.1,1.4l41.5,41.5l-4.9,4.9c-1.4,1.4-2.2,3.1-2.4,5l-0.1,0.5l-2.1,18.9
		c-0.5,4.6,2.8,8.8,7.4,9.3c0.3,0,0.6,0.1,0.9,0.1c4.2,0,7.9-3.2,8.3-7.5l1.1-9.8l3.9-3.9c0.5,1.2,1.3,2.3,2.2,3.3
		c2.1,2.1,4.7,3.1,7.4,3.1c0.9,0,1.7-0.1,2.6-0.3c-0.9,3.5,0,7.3,2.7,10c2.1,2.1,4.7,3.1,7.4,3.1c0.9,0,1.7-0.1,2.6-0.3
		c-0.9,3.5,0,7.3,2.7,10c2.1,2.1,4.7,3.1,7.4,3.1c0.6,0,1.2-0.1,1.8-0.2l-12,12l-16.5,1.8c-4.6,0.5-7.9,4.7-7.4,9.3
		c0.5,4.3,4.1,7.5,8.3,7.5c0.3,0,0.6,0,0.9-0.1l19.5-2.1c1.9-0.2,3.7-1.1,5-2.4l35.5-35.5C282,233.8,282,228.5,278.7,225.2
		L278.7,225.2z"/>
</g>
</svg>
