<svg id="图层_1" data-name="图层 1" xmlns="http://www.w3.org/2000/svg" viewBox="0 0 262.1 288"><defs><style>.cls-1{fill:#f2f0f3;}.cls-2{fill:#fecf64;}.cls-3{fill:#f7e782;}.cls-4{fill:#f7e783;}.cls-5{fill:#fed065;}.cls-6{fill:#d5d9f1;}.cls-7{fill:#d4d8f1;}.cls-8{fill:#bc95e3;}.cls-9{fill:#717ed3;}.cls-10{fill:#9d67d5;}.cls-11{fill:#9d66d5;}.cls-12{fill:#f9f2c6;}.cls-13{fill:#d2d7f1;}.cls-14{fill:#f7f1c7;}.cls-15{fill:#d9c6ef;}.cls-16{fill:#f8f1c7;}</style></defs><title>pz2</title><path class="cls-1" d="M62.06,233.81a116.16,116.16,0,0,1-22.42-26.36c-8-12.83-14.07-26.57-17.06-41.46-1.3-6.45-2-13-2.66-19.59a85,85,0,0,1-.55-12.85A136.83,136.83,0,0,1,30.23,85.31,132.34,132.34,0,0,1,49.49,53.9a131,131,0,0,1,69.84-43.58c4.86-1.18,9.87-1.75,14.8-2.67.59-.11,1.08-.71,1.62-1.09H165a38.91,38.91,0,0,0,5.75,1.63c10.54,1.35,20.54,4.57,30.31,8.56a115.15,115.15,0,0,1,29.6,17.38c5,4.11,9.55,8.82,14.28,13.28.79.75,1.46,1.61,2.18,2.42l.58.61v0l1.14,1.14h0a9.07,9.07,0,0,0,.87,2.25,127.91,127.91,0,0,1,24.78,66.6,155,155,0,0,1-1.15,31c-1.77,14.05-6.53,27.33-13.1,40a134.59,134.59,0,0,1-31.93,40.09c-1,.84-2.11,2.1-3.2,2.13-4.64.13-9.29-.14-13.94-.26a114.07,114.07,0,0,0,27.69-24.84,112.42,112.42,0,0,0,25.09-68,110,110,0,0,0-4.48-34.63A111.58,111.58,0,0,0,234.2,61l-.4-.45-1.3-.61-1.07-1.67,0,0-.63-.53c-2.33-2.27-4.52-4.72-7-6.79-27.6-22.89-59.31-31.71-94.38-24.88C88.59,34,60.32,58.2,44.47,96.62a84.92,84.92,0,0,0-6.63,27.54c-1.46,7-1.11,14.05-.67,21.15A108.12,108.12,0,0,0,44.68,179a110.48,110.48,0,0,0,33.65,46.13c3.7,3,7.55,5.77,11.32,8.65Z" transform="translate(-19.31 -6.56)"/><path class="cls-2" d="M29.44,294.56c-3.28-2.6-3.48-3.58-1.8-8.51.75,0,1.49.07,2.24.07H261.67c.47,0,.94,0,1.4,0,2.72-.21,3.39-1.13,2.74-3.79l-2.94-11.93a16.48,16.48,0,0,1,9,10.5c.82,2.57,1.43,5.2,2.12,7.81s-.58,4.46-2.67,5.86Z" transform="translate(-19.31 -6.56)"/><path class="cls-3" d="M262.87,270.39l2.94,11.93c.65,2.66,0,3.58-2.74,3.79-.46,0-.93,0-1.4,0H29.88c-.75,0-1.49,0-2.24-.07,1.12-7.56,4.4-13.62,12-16.47a47.07,47.07,0,0,1,6.18-1.45H255Z" transform="translate(-19.31 -6.56)"/><path class="cls-4" d="M47.91,260.2q2.48-17.88,20.34-17.91c1.12,0,2.24,0,3.36-.06h34.33c14.43,0,28.86.09,43.29.09q22.77,0,45.54-.1l34.87,0c4.43.14,9-.33,13,2.13,1,4.07,1.88,8.16,3,12.19.62,2.23-.39,2.94-2.29,3.11-.74.07-1.49,0-2.24,0q-84.42,0-168.83,0C64.16,259.72,56,260,47.91,260.2Z" transform="translate(-19.31 -6.56)"/><path class="cls-5" d="M47.91,260.2c8.13-.17,16.25-.48,24.37-.49q84.42-.06,168.83,0c.75,0,1.5.05,2.24,0,1.9-.17,2.91-.88,2.29-3.11-1.11-4-2-8.12-3-12.19a15.41,15.41,0,0,1,8.52,9.5c1.48,4.68,2.56,9.5,3.81,14.26H45.77C46.49,265.49,47.2,262.84,47.91,260.2Z" transform="translate(-19.31 -6.56)"/><path class="cls-6" d="M229.64,242.24l-34.87,0,16.38-8.85c4.65.12,9.3.39,13.94.26,1.09,0,2.23-1.29,3.2-2.13a134.59,134.59,0,0,0,31.93-40.09c6.57-12.64,11.33-25.92,13.1-40a155,155,0,0,0,1.15-31,127.91,127.91,0,0,0-24.78-66.6,9.07,9.07,0,0,1-.87-2.25c3.89,5,8.14,9.73,11.59,15a122.22,122.22,0,0,1,17.86,43c1.29,6.36,1.93,12.87,2.6,19.34,1.78,17.46-1,34.43-6.54,50.92a126.27,126.27,0,0,1-23.56,41.73,132.56,132.56,0,0,1-19.64,19.06A12.58,12.58,0,0,0,229.64,242.24Z" transform="translate(-19.31 -6.56)"/><path class="cls-6" d="M248.83,51.56l-1.14-1.14Z" transform="translate(-19.31 -6.56)"/><path class="cls-6" d="M247.7,50.44l-.58-.61Z" transform="translate(-19.31 -6.56)"/><path class="cls-7" d="M105.94,242.23H71.61l-9.55-8.42H90.67a15.35,15.35,0,0,0,2,1.49C97.05,237.64,101.5,239.93,105.94,242.23Z" transform="translate(-19.31 -6.56)"/><path class="cls-8" d="M90.67,233.82h-1c-3.77-2.88-7.62-5.68-11.32-8.65A110.48,110.48,0,0,1,44.68,179a108.12,108.12,0,0,1-7.51-33.72c-.44-7.1-.79-14.14.67-21.15,2.24-5.61,3.95-11.51,6.83-16.77C53.09,92,66,82.23,83.61,80.41c16.37-1.68,30.46,3.67,40.8,17a34.16,34.16,0,0,1,7.25,21.69,34.87,34.87,0,0,1-8.85,23,27.18,27.18,0,0,1-19.34,7.41c-10.71,0-21.53-9.06-20.71-20.74.53-7.52,4.29-12.23,11.79-13.14,2.53-.31,4.83-2.77,4.56-4.86a5.21,5.21,0,0,0-5.31-4.08c-5.19.52-9.91,2.38-13.43,6.23-8.05,8.8-8.34,19.63-3.5,29.23,6.3,12.49,21,18.61,34.74,15.41a34.53,34.53,0,0,0,20.19-12.7,16.49,16.49,0,0,1,8.44,8.45c-9.18,8.38-11.12,19-8.6,30.49,3.67,16.82,20.51,25.64,36.11,22.26,11.18-2.42,19.57-13.11,17-25.08-1.74-8.06-9.17-14.58-16.81-14.14a3.91,3.91,0,0,0-4,3.82,4,4,0,0,0,3.52,4.57c4.25.28,7.08,2.44,8.34,6.35a11.08,11.08,0,0,1-2.38,11.49c-5.11,5.62-11.63,5.65-18.17,4a20.47,20.47,0,0,1-15.5-23.06c.54-4,2.21-7.81,3.37-11.71,7-9.94,16.63-15.33,28.65-15.62,12.5-.3,22.85,4.78,30.82,14.52a14.55,14.55,0,0,0,1.67,1.49c.92-7.22,3.87-12.83,10.16-16.23s12.56-2.69,19.23.14c1.83-5.21,3.58-10.22,5.37-15.22.61-1.72.26-2.71-1.61-3.42-5.23-2-8.89-7-8.7-12.26.17-5,2.66-10.21,8.47-12.49,1.54-.61,3.17-1,4.91-1.47,0-1,.08-2,0-2.87a119.19,119.19,0,0,0-7.25-31.54c-1.17-3-2.23-6.09-3.35-9.14l1.07,1.67,1.3.61.4.45a9.82,9.82,0,0,0,.6,2.08c4.42,7.9,9.3,15.57,13.23,23.7a94.16,94.16,0,0,1,9.07,35,117.78,117.78,0,0,1-2,32.62,114.66,114.66,0,0,1-27.39,53.49,117.48,117.48,0,0,1-25.07,20.55A32.94,32.94,0,0,1,184,234C152.9,233.59,121.79,233.81,90.67,233.82Z" transform="translate(-19.31 -6.56)"/><path class="cls-9" d="M122.81,142.14a34.87,34.87,0,0,0,8.85-23,34.16,34.16,0,0,0-7.25-21.69c-10.34-13.33-24.43-18.68-40.8-17C66,82.23,53.09,92,44.67,107.39c-2.88,5.26-4.59,11.16-6.83,16.77a84.92,84.92,0,0,1,6.63-27.54C60.32,58.2,88.59,34,129.38,26.08c35.07-6.83,66.78,2,94.38,24.88,2.5,2.07,4.69,4.52,7,6.79l.63.53,0,0c1.12,3.05,2.18,6.11,3.35,9.14A119.19,119.19,0,0,1,242,98.94c.09.92,0,1.85,0,2.87-1.74.51-3.37.86-4.91,1.47-5.81,2.28-8.3,7.49-8.47,12.49-.19,5.25,3.47,10.27,8.7,12.26,1.87.71,2.22,1.7,1.61,3.42-1.79,5-3.54,10-5.37,15.22-6.67-2.83-13-3.52-19.23-.14s-9.24,9-10.16,16.23a14.55,14.55,0,0,1-1.67-1.49c-8-9.74-18.32-14.82-30.82-14.52-12,.29-21.68,5.68-28.65,15.62-.95-3-1.89-6-2.83-9a16.49,16.49,0,0,0-8.44-8.45Zm71.79-26.7h1a19.42,19.42,0,0,0,1.49-3.38c1.24-5.28,2.47-10.57,3.47-15.89.64-3.38,2.39-5.23,5.77-5.93a53.8,53.8,0,0,0,8.32-2.5A27.31,27.31,0,0,0,219,85.1a23.28,23.28,0,0,0-4.26-2.7c-3.16-1.16-6.43-2-9.67-2.92a5.26,5.26,0,0,1-4.16-4.37c-1.17-5.67-2.47-11.32-3.83-17a20.75,20.75,0,0,0-1.56-3.53l-1,.09a47.68,47.68,0,0,0-1.82,5.1q-1.6,7-2.93,14c-.6,3.11-2,5.22-5.35,6A89.94,89.94,0,0,0,173.91,83c-1,.36-1.81,1.39-2.7,2.12A11.57,11.57,0,0,0,174,87.16c3.45,1.21,7,2.25,10.47,3.21,2.8.76,4.48,2.24,5.05,5.25,1,5.42,2.32,10.79,3.59,16.15A25.77,25.77,0,0,0,194.6,115.44ZM177.42,51.5a8.82,8.82,0,0,0-8.63-8.84c-4.27-.06-8.69,4.28-8.76,8.59a8.86,8.86,0,0,0,8.69,8.8A8.3,8.3,0,0,0,177.42,51.5Zm-38.14-1.64a4.67,4.67,0,1,0-4.6-4.69A4.67,4.67,0,0,0,139.28,49.86Zm25.09,75a4.6,4.6,0,0,0,4.45,4.81,5,5,0,0,0,4.62-4.73,4.5,4.5,0,0,0-4.53-4.69A4.45,4.45,0,0,0,164.37,124.83ZM104.25,60a4.52,4.52,0,0,0-4.75-4.45A4.86,4.86,0,0,0,94.93,60a5,5,0,0,0,4.84,4.83A4.84,4.84,0,0,0,104.25,60Zm110.8,50.74a4.44,4.44,0,0,0,4.51-4.62,4.52,4.52,0,0,0-4.69-4.48,4.65,4.65,0,0,0-4.55,4.66A4.45,4.45,0,0,0,215.05,110.71Z" transform="translate(-19.31 -6.56)"/><path class="cls-10" d="M90.67,233.82c31.12,0,62.23-.23,93.34.15a32.94,32.94,0,0,0,18.64-5.52,117.48,117.48,0,0,0,25.07-20.55,114.66,114.66,0,0,0,27.39-53.49,117.78,117.78,0,0,0,2-32.62,94.16,94.16,0,0,0-9.07-35c-3.93-8.13-8.81-15.8-13.23-23.7a9.82,9.82,0,0,1-.6-2.08,111.58,111.58,0,0,1,25.25,44.87,110,110,0,0,1,4.48,34.63,112.42,112.42,0,0,1-25.09,68,114.07,114.07,0,0,1-27.69,24.84l-16.38,8.85q-22.77.06-45.54.1c-14.43,0-28.86-.06-43.29-.09-4.44-2.3-8.89-4.59-13.31-6.92A15.35,15.35,0,0,1,90.67,233.82Z" transform="translate(-19.31 -6.56)"/><path class="cls-10" d="M233.8,60.54l-1.3-.61Z" transform="translate(-19.31 -6.56)"/><path class="cls-8" d="M231.41,58.28l-.63-.53Z" transform="translate(-19.31 -6.56)"/><path class="cls-11" d="M140.24,153.35c.94,3,1.88,6,2.83,9-1.16,3.9-2.83,7.73-3.37,11.71a20.47,20.47,0,0,0,15.5,23.06c6.54,1.62,13.06,1.59,18.17-4a11.08,11.08,0,0,0,2.38-11.49c-1.26-3.91-4.09-6.07-8.34-6.35a4,4,0,0,1-3.52-4.57,3.91,3.91,0,0,1,4-3.82c7.64-.44,15.07,6.08,16.81,14.14,2.58,12-5.81,22.66-17,25.08-15.6,3.38-32.44-5.44-36.11-22.26C129.12,172.3,131.06,161.73,140.24,153.35Z" transform="translate(-19.31 -6.56)"/><path class="cls-11" d="M122.81,142.14l9,2.76a34.53,34.53,0,0,1-20.19,12.7c-13.69,3.2-28.44-2.92-34.74-15.41-4.84-9.6-4.55-20.43,3.5-29.23,3.52-3.85,8.24-5.71,13.43-6.23a5.21,5.21,0,0,1,5.31,4.08c.27,2.09-2,4.55-4.56,4.86-7.5.91-11.26,5.62-11.79,13.14-.82,11.68,10,20.73,20.71,20.74A27.18,27.18,0,0,0,122.81,142.14Z" transform="translate(-19.31 -6.56)"/><path class="cls-12" d="M194.6,115.44a25.77,25.77,0,0,1-1.51-3.67c-1.27-5.36-2.57-10.73-3.59-16.15-.57-3-2.25-4.49-5.05-5.25-3.52-1-7-2-10.47-3.21a11.57,11.57,0,0,1-2.77-2.07c.89-.73,1.68-1.76,2.7-2.12a89.94,89.94,0,0,1,10.46-3.18c3.38-.75,4.75-2.86,5.35-6q1.34-7,2.93-14a47.68,47.68,0,0,1,1.82-5.1l1-.09a20.75,20.75,0,0,1,1.56,3.53c1.36,5.64,2.66,11.29,3.83,17a5.26,5.26,0,0,0,4.16,4.37c3.24.9,6.51,1.76,9.67,2.92A23.28,23.28,0,0,1,219,85.1a27.31,27.31,0,0,1-4.37,2.64,53.8,53.8,0,0,1-8.32,2.5c-3.38.7-5.13,2.55-5.77,5.93-1,5.32-2.23,10.61-3.47,15.89a19.42,19.42,0,0,1-1.49,3.38Z" transform="translate(-19.31 -6.56)"/><path class="cls-13" d="M177.42,51.5a8.3,8.3,0,0,1-8.7,8.55,8.86,8.86,0,0,1-8.69-8.8c.07-4.31,4.49-8.65,8.76-8.59A8.82,8.82,0,0,1,177.42,51.5Z" transform="translate(-19.31 -6.56)"/><path class="cls-14" d="M139.28,49.86a4.67,4.67,0,0,1-4.6-4.69,4.68,4.68,0,1,1,4.6,4.69Z" transform="translate(-19.31 -6.56)"/><path class="cls-15" d="M164.37,124.83a4.45,4.45,0,0,1,4.54-4.61,4.5,4.5,0,0,1,4.53,4.69,5,5,0,0,1-4.62,4.73A4.6,4.6,0,0,1,164.37,124.83Z" transform="translate(-19.31 -6.56)"/><path class="cls-15" d="M104.25,60a4.84,4.84,0,0,1-4.48,4.86A5,5,0,0,1,94.93,60a4.86,4.86,0,0,1,4.57-4.48A4.52,4.52,0,0,1,104.25,60Z" transform="translate(-19.31 -6.56)"/><path class="cls-16" d="M215.05,110.71a4.45,4.45,0,0,1-4.73-4.44,4.65,4.65,0,0,1,4.55-4.66,4.52,4.52,0,0,1,4.69,4.48A4.44,4.44,0,0,1,215.05,110.71Z" transform="translate(-19.31 -6.56)"/></svg>