<svg id="图层_1" data-name="图层 1" xmlns="http://www.w3.org/2000/svg" viewBox="0 0 120 120"><defs><style>.cls-1{fill:none;}.cls-2{fill:#fefefe;}.cls-3{fill:#010101;}.cls-4{fill:#020202;}</style></defs><title>jdt 副本 4</title><path class="cls-1" d="M34.2,67.28a.47.47,0,0,1-.06-.09l-.07.12Z"/><polygon class="cls-1" points="87.36 55.14 87.36 55.14 87.36 55.14 87.36 55.14"/><path d="M115,91.06c-1.29-4.44-4.11-7.24-8.7-8.17a10.38,10.38,0,0,0-2.67-.09,1.78,1.78,0,0,1-2-1.34,96.91,96.91,0,0,0-4.38-9.76,109.51,109.51,0,0,0-9-14.8c-.7-1-1-1.41-.85-1.76h0c.14-.3.65-.53,1.58-1a7.33,7.33,0,0,0,2-1.34,3.72,3.72,0,0,0-.32-5.79,8.1,8.1,0,0,0-2.55-1.34A3,3,0,0,1,86,43.56a9,9,0,0,0-1.16-2.29,3.76,3.76,0,0,0-6.39-.06c-.27.37-.48.79-.73,1.18-.61.94-.85,1-1.64.23-1.18-1.13-2.36-2.27-3.57-3.38A114.53,114.53,0,0,0,51.63,24.16a111.89,111.89,0,0,0-20.55-9c-3-1-5.55-.27-7.32,2.15a5.68,5.68,0,0,0-.54,6.26c1.39,2.77,3,5.46,4.43,8.19,2.48,4.58,5,9.13,7.48,13.72a21.78,21.78,0,0,1,2.15,4.77,1.14,1.14,0,0,0,1.48.88,1.2,1.2,0,0,0,1-1.41,8.68,8.68,0,0,0-.92-2.84c-1.72-3.53-3.7-6.92-5.57-10.37-2.49-4.62-5.06-9.19-7.53-13.82a3.34,3.34,0,0,1,.29-4,3.45,3.45,0,0,1,4.06-1.08,116,116,0,0,1,19.21,8.35A112.06,112.06,0,0,1,67.9,38.72c2.12,1.8,4.18,3.67,6.15,5.64,1,1,1,1.31-.35,2a4.87,4.87,0,0,0-2.4,2.21,3.63,3.63,0,0,0,1.15,4.58,11.19,11.19,0,0,0,3.14,1.59A2,2,0,0,1,77,56.09a14.26,14.26,0,0,0,.87,2,4.39,4.39,0,0,0,3.32,2.73,1.29,1.29,0,0,1,.59.25l.05.07a4.55,4.55,0,0,0,3.74-2.87,95.88,95.88,0,0,1,5.52,8.37c-2.5-.46-4.89-.91-7.29-1.33-1.58-.28-3.18-.49-4.77-.74l-.22.19a8.92,8.92,0,0,1-2.87-.15A119.32,119.32,0,0,0,62,64a124.45,124.45,0,0,0-22.19,2.43c-1.5.32-3,.57-4.5,1-.38.1-.83.25-1.11-.1h0l-.13,0,.07-.12c-.2-.37.08-.74.26-1.08,1.22-2.18,2.49-4.33,3.69-6.52a10.33,10.33,0,0,0,1.26-2.82,1.27,1.27,0,0,0-.81-1.65c-.74-.25-1.23.16-1.54.8-2.57,5.31-5.75,10.28-8.6,15.43-1.62,2.94-3.35,5.82-5,8.76A3,3,0,0,1,21,81.78a65.38,65.38,0,0,0-6.82,1.39,10.89,10.89,0,0,0,2,21.34,17,17,0,0,0,5.08-.58,90.07,90.07,0,0,1,22-1.78,72.52,72.52,0,0,1,14,1.94,111.28,111.28,0,0,0,19.14,2.8c3.21.18,6.42.2,9.63.13,3-.07,5.91-.3,8.85-.65a2.19,2.19,0,0,0,.82-.23,1.25,1.25,0,0,0,.79-1.28,1.16,1.16,0,0,0-1.19-1,25,25,0,0,0-4.05.26,112,112,0,0,1-14.54.2,98.09,98.09,0,0,1-15.37-2c-3.42-.72-6.83-1.53-10.3-2a87.5,87.5,0,0,0-17.5-.62,101.32,101.32,0,0,0-14.82,2.11,8.3,8.3,0,0,1-9.59-5.92,8.18,8.18,0,0,1,5.52-10.1,57,57,0,0,1,9.45-1.84c3.39-.46,6.79-.76,10.22-.92,1.85-.09,3.7-.17,5.56-.17A100.88,100.88,0,0,1,62,85.35,97.83,97.83,0,0,0,77.38,87.6a85,85,0,0,0,24.13-1.87,9.59,9.59,0,0,1,6.1.3,8.38,8.38,0,0,1,5,8.22,8.29,8.29,0,0,1-6.13,7.43c-1.27.35-2.56.63-3.86.86a4.49,4.49,0,0,0-1.44.41,1.22,1.22,0,0,0-.66,1.44,1.05,1.05,0,0,0,1.27.89c3.82-.66,7.75-1.07,10.57-4.27a11.74,11.74,0,0,0,2.54-4.77c.11-.4,0-1,.64-1.09v-3C114.92,92,115.09,91.45,115,91.06ZM83.72,54.29a10.41,10.41,0,0,1-1.23,2.82c-.58,1-1.23,1-1.82,0a10.92,10.92,0,0,1-1.28-3,2.17,2.17,0,0,0-1.78-1.75A11.22,11.22,0,0,1,74.49,51c-.86-.54-.85-1.16,0-1.7a11.22,11.22,0,0,1,3.22-1.39,2.09,2.09,0,0,0,1.63-1.63A11.84,11.84,0,0,1,80.74,43c.52-.85,1.19-.84,1.71,0a12.17,12.17,0,0,1,1.41,3.32,2,2,0,0,0,1.5,1.49,13.18,13.18,0,0,1,3.33,1.41,1,1,0,0,1,.59.83c0,.45-.26.69-.61.89a10.39,10.39,0,0,1-2.92,1.28A2.43,2.43,0,0,0,83.72,54.29ZM98.49,83.4a84.25,84.25,0,0,1-28.73.48c-4.83-.72-9.54-2.06-14.37-2.76A109.12,109.12,0,0,0,31,80.3l-4.51.36c1.45-2.54,2.91-4.9,4.16-7.36A4.63,4.63,0,0,1,34,70.68a122.61,122.61,0,0,1,36.25-3.61,124.51,124.51,0,0,1,22.39,3.25,1.38,1.38,0,0,1,1,.75A114.19,114.19,0,0,1,98.9,82.59C99.1,83.08,99.17,83.27,98.49,83.4Z"/><path d="M35.32,67.39c1.48-.4,3-.65,4.5-1A124.45,124.45,0,0,1,62,64a119.32,119.32,0,0,1,13.89.58,8.92,8.92,0,0,0,2.87.15l.22-.19h0c-3-.23-6-.5-9-.67A121.14,121.14,0,0,0,40.19,66c-2,.38-3.9.82-6,1.26h0C34.49,67.64,34.94,67.49,35.32,67.39Z"/><path d="M103.22,82.52a1,1,0,0,1-1.22-.79A109.54,109.54,0,0,0,92,62c-1.48-2.3-3.06-4.53-4.61-6.83-.17.35.15.8.85,1.76a109.51,109.51,0,0,1,9,14.8,96.91,96.91,0,0,1,4.38,9.76,1.78,1.78,0,0,0,2,1.34,10.38,10.38,0,0,1,2.67.09c4.59.93,7.41,3.73,8.7,8.17.11.39-.06,1,.6,1.09-.06-.08-.15-.16-.16-.26C114.17,85.72,109.48,82.09,103.22,82.52Z"/><path d="M81.74,61a1.29,1.29,0,0,0-.59-.25,4.39,4.39,0,0,1-3.32-2.73,14.26,14.26,0,0,1-.87-2,2,2,0,0,0-1.37-1.37,11.19,11.19,0,0,1-3.14-1.59,3.63,3.63,0,0,1-1.15-4.58,4.87,4.87,0,0,1,2.4-2.21c1.35-.67,1.39-.94.35-2-2-2-4-3.84-6.15-5.64A112.06,112.06,0,0,0,49.32,25.93a116,116,0,0,0-19.21-8.35,3.45,3.45,0,0,0-4.06,1.08,3.34,3.34,0,0,0-.29,4c2.47,4.63,5,9.2,7.53,13.82,1.87,3.45,3.85,6.84,5.57,10.37a8.68,8.68,0,0,1,.92,2.84,1.2,1.2,0,0,1-1,1.41,1.14,1.14,0,0,1-1.48-.88,21.78,21.78,0,0,0-2.15-4.77c-2.45-4.59-5-9.14-7.48-13.72-1.47-2.73-3-5.42-4.43-8.19a5.68,5.68,0,0,1,.54-6.26c1.77-2.42,4.27-3.16,7.32-2.15a111.89,111.89,0,0,1,20.55,9A114.53,114.53,0,0,1,72.49,39.24c1.21,1.11,2.39,2.25,3.57,3.38.79.76,1,.71,1.64-.23.25-.39.46-.81.73-1.18a3.76,3.76,0,0,1,6.39.06A9,9,0,0,1,86,43.56a3,3,0,0,0,2.14,2.15,8.1,8.1,0,0,1,2.55,1.34A3.72,3.72,0,0,1,91,52.84a7.33,7.33,0,0,1-2,1.34c-.93.43-1.44.66-1.58,1a19.18,19.18,0,0,0,3.25-1.59,4,4,0,0,0,0-6.88,7.42,7.42,0,0,0-1.89-1A3.56,3.56,0,0,1,86,43,7.48,7.48,0,0,0,84.94,41a3.78,3.78,0,0,0-3.44-1.78,4.22,4.22,0,0,0-3.93,3c-.45,1-.76.88-1.44.2A113.53,113.53,0,0,0,31,14.79,6.44,6.44,0,0,0,23.14,24C27,31.07,30.85,38.12,34.69,45.18A22.22,22.22,0,0,1,37,50.11a1.57,1.57,0,0,0,1.95,1.34A1.61,1.61,0,0,0,40,49.36a18.56,18.56,0,0,0-2.27-5.27C33.88,37,30,29.85,26.08,22.73a3.29,3.29,0,0,1,.19-4,3.33,3.33,0,0,1,3.9-.86A110.92,110.92,0,0,1,73.73,44.46c1,1,1,1-.2,1.65-1.67.84-2.88,2-2.88,4a4.08,4.08,0,0,0,3,4,5.9,5.9,0,0,1,3.94,4,4.33,4.33,0,0,0,4.13,3h.06Z"/><path d="M114.94,96.24A11.74,11.74,0,0,1,112.4,101c-2.82,3.2-6.75,3.61-10.57,4.27a1.05,1.05,0,0,1-1.27-.89,1.22,1.22,0,0,1,.66-1.44,4.49,4.49,0,0,1,1.44-.41c1.3-.23,2.59-.51,3.86-.86a8.29,8.29,0,0,0,6.13-7.43,8.38,8.38,0,0,0-5-8.22,9.59,9.59,0,0,0-6.1-.3A85,85,0,0,1,77.38,87.6,97.83,97.83,0,0,1,62,85.35a100.88,100.88,0,0,0-22.17-2.5c-1.86,0-3.71.08-5.56.17-3.43.16-6.83.46-10.22.92a57,57,0,0,0-9.45,1.84,8.18,8.18,0,0,0-5.52,10.1,8.3,8.3,0,0,0,9.59,5.92,101.32,101.32,0,0,1,14.82-2.11,87.5,87.5,0,0,1,17.5.62c3.47.48,6.88,1.29,10.3,2a98.09,98.09,0,0,0,15.37,2,112,112,0,0,0,14.54-.2,25,25,0,0,1,4.05-.26,1.16,1.16,0,0,1,1.19,1,1.25,1.25,0,0,1-.79,1.28,2.19,2.19,0,0,1-.82.23c-2.94.35-5.9.58-8.85.65-3.21.07-6.42,0-9.63-.13a111.28,111.28,0,0,1-19.14-2.8,72.52,72.52,0,0,0-14-1.94,90.07,90.07,0,0,0-22,1.78,17,17,0,0,1-5.08.58,10.89,10.89,0,0,1-2-21.34A65.38,65.38,0,0,1,21,81.78a3,3,0,0,0,2.42-1.67c1.61-2.94,3.34-5.82,5-8.76,2.85-5.15,6-10.12,8.6-15.43.31-.64.8-1.05,1.54-.8a1.27,1.27,0,0,1,.81,1.65,10.33,10.33,0,0,1-1.26,2.82c-1.2,2.19-2.47,4.34-3.69,6.52-.18.34-.46.71-.26,1.08l4.22-7.45a14.12,14.12,0,0,0,1.34-2.9,1.64,1.64,0,0,0-1-2.1,1.57,1.57,0,0,0-2,1.07,20.31,20.31,0,0,1-1.36,2.77q-6.25,11-12.5,22a1.59,1.59,0,0,1-1.26.83c-2,.36-4.07.71-6.09,1.12-6.61,1.37-10.4,6.73-9.36,13.21a11,11,0,0,0,12,9c4.38-.6,8.69-1.63,13.09-2a77.62,77.62,0,0,1,23.32,1.11c7.51,1.6,15,3.1,22.7,3.4a118.25,118.25,0,0,0,17.85-.61c1.24-.14,1.92-.86,1.81-1.81s-.88-1.47-2.15-1.37c-2.34.18-4.69.42-7,.55a98.71,98.71,0,0,1-27.1-2.17,97,97,0,0,0-18.17-2.63,95.75,95.75,0,0,0-23.69,2.26,7.48,7.48,0,0,1-3.49,0,8,8,0,0,1-6.12-8.11,8.09,8.09,0,0,1,6.72-7.64,112.2,112.2,0,0,1,19.06-2.44A96.26,96.26,0,0,1,59.8,85.22,110.65,110.65,0,0,0,79.46,88a89.19,89.19,0,0,0,23.14-2.2,8,8,0,0,1,3.79,15.56c-1.57.43-3.2.69-4.8,1-1.13.24-1.68,1-1.48,2a1.64,1.64,0,0,0,2.15,1.19c1.4-.28,2.8-.55,4.18-.87a11.11,11.11,0,0,0,8.6-7.64c.21-.63.36-1.28.54-1.92C115,95.27,115.05,95.84,114.94,96.24Z"/><path class="cls-2" d="M79,64.52h0Z"/><path class="cls-2" d="M81.79,61.1h0Z"/><path class="cls-3" d="M106.63,68.87a1.59,1.59,0,0,0-2.17,1.26,4.83,4.83,0,0,0,0,.85c0,1.69.82,2.56,2,2.17a1.61,1.61,0,0,0,1.15-1.72C107.66,70.44,107.81,69.37,106.63,68.87Z"/><path class="cls-3" d="M21.88,58.83a1.7,1.7,0,0,0-1,2c0,1.36.21,1.9.89,2.21a1.53,1.53,0,0,0,1.93-.41,3.55,3.55,0,0,0,.06-3.25A1.52,1.52,0,0,0,21.88,58.83Z"/><path class="cls-4" d="M108,68.51a3.24,3.24,0,0,0,3.42,0,1.58,1.58,0,0,0,.19-2.2,1.86,1.86,0,0,0-1.71-.58c-1.33,0-1.62.08-2,.54A1.55,1.55,0,0,0,108,68.51Z"/><path class="cls-3" d="M23.13,55.74a1.73,1.73,0,0,0,1-2c0-1.38-.25-2-1-2.24a1.56,1.56,0,0,0-1.91.52,3.68,3.68,0,0,0,0,3.16A1.51,1.51,0,0,0,23.13,55.74Z"/><path class="cls-4" d="M26.05,58.81c1.56,0,2.39-.58,2.35-1.66s-.82-1.56-2.25-1.55-2.2.56-2.24,1.57S24.65,58.81,26.05,58.81Z"/><path class="cls-3" d="M106.66,65.81c.9-.39,1-1.17,1-2.08a1.81,1.81,0,0,0-1-2.12,1.53,1.53,0,0,0-1.91.51,3.64,3.64,0,0,0,0,3.17A1.51,1.51,0,0,0,106.66,65.81Z"/><path class="cls-4" d="M104.06,68.57a1.48,1.48,0,0,0,.4-1.92,1.69,1.69,0,0,0-1.87-.88c-1.44,0-1.89.18-2.24.86a1.48,1.48,0,0,0,.38,1.92A3.24,3.24,0,0,0,104.06,68.57Z"/><path class="cls-3" d="M18.78,58.8c.81,0,1.6,0,2.08-.76a1.47,1.47,0,0,0-.31-2,3.21,3.21,0,0,0-3.4,0,1.47,1.47,0,0,0-.25,2A1.84,1.84,0,0,0,18.78,58.8Z"/><path d="M74.32,72.15c-1.86,1.54-3,1.54-4.77,0a1.59,1.59,0,0,0-2.29,0,1.56,1.56,0,0,0,0,2.29,6.24,6.24,0,0,0,9.28,0,1.6,1.6,0,0,0-2.26-2.27Z"/><path class="cls-3" d="M86.89,72.05c0-.42,0-.85,0-1.27a1.59,1.59,0,0,0-3.17-.11,16.18,16.18,0,0,0,0,2.87A1.52,1.52,0,0,0,85.3,75a1.59,1.59,0,0,0,1.59-1.54c0-.45,0-.92,0-1.38Z"/><path class="cls-3" d="M60.13,70.77a1.47,1.47,0,0,0-1.45-1.55A1.45,1.45,0,0,0,57,70.51a10,10,0,0,0,0,3.19A1.45,1.45,0,0,0,58.62,75a1.48,1.48,0,0,0,1.5-1.51c0-.46,0-.92,0-1.39h0C60.13,71.63,60.15,71.2,60.13,70.77Z"/></svg>