<svg id="图层_1" data-name="图层 1" xmlns="http://www.w3.org/2000/svg" viewBox="0 0 120 120"><defs><style>.cls-1{fill:#966ace;}.cls-2{fill:#8f65c4;}.cls-3{fill:#b189e3;}.cls-4{fill:#5fd8b2;}.cls-5{fill:#00c386;}.cls-6{fill:#fecd71;}.cls-7{fill:#fece72;}.cls-8{fill:#f2c36c;}.cls-9{fill:#fece71;}.cls-10{fill:#f3c56c;}.cls-11{fill:#f2c46c;}.cls-12{fill:#fe8d9d;}.cls-13{fill:#313d40;}.cls-14{fill:#303c3f;}</style></defs><title>jdt 副本 5</title><path class="cls-1" d="M50.29,100.15c-1.67-.17-3.33-.34-5-.49A86,86,0,0,0,33,99.43a125.48,125.48,0,0,0-17,2.41c-4.69.88-9.84-2.93-10.81-7.76,0-.21,0-.43-.21-.58V90.27a13,13,0,0,1,2.58-5.08c2-2.24,4.67-3,7.47-3.53l6.49-1.23a10.86,10.86,0,0,1,4.09-.75A101.17,101.17,0,0,1,39.12,79a76.55,76.55,0,0,1,10.8.73.79.79,0,0,1,.44.34c.25.67-.18,1.17-.44,1.7a21.74,21.74,0,0,0-2.33,9.94,12.77,12.77,0,0,0,2.09,7C50,99.15,50.41,99.53,50.29,100.15Z"/><path class="cls-2" d="M29,67.24c2.16-3.83,4.33-7.65,6.47-11.49a12.29,12.29,0,0,0,.19-12.47c-4.28-8-8.63-15.88-13-23.8A5.18,5.18,0,0,1,22.56,14a4.92,4.92,0,0,1,4.68-2.48,8.51,8.51,0,0,1,2.47.65A118.68,118.68,0,0,1,59,26.84c.06,0,.1.1.15.15.28.48-.08.82-.28,1.18a4.06,4.06,0,0,0,.06,4.2q2.88,5.15,5.66,10.36a13,13,0,0,1-.23,13.6c-1.08,1.81-2.1,3.66-3.16,5.49a1.9,1.9,0,0,1-.64.84c-.75.3-1.57,0-2.33.29-4.15.2-8.29.55-12.4,1.13a138.75,138.75,0,0,0-15.38,3.13C30,67.34,29.49,67.63,29,67.24Z"/><path class="cls-3" d="M50.29,100.15a13.93,13.93,0,0,1-3-9.81,22.1,22.1,0,0,1,2.08-8.13c.32-.68.62-1.37.94-2,1-.67,2-.08,3,0,5.77.65,11.34,2.42,17.1,3.19a96.27,96.27,0,0,0,16.62.71,78.09,78.09,0,0,0,13.1-1.65A3.71,3.71,0,0,1,102,82.3c1.55-.11,3.06-.54,4.67-.23a9.7,9.7,0,0,1,7.79,6.43,9.57,9.57,0,0,1-1.74,9.85,10.67,10.67,0,0,1-6.42,3.55,109.24,109.24,0,0,1-15.76,2.29,102.46,102.46,0,0,1-12.88.15c-3.6-.21-7.2-.46-10.77-1-3.81-.53-7.57-1.38-11.33-2.19C53.79,100.81,52,100.49,50.29,100.15Z"/><path class="cls-4" d="M102,82.3a36.18,36.18,0,0,1-6.36,1.27,88.24,88.24,0,0,1-15.06.9,87.07,87.07,0,0,1-18.13-2.25q-5.46-1.26-11-2a9.51,9.51,0,0,0-1.07,0L50.08,80a1,1,0,0,1,.77-.58,9.55,9.55,0,0,0,5.7.06,5,5,0,0,0,3.57-4.91A8.14,8.14,0,0,0,59,71.92c0-.85.05-1.7.08-2.55a3.25,3.25,0,0,0-.9-2.61c-.23-.92.55-1.47.84-2.2a5.59,5.59,0,0,1,.47-.82c.27-.45.23-.73-.38-.75-.3,0-.65,0-.85-.31a8.29,8.29,0,0,1,2.38-.17,1.35,1.35,0,0,1,.9-.31c2,0,4-.05,6,.1,2.71.19,5.43.25,8.15.52a123,123,0,0,1,17.78,3,4.46,4.46,0,0,1,1.18.52A89.37,89.37,0,0,1,100,77.31C100.73,79,101.32,80.63,102,82.3Z"/><path class="cls-3" d="M94.64,66.38c-2.16-.46-4.31-1-6.47-1.37-3.57-.69-7.15-1.26-10.76-1.66a147.15,147.15,0,0,0-16.79-.84,70.35,70.35,0,0,1,3.67-6.64c2.51-4.43,2.3-8.85-.06-13.24-1.6-3-3.24-6-4.89-8.92A7.21,7.21,0,0,1,58,29.83c.06-1.12.83-1.87,1.13-2.84a113.69,113.69,0,0,1,18.3,15.7c0,.59-.56.58-.92.71a17.2,17.2,0,0,0-2.93,1.33,2.27,2.27,0,0,0-.16,4.13,10.07,10.07,0,0,0,3,1.37,2.21,2.21,0,0,1,1.72,1.7A10.28,10.28,0,0,0,79.6,55a2.24,2.24,0,0,0,4,0,13,13,0,0,0,1.12-2.2c.14-.32.13-.82.69-.81A111.58,111.58,0,0,1,94.64,66.38Z"/><path class="cls-5" d="M58.24,62.68c2,.11,2,.1,1,2a7.85,7.85,0,0,0-1,2,1.18,1.18,0,0,1-.65.32,1.5,1.5,0,0,0-1.19,1.65A2.68,2.68,0,0,1,56.21,70c-.41.38-.88.17-1.33.13a7,7,0,0,0-5.59,1.64A4.08,4.08,0,0,0,49.1,78c.51.54,1.31.76,1.62,1.51-.1.3-.36.38-.64.43-3.45-.34-6.91-.56-10.37-.62a104.57,104.57,0,0,0-16.68,1,14,14,0,0,1-1.59.08C23.93,76,26.37,71.57,29,67.24c3.53-.86,7-1.78,10.62-2.44,3.86-.72,7.74-1.3,11.65-1.66C53.6,62.92,55.92,62.72,58.24,62.68Z"/><path class="cls-6" d="M85.37,52c-.52,1-1,2.13-1.58,3.15a2.5,2.5,0,0,1-4.45,0,12.18,12.18,0,0,1-1.49-3.31,1.58,1.58,0,0,0-1.24-1.27,12.71,12.71,0,0,1-3.23-1.42,2.56,2.56,0,0,1,0-4.65c1.29-.77,2.74-1.18,4.08-1.83a34.4,34.4,0,0,1,1.74-4c1.19-2.06,3.46-2.11,4.69-.06a13.89,13.89,0,0,1,1.5,3.42,1.18,1.18,0,0,0,1,1,13,13,0,0,1,3.14,1.34,2.73,2.73,0,0,1,1.73,2.48,2.79,2.79,0,0,1-1.71,2.51,13.63,13.63,0,0,1-3,1.29A1.25,1.25,0,0,0,85.37,52Z"/><path class="cls-7" d="M22.09,50.54a2.53,2.53,0,0,1-.18,1.36,1.6,1.6,0,0,1-2.61.43,3.08,3.08,0,0,1-.18-3.49,1.49,1.49,0,0,1,1.59-.64,1.79,1.79,0,0,1,1.37,1.49A4,4,0,0,1,22.09,50.54Z"/><path class="cls-8" d="M108.59,68.56a1.82,1.82,0,0,1-1.13,2.09,1.62,1.62,0,0,1-2-.64,3.86,3.86,0,0,1,.06-3.19,1.57,1.57,0,0,1,1.61-.63,1.52,1.52,0,0,1,1.32,1.09A4.29,4.29,0,0,1,108.59,68.56Z"/><path class="cls-8" d="M22.12,58.23a2.06,2.06,0,0,1-.29,1.35,1.66,1.66,0,0,1-1.65.78c-1.05-.12-1.57-1.07-1.46-2.69.08-1.25.66-1.88,1.72-1.87S22.13,56.51,22.12,58.23Z"/><path class="cls-9" d="M103.15,66.38c-1.7,0-2.48-.69-2.29-2a1.45,1.45,0,0,1,.15-.5c.44-.82,2-1.16,3.21-.74A1.58,1.58,0,0,1,105.37,65C105.24,65.94,104.49,66.38,103.15,66.38Z"/><path class="cls-10" d="M110.58,66.38a1.94,1.94,0,0,1-2-.83,1.66,1.66,0,0,1,.84-2.4,4.16,4.16,0,0,1,2-.14,1.6,1.6,0,0,1,1.51,1.75,1.67,1.67,0,0,1-1.66,1.62C111.06,66.4,110.85,66.38,110.58,66.38Z"/><path class="cls-6" d="M108.58,60.88c0,1.65-.65,2.42-1.94,2.29a1.42,1.42,0,0,1-.42-.07c-.89-.35-1.38-1.89-1-3.21a1.61,1.61,0,0,1,1.86-1.25C108.07,58.74,108.58,59.52,108.58,60.88Z"/><path class="cls-11" d="M24.22,52.6c1.65,0,2.28.47,2.24,1.71a1.43,1.43,0,0,1-.39,1,3.54,3.54,0,0,1-3.5.29A1.63,1.63,0,0,1,22,53.74a1.52,1.52,0,0,1,1.52-1.14Z"/><path class="cls-6" d="M16.55,52.59c1.79,0,2.46.53,2.36,1.79a1.55,1.55,0,0,1-1.36,1.44c-1.46.31-2.81-.13-3.1-1A1.63,1.63,0,0,1,15,52.9C15.52,52.49,16.09,52.64,16.55,52.59Z"/><path class="cls-12" d="M50.72,79.55c-1.64-.87-3-2-3.23-4-.28-2.39,1.23-4.42,3.9-5.32A8.18,8.18,0,0,1,56,70.09c.33.14.29.45.34.72.28,1.33.84,1.66,2.11,1.24a1,1,0,0,1,.61-.12,4.39,4.39,0,0,1-.83,6.92A7.8,7.8,0,0,1,50.72,79.55Z"/><path class="cls-12" d="M87.14,70a8,8,0,0,1,6.45,1.16A4.49,4.49,0,0,1,94,78.54a7.6,7.6,0,0,1-9.9-.39,4.25,4.25,0,0,1,0-6.22s.07,0,.1,0c2.08.5,2.08.5,2.8-1.63A.43.43,0,0,1,87.14,70Z"/><path class="cls-13" d="M71.61,74.15A6.45,6.45,0,0,1,66.77,72a1.57,1.57,0,0,1-.1-2.3,1.66,1.66,0,0,1,2.4-.11c2.07,1.66,3,1.67,5,0a1.57,1.57,0,0,1,2.3,0,1.65,1.65,0,0,1,0,2.32A6.31,6.31,0,0,1,71.61,74.15Z"/><path class="cls-14" d="M87.14,70c0,.22,0,.43,0,.64a1.79,1.79,0,0,1-1,1.74,1.71,1.71,0,0,1-2-.49,7.53,7.53,0,0,1-.22-4,1.47,1.47,0,0,1,1.7-1.3,1.62,1.62,0,0,1,1.57,1.61C87.15,68.82,87.12,69.43,87.14,70Z"/><path class="cls-13" d="M59.1,71.93a1.84,1.84,0,0,1-2.12.45c-1-.49-.88-1.42-.94-2.29,0-.46.05-.91.05-1.37,0-1.62.51-2.1,2.15-2.11a2,2,0,0,1,1.12,2.19C59.26,69.84,59.54,70.91,59.1,71.93Z"/></svg>