<?xml version="1.0" encoding="utf-8"?>
<!-- Generator: Adobe Illustrator 22.1.0, SVG Export Plug-In . SVG Version: 6.00 Build 0)  -->
<svg version="1.1" id="图层_1" xmlns="http://www.w3.org/2000/svg" xmlns:xlink="http://www.w3.org/1999/xlink" x="0px" y="0px"
	 viewBox="0 0 280 280" style="enable-background:new 0 0 280 280;" xml:space="preserve">
<title>qiyu</title>
<path d="M115.9,10.5h7.1c0.4,0.2,0.8,0.3,1.2,0.4c13.6,2.4,23.1,11.7,25.5,25.2c0.3,1.6,0.4,3.3,0.6,5.2c1-0.5,1.8-0.9,2.5-1.3
	c6.8-3.9,13.6-7.9,20.5-11.8c3.9-2.2,8.3-1.3,10.5,2.4c7.8,13.3,15.5,26.6,23.1,40c2.1,3.7,0.8,7.9-2.7,10.2
	c-0.9,0.6-1.9,1.1-2.8,1.7l-84.4,48.8c-0.8,0.4-1.5,0.9-2.8,1.9h101.4c6.7,0,9.4,2.8,9.4,9.4c0,39.4,0,78.8,0.1,118.2
	c0,4.7-1.3,8.2-5.7,10.2H62.4c-4.4-2-5.7-5.5-5.7-10.2c0.1-30.5,0.1-61,0.1-91.5V166c-3.9,2.3-7.4,4.3-11,6.3
	c-4.4,2.4-8.6,1.4-11.2-2.9c-7.6-12.9-15.3-25.8-22.8-38.7c-2.6-4.4-1.4-8.6,3-11.2c4.1-2.4,8.2-4.7,12.3-7.1l10.7-6.2
	c-0.9-0.6-1.5-1-2.1-1.5c-10.1-7.8-14.6-18-12.2-30.6C27.9,52.5,51.1,42.6,69.9,54c5.9,3.5,11.6,7.2,17.5,10.9
	c0.8,0.5,1.5,0.9,2.6,1.5c-0.3-8.1-0.5-15.7-0.8-23.3c-0.6-13.9,7.4-26.2,20.2-30.7C111.4,11.6,113.7,11.1,115.9,10.5z M117.9,148.4
	h-16.2c-4.8,0-9.9-0.9-14.4,0.3c-4.7,1.3-8.7,4.8-13.1,7.1c-1.5,0.6-2.3,2.1-2.2,3.7c0.1,31.2,0.1,62.3,0.1,93.4v2.7h137.2v-107
	h-45.6V206c0,3.6,0,7.3,0,10.9c0.1,3.1-1.7,5.9-4.5,7.1c-2.8,1.4-6.3,0.8-8.4-1.5c-2.8-2.7-5.5-5.5-8.3-8.2
	c-0.5-0.5-1.1-0.9-1.9-1.6c-3,3.1-5.8,6-8.7,8.9c-0.8,0.9-1.8,1.6-2.8,2.2c-5.3,3-11.2-0.9-11.2-7.4c0-21.5,0-43.1,0-64.6
	L117.9,148.4z M174.5,45.1L28.7,129l15.7,26.5l145.4-84L174.5,45.1z M105.2,67.2c1-0.5,1.7-0.8,2.3-1.2c6.5-3.7,13-7.4,19.5-11.3
	c6.6-3.8,9.4-11.8,6.8-18.9c-2.8-7.9-11.5-12-19.5-9.2c-6.2,2.2-10.3,8.2-10.1,14.7C104.5,49.8,104.9,58.3,105.2,67.2z M83.1,80.1
	c-7.9-4.9-15.4-9.6-23-14.1c-3.2-1.8-6.9-2.2-10.3-1.1c-6,1.7-9.9,5.6-11.1,11.7c-1.3,6.4,0.8,11.8,6.2,15.5c5,3.5,10.5,3.9,16,0.8
	c4.9-2.8,9.8-5.7,14.7-8.5L83.1,80.1z M148.2,198.2v-49.6h-14.9v49.5C140.7,192.8,141.9,192.8,148.2,198.2z"/>
<path d="M271,112.3c-3,7.1-9.4,5.4-15.3,5.6c0,2.5,0,4.9,0,7.2c-0.1,4.7-3.4,8.1-7.7,8s-7.4-3.4-7.5-8c0-2.3,0-4.7,0-7.3
	c-2.6,0-4.9,0-7.3,0c-4.7-0.1-8-3.4-8-7.8c0.1-4.3,3.5-7.4,8-7.4c2.3,0,4.6,0,7.3,0c0-2.3,0-4.6,0-6.8c0-5,3.1-8.4,7.5-8.4
	c4.4-0.1,7.7,3.4,7.7,8.5c0,2.1,0,4.2,0,6.6c5.7,0.4,12.3-1.5,15.3,5.7L271,112.3z"/>
<path d="M232.4,72.1c-4.2,0.1-7.7-3.3-7.7-7.5c-0.1-4.2,3.3-7.7,7.5-7.7c4.2-0.1,7.7,3.3,7.7,7.5c0,0,0,0,0,0.1
	C239.9,68.6,236.6,72,232.4,72.1z"/>
<path d="M201.7,102.6c4.2-0.1,7.7,3.3,7.7,7.5c0.1,4.2-3.3,7.7-7.5,7.7c-4.2,0.1-7.7-3.3-7.7-7.5c0,0,0,0,0-0.1
	C194.2,106.1,197.5,102.7,201.7,102.6z"/>
</svg>
