<?xml version="1.0" encoding="iso-8859-1"?>
<!-- Generator: Adobe Illustrator 19.0.0, SVG Export Plug-In . SVG Version: 6.00 Build 0)  -->
<svg version="1.1" id="Capa_1" xmlns="http://www.w3.org/2000/svg" xmlns:xlink="http://www.w3.org/1999/xlink" x="0px" y="0px"
	 viewBox="0 0 512 512" style="enable-background:new 0 0 512 512;" xml:space="preserve">
<path style="fill:#FEEC9B;" d="M105.055,512c-4.059,0-7.957-1.612-10.833-4.488L4.488,417.778
	c-2.954-2.954-4.574-6.984-4.484-11.161c0.09-4.176,1.879-8.134,4.957-10.958l203.697-187.001l187-203.697
	c2.825-3.077,6.783-4.867,10.958-4.957c4.184-0.099,8.207,1.531,11.161,4.484l89.734,89.734c2.954,2.954,4.574,6.984,4.484,11.161
	c-0.09,4.176-1.879,8.134-4.957,10.958L303.343,303.343L116.342,507.04c-2.825,3.077-6.783,4.867-10.958,4.957
	C105.273,511.999,105.164,512,105.055,512z"/>
<path style="fill:#FFEB8C;" d="M105.055,512c-4.059,0-7.957-1.612-10.833-4.488L4.488,417.778
	c-2.954-2.954-4.574-6.984-4.484-11.161c0.09-4.176,1.879-8.134,4.957-10.958l203.697-187.001l187-203.697
	c2.825-3.077,6.783-4.867,10.958-4.957c4.184-0.099,8.207,1.531,11.161,4.484l89.734,89.734c2.954,2.954,4.574,6.984,4.484,11.161
	c-0.09,4.176-1.879,8.134-4.957,10.958L303.343,303.343L116.342,507.04c-2.825,3.077-6.783,4.867-10.958,4.957
	C105.273,511.999,105.164,512,105.055,512z"/>
<path style="fill:#F9A55F;" d="M303.343,303.343l11.297-10.37l-75.317-75.317c12.466-18.796,32.186-51.509,32.186-70.341
	c0-28.676-23.329-52.006-52.006-52.006s-52.006,23.33-52.006,52.006c0,7.732,3.334,17.808,8.116,28.297
	c-10.49-4.782-20.565-8.116-28.297-8.116c-28.676,0-52.006,23.33-52.006,52.006s23.33,52.006,52.006,52.006
	c18.833,0,51.545-19.72,70.341-32.186l75.317,75.317L303.343,303.343z M219.501,125.949c11.781,0,21.364,9.584,21.364,21.365
	c0,0.864-0.452,9.206-16.112,35.728c-1.768,2.996-3.543,5.903-5.252,8.637c-1.709-2.734-3.484-5.641-5.253-8.637
	c-15.66-26.522-16.112-34.864-16.112-35.728C198.136,135.533,207.72,125.949,219.501,125.949z M147.314,240.866
	c-11.781,0-21.364-9.584-21.365-21.364c0-11.781,9.584-21.364,21.364-21.364c0.864,0,9.206,0.452,35.728,16.112
	c3.005,1.774,5.922,3.555,8.663,5.269C173.067,231.092,154.026,240.866,147.314,240.866z"/>
<path style="fill:#FFC82D;" d="M511.996,105.384c0.089-4.175-1.531-8.207-4.484-11.161l-44.87-44.87L49.353,462.643l44.87,44.87
	c2.876,2.876,6.774,4.488,10.833,4.488c0.108,0,0.219-0.001,0.328-0.003c4.175-0.089,8.134-1.879,10.959-4.957l187.001-203.697
	L507.04,116.342C510.117,113.517,511.907,109.559,511.996,105.384z"/>
<polygon style="fill:#FF6E23;" points="266.831,245.165 245.165,266.831 292.972,314.64 303.343,303.343 314.638,292.973 "/>
<g>
</g>
<g>
</g>
<g>
</g>
<g>
</g>
<g>
</g>
<g>
</g>
<g>
</g>
<g>
</g>
<g>
</g>
<g>
</g>
<g>
</g>
<g>
</g>
<g>
</g>
<g>
</g>
<g>
</g>
</svg>
