<?xml version="1.0" encoding="iso-8859-1"?>
<!-- Generator: Adobe Illustrator 19.0.0, SVG Export Plug-In . SVG Version: 6.00 Build 0)  -->
<svg version="1.1" id="Capa_1" xmlns="http://www.w3.org/2000/svg" xmlns:xlink="http://www.w3.org/1999/xlink" x="0px" y="0px"
	 viewBox="0 0 512 512" style="enable-background:new 0 0 512 512;" xml:space="preserve">
<g>
	<g>
		<path d="M507.513,94.223L417.779,4.488c-2.954-2.954-6.977-4.583-11.161-4.484c-4.175,0.089-8.134,1.879-10.958,4.957
			L271.069,140.675c-3.273-25.551-25.141-45.367-51.568-45.367c-28.677,0-52.006,23.33-52.006,52.006
			c0,7.732,3.334,17.808,8.116,28.297c-10.489-4.782-20.565-8.116-28.297-8.116c-28.676,0-52.006,23.329-52.006,52.006
			c0,26.425,19.817,48.295,45.367,51.568L4.961,395.659c-3.077,2.825-4.867,6.783-4.957,10.958
			c-0.09,4.175,1.531,8.207,4.484,11.161l89.734,89.734c2.876,2.876,6.774,4.488,10.833,4.488c0.108,0,0.219-0.001,0.328-0.003
			c4.175-0.089,8.134-1.879,10.958-4.957l187.001-203.697l203.697-187.001c3.077-2.825,4.867-6.783,4.957-10.958
			C512.086,101.208,510.467,97.176,507.513,94.223z M219.502,125.95c11.781,0,21.364,9.584,21.364,21.364
			c0,0.864-0.452,9.206-16.112,35.728c-1.768,2.996-3.543,5.903-5.252,8.637c-1.709-2.734-3.484-5.641-5.253-8.637
			c-15.66-26.522-16.112-34.864-16.112-35.728C198.137,135.533,207.721,125.95,219.502,125.95z M125.949,219.501
			c0-11.781,9.584-21.364,21.364-21.364c0.864,0,9.206,0.452,35.728,16.112c3.005,1.774,5.922,3.555,8.663,5.269
			c-18.638,11.574-37.679,21.348-44.392,21.348C135.534,240.866,125.949,231.282,125.949,219.501z M104.584,474.54l-67.121-67.121
			L219.05,240.716l52.238,52.238L104.584,474.54z M292.953,271.286l-52.238-52.238L407.418,37.462l67.121,67.122L292.953,271.286z"
			/>
	</g>
</g>
<g>
</g>
<g>
</g>
<g>
</g>
<g>
</g>
<g>
</g>
<g>
</g>
<g>
</g>
<g>
</g>
<g>
</g>
<g>
</g>
<g>
</g>
<g>
</g>
<g>
</g>
<g>
</g>
<g>
</g>
</svg>
