<svg id="图层_1" data-name="图层 1" xmlns="http://www.w3.org/2000/svg" viewBox="0 0 120 120"><title>jdt</title><path d="M52.43,30.25a2.89,2.89,0,0,0-.72,0,.59.59,0,0,1-.52-.26c-.67-.88-1.36-1.75-2-2.64a.73.73,0,0,0-.83-.33l-1.86.29c-1,.15-1,.24-.73,1.2.53,1.67,1,3.35,1.61,5,.08.25.16.51.23.76-.14.09-.28.17-.42.27l-.43.32a2.84,2.84,0,0,1-1.72.57c-.67.07-1.59-.28-1.91.76,0,.1-.19.17-.31.23a13.14,13.14,0,0,0-1.11.72,8.2,8.2,0,0,1-1.4.81,3.23,3.23,0,0,0-1.67,1,21.75,21.75,0,0,0-4.34,3.61l34.6-3.61H70l.08-.13,2.48-.25a.32.32,0,0,1,0,.38l4.94-1.55c-.38-.35-.77-.67-1.13-1-.2-.21-.65-.38-.5-.69s.57,0,.87-.06.56.42.73.14-.24-.49-.39-.74a2.79,2.79,0,0,0-1.38-1.13.41.41,0,0,0-.53.13c-.15.24-.35.5-.23.77s.35,0,.53,0h.44c.1,0,.23,0,.26.08s-.1.22-.2.22a2.81,2.81,0,0,0-1.18.44,1.42,1.42,0,0,1-1.31.08,1.74,1.74,0,0,0-1.51.12h0c.85-2.49,1.62-5,2.41-7.52.18-.57.07-.75-.51-.85L71.57,27a.67.67,0,0,0-.7.31c-.48.66-1,1.28-1.47,2a1.81,1.81,0,0,1-2,1,2.44,2.44,0,0,0-.66,0,.36.36,0,0,1-.39-.17c-.45-.7-.93-1.39-1.35-2.11a1.91,1.91,0,0,0-.92-.9c-.5-.22-1-.46-1.48-.69-.17-.08-.34-.17-.33-.4,0-.94-.22-1.86-.23-2.81,0-2.91,0-5.83.18-8.74a48.9,48.9,0,0,1,.44-5.8c.06-.36-.06-.54-.46-.53-1.47,0-2.93,0-4.4,0-.45,0-.56.18-.5.59a26.93,26.93,0,0,1,.32,3.24c.13,3,.29,5.89.3,8.77-.05,1.37,0,2.66-.11,4-.16,1.61-.12,1.62-1.62,2.26a1.93,1.93,0,0,0-1.13.83c-.25.53-.63,1-.88,1.49A1.47,1.47,0,0,1,52.43,30.25Zm19.41,8a.48.48,0,0,1,.62.12l-.67-.1Z"/><path d="M39.76,82.09c-.13,0-.15,0-.13.09l.32,0Z"/><path d="M67.72,98.29c.46-2.51.94-5,1.41-7.53.27-1.49.55-3,.83-4.47l.17,0c.11,0,.29,0,.32-.09.21-.47.73-.56,1.06-.89A1.44,1.44,0,0,1,73,85a3.65,3.65,0,0,0,1.74,0c.13,0,.3-.06.26-.23-.09-.4.18-.46.45-.56a7.48,7.48,0,0,0,1.78-.86,2.51,2.51,0,0,1,2.1-.58c.2,0,.27-.11.29-.26a1,1,0,0,1,.5-.69c.26-.2.5-.41.75-.62,0,0,2.32-.51,4.76-4.39-32.36,3.19-41.9,4.66-44.7,5.26l-1,.09.18.1c-.31.09-.37.14-.38.16a.63.63,0,0,1-.12-.23h-.05a1.18,1.18,0,0,0,.17.24h0c.1.12.07.08,0,0h.52a.37.37,0,0,1,0,.18,3.77,3.77,0,0,1,0,1.46c0,.17-.2.35,0,.51s.34,0,.51,0,.43-.26.49.12.3.38.53.16a7.58,7.58,0,0,1,2-1.18,1.94,1.94,0,0,1,2.55.45,1.91,1.91,0,0,0,1.09.62l2.46.55Q50.94,91,52,96.82a7.34,7.34,0,0,0,.82,2.71c1.45,2.29,2.82,4.63,4.22,7l2.65,4.38c.2.34.37.43.58,0,0-.08.09-.15.13-.22,2.1-3.46,4.2-6.91,6.27-10.38A6.06,6.06,0,0,0,67.72,98.29Z"/><polygon points="24.4 77.59 26.49 49.94 9.04 53.79 8.63 58.76 13.65 57.65 12.01 79.05 24.4 77.59"/><path d="M29.65,53.26l-1.8,23.92L60.5,73.33A6.15,6.15,0,0,0,63.72,72a3.75,3.75,0,0,0,1.49-2.47L67,45.63,34.36,49.48a6.33,6.33,0,0,0-3.25,1.31A3.45,3.45,0,0,0,29.65,53.26ZM42,53,54.3,51.58,52.87,69.74,40.55,71.19Z"/><path d="M74.93,44.7A6.32,6.32,0,0,0,71.68,46a3.49,3.49,0,0,0-1.46,2.47L68.42,72.4l32.65-3.85c.25,0,.5-.08.73-.13a6.32,6.32,0,0,0,.62-.18h0a6,6,0,0,0,1.87-1,3.77,3.77,0,0,0,1.49-2.48l1.8-23.92ZM93.44,65,81.12,66.4l1.43-18.15L94.87,46.8Z"/><path d="M94,81.19h0a7.64,7.64,0,0,1-1.89,1.54l-20,11.56c-.29,1.55-.58,3.09-.86,4.63A7.64,7.64,0,0,1,70,101.78c-.07.11-.15.22-.21.33l-3.16,5.25,34.07-19.68a7.92,7.92,0,0,0,4-6.87V79.07a10.66,10.66,0,0,1-1.43.94l1.43-.94V74.6L94,76.32Z"/><path d="M49.85,101.43a9.52,9.52,0,0,1-1.24-3.6c0-.12,0-.23-.07-.35-.2-1.06-.4-2.12-.59-3.18L29.57,83.7,16.71,85.17a8,8,0,0,0,2.65,2.51l34.11,19.7c-.22-.36-.44-.72-.65-1.08C51.85,104.69,50.86,103,49.85,101.43Z"/><path d="M15.42,81.24l.41,0h-.42A.43.43,0,0,1,15.42,81.24Z"/><path d="M25.36,38.94a7.91,7.91,0,0,1,2.56-2.42l14.16-8.18a3.88,3.88,0,0,1,.54-2.62,4.42,4.42,0,0,1,3.31-1.93l.58-.09,1.22-.19a4.54,4.54,0,0,1,.81-.08,4.23,4.23,0,0,1,1.55.29l4.3-2.48v0c0-2.31-.1-4.63-.21-7.11,0-.85-.07-1.7-.11-2.55h0l-34.71,20a7.91,7.91,0,0,0-4,6.87V47L25,44.4Z"/><path d="M71.43,23.43a5.34,5.34,0,0,1,.69.05l.81.13,1.52.24a4.11,4.11,0,0,1,3,1.9,4,4,0,0,1,.53,2.59L92.1,36.52a4.33,4.33,0,0,1,.61.41L104,35.4a7.94,7.94,0,0,0-3.36-3.82L66,11.53c0,.58-.07,1.16-.09,1.76l-.06,1.33c-.1,2-.16,4.21-.17,6.61l4.29,2.48A4.26,4.26,0,0,1,71.43,23.43Z"/></svg>