<?xml version="1.0" encoding="utf-8"?>
<!-- Generator: Adobe Illustrator 23.0.3, SVG Export Plug-In . SVG Version: 6.00 Build 0)  -->
<svg version="1.1" id="组_1" xmlns="http://www.w3.org/2000/svg" xmlns:xlink="http://www.w3.org/1999/xlink" x="0px" y="0px"
	 viewBox="0 0 4000 4000" style="enable-background:new 0 0 4000 4000;" xml:space="preserve">
<style type="text/css">
	.st0{display:none;}
	.st1{font-family:'YouSheBiaoTiHei';}
	.st2{font-size:307.947px;}
</style>
<rect class="st0" width="4000" height="4000"/>
<g transform="translate(1996.008 2157.884) scale(2)">
	<g>
		<text transform="matrix(0.5 0 0 0.5 -206.2574 346.7705)" class="st1 st2">2021</text>
	</g>
</g>
<g>
	<path d="M3580.8,2909l-1596.6,923.1L387.6,2909v-366.6c-5.4,1.3-10.9,2-16.3,1.8v374.2l1612.9,932.7l1612.9-932.7v-522.1
		c-5.4,5.4-10.9,10.9-16.3,16.3V2909z"/>
	<path d="M387.6,1062.6l1596.6-923.1l1596.6,923.1v679.1c5.1,1.1,10.5,1.6,16.3,2.4v-690.9L1988.2,123l-4.2-2.4L375.1,1050.8
		l-4.2,2.4v662.6c5.4-0.4,10.9-0.7,16.3-1.1v-652.1L387.6,1062.6L387.6,1062.6z"/>
	<path d="M2064.4,1099.6c-0.4,1.8,0.2,3.6,0,5.4c-0.7,6.3,2.4,8.5,8.3,8c16.1-1.6,31.9,2,48.7,4.5c-3.4-13-10.5-21.7-17.8-29.9
		c-9.1-10-21.6-19-35-13.4C2059,1078,2066.1,1091.1,2064.4,1099.6z"/>
	<path d="M1642,1618.2l0.5-0.4C1642.4,1617.8,1642.2,1618,1642,1618.2z"/>
	<path d="M1641.5,1618.6l0.5-0.4C1641.8,1618.2,1641.7,1618.4,1641.5,1618.6z"/>
	<path d="M1642,1618.2L1642,1618.2L1642,1618.2z"/>
	<path d="M1999.1,1690.8c-6-10.5-11.4-10.5-17.4,0c-5.3,9.2-11.2,18.1-17.8,28.4c17.9,0,34.4,0,54.5,0
		C2008.8,1709.8,2004.3,1700.1,1999.1,1690.8z"/>
	<path d="M1597.3,1231.6c-7.2,19.6-19.6,34.2-21.4,54.2C1600.5,1277.1,1603.4,1269.7,1597.3,1231.6z"/>
	<path d="M1522.1,1381.1c6.7-6,13.2-12,21.6-19.6C1527.2,1359.9,1524.6,1370.4,1522.1,1381.1z"/>
	<path d="M1944.7,1391c0,3.1,0,6.2,0.2,9.2c5.6-2.4,10.5-4.9,14.5-7.4c19.6-12.9,19.2-29.5-0.2-57.2
		C1949.2,1354.1,1944.9,1372,1944.7,1391z"/>
	<path d="M2493.8,1428.3c0,10.1,0,20.1,0,32.2C2509.7,1444.1,2509.3,1438.1,2493.8,1428.3z"/>
	<path d="M1556,1428.9c-4.9-3.6-4.5-9.1-4.9-14.5c-0.5-12.1,0.9-23.7,5.6-35c2.2-5.3,0.2-12.1-4.9-8.9c-10,6.2-18.1,15.4-26.3,24.1
		c-6.9,7.4,3.1,11,4.9,16.7c2,6.5,0.2,13-0.7,19.4c-2.2,14.5-4.3,29-7.1,46.9c12-9.2,20.5-16.3,29.7-22.8
		C1562.7,1447.4,1571.9,1440.1,1556,1428.9z"/>
	<path d="M2017.2,1384.3c22.6-22.5,22.1-33-2.5-40c0,12.1,0,23.9,0.2,35.7C2014.6,1381.4,2016.3,1382.9,2017.2,1384.3z"/>
	<path d="M1978.6,402.5c-24.3,0-48.5,0-72.8,0c-30.8,16.8-36.4,26.4-32.8,61L612.4,1192.5v624.8l0.2-0.2
		c29.7-29.9,58.5-60.3,88.6-89.7c20.8-20.3,46.4-24.1,73.5-15c0.4,0.2,0.9,0.4,1.3,0.5v-425.9l1110.4-642.2c3.4,88.4,6,177,4,265.4
		c-0.7,31.7-3.8,61-42.4,69.7c-4,0.9-8,3.3-11,5.8c-11,9.6-28.3,13.6-32.2,29.7c-3.8,15-12.5,27-20.1,39.9
		c-9.4,15.8-31.2,17-42.6,2.7c-16.7-21.2-33-42.8-49.6-63.9c-13.6-17.4-31.7-25.2-53.8-22.1c-26.1,3.6-52.2,6.7-78.1,11.6
		c-29.2,5.6-45.3,31.5-39.3,60.7c1.8,8.7,3.8,17.6,6.9,25.9c2.5,6.9,1.3,8.3-5.6,11c-26.1,10.1-34.1,38.9-15.9,59.6
		c7.8,8.9,6.7,14.9,2.4,23.4c-9.6,17.9-19,35.9-28.4,53.8c-4.9,14.1-11,27.7-17.8,40.9c-4,8-8.2,15.9-12.3,23.9
		c-2,3.8-5.1,6-8.7,8.3c-28.4,18.5-56,38.8-89.5,47.8c-4.5,1.3-9.2,1.8-12.3,6.2c-28.4,38-66.1,68.1-92.9,107.4
		c-9.1,13.2-15.9,27.2-20.7,42.6c-8.3,26.6-22.5,37.9-51.1,39.7c-9.8,0.5-12.7,6.9-12.1,14.3c3.1,38.2-11.2,73.4-17.2,110
		c-3.1,19.2-14.7,24.3-34.2,30.3c26.4,6.2,48.5,10.5,63.4,31c5.4,7.4,36.4-3.3,43.7-11.2c25-28.3,52-51.8,94-48.2
		c23.2,2,46.7,1.1,70.3,0.2c35.1-1.4,64.7,8.7,87.7,36.2c4.3,5.3,10.1,15.2,15.2,13c8.2-3.4,15.4-13.4,15.2-22.5
		c-0.2-28.3,10.5-51.6,27.2-73.4c6.9-8.9-2.5-18.3,2.9-29.7c9.4-19.7,23.9-29.7,41.8-37.5c6.2-2.7,12.9-4.3,19.2-6.3
		c0.9-0.4,1.8-0.5,2.7-0.9l0,0c10-2.4,19.7-4.7,30.8-3.8c-4.7,15-16.7,25-23.7,37.9c-16.1,29.3-12.5,49.6,12.7,71.6
		c25.5,22.1,50.9,44.6,76.3,66.8c-16.1,2.2-32.4,4.3-48.5,6.5c18.7,0,37.3,0,56,0c17.9,3.4,35.9,0.7,59.2,2
		c-6.2-5.4-12.1-10.5-18.1-15.6c-19.9-17.2-38.6-33.5-58.9-50.9c20.1,2.5,23.9-10.3,29.2-23.2c13.9-34.6,29.2-68.8,43.7-103.4
		c1.8-4.3,4.9-9.1,8.3-6.7c4.2,2.9,7.2,8.9,8.5,13.9c13.6,52.5,8.7,106.2,9.6,159.4c0,1.4-0.2,2.9-0.5,4.3c-1.8,7.1-6.9,13.9-1.6,19
		c7.1,6.7,18.7,0.5,27.7,2.7c31.3,8,40.8-16.3,51.8-36c0.2-0.2,0.2-0.4,0.4-0.7c11.6-21.2,12.7-45.5,15.6-69
		c4-31.5,6.9-63,10.5-97.3c15.6,19.7,32.4,30.8,56,19c3.8-2,4.3-0.7,5.8,2.5c12.5,28.1,34.8,47.1,60.3,63.6
		c-13.6,1.1-25.2-3.3-36-10.1c-4.2-2.7-9.2-5.3-12,0.9c-9.1,20.8-26.4,36.6-33.7,58.3c-1.8,5.3-3.3,10.5-4.5,15.9
		c-4,15.6-7.1,31.3-14.5,45.8c-1.1,2-0.5,4.5,2,6.2c7.6,4.9,28.8-1.6,33.5-10.3c11.6-22.1,27.2-41.8,39.1-63.9
		c1.4-2.7,2.9-5.6,4.3-8.5c2.7-5.4,8.5-5.6,12.1-0.2c0.4,0.4,0.5,0.9,0.7,1.4c12.5,25.4,31.5,46.7,43.3,72.5c3.6,8,25.7,13.6,33,8.9
		c0.9-0.5,1.8-1.4,2.4-2.5c1.4-3.3-12.3-33.5-15.6-34.6c-36.4-10.1-41.7-15.6-45.6-53.4c-0.2-1.3-0.4-2.5-0.5-3.8
		c-1.1-7.4-2.9-14.5-6-21.6c7.8,0,15.6,2.4,22.6,6.3c10.1,5.6,18.1,14.5,21.4,23.9c1.3,4.2-1.6,12.9,7.1,12.1
		c6.7-0.7,17.6-2.2,18.8-6.2c6.9-19.7,21-12.3,33.3-10.5c29.2,4.3,29,4.5,29.2,34.4c0,3.1-0.2,6,0,9.1c0.9,14.5-5.6,36.8,1.3,43.3
		c0.5,0.4,0.9,0.7,1.4,1.1c14.7,7.6,36,2.4,54.7,2.9c7.1,0.2,9.1-4.2,7.1-9.1c-2.9-7.4-3.8-14.9-3.8-22.5c-0.2-10.3,1.3-20.7,0.7-31
		c-0.9-20.5,8.5-29,26.1-23.5l0,0c1.4,0.5,3.1,1.1,4.7,1.6c9.8,4.2,18.5,10.7,29.5,12.5c3.6,0.5,7.4,1.3,11.2,2
		c6.3,1.3,12.9,2.5,20.7,4.2c-24.6,21.6-47.6,41.7-73.4,64.1c2.5,0.4,5.1,0.5,7.6,0.7c17.6,1.4,32.8,1.3,48.2-0.5
		c20.7-19.9,42.6-38.4,65.4-55.8c-4.9-10.5-4.3-23.7-18.8-32.1c11.8-2.7,19.6-4.5,27.5-6.3c12.1-2.7,24.5-8.7,22.1,14.5
		c-0.7,7.6,12.1,16.7,18.5,25.2c8.3,11.2,20.5,19.7,17,37.7c-2,10.1,5.6,18.1,18.8,18.3c51.6,0.5,104.9,7.4,154.5-0.9
		c102-16.8,203.6-3.4,305.2-8.5c19-0.9,26.6-18.5,45.6-21.7c-12.3-6.9-20.5,1.1-29.5,0.7c-21.4-0.9-31.2-14.9-20.3-33
		c3.8-6.3,7.2-12.1,2.4-17.4c-4.9-5.1-11.2-11.2-20.3-5.3c-3.1,2-7.1,2-10-0.9c-9.4-9.8-19.6-4.5-31.2-1.3
		c1.8-13.8,13.6-13.9,21.6-18.3c16.8-9.1,34.2-16.8,50.5-26.6c5.8-3.4,17-9.1,11.4-17.2c-4.2-6.2-17-10.9-24.1-5.6
		c-14.7,10.5-20.8,0-29.7-7.6c-22.5-19.6-49.8-31.5-74.3-48c-21.9-14.9-23.2-20.7-10-43.3c4.9-8.3,15.2-17.2,7.6-27
		c-8.3-10.7-22.5-13-35.9-11.6c-22.5,2.5-23.7,1.8-19.7-19.6c3.8-20.7-5.4-37.5-25.5-45.6c-23.7-9.8-26.1-14.1-21.2-40.4
		c1.6-8.7,3.3-17.4,5.3-26.1c3.8-16.7,1.1-20.1-15.2-14.7c-10.3,3.4-12,1.4-12-8.7c0-11.4-6-14.9-16.1-7.8
		c-10.1,7.1-21.9,12.7-30.8,21.2c-18.1,17.8-42.8,19.4-64.5,23c-12.1,2-27.4-14.7-42-23.5c19.6-12.5,37.9-24.3,56.3-36.2
		c17-14.7,32.2-30.6,54.9-38.6c26.4-9.2,31-43.3,9.2-63.2c-17.2-15.8-37.7-27.7-54.5-43.7c-21.2-19.9-45.3-27.7-73.7-25.5
		c-13.6,1.1-27.2,0.2-41.5,0.2c2.4-11,7.2-21.4,9.4-32.4c3.1-16.5,2.2-29.9-3.4-40c88.9-4.2,157.8-17.6,157.2-54.2l580.4,335.7
		v402.3c6.3,0.7,12.7,1.6,19,2.7c23.9,4.2,39.7,19.2,47.1,42c2.9,8.9,7.1,11.2,15.6,9.4c4-0.9,8.5-0.7,12.5-0.2
		c13.9,2,21.9-1.4,28.1-16.7c7.2-18.3,22.8-28.1,41.3-32.1v-501.8l-1250.1-723c0.4-2.4,0.5-4.7,0.9-7.1c3.4-27-1.8-47.8-28.1-60
		c-29.7,0-59.2,0-88.9,0 M1601.3,1014.6c1.3-0.2,2.4-0.2,3.6-0.4c59.2-11.4,44.2-16.3,83.3,32.8c4.2,5.1,8.2,10.3,12,15.8
		c13.6,19.6,27.2,39.1,51.8,40.9c7.6,0.5,16.5-0.5,26.6-4c-13.6,18.8-18.3,34.1-13.6,51.3c1.4,5.3-0.7,7.4-7.1,9.1
		c-28.8,7.4-57.2,16.1-85.9,24.3c-1.6-10.7,0.5-20.8,2-30.8c0.9-6.5,1.4-13,0.4-19.6c-1.4-8-5.8-12.5-12-17.6
		c-27.4-22.5-56.3-43.5-73.4-76.1C1581.5,1026.2,1585.5,1016.6,1601.3,1014.6z M1557.2,1022.6c4.3,17.2,10.1,29.3,9.6,43.8
		C1557.6,1049.9,1556,1043.6,1557.2,1022.6z M1648.7,1624.2c0,0.2-1.3,0.5-1.6,0.4c-1.8-0.7-2.2-1.8-1.1-3.3l0,0c0,0,0,0,0-0.2l0,0
		c-0.9,0.7-1.6,1.1-2.2,0.9c-0.2,0-0.4-0.2-0.5-0.2c-0.9-0.5-1.3-2.2-1.8-3.3l0,0c0,0,0,0,0.2-0.2l-0.2,0.2l0,0
		c-1.4-1.1-2.7-2-4.2-3.1l0,0c-6.9-4.9-10.9-10-7.6-16.5c0.4-0.7,0.9-1.6,1.4-2.4c0.9-1.1,1.8-2.2,3.1-3.4
		c2.2,7.1-0.4,14.9,4.9,20.7c2.4,0.2,3.6,1.3,3.4,3.8c0.4,0,0.5,0,0.9,0c1.8,0.2,2.7,1.4,2.5,3.6c0.2,0,0.2-0.2,0.4-0.2v0.2
		c-0.2,0.2-0.2,0.4-0.2,0.4c1.3,0,2.4,0.4,2.7,1.4C1648.7,1623.3,1648.7,1623.6,1648.7,1624.2z M1668.6,1393.9
		c-3.6,6.2-8,11.8-13.2,16.7c-1.8,1.6-3.8,3.3-5.8,4.7c-27,19.2-47.8,44.7-72.6,69.6c30.1-0.2,51.8-12,69.2-35.3
		c6,10.3,12,19.4,7.8,31c-4.7,12.9-15.9,17.8-28.4,18.5c-42.8,2.2-80.2,17.6-114.5,42.8c-13,9.4-27.7,16.7-42,24.1
		c-19.9,10.5-32.2,6.3-40.9-12.5c-10.1-21.9-5.6-34.4,15.8-42.8c13.8-5.4,29-8,40.6-18.5c5.3-4.7,9.6-6.7,0.9-15.6
		c-8.2-8.5-9.2-23.9-13.4-36.4c-0.7-2.2-2.2-4.2-4.3-8c-43.3,44-87.5,85.9-147.6,110.3c8.3-17,19.4-29.2,28.6-42.6
		c26.4-38,50-78.3,77.9-115c50.4-66.5,83-142.2,119.2-216.3c11.8-24.1,8.7-35.7-15.4-55.4c34.8,2.9,65.2,3.1,92.6,20.3
		c17.8,11,16.8,31.2,9.4,47.6c-2.9,6.5-5.3,11.6-6.7,15.6c-4.9,13.4-0.7,16.3,18.8,29c4.5,2.9,9.6,5.3,13.4,8.9
		c0.4,0.4,0.7,0.5,1.1,0.9c4.9,3.3,13.9,3.6,10.3,13.9c-3.3,9.4-3.6,19.6-16.5,23c-5.8,1.4-11.6,3.4-17.6,5.4
		c-9.8,3.4-19.9,7.2-31.5,11.4c12.5,6.7,21.7,12.1,31.5,16.5c8.9,4,7.2,8.2,0.7,12.3c-10.1,6.3-20.7,12.1-31.2,17.9
		c-7.8,4.3-16.7,7.2-23.7,12.7c-4,3.1-11,6.2-14.9,9.8c-2.4,2.4-3.4,4.7-1.8,7.6c2.5,4.3,9.8,7.6,17.4,8.5c4,0.4,8.2,0.2,11.8-1.1
		c20.8-7.4,41.8-1.1,62.7-2C1670.5,1371.1,1675.5,1382,1668.6,1393.9z M1771.4,1296.8c-6.5,23-13.9,45.6-13.8,69.7
		c0,3.6,0.2,7.2,0.5,11c1.3,11-12.1,8.9-18.7,12.9c-4.5,2.7-8.3,4-14.1-0.7c-14.7-12.1-23-26.8-28.8-42.6
		c-6.2-17-9.4-35.5-13.9-53.3c-2.5-9.8,8.2-14.1,14.9-18.1c6.5-3.8,8.2,4.7,11.2,8.5c10.1,12.1,20.5,11.6,27.4-3.8
		c6.2-13.8,17.9-21.4,28.8-35.1c0.2,12.5,1.8,21.2-2.7,29.3c-3.3,5.8-3.4,10,4.3,11.4C1773.3,1287.2,1772.8,1291.9,1771.4,1296.8z
		 M1852.7,1323.1c-3.4,10.5-3.3,22.6-2.7,34.1c0.4,7.8,0.7,15.6,0.9,23.5c0.7,24.6,0.4,49.5-0.5,74.1c-1.1,32.2-3.4,64.5-6.5,96.7
		c-3.3,34.4-4.5,69.4-13.6,103.1c-1.3,4.9-1.1,10.5-8.3,14.1c0-8.7,0-16.1,0-23.7c0.2-33.1-0.7-65.8-15.4-96.9
		c-3.1-6.5,1.1-16.5,1.1-24.8c0-25.7,0.2-51.4,0.2-77.3c0-23.4,0.2-46.6,0.2-69.9c0.2-56.2,0-112.1-0.2-168.3
		c0-12-1.4-23.9-3.3-35.9c-1.1-8.3-2.5-16.7-3.6-25c-1.6-13,13.6-31.2,27.2-31.2c23.2,0,30.4,6.9,30.4,29.5c0,6.3,0,12.7,0,19
		c0,27.9,0.2,55.8-0.2,83.9C1858.1,1273.3,1860.8,1298.3,1852.7,1323.1z M1933.8,1468c-0.2,2.2-0.4,4.3-0.9,6.7
		c-1.8,9.4-6.5,19.4-14.3,27.4c-3.4-11.2-6-22.5-7.8-33.5c-4.5-27.5-4.7-54.7-1.4-81.7c2.5-21.9,7.2-43.8,13.4-65.6
		c1.6-6.2,5.1-11.2-0.4-17.9c-3.8-4.5-2.2-5.8,10.5-33.7c8.2,5.1,15.8,10.7,24.1,15c5.6,2.9,5.3,5.3,3.3,11
		c-5.1,14.5,14.3,42.9,29,44c6,0.4,8.5-4.7,9.8-8.7c1.4-4.3,0.2-9.6,1.1-14.1c1.1-5.4-4.9-14.9,6.5-15c8.2,0,17.9,0.2,20.1,11
		c2,10.1,4.9,21.7,17,14.1c7.8-4.9,18.1-15.6,7.6-28.6c-1.8-2.2-2.7-5.3-5.3-10.5c11.8,0,20.8,0,29.7,0c18.1,0.2,26.4,11,21.7,29
		c-0.9,3.4-1.8,7.4-4.2,9.8c-13.9,15.4-19.4,29.3,1.1,44.9c6.9,5.3,2.2,16.7,2.5,28.4c-10.3-9.1-18.7-16.3-27.4-24.1
		c-4.5,13.4-11.2,23.4-19.4,30.3c-14.7,12.3-34.8,15.6-58,13.6c1.4-9.2,9.8-13.2,14.7-20.1c0.7-1.1,1.4-2.2,2-3.4
		c-7.8-3.6-14.3-2.7-21,0.7c-1.3,0.5-2.4,1.3-3.6,2.2C1958.1,1415.3,1935.6,1433.1,1933.8,1468z M2142.2,1344.8
		c0,12.7,2.2,25-4.7,36.6c-2,3.3-2.2,6.3-1.3,10.1c2.5,10.5,3.6,20.5,3.4,30.3c-0.2,6.9-0.9,13.6-2.2,20.1v0.2
		c-4.7,23.4-16.7,44.9-34.1,65.4c-16.8-18.8-30.8-40-63-37.5c14.1-11.2,28.1-12.9,40.9-15.8c15.9-3.6,20.3-13.9,23.2-27.7
		c0.7-3.6,1.4-7.2,2.2-11c8.9-50.9,5.3-102.5,7.1-153.8c0.5-15.2-13.2-22.5-29.7-15c-25.7,11.6-52.4,20.7-78.8,29.9
		c-3.4,1.1-6.7,2.9-10.3,3.3c-8.3,0.9-14.3-4.3-16.5-10.9c-2.2-6.3,3.1-10.1,9.6-12.9c40.9-17,84.6-21,127.9-27.2
		c15.8-2.2,25.9,7.1,37.1,14.5c5.8,4,6.2,10.3,2.4,15.9C2136.9,1285.8,2142.2,1315.9,2142.2,1344.8z M1988.9,1496.1
		c-7.6-1.8-15.9-1.6-25.5,1.3c1.1-4.2,2.2-7.8,3.3-11.2c0.9-3.4,1.6-6.5,1.8-9.6c0.7-18.7,8.9-24.6,27.7-21.2
		c9.8,1.8,13,1.4,12.3,13.6c-1.3,19,13.4,34.8,32.4,36.8c18.1,1.8,26.3,13.4,36.4,29.9c-19.7-2.4-38.2-4-52-13.9
		c-2.4-1.6-4.5-3.6-6.5-5.8c-0.5-0.5-1.1-1.1-1.6-1.6C2008.5,1505,1999.4,1498.6,1988.9,1496.1z M2611.7,1643.7
		c0,7.6-10.9,13.9-18.5,12.9c-9.1-1.3-19.4-8.2-19.4-17.9c0-8.5,12-7.1,17-10.7C2601.7,1630,2611.5,1634.9,2611.7,1643.7z
		 M2512.1,1114.8c3.4,0.4,7.6,0.2,10.1,2.2c25.2,19.4,50,38.9,78.6,61.4c-30.8,2.7-46.6,23.4-65.6,39.3c-33,27.5-72.8,43.7-110.5,63
		c-6,3.1-16.8,3.3-15.4,12.1c1.8,10.7,10.9,0.4,16.3,2.7c19,8.5,40.4,11.6,58.5,22.8c16.8,10.3,33.3,21.2,50.7,30.8
		c8.3,4.5,11.6,12.3,14.9,19.6c10,22.5,29.7,40.8,27.9,68.7c-0.7,12-4.5,21.4-10.1,31.5c-5.8,10.5-20.1,18.3-13,34.2
		c0.5,1.4-4,5.3-6.3,7.8c-12.7,12.9-23.9,27.7-38.4,37.7c-17.9,12.5-39.7,18.1-62,17c-6.5-0.4-12.7-1.8-19.2,0.7
		c-24.1,9.8-48.7,17-73.4,22.1c-19,4-38.2,6.7-57.4,8.5c-4,0.4-8.2,0.7-12.1,1.1c-33.5,2.5-67.4,2.4-101.3,1.1
		c-41.1-1.6-83.7-2-123.2-15.2c-5.1-1.6-10-3.6-15-5.8c-12.7-5.4-25.4-12-38.2-18.1c12.5-4.9,23.2,3.6,34.2,5.6
		c1.4,0.2,2.7,0.5,4.2,0.7c36,6.5,71.7,13.6,108.7,12.5c10.5-0.4,21.6,2,31.9,4.9c15.8,4.3,30.6,5.1,45.1-3.8
		c6.5-4.2,13.8-3.3,21-2.5c17.8,2,35.1,1.6,52.4-0.5c8.9-1.1,17.6-2.7,26.3-4.5c13.9-3.1,27.9-7.1,41.5-11.4
		c8-2.5,15.9-5.3,24.1-8.2c28.1-10,45.3-33.1,58.9-58.1c13.2-24.1,22.6-49.5,22.6-78.3c0-16.7-6.5-25.2-18.3-35
		c-23.9-20.1-50-28.8-81-23.9c-16.7,2.7-31.3,8.3-42,21.6c-3.8,4.7-7.1,7.1-13.4,4.7c-30.8-11-62-21.7-93.1-34.2
		c50.2-12.9,88.9-46.2,133-69.4c10.3-5.4,17.6-13.4,24.3-23.2c18.3-27,40.6-50.4,68.7-67.6c7.1-4.3,11.8-9.8,12.9-18.3
		c1.1-8.2-1.1-11.6-10.1-12.1c-26.1-1.8-51.6-2.4-74.3,14.3c-2.4,1.8-5.4,3.8-8.2,3.6c-30.1-1.1-50.7,17.4-73,33.7
		c-19.4,14.1-26.4,38-45.8,51.8c-3.1,2.2-1.8,11.4-1.3,17.2c1.8,16.5-10.3,15.8-17.9,11.6c-9.1-5.1-20.3-11.8-18.3-26.1
		c0.4-2.9-0.4-6-0.9-8.9c-1.1-7.8-10.9-13.8-5.1-23.2c7.8-12.9,14.9-26.8,29.5-33c35.9-15,69.2-35.9,104.9-51.3
		C2400.5,1126.4,2454.1,1109.7,2512.1,1114.8z M2175.3,1393.7c15.6,13,21,26.1,16.7,39.7c-2,6.2-6.2,12.5-12.1,18.8
		c-0.5,0.5-0.9,0.9-1.4,1.4c-2.7,2.7-5.8,5.4-9.2,8.3c0.4-3.6,0.7-7.1,1.3-10.7c0-0.4,0.2-0.9,0.2-1.3c1.1-6.9,2.7-13.8,3.8-20.7
		C2176.6,1418,2177.7,1406.4,2175.3,1393.7z M2303.6,1271.5c5.3-8.3,10.3-15.6,15.2-21.9c17.8-22.6,34.4-32.8,48.9-30.6l0,0
		c-7.1,24.1-26.8,32.8-45.8,42.4C2315.5,1264.2,2309.4,1267.5,2303.6,1271.5z M2596.8,942.5c-62.3,12.1-61.4,28.1-61.4,28.1
		s-75-3.6-121.5,11c-23.7-4.9-48-8-72.1-10.9c-19.9-2.4-38.2,2.4-51.3,18.8l-0.2,0.2c-27.2-0.5-63.2,0.5-112.9,6.2
		c-6.5,0.7-13.2,1.4-20.1,2.4c-14.7-15.4-32.4-27.5-54.9-34.4c-6.3-2-10.5-5.4-9.6-12.9c1.6-12.7-2-25-2.2-37.5
		c-0.5-87.5-1.4-175.2,1.4-262.7L2596.8,942.5z M1923.5,439.1c42.9,0.7,85.9,0.2,129-0.4c1.4,0,2.9,0,4.5,0
		c9.8-0.2,14.7,0.5,14.3,10.9c0,1.1-0.2,2.2-0.2,3.4c-6.9,58.9-11.8,117.9-14.1,177.2c-0.5,13.9-1.1,27.9-1.3,41.7
		c-1.6,88.2-0.7,176.4-0.2,264.8c0.2,35.7,10.5,55.8,44.7,65.8c2,0.5,4,1.3,5.8,2c13.2,5.3,24.1,14.1,32.8,25.7
		c2.9,3.8,5.6,8.2,8,12.5c5.1,9.4,13.2,17.8,16.8,27.5c10.7,29.2,31.3,36.6,60.3,33c16.3-2,29.7-4.7,39.9-19.4
		c15.4-22.1,32.8-42.9,48.9-64.5c3.6-4.9,7.4-8.5,11.8-10.9c5.6-2.9,12.1-3.6,20.3-1.6c0.7,0.2,1.4,0.4,2.2,0.5
		c13,2.9,25.9,5.1,37.9,11.6c9.1,4.9,15.4,8.7,6.9,21.6c-19.6,29.5-44.7,52.2-72.1,73.9c-15.8,12.7-32.2,23.2-49.1,33.7
		c-27.2,17.2-55.2,21-86.6,15c-71.7-13.8-144.2-17.2-217-14.5c-13.9,0.5-28.1,0.2-42.2,0c-0.4,0-0.7,0-1.1,0
		c-31.3,0-31.2,0-30.6-30.4c0.2-10.5,7.6-3.6,11.4-5.4c3.8-1.8,11.2,2.5,11.6-4.5c0.2-3.4,0.5-6.9,0.9-10.3c0.7-8,0.9-16.1-2.5-23.2
		c-0.2-0.2-0.2-0.4-0.4-0.5c-2.5-3.3-12.5-2.5-16.1,1.1c-0.4,0.4-0.7,0.7-1.1,0.9c-5.1,4.7-10.1,7.8-15.4,9.4
		c-15.6,5.1-31.7-0.9-48-5.1c-6.2-1.6-13-0.2-21.6-0.2c1.3-2.2,2.5-4.2,3.8-6.3c9.4-15.9,17.4-30.8,27.2-44.6
		c13.2-18.3,34.4-25.2,54.3-33.3c15-6.2,22.5-13.6,24.6-32.1c8.5-79.2,5.6-158.5,4.2-237.7c-0.5-34.1-2-68.3-3.6-102.3
		c-1.6-34.2-3.6-68.5-5.6-102.9c-1.3-21.4-5.4-42.6-8.5-63.8C1906.1,445.1,1908.7,438.9,1923.5,439.1z"/>
	<path d="M2557.3,1786.1c-195.6,0.4-391.3,0-587.1,0.2c-122.6,0.2-245.5,0.4-368.1,1.1c-20.5,0.2-40.9,0.2-61.4,0.4
		c-9.4,0-18.5-0.2-27.2-0.9c-33.5-2.9-61.6-12.7-84.4-37.9c-3.6-4-7.1-8.3-10.3-13c-1.3-2-3.3-3.4-5.1-5.3c-2.5-2.7-5.3-4.5-9.2-4.5
		c-35.7,0.2-71.4,0-107.1,0c-1.3,1.8-2.4,3.8-3.6,5.6c13.2,12.3,26.4,24.6,40.2,37.7c5.8,5.4,11.8,11,18.1,16.8
		c-29.3,0-57.6,0.2-85.5,0c-23,0-45.8,0-68.7-0.4c-10.9-0.2-15,2.2-13.9,13.8c0.2,2.9,0.4,5.8,0.5,8.9c0.4,9.6,0.2,19.4-0.5,29
		c-0.7,11,1.8,15.9,14.3,15.2c20.3-1.1,40.8-0.2,61.2-0.4c4.9,0,8.7,0,10.5,4.2c0.5,1.3,0.9,2.9,1.1,4.9c2.2,28.8,2.7,28.8,31,28.8
		c8.3,0,16.8,0,25.2,0c24.6,0,25.4,0,25-24.1c-0.2-11.4,3.4-14.3,14.3-13.9c21.6,0.7,43.3,1.6,64.9-0.2c12.1-0.9,19.4,1.1,22.3,7.8
		c1.6,3.6,1.8,8.9,0.5,15.6c-2.2,11.8,2.5,15.9,14.5,15.2c15.6-1.1,31.3-1.3,46.9,0c15,1.3,23.4-2.2,19.7-19.2
		c-3.6-16.8,4.5-19.4,19.6-19.2c80.4,0.4,161,0.4,241.5,0.4c49.3,0,98.5,0,147.8,0c4.5,0,9.1,0,18.1,0
		c-30.8,30.8-58.9,58.5-86.6,86.2c-4.5,4.5-10,3.3-15.2,3.3c-33,0.2-66.1,0.5-99.1-0.2c-13-0.4-18.3,1.8-18.1,17
		c0.5,93.8,0.5,187.7,0.5,281.5c0,23.7,0,47.3,0,71c0,8.7,0,17.4,0,26.1c0,1.6,0,3.4,0,5.1c0,8.9,0,17.8,0,26.6
		c5.1-7.4,10.7-12.7,16.7-16.3c13-8,28.1-8.5,43.1-7.8c8.2,0.4,16.3,1.1,24.3,1.1c37.5-0.2,75-0.2,112.5-0.2
		c96-0.2,191.8,0,287.8,0.5c16.5,0.2,20.3-4.5,19.2-19.9c-1.4-19.7-0.4-39.7-0.4-59.4c0-115.8,0-231.7,0-347.4
		c-1.3-1.3-2.4-2.5-3.6-3.8c-14.1,27.7-38.2,27.4-63.6,27c-58.3-0.9-116.5-0.2-174.8-0.5c-4.2,0-9.6,2.7-13.6-3.6
		c26.8-26.6,53.6-53.1,80.2-79.9c4.7-4.7,9.8-6,16.1-6c129.7,0.2,259.6,0.2,389.3-0.2c10.7,0,13,3.6,12.7,13.4
		c-0.7,17.9-0.9,36,0,54c0.5,11.6-2.5,15.4-14.7,15.2c-32.4-0.9-64.9,0.2-97.3-0.5c-11.8-0.4-15,2.9-14.9,14.7
		c0.5,72.6,0.4,145.5,0.5,218.1c0,3.1-2.2,7.4,4.5,9.4c11.4-23.4,33.1-22.6,55.2-21.7c16.8,0.7,33.7,0.9,50.5-0.2
		c12.1-0.7,17.2,2.2,16.1,15.4c-1.3,14.9-1.1,30.1,0,45.1c0.7,11.8-3.3,19.9-11.6,28.1c-56.9,56.2-113.2,112.9-169.6,169.4
		c-4.2,4.2-10,7.1-10,14.1c0,16.5,0,32.8,0,49.3c0,19.4,0,38.9,0,58.5c2.7-0.7,4.2-0.7,4.9-1.4c14.5-14.5,29-29,43.5-43.5
		c74.3-74.3,148.7-148.5,223-222.8c4.7-4.7,6.3-9.2,6.3-15.8c-0.2-55.2-0.5-110.5,0-165.7c0.2-11-4-12.9-13.6-12.7
		c-25.2,0.5-50.5,0.2-75.7,0.2c-42.9,0-42.4,0-42.6-42.9c0-11.8,3.8-13.8,14.3-13.6c34.2,0.5,68.5-0.2,102.7,0.5
		c12,0.2,14.9-3.3,14.7-15.2c-0.5-65.6-0.9-131,0.2-196.5C2576.9,1789.7,2573.1,1786.1,2557.3,1786.1z M1995.8,2024.3
		c25.5,0,51.1,0,76.6,0.2c25.5,0,51.1,0,76.6-0.4c11.6-0.2,16.5,1.4,16.3,15c-0.7,70.3-0.5,140.6-0.2,210.9
		c0,10.5-1.6,14.3-13.4,14.3c-104.5-0.5-209-0.5-313.6,0c-10.5,0-12.7-3.4-12.7-13.2c0.4-70.8,0.5-141.8-0.2-212.7
		c-0.2-12.9,4.5-14.3,15.4-14.1c25.9,0.2,51.6,0.4,77.5,0.4C1944.2,2024.3,1970.1,2024.3,1995.8,2024.3z"/>
	<path d="M612.4,2247.7c4.7-4.7,9.2-9.4,13.9-14.3c0,46.7,0.7,87.3-0.4,127.9c-0.4,14.9,4.5,17.4,18.1,17.4c44-0.2,88-0.4,131.9-0.4
		c69,0,137.9,0,206.9,0.2c4.9,0,9.4-0.4,13.9-1.1c16.1-2.5,30.1-9.8,42.4-22.3c40.2-41.1,81.2-81.9,121.7-122.8
		c1.4-1.4,3.1-2.9,4.7-4.3c2.2-2.4,4-4.9,4-8.7c0-23.5,0-47.1,0-70.8c0-12.1,0-24.1,0-36.2c-2.5-1.8-5.1-3.8-7.6-5.6
		c-11,14.9-22.1,29.7-33.1,44.4c-1.4-1.3-2.9-2.5-4.3-3.8c0-50.9,0.5-101.8-0.4-152.7c-0.4-14.5,4-17.6,17.8-17.6
		c59.6,0.2,119.2,0.2,178.8,0.4c81.9,0,163.8,0,245.6,0c29.2,0,58.3,0,87.3,0c4.9,0,9.6,0,14.5,0c4.2,0,6.9-1.8,6.9-6.3
		c0-22.5,0-44.7,0-68.3c0-6.2,0-12.3,0-18.7c-14.9,9.4-20.3,23.9-38.4,23.7c-82.6-0.4-165.2-0.5-247.6-0.5
		c-71.7,0-143.3,0.2-215,0.2c-11.6,0-23.2,0-34.6,0c-11.6,0-15.2-2.7-15-14.9c0.5-22.3,0.4-44.4,0.4-66.7c0-18.7,0-37.3,0.2-55.8
		c0.2-11.2-3.3-14.5-14.1-13.9c-17.4,0.9-34.8,0.9-52.2,0c-11.4-0.5-15.6,2.4-15.2,14.9c0.5,26.3,0.4,52.7,0.4,79
		c0,13.9,0,27.7,0.4,41.7c0.2,12.5-3.1,16.1-15.8,15.9c-55.8-0.7-111.8,0-167.6-0.5c-1.8,0-3.6,0-5.4,0c-10.5-0.2-17.9,3.1-25.2,10
		c-0.5,0.5-0.9,0.9-1.4,1.4c-17.2,17.6-34.6,35.1-52.2,52.5c-17.4,17.4-34.8,34.6-52.2,51.8c-3.3,3.3-5.1,9.8-12.5,8.7
		c0-23,2-46-0.5-68.5c-0.2-2.2-0.4-4.2-0.5-6.3c-1.3-25.2,7.6-44.7,28.4-60.5c7.4-5.6,18.1-13.6,18.7-21c2-33,0.9-66.1,0.9-103.6
		c-44.6,44.7-85.3,86-126.6,127.2c-5.6,5.6-5.1,11.6-5.1,18.1c0,23,0,46,0,69c0,40,0,80.2,0.4,120.3c0,10.5-3.1,17.8-10.5,25
		c-1.3,1.3-2.5,2.5-3.8,3.6c-32.2,31.5-63.9,63.6-95.6,95.5c-4.2,4.2-9.4,7.4-9.4,14.5c0.2,35.1,0,70.3,0,110.3
		C543.4,2318.1,576.7,2284.1,612.4,2247.7z M711.1,2163.4c0-8.3,2-14.5,8.2-20.7c19-18.7,37.9-37.5,56.7-56.3
		c33.7-33.7,67.4-67.6,101.1-101.4c5.4-5.6,11-8,18.8-8c44.4,0.4,88.8,0.7,133.3-0.2c12.7-0.2,14.3,4.5,14.3,15.6
		c0,13-0.2,26.3-0.2,39.3c-0.2,63,0,126.3-0.2,189.3c0,15.2-36.8,54.7-60.3,68.3c-5.1,2.9-9.6,4.7-12.9,4.7
		c-40.8,0.2-81.7,0-122.5,0c-20.5,0-40.8,0-61.2-0.2c-3.4,0-6.9,0-10.5,0c-16.8,0-33.9,0-50.7,0.4c-10.9,0.2-14.5-2.5-14.3-13.9
		C711.7,2241.5,711.3,2202.4,711.1,2163.4z"/>
	<path d="M1253.6,2244c-11.2,11.2-22.5,22.5-33.9,33.9c-12.7,12.7-25.4,25.4-38.2,38.2c-31.7,31.7-63.4,63.4-94.9,95.1
		c-4.5,4.5-11.2,8-11.4,15.6c-0.2,35.7,0,71.4,0,107.2c6.3,0.2,7.8-3.8,10-6c42.8-42.8,85.5-85.3,128.3-128.1
		c13-13,26.1-25.9,38.9-38.9c11-11,22.1-22.1,33.1-33.1c27.5-27.5,55.1-55.1,82.8-82.8c2.9-2.9,6-6,8.9-8.9
		c7.6-7.4,17.4-5.4,25.5-3.4c8.7,2.2,4.2,11.2,4.2,17c0.4,36.6,0.9,73.4-0.2,110c-0.4,14.3,2.4,19.6,18.1,19
		c45.1-1.3,90.2-0.7,135.1-0.4c18.8,0.2,35.7-4.7,50.7-15.4c25.2-18.1,45.1-41.8,66.8-63.4c2.5-2.4,4.9-4.9,7.4-7.2
		c2-1.8,4-5.1,4-7.6c0-2,0-4,0-6c0.2-24.6,0.2-49.5,0.2-76.1c0-5.8,0-11.6,0-17.4c-3.3,3.3-6.7,6.5-10,9.8
		c-16.5,16.3-32.6,31.5-47.6,46.7c-4.3,4.5-8.9,9.1-13,13.6c-3.6,4-7.4,8-10.9,12.1c-19.4,22.3-40.4,33.3-70.1,28.8
		c-15.8-2.5-37.9,6.7-46.4-3.6c-8.2-9.8-1.6-30.8-3.3-46.9c-1.3-12.9,4.3-14.9,15.4-14.7c22.8,0.7,45.6,0.7,68.5,0.2
		c6-0.2,11.4-1.1,16.5-2.4c5.4-1.4,10.5-3.8,14.9-6.5c15.2-9.8,24.1-26.8,24.1-48.7c0-8,0-15.8,0-23.7c0-50.4,0-100.7-0.2-151.1
		c0-3.6,2.7-8.5-4.7-11.8c-10.9,22.5-31.7,19.6-52.4,19.6c-4.9,0-10,0-14.9,0c-85.1-0.2-170.5,0-255.6-0.2
		c-25.7,0-51.6-0.2-77.3-0.4c-13.8,0-16.7,3.6-16.5,16.8c0.2,11,0.2,21.9,0.2,33c0,13.2,0.2,26.4,0.2,39.5c0,42.8,0,85.7,0,128.4
		c0,3.3,0,6.7,0,10c0,5.1,0,10.1,0,15.2c1.4-2,2.7-3.8,4.2-5.4c12.9-13.9,29-13.2,46.7-12c2.4,0.2,4.9,0.4,7.4,0.4
		c-2.4,2.5-4.3,4.7-6.2,6.5C1256.7,2240.8,1255.3,2242.4,1253.6,2244z M1526.8,2177.4c-13.8-0.4-27.4-0.5-41.1-0.5
		c-22.8,0-45.6,0.2-68.5,0.2c-23.2,0-46.4-0.4-69.7-0.2c-13.9,0-27.9,0.2-41.8,0.7c-14.9,0.5-12.9-7.4-13-16.5
		c-0.2-9.4-1.1-16.7,13.2-16.5c73.7,0.7,147.5,0.9,221,0c15.2-0.2,13.8,7.4,14.1,17.6C1541.8,2173.4,1539.3,2177.7,1526.8,2177.4z
		 M1304.5,2068.2c74.5,0.7,148.7,0.7,223.2,0c14.1-0.2,13.8,6.5,13.4,16.3c-0.4,8.9,2.2,17.4-12.9,16.8c-13.9-0.4-27.9-0.5-41.8-0.7
		c-11.6,0-23.2,0-34.8,0.2c-11.6,0-23.2,0.2-34.8,0.2c-6.9,0-13.9,0-20.8,0c-6.9,0-13.9,0-20.8-0.2c-9.2,0-18.7,0-27.9,0
		c-13.9,0-27.9,0.2-41.8,0.5c-13.4,0.4-13-6.5-12.1-15.4C1293.5,2077.9,1288.6,2068,1304.5,2068.2z"/>
	<path d="M3589.7,1808.8c-3.1,0.5-6,0.9-8.9,1.3c-37,3.6-66.1-10.1-88.8-41.3c-4-5.4-8.5-12.1-16.8-12.3c-35.7,0-71.4,0-107.1,0
		c-1.3,2-2.7,4-4,6c15.9,15.2,31.7,30.6,47.8,46.2c-18.7,0-37.3,0-55.8,0.2c-25.9,0-51.8,0-77.7-0.4c-11.1-0.2-14.7,2.5-13.8,13.9
		c1.1,13.8-0.4,27.7,0.5,41.5c0.7,10-3.1,12.1-12.1,11.8c-16.1-0.5-32.4-1.1-48.7,0.2c-6,0.4-9.6-0.5-11.8-2.9
		c-2.4-2.5-2.7-6.9-2.7-12.7c0.7-31.2-0.2-62.5,0.4-93.7c0.2-9.4-2.2-12.5-12-12.1c-19.2,0.7-38.4,0.7-57.6,0
		c-9.6-0.4-12.1,2.7-12,12.1c0.7,20.5,0.5,40.9,0,61.2c-0.4,15.4,6.5,35.3-3.1,44.9c-7.4,7.4-27.4,2.4-41.7,2.7c-1.8,0-3.6,0-5.4,0
		c-4.3,0-6.7,1.8-6.7,6.3c0,30.6,0,61.4,0,92c9.1-4.2,13.2-10.3,18.8-14.9c10.3-8.7,23-4,34.4-3.4c5.6,0.4,3.8,6.5,3.8,10.5
		c0,48.7,0,97.3,0.2,146c0,6.9-2.9,11.2-7.2,15.6c-53.6,53.4-107.2,106.9-160.5,160.7c-6,6.2-12.1,8.5-20.5,8.3
		c-27-0.4-54.2-0.7-81.2,0c-10.7,0.4-14.9-2.2-14.1-13.8c1.1-18.5,1.1-37.3,0-55.8c-0.7-12.5,3.8-14.9,15.2-14.7
		c39.7,0.5,79.3-0.2,119,0.4c11.1,0.2,15.8-1.6,15.6-14.3c-0.7-57.6-0.7-115.4,0-173c0.2-11.6-3.6-13.9-14.3-13.8
		c-39.7,0.5-79.3-0.5-119,0.4c-14.1,0.4-18.3-4.2-16.1-17.2c0.5-2.9,0.5-6,0-9.1c-1.8-11.2,2.7-14.5,13.8-14.1
		c27,0.7,54,0.2,81.2,0.4c29.7,0,29.7,0,29.7-30.3c0-62.9,0-125.7,0-188c-6.5-1.6-8.3,2.5-10,4.9c-11.2,16.1-26.8,18.5-45.3,18.3
		c-87.7-0.7-175.5,0-263.2-0.7c-13.8-0.2-16.7,3.6-16.5,16.8c0.7,54,1.1,108.1-0.2,162.1c-0.4,15.2,5.1,17.4,18.1,17
		c32.4-0.9,64.9,0.7,97.3-0.7c17.4-0.7,14.3,9.8,13.9,19.4c-0.4,9.4,5.4,21.7-13.9,21c-39.7-1.3-79.3,0-119-0.7
		c-11.2-0.2-13.9,3.1-13.9,14.1c0.5,54.7,0.2,109.4,0.2,163.9c0,15.4,0,30.6,0,49.5c5.8-5.1,9.4-7.2,11.6-10.3
		c10-14.7,24.1-16.8,40.8-16.3c27,1.1,54.2,0.7,81.2,0c9.8-0.2,13.9,1.8,13.4,12.7c-0.9,19.7-0.7,39.7,0,59.4
		c0.4,9.8-3.1,12.5-12.3,12c-10.1-0.7-20.7,1.3-30.6-0.4c-42.2-6.7-75.2,6.5-100.7,41.3c-10.5,14.5-25.2,25.9-40.4,41.1
		c133,0,261.6,0,390,0.2c12.5,0,21.7-5.4,30.1-13.8c16.8-17,33.5-34.4,50.5-51.4c24.6-24.6,49.6-49.1,77.9-76.8
		c0,80.6,0,156.3,0,236.4c24.8-25.2,46.2-47.8,68.5-69.2c8.9-8.5,12.3-17.2,12.3-29.7c-0.5-134,0-267.9-0.7-402
		c0-6.5,0.7-10.9,2.9-13.8c2.7-3.6,7.4-4.5,15.2-3.8c10.1,1.1,20.5,0.4,30.6,0.2c16.5-0.4,25.2-9.1,26.4-25.5
		c0.9-12.5-5.8-29.9,2.7-36c8.9-6.3,25.4-2,38.4-2.4c3.6,0,7.2,0,10.9,0c24.3,0,24.8,0,24.1,24.5c-0.4,11.6,2.4,16.1,14.7,15.4
		c0.2,0,0.4,0,0.5,0c17.8-0.9,35.7-0.9,53.6,0c10.9,0.5,15.8-2.5,13.9-13.9c-0.7-4.7,0.4-9.6-0.2-14.3c-1.4-10,3.4-12,12.3-11.6
		c21,0.5,42,0.2,63,0.2c25.5,0,26.1,0,25.9,26.3c0,9.8,1.8,13.9,12.7,13.6c14.5-0.7,29-0.7,43.7-0.4c4.2,0.2,8.2,0.2,12.3,0.4
		c1.4,0,2.9,0,4,0c8-0.5,11.4-4.2,9.8-14.1c-0.5-2.9,0.4-6-0.2-9.1c-2-12.7,1.6-18.5,16.1-17c15.4,1.4,31.2,0.2,46.9,0.4
		c6.2,0.2,10.1-0.9,10.1-8.7c-0.4-30.4-0.2-60.7-0.2-91.1c-15.6,23.2-38.4,17.6-59.4,17.8c-7.6,0-15.6-0.7-23.2-0.5
		C3594.8,1808.2,3592.2,1808.4,3589.7,1808.8z M2745,2124.5c-1.4,6-5.1,5.8-9.1,5.8c-7.8,0.2-15.6,0-23.4,0c-3.1,0-6.3-0.4-9.4-0.2
		c-1.1,0-2,0.2-3.1,0.4c-17,3.1-20.7-4.5-20.1-20.3c0.5-12.5,1.8-19.2,16.3-16.8c8.2,1.3,16.7,0.2,25.2,0.2
		C2744.5,2093.3,2750.6,2101.8,2745,2124.5z M2728,1899.7c-6,0-12,0.2-17.9,0.2c-8.5,0.2-12.3-1.3-12.5-11.4
		c-0.7-40.2-1.3-40.2,39.3-40.2c39.5,0,79,0.4,118.7-0.2c9.6-0.2,13.2,1.8,13.4,12.5c0.4,39.3,0.9,39.3-38.4,39.3
		c-16.1,0-32.4,0-48.5,0C2763.8,1899.9,2745.9,1899.7,2728,1899.7z M2845.5,2093.2c8.9,1.1,18.1,1.3,27,0c17.4-2.5,21.6,3.6,21.6,21
		c-0.2,31.5-23.5,8.3-31.3,15.9c-7.4,0-12.9-0.7-18.1,0.2c-14.7,2.4-18.8-2.9-19.2-18.1C2824.9,2095.5,2830.3,2091.3,2845.5,2093.2z
		"/>
	<path d="M3611.4,2064c-4.7,0-9.4,0-14.1,0c-5.4,0-10.9,0-16.3,0c-3.1,0-6.2,0-9.1,0.2c-7.6,0.2-14.5-0.9-19-7.4
		c-10.7-15.8-25.5-19-43.7-17.8c-22.1,1.4-44.4,0.2-66.7,0.4c-6.5,0.2-13.6-2-20.1,2c5.8,8.3,14.9,12.7,18.8,22.6
		c-28.1,0-54.5,0-80.8,0c-1.4,0-2.7,0-4.2-0.2c-4-0.2-7.8,0-11.2,3.3c-23.5,23.4-47.1,46.7-74.5,73.9c30.1,0,57.8,0,85.5,0
		c15.8,0,31.3,0,47.6,0c-16.7,16.3-30.4,29.5-43.8,43.1c-1.3,1.3-2.4,2.4-3.6,3.6c-16.8,15.9-38,30.1-46.2,49.8
		c-8.7,21-2.9,48.4-2.5,73c0.2,12.7-2.9,25.7,2.5,39.5c15.8-15.8,31-31.2,46.2-46.4c10.9-10.9,21.7-21.7,32.4-32.6
		c5.3-5.3,10.1-9.1,18.5-8.9c31.7,0.5,63.6,0.2,101.1,0.2c-30.8,30.4-58,57.2-85,84.2c-4,4-9.8,7.2-9.8,14.3c0,35.7,0,71.4,0,107.6
		c2.9-0.7,4.3-0.7,4.9-1.3c54.2-54.2,108.3-108.5,162.7-162.7c5.4-5.4,10.9-10.9,16.3-16.3c10.9-10.9,21.7-21.7,32.4-32.4
		c5.3-5.1,7.1-10.3,6.9-17.4c-0.4-15-0.7-30.1,0-45.1c0.5-10-2.4-13.6-12.9-13c-8.9,0.4-17.8,0.4-26.6,0.4c-5.4,0-10.9,0-16.3,0
		c-6.7,0-13.4-0.2-20.1-0.2c-25.9,0-52,0-80.8,0c8.7-9.1,15.6-15,21-22.1c10.7-14.1,24.1-18.5,41.8-17.9c12.7,0.4,25.5,0.5,38.2,0.7
		c5.4,0,10.9,0,16.3,0c19.6,0,39.3-0.4,58.9-0.4c10.9,0,22.5-2,23.2-14.5c1.4-28.4,0.4-56.9,0.4-86.9
		C3650,2064,3650,2064,3611.4,2064z"/>
	<path d="M3665,1944.8c-22.6,0-45.3,0.2-67.9,0.2c-5.4,0-10.9,0-16.3,0c-75,0.2-149.8,0.2-224.8,0.2c-13.4,0-27,0-40.4,0
		c-4.7,0-10-1.8-13.8,2c-19.2,19-38.2,38.2-57.1,57.4c-1.4,1.4-2,4.3-2,6.7c-0.2,32.2,0,64.3,0,101.1c29.3-29.5,55.6-55.1,80.8-81.5
		c8.5-9.1,17.4-12.3,29.9-12.3c0.9,0,1.8,0,2.7,0c75,0.4,149.8,0.2,224.8,0.4c5.4,0,10.9,0,16.3,0c22.6,0,45.3,0,67.7,0.2
		c11.4,0,15.9-2.2,15-14.5c-1.1-14.9-1.1-30.1,0-44.9C3680.8,1947.3,3676.6,1944.8,3665,1944.8z"/>
	<path d="M378.9,2273.9c0,65.4,0,129.9,0,200c3.1-3.1,6-6,8.9-8.9c23.4-23.7,43.7-44.7,64.9-65c8-7.8,11-15.4,11-26.6
		c-0.4-119,0-237.8-0.7-356.9c0-14.5,4-18.3,17.8-17.4c17.9,1.3,36,0.2,54,0.2c13.2,0,19.9-6.2,19.9-19.7
		c-0.2-19.2-0.4-38.4,0.2-57.6c0.2-8-2.5-10.3-10.3-10.1c-14.3,0.5-28.8,0.2-43.3,0.2c-39.1,0-38.4,0-38.2-38.2
		c0-11.8,4.5-13.9,14.7-13.9c17.4-0.2,34.8-1.4,52.2-2.5c4.5-0.2,10,0.4,10-7.1c-0.2-32.6,0-65.2,0-97.6
		c-15.2,18.7-33.9,20.8-54.3,21.7c-32.6,1.6-65,4.3-97.6,6.7c-5.4,0.4-10.9,0.7-16.3,1.1c-10.5,0.7-21,1.4-31.5,2
		c-16.1,0.9-24.3,4.5-21.6,22.6c1.6,11.2,0.4,22.8,0.4,34.2c0,27.7,0,27.7,27.9,26.4c12.3-0.5,20.1-0.9,24.8,0.4
		c8.3,2.4,8.2,10,8.2,31c0,8.9-2.4,12.5-8.2,13.4c-1.8,0.4-3.8,0.4-6.3,0.2c-18.7-0.9-37.3,0.4-55.8-0.5c-9.8-0.4-11.8,2.9-11.6,12
		c0.5,29.3,0.2,58.9,0.4,88.4c0,3.4-2.7,8.5,4.7,11.4c13.6-28.3,39.5-24.6,64.9-24.3c1.4,0,2.7,0.2,3.8,0.4c6.5,0.9,8.2,4.3,8,12.1
		c-0.5,30.1-2.7,60.3,0.4,90c2.5,24.5,0.5,46.6-8.5,65.6c-6.9,14.5-17.9,27.4-34.2,38.2c-2,1.3-3.3,3.6-5.3,5.1
		c-25.9,18.3-35.3,42.6-31.3,74.1c2.5,20.1,0.5,40.8,0.5,61c1.8,0.7,3.6,1.4,5.4,2.2c21.4-21.7,42.8-43.5,64.9-66.1
		C373.8,2279,376.4,2276.5,378.9,2273.9z"/>
	<path d="M512.9,2060.2c-3.4,3.4-5.8,7.1-5.8,12.5c0.2,28.6,0.2,57.2,0.2,85.9c1.4,0.9,2.7,1.8,4.2,2.7
		c23.4-23.9,46.7-47.8,70.1-71.7c2.5-2.5,5.1-4.9,4.9-9.1c-0.2-30.1,0-60.3,0-93.5C560.2,2013.1,536.7,2036.6,512.9,2060.2z"/>
	<path d="M1975.7,2209.6c5.1,0,9.1-1.3,12.9-4.9c43.5-43.3,87.1-86.6,134-133.3c-40.6,0-76.3,0-111.8,0c-5.6,0-8.5,3.8-11.8,7.1
		c-42.8,42.8-85.5,85.5-131,131C1906.3,2209.6,1941.1,2209.4,1975.7,2209.6z"/>
	<path d="M791.7,2254.9c2.5-0.4,3.8-0.2,4.5-0.7c42.4-42.2,84.8-84.8,127.3-127c4.3-4.3,5.4-8.7,5.3-14.5c-0.2-28.1,0-56.3,0-89.1
		c-45.8,46-88.4,88.8-131.1,131.3c-3.4,3.4-6.2,6.9-6.2,12.3C791.7,2196.4,791.7,2225.6,791.7,2254.9z"/>
	<path d="M1971.2,3042.4L1971.2,3042.4l-0.4,1.1l0.7-0.2l0,0l0,0l0,0c0.2-0.5,0.2-1.1,0.4-1.8l0,0c-0.2,0.2-0.2,0.4-0.4,0.5
		C1971.3,3042.2,1971.3,3042.2,1971.2,3042.4z"/>
	<path d="M1565,2783.9c-9.6-4.7-18.3-11.1-25.5-20.3c-8.3-10.5-19.4-14.1-34.6-6.2c-5.1,2.7-10,5.3-14.9,8
		c23.4,23.2,48.2,47.1,74.8,71.4c-3.4-8.7-4.5-18.3-3.3-28.3L1565,2783.9z"/>
	<path d="M2235.6,2588.6c1.8-2.4,3.4-4.9,5.3-7.4c1.1-1.4,0.5-4.5-0.2-6.7c-4.9-13.8-7.4-27.7-8.5-41.8c-2.2-25.4,0-50.9,0.5-76.3
		c0.2-8.9,0.4-17.6,0-26.4c-0.2-5.3,3.6-10.9-5.8-10.9c-17.4,0.2-34.8-0.2-52.2,0.2c-6.5,0.2-9.8,4.7-13,10.3
		c-0.5,0.9-1.1,1.8-1.6,2.9c-8.5,14.3-17.2,28.4-27.2,41.5c-4.5,6-7.6,12-9.1,18.5c-0.9,3.8-1.3,8-1.3,12.1c0,5.6,0,11.4,0,17
		s0,11.4,0,17c0,0.2,0,0.2,0,0.4c0,14.5,0,24.5,1.1,32.6c0.4,2.7,0.9,5.1,1.4,7.4c0.4,1.4,0.9,2.9,1.3,4.2c0.5,1.3,1.1,2.7,1.8,4
		c4.9,9.8,14.1,18.7,31.3,35.7h36.6C2211.7,2615.2,2224.6,2603.3,2235.6,2588.6z"/>
	<path d="M2050.9,2506.5c0-2.7,0.2-5.6,0.4-8.3c1.6-22.8-9.1-27.5-26.8-31.7c-13.6-3.3-29.2-0.5-43.8,6.2
		c-27.4,12.3-51.3,37.9-52.4,63.4c-0.5,13.9-3.3,27.7-2.7,42c0.7,15.8,5.1,15.4,16.7,8.5c31.9-19,62.9-2.7,63.9,34.4
		c0,0.7,0,1.4,0.2,2.2h32.8v-0.4h16.5c-0.4-8.5,0.2-17.2-0.5-25.5C2056.5,2567,2050.1,2536.8,2050.9,2506.5z"/>
	<path d="M1963.9,2616.1c-4.2,5.1-10,5.8-15.2,7.2h21.6c0-0.5,0.2-1.1,0.2-1.6C1971,2617.4,1967.9,2611.2,1963.9,2616.1z"/>
	<path d="M1577,2698.9L1577,2698.9l10.7-75.9h136.9h0.2c10.7-3.8,20.8-5.3,29.2,0h81.7l-1.4,10.1c9.8-6.3,21-9.8,32.8-9.8h39.3
		c-11.4-9.1-22.6-18.5-34.2-27.4c-29.3-22.6-30.8-54.5-2.2-78.6c19.6-16.7,39.5-33,58.1-50.9c4.7-4.5,9.6-8.9,14.7-12.9
		c12-9.4,24.5-16.7,37.7-21c19.4-6.3,40.4-6.2,63.9,3.1c2.4,0.9,7.6,0.9,7.8,0c1.1-3.3,1.6-7.1,0.7-10.3c-2-6.5-8-5.8-13.4-6.2
		c-26.6-1.8-52.9-1.6-77.9,4.9c-14.1,3.8-27.9,9.6-40.9,18.3c-1.3,0.7-2.4,1.6-3.6,2.5c-2.4,1.6-5.3,2.5-7.6,4.2
		c-3.1,2-6.7,4.3-9.6,0.9c-2.9-3.4-2.2-7.8,0.9-11.4c1.3-1.4,2.7-2.9,4.3-4.2c4.5-4,9.4-8,12.5-15c-14.5,0-28.1-0.2-41.3-0.2
		c-7.8,0-15.6,0.2-23.4,0.4c-23,0.9-46.7,5.8-66.8,13.2c-24.3,9.1-47.5,9.4-71.6,10.7c-2,0.2-5.8-0.7-6-1.8
		c-4.7-17.2-25-23-28.3-42.9c-32.6,31.5-69,50.9-111.9,52.5c-52.2,1.8-104.5,0.9-156.9,0.2c-27.7-0.4-52.4-9.6-65.9-36
		c-5.6-11.2-7.8-24.1-10.3-32.2c-4.9,4.9-10,10-15,14.9c-10.5,10.5-21,20.8-31.7,31.3c-13,12.9-26.1,25.7-39.1,38.8
		c-15,14.9-30.1,29.9-45.1,44.7c19.9,10,41.3,20.7,62.7,31.3c18.7,9.2,21.2,16.8,10.5,34.1c-2.2,3.4-4.7,6.9-6.7,10.5
		c-10,17.8-4.5,27.9,15.6,27.7c15-0.2,29.9-2,43.1-2.9c2.2,12.1-9.6,21.7-1.4,33.5c10.1,14.3,20.3,28.1,39.5,31.2
		c7.6,1.3,15.2,3.8,15.4,14.1c0.2,13.2,0.4,26.4,0.4,39.7c0,8.2-8.9,17.6-2.4,23.7c6.7,6.3,14.5-3.8,22.3-5.3
		c4.9-0.9,8.9-2.5,8.9,5.4c0,18.3,10.5,13,17.6,5.8c10-10,21.9-16.5,33.9-22.6c8.5-4.3,17-8.5,25-13.6c6-3.8,11.6-6.5,16.8-8.2
		c24.1-7.8,42.4,3.8,57.6,19.2c2.5,2.5,5.3,4.9,7.8,7.1L1577,2698.9z"/>
	<path d="M2446.8,2746c29.7-6.5,53.3-26.3,80.2-38.2c3.1-1.4,6.2-2.9,9.2-4.2c10.9-4.9,22.3-9.4,35.9-7.1
		c21.9,3.8,10.3-27.2,27.7-29.7c0.5,0,1.3-0.2,1.8-0.5c8.3-6.2,16.5-12.5,24.5-19.2c21.6-17.8,41.8-37.1,61.2-57.2
		c6-6.2,10-13.6,12.7-21.4c0.5-1.6,1.1-3.4,1.6-5.1c9.6-35.1,22.8-46.9,58.9-48c10.1-0.4,12.7-4.5,14.5-13.6
		c3.1-16.1,3.4-32.8,11.4-50.5c-70.6,0-138.6,0.2-206.3,0c-21.9,0-43.3-3.1-60.5-18.5c-5.6-5.1-8.3-3.4-12.9,1.1
		c-25.7,25.9-51.8,51.6-77.7,77.5c-21.6,21.4-42.9,42.9-63.9,64.9c-2.4,2.4-4.7,4.7-6.9,7.2c-21.6,22.5-44.9,32.8-74.8,24.5h-0.2
		c-13.9-4-22.5,1.3-27.7,12.3c-0.4,0.9-0.9,1.6-1.3,2.5h33.1l-1.1,7.6l119-16.7l-21.6,154.2c16.7,2.7,32.2,1.3,48.5-0.5
		c8.2-0.9,18.5,0,11.1-13.8C2441.6,2751.1,2441.2,2747.3,2446.8,2746z"/>
	<path d="M1816.1,3016.8c1.8,7.8,3.4,15.6,5.3,23.4c0.9,4.2,1.8,8.2,2.5,12.3c4.5,24.1,7.1,48.9,18.8,70.8
		c45.6,85,92.4,169.4,138.6,254c0.9,1.8,1.8,3.8,2.7,5.8c1.8,3.6,4,7.1,8.3,7.2c6.9,0.2,8.2-7.8,10.9-12.7c1.4-2.7,2.9-5.3,4.3-8
		c24.3-44.2,48.4-88.6,72.6-132.8c1.1-2,2.2-4,3.3-6c18.1-33.1,36.2-66.1,54.3-99.3c3.1-5.6,5.6-11.2,7.8-17
		c2.4-6.3,4.3-12.9,5.8-19.7c11.1-52.2,22.8-104.2,34.2-156.3c5.1-23.2,9.8-46.4,14.3-68.1h-133.1c-16.3,0-31.2-6.5-41.5-18.5
		c-1.1-1.3-2.2-2.7-3.3-4.2c-2.2,2.7-4.5,5.1-7.1,7.4c-11.2,10-24.8,15-39.7,15h-174.6h-16.8c0.2,0.5,0.2,1.1,0.4,1.6
		C1794.9,2920.6,1805.2,2968.8,1816.1,3016.8z M1940.2,3104.7c-6-8-11.2-18.1-20.3-22.8c5.4-2,11-0.2,15.6,3.1
		c-1.8-4.3-2.2-17.8,0.7-24.8c2.9-7.1,3.6-9.1,4.3-10.7s4-15.2,2.7-23.5c4,3.4,5.3,8,6.3,12.9c4.5-6.3,10.9-11.4,17.8-14.5
		c9.1-4,15.8-7.2,19.4-13.2c0.4,3.4,1.1,8.3-2.4,11.6c-13,12.7-16.7,17.2-21.9,28.8c17.4-23.2,37.5-23.5,51.3-19.9
		c-1.1,0.9-2.2,1.8-2.9,3.1c-11,1.1-15.8,4.9-22.3,9.6c7.1-1.1,9.1-0.4,14.7,1.4c-13.6,1.6-27.7,14.7-27.2,27.7
		c0.7,17.6,17.8,29.2,33.7,20.5c0.4,2.7,1.4,5.6,2.9,8.7c-1.4,9.4-12,21.2-19.9,23.4C1971,3131.3,1953.9,3122.8,1940.2,3104.7z
		 M1965.5,3130.4c-10.9,9.6-15.9,9.8-31.3,10.5c0.7-13,0.9-18.7,6.9-26.8c5.8,6.2,12.3,11.2,19.6,14.3
		C1962.3,3129.3,1963.9,3130,1965.5,3130.4z M2026.8,3040.2l20.1-19.7l1.3-4.9c0.5-2,1.8-1.8,3.3-0.5l4.9,4.2l4.2,4.9
		c1.3,1.4,1.3,2.9-0.5,3.3l-4.9,1.3l-19.7,20.1l8,7.8l-2.5,3.1c-1.3,1.4-2.2,1.4-4.2,1.4h-9.8c-0.2,0-0.4,0.2-0.4,0.4v4.3
		c0,0.2,0,0.2,0,0.4c-0.2,0.2-0.2,0.4-0.4,0.5c-0.2,0-0.2,0.2-0.4,0.2l-1.3,0.4v2.5c-1.1,2.5-2.2,5.3-3.4,7.6
		c-3.4,1.4-7.4,3.8-9.2,5.6l-5.4,5.6c-6.2,3.1-12.5,2.7-18.1-2.4c-3.3-2.9-5.4-6.9-6.3-11.4c-0.2-0.5-0.2-1.1-0.2-1.6l10.3-10
		c2.2-2,5.3-7.1,6.3-10.9c0.2-0.7,1.3-1.4,2.7-1.6l6.9-0.2l0.4-1.3c0.2-0.7,0.5-0.7,1.1-0.7h4.3c0.2,0,0.4-0.2,0.4-0.4v-9.8
		c0-2,0-2.9,1.4-4.2l3.1-2.5L2026.8,3040.2z M2021.9,3027.5c2.5,0.7,4.9,1.8,7.1,2.7l-1.6,1.6l-2-0.9L2021.9,3027.5z M1981.7,3067
		c1.1-3.1,3.3-6.2,5.8-8.7c1.6-1.6,3.4-3.1,5.3-4.3c-0.9,2-2.5,4.7-4,6.2L1981.7,3067z M2001.9,3040.5c2-0.9,4.3-1.4,7.2-2l0,0
		c0,1.4,0,2.7,0,4.2C2006.3,3041.8,2004.3,3041.3,2001.9,3040.5z M2017.5,3026.2l-1.6,1.3c-11.2-3.1-22.6-2.7-33.3,2
		c1.4-1.3,2.9-2.7,4.7-4.2c1.3-1.1,2.4-3.6,2.9-5.3c9.4-3.1,21-2.7,27.5,0c-4,0.9-10,2-12.5,4.2
		C2009.4,3024.6,2013.5,3025.3,2017.5,3026.2z M2013.9,3118.1c-1.6,0.7-3.3,1.4-4.9,2.2c3.1-3.4,5.8-7.4,7.6-11.8
		c0-0.2,0.2-0.4,0.2-0.5c0.4,0.5,0.7,1.1,1.1,1.4c-0.2-1.1-0.4-2.2-0.5-3.3c1.3-3.8,1.4-7.4,0.5-10.9c0-0.4-0.2-0.5-0.4-0.9
		c0.9-4.3,2.5-8.2,4.9-11.8c0.5-0.2,1.1-0.4,1.8-0.5l0,0c3.4-1.1,5.4-4.3,5.4-7.8v-0.4c2.5-2.5,5.3-5.1,8-7.6c2.9,0,4.7-0.4,7.2-3.4
		l5.8-6.9l-7.8-7.6l4.2-4.2c7.1,8.9,10.9,20.1,10.7,32.4c-1.8-3.4-3.8-5.8-6.3-7.8c14.9,25.9-5.8,52.9-21.7,62.1
		c1.3-1.8,2.4-3.6,3.3-5.4c-12.9,13.4-33.5,16.7-55.1,11.1C1998.1,3133.8,2009.4,3125.5,2013.9,3118.1z M2106.3,3142.3l-109,62.9
		v-38.9l75.2-43.5v-86.9l33.7-19.6L2106.3,3142.3L2106.3,3142.3z M1993.3,2946.5l109,62.9l-33.7,19.6l-1.1-0.5
		c1.1-3.1,0-6.2-2.2-8.7l-4.5-5.1l-5.3-4.5c-4.9-4.2-12-3.1-13.9,3.4l-48.5-28.1l-50.9,29.3c-3.3-2.7-6.5-4.9-8.2-5.6
		c0.5,3.3,1.3,6.3,1.4,9.4l-17.8,10.1l-33.7-19.6L1993.3,2946.5z M1880.2,3016.4l33.7,19.6v40.6c-3.4,1.1-7.1,2.4-10.5,4.2
		c3.6,1.4,7.2,3.1,10.5,5.1v37.1l14.5,8.3c-0.5,5.4-0.7,11-0.9,16.7c8.2,0,18.3-0.4,25.7-2.4l35.9,20.8v38.9l-109-62.9
		L1880.2,3016.4L1880.2,3016.4z"/>
</g>
<path d="M1385.7,3037.3c-121.2-138.8-227.5-285.3-300.7-427.7c-0.5,0.2-1.3,0.4-1.8,0.4c-36,7.2-68.5-17.9-75.7-44.9
	c-8.5-31.5-5.4-63.2-5.3-94.9c0.2-15.9-3.8-19.2-19.7-19c-68.8,0.5-137.7,0.7-206.3,0.7c-48.4,0-96.7-0.2-145.1-0.4
	c-6.3,0-12.7-0.4-18.5-1.3v329l1371.8,793.2C1727.7,3418.6,1385.7,3037.3,1385.7,3037.3z"/>
<g>
	<path d="M3354.2,2780.2l2-1.1v-17.6v-117.4v-152.9c-2.2-8.5-3.3-17.4-3.8-26.4c-0.9-16.1-0.2-32.2-0.2-50.7
		c-31.9,11.8-61.2,11.6-88.9-13.4c-3.8,38.4-32.4,56.7-54.2,79.7c-5.4,5.6-10.9,11.2-16.5,16.7v130.4c-31.9-2.9-64.3-5.8-97.3-8.5
		c-125.5-10.3-245.5-25.4-359.2-44.2c-10.7,36-40.2,58-65.9,82.6c161,36.6,310.5,61,435.3,77.5L3354.2,2780.2z"/>
	<path d="M2943.7,2828.6c-117-31-230.4-65.2-338.6-101.4c-8.2,6.2-20.1,9.1-32.2,8c-19-1.8-34.8,4.5-49.1,16.3
		c-6,4.9-12.5,10-19.7,12.1c-13.4,4.2-25.9,8.3-31.2,23.4c-1.8,5.3-7.1,8.7-12.1,10.1c-23.7,6.7-48.5,15.6-72.3,8.9
		c-3.6-1.1-6.9-1.6-10-1.8l-9.2,66.7h-95.8c-0.7,3.1-1.3,6.3-2,10c-17.6,88.8-34.8,177.5-52.2,266.5c-0.5,3.1-1.3,6.2-2,9.1
		c-1.6,6.2-3.6,12.1-7.1,17.9c-20.8,34.6-41.7,69.4-62.5,104c-0.7,1.1-1.3,2.2-2,3.3c-2.7,4.5-5.4,8.9-8.2,13.4
		c-46.4,77.2-92.6,154.3-138.8,231.5c-1.4,2.4-2.9,4.7-4.2,7.1c-1.4,2.5-3.3,4.7-4.9,7.2c-7.1-2.5-8.3-9.1-11.2-13.8
		c-4-6.7-8-13.2-12-19.9c-40.9-67.9-81.7-136-122.6-204.2c-25.2-41.8-50.2-83.7-75.4-125.5c-4.7-7.8-8.2-15.9-9.8-24.8
		c-11.6-59.4-23.4-118.7-35-178.1c-3.1-15.8-6.2-31.7-9.2-47.5c-3.6-18.7-7.2-37.1-10.9-55.8h-88c-5.4,0-10.9-0.7-15.8-2.2
		c25.7,22.8,52.7,46.2,81.3,70.3c12,60.7,23.9,121.2,35.9,181.9c6.2,31.2,12,61.4,29.5,89.7c11.4,18.3,22.6,36.8,34.1,55.2
		l204,306.9c0,0,245.8-349.4,257.2-382.8L2424,3319l52.2-30.1l675.7-390.5L2943.7,2828.6z"/>
</g>
</svg>
