<?xml version="1.0" encoding="utf-8"?>
<!-- Generator: Adobe Illustrator 22.1.0, SVG Export Plug-In . SVG Version: 6.00 Build 0)  -->
<svg version="1.1" id="Capa_1" xmlns="http://www.w3.org/2000/svg" xmlns:xlink="http://www.w3.org/1999/xlink" x="0px" y="0px"
	 viewBox="0 0 512 512" style="enable-background:new 0 0 512 512;" xml:space="preserve">
<style type="text/css">
	.st0{fill:#FEA832;}
	.st1{fill:#FE9923;}
	.st2{fill:#FEDB41;}
	.st3{fill:#FFCC33;}
</style>
<path class="st0" d="M172.9,252.2l-13.5-3.4c-47.2-11.8-80.9-54.8-80.9-103.4v-14h64.2c6.5,0,11.7-5.3,11.7-11.7
	s-5.3-11.7-11.7-11.7c0,0-75.1,0-76,0c-6.5,0-11.7,5.3-11.7,11.7v25.8c0,59.4,41,111.7,98.7,126.1l13.5,3.4
	c6.2,1.6,12.7-2.2,14.2-8.5C183,260.2,179.1,253.8,172.9,252.2z"/>
<path class="st1" d="M444.3,108c-0.9,0-76,0-76,0c-6.5,0-11.7,5.3-11.7,11.7s5.3,11.7,11.7,11.7h64.2v19.3
	c0,46.6-30.6,87.9-75.1,101.7l-26.2,8.2c-6.2,1.9-9.7,8.5-7.7,14.7c1.9,6.1,8.4,9.7,14.7,7.7l26.2-8.2
	C418.7,258,456,207.6,456,150.8v-31C456,113.2,450.7,108,444.3,108z"/>
<rect x="220.3" y="296.7" class="st0" width="70.5" height="118.3"/>
<rect x="255.5" y="296.7" class="st1" width="35.2" height="118.3"/>
<path class="st2" d="M337.7,403.3v47c0,6.6-5.2,11.7-11.7,11.7H185c-6.6,0-11.7-5.2-11.7-11.7v-47c0-19.5,15.7-35.2,35.2-35.2h94
	C322,368,337.7,383.8,337.7,403.3z"/>
<path class="st3" d="M337.7,403.3v47c0,6.6-5.2,11.7-11.7,11.7h-70.5v-94h47C322,368,337.7,383.8,337.7,403.3z"/>
<path class="st2" d="M384.7,73.9l-14.1,142.2c-6.1,59.4-55.5,104.1-115.1,104.1s-109-44.6-115.1-104.1L126.3,73.9
	c-0.5-6.6,4.2-12.2,10.6-12.9h237.3C380.5,61.7,385.2,67.3,384.7,73.9z"/>
<path class="st3" d="M384.7,73.9l-14.1,142.2c-6.1,59.4-55.5,104.1-115.1,104.1V61h118.7C380.5,61.7,385.2,67.3,384.7,73.9z"/>
<path class="st0" d="M408.2,72.7c0,6.6-5.2,11.7-11.7,11.7h-282c-6.6,0-11.7-5.2-11.7-11.7c0-6.6,5.2-11.7,11.7-11.7h282
	C403.1,61,408.2,66.2,408.2,72.7z"/>
<path class="st1" d="M408.2,72.7c0,6.6-5.2,11.7-11.7,11.7h-141V61h141C403.1,61,408.2,66.2,408.2,72.7z"/>
<path class="st0" d="M318,154.5l-35.9-5.4l-16-32.4c-2.1-4-6.3-6.1-10.6-6.1c-4.2,0-8.5,2.1-10.6,6.1l-16,32.4l-35.9,5.4
	c-9.6,1.2-13.6,13.2-6.6,20l26.1,25.4l-6.1,36.5c-1.6,9.6,8.5,16.9,16.9,12.5l32.2-16.9l32.2,16.9c8.5,4.5,18.6-2.8,16.9-12.5
	l-6.1-36.5l26.1-25.4C331.6,167.7,327.6,155.7,318,154.5z"/>
<path class="st1" d="M324.6,174.5l-26.1,25.4l6.1,36.5c1.6,9.6-8.5,16.9-16.9,12.5l-32.2-16.9V110.6c4.2,0,8.5,2.1,10.6,6.1l16,32.4
	l35.9,5.4C327.6,155.7,331.6,167.7,324.6,174.5z"/>
<path class="st0" d="M361.2,450.3c0,6.6-5.2,11.7-11.7,11.7h-188c-6.6,0-11.7-5.2-11.7-11.7c0-6.6,5.2-11.7,11.7-11.7h188
	C356.1,438.5,361.2,443.7,361.2,450.3z"/>
<path class="st1" d="M361.2,450.3c0,6.6-5.2,11.7-11.7,11.7h-94v-23.5h94C356.1,438.5,361.2,443.7,361.2,450.3z"/>
</svg>
