<?xml version="1.0" encoding="utf-8"?>
<!-- Generator: Adobe Illustrator 27.0.1, SVG Export Plug-In . SVG Version: 6.00 Build 0)  -->
<svg version="1.1" id="图层_1" xmlns="http://www.w3.org/2000/svg" xmlns:xlink="http://www.w3.org/1999/xlink" x="0px" y="0px"
	 viewBox="0 0 256 256" style="enable-background:new 0 0 256 256;" xml:space="preserve">
<g>
	<g>
		<path d="M211,97.3c0-25.5,0-50.7,0-76c-0.5,0-1,0-1.5,0c-17,0-34,0-51,0c-0.8,0-1.6,0.2-2.4,0.5c-9.1,3.8-18.1,7.6-27.1,11.3
			c-0.6,0.3-1.5,0.2-2.1,0c-9.1-3.8-18.2-7.6-27.3-11.4c-0.6-0.2-1.2-0.4-1.8-0.4c-17.3,0-34.5,0-51.8,0c-0.3,0-0.6,0-1.1,0
			c0,25.2,0,50.3,0,75.7c-1.2-1.1-2.2-2-3.2-2.9c-5-4.5-9.9-9.1-14.9-13.6c-0.7-0.6-1-1.3-1-2.2c0-18.3,0-36.6,0-54.9
			c0-0.5,0-1.1,0-1.8c-3.5,0-7,0-10.6,0c0-7,0-13.8,0-20.7c75.1,0,150.2,0,225.4,0c0,6.8,0,13.7,0,20.6c-3.6,0-7.1,0-10.8,0
			c0,0.6,0,1.1,0,1.7c0,18.5,0,37,0,55.5c0,1-0.3,1.8-1.1,2.5c-5.5,5-10.9,10-16.4,15C212,96.5,211.6,96.8,211,97.3z"/>
		<path d="M192.4,169.8c0,5.1,0,10,0,15c-42.7,0-85.5,0-128.3,0c0-4.9,0-9.9,0-14.9c18.3,0,36.6,0,55,0c0-3.1,0-6.2,0-9.3
			c-15.1,0-30.1,0-45.2,0c0-4.4,0-8.6,0-12.9c15,0,30,0,45.2,0c0-2.9,0-5.6,0-8.5c-17,0-33.9,0-51,0c0-4.9,0-9.6,0-14.5
			c40,0,79.9,0,120,0c0,4.7,0,9.5,0,14.4c-16.9,0-33.8,0-50.8,0c0,2.9,0,5.6,0,8.5c15,0,30,0,45.1,0c0,4.4,0,8.6,0,13
			c-15,0-30,0-45.1,0c0,3.1,0,6.1,0,9.3C155.6,169.8,173.9,169.8,192.4,169.8z"/>
		<path d="M25.9,213c0-14.2,0-28.5,0-43c0.6,0.4,1.1,0.8,1.6,1.1c5.5,4,10.9,8.1,16.4,12.1c0.7,0.5,1,1.1,1,2c0,7.1,0,14.2,0,21.3
			c0,0.5,0,1,0,1.7c0.6,0,1,0,1.5,0c10,0,19.9,0,29.9,0c0.8,0,1.7,0.3,2.4,0.8c16.2,12,32.4,23.9,48.6,36c0.8,0.6,1.2,0.6,2,0
			c16.3-12.1,32.5-24.1,48.8-36.1c0.6-0.4,1.4-0.6,2.1-0.6c9.7,0,19.4,0,29.2,0c0.5,0,1,0,1.7,0c0-0.6,0-1,0-1.5c0-7,0-14,0-21
			c0-0.6,0.3-1.5,0.8-1.8c5.7-4.3,11.4-8.5,17.1-12.7c0.2-0.2,0.4-0.3,0.8-0.5c0,14.2,0,28.3,0,42.4c-13.1,5.4-26.3,10.9-39.4,16.3
			c-20.4,8.4-40.8,16.9-61.1,25.3c-0.9,0.4-1.6,0.3-2.4,0c-33.1-13.7-66.1-27.4-99.2-41.1C27,213.5,26.5,213.3,25.9,213z"/>
		<path d="M120.2,51.9c22.5,0,44.7,0,67.1,0c0,0.5,0,1,0,1.5c0,16.2,0,32.4,0,48.6c0,2.2-0.3,4.6-0.8,6.7c-1.4,5.7-5.6,9.4-11.5,9.8
			c-7.4,0.4-14.8,0.5-22.2,0.7c-1.1,0-2.2,0-3.2,0c-1.1-4.1-2.2-8-3.3-12.1c0.9,0,1.7,0,2.4,0c5.1,0.1,10.3,0.2,15.4,0.2
			c3.8,0,5.8-2.2,5.8-6.1c-11.5,0-23,0-34.7,0c-1.3,7.6-4.5,14.5-9.1,20.9c-5.4-2.4-10.7-4.8-16.2-7.2c0.5-0.6,0.9-1.2,1.3-1.8
			c5.2-6.8,8-14.5,8.3-23c0.4-12.1,0.4-24.2,0.6-36.3C120.2,53.2,120.2,52.6,120.2,51.9z M170.1,82.8c-11.2,0-22.2,0-33.5,0
			c0,2.5,0,5,0,7.5c11.1,0,22.3,0,33.5,0C170.1,87.8,170.1,85.3,170.1,82.8z M136.7,71.7c11.2,0,22.3,0,33.3,0c0-2.5,0-4.8,0-7.2
			c-11.2,0-22.2,0-33.3,0C136.7,67,136.7,69.3,136.7,71.7z"/>
		<path d="M76.3,120.1c-2.7-4.3-5.4-8.5-8.1-12.7c0-0.1,0-0.2,0.1-0.3c3.4-3.4,4.8-7.6,4.9-12.3c0.1-5,0-9.9,0-14.9
			c0-0.2-0.1-0.4-0.1-0.8c-2.8,0-5.6,0-8.5,0c0-5.4,0-10.6,0-16c5.3,0,10.7,0,16.1,0c-1.3-4.6-2.5-8.9-3.7-13.5
			c5.8-0.9,11.5-1.8,17.5-2.7c1.4,5.3,2.8,10.7,4.3,16.1c5.2,0,10.4,0,15.8,0c0,5.4,0,10.6,0,16c-8.2,0-16.4,0-24.8,0
			c0,6.1,0,12,0,18.1c7.4-2.6,14.7-5.3,22.4-8c0,2.5,0,4.7,0,7c0.1,2.7,0.2,5.5,0.3,8.2c0.1,1-0.2,1.5-1.2,1.8
			c-9.2,3.3-18.4,6.7-27.6,10.2C81.3,117.4,78.9,118.8,76.3,120.1z"/>
		<path d="M44.9,164.8c-3-2.2-5.8-4.3-8.6-6.3c-3.2-2.3-6.4-4.7-9.5-7.1c-0.5-0.4-0.9-1.1-0.9-1.6c0-16.9,0-33.7,0-50.6
			c0-0.2,0-0.4,0.1-0.9c2.2,2,4.2,3.9,6.3,5.7c4,3.6,7.9,7.2,11.8,10.9c0.5,0.4,0.9,1.2,0.9,1.8c0,15.7,0,31.5,0,47.2
			C45,164.1,44.9,164.3,44.9,164.8z"/>
		<path d="M211,165.2c0-0.7,0-1.2,0-1.7c0-15.3,0-30.6,0-46c0-1.1,0.3-1.8,1.1-2.6c5.5-5,11-10,16.5-15.1c0.3-0.3,0.6-0.5,1.1-0.9
			c0.1,0.5,0.1,0.8,0.1,1.1c0,16.7,0,33.5,0,50.2c0,0.5-0.3,1.3-0.7,1.6c-5.8,4.3-11.6,8.6-17.4,12.9
			C211.6,164.9,211.5,165,211,165.2z"/>
		<path d="M152.9,208.4c-4.5,3.3-8.7,6.4-12.9,9.6c-3.6,2.6-7.2,5.3-10.7,7.9c-0.6,0.5-1,0.6-1.8,0.1c-7.6-5.7-15.2-11.3-22.9-16.9
			c-0.2-0.2-0.4-0.3-0.7-0.7C120.2,208.4,136.4,208.4,152.9,208.4z"/>
	</g>
</g>
</svg>
