<?xml version="1.0" encoding="utf-8"?>
<!-- Generator: Adobe Illustrator 27.0.1, SVG Export Plug-In . SVG Version: 6.00 Build 0)  -->
<svg version="1.1" id="图层_1" xmlns="http://www.w3.org/2000/svg" xmlns:xlink="http://www.w3.org/1999/xlink" x="0px" y="0px"
	 viewBox="0 0 256 256" style="enable-background:new 0 0 256 256;" xml:space="preserve">
<g>
	<g>
		<path d="M32.2,31c-3.4,0-6.6,0-9.9,0c0-1.3,0-2.4,0-3.8c-2,0-3.9,0-5.8,0c0-5.6,0-11,0-16.6c1.9,0,3.7,0,5.8,0c0-1.5,0-2.9,0-4.3
			c70.5,0,140.9,0,211.5,0c0,1.3,0,2.7,0,4.2c2,0,3.9,0,5.9,0c0,5.6,0,11,0,16.6c-1.9,0-3.8,0-5.8,0c0,1.3,0,2.6,0,3.9
			c-3.4,0-6.8,0-10.3,0c0,0.6,0,1.2,0,1.7c0,48.9,0,97.8,0,146.7c0,1.2-0.3,1.8-1.5,2.2c-3.2,1.2-6.3,2.5-9.5,3.8
			c-0.4,0.2-0.8,0.3-1.3,0.5c0-51.6,0-103.1,0-154.7c-4.1,0-8.1,0-12.3,0c0,0.5,0,1.1,0,1.6c0,52.1,0,104.2,0,156.3
			c0,1.3-0.3,2-1.6,2.5c-22.7,9-45.4,18.1-68.1,27.2c-0.8,0.3-1.5,0.3-2.3,0c-23-9.2-45.9-18.4-68.9-27.5c-1-0.4-1.1-0.9-1.1-1.8
			c0-52.1,0-104.3,0-156.4c0-0.6,0-1.1,0-1.8c-4.1,0-8.1,0-12.2,0c0,51.4,0,102.9,0,154.6c-1-0.4-1.8-0.7-2.6-1
			c-2.9-1.2-5.8-2.4-8.8-3.5c-0.9-0.3-1.2-0.8-1.2-1.7c0-7.3,0-14.7,0-22c0-41.6,0-83.1,0-124.7C32.2,32.3,32.2,31.7,32.2,31z
			 M121.2,103.3c-0.4,0.1-0.6,0.2-0.8,0.2c-6.8,2-13.6,3.9-20.6,4.9c-1.7,0.2-2,0-1.6-1.7c0.6-2.6,1.3-5.1,1.8-7.7
			c0.2-1,0.7-1.1,1.6-1.2c8-0.3,15.9-0.7,23.9-1c0.5,0,1-0.1,1.5-0.2c-0.2-4.5-0.4-8.8-0.6-13.3c-5,0-9.8,0-14.6,0
			c0-0.1,0-0.2-0.1-0.3c1.1-0.8,2.3-1.5,3.5-2.3c-2.4-5.1-4.8-10-7.2-15.1c-5.7,3.9-11.4,7.7-17.1,11.7c1.4,2,2.7,3.8,4.1,5.7
			c-5.9,0-11.8,0-17.4,0c0,5.2,0,10.3,0,15.6c2.2,0,4.1,0,6,0c-0.1,0.8-0.2,1.5-0.3,2.2c-0.7,4.5-1.3,8.9-0.7,13.5
			c0.8,5.6,4.8,10.3,10.7,10.8c4.2,0.4,8.3,0,12.3-1.1c6-1.6,11.9-3.7,17.9-5.5c0.5-0.2,1-0.3,1.6-0.5c-0.5,2-0.9,3.7-1.4,5.5
			c2.8,1,5.4,2,8.1,3c0,0.1,0,0.2,0,0.2c-16.5,0-33,0-49.4,0c0,4.7,0,9.3,0,14c15.2-0.3,30.3-0.6,45.4-0.9c0,0.1,0,0.2,0,0.3
			c-2.9,0.6-5.7,1.3-8.6,1.9c0.2,0.9,0.3,1.7,0.4,2.4c-10.5,0-20.9,0-31.2,0c0,4.4,0,8.8,0,13.2c10.9-0.2,21.7-0.4,32.6-0.6
			c0.1,1.8,0.2,3.5,0.2,5.3c-14.3,0.3-28.4,0.6-42.5,1c0,4.2,0,8.3,0,12.5c33.3,0,66.5,0,99.6,0c0-4.9,0-9.8,0-14.8
			c-12.2,0.3-24.1,0.5-36.2,0.8c0.2-1.8,0.4-3.5,0.6-5.2c9.3-0.2,18.4-0.4,27.6-0.6c0-3.8,0-7.5,0-11.3c-9.1,0-18,0-27.1,0
			c-0.1-1.8-0.3-3.4-0.4-5.1c10.7-0.2,21.2-0.5,31.7-0.7c0-4,0-8,0-12c-0.9,0-1.6,0-2.4,0c0.2-0.7,0.2-1.2,0.4-1.7
			c0.2-0.5,0.5-0.9,0.7-1.5c1.9-6.1,2.8-12.4,3.4-18.8c0.8-8.9,1.1-17.8-0.6-26.6c-0.7-3.5-2.5-6.2-5.7-7.8
			c-2.3-1.2-4.8-1.7-7.3-1.9c-5.9-0.5-11.7,0.5-17.6,1.3c0.1,1.5,0.2,2.9,0.3,4.5c-1.1-2.9-2-5.6-3-8.4c-6.3,3.2-12.5,6.3-18.7,9.4
			c0.9,2.3,1.8,4.4,2.7,6.6c1.5,3.8,2.5,7.7,2.1,11.7c-0.5,5.1-1.2,10.2-1.9,15.3c-0.4,2.7-1.1,5.3-1.6,7.9c-0.1,0-0.2,0-0.3,0
			C123.8,112.4,122.6,107.9,121.2,103.3z M154.4,30.9c-17.8,0-35.3,0-53.2,0c8.9,3.7,17.5,7.3,26,10.9c0.4,0.2,1,0.1,1.4-0.1
			c4.2-1.7,8.3-3.5,12.5-5.2C145.5,34.6,149.8,32.8,154.4,30.9z"/>
		<path d="M223.5,193c0,5.9,0,11.6,0,17.5c-6,2.5-12.1,5-18.1,7.5c-25.3,10.5-50.6,20.9-76,31.4c-1,0.4-1.9,0.4-2.9,0
			c-30.9-12.8-61.9-25.6-92.8-38.4c-0.5-0.2-0.9-0.4-1.4-0.6c0-5.8,0-11.6,0-17.6c2.7,1.1,5.4,2.1,8,3.2
			c28.9,11.5,57.7,23,86.6,34.6c0.9,0.4,1.7,0.4,2.7,0c30.9-12.4,61.7-24.7,92.6-37C222.5,193.4,222.9,193.2,223.5,193z"/>
		<path d="M141.1,126.8c1.5-5.5,3-10.8,4.5-16.1c5.3-0.2,10.6-0.4,16-0.5c-0.4,1.6-0.7,3.2-1.1,4.8c-2.7-0.6-5.3-1.2-8-1.9
			c-0.8,3.3-1.5,6.5-2.3,9.8c3.9,1.3,7.7,2.6,11.8,4C154.9,126.8,148.1,126.8,141.1,126.8z"/>
		<path d="M147.5,100.1c0.2-1.2,0.3-2.3,0.5-3.5c4.8,0,9.6,0,14.3,0c0-3.3,0-6.6,0-10.1c-4.8,0.2-9.4,0.4-14,0.7
			c-0.2-1.4-0.3-2.6-0.4-3.9c4.9-0.3,9.8-1,14.7-0.4c0.8,0.1,1.1,0.4,1.1,1.2c-0.1,5.1-0.3,10.2-0.4,15.3c0,0.6-0.1,1.1-0.9,1.1
			c-4.7-0.1-9.5-0.1-14.2-0.2C147.9,100.2,147.8,100.2,147.5,100.1z"/>
	</g>
</g>
</svg>
