<?xml version="1.0" encoding="utf-8"?>
<!-- Generator: Adobe Illustrator 26.0.3, SVG Export Plug-In . SVG Version: 6.00 Build 0)  -->
<svg version="1.1" id="图层_1" xmlns="http://www.w3.org/2000/svg" xmlns:xlink="http://www.w3.org/1999/xlink" x="0px" y="0px"
	 viewBox="0 0 256 256" style="enable-background:new 0 0 256 256;" xml:space="preserve">
<g>
	<g>
		<path d="M245.9,118.7c-0.4-0.6-0.8-1.1-1.3-1.5l0,0l0,0l-3.4-2.7l-34.9-27.8l-1-0.8l0.3-1.3l15.3-69.4c0.3-1.6,0.1-3.2-0.7-4.5
			c-0.8-1.3-2-2.3-3.5-2.6c-0.4-0.1-0.8-0.2-1.2-0.2c-1.1,0-2.1,0.3-2.9,1l-17.4,12.4c-12.1,8.7-26.2,13.2-40.7,13.2
			c-3.7,0-7.4-0.3-11.1-0.9l-18.6-2.9c-4.3-0.7-8.7-1.1-13-1.1c-17.8,0-34.9,6-49.4,17.2c-0.2,0.1-0.3,0.3-0.4,0.4
			c-0.1,0.1-0.1,0.1-0.2,0.2l-6.9,6.8l-2.3,2.2l-1.2-3C47.8,45,39.7,39.4,31.1,39.4C18.9,39.4,9,50,9,63.1c0,9.8,5.8,18.8,14.4,22.3
			l0.9,0.4l0.3,0.9l54,151.3c2.1,6.2,8.7,10.3,16.2,10.3c1.1,0,2.2-0.1,3.2-0.3c5.3-0.9,9.8-3.9,12-8.1l0,0l0,0
			c1.9-3.4,2.2-7.4,0.8-11.1l-20.3-56.3l-0.5-1.3l1-1c13.4-12.3,30.6-19.1,48.2-19.1c2.9,0,5.9,0.2,8.8,0.6l21.1,2.7
			c3.3,0.4,6.6,0.6,10,0.6c16.5,0,32.6-5.1,46.4-14.7l18.7-13c1.3-0.9,2.1-2.2,2.4-3.8C247.1,121.9,246.8,120.2,245.9,118.7z
			 M30.9,74.8L30.9,74.8C24.8,74.7,19.9,69.4,20,63c0.1-3.1,1.3-5.9,3.4-8c2.1-2.1,4.7-3.2,7.4-3.2c0.1,0,0.3,0,0.4,0
			c6,0.1,10.8,5.4,10.6,11.8C41.8,69.8,36.9,74.8,30.9,74.8L30.9,74.8z M100.3,232.2l0.5,1.3l-1,1c-0.7,0.7-2,1.3-3.6,1.6
			c-0.5,0.1-1,0.1-1.5,0.1c-2.6,0-4.8-1.1-5.6-2.1l-0.2-0.3l-0.1-0.3L37,88.1l-0.7-2l2-0.7c1.8-0.7,3.5-1.6,5.1-2.8l2.3-1.7l1,2.7
			L100.3,232.2z M229.2,123.2l-9.7,6.7c-11.9,8.4-25.9,12.8-40.3,12.8c-2.9,0-5.9-0.2-8.8-0.6l-21.1-2.7c-3.3-0.4-6.7-0.6-10.1-0.6
			c-18.5,0-36.6,6.5-51.2,18.3l-2.3,1.9l-1-2.8L54.5,72.4L54,71.1l1-1l13.7-13.7l0.1-0.1l0.1-0.1c12.7-9.7,27.6-14.8,43.1-14.8
			c3.6,0,7.3,0.3,10.9,0.8l18.6,2.9c4.1,0.6,8.3,0.9,12.4,0.9c16.7,0,33-5.3,47.1-15.2l0,0l0,0l1.3-0.9l4.4-2.9l-1.1,5.2l-12,54.5
			c-0.5,2.4,0.3,4.8,2.1,6.2l33.6,26.7l2.3,1.8L229.2,123.2z"/>
	</g>
</g>
</svg>
