<svg xmlns="http://www.w3.org/2000/svg" viewBox="0 0 512 512"><defs><style>.cls-1{opacity:0.1;}</style></defs><title>sandbox032</title><g id="图层_24" data-name="图层 24"><path d="M471.26,237.68,400,184.11l28.16-121a10,10,0,0,0-15.31-10.57L381.45,73.65A132.22,132.22,0,0,1,288,94.78l-33.55-5A151.7,151.7,0,0,0,141.74,117.7a10,10,0,0,0-.93.77L124,134.29a39.94,39.94,0,0,0-38.38-29.63c-21.94,0-39.8,18.07-39.8,40.29a40.32,40.32,0,0,0,27.54,38.32l98.13,260.06c4,10.67,16,17.64,29.17,17.64a38.08,38.08,0,0,0,5.89-.46c9.64-1.54,17.57-6.6,21.74-13.89a21.47,21.47,0,0,0,1.48-18.78l-37.6-98.62A132.16,132.16,0,0,1,297,295.7l38,4.57a152.71,152.71,0,0,0,101.9-24L470.74,254a10,10,0,0,0,.52-16.36ZM65.77,145a19.81,19.81,0,1,1,19.8,20.28A20.07,20.07,0,0,1,65.77,145ZM210.89,436.68c-.84,1.46-3.31,3.4-7.53,4.07-6.63,1.06-12.25-1.95-13.2-4.48L95,184.08a39.51,39.51,0,0,0,17-9l99.13,260A1.64,1.64,0,0,1,210.89,436.68Zm215-177.15a132.67,132.67,0,0,1-88.53,20.88l-38-4.56a151.94,151.94,0,0,0-114.82,33.5L127.11,158.74,154,133.48a131.81,131.81,0,0,1,97.45-23.93l33.56,5a151.06,151.06,0,0,0,22.52,1.68,152.42,152.42,0,0,0,85-26l10.3-6.91L379,185.92a10,10,0,0,0,3.73,10.26l65.13,48.95Z"/></g></svg>