<?xml version="1.0" encoding="iso-8859-1"?>
<!-- Generator: Adobe Illustrator 19.0.0, SVG Export Plug-In . SVG Version: 6.00 Build 0)  -->
<svg version="1.1" id="Capa_1" xmlns="http://www.w3.org/2000/svg" xmlns:xlink="http://www.w3.org/1999/xlink" x="0px" y="0px"
	 viewBox="0 0 512 512" style="enable-background:new 0 0 512 512;" xml:space="preserve">
<g>
	<g>
		<path d="M511.933,412.213c-0.012-0.136-0.028-0.271-0.043-0.407c-0.038-0.326-0.089-0.65-0.149-0.973
			c-0.023-0.12-0.039-0.241-0.064-0.359c-0.083-0.391-0.184-0.779-0.299-1.163c-0.048-0.159-0.102-0.316-0.156-0.474
			c-0.086-0.254-0.177-0.505-0.277-0.755c-0.062-0.156-0.122-0.311-0.189-0.464c-0.152-0.347-0.315-0.689-0.494-1.025
			c-0.049-0.093-0.102-0.182-0.154-0.273c-0.169-0.302-0.349-0.599-0.541-0.89c-0.079-0.12-0.161-0.236-0.243-0.353
			c-0.173-0.248-0.355-0.491-0.545-0.73c-0.081-0.102-0.161-0.205-0.244-0.304c-0.041-0.049-0.078-0.101-0.12-0.151l-87.463-101.428
			c-11.973-13.886-29.357-21.85-47.693-21.85c-17.916,0-35.036,7.664-46.971,21.026l-14.626,16.377l-20.957-36.453l31.736-31.736
			c8.055,6.444,17.851,9.674,27.651,9.674c11.346,0,22.692-4.319,31.33-12.957l6.962-6.962c5.767-5.768,5.767-15.119,0-20.887
			L332.687,163c-5.767-5.767-15.118-5.768-20.887,0l-6.962,6.962c-16.098,16.099-17.188,41.601-3.283,58.981l-26.098,26.098
			l-34.326-59.71c-9.15-15.917-24.535-27.098-42.04-31.169v-35.905l123.506-48.032c5.677-2.207,9.416-7.674,9.416-13.765
			s-3.74-11.557-9.416-13.765L189.674,1.004c-0.081-0.032-0.165-0.049-0.247-0.079c-0.406-0.15-0.818-0.283-1.24-0.397
			c-0.155-0.042-0.308-0.083-0.464-0.119c-0.397-0.094-0.799-0.167-1.208-0.228c-0.158-0.024-0.315-0.053-0.473-0.072
			c-0.455-0.053-0.917-0.081-1.383-0.092c-0.097-0.002-0.194-0.015-0.29-0.015c-0.016,0-0.031-0.002-0.048-0.002
			c-0.548,0-1.089,0.035-1.623,0.094c-0.112,0.013-0.223,0.036-0.334,0.051c-0.447,0.059-0.887,0.135-1.32,0.233
			c-0.146,0.033-0.289,0.074-0.434,0.111c-0.405,0.105-0.802,0.225-1.193,0.362c-0.144,0.05-0.287,0.101-0.428,0.157
			c-0.414,0.161-0.818,0.341-1.213,0.537c-0.105,0.052-0.212,0.097-0.315,0.152c-0.5,0.263-0.987,0.55-1.451,0.867
			c-0.008,0.006-0.018,0.01-0.026,0.016c-0.326,0.224-0.637,0.462-0.941,0.708c-0.078,0.063-0.154,0.126-0.23,0.191
			c-0.321,0.271-0.634,0.549-0.928,0.844c-0.007,0.007-0.013,0.014-0.02,0.021c-0.291,0.292-0.566,0.6-0.831,0.914
			c-0.06,0.072-0.121,0.143-0.18,0.216c-0.254,0.314-0.497,0.636-0.725,0.969c-0.053,0.078-0.102,0.159-0.155,0.237
			c-0.183,0.28-0.356,0.565-0.52,0.857c-0.054,0.096-0.11,0.19-0.162,0.287c-0.178,0.335-0.342,0.677-0.493,1.024
			c-0.057,0.129-0.11,0.26-0.163,0.391c-0.133,0.328-0.256,0.661-0.365,0.998c-0.037,0.117-0.072,0.235-0.106,0.353
			c-0.096,0.324-0.179,0.651-0.252,0.982c-0.027,0.118-0.054,0.236-0.078,0.355c-0.079,0.4-0.14,0.804-0.185,1.212
			c-0.011,0.096-0.018,0.194-0.027,0.29c-0.04,0.443-0.068,0.889-0.068,1.338v149.399c-17.164,4.009-32.348,14.87-41.534,30.298
			L2.08,405.982c-0.058,0.098-0.107,0.197-0.162,0.295c-0.075,0.133-0.15,0.266-0.221,0.401c-0.169,0.322-0.328,0.648-0.472,0.979
			c-0.056,0.128-0.105,0.259-0.158,0.39c-0.115,0.286-0.221,0.575-0.317,0.866c-0.049,0.149-0.096,0.297-0.141,0.448
			c-0.108,0.367-0.206,0.736-0.286,1.109c-0.02,0.093-0.034,0.186-0.052,0.28c-0.069,0.359-0.123,0.72-0.165,1.082
			c-0.014,0.116-0.028,0.232-0.037,0.349c-0.04,0.433-0.064,0.867-0.066,1.302c0,0.019-0.003,0.036-0.003,0.056v54.154
			C0,492.123,19.876,512,44.308,512h423.385C492.124,512,512,492.123,512,467.692v-54.15
			C512,413.098,511.973,412.655,511.933,412.213z M322.841,194.925l33.619,33.619c-5.488,2.615-12.27,1.654-16.809-2.885
			l-6.957-6.957c-0.002-0.002-0.003-0.003-0.005-0.005c-0.002-0.002-0.003-0.003-0.005-0.005l-6.957-6.957
			C321.186,207.196,320.225,200.414,322.841,194.925z M199.091,36.359l77.405,30.102l-77.405,30.102V36.359z M348.32,321.318
			c6.337-7.095,15.427-11.164,24.94-11.164c9.736,0,18.966,4.229,25.323,11.602l66.409,77.014H358.084l-30.913-53.773
			L348.32,321.318z M153.398,209.577c6.456-10.842,18.305-17.577,30.924-17.577c12.844,0,24.799,6.917,31.201,18.053
			l108.489,188.716H40.752L153.398,209.577z M482.462,467.692c0,8.144-6.625,14.769-14.769,14.769H44.308
			c-8.144,0-14.769-6.625-14.769-14.769v-39.385h320h132.923V467.692z"/>
	</g>
</g>
<g>
	<g>
		<path d="M138.299,310.146h-0.985c-8.157,0-14.769,6.613-14.769,14.769s6.613,14.769,14.769,14.769h0.985
			c8.157,0,14.769-6.613,14.769-14.769S146.456,310.146,138.299,310.146z"/>
	</g>
</g>
<g>
	<g>
		<path d="M108.761,349.562h-0.985c-8.157,0-14.769,6.613-14.769,14.769s6.613,14.769,14.769,14.769h0.985
			c8.157,0,14.769-6.613,14.769-14.769S116.917,349.562,108.761,349.562z"/>
	</g>
</g>
<g>
	<g>
		<path d="M168.822,349.562h-0.985c-8.157,0-14.769,6.613-14.769,14.769s6.613,14.769,14.769,14.769h0.985
			c8.157,0,14.769-6.613,14.769-14.769S176.979,349.562,168.822,349.562z"/>
	</g>
</g>
<g>
</g>
<g>
</g>
<g>
</g>
<g>
</g>
<g>
</g>
<g>
</g>
<g>
</g>
<g>
</g>
<g>
</g>
<g>
</g>
<g>
</g>
<g>
</g>
<g>
</g>
<g>
</g>
<g>
</g>
</svg>
