<?xml version="1.0" encoding="utf-8"?>
<!-- Generator: Adobe Illustrator 22.1.0, SVG Export Plug-In . SVG Version: 6.00 Build 0)  -->
<svg version="1.1" id="图层_1" xmlns="http://www.w3.org/2000/svg" xmlns:xlink="http://www.w3.org/1999/xlink" x="0px" y="0px"
	 viewBox="0 0 275 260.8" style="enable-background:new 0 0 275 260.8;" xml:space="preserve">
<title>sandbox</title>
<path d="M5.6,43.2c0.2-0.3,0.3-0.6,0.4-0.9c2.7-12,12.1-19.7,23.9-19.7c11.5,0,20.9,7.9,23.5,19.8c0,0.2,0.1,0.3,0.2,0.7
	c0.6-0.4,1.2-0.7,1.7-1.1c11.7-9.2,25.2-13.5,39.9-14.8c15.1-1.4,30.1,0.4,45.1,1.8c13.7,1.3,27.5,2.7,41.3,1.3
	c17.5-1.7,32.2-8.6,43.6-22.3c3.5-4.3,9-4,11.1,0.6c0.7,1.7,0.9,3.6,0.7,5.5c-2.6,21.3-6.4,42.3-11.4,63.2
	c-0.9,3.6-1.7,7.2-2.7,10.7c-0.5,1.3,0,2.8,1.1,3.5c11.6,10.4,24.5,19.3,38.4,26.5c2.8,1.4,5.5,2.8,6.6,6v4.6
	c-3.2,9.9-11.2,15.5-19.2,21c-11.2,7.7-24,10.6-37.4,11.4c-13.4,0.8-26.9-0.5-40.3-1.8c-13.6-1.3-27.3-2.8-41-1.8
	C112.7,158.7,97,165.5,85,180c-1,1.1-1.4,2.7-0.8,4.2c5,17.5,9.9,35.1,14.7,52.7c2.2,8-1.4,14.4-9.3,16.7c-0.8,0.2-1.6,0.5-2.5,0.7
	c-7.8,2.1-14.3-1.6-16.5-9.3c-3.8-13.7-7.7-27.4-11.5-41.1c-12.3-44.1-24.6-88.2-37-132.3c-0.3-1.1-1-2-1.9-2.6
	c-7.6-3.6-12.3-9.4-14.1-17.6c-0.1-0.5-0.3-1-0.4-1.4V43.2z M227.7,19.1c-0.4,0.1-0.7,0.3-1.1,0.4c-14.5,14-32.2,19.5-51.9,20.1
	c-15.4,0.5-30.6-1.5-45.9-2.9c-12.5-1.1-24.9-2-37.5-0.3c-16.1,2.2-29.6,9.2-40.1,21.7c-1.2,1.2-1.6,3-1,4.6
	c8.4,29.9,16.8,59.8,25.1,89.7c1.7,6.2,3.4,12.3,5.1,18.4c0.3,0,0.4,0.1,0.5,0c0.3-0.2,0.5-0.4,0.8-0.6
	c13.4-14.2,30.2-20.5,49.3-21.8c15.9-1.1,31.7,1,47.4,2.4c12.9,1.2,25.8,2.2,38.7,0.8c16.2-1.8,30.1-8.4,40.8-20.9
	c0.9-1.2,1.7-2.5,2.4-3.8c-1.4-0.8-2.4-1.3-3.3-1.9c-14.4-7.7-27.8-17.1-39.9-28c-3-2.4-4.3-6.4-3.2-10.1c3.4-15,6.8-30.1,9.9-45.1
	C225.5,34.5,226.3,27,227.7,19.1z M31.3,71.3c0.1,0.6,0.3,1.2,0.4,1.9C43.4,114.8,55,156.4,66.6,198c4.1,14.5,8.1,29,12.2,43.5
	c0.4,1.5,1.7,4,2.6,4c2.8,0.1,5.5-0.5,8-1.6c2.2-1,1.4-3.5,0.8-5.6c-13.8-49.5-27.7-99-41.5-148.6c-2.1-7.4-4.1-14.8-6.2-22
	L31.3,71.3z M14.4,46.5c-0.1,8.5,6.7,15.4,15.1,15.6c8.3,0.2,15.6-7,15.6-15.5c-0.2-8.5-7.2-15.2-15.7-15.1
	C21.3,31.7,14.6,38.3,14.4,46.5z"/>
</svg>
