<svg id="Capa_1" enable-background="new 0 0 497 497" height="512" viewBox="0 0 497 497" width="512" xmlns="http://www.w3.org/2000/svg"><g><path d="m469.5 221c0-59.61-20.052-113.453-66.799-160.2-40.382-37.71-94.591-60.8-154.201-60.8-124.816 0-226 101.184-226 226 0 65.628 27.984 124.712 72.658 166l282.862 7c52.081-41.403 91.48-106.297 91.48-178z" fill="#f3f1f4"/><path d="m402.701 60.8c37.709 40.382 60.799 94.59 60.799 154.2 0 71.257-32.986 134.803-84.512 176.226-.625.503-1.406.774-2.208.774h-281.622c40.29 37.236 94.154 60 153.342 60 124.816 0 226-101.184 226-226 0-65.206-27.626-123.951-71.799-165.2z" fill="#d5d9f2"/><path d="m385.086 85.447c-35.3-34.31-83.471-55.447-136.586-55.447-108.248 0-196 87.752-196 196 0 69.94 269.272 166 269.272 166 66.07-31.513 111.728-98.922 111.728-177 0-49.774-20.441-95.504-48.414-129.553z" fill="#717ed4"/><path d="m52.5 226c0 69.94 36.64 131.313 91.765 166l177.508 7c74.069-35.329 117.727-102.439 117.727-179 0-49.774-23.626-104.595-54.414-134.553 8.999 15.991 20.219 45.441 21.753 79.681-12.741 0-23.072 10.329-23.072 23.07 0 11.291 8.112 20.687 18.826 22.68-2.495 10.308-6.149 20.699-11.232 30.988-4.878-2.815-10.536-4.43-16.572-4.43-18.339 0-33.204 14.866-33.204 33.205-12.825-17.552-32.398-28.77-54.331-28.77-22.407 0-41.86 11.38-51.616 28.068l-4.595-17.481c-3.394-5.982-8.478-10.877-14.606-14.037l-16.24-3.924c9.785-10.177 15.905-24.654 15.905-40.721 0-36.963-33.294-66.928-74.365-66.928-49.284-.001-89.237 44.391-89.237 99.152z" fill="#bd96e4"/><g fill="#9d66d6"><path d="m168.906 247.049c-18.054 0-37.33-12.729-37.33-35.147 0-13.164 9.302-23.873 20.735-23.873 4.143 0 7.5-3.358 7.5-7.5s-3.357-7.5-7.5-7.5c-19.704 0-35.735 17.438-35.735 38.873 0 14.356 5.604 27.224 15.779 36.235 9.402 8.326 23.028 13.912 36.551 13.912 13.333 0 30.659-5.243 42.108-17.151 1.087-1.131 3.278-3.636 5.418-6.469-4.861-2.507-10.374-3.931-16.226-3.932-.001.001-.003.003-.005.004-6.743 7.015-18.42 12.548-31.295 12.548z"/><path d="m222.687 262.367c-5.33 9.117-8.222 20.002-8.222 29.963 0 32.148 23.719 53.217 53.845 53.217 22.215 0 40.288-16.602 40.288-37.009 0-17.695-13.293-32.09-29.632-32.09-4.143 0-7.5 3.358-7.5 7.5s3.357 7.5 7.5 7.5c8.068 0 14.632 7.667 14.632 17.09 0 12.136-11.344 22.009-25.288 22.009-21.929 0-38.845-15.111-38.845-38.217 0-8.507 2.776-16.586 6.171-22.392.001-.001.001-.002.002-.003-.001-6.358-1.678-12.317-4.604-17.472-3.616 3.409-7.21 7.958-8.347 9.904z"/><path d="m385.086 85.448c27.973 34.048 48.414 79.778 48.414 129.552 0 77.791-45.323 144.99-110.999 176.65-.479.231-1.005.35-1.537.35h-176.699c29.492 18.558 64.271 29.485 101.572 29.982 108.374 1.445 197.967-86.322 198.66-194.703.354-55.641-22.487-105.943-59.411-141.831z"/></g><path d="m415.39 421.27c-.426-1.597-5.227-9.78-8.643-11.602-3.794-1.715-7.979-2.668-12.344-2.668h-291.806c-13.592 0-25.485 9.137-28.987 22.27l-2.062 7.73 349.903 7z" fill="#f8e883"/><path d="m423.39 429.27c-2.377-8.914-8.626-15.977-16.643-19.602.662 1.469 1.217 3.005 1.643 4.602l4.887 18.328c.593 2.222-1.082 4.402-3.382 4.402h-338.347l-4 15 180.952 10 180.952-10z" fill="#ffd064"/><path d="m450.439 466.27c-.426-1.597-5.227-9.78-8.643-11.602-3.794-1.715-7.979-2.668-12.344-2.668h-361.904c-13.592 0-25.485 9.137-28.987 22.27l-2.061 7.73 420 7z" fill="#f8e883"/><path d="m458.439 474.27c-2.377-8.914-8.626-15.977-16.643-19.602.662 1.469 1.217 3.005 1.643 4.602l4.887 18.328c.593 2.222-1.082 4.402-3.382 4.402h-408.444l-1.485 5.568c-1.27 4.761 2.319 9.432 7.247 9.432h412.476c4.928 0 8.516-4.671 7.247-9.432z" fill="#ffd064"/><circle cx="280.363" cy="77.481" fill="#d5d9f2" r="15"/><path d="m325.688 82.885c-4.856 0-8.243 36.825-11.948 40.53s-29.546 7.172-29.546 12.029c0 4.856 25.84 8.323 29.546 12.029 3.705 3.705 7.092 40.53 11.948 40.53s8.243-36.825 11.948-40.53 29.546-7.172 29.546-12.029c0-4.856-25.84-8.323-29.546-12.029-3.705-3.705-7.092-40.53-11.948-40.53z" fill="#fcf5c7"/><circle cx="229.465" cy="66.725" fill="#fcf5c7" r="8"/><circle cx="160.926" cy="92.481" fill="#ddc9f1" r="8"/><circle cx="359.972" cy="171.932" fill="#fcf5c7" r="8"/><circle cx="280.362" cy="204.191" fill="#ddc9f1" r="8"/></g></svg>