<?xml version="1.0" encoding="utf-8"?>
<!-- Generator: Adobe Illustrator 22.1.0, SVG Export Plug-In . SVG Version: 6.00 Build 0)  -->
<svg version="1.1" id="图层_1" xmlns="http://www.w3.org/2000/svg" xmlns:xlink="http://www.w3.org/1999/xlink" x="0px" y="0px"
	 viewBox="0 0 300 300" style="enable-background:new 0 0 300 300;" xml:space="preserve">
<g>
	<g>
		<path d="M263.1,141.2c0,6.4,0,12.4,0,18.8c2.2,0,4.4,0,6.6,0c12.5,0.1,21.4,8.9,21.4,21.4c0,23.2,0,46.5,0,69.7
			c0,12.5-8.9,21.4-21.5,21.4c-79.4,0-158.8,0-238.2,0c-12.7,0-21.6-8.8-21.6-21.5c0-23.1,0-46.3,0-69.4c0-12.7,8.8-21.5,21.6-21.6
			c2,0,4.1,0,6.3,0c0-6.2,0-12.3,0-18.8c-2.4,0-4.8,0-7.2,0C19,141,10,132.1,10,120.5c-0.1-23.7-0.1-47.5,0-71.2
			c0-11.6,9.1-20.6,20.7-20.6c79.9,0,159.7,0,239.6,0c11.8,0,20.8,9,20.9,20.8c0.1,23.6,0.1,47.3,0,70.9c0,11.8-9,20.7-20.8,20.8
			C268,141.2,265.7,141.2,263.1,141.2z M150.6,122.5c39.2,0,78.5,0,117.7,0c4,0,4.1-0.1,4.1-4.1c0-22.3,0-44.5,0-66.8
			c0-4-0.1-4.1-4.2-4.1c-78.5,0-157,0-235.5,0c-4,0-4.1,0.1-4.1,4.1c0,22.2,0,44.3,0,66.5c0,4.4,0,4.4,4.4,4.4
			C72.3,122.5,111.4,122.5,150.6,122.5z M150.6,178.7c-39.2,0-78.5,0-117.7,0c-4,0-4.1,0.1-4.1,4.1c0,22.3,0,44.5,0,66.8
			c0,4,0.1,4.1,4.1,4.1c78.5,0,157,0,235.5,0c4,0,4.1-0.1,4.1-4.1c0-22.2,0-44.3,0-66.5c0-4.4,0-4.4-4.4-4.4
			C228.9,178.7,189.7,178.7,150.6,178.7z M57,159.8c62.6,0,124.9,0,187.1,0c0-6.3,0-12.4,0-18.4c-62.5,0-124.7,0-187.1,0
			C57,147.5,57,153.5,57,159.8z"/>
		<path d="M211.5,75.6c10.5,0,21.1,0,31.6,0c6.2,0,10.5,3.8,10.5,9.3c0,5.5-4.2,9.4-10.4,9.4c-21.2,0-42.4,0-63.6,0
			c-6.2,0-10.4-3.9-10.4-9.5c0.1-5.4,4.3-9.2,10.3-9.3C190.3,75.6,200.9,75.6,211.5,75.6z"/>
		<path d="M56.8,75.6c5.1,0,9.3,4.2,9.4,9.3c0,5.2-4.3,9.5-9.5,9.5c-5.1-0.1-9.3-4.3-9.2-9.4C47.5,79.8,51.7,75.6,56.8,75.6z"/>
		<path d="M103.7,85c0,5.1-4.2,9.3-9.3,9.3c-5.2,0-9.5-4.3-9.4-9.5c0.1-5.1,4.3-9.2,9.5-9.2C99.5,75.6,103.7,79.9,103.7,85z"/>
		<path d="M131.7,75.6c5.1-0.1,9.4,4.1,9.5,9.2c0.1,5.2-4.2,9.6-9.4,9.5c-5.1,0-9.3-4.3-9.3-9.3C122.5,79.9,126.6,75.7,131.7,75.6z"
			/>
		<path d="M211.2,225.6c-10.4,0-20.9,0-31.3,0c-6.2,0-10.5-3.8-10.5-9.3c0-5.6,4.2-9.4,10.4-9.4c21.2,0,42.4,0,63.6,0
			c6.2,0,10.4,3.9,10.4,9.4c0,5.5-4.3,9.3-10.5,9.3C232.5,225.6,221.9,225.6,211.2,225.6z"/>
		<path d="M66.2,216.3c0,5.1-4.3,9.3-9.4,9.3c-5.2,0-9.5-4.4-9.4-9.6c0.1-5.1,4.4-9.2,9.5-9.1C62.1,206.9,66.2,211.2,66.2,216.3z"/>
		<path d="M103.7,216.3c0,5.1-4.2,9.3-9.3,9.3c-5.2,0-9.5-4.4-9.4-9.6c0.1-5.1,4.4-9.2,9.5-9.2C99.5,206.9,103.7,211.2,103.7,216.3z
			"/>
		<path d="M131.9,206.8c5.1,0,9.3,4.3,9.3,9.4c0,5.2-4.4,9.5-9.6,9.3c-5.1-0.1-9.2-4.5-9.1-9.5C122.6,210.9,126.8,206.8,131.9,206.8
			z"/>
	</g>
</g>
</svg>
