<?xml version="1.0" encoding="iso-8859-1"?>
<!-- Generator: Adobe Illustrator 19.0.0, SVG Export Plug-In . SVG Version: 6.00 Build 0)  -->
<svg version="1.1" id="Layer_1" xmlns="http://www.w3.org/2000/svg" xmlns:xlink="http://www.w3.org/1999/xlink" x="0px" y="0px"
	 viewBox="0 0 463 463" style="enable-background:new 0 0 463 463;" xml:space="preserve">
<g transform="translate(0 -540.36)">
	<g>
		<g>
			<path d="M57.2,605.16H92l-28.3,37.8c-2.5,3.3-1.8,8,1.5,10.5c1.4,1,2.9,1.5,4.5,1.5c2.3,0,4.5-1.1,6-3l37.3-49.8
				c1.7-2.3,2-5.4,0.7-7.9s-3.9-4.1-6.7-4.1H57.2c-4.1,0-7.5,3.4-7.5,7.5S53.1,605.16,57.2,605.16z"/>
			<path d="M350.6,652.76c1.5,1.5,3.4,2.2,5.3,2.2c1.9,0,3.8-0.7,5.3-2.2l19.6-19.6l19.6,19.6c1.5,1.5,3.4,2.2,5.3,2.2
				c1.9,0,3.8-0.7,5.3-2.2c2.9-2.9,2.9-7.7,0-10.6l-19.6-19.6h0l19.6-19.6c2.9-2.9,2.9-7.7,0-10.6c-2.9-2.9-7.7-2.9-10.6,0
				l-19.6,19.6l-19.6-19.6c-2.9-2.9-7.7-2.9-10.6,0c-2.9,2.9-2.9,7.7,0,10.6l19.6,19.6l-19.6,19.6
				C347.7,645.06,347.7,649.86,350.6,652.76z"/>
			<path d="M350.6,951.36c1.5,1.5,3.4,2.2,5.3,2.2c1.9,0,3.8-0.7,5.3-2.2l19.6-19.6l19.6,19.6c1.5,1.5,3.4,2.2,5.3,2.2
				c1.9,0,3.8-0.7,5.3-2.2c2.9-2.9,2.9-7.7,0-10.6l-19.6-19.6h0l19.6-19.6c2.9-2.9,2.9-7.7,0-10.6c-2.9-2.9-7.7-2.9-10.6,0
				l-19.6,19.6l-19.6-19.6c-2.9-2.9-7.7-2.9-10.6,0c-2.9,2.9-2.9,7.7,0,10.6l19.6,19.6l-19.6,19.6
				C347.7,943.66,347.7,948.46,350.6,951.36z"/>
			<path d="M82.8,961.66c12.8,0,23.7-10.8,23.7-23.7c0-6.2-2.6-12-6.7-16.3c4.1-4.4,6.7-10.5,6.7-17.3v0c0-12.8-10.8-23.7-23.7-23.7
				c-13.7,0-24.9,10.6-24.9,23.7c0,6.9,2.5,13,6.8,17.4c-4.2,4.2-6.8,9.9-6.8,16.2C57.9,951.06,69.1,961.66,82.8,961.66z
				 M82.8,895.66c4.5,0,8.7,4.1,8.7,8.7c0,5.5-3.9,9.9-8.7,9.9c-5.9,0.1-9.9-4-9.9-9.9C72.9,899.56,77.4,895.66,82.8,895.66z
				 M82.8,929.26c4.5,0,8.7,4.1,8.7,8.7c0,4.6-4.2,8.7-8.7,8.7c-5.5,0-9.9-3.9-9.9-8.7S77.4,929.26,82.8,929.26z"/>
			<path d="M57.3,796.16h29.8v8.7c0,4.1,3.4,7.5,7.5,7.5c4.2,0,7.5-3.4,7.5-7.5v-8.7h4.9c4.1,0,7.5-3.4,7.5-7.5s-3.4-7.5-7.5-7.5
				h-4.9v-42.3c0-3.2-2-6.1-5.1-7.1c-3.1-1-6.5,0-8.4,2.6l-37.3,49.8c-1.7,2.3-2,5.4-0.7,7.9C51.9,794.56,54.5,796.16,57.3,796.16z
				 M87.1,761.36v19.8H72.3L87.1,761.36z"/>
			<path d="M201.3,802.06c1.5,1.5,3.4,2.2,5.3,2.2c1.9,0,3.8-0.7,5.3-2.2l19.6-19.6l19.6,19.6c1.5,1.5,3.4,2.2,5.3,2.2
				c1.9,0,3.8-0.7,5.3-2.2c2.9-2.9,2.9-7.7,0-10.6l-19.6-19.6h0l19.6-19.6c2.9-2.9,2.9-7.7,0-10.6c-2.9-2.9-7.7-2.9-10.6,0
				l-19.6,19.6l-19.6-19.6c-2.9-2.9-7.7-2.9-10.6,0c-2.9,2.9-2.9,7.7,0,10.6l19.6,19.6l-19.6,19.6
				C198.4,794.36,198.4,799.16,201.3,802.06z"/>
			<path d="M231.5,654.96c4.1,0,7.5-3.4,7.5-7.5v-49.8c0-4.1-3.4-7.5-7.5-7.5c-4.1,0-7.5,3.4-7.5,7.5v49.8
				C224,651.56,227.4,654.96,231.5,654.96z"/>
			<path d="M455.5,540.36L455.5,540.36H306.2H156.9H7.5c-4.1,0-7.5,3.4-7.5,7.5v149.3v149.3v149.4c0,4.1,3.4,7.5,7.5,7.5h149.3
				h149.3h149.4c4.1,0,7.5-3.4,7.5-7.5v-149.3v-149.3v-149.4C463,543.76,459.6,540.36,455.5,540.36z M149.3,988.36H15v-134.3h134.3
				V988.36z M149.3,838.96H15v-134.3h134.3V838.96z M149.3,689.66H15v-134.3h134.3V689.66z M298.7,988.36H164.4v-134.3h134.3V988.36
				z M298.7,839.06H164.4v-134.3h134.3V839.06z M298.7,689.66H164.4v-134.3h134.3V689.66z M448,988.36H313.7v-134.3H448V988.36z
				 M448,839.06H313.7v-134.3H448V839.06z M448,689.66H313.7v-134.3H448V689.66z"/>
		</g>
	</g>
</g>
<g>
</g>
<g>
</g>
<g>
</g>
<g>
</g>
<g>
</g>
<g>
</g>
<g>
</g>
<g>
</g>
<g>
</g>
<g>
</g>
<g>
</g>
<g>
</g>
<g>
</g>
<g>
</g>
<g>
</g>
</svg>
