<?xml version="1.0" encoding="utf-8"?>
<!-- Generator: Adobe Illustrator 22.1.0, SVG Export Plug-In . SVG Version: 6.00 Build 0)  -->
<svg version="1.1" id="Capa_1" xmlns="http://www.w3.org/2000/svg" xmlns:xlink="http://www.w3.org/1999/xlink" x="0px" y="0px"
	 viewBox="0 0 512 512" style="enable-background:new 0 0 512 512;" xml:space="preserve">
<g>
	<path d="M431.5,317.9V193.2c13.3-5.3,22.6-18.3,22.6-33.4c0-19.8-16.1-36-36-36c-8.4,0-16.1,2.9-22.3,7.8l-108-62.3
		c0.3-1.7,0.4-3.4,0.4-5.2c0-19.8-16.1-36-36-36c-19.8,0-36,16.1-36,36c0,1.8,0.1,3.5,0.4,5.2l-108,62.3c-6.2-4.8-13.8-7.8-22.3-7.8
		c-19.8,0-36,16.1-36,36c0,15.2,9.4,28.1,22.6,33.4v124.7c-13.2,5.3-22.5,18.3-22.5,33.3c0,19.8,16.1,36,36,36
		c8.4,0,16.1-2.9,22.3-7.8l108,62.3c-0.3,1.7-0.4,3.4-0.4,5.2c0,19.8,16.1,36,36,36s36-16.1,36-36c0-1.8-0.1-3.5-0.4-5.2l108-62.3
		c6.2,4.8,13.8,7.8,22.3,7.8c19.8,0,36-16.1,36-36C454.1,336.2,444.7,323.2,431.5,317.9z M99.8,317.8V193.2c3.2-1.3,6.3-3,8.9-5.2
		l87.4,50.5c-1.6,5.4-2.6,11.1-2.6,17.1c0,5.9,0.9,11.7,2.6,17.1l-87.4,50.5C106.1,320.9,103,319.1,99.8,317.8z M239,413.6
		c-3.2,1.3-6.3,3-8.9,5.2l-108-62.3c0.3-1.7,0.4-3.4,0.4-5.2c0-1.8-0.1-3.5-0.4-5.2l87.4-50.5c7.8,8.3,18,14.3,29.5,17.1L239,413.6
		L239,413.6z M239,198.4c-11.5,2.7-21.6,8.7-29.5,17.1L122.1,165c0.3-1.7,0.4-3.4,0.4-5.2s-0.1-3.5-0.4-5.2l108-62.3
		c2.7,2.1,5.7,3.9,8.9,5.2L239,198.4L239,198.4z M265.6,97.4c3.2-1.3,6.3-3,8.9-5.2l108,62.3c-0.3,1.7-0.4,3.4-0.4,5.2
		s0.1,3.5,0.4,5.2L295,215.5c-7.8-8.3-18-14.3-29.5-17.1V97.4L265.6,97.4z M382.5,356.4l-108,62.3c-2.7-2.1-5.7-3.9-8.9-5.2v-101
		c11.5-2.7,21.6-8.7,29.5-17.1l87.4,50.5c-0.3,1.7-0.4,3.4-0.4,5.2C382.1,353,382.3,354.7,382.5,356.4z M404.8,317.9
		c-3.2,1.3-6.3,3-8.9,5.2l-87.4-50.5c1.6-5.4,2.6-11.1,2.6-17.1c0-5.9-0.9-11.7-2.6-17.1l87.4-50.5c2.7,2.1,5.7,3.9,8.9,5.2V317.9z"
		/>
</g>
</svg>
