<?xml version="1.0" encoding="utf-8"?>
<!-- Generator: Adobe Illustrator 22.1.0, SVG Export Plug-In . SVG Version: 6.00 Build 0)  -->
<svg version="1.1" id="Capa_1" xmlns="http://www.w3.org/2000/svg" xmlns:xlink="http://www.w3.org/1999/xlink" x="0px" y="0px"
	 viewBox="0 0 489 489" style="enable-background:new 0 0 489 489;" xml:space="preserve">
<g>
	<g>
		<path d="M473,259c0-0.6,0-1.1,0-1.7c-1.1-22-19.3-39.4-41.5-39.4c-17.9,0-33.2,11.3-39,27.2l-30.1-3c0-0.3,0-0.6,0-0.8
			c0-38.2-18.7-72.1-47.5-92.9l25.9-43.6c3.6,1,7.6,1.7,11.6,1.7c22.9,0,41.5-18.6,41.5-41.5c0-0.1,0-0.1,0-0.2c0-0.1,0-0.1,0-0.2
			c0-22.8-18.4-41.2-41.3-41.2h-0.1h-0.1c-22.9,0-41.5,18.6-41.5,41.5c0,11.4,4.7,21.8,12.1,29.3l-25.9,43.6
			c-15-7.2-31.8-11.2-49.5-11.2c-29.2,0-55.7,10.8-75.9,28.7l-12.1-11.4c3.3-6,5.1-12.8,5.1-20.1c0-22.9-18.6-41.5-41.5-41.5h-0.1
			h-0.1c-22.8,0-41.3,18.4-41.3,41.2c0,0.1,0,0.1,0,0.2s0,0.1,0,0.2c0,22.9,18.6,41.5,41.5,41.5c8.1,0,15.7-2.3,22.1-6.4l12.1,11.4
			c-15.4,19.5-24.6,44.2-24.6,70.9c0,9.1,1,17.9,3.1,26.4l-43.6,14.6c-7.4-11.5-20.3-19.1-35-19.1c-22.9,0-41.5,18.5-41.5,41.4v0.1
			v0.1c0,22.9,18.4,41.3,41.2,41.3c0.1,0,0.1,0,0.2,0s0.1,0,0.2,0c22.9,0,41.5-18.6,41.5-41.5c0-0.9,0-1.9-0.1-2.7l43.6-14.6
			c17.8,40.4,58.1,68.6,105,68.6c5.2,0,10.4-0.4,15.4-1l6.7,29.3c-13.3,6.9-22.4,20.8-22.4,36.8c0,22.9,18.6,41.5,41.5,41.5l0,0l0,0
			c2.9,0,5.6-0.3,8.3-0.8c19-3.8,33.2-20.7,33.2-40.7c0-22.5-18-40.9-40.5-41.5l-6.7-29.3c39.3-12.8,69.3-46.3,77.1-87.6l30.1,3
			c3.1,19.9,20.3,35.1,41,35.1c22.2,0,40.4-17.5,41.5-39.4c0-0.7,0.1-1.4,0.1-2.1l0,0l0,0C473,259.2,473,259.1,473,259z"/>
	</g>
</g>
</svg>
