<?xml version="1.0" encoding="utf-8"?>
<!-- Generator: Adobe Illustrator 24.0.1, SVG Export Plug-In . SVG Version: 6.00 Build 0)  -->
<svg version="1.1" id="Capa_1" xmlns="http://www.w3.org/2000/svg" xmlns:xlink="http://www.w3.org/1999/xlink" x="0px" y="0px"
	 viewBox="0 0 477.4 477.4" style="enable-background:new 0 0 477.4 477.4;" xml:space="preserve">
<g>
	<g>
		<path d="M420.6,69c-35.9-33.5-107-23.5-181.9,19.6c-74.9-43-146.1-53-181.9-19.6c-35.9,33.4-25.2,99.8,21,169.6
			c-46.2,69.8-56.9,136.2-21,169.6c15.9,13.8,37.2,21.1,59,20c44-2.7,86.5-16.4,123-39.5c36.5,23.1,78.9,36.8,123,39.5
			c21.8,1,43-6.2,59-20c35.9-33.4,25.2-99.8-21-169.6C445.8,168.8,456.5,102.4,420.6,69z M361,75.8c14.3-0.9,28.3,3.5,39.1,12.3
			c22.1,20.6,16.5,69.1-18.1,125.7c-16.2-20.9-34.2-40.5-53.7-58.7c-19.5-18.3-40.6-35.1-63-50.2C294.1,88,327,78,361,75.8z
			 M77.3,88.1c10.7-8.8,24.8-13.2,39.1-12.3c34,2.2,67,12.2,95.8,29.2c-44.8,30.3-84.2,67-116.7,108.8
			C60.9,157.2,55.2,108.8,77.3,88.1z M77.3,389.1C55.2,368.4,60.9,320,95.5,263.4c16.2,20.9,34.2,40.5,53.7,58.7
			c19.5,18.2,40.5,35,62.9,50.1C151.4,404.4,99.5,409.7,77.3,389.1z M169.8,302.8c-21.3-19.7-40.6-41.2-57.6-64.2
			c34.4-46,77.2-86,126.5-118c24.7,15.9,47.8,33.9,68.9,53.8c21.3,19.7,40.6,41.2,57.6,64.2c-17.1,23-36.4,44.6-57.7,64.3
			c-21.1,19.8-44.2,37.8-68.9,53.7C214,340.7,190.9,322.7,169.8,302.8z M400.1,389.1c-22.2,20.7-74.1,15.4-134.8-16.9
			c22.4-15.1,43.4-31.9,62.9-50.1c19.6-18.2,37.5-37.8,53.7-58.7C416.5,320,422.2,368.4,400.1,389.1z"/>
	</g>
</g>
<g>
	<g>
		<ellipse cx="238.7" cy="238.6" rx="58.2" ry="54.3"/>
	</g>
</g>
</svg>
