<?xml version="1.0" encoding="utf-8"?>
<!-- Generator: Adobe Illustrator 22.1.0, SVG Export Plug-In . SVG Version: 6.00 Build 0)  -->
<svg version="1.1" id="Capa_1" xmlns="http://www.w3.org/2000/svg" xmlns:xlink="http://www.w3.org/1999/xlink" x="0px" y="0px"
	 viewBox="0 0 512 512" style="enable-background:new 0 0 512 512;" xml:space="preserve">
<g>
	<path d="M106.6,440.9v-69.8c0-49.9,16.4-96.9,47.3-135.9c30-37.8,72.3-65,118.9-76.5c16.4-4.1,32.5-8.3,48.1-12.7
		c-12.3-33.7-31.1-67.3-56-100.1l-13.2-17.4c-36.5,39.9-77.5,78.6-125.5,118.3C94,173.6,71,211.2,61.7,252.6
		c-9.6,42.6-4.5,86,14.5,125.4L106.6,440.9z"/>
	<path d="M448.7,157.3c-21.3,42.6-47.7,84.8-79,125.8c-32.3,42.4-69.8,83.7-111.5,122.9c-37.7,35.4-71.6,62.3-95.5,80H176
		c53.7,0,100.9-8.1,140.2-24.1c36-14.6,65.7-36,88.3-63.5C451.9,340.6,467.5,255.1,448.7,157.3L448.7,157.3z"/>
	<path d="M348.6,266.6c31.7-41.7,58.3-84.5,79.3-127.6c-27.2,10.3-56,20-85.8,28.8v0c-0.1,0-0.2,0.1-0.3,0.1l-12.3,3.6l0-0.1
		c-16.2,4.6-33,9.1-50.1,13.3c-40.9,10.1-78,33.9-104.3,67.2c-27.2,34.2-41.5,75.5-41.5,119.3v103c25.7-18.3,65.4-49.1,106.8-88.1
		C280.8,347.9,317.2,307.8,348.6,266.6L348.6,266.6z"/>
</g>
</svg>
