<?xml version="1.0" encoding="utf-8"?>
<!-- Generator: Adobe Illustrator 22.1.0, SVG Export Plug-In . SVG Version: 6.00 Build 0)  -->
<svg version="1.1" id="Capa_1" xmlns="http://www.w3.org/2000/svg" xmlns:xlink="http://www.w3.org/1999/xlink" x="0px" y="0px"
	 viewBox="0 0 512 512" style="enable-background:new 0 0 512 512;" xml:space="preserve">
<style type="text/css">
	.st0{fill:#00AA95;}
	.st1{fill:#00CC76;}
	.st2{fill:#A5E887;}
</style>
<g>
	<path class="st0" d="M126.1,486l-52-107.5c-39.1-80.8-16.2-175.6,50-230.4c41.2-34.1,80.5-70.5,116.5-110l9.2-10L271,56.2
		c26.3,34.7,46.4,71.7,58.2,109.1L126.1,486z"/>
	<path class="st1" d="M443.7,162.1l-6.9-34.6c-34.2,80.7-122,123.6-172.4,179.2C176.4,404.1,126.1,486,126.1,486h52.1
		C409.8,486,477.2,329.7,443.7,162.1L443.7,162.1z"/>
	<path class="st2" d="M436.8,127.5l-12.6,5.1c-31.1,12.5-62.8,23.2-94.9,32.7v0c-19.2,5.6-38.5,10.8-57.9,15.6
		c-83.4,20.6-145.3,95.9-145.3,185.7V486C126.1,486,342.7,349.3,436.8,127.5z"/>
</g>
</svg>
