<?xml version="1.0" encoding="utf-8"?>
<!-- Generator: Adobe Illustrator 22.1.0, SVG Export Plug-In . SVG Version: 6.00 Build 0)  -->
<svg version="1.1" id="Capa_1" xmlns="http://www.w3.org/2000/svg" xmlns:xlink="http://www.w3.org/1999/xlink" x="0px" y="0px"
	 viewBox="0 0 512 512" style="enable-background:new 0 0 512 512;" xml:space="preserve">
<g>
	<path d="M353.8,277.2l-29.6,29.6l-29.6-29.6l71.1-71.1c7.8,2.2,15.8,3.3,23.7,3.3c22.8,0,45.2-8.9,62-25.7
		c24.6-24.6,32.3-61.5,19.6-93.9l-7.2-18.5l-46.5,46.5l-18.8-5l-5-18.8l46.5-46.5l-18.5-7.2c-32.4-12.7-69.3-5-93.9,19.6
		c-22.6,22.6-30.9,55.4-22.4,85.7L234,216.6l-95.4-95.4l25.3-25.3L85.4,34L33,86.4l61.9,78.5l25.3-25.3l95.4,95.4l-62.7,62.7
		c-32.6-10.2-68.1-1.7-92.7,22.8c-17.4,17.4-27,40.6-27,65.2s9.6,47.8,27,65.2c18,18,41.6,27,65.2,27c23.6,0,47.2-9,65.2-27
		c24.5-24.5,33.1-60.1,22.8-92.7l62.7-62.7l29.6,29.6l-29.6,29.6l107.1,107.1c10.4,10.4,24.1,16.1,38.8,16.1
		c14.6,0,28.4-5.7,38.8-16.1c21.4-21.4,21.4-56.2,0-77.6L353.8,277.2z M67.7,88.5l19.7-19.7l37.4,29.4l-27.6,27.6L67.7,88.5z
		 M335.2,152.2l-3.1-7.9c-8.9-22.8-3.5-48.8,13.8-66.1c12-12,28.2-18.3,44.6-18l-26,26l12.8,47.8l47.8,12.8l26-26
		c0.3,16.4-6,32.6-18,44.6c-17.3,17.3-43.2,22.7-66.1,13.8l-7.9-3.1l-82.8,82.8L252.4,235L335.2,152.2z M183,352l3.4,8.1
		c10.5,24.9,4.9,53.4-14.2,72.6c-12.9,12.9-29.9,19.4-46.8,19.4c-17,0-33.9-6.5-46.8-19.4c-12.5-12.5-19.4-29.1-19.4-46.8
		c0-17.7,6.9-34.3,19.4-46.8c12.7-12.7,29.6-19.4,46.7-19.4c8.7,0,17.4,1.7,25.8,5.2l8.1,3.4l74.8-74.8l23.8,23.8L183,352z
		 M353.8,314l23.8,23.8l-40.8,40.8L313,354.8L353.8,314z M442.5,443.5c-5.4,5.4-12.7,8.4-20.4,8.4c-7.7,0-14.9-3-20.4-8.4L355.2,397
		l40.8-40.8l46.5,46.5C453.8,414,453.8,432.3,442.5,443.5L442.5,443.5z"/>
	<path d="M125.4,342.9c-11.4,0-22.2,4.5-30.3,12.5c-8.1,8.1-12.5,18.9-12.5,30.3S87,408,95.1,416.1c8.1,8.1,18.9,12.5,30.3,12.5
		s22.2-4.5,30.3-12.5c16.7-16.7,16.7-43.9,0-60.6C147.6,347.4,136.9,342.9,125.4,342.9L125.4,342.9z M137.3,397.7
		c-3.2,3.2-7.4,4.9-11.9,4.9c-4.5,0-8.7-1.8-11.9-4.9c-3.2-3.2-4.9-7.4-4.9-11.9s1.8-8.7,4.9-11.9c3.2-3.2,7.4-4.9,11.9-4.9
		c4.5,0,8.7,1.8,11.9,4.9C143.9,380.5,143.9,391.1,137.3,397.7z"/>
</g>
</svg>
