<?xml version="1.0" encoding="utf-8"?>
<!-- Generator: Adobe Illustrator 22.1.0, SVG Export Plug-In . SVG Version: 6.00 Build 0)  -->
<svg version="1.1" id="Capa_1" xmlns="http://www.w3.org/2000/svg" xmlns:xlink="http://www.w3.org/1999/xlink" x="0px" y="0px"
	 viewBox="0 0 512 512" style="enable-background:new 0 0 512 512;" xml:space="preserve">
<style type="text/css">
	.st0{fill:#60E2F4;}
	.st1{fill:#29C5EC;}
	.st2{fill:#CDDBF9;}
	.st3{fill:#F3F6FF;}
	.st4{fill:#3C4A83;}
	.st5{fill:#48588B;}
	.st6{fill:#EA0016;}
	.st7{fill:#FF641A;}
</style>
<g>
	<path class="st0" d="M194.8,361.1l174-174c28.5,11.1,62,5.2,85-17.7c23-23,28.9-56.6,17.7-85l-40.1,40.1L396,115l-9.5-35.4
		l40.1-40.1c-28.5-11.1-62-5.2-85,17.7c-23,23-28.9,56.6-17.7,85l-174,174c-30.6-12.9-67.3-6.9-92.2,18.1
		c-32.9,32.9-32.9,86.2,0,119s86.2,32.9,119,0C201.6,428.4,207.7,391.7,194.8,361.1L194.8,361.1z M94.8,416.2
		c-12.4-12.4-12.4-32.5,0-44.8c12.4-12.4,32.5-12.4,44.8,0c12.4,12.4,12.4,32.5,0,44.8C127.2,428.6,107.1,428.6,94.8,416.2z"/>
	<path class="st1" d="M176.7,453.3c-32.9,32.9-86.2,32.9-119,0l37.1-37.1c12.4,12.4,32.5,12.4,44.8,0c12.4-12.4,12.4-32.5,0-44.8
		L396,115l35.4,9.5l40.1-40.1c11.1,28.5,5.2,62-17.7,85c-23,23-56.6,28.9-85,17.7l-174,174C207.7,391.7,201.6,428.4,176.7,453.3
		L176.7,453.3z"/>
	<path class="st2" d="M355.8,338.4L116.4,99l16.5-16.5L71.3,34L33,72.3l48.5,61.6L98,117.4l239.4,239.4L355.8,338.4z"/>
	<path class="st3" d="M346.6,347.6L52.2,53.2L33,72.3l48.5,61.6L98,117.4l239.4,239.4L346.6,347.6z"/>
	<path class="st4" d="M297,360.9l44.8,44.8l19.5-0.3l43.4-43.4l0-19.2L359.9,298L297,360.9z"/>
	<path class="st5" d="M297,360.9l44.8,44.8l19.5-0.3l21.6-21.6l-54.5-54.5L297,360.9z"/>
	<path class="st6" d="M341.9,405.7l59.2,59.2c8.7,8.7,20.1,13,31.5,13c11.4,0,22.8-4.3,31.4-13c17.4-17.4,17.4-45.5,0-62.9
		l-59.2-59.2L341.9,405.7z"/>
	<path class="st7" d="M341.9,405.7l59.2,59.2c8.7,8.7,20.1,13,31.5,13c11.4,0,22.8-4.3,31.4-13l-90.7-90.7L341.9,405.7z"/>
</g>
</svg>
