<svg id="图层_1" data-name="图层 1" xmlns="http://www.w3.org/2000/svg" viewBox="0 0 524.43 568.29"><title>topic</title><path d="M10.73,27.13V19.45q0-63,0-126c0-13.62,6.52-22.39,18.3-23.4a26.21,26.21,0,0,1,13.5,2.9c11.18,5.8,21.94,12.41,32.87,18.71,8.4,4.84,11.45,12.28,11.4,21.76-.17,35.3-.06,70.61-.06,105.91V27h7.57q67.75,0,135.5,0c12.51,0,24.27,2.48,34.41,10.31,14.35,11.1,20.28,26,20.23,43.84-.15,56.21-.06,112.42-.06,168.63v6.76c.69.54,1,1,1.31,1,17.5,1.8,26.58,14.61,25.41,32.27-.49,7.46.19,15-.77,22.42-1.67,12.82-11.73,21.41-24.66,22.07-1.38.06-2.76,0-4.14,0q-232.83,0-465.66,0c-14.9,0-25.85-6.11-27.73-18.74a142.08,142.08,0,0,1-.09-38.7c1.37-10.55,9.73-16.66,20.52-18.48,1.33-.22,2.63-.58,4.36-1v-7.16q0-84.9,0-169.81c0-21.86,9.2-38.27,28.95-48.32,8.32-4.24,17.32-5,26.44-5q66.87,0,133.72,0ZM256.45,257.58V133.83c-6.42,7.71-11.77,14.23-17.23,20.67-22.09,26.07-59.49,25.09-80.24-2.08-4.43-5.8-8.79-11.64-13.28-17.39-11.75-15-27.6-15.37-39.86-.8-6.48,7.69-12.52,15.78-19.37,23.12a50.17,50.17,0,0,1-77.08-4.23C5,147.3.63,141.45-3.78,135.64c-12.16-16-28-16.33-41-.79-6.43,7.73-12.48,15.81-19.28,23.2-12.57,13.62-28.26,18.74-46.59,15.6-14.73-2.53-25.19-11.32-34-22.75-4.37-5.66-9.21-11-14.93-17.72v124.4ZM48.52,54.15q-89.94,0-179.89,0a58.28,58.28,0,0,0-8.25.48c-12,1.75-19.78,10.49-20.09,22.58-.19,7.29.17,14.6-.14,21.89-.16,3.66,1.54,4.75,4.47,6.37,6.47,3.58,13,7.42,18.44,12.37,5.92,5.4,10.63,12.14,15.79,18.36,12.36,14.94,27.91,15,40.41,0,6.32-7.57,12.33-15.41,18.91-22.74C-40,89.19-3.4,90.89,16.36,117c4.64,6.13,9.14,12.37,13.85,18.45,11,14.16,27.77,14.44,39.28.68,5.45-6.5,10.73-13.14,16.15-19.66,22.74-27.36,59.55-26.78,81.3,1.28,4.84,6.23,9.45,12.64,14.39,18.79,10.22,12.7,26.52,13,37.28.65,4-4.6,7.82-9.4,11.67-14.15a56.65,56.65,0,0,1,23.34-17.58c1.7-.68,3.44-3.56,3.56-5.52.42-7.08.95-14.31-.09-21.26A40.32,40.32,0,0,0,250.91,62c-4.74-6.8-12.74-7.86-20.72-7.86Q139.35,54.19,48.52,54.15ZM-185.8,306.7H283.68V285.12H-185.8ZM37.9-57.06c0,10.39,0,19.45,0,28.5,0,1.27.24,3.2,1.06,3.71C45.54-20.79,52.24-17,59.88-12.53c0-10.85.09-20.07-.09-29.29a5.28,5.28,0,0,0-2.13-3.74C51.51-49.34,45.2-52.85,37.9-57.06Zm22,83.84c0-6.39.09-12.44-.09-18.48A4.6,4.6,0,0,0,57.94,5C51.64,1.14,45.21-2.5,38.33-6.5V26.78ZM59.69-63c0-7.9,0-14.72-.06-21.55a3.33,3.33,0,0,0-1.35-2.4c-6.52-3.89-13.11-7.65-20.41-11.87,0,7.69-.08,14.19.07,20.67a4.58,4.58,0,0,0,1.55,3.41C45.82-70.86,52.29-67.24,59.69-63Z" transform="translate(213.2 233.94)"/><path d="M91-197.55c-7.57,4.75-14.91,9.28-22.18,13.93S58.56-170,61.19-161.26c.74,2.45,1.9,4.77,2.57,7.23a13.43,13.43,0,0,1-7.48,16.17c-6.1,2.73-13.18.36-16.89-5.66C26.75-164,33.18-193.59,53.64-206.16,64-212.5,73.65-219.08,81-229c4.79-6.48,13.16-6.31,19.39-.93,33.61,29,25.87,84.69-14.37,103.32-6.93,3.21-14.47,1.09-18-5-3.65-6.36-2-13.66,4.6-18,7.12-4.69,14-9.36,18-17.35C95.58-176.87,95.9-187.95,91-197.55Z" transform="translate(213.2 233.94)"/></svg>