<?xml version="1.0" encoding="utf-8"?>
<!-- Generator: Adobe Illustrator 22.1.0, SVG Export Plug-In . SVG Version: 6.00 Build 0)  -->
<svg version="1.1" id="图层_1" xmlns="http://www.w3.org/2000/svg" xmlns:xlink="http://www.w3.org/1999/xlink" x="0px" y="0px"
	 viewBox="0 0 1080 1080" style="enable-background:new 0 0 1080 1080;" xml:space="preserve">
<g>
	<path d="M543.1,1009c-128.5,0-256.9,0-385.5,0c-48.9,0-80-30.8-80-79.5c0-257.2,0-514.5,0-771.7c0-48.3,31-79.5,79.1-79.5
		c258.3,0,516.6,0,774.8,0c39.7,0,69.7,25.2,76,63.9c0.7,4.3,0.7,8.8,0.7,13.3c0,258.8,0,517.6,0,776.4c0,45.4-32,77.2-77.5,77.2
		C801.7,1009,672.4,1009,543.1,1009z M543.1,132.6c-127.9,0-255.8,0-383.8,0c-3.4,0-6.8-0.1-10.2,0.3c-9.2,1.2-15.8,7.9-16.9,17
		c-0.4,3.1-0.3,6.3-0.3,9.3c0,256.1,0,512.2,0,768.4c0,3.4-0.1,6.8,0.4,10.2c1.1,8.7,7.7,15.3,16.3,16.4c2.8,0.4,5.7,0.4,8.6,0.4
		c257.2,0,514.4,0,771.5,0c2.9,0,5.7,0.1,8.6-0.4c8.7-1.3,15.2-7.8,16.3-16.5c0.4-3.1,0.4-6.3,0.4-9.3c0-256.4,0-512.8,0-769.2
		c0-3.1,0.1-6.3-0.3-9.3c-1.1-9.1-7.7-15.8-16.8-16.9c-3.3-0.4-6.7-0.3-10.2-0.3C799,132.6,671.1,132.6,543.1,132.6z"/>
	<path d="M245,500.6c2.5-2.5,5.7-5.4,8.4-8.6c3.8-4.5,9.2-8.8,10.5-14c3.3-13,4.8-26.6,7-40.8c-22.7,0-44.8,0-67.3,0
		c0-4.9,0-8.9,0-13.9c23.1,0,46.4,0,70.9,0c3.9-26,7.6-51.1,11.5-77.5c-20.6,15.5-39.7,29.8-59.7,44.8c-2.9-3.1-4.6-4.9-6.5-6.8
		c34.3-51.8,61.5-106.1,76.5-166.9c31.3,5,62.1,10,92.1,14.8c6.3,9.5,5.3,14.2-3.3,19.3c-2,1.2-4.1,2.7-6.3,3.1
		c-13.8,2.4-20.8,12.7-27.4,24.3c45.8,0,91.3,0,137.7,0c12.5-15.1,25.6-31,38.8-47c2,1.1,3.6,1.9,5,2.9
		c20.2,13.9,40.4,27.8,60.4,42.1c2.6,1.9,5.5,5.9,5.2,8.6c-0.3,2.8-3.9,6.5-6.8,7.4c-6.9,2.1-14.2,3.7-21.4,3.7
		c-74.9,0.3-149.9,0.2-224.9,0.2c-3.1,0-6.2,0-7.8,0c-9.1,9-17.2,17-26,25.6c13.7,4,27.1,7.6,40.4,11.9c11.8,3.7,23.7,5.3,36.1,5.1
		c24.8-0.4,49.6-0.2,74.8-0.2c7.5-12.6,15-25,22.8-37.9c27.5,12.6,54.7,25.1,82.2,37.6c1.1,18.3-14.1,21.6-25.6,29.4
		c-1.7,14.3-3.5,29.3-5.6,46.7c9.3-11.2,17.3-20.8,25.3-30.4c4.8,3.6,9,6.9,14.1,10.8c24.2-56.9,39.9-115.3,50.9-176
		c6.1,1.3,11.6,2.5,17.1,3.7c24.7,5.4,49.4,10.8,74.1,16.2c6.5,1.4,10.2,6.3,7.1,12c-2.7,5-7.7,9.4-12.7,12.6c-4,2.5-9.4,2.8-14.4,4
		c-9.2,14.4-18.5,28.9-28.3,44.3c31.4,0,61.9,0,93,0c12.8-16.4,26-33.3,39.4-50.5c24.5,16,48.6,31.5,72.3,47.7
		c2.8,1.9,3.3,6.9,4.9,10.2c-7.6,9-16.9,9.7-26,10.1c-13,0.5-26.1,0.1-39.7,0.1c-15.2,41.8-30.9,83.1-59.2,119.5
		c39.3,14.6,79.5,21.6,120.6,28.4c-0.8,4-1.6,7.5-2.3,11.3c-41.5,7.4-61.4,36.1-73.6,73.5c-36.1-18.8-70.4-39.2-101.4-64.5
		c-14,8.3-27.7,16.3-42,24.8c1.6,1.3,2.8,2.5,4.2,3.4c23.8,16.4,47.7,32.9,71.6,49.2c5.6,3.8,9.3,8.4,8,16c-6.4,6.4-15,6-22.6,5.2
		c-17-1.9-30.8,5.3-46.6,13.7c8,1.8,14.5,2.9,20.7,4.8c19.7,6.1,39.3,11.9,58.7,19c8.2,3,15.8,8.2,22.6,13.7
		c27,21.2,21.8,61.7-9.3,76.4c-20.5,9.7-33.1,5.7-44.2-14.1c-3.2-5.7-6.8-11-10.4-16.8c-35.5,4.6-70.8,9.3-106.5,13.9
		c-0.1,2.3-0.4,4.7-0.4,6.9c0.7,28.5,0.8,57,2.5,85.3c1.3,21.5-7.2,36.8-25.1,47.6c-19,11.4-40.2,15.5-61.7,18.5
		c-6.4,0.9-12.8,1.3-19.9,2.1c-1.3-46.1-35.5-57.5-70.4-67.9c0.4-6.1,4.4-5.6,8.4-5.4c21.4,1,42.8,1.9,64.1,2.6
		c10.7,0.4,16.4-3.6,16.7-13.1c0.5-21.6,0.2-43.2,0.2-65.8c-35.6-0.4-69.5,6.7-106,10.8c3.4,2.2,4.9,3.2,6.5,4
		c16.3,8.2,32.6,16.4,49,24.5c4.9,2.3,9.3,5.7,7.6,11c-1.2,3.8-5.2,8.1-8.9,9.4c-5.9,2.2-12.8,1.7-19.1,2.9c-5.5,1-11.4,1.4-16.2,4
		c-57.4,31.1-117.3,55.5-180.7,71c-1,0.3-2,0.4-3.5,0.6c-1.7-2.5-3.4-5-5.6-8.2c51-31.2,99.4-64.7,134.2-114
		c-0.3-0.8-0.5-1.6-0.7-2.4c-10.4,1-20.8,1.9-30.6,2.8c-3.4,5.2-5.4,10.4-9.3,13.7c-3.9,3.1-9.7,6.2-14.1,5.7
		c-3.3-0.4-7.5-6.3-8.6-10.5c-6.1-22.9-11.4-46-17.1-69.8c2.4-0.2,4.4-0.5,6.3-0.3c33.9,3.6,66.7-1.2,98.5-12.8
		c33.5-12.2,66.9-24.9,100.3-37.5c2.6-1,5-2.4,9.3-4.5c-46.2,6.4-90.4,12.4-134.8,18.5c-1.5,3.7-2.3,9-5.4,12
		c-3.3,3.3-8.8,6.1-13.2,6c-3.1-0.1-7.5-4.9-8.6-8.4c-6.5-20.8-12.2-42-18.6-64.6c46-2.3,81.4-25.8,115.3-55.6c-37.3,0-73,0-110,0
		c-6.8,7.5-14.6,16.1-22.1,24.4C282.4,535,248.8,510.3,245,500.6z M534.2,437.1c-1.8,21-3.6,41.3-5.3,61.5c0.5,0.2,1.1,0.4,1.6,0.5
		c5.8-7.5,11.7-14.9,17.8-22.6c12.9,9.5,25.2,18.8,37.8,27.5c5.7,4,8.9,8.4,5.9,17c26-20,49.6-39.8,69.2-64.3
		c-18.3-26.7-29.2-56-36.7-87.4c-12.6,11.8-24.3,22.6-36.4,33.9c10.1,7.5,19.5,14.4,28.5,21c0.3,7.4-3.1,11-9.4,11.9
		c-5.7,0.7-11.4,1-17.2,1C571.5,437.2,553.1,437.1,534.2,437.1z M338.9,437.5c-3.7,23.3-7.4,46.3-11.1,69.6c19.4,0,37.9,0,55.2,0
		c-2.2-21.4-1.3-43-13.6-62.3c2.6-0.9,3.9-1.8,4.9-1.6c17.9,3.8,35.7,8.1,50.4,19.9c5.8,4.7,8.2,10.8,7.7,18.6
		c-0.5,10.6-3.6,19.4-13.9,25.3c13.1,0,24.7,0,36.4,0c2.8-23.4,5.5-46.4,8.3-69.5C421.3,437.5,380.5,437.5,338.9,437.5z
		 M652.3,616.4c-65.3,19.7-128.1,38.6-191.5,57.8c77-2.7,153.5-5.4,230.1-8.2c0.5-0.8,1-1.6,1.5-2.4
		C678.6,647.5,664.9,631.3,652.3,616.4z M417.2,586.2c2.3,0.2,3.3,0.4,4.3,0.4c50.1-0.8,100.3-1.5,150.3-2.4c2.2,0,4.8-0.4,6.6-1.5
		c26-14.7,50.8-31,70.8-53.5c1.3-1.5,2.5-3.3,3.3-4.4c-31.7,12.6-63.5,25.2-95.6,38c-2.6-5.5-4.2-8.9-5.8-12.3
		c12.4-8.8,24.3-17.2,36-25.6c-19.5,0-38.4,0-57.4,0c4.2,3.2,9,4.5,12.7,7.2c2.6,1.9,5.2,5.8,5,8.7c-0.2,2.7-3.5,6.2-6.3,7.5
		c-3.6,1.8-8.3,2.9-12.1,2.2c-12.8-1.9-23.4,3.3-34.2,8.4c-3.1,1.4-6.2,2.7-9.4,3.8C463.2,570.3,440.8,578.1,417.2,586.2z
		 M466.2,422.6c1.9-22.6,3.7-44.6,5.5-66.7c-40.2,0-79.1,0-118.7,0c-3.7,22.4-7.4,44.2-11,66.4c17.6,0,34,0,50.8,0
		c-4.5-21.2-8.9-41.9-13.3-62.9c1-0.4,2.3-1.3,3.3-1.1c17.6,3.9,35,8.4,49.4,20.2c7.3,5.9,10.6,14,8,23c-2.2,7.4-6.2,14.1-9.3,20.9
		C441.7,422.6,453.4,422.6,466.2,422.6z M695.2,413.4c15.3-27,26.4-54.5,33.6-84.2c-25.1,0-49.2,0-73.8,0
		c-5.3,8.4-10.5,16.8-15.9,25.2C654.2,377.3,672.6,396.5,695.2,413.4z"/>
	<path d="M621.6,728c1.4-2.2,2.5-3.8,3.6-5.4c45.2,3.8,90,7.5,132.9,21.8c13.4,4.5,26.7,10.9,38.4,18.8c18.1,12,21.7,28.5,14.2,50.4
		c-6.5,18.7-22.9,31.3-42,30.5c-5.8-0.3-11.9-3.3-17.2-6.6c-5-3.1-9.4-7.5-13.1-12.1c-31.2-38.8-69.4-69.1-112.1-94.1
		C625,730.3,623.8,729.4,621.6,728z"/>
</g>
</svg>
