<?xml version="1.0" encoding="utf-8"?>
<!-- Generator: Adobe Illustrator 25.0.1, SVG Export Plug-In . SVG Version: 6.00 Build 0)  -->
<svg version="1.1" id="图层_1" xmlns="http://www.w3.org/2000/svg" xmlns:xlink="http://www.w3.org/1999/xlink" x="0px" y="0px"
	 viewBox="0 0 256 256" style="enable-background:new 0 0 256 256;" xml:space="preserve">
<style type="text/css">
	.st0{fill:#F6AB27;}
</style>
<g>
	<g>
		<path class="st0" d="M191.82,231.27c-1.44-4.95-2.72-10.45-4.63-15.72c-3.47-9.6-8.81-18.12-15.97-25.48
			c-5.08-5.22-9.55-11.22-15.27-15.61c-9.44-7.26-8.06-17.2-7.68-26.72c0.12-2.91,3.87-5.67,6.28-8.95
			c-8.62-8.25-17.36-16.62-26.26-25.15c-8.75,8.35-17.43,16.63-26.28,25.07c0.49,0.79,0.79,1.7,1.41,2.2
			c9.04,7.37,3.93,16.99,4.02,25.74c0.01,0.89-1.38,1.84-2.19,2.69c-6.17,6.45-12.28,12.96-18.56,19.29
			c-11.33,11.42-18.36,25.02-21.19,40.83c-0.15,0.86-0.53,1.68-0.61,1.93c-16.56-13.94-33.19-27.95-48.72-41.03
			c5.79,0,13.34,0.66,20.72-0.18c8.21-0.93,15.86-4.5,22.06-9.95c9.33-8.22,18.08-17.09,27.92-26.48
			c-8.84-7.67-17.06-14.82-25.47-22.13c32.29-7.99,52.38-30.09,66.87-59.23c14.48,29,34.48,51.18,66.94,59.22
			c-8.4,7.28-16.61,14.39-25.18,21.83c1.88,1.98,3.05,3.25,4.27,4.49c5.44,5.5,10.91,10.97,16.34,16.47
			c13.68,13.86,28.89,18.48,50.01,15.77C224.91,203.43,208.31,217.4,191.82,231.27z"/>
		<path class="st0" d="M13.36,139.81C13.95,82.69,55.54,34.26,111.8,25.81c60.39-9.07,118.7,33.21,129.06,93.5
			c2.65,15.43,2.32,30.73-0.92,46.05c-0.65,3.06-2.12,4.58-4.96,4.46c-3.51-0.15-7.18-0.23-10.47-1.3
			c-6.12-1.98-7.15-4.27-6.01-10.57c9.47-52.25-23.28-100-75.14-109.55C95.66,39.63,46.9,73.53,38.02,121.59
			c-2.38,12.89-2.46,25.73,0.53,38.5c0.66,2.8,0.03,4.83-2.27,6.05c-2.84,1.51-5.82,3.08-8.93,3.69
			c-7.58,1.49-10.29-0.42-11.41-7.93C14.85,154.56,14.2,147.17,13.36,139.81z"/>
	</g>
</g>
</svg>
