<svg t="1772531859597" class="icon" viewBox="0 0 1024 1024" version="1.1" xmlns="http://www.w3.org/2000/svg" p-id="2447" width="200" height="200"><path d="M159.146667 263.253333A280.746667 280.746667 0 0 0 76.8 417.28v14.933333A146.346667 146.346667 0 0 0 128 533.76c77.226667 75.946667 264.96 170.666667 308.906667 192.853333a3.84 3.84 0 0 0 4.266666 0A2325.76 2325.76 0 0 0 159.146667 263.253333z m253.44 527.786667a4.693333 4.693333 0 0 0-4.266667-3.413333l-312.746667 11.093333c32.426667 60.16 90.88 107.093333 150.613334 93.013333a810.666667 810.666667 0 0 0 164.693333-97.706666c2.56 0 0-3.413333 0-3.413334z m3.413333-33.28c-137.386667-92.586667-403.626667-234.666667-403.626667-234.666667a187.306667 187.306667 0 0 0-8.533333 55.04v2.986667a180.053333 180.053333 0 0 0 16.64 77.226667 184.32 184.32 0 0 0 99.413333 93.013333 173.226667 173.226667 0 0 0 59.306667 13.226667h234.24a3.84 3.84 0 0 0 3.413333-2.133334v-2.56zM387.413333 138.24a144.64 144.64 0 0 0-108.8 133.546667v17.066666a218.026667 218.026667 0 0 0 6.826667 44.8c27.733333 122.88 163.413333 323.84 192.426667 366.08a4.266667 4.266667 0 0 0 4.266666 0 3.84 3.84 0 0 0 2.56-4.266666C529.92 247.893333 437.76 128 437.76 128a475.306667 475.306667 0 0 0-50.346667 9.813333z m351.573334 96a146.773333 146.773333 0 0 0-103.253334-96.426667s-24.32-5.973333-49.92-9.386666c0 0-92.16 119.04-47.36 568.746666a3.84 3.84 0 0 0 2.56 3.413334 2.986667 2.986667 0 0 0 4.266667 0c30.72-42.666667 165.12-244.053333 192.853333-365.653334a204.8 204.8 0 0 0 0-99.413333z m-123.733334 554.666667s-2.986667 0-3.84 2.133333 0 2.986667 0 3.84a831.573333 831.573333 0 0 0 164.266667 97.706667 77.226667 77.226667 0 0 0 18.346667 2.56h5.973333c29.013333 0 80.213333-15.786667 128-95.573334l-313.6-10.666666z m331.52-356.266667c5.973333-85.333333-81.92-168.106667-81.92-168.533333a2321.493333 2321.493333 0 0 0-282.453333 457.386666 5.546667 5.546667 0 0 0 0 5.546667h4.266667c44.8-22.613333 231.253333-117.333333 308.053333-192.426667a150.613333 150.613333 0 0 0 51.2-102.4z m64.426667 90.453333s-265.813333 142.933333-403.2 235.093334a4.693333 4.693333 0 0 0 0 4.693333s0 2.56 2.986667 2.56h240.213333a183.893333 183.893333 0 0 0 154.026667-108.373333 187.306667 187.306667 0 0 0 7.253333-133.12z m0 0" fill="#D40000" p-id="2448"></path></svg>
