<svg t="1772531935680" class="icon" viewBox="0 0 1024 1024" version="1.1" xmlns="http://www.w3.org/2000/svg" p-id="3407" ><path d="M704 106.666667a210.346667 210.346667 0 0 1-59.733333 132.266666A209.706667 209.706667 0 0 1 512 298.666667a204.8 204.8 0 0 1 192-192z m-45.226667 277.333333a131.626667 131.626667 0 0 0-69.333333 20.053333 138.88 138.88 0 0 1-146.56 0 130.986667 130.986667 0 0 0-69.333333-20.053333h-7.04c-69.12 3.626667-131.84 85.333333-131.84 170.666667 0 90.026667 30.08 160 100.693333 234.666666 40.96 42.666667 46.506667 42.666667 58.453333 42.666667a50.133333 50.133333 0 0 0 18.56-3.413333 290.773333 290.773333 0 0 1 207.786667 0 48.426667 48.426667 0 0 0 18.346667 3.413333c11.946667 0 17.493333 0 58.88-42.666667A395.946667 395.946667 0 0 0 768 689.493333 215.466667 215.466667 0 0 1 675.413333 512a217.6 217.6 0 0 1 33.493334-115.626667 106.666667 106.666667 0 0 0-42.666667-12.16h-7.253333m0-85.333333h11.733333A214.613333 214.613333 0 0 1 832 395.733333 128 128 0 0 0 760.746667 512 125.653333 125.653333 0 0 0 874.666667 640a422.613333 422.613333 0 0 1-115.626667 208.213333c-42.666667 44.586667-69.76 69.546667-120.533333 69.546667a139.093333 139.093333 0 0 1-49.066667-8.96 203.52 203.52 0 0 0-146.56 0 138.24 138.24 0 0 1-49.066667 8.96c-50.56 0-77.866667-24.96-120.32-69.546667C196.906667 768 149.333333 677.546667 149.333333 554.666667s92.373333-249.386667 213.333334-256h11.52a215.68 215.68 0 0 1 114.56 33.066666 53.76 53.76 0 0 0 56.106666 0A215.68 215.68 0 0 1 658.773333 298.666667z" p-id="3408"></path></svg>
