<svg id="图层_1" data-name="图层 1" xmlns="http://www.w3.org/2000/svg" viewBox="0 0 494.86 252.5"><path class="cls-1" style="fill:#e51c21;" d="M322,211.11H-72.5a50.26,50.26,0,0,1-50.2-50.2V8.83A50.26,50.26,0,0,1-72.5-41.38H322A50.26,50.26,0,0,1,372.16,8.83V160.91A50.26,50.26,0,0,1,322,211.11ZM-72.5-24A32.85,32.85,0,0,0-105.31,8.83V160.91A32.85,32.85,0,0,0-72.5,193.72H322a32.85,32.85,0,0,0,32.82-32.81V8.83A32.85,32.85,0,0,0,322-24Z" transform="translate(122.7 41.38)"/><path class="cls-2" style="fill:#1b1a1e;" d="M131.92,127.55c0,.36-.36.54-1.07.54s-2.14-.07-3.87-.2-3-.2-3.87-.2-2.32.06-4.16.2-3.24.2-4.17.2a2.53,2.53,0,0,1-2.34-1.67q-2.13-4.53-12.13-28.07-1-2.4-4.87-2.94-.87-.06-6.07-.06c-6.13,0-9.78.08-10.93.26-.94.14-1.4,1.27-1.4,3.4q0,4.67.43,14t.43,13.91c0,.93-.44,1.4-1.33,1.4a40.09,40.09,0,0,1-4-.3,40.54,40.54,0,0,0-4.11-.3c-.75,0-1.91.06-3.46.2s-2.72.2-3.47.2c-1.11,0-1.67-.51-1.67-1.54q0-7.39.7-22.24t.7-22.23q0-21.07-1.53-44.95l-.07-1.06c0-.89.89-1.34,2.8-1.34q5.75,0,17.17-.3t17.11-.3q14.81,0,23.74,7.07,9.86,7.8,9.86,22.14,0,9.87-2.66,15.53-2.81,6-10.4,11.41c-.85.58-1.27,1.13-1.27,1.66s2.65,6.54,8,17.74S131.92,126.84,131.92,127.55ZM113.64,67.07q0-12.06-6.93-16.13-5.13-3-18.47-3-10.8,0-11,1.74-.48,3.6-.47,19.27V81.68a2.83,2.83,0,0,0,.87.26c.8.09,2.11.2,3.93.34q6.33.33,13.67.33Q113.65,82.61,113.64,67.07Z" transform="translate(122.7 41.38)"/><path class="cls-2" style="fill:#1b1a1e;" d="M204.13,114.68a13.21,13.21,0,0,1-.53,3.07c-.4,1.69-.65,2.71-.74,3.07q-.2,2.4-.93,7a1.59,1.59,0,0,1-1.73,1.2,21.73,21.73,0,0,1-2.54-.27q-8.21-1.2-25.4-1.2-4.87,0-14.67.27t-14.67.27c-1.47,0-2.2-.65-2.2-1.94q0-7.47.83-22.44t.83-22.43q0-7.61-.8-28.34-.14-5.34-.73-15.94l-.07-.93c0-1,.54-1.54,1.74-1.54q4.66,0,14,.27t14,.27q4.47,0,13.37-.27t13.37-.27c2.09,0,3.23.65,3.4,1.94a99.57,99.57,0,0,1,1.4,10.93c0,1-.49,1.54-1.46,1.54q-5.67,0-17.17-.64t-17.31-.63q-5.46,0-6.9,1.47c-1,1-1.43,3.4-1.43,7.26v9.94a27.68,27.68,0,0,0,.2,4.73c.4,1.38,1.55,2.07,3.46,2.07.54,0,1.29,0,2.27-.07H166q13.06,0,23.47-.46,4.06-.14,9.6-.67c.94-.09,1.4.31,1.4,1.2a62.31,62.31,0,0,1-.5,6.54,64.92,64.92,0,0,0-.5,6.6c0,.8-.66,1.2-2,1.2q-.79,0-5.93-.47-3.74-.41-16.81-.4-11,0-13.93.27a3,3,0,0,0-3.07,2.8c0-.31.07,1.4.07,5.13v9.87q0,6.93,2.13,8.67,1.67,1.4,8.34,1.4l7.33-.07q4.66,0,26.21-1.6l1-.06C203.69,112.93,204.13,113.48,204.13,114.68Z" transform="translate(122.7 41.38)"/><path class="cls-2" style="fill:#1b1a1e;" d="M288,112.68a4.23,4.23,0,0,1-1.27,2.27Q273.75,130,254.54,130q-20,0-32-14.6-11.19-13.61-11.2-34t11.41-34.14q12.13-14.81,32.07-14.81,20.2,0,31.27,13.67a4.28,4.28,0,0,1,1.07,2.34c0,.75-1.18,3-3.53,6.7s-3.78,5.57-4.27,5.57-1.94-1.09-4.07-3.27a35.68,35.68,0,0,0-7.4-6,25.16,25.16,0,0,0-12.67-3.27q-13.2,0-20.54,10.07-6.54,9-6.53,22.67t6.46,22.87q7.34,10.35,20.48,10.34a26.25,26.25,0,0,0,12.6-3.27,37.28,37.28,0,0,0,8.13-6.07q3.46-3.25,3.8-3.26c.27,0,1.74,1.76,4.41,5.3S288,112.33,288,112.68Z" transform="translate(122.7 41.38)"/><circle class="cls-1" style="fill:#e51c21;" cx="-12.94" cy="81.24" r="28.46" transform="translate(65.69 53.16) rotate(-41.44)"/></svg>
