<svg width="38" height="38" viewBox="0 0 38 38" xmlns="http://www.w3.org/2000/svg">
    <path
        d="M19 26.3334C19.5194 26.3334 19.9551 26.1574 20.3071 25.8054C20.6579 25.4546 20.8333 25.0195 20.8333 24.5V18.6334L22.4833 20.2834C22.8194 20.6195 23.2472 20.7875 23.7666 20.7875C24.2861 20.7875 24.7138 20.6195 25.05 20.2834C25.3861 19.9472 25.5541 19.5195 25.5541 19C25.5541 18.4806 25.3861 18.0528 25.05 17.7167L20.2833 12.95C20.1 12.7667 19.9013 12.6365 19.6875 12.5595C19.4736 12.4837 19.2444 12.4459 19 12.4459C18.7555 12.4459 18.5263 12.4837 18.3125 12.5595C18.0986 12.6365 17.9 12.7667 17.7166 12.95L12.95 17.7167C12.6138 18.0528 12.4458 18.4806 12.4458 19C12.4458 19.5195 12.6138 19.9472 12.95 20.2834C13.2861 20.6195 13.7138 20.7875 14.2333 20.7875C14.7527 20.7875 15.1805 20.6195 15.5166 20.2834L17.1666 18.6334V24.5C17.1666 25.0195 17.3426 25.4546 17.6946 25.8054C18.0454 26.1574 18.4805 26.3334 19 26.3334ZM19 37.3334C16.4638 37.3334 14.0805 36.8518 11.85 35.8887C9.6194 34.9268 7.67913 33.6209 6.02913 31.9709C4.37913 30.3209 3.07318 28.3806 2.11129 26.15C1.14818 23.9195 0.666626 21.5361 0.666626 19C0.666626 16.4639 1.14818 14.0806 2.11129 11.85C3.07318 9.61947 4.37913 7.67919 6.02913 6.02919C7.67913 4.37919 9.6194 3.07263 11.85 2.10952C14.0805 1.14763 16.4638 0.666687 19 0.666687C21.5361 0.666687 23.9194 1.14763 26.15 2.10952C28.3805 3.07263 30.3208 4.37919 31.9708 6.02919C33.6208 7.67919 34.9267 9.61947 35.8886 11.85C36.8517 14.0806 37.3333 16.4639 37.3333 19C37.3333 21.5361 36.8517 23.9195 35.8886 26.15C34.9267 28.3806 33.6208 30.3209 31.9708 31.9709C30.3208 33.6209 28.3805 34.9268 26.15 35.8887C23.9194 36.8518 21.5361 37.3334 19 37.3334Z" />
</svg>