<svg preserveAspectRatio="none" width="100%" height="100%" overflow="visible" style="display: block;" viewBox="0 0 20.5 22.5779" fill="none" xmlns="http://www.w3.org/2000/svg">
<path id="Icon" d="M1.52 6.20795L10.25 11.2579L18.98 6.20795M10.25 21.3279V11.2479M19.25 15.2479V7.24795C19.2496 6.89722 19.1571 6.55276 18.9815 6.24911C18.806 5.94546 18.5537 5.69331 18.25 5.51795L11.25 1.51795C10.946 1.34241 10.6011 1.25 10.25 1.25C9.89893 1.25 9.55404 1.34241 9.25 1.51795L2.25 5.51795C1.94626 5.69331 1.69398 5.94546 1.51846 6.24911C1.34294 6.55276 1.25036 6.89722 1.25 7.24795V15.2479C1.25036 15.5987 1.34294 15.9431 1.51846 16.2468C1.69398 16.5504 1.94626 16.8026 2.25 16.9779L9.25 20.9779C9.55404 21.1535 9.89893 21.2459 10.25 21.2459C10.6011 21.2459 10.946 21.1535 11.25 20.9779L18.25 16.9779C18.5537 16.8026 18.806 16.5504 18.9815 16.2468C19.1571 15.9431 19.2496 15.5987 19.25 15.2479Z" stroke="var(--stroke-0, #1E1E1E)" stroke-width="2.5" stroke-linecap="round" stroke-linejoin="round"/>
</svg>
