<svg preserveAspectRatio="none" width="100%" height="100%" overflow="visible" style="display: block;" viewBox="0 0 18.5 22.5" fill="none" xmlns="http://www.w3.org/2000/svg">
<path id="Icon" d="M13.25 3.25H15.25C15.7804 3.25 16.2891 3.46071 16.6642 3.83579C17.0393 4.21086 17.25 4.71957 17.25 5.25V19.25C17.25 19.7804 17.0393 20.2891 16.6642 20.6642C16.2891 21.0393 15.7804 21.25 15.25 21.25H3.25C2.71957 21.25 2.21086 21.0393 1.83579 20.6642C1.46071 20.2891 1.25 19.7804 1.25 19.25V5.25C1.25 4.71957 1.46071 4.21086 1.83579 3.83579C2.21086 3.46071 2.71957 3.25 3.25 3.25H5.25M6.25 1.25H12.25C12.8023 1.25 13.25 1.69772 13.25 2.25V4.25C13.25 4.80228 12.8023 5.25 12.25 5.25H6.25C5.69772 5.25 5.25 4.80228 5.25 4.25V2.25C5.25 1.69772 5.69772 1.25 6.25 1.25Z" stroke="var(--stroke-0, white)" stroke-width="2.5" stroke-linecap="round" stroke-linejoin="round"/>
</svg>
