<svg width="24" height="24" viewBox="0 0 24 24" fill="none" xmlns="http://www.w3.org/2000/svg">
<path d="M2 4.5C2 3.67157 2.67157 3 3.5 3H9C10.6569 3 12 4.34315 12 6V21C12 19.3431 10.6569 18 9 18H3.5C2.67157 18 2 17.3284 2 16.5V4.5Z" stroke="#1E1E1E" stroke-width="2.5" stroke-linecap="round" stroke-linejoin="round"/>
<path d="M22 4.5C22 3.67157 21.3284 3 20.5 3H15C13.3431 3 12 4.34315 12 6V21C12 19.3431 13.3431 18 15 18H20.5C21.3284 18 22 17.3284 22 16.5V4.5Z" stroke="#1E1E1E" stroke-width="2.5" stroke-linecap="round" stroke-linejoin="round"/>
</svg>
