<svg preserveAspectRatio="none" width="100%" height="100%" overflow="visible" style="display: block;" viewBox="0 0 30.8708 27.3091" fill="none" xmlns="http://www.w3.org/2000/svg">
<path id="Icon" d="M27.2217 3.6491C26.5407 2.96777 25.7321 2.4273 24.8422 2.05855C23.9522 1.6898 22.9984 1.5 22.0351 1.5C21.0717 1.5 20.1179 1.6898 19.2279 2.05855C18.338 2.4273 17.5294 2.96777 16.8484 3.6491L15.4351 5.06243L14.0217 3.6491C12.6461 2.27351 10.7804 1.50071 8.83505 1.50071C6.88968 1.50071 5.02398 2.27351 3.64839 3.6491C2.2728 5.02469 1.5 6.89039 1.5 8.83577C1.5 10.7811 2.2728 12.6468 3.64839 14.0224L15.4351 25.8091L27.2217 14.0224C27.903 13.3414 28.4435 12.5329 28.8123 11.6429C29.181 10.753 29.3708 9.79908 29.3708 8.83577C29.3708 7.87245 29.181 6.91857 28.8123 6.02863C28.4435 5.13868 27.903 4.33011 27.2217 3.6491Z" stroke="var(--stroke-0, #1E1E1E)" stroke-width="3" stroke-linecap="round" stroke-linejoin="round"/>
</svg>
