<svg preserveAspectRatio="none" width="100%" height="100%" overflow="visible" style="display: block;" viewBox="0 0 23.5 22.5" fill="none" xmlns="http://www.w3.org/2000/svg">
<path id="Icon" d="M17.25 8.25H18.25C19.3109 8.25 20.3283 8.67143 21.0784 9.42157C21.8286 10.1717 22.25 11.1891 22.25 12.25C22.25 13.3109 21.8286 14.3283 21.0784 15.0784C20.3283 15.8286 19.3109 16.25 18.25 16.25H17.25M17.25 8.25H1.25V17.25C1.25 18.3109 1.67143 19.3283 2.42157 20.0784C3.17172 20.8286 4.18913 21.25 5.25 21.25H13.25C14.3109 21.25 15.3283 20.8286 16.0784 20.0784C16.8286 19.3283 17.25 18.3109 17.25 17.25V8.25ZM5.25 1.25V4.25M9.25 1.25V4.25M13.25 1.25V4.25" stroke="var(--stroke-0, #1E1E1E)" stroke-width="2.5" stroke-linecap="round" stroke-linejoin="round"/>
</svg>
