<svg preserveAspectRatio="none" width="100%" height="100%" overflow="visible" style="display: block;" viewBox="0 0 32.3333 27" fill="none" xmlns="http://www.w3.org/2000/svg">
<path id="Icon" d="M22.8333 25.5V22.8333C22.8333 21.4188 22.2714 20.0623 21.2712 19.0621C20.271 18.0619 18.9145 17.5 17.5 17.5H6.83333C5.41885 17.5 4.06229 18.0619 3.0621 19.0621C2.0619 20.0623 1.5 21.4188 1.5 22.8333V25.5M30.8333 25.5V22.8333C30.8325 21.6516 30.4391 20.5037 29.7152 19.5698C28.9912 18.6358 27.9775 17.9688 26.8333 17.6733M21.5 1.67333C22.6472 1.96707 23.6641 2.63427 24.3902 3.56975C25.1163 4.50523 25.5105 5.65577 25.5105 6.84C25.5105 8.02423 25.1163 9.17477 24.3902 10.1103C23.6641 11.0457 22.6472 11.7129 21.5 12.0067M17.5 6.83333C17.5 9.77885 15.1122 12.1667 12.1667 12.1667C9.22115 12.1667 6.83333 9.77885 6.83333 6.83333C6.83333 3.88781 9.22115 1.5 12.1667 1.5C15.1122 1.5 17.5 3.88781 17.5 6.83333Z" stroke="var(--stroke-0, #1E1E1E)" stroke-width="3" stroke-linecap="round" stroke-linejoin="round"/>
</svg>
