<svg preserveAspectRatio="none" width="100%" height="100%" overflow="visible" style="display: block;" viewBox="0 0 26.2004 28.9706" fill="none" xmlns="http://www.w3.org/2000/svg">
<path id="Icon" d="M7.10018 4.04393L13.1002 7.5106L19.1002 4.04393M7.10018 24.8173V17.8973L1.10018 14.4306M25.1002 14.4306L19.1002 17.8973V24.8173M1.46018 7.7106L13.1002 14.4439L24.7402 7.7106M13.1002 27.8706V14.4306M25.1002 19.7639V9.09727C25.0997 8.62963 24.9763 8.17035 24.7422 7.76548C24.5082 7.36062 24.1718 7.02442 23.7669 6.7906L14.4335 1.45727C14.0281 1.22322 13.5683 1.1 13.1002 1.1C12.6321 1.1 12.1722 1.22322 11.7669 1.45727L2.43352 6.7906C2.02853 7.02442 1.69216 7.36062 1.45813 7.76548C1.22411 8.17035 1.10066 8.62963 1.10018 9.09727V19.7639C1.10066 20.2316 1.22411 20.6909 1.45813 21.0957C1.69216 21.5006 2.02853 21.8368 2.43352 22.0706L11.7669 27.4039C12.1722 27.638 12.6321 27.7612 13.1002 27.7612C13.5683 27.7612 14.0281 27.638 14.4335 27.4039L23.7669 22.0706C24.1718 21.8368 24.5082 21.5006 24.7422 21.0957C24.9763 20.6909 25.0997 20.2316 25.1002 19.7639Z" stroke="var(--stroke-0, #1E1E1E)" stroke-width="2.2" stroke-linecap="round" stroke-linejoin="round"/>
</svg>
