<?xml version="1.0" encoding="utf-8"?>
<!-- Generator: Adobe Illustrator 22.1.0, SVG Export Plug-In . SVG Version: 6.00 Build 0)  -->
<svg version="1.1" id="Capa_1" xmlns="http://www.w3.org/2000/svg" xmlns:xlink="http://www.w3.org/1999/xlink" x="0px" y="0px" fill="#6a737d"
	 viewBox="0 0 485.2 485.2" style="enable-background:new 0 0 485.2 485.2;" xml:space="preserve">
<g>
	<path d="M60.7,75.8V15.2C60.7,6.8,67.4,0,75.8,0C84.2,0,91,6.8,91,15.2v60.7C91,84.2,84.2,91,75.8,91C67.4,91,60.7,84.2,60.7,75.8z
		"/>
	<path d="M318.4,91c8.4,0,15.2-6.8,15.2-15.2V15.2c0-8.4-6.8-15.2-15.2-15.2c-8.4,0-15.2,6.8-15.2,15.2v60.7
		C303.3,84.2,310,91,318.4,91z"/>
	<rect x="60.7" y="182" width="60.7" height="60.7"/>
	<rect x="60.7" y="272.9" width="60.7" height="60.7"/>
	<rect x="151.6" y="182" width="60.7" height="60.7"/>
	<rect x="151.6" y="272.9" width="60.7" height="60.7"/>
	<path d="M30,361.2v-210h334c0.2,70.7,0.4,141.4,0.7,212.1c9.8,0,19.6-0.1,29.3-0.1c0-89.9,0-179.7,0-269.6
		c0-18.5-14.5-33.4-32.5-33.4H349v15.2c0,16.7-13.7,30.3-30.5,30.3c-16.8,0-30.5-13.6-30.5-30.3V60.2H106v15.2
		c0,16.7-13.7,30.3-30.5,30.3C58.7,105.7,45,92.1,45,75.4V60.2H32.5C14.5,60.2,0,75.2,0,93.6v267.2c0,9.2,3.6,17.5,9.5,23.6
		c7.8,8.1,18.5,9.3,23,9.8c22.1,2.4,165.3,2.9,361.5,1c0-10.7,0-21.3,0-32c-120.5,0.3-241,0.7-361.5,1
		C31.7,363.2,30.8,362.2,30,361.2z"/>
	<path d="M420.3,387.9"/>
	<rect x="242.6" y="182" width="60.6" height="60.7"/>
	<rect x="242.6" y="272.9" width="60.7" height="60.7"/>
</g>
</svg>
