<?xml version="1.0" encoding="iso-8859-1"?>
<!-- Generator: Adobe Illustrator 19.0.0, SVG Export Plug-In . SVG Version: 6.00 Build 0)  -->
<svg version="1.1" id="Capa_1" xmlns="http://www.w3.org/2000/svg" xmlns:xlink="http://www.w3.org/1999/xlink" x="0px" y="0px"
	 viewBox="0 0 512 512" style="enable-background:new 0 0 512 512;" xml:space="preserve">
<path style="fill:#FFC350;" d="M495.484,107.355H115.613v8.258c0,4.565-3.694,8.258-8.258,8.258c-4.565,0-8.258-3.694-8.258-8.258
	v-8.258H16.516C7.395,107.355,0,114.749,0,123.871v72.697c0,4.163,2.047,8.119,5.587,10.309
	c16.459,10.18,27.445,28.347,27.445,49.123c0,20.775-10.986,38.943-27.445,49.123C2.047,307.313,0,311.27,0,315.432v72.697
	c0,9.121,7.395,16.516,16.516,16.516h82.581v-8.258c0-4.565,3.694-8.258,8.258-8.258c4.565,0,8.258,3.694,8.258,8.258v8.258h379.871
	c9.121,0,16.516-7.395,16.516-16.516V123.871C512,114.749,504.605,107.355,495.484,107.355z M115.613,363.355
	c0,4.565-3.694,8.258-8.258,8.258c-4.565,0-8.258-3.694-8.258-8.258v-16.516c0-4.565,3.694-8.258,8.258-8.258
	c4.565,0,8.258,3.694,8.258,8.258V363.355z M115.613,313.806c0,4.565-3.694,8.258-8.258,8.258c-4.565,0-8.258-3.694-8.258-8.258
	V297.29c0-4.565,3.694-8.258,8.258-8.258c4.565,0,8.258,3.694,8.258,8.258V313.806z M115.613,264.258
	c0,4.565-3.694,8.258-8.258,8.258c-4.565,0-8.258-3.694-8.258-8.258v-16.516c0-4.565,3.694-8.258,8.258-8.258
	c4.565,0,8.258,3.694,8.258,8.258V264.258z M115.613,214.71c0,4.565-3.694,8.258-8.258,8.258c-4.565,0-8.258-3.694-8.258-8.258
	v-16.516c0-4.565,3.694-8.258,8.258-8.258c4.565,0,8.258,3.694,8.258,8.258V214.71z M115.613,165.161
	c0,4.565-3.694,8.258-8.258,8.258c-4.565,0-8.258-3.694-8.258-8.258v-16.516c0-4.565,3.694-8.258,8.258-8.258
	c4.565,0,8.258,3.694,8.258,8.258V165.161z"/>
<path style="fill:#FFD164;" d="M487.226,388.129H140.387c-4.561,0-8.258-3.697-8.258-8.258V132.129c0-4.561,3.697-8.258,8.258-8.258
	h346.839c4.561,0,8.258,3.697,8.258,8.258v247.742C495.484,384.432,491.787,388.129,487.226,388.129z"/>
<path style="fill:#FFFFFF;" d="M306.974,313.068L264.17,339.94c-9.433,5.922-21.271-2.678-18.554-13.48l12.33-49.013l-38.784-32.405
	c-8.548-7.142-4.026-21.058,7.087-21.811l50.424-3.419l18.834-46.9c4.151-10.336,18.783-10.336,22.934,0l18.834,46.9l50.424,3.419
	c11.113,0.754,15.635,14.67,7.087,21.811l-38.784,32.405l12.33,49.013c2.717,10.802-9.12,19.403-18.554,13.48L306.974,313.068z"/>
<path style="fill:#FFF6D8;" d="M362.96,305.111c-53.511-3.271-98.879-36.395-119.61-83.039l-17.101,1.159
	c-11.113,0.754-15.635,14.67-7.087,21.811l38.784,32.405l-12.331,49.013c-2.717,10.802,9.12,19.402,18.554,13.48l42.804-26.872
	l42.803,26.872c9.433,5.922,21.271-2.678,18.553-13.48L362.96,305.111z"/>
<g>
</g>
<g>
</g>
<g>
</g>
<g>
</g>
<g>
</g>
<g>
</g>
<g>
</g>
<g>
</g>
<g>
</g>
<g>
</g>
<g>
</g>
<g>
</g>
<g>
</g>
<g>
</g>
<g>
</g>
</svg>
