<svg height="512" viewBox="0 0 512 512" width="512" xmlns="http://www.w3.org/2000/svg"><g id="Flat"><g id="Color"><path d="m332.664 236.024c-5.068-15.4-19.946-30.468-36.121-30.187-15.639.272-28.631 9.62-35.428 22.357a5.691 5.691 0 0 1 -10.23 0c-6.8-12.737-19.788-22.085-35.428-22.357-16.175-.281-31.052 14.792-36.12 30.187-16.268 49.414 34.306 82.148 69.791 94.671a20.58 20.58 0 0 0 13.744 0c35.476-12.519 86.061-45.243 69.792-94.671z" fill="#f06292"/><g fill="#ffd54f"><path d="m125.852 335.868a11.962 11.962 0 0 1 -17.218-3.684 147.677 147.677 0 0 1 3.136-152.857 12.02 12.02 0 0 1 17.458-3.106l12.747 9.787a11.967 11.967 0 0 1 2.915 15.792 107.683 107.683 0 0 0 -2.4 109.009 12.059 12.059 0 0 1 -3.49 15.814z"/><path d="m63.179 396.455a11.978 11.978 0 0 1 -17.027-3.243 250.158 250.158 0 0 1 3.839-274.588 12.028 12.028 0 0 1 17.2-2.892l19.181 14.483a11.963 11.963 0 0 1 2.776 16.2 202.162 202.162 0 0 0 -3.248 219.851 12.034 12.034 0 0 1 -3.141 16.255z"/><path d="m386.148 335.868a11.962 11.962 0 0 0 17.218-3.684 147.677 147.677 0 0 0 -3.136-152.857 12.02 12.02 0 0 0 -17.458-3.106l-12.747 9.787a11.967 11.967 0 0 0 -2.915 15.792 107.683 107.683 0 0 1 2.4 109.009 12.059 12.059 0 0 0 3.49 15.814z"/><path d="m448.821 396.455a11.978 11.978 0 0 0 17.027-3.243 250.158 250.158 0 0 0 -3.839-274.588 12.028 12.028 0 0 0 -17.2-2.892l-19.181 14.483a11.963 11.963 0 0 0 -2.776 16.2 202.162 202.162 0 0 1 3.248 219.851 12.034 12.034 0 0 0 3.141 16.255z"/></g></g></g></svg>