<?xml version="1.0" encoding="utf-8"?>
<!-- Generator: Adobe Illustrator 22.1.0, SVG Export Plug-In . SVG Version: 6.00 Build 0)  -->
<svg version="1.1" id="Capa_1" xmlns="http://www.w3.org/2000/svg" xmlns:xlink="http://www.w3.org/1999/xlink" x="0px" y="0px"
	 viewBox="0 0 512 512" style="enable-background:new 0 0 512 512;" xml:space="preserve">
<ellipse transform="matrix(0.9974 -7.219929e-02 7.219929e-02 0.9974 -33.6199 13.9664)" fill="#FA870A" cx="176.4" cy="472" rx="89.4" ry="39.5"/>
<ellipse transform="matrix(0.9974 -7.219929e-02 7.219929e-02 0.9974 -33.0884 13.9471)" fill="#FFC305" cx="176.4" cy="464.7" rx="89.4" ry="39.5"/>
<ellipse transform="matrix(7.219929e-02 -0.9974 0.9974 7.219929e-02 -159.37 772.7286)" fill="#FA870A" cx="335.7" cy="472" rx="39.5" ry="89.4"/>
<ellipse transform="matrix(7.219929e-02 -0.9974 0.9974 7.219929e-02 -152.0336 765.912)" fill="#FFC305" cx="335.7" cy="464.7" rx="39.5" ry="89.4"/>
<path fill="#373C41" d="M473.9,326.4c-9.8-36.5-26.1-65.3-40.2-73.6c-3.9-13.2-9.2-25.7-15.7-37.4c4.6-14,7.1-29.5,7.1-46.3
	C425.1,75.7,349.4,0,256,0S86.9,75.7,86.9,169.1c0,16.9,2.5,32.3,7.1,46.3c-6.5,11.8-11.8,24.3-15.7,37.4
	c-14.1,8.2-30.4,37.1-40.2,73.6c-7.6,28.1-3.7,55.8,0.4,73.1c2.3,9.5,12.1,12.1,18.9,5.1c7.7-8,17.3-19.7,25.3-34.1
	c26.4,70.1,94.1,120,173.4,120s147-49.9,173.4-120c8,14.5,17.6,26.1,25.3,34.1c6.7,7.1,16.6,4.4,18.9-5.1
	C477.6,382.2,481.5,354.5,473.9,326.4z"/>
<path fill="#F3F3F3" d="M342.2,197.4H169.8c-33,29.3-54.2,75-54.2,126.3c0,88.4,62.9,160,140.4,160c77.6,0,140.4-71.7,140.4-160
	C396.4,272.4,375.2,226.7,342.2,197.4z"/>
<path fill="#FFC305" d="M362.4,204.1c0-13.6-47.6-24.6-106.4-24.6s-106.4,11-106.4,24.6c0,7.4,14.2,14.1,36.7,18.6
	c4.3,15.9,33.9,37.5,69.7,37.5s65.4-21.6,69.7-37.5C348.2,218.2,362.4,211.5,362.4,204.1z"/>
<ellipse fill="#FFFFFF" cx="297" cy="128" rx="30" ry="44.1"/>
<path fill="#373C41" d="M288.3,142.9c-0.5-2.1-0.8-4.5-0.8-7.1c0-10.6,5-18,9.6-18c4.5,0,9.6,7.4,9.6,18c0,2.6-0.3,5-0.8,7.1h7.6
	c0.4-2.2,0.7-4.6,0.7-7.1c0-14.3-7.4-25.4-16.9-25.4s-16.9,11.2-16.9,25.4c0,2.5,0.2,4.9,0.7,7.1H288.3z"/>
<ellipse fill="#FFFFFF" cx="215" cy="128" rx="30" ry="44.1"/>
<path fill="#373C41" d="M215,106.3c-7.3,0-13.2,9.7-13.2,21.7s5.9,21.7,13.2,21.7c7.3,0,13.2-9.7,13.2-21.7S222.3,106.3,215,106.3z
	 M217.1,132.9c-2.9,0-5.3-3.3-5.3-7.4s2.4-7.4,5.3-7.4c2.9,0,5.3,3.3,5.3,7.4C222.4,129.6,220,132.9,217.1,132.9z"/>
<path fill="#FF3C3C" d="M438.6,250.2l-13.9-48.6c-89.8,98.7-245.1,98.7-334.9,0l-16.4,46.3c20.2,18.7,42.5,33.8,66.2,45.2v76.8
	l63.5,14.8v-70.2C284.9,331,372.9,309.6,438.6,250.2z"/>
</svg>
