<svg id="Capa_1" enable-background="new 0 0 502 502" height="512" viewBox="0 0 502 502" width="512" xmlns="http://www.w3.org/2000/svg" xmlns:xlink="http://www.w3.org/1999/xlink"><linearGradient id="SVGID_1_" gradientUnits="userSpaceOnUse" x1="10.619" x2="560.128" y1="337.352" y2="337.352"><stop offset="0" stop-color="#b39bdb"/><stop offset="1" stop-color="#d0c3e8"/></linearGradient><linearGradient id="SVGID_2_" gradientUnits="userSpaceOnUse" x1="251" x2="251" y1="358.606" y2="431.627"><stop offset="0" stop-color="#cdd4d4"/><stop offset="1" stop-color="#f3f3f3"/></linearGradient><linearGradient id="lg1"><stop offset="0" stop-color="#d9e0e0"/><stop offset="1" stop-color="#f3f3f3"/></linearGradient><linearGradient id="SVGID_3_" gradientUnits="userSpaceOnUse" x1="255.4" x2="61.702" xlink:href="#lg1" y1="291.355" y2="291.355"/><linearGradient id="SVGID_4_" gradientTransform="matrix(-1 0 0 1 916.004 0)" gradientUnits="userSpaceOnUse" x1="390.541" x2="616.626" xlink:href="#lg1" y1="291.355" y2="291.355"/><linearGradient id="SVGID_5_" gradientUnits="userSpaceOnUse" x1="251.401" x2="251.401" y1="275.036" y2="166.537"><stop offset="0" stop-color="#74d2e8"/><stop offset="1" stop-color="#baeaf5"/></linearGradient><linearGradient id="SVGID_6_" gradientUnits="userSpaceOnUse" x1="250.893" x2="250.893" y1="233.116" y2="122.122"><stop offset="0" stop-color="#7ed99e"/><stop offset=".2532" stop-color="#81daa3"/><stop offset=".5725" stop-color="#88ddb3"/><stop offset=".9261" stop-color="#95e2cd"/><stop offset="1" stop-color="#98e3d3"/></linearGradient><linearGradient id="SVGID_7_" gradientUnits="userSpaceOnUse" x1="251.144" x2="251.144" y1="227.587" y2="90.763"><stop offset="0" stop-color="#ec6f80"/><stop offset="1" stop-color="#eca0aa"/></linearGradient><linearGradient id="SVGID_8_" gradientUnits="userSpaceOnUse" x1="251" x2="251" y1="253.757" y2="40.936"><stop offset="0" stop-color="#f4d952"/><stop offset="1" stop-color="#f9edaf"/></linearGradient><g><path d="m468.898 216.729h-116.534l-101.364 33.6-101.364-33.6h-116.534c-18.282 0-33.102 14.82-33.102 33.102v162.962c0 24.954 20.229 45.183 45.183 45.183h411.634c24.954 0 45.183-20.229 45.183-45.183v-162.962c0-18.282-14.82-33.102-33.102-33.102z" fill="url(#SVGID_1_)"/><path d="m362.563 309.339s-96.415 43.198-111.563 86.063c-15.149-42.865-111.563-86.063-111.563-86.063l-111.564 35.158v37.392c0 12.762 11.431 22.544 24.021 20.453 73.356-12.184 156.689 3.457 191.484 19.211 4.835 2.189 10.408 2.189 15.243 0 34.796-15.754 118.128-31.395 191.484-19.211 12.589 2.091 24.021-7.691 24.021-20.453v-37.392z" fill="url(#SVGID_2_)"/><path d="m251 224.52c-17.154-29.63-142.319-50.624-205.305-27.077-10.756 4.021-17.821 14.373-17.821 25.856v121.197c0 14.183 13.518 24.649 27.164 20.782 65.249-18.493 179.62 1.896 195.963 30.124v-170.882z" fill="url(#SVGID_3_)"/><path d="m251 224.52c17.154-29.63 142.319-50.624 205.305-27.077 10.755 4.021 17.821 14.373 17.821 25.856v121.197c0 14.183-13.518 24.649-27.164 20.782-65.249-18.493-179.621 1.896-195.963 30.124v-170.882z" fill="url(#SVGID_4_)"/><g><path d="m251 192.643c32.015 0 58.72 22.71 64.896 52.899 1.576 7.705 8.164 13.352 16.028 13.352h22.472c11.233-64.096-46.381-106.945-103.396-106.945s-110.344 36.566-103.396 106.944h22.472c7.865 0 14.452-5.647 16.028-13.352 6.176-30.189 32.881-52.898 64.896-52.898z" fill="url(#SVGID_5_)"/><path d="m251 155.488c57.015 0 103.396 46.391 103.396 103.405h37.155c12.503-93.508-63.048-144.983-140.551-144.983s-154.15 56.632-140.551 144.983h37.155c0-57.015 46.381-103.405 103.396-103.405z" fill="url(#SVGID_6_)"/><path d="m251 118.333c77.503 0 140.551 63.057 140.551 140.56h37.155c14.096-100.959-79.715-183.022-177.706-183.022s-190.093 73.121-177.705 183.022h37.155c-.001-77.503 63.047-140.56 140.55-140.56z" fill="url(#SVGID_7_)"/><path d="m251 81.179c97.991 0 177.706 79.723 177.706 177.714h20.122c9.54 0 17.091-8.138 16.315-17.647-9.005-110.257-101.613-197.222-214.143-197.222s-205.138 86.965-214.143 197.222c-.776 9.508 6.775 17.647 16.315 17.647h20.122c.001-97.991 79.715-177.714 177.706-177.714z" fill="url(#SVGID_8_)"/></g><path d="m321.714 304.046c-1.56-6.156 2.167-12.412 8.323-13.972 17.574-4.453 40.093-6.807 65.123-6.807 6.351 0 11.5 5.148 11.5 11.5s-5.149 11.5-11.5 11.5c-23.153 0-43.719 2.11-59.474 6.102-6.14 1.557-12.407-2.15-13.972-8.323z" fill="#5b6c82"/><path d="m166.314 312.369c-15.754-3.991-36.32-6.102-59.474-6.102-6.351 0-11.5-5.148-11.5-11.5s5.149-11.5 11.5-11.5c25.03 0 47.549 2.353 65.123 6.807 6.157 1.56 9.883 7.815 8.323 13.972-1.559 6.153-7.811 9.884-13.972 8.323z" fill="#5b6c82"/><path d="m382.259 398.165c-51.586 1.492-99.401 12.414-123.644 23.392-4.844 2.193-10.38 2.196-15.224.003-34.788-15.756-118.132-31.403-191.497-19.217-12.589 2.091-24.021-7.691-24.021-20.453v-158.59c0-2.136.246-4.232.714-6.256-16.144 2.203-28.587 16.038-28.587 32.787v135.392c1.716 25.323 22.8 45.402 48.488 45.402 9.959 0 23.141-4.637 59.399-4.637 50.814 0 100.814 10.602 123.942 21.072 12.18 5.516 26.141 5.524 38.341.001 22.734-10.293 66.777-19.544 112.915-20.863 8.037-.23 14.2-7.225 13.499-15.234-.645-7.379-6.921-13.013-14.325-12.799z" fill="#997bce"/><g fill="#fffde3"><path d="m414.262 159.951c-3.223 0-6.387-1.555-8.316-4.433-3.394-5.064-7.08-10.017-10.956-14.723-3.511-4.264-2.901-10.565 1.362-14.076 4.264-3.513 10.565-2.9 14.077 1.361 4.292 5.211 8.373 10.695 12.13 16.301 3.075 4.588 1.849 10.8-2.739 13.875-1.709 1.146-3.644 1.695-5.558 1.695z"/><path d="m373.669 115.829c-2.191 0-4.397-.716-6.241-2.191-2.107-1.686-4.288-3.354-6.483-4.959-4.459-3.259-5.432-9.516-2.172-13.975 3.259-4.459 9.515-5.432 13.974-2.172 2.429 1.775 4.844 3.622 7.177 5.488 4.312 3.45 5.011 9.743 1.561 14.056-1.976 2.469-4.882 3.753-7.816 3.753z"/></g></g></svg>