<svg id="Capa_1" enable-background="new 0 0 512 512" height="512" viewBox="0 0 512 512" width="512" xmlns="http://www.w3.org/2000/svg"><g clip-rule="evenodd" fill-rule="evenodd"><path d="m252.201 311.16c-47.764-29.453-80.305-88.217-80.305-155.938 0-63.102 28.261-118.436 70.725-149.504 10.402-7.625 8.73-7.625 19.133 0 42.464 31.068 70.753 86.402 70.753 149.504 0 67.721-32.57 126.485-80.306 155.938z" fill="#fd5693"/><path d="m111.178 425.229c-39.09-24.095-65.764-72.229-65.764-127.648 0-51.677 23.159-96.975 57.94-122.402 8.504-6.236 7.115-6.236 15.647 0 34.752 25.428 57.911 70.754 57.911 122.402.001 55.419-26.644 103.553-65.734 127.648z" fill="#f5aa0a"/><path d="m152.252 48.382v162.826c0 54.965 44.957 99.952 99.949 99.952 54.964 0 99.95-44.987 99.95-99.952 0-85.184-60.293-147.037-188.192-170.509-6.066-1.134-11.707.086-11.707 7.683z" fill="#fc76a8"/><path d="m29.342 210.102v133.288c0 45.016 36.822 81.839 81.836 81.839 44.986 0 81.837-36.823 81.837-81.839 0-69.705-49.38-120.362-154.063-139.581-4.962-.907-9.61.085-9.61 6.293z" fill="#f7b82e"/><path d="m241.401 296.306h21.572c2.041 0 3.713 1.673 3.713 3.714v208.267c0 2.041-1.672 3.714-3.713 3.714h-21.572c-2.041 0-3.713-1.673-3.713-3.714v-208.268c0-2.041 1.672-3.713 3.713-3.713z" fill="#5aa687"/><path d="m352.151 48.382v162.826c0 54.965-44.986 99.952-99.95 99.952-54.992 0-99.949-44.987-99.949-99.952 0-85.297 60.435-147.207 188.674-170.594 6.321-1.162 11.225.057 11.225 7.768z" fill="#fd91ba"/><path d="m352.151 48.382v162.826c0 54.965-44.986 99.952-99.95 99.952-4.252 0-8.418-.283-12.5-.794 49.124-6.208 87.448-48.417 87.448-99.158v-162.826c0-2.041-.34-3.629-.964-4.848 4.791-1.049 9.695-2.013 14.74-2.92 6.322-1.162 11.226.057 11.226 7.768z" fill="#f585b0"/><path d="m409.893 371.539c-34.752-21.43-58.45-64.206-58.45-113.53 0-45.922 20.58-86.203 51.506-108.825 7.568-5.527 6.35-5.527 13.918 0 30.897 22.622 51.505 62.903 51.505 108.825-.001 49.324-23.727 92.1-58.479 113.53z" fill="#2fb8de"/><path d="m337.128 180.253v118.52c0 40.025 32.74 72.767 72.765 72.767s72.766-32.741 72.766-72.767c0-61.995-43.88-107.039-136.998-124.105-4.423-.821-8.533.057-8.533 5.585z" fill="#41caf0"/><path d="m399.121 359.974h21.572c2.041 0 3.713 1.673 3.713 3.714v144.599c0 2.041-1.672 3.714-3.713 3.714h-21.572c-2.041 0-3.713-1.673-3.713-3.714v-144.6c0-2.041 1.672-3.713 3.713-3.713z" fill="#5aa687"/><path d="m482.658 180.253v118.52c0 40.025-32.74 72.767-72.766 72.767-40.024 0-72.765-32.741-72.765-72.767 0-62.08 44.022-107.152 137.366-124.19 4.622-.822 8.165.057 8.165 5.67z" fill="#62d9fa"/><path d="m482.658 180.253v118.52c0 40.025-32.74 72.767-72.766 72.767-4.252 0-8.418-.368-12.5-1.077 34.129-5.98 60.264-35.916 60.264-71.689l.029-118.52c0-.794-.086-1.503-.228-2.126 5.499-1.276 11.169-2.467 17.036-3.544 4.622-.823 8.165.056 8.165 5.669z" fill="#54d0f2"/><path d="m100.378 405.783h21.571c2.041 0 3.714 1.672 3.714 3.713v98.79c0 2.041-1.673 3.714-3.714 3.714h-21.571c-2.041 0-3.713-1.673-3.713-3.714v-98.79c0-2.041 1.672-3.713 3.713-3.713z" fill="#5aa687"/><path d="m193.015 210.102v133.288c0 45.016-36.85 81.839-81.837 81.839-45.014 0-81.836-36.823-81.836-81.839 0-69.819 49.493-120.504 154.46-139.667 5.216-.934 9.213.058 9.213 6.379z" fill="#ffc343"/><path d="m193.015 210.102v133.288c0 45.016-36.85 81.839-81.837 81.839-4.252 0-8.419-.312-12.5-.964 39.117-6.066 69.335-40.111 69.335-80.875v-133.288c0-1.191-.17-2.212-.425-3.061 5.244-1.191 10.658-2.297 16.214-3.317 5.216-.935 9.213.057 9.213 6.378z" fill="#f7b82e"/></g></svg>