<svg id="Capa_1" enable-background="new 0 0 512 512" height="512" viewBox="0 0 512 512" width="512" xmlns="http://www.w3.org/2000/svg"><g><g><path d="m256 256h85.333v21.333c0 23.564 19.103 42.667 42.667 42.667 23.564 0 42.667-19.103 42.667-42.667v-21.333h85.333v-213.333c0-23.564-19.103-42.667-42.667-42.667h-213.333z" fill="#dd636e"/><path d="m469.333 0h-85.333v320c23.564 0 42.667-19.103 42.667-42.667v-21.333h85.333v-213.333c0-23.564-19.103-42.667-42.667-42.667z" fill="#d82e3d"/></g><path d="m256 256v-85.333h21.333c23.564 0 42.667-19.103 42.667-42.667 0-23.564-19.103-42.667-42.667-42.667h-21.333v-85.333h-213.333c-23.564 0-42.667 19.103-42.667 42.667v213.333z" fill="#ffe646"/><path d="m277.333 85.333h-21.333v-85.333h-128v256h128v-85.333h21.333c23.565 0 42.667-19.103 42.667-42.667 0-23.564-19.102-42.667-42.667-42.667z" fill="#ffc81e"/><path d="m256 256h-85.333v-21.333c0-23.565-19.103-42.667-42.667-42.667-23.564 0-42.667 19.102-42.667 42.667v21.333h-85.333v213.333c0 23.564 19.103 42.667 42.667 42.667h213.333z" fill="#d49eee"/><path d="m256 512v-256h-85.333v-21.333c0-23.564-19.103-42.667-42.667-42.667v320z" fill="#b77ede"/><path d="m256 256v85.333h-21.333c-23.565 0-42.667 19.103-42.667 42.667 0 23.564 19.102 42.667 42.667 42.667h21.333v85.333h213.333c23.564 0 42.667-19.103 42.667-42.667v-213.333z" fill="#badc1e"/><path d="m384 512h85.333c23.564 0 42.667-19.103 42.667-42.667v-213.333h-128z" fill="#73be14"/><path d="m341.333 249v28.333c0 23.564 19.103 42.667 42.667 42.667 23.564 0 42.667-19.103 42.667-42.667v-28.333z" fill="#dd636e"/><path d="m384 246v74c23.564 0 42.667-19.103 42.667-42.667v-31.333z" fill="#d82e3d"/></g></svg>