<?xml version="1.0" encoding="iso-8859-1"?>
<!-- Generator: Adobe Illustrator 19.0.0, SVG Export Plug-In . SVG Version: 6.00 Build 0)  -->
<svg version="1.1" id="Capa_1" xmlns="http://www.w3.org/2000/svg" xmlns:xlink="http://www.w3.org/1999/xlink" x="0px" y="0px"
	 viewBox="0 0 511.999 511.999" style="enable-background:new 0 0 511.999 511.999;" xml:space="preserve">
<g>
	<g>
		<path d="M177.437,255.82c-4.144,0-7.501,3.359-7.501,7.501v13.821c0,4.143,3.358,7.501,7.501,7.501
			c4.143,0,7.501-3.359,7.501-7.501v-13.821C184.938,259.178,181.58,255.82,177.437,255.82z"/>
	</g>
</g>
<g>
	<g>
		<path d="M330.167,255.82c-4.143,0-7.501,3.359-7.501,7.501v13.821c0,4.143,3.359,7.501,7.501,7.501
			c4.143,0,7.501-3.359,7.501-7.501v-13.821C337.669,259.178,334.31,255.82,330.167,255.82z"/>
	</g>
</g>
<g>
	<g>
		<path d="M281.897,271.463c-3.12-2.727-7.859-2.408-10.585,0.71c-4.267,4.881-10.649,7.68-17.51,7.68
			c-6.861,0-13.243-2.8-17.51-7.681c-2.727-3.119-7.465-3.438-10.585-0.711c-3.12,2.727-3.438,7.465-0.711,10.585
			c7.117,8.142,17.616,12.811,28.807,12.811c11.19,0,21.689-4.669,28.806-12.809C285.334,278.929,285.016,274.19,281.897,271.463z"
			/>
	</g>
</g>
<g>
	<g>
		<path d="M490.566,175.699c-11.907-11.634-33.706-23.953-69.931-16.576c-6.216,1.266-12.863,3.139-19.81,5.561
			c-4.734-5.751-9.868-11.266-15.397-16.511c2.481-22.062-11.149-32.681-21.031-36.049c-16-20.042-51.455-28.861-77.926-32.72
			c0.41-2.096,0.62-4.235,0.62-6.382c0-18.354-14.933-33.287-33.287-33.287s-33.287,14.933-33.287,33.287
			c0,2.147,0.21,4.286,0.62,6.382c-26.471,3.86-61.928,12.678-77.927,32.72c-9.882,3.369-23.512,13.988-21.031,36.049
			c-12.757,12.102-23.434,25.63-31.863,40.219c-14.895-2.59-22.424-18.858-31.121-41.08c-7.279-18.602-14.155-36.172-30.518-36.172
			H14.096c-4.756,0-9.158,2.371-11.773,6.343c-2.607,3.959-3.048,8.921-1.177,13.274c3.255,7.57,7.133,21.078,7.133,42.431
			c0,16.32,1.451,47.684,11.169,74.369c12.41,34.079,32.579,44.527,49.379,46.574c1.356,11.034,3.798,21.917,7.311,32.529
			c1.281,3.871,5.616,6.042,9.479,4.764c3.934-1.302,6.066-5.546,4.764-9.479c-3.814-11.52-6.24-23.389-7.261-35.426
			c-0.003-0.052,0.003-0.103-0.001-0.154c-1.154-13.831-0.465-27.913,2.083-41.554c2.928-15.597,8.282-30.648,16.021-44.984
			c0.167-0.309,0.307-0.628,0.427-0.952c8.088-14.733,18.635-28.35,31.465-40.406h170.278c4.143,0,7.501-3.359,7.501-7.501
			c0-4.143-3.359-7.501-7.501-7.501H136.884c-0.063-5.491,1.538-9.873,4.785-13.07c2.667-2.626,5.781-3.843,7.039-4.255h210.175
			c1.307,0.428,4.399,1.645,7.049,4.255c3.248,3.197,4.848,7.578,4.785,13.07h-37.924c-4.143,0-7.501,3.359-7.501,7.501
			c0,4.143,3.359,7.501,7.501,7.501h41.695c31.525,29.621,50.553,71.556,50.553,114.974c0,25.356-6.542,51.106-18.634,73.55
			c-0.031,0.057-0.05,0.117-0.079,0.175c-15.35,28.454-39.528,52.482-70.244,68.44H171.518
			c-29.94-15.551-54.05-38.904-69.803-67.633c-1.992-3.633-6.552-4.963-10.184-2.971c-3.633,1.992-4.962,6.551-2.971,10.184
			c15.372,28.034,38.01,51.355,65.932,68.079c-6.473,4.481-14.139,11.093-19.356,19.814c-3.582,5.987-3.654,13.206-0.193,19.308
			c3.455,6.091,9.94,9.876,16.924,9.876h203.87c6.985,0,13.471-3.785,16.924-9.876c3.461-6.103,3.388-13.321-0.194-19.308
			c-5.218-8.723-12.885-15.336-19.361-19.817c27.618-16.55,49.728-39.383,64.743-65.937c30.328-5.754,56.372-24.7,73.635-53.696
			C510.708,271.345,526.325,210.63,490.566,175.699z M69.818,245.653c-0.015,0.09-0.032,0.18-0.047,0.271
			c-1.743,10.778-2.46,21.806-2.125,32.72c0.002,0.045,0.001,0.088,0.003,0.133c-15.117-3.011-26.32-14.983-34.104-36.355
			c-8.93-24.522-10.264-53.903-10.264-69.235c0-22.769-4.121-37.989-7.804-47.045h13.196c6.124,0,11.661,14.151,16.546,26.636
			c7.631,19.501,16.865,43.093,37.956,49.381C76.791,215.968,72.293,230.555,69.818,245.653z M253.803,54.735
			c10.082,0,18.285,8.203,18.285,18.284c0,1.547-0.198,3.086-0.583,4.573c-9.677-0.935-16.351-1.134-17.464-1.162
			c-0.017,0-0.049-0.001-0.057-0.001c-0.06-0.001-0.12-0.002-0.18-0.002c-0.06,0-0.12,0-0.18,0.002c-0.009,0-0.04,0.001-0.057,0.001
			c-1.113,0.028-7.789,0.226-17.464,1.162c-0.385-1.487-0.583-3.025-0.583-4.573C235.518,62.938,243.721,54.735,253.803,54.735z
			 M167.292,111.139c10.305-6.163,24.896-11.156,43.23-14.724c28.979-5.639,57.373-5.654,86.358-0.039
			c18.432,3.571,33.09,8.576,43.433,14.763H167.292z M359.593,450.783c1.073,1.793,0.472,3.405,0.018,4.206
			c-0.388,0.683-1.541,2.273-3.874,2.273h-203.87c-2.333,0-3.487-1.59-3.874-2.273c-0.454-0.801-1.055-2.411,0.018-4.206
			c6.631-11.086,19.31-18.117,23.396-20.171h164.779C340.274,432.679,353.003,439.766,359.593,450.783z M478.595,295.956
			c-12.749,21.415-30.871,36.513-51.991,43.615c0.046-0.108,0.089-0.217,0.134-0.325c3.449-8.171,6.324-16.797,8.454-25.484
			c10.397-6.606,19.502-16.186,26.468-27.887c14.051-23.6,24.783-65.681,4.651-85.346c-9.874-9.647-24.805-11.547-45.52-5.762
			c-3.128-5.984-6.621-11.806-10.471-17.441c4.649-1.472,9.101-2.646,13.307-3.502c16.44-3.348,39.58-3.879,56.455,12.606
			c16.24,15.862,18.006,38.104,16.628,53.971C495.11,258.822,488.339,279.59,478.595,295.956z M427.244,208.583
			c13.622-3.436,23.228-2.555,28.583,2.678c13.352,13.042,4.302,47.859-7.058,66.939c-2.883,4.843-6.111,9.16-9.658,12.943
			c0.613-5.842,0.934-11.746,0.934-17.699C440.045,250.826,435.648,228.93,427.244,208.583z"/>
	</g>
</g>
<g>
</g>
<g>
</g>
<g>
</g>
<g>
</g>
<g>
</g>
<g>
</g>
<g>
</g>
<g>
</g>
<g>
</g>
<g>
</g>
<g>
</g>
<g>
</g>
<g>
</g>
<g>
</g>
<g>
</g>
</svg>
