<?xml version="1.0" encoding="iso-8859-1"?>
<!-- Generator: Adobe Illustrator 19.0.0, SVG Export Plug-In . SVG Version: 6.00 Build 0)  -->
<svg version="1.1" id="Capa_1" xmlns="http://www.w3.org/2000/svg" xmlns:xlink="http://www.w3.org/1999/xlink" x="0px" y="0px"
	 viewBox="0 0 511.999 511.999" style="enable-background:new 0 0 511.999 511.999;" xml:space="preserve">
<circle style="fill:#FFADCC;" cx="253.692" cy="67.538" r="26.559"/>
<g>
	<path style="fill:#EC8094;" d="M247.732,67.534c0-11.015,6.705-20.462,16.257-24.486c-3.168-1.334-6.649-2.073-10.302-2.073
		c-14.668,0-26.559,11.89-26.559,26.559s11.89,26.559,26.559,26.559c3.653,0,7.134-0.739,10.302-2.073
		C254.438,87.997,247.732,78.549,247.732,67.534z"/>
	<path style="fill:#EC8094;" d="M144.388,114.523c23.494-33.71,109.3-35.752,109.3-35.752s85.806,2.043,109.3,35.752l-109.3,17.366
		L144.388,114.523z"/>
</g>
<g>
	<path style="fill:#E7627B;" d="M185.595,114.523c16.155-23.179,61.773-31.386,88.697-34.251
		c-12.23-1.301-20.604-1.501-20.604-1.501s-85.806,2.043-109.3,35.752l109.3,17.366l20.604-3.273L185.595,114.523z"/>
	<path style="fill:#E7627B;" d="M381.017,147.819c5.464-28.189-18.03-33.296-18.03-33.296H144.388c0,0-23.494,5.108-18.03,33.296
		l127.329,29.014L381.017,147.819z"/>
</g>
<path style="fill:#CC576D;" d="M167.565,147.819c-5.464-28.19,18.03-33.296,18.03-33.296h-41.207c0,0-23.494,5.108-18.03,33.296
	l127.329,29.014l20.604-4.695L167.565,147.819z"/>
<g>
	<path style="fill:#E7627B;" d="M21.808,114.523H6.795c-4.86,0-8.159,4.961-6.24,9.427c3.699,8.606,7.976,23.57,7.976,46.756
		c0,40.86,8.885,117.266,61.646,117.266l19.558-93.497C45.303,194.473,48.367,114.523,21.808,114.523z"/>
	<path style="fill:#E7627B;" d="M369.281,452.657c-9.612-16.068-28.976-24.536-28.976-24.536l-86.618-29.283l-86.618,29.283
		c0,0-19.364,8.468-28.976,24.536c-4.839,8.088,1.176,18.367,10.602,18.367h209.983
		C368.104,471.024,374.119,460.745,369.281,452.657z"/>
</g>
<path style="fill:#CC576D;" d="M179.301,452.657c9.612-16.068,28.976-24.536,28.976-24.536l66.014-22.318l-20.604-6.965
	l-86.618,29.283c0,0-19.364,8.468-28.976,24.536c-4.839,8.088,1.176,18.367,10.602,18.367h41.207
	C180.478,471.024,174.463,460.745,179.301,452.657z"/>
<path style="fill:#E7627B;" d="M402.987,354.514c-6.207,0-12.494-0.586-18.815-1.785c-9.7-1.84-16.072-11.195-14.232-20.894
	c1.84-9.701,11.198-16.073,20.894-14.232c27.909,5.29,54.188-7.711,70.306-34.785c12.801-21.5,23.57-61.294,6.031-78.426
	c-12.697-12.405-38.084-8.534-77.609,11.828c-8.777,4.521-19.557,1.071-24.077-7.705c-4.521-8.776-1.072-19.557,7.704-24.077
	c13.335-6.869,33.427-16.483,53.876-20.647c33.994-6.923,54.159,4.35,65.088,15.027c33.638,32.86,18.255,91.136-0.293,122.29
	C471.609,335.121,438.666,354.513,402.987,354.514z"/>
<g>
	<path style="fill:#CC576D;" d="M390.834,317.602c-9.695-1.841-19.054,4.531-20.894,14.232c-1.84,9.699,4.532,19.054,14.232,20.894
		c6.32,1.199,12.608,1.785,18.815,1.785c19.851,0,38.85-6.011,55.292-17.195c6.804-20.141,10.415-41.471,10.415-63.352
		c0-2.163-0.046-4.319-0.115-6.472c-2.241,5.645-4.794,10.878-7.44,15.322C445.022,309.891,418.742,322.892,390.834,317.602z"/>
	<path style="fill:#CC576D;" d="M389.561,216.22c28.421-14.641,49.531-20.755,63.87-18.424c-0.908-2.172-1.84-4.335-2.828-6.484
		c-4.617-10.045-10.032-19.64-16.188-28.762c-2.379,0.321-4.821,0.724-7.351,1.239c-20.45,4.164-40.543,13.779-53.876,20.647
		c-8.776,4.521-12.226,15.301-7.704,24.077C370.004,217.292,380.783,220.742,389.561,216.22z"/>
</g>
<path style="fill:#FFADCC;" d="M340.305,428.121c58.007-29.4,97.484-87.4,97.484-154.154c0-49.592-21.787-94.353-56.771-126.148
	H126.357c-34.984,31.794-56.771,76.556-56.771,126.148c0,66.755,39.477,124.754,97.484,154.154H340.305z"/>
<path style="fill:#EC8094;" d="M110.793,273.967c0-49.592,21.787-94.353,56.771-126.148h-41.207
	c-34.984,31.794-56.771,76.556-56.771,126.148c0,66.755,39.477,124.754,97.484,154.154h41.207
	C150.27,398.721,110.793,340.722,110.793,273.967z"/>
<g>
	<path style="fill:#3B484A;" d="M175.032,285.503c-4.267,0-7.726-3.459-7.726-7.726v-14.235c0-4.267,3.459-7.726,7.726-7.726
		s7.726,3.459,7.726,7.726v14.235C182.759,282.044,179.299,285.503,175.032,285.503z"/>
	<path style="fill:#3B484A;" d="M332.343,285.503c-4.267,0-7.726-3.459-7.726-7.726v-14.235c0-4.267,3.459-7.726,7.726-7.726
		c4.267,0,7.726,3.459,7.726,7.726v14.235C340.069,282.044,336.61,285.503,332.343,285.503z"/>
	<path style="fill:#3B484A;" d="M253.688,296.022c-11.526,0-22.341-4.809-29.669-13.195c-2.808-3.213-2.481-8.093,0.732-10.902
		c3.212-2.808,8.093-2.481,10.902,0.732c4.395,5.027,10.967,7.911,18.034,7.911c7.066,0,13.64-2.883,18.034-7.911
		c2.809-3.214,7.69-3.54,10.902-0.732c3.213,2.808,3.541,7.689,0.732,10.902C276.027,291.213,265.213,296.022,253.688,296.022z"/>
</g>
<g>
</g>
<g>
</g>
<g>
</g>
<g>
</g>
<g>
</g>
<g>
</g>
<g>
</g>
<g>
</g>
<g>
</g>
<g>
</g>
<g>
</g>
<g>
</g>
<g>
</g>
<g>
</g>
<g>
</g>
</svg>
