<?xml version="1.0" encoding="utf-8"?>
<!-- Generator: Adobe Illustrator 22.1.0, SVG Export Plug-In . SVG Version: 6.00 Build 0)  -->
<svg version="1.1" id="Capa_1" xmlns="http://www.w3.org/2000/svg" xmlns:xlink="http://www.w3.org/1999/xlink" x="0px" y="0px"
	 viewBox="0 0 31.5 31.5" style="enable-background:new 0 0 31.5 31.5;" xml:space="preserve">
<g>
	<g>
		<path d="M13.1,23.7L11,24c-0.6,0.1-1.2,0-1.6-0.4c-0.5-0.3-0.8-0.9-0.9-1.4L8.3,21l-3.6,3.6c-0.2,0.2-0.2,0.4-0.2,0.7
			c0.1,0.2,0.3,0.4,0.5,0.5l2.3,0.4l0.4,2.3c0,0.3,0.2,0.5,0.5,0.5c0.2,0.1,0.5,0,0.7-0.2l4.8-4.8l-0.3-0.4
			C13.3,23.7,13.2,23.7,13.1,23.7z"/>
		<path d="M19.7,22.8l2,0.3c0.3,0.1,0.7,0,1-0.2c0.3-0.2,0.5-0.5,0.5-0.8l0.3-2c0.1-0.4,0.3-0.8,0.7-0.9l1.8-0.9
			c0.3-0.2,0.5-0.4,0.6-0.8c0.1-0.3,0.1-0.7-0.1-1l-0.9-1.8c-0.2-0.4-0.2-0.8,0-1.2l0.9-1.8c0.2-0.3,0.2-0.7,0.1-1
			c-0.1-0.3-0.3-0.6-0.7-0.8l-1.8-0.9c-0.4-0.2-0.6-0.5-0.7-0.9l-0.3-2c-0.1-0.3-0.2-0.6-0.5-0.8c-0.3-0.2-0.6-0.3-1-0.2l-2,0.3
			c-0.4,0.1-0.8-0.1-1.1-0.4l-1.4-1.5C16.9,3.1,16.6,3,16.3,3c-0.3,0-0.6,0.1-0.9,0.4L14,4.8c-0.3,0.3-0.7,0.4-1.1,0.4l-2-0.3
			c-0.3-0.1-0.7,0-1,0.2C9.6,5.3,9.4,5.6,9.4,6L9,8C9,8.4,8.7,8.7,8.4,8.9L6.5,9.9C6.2,10,6,10.3,5.9,10.6c-0.1,0.3-0.1,0.7,0.1,1
			l0.9,1.8c0.2,0.4,0.2,0.8,0,1.2l-0.9,1.8c-0.2,0.3-0.2,0.7-0.1,1C6,17.7,6.2,18,6.5,18.2l1.8,0.9C8.7,19.3,9,19.6,9,20l0.3,2
			c0.1,0.3,0.2,0.6,0.5,0.8c0.3,0.2,0.6,0.3,1,0.2l2-0.3c0.4-0.1,0.8,0.1,1.1,0.4l1.4,1.5c0.2,0.2,0.5,0.4,0.9,0.4
			c0.3,0,0.6-0.1,0.9-0.4l1.4-1.5C18.9,22.9,19.3,22.7,19.7,22.8z M16.3,21.7c-4.3,0-7.8-3.5-7.8-7.8C8.5,9.5,12,6,16.3,6
			c4.3,0,7.8,3.5,7.8,7.8C24.1,18.1,20.6,21.6,16.3,21.7z"/>
		<path d="M16.3,7.1c-3.7,0-6.7,3-6.7,6.7c0,3.7,3,6.7,6.7,6.7c3.7,0,6.7-3,6.7-6.7C23,10.1,20,7.1,16.3,7.1z"/>
		<path d="M28,24.6L24.3,21l-0.2,1.2c-0.1,0.6-0.4,1.1-0.9,1.4c-0.5,0.3-1,0.5-1.6,0.4l-2.1-0.3c-0.1,0-0.2,0-0.3,0.1l-0.3,0.4
			l4.8,4.8c0.2,0.2,0.4,0.2,0.7,0.2c0.2-0.1,0.4-0.3,0.5-0.5l0.4-2.3l2.3-0.4c0.3,0,0.5-0.2,0.5-0.5C28.2,25.1,28.1,24.8,28,24.6z"
			/>
	</g>
</g>
</svg>
