<?xml version="1.0" encoding="utf-8"?>
<!-- Generator: Adobe Illustrator 22.1.0, SVG Export Plug-In . SVG Version: 6.00 Build 0)  -->
<svg version="1.1" id="Capa_1" xmlns="http://www.w3.org/2000/svg" xmlns:xlink="http://www.w3.org/1999/xlink" x="0px" y="0px"
	 viewBox="0 0 495.6 495.6" style="enable-background:new 0 0 495.6 495.6;" xml:space="preserve">
<g>
	<g>
		<g>
			<path d="M130.1,184.9h187.4c14.8,0,26.8-12,26.8-26.8v-43.7H320c-0.5-41.2-34.1-74.6-75.4-74.6H203c-41.3,0-74.9,33.4-75.4,74.6
				h-24.3v43.7C103.3,172.9,115.3,184.9,130.1,184.9z M203,84.9h41.6c16.5,0,29.9,13.2,30.5,29.6H172.6
				C173.1,98.1,186.5,84.9,203,84.9z"/>
			<path d="M402.3,232.4c7.4,0,14.5,1.1,21.3,2.9v-100c0-11.5-9.3-20.8-20.8-20.8h-28.5v43.7c0,31.3-25.5,56.7-56.7,56.7h-72v29.7
				c0,8.1-6.6,14.7-14.7,14.7h-14.1c-8.1,0-14.7-6.6-14.7-14.7v-29.7h-72c-31.3,0-56.7-25.5-56.7-56.7v-43.7H44.8
				c-11.5,0-20.8,9.3-20.8,20.8v216.1c0,11.5,9.3,20.8,20.8,20.8h257.7c2.6-15,8.5-29.3,17.4-41.7v-15.8
				C320,269.3,356.9,232.4,402.3,232.4z"/>
			<path d="M454.7,341.1v-26.4c0-28.9-23.5-52.4-52.4-52.4c-28.9,0-52.4,23.5-52.4,52.4v26.3c-11.8,12.7-19,29.7-19,48.4v57.8
				c0,7.5,6.1,13.6,13.6,13.6h115.6c7.5,0,13.6-6.1,13.6-13.6v-57.8C473.6,370.8,466.4,353.8,454.7,341.1z M417.3,423.3
				c0,8.3-6.7,15-15,15c-8.3,0-15-6.7-15-15v-46.8c0-8.3,6.7-15,15-15c8.3,0,15,6.7,15,15V423.3z M431.9,324.6
				c-9-4.1-19-6.5-29.6-6.5c-10.6,0-20.5,2.4-29.5,6.5v-9.8c0-16.3,13.2-29.5,29.5-29.5c16.3,0,29.6,13.2,29.6,29.5V324.6z"/>
		</g>
	</g>
</g>
</svg>
