<?xml version="1.0" encoding="utf-8"?>
<!-- Generator: Adobe Illustrator 23.0.5, SVG Export Plug-In . SVG Version: 6.00 Build 0)  -->
<svg version="1.1" id="图层_1" xmlns="http://www.w3.org/2000/svg" xmlns:xlink="http://www.w3.org/1999/xlink" x="0px" y="0px"
	 viewBox="0 0 256 256" style="enable-background:new 0 0 256 256;" xml:space="preserve">
<g>
	<g>
		<path d="M2.7,114.1c0.2-3.7,0.3-8.1,0.7-12.3c0.1-1.1,1.2-2.4,2.2-2.8c0.8-0.3,2.3,0.5,3,1.2c5.9,6.5,13.3,10.6,21.1,14.4
			c8,3.9,16.6,4.6,25.2,5.4c10.8,1,21.6,0.3,32.3,2.5c14.3,2.9,27.9,7.6,39.7,16.3c1.4,1,1.9,0.6,2.7-0.6c4.3-6.7,6.9-14.2,8.3-22
			c3.9-21.6,0.4-42.5-6.7-63c-2.2-6.4-4.8-12.7-7.4-19c-0.6-1.4-0.4-2,1.1-2.1c15.8-1.2,30.7,1.3,43.6,11.2
			c10.7,8.3,16.7,19.7,19.9,32.6c0.7,2.9,1.1,5.9,1.6,8.8c0.1,0.5,0.4,0.9,0.5,1.3c0.4-0.2,0.9-0.4,1.2-0.7
			c8.8-8.4,14.7-18.2,15.3-30.7c0.1-1.2,0.2-2.3,0.3-3.5c0.3-2.4,1.3-4.4,3.7-5.1c2.5-0.8,4.6,0.1,6.2,2c4.7,5.6,8.2,11.9,10.6,18.8
			c4.5,12.8,5,25.7,1.9,38.8c-0.6,2.5-1.8,4.8-2.7,7.2c-0.2,0.4-0.3,0.9-0.5,1.3c0.5-0.1,0.9-0.1,1.4-0.2
			c7.5-3.2,14.3-7.5,19.8-13.5c0.8-0.8,2.1-1.7,3.2-1.7c1.8,0,2.4,1.6,2.5,3.2c0.1,7.2,0.6,14.3,0.2,21.5c-0.6,13.6-2.5,27-5.7,40.2
			c-3.4,13.7-8.1,27-15.9,38.9c-10,15.2-23.3,25.5-41.7,28.1c-13.8,1.9-27.6,0.7-41.1-2.9c-7.2-1.9-13.5-6.1-19.3-10.7
			c-1.2-1-2-1-3.2,0c-11,9.2-23.9,13.1-38,13.9c-8.2,0.5-16.5,0.8-24.6-0.9c-15.2-3.2-26.9-11.6-36-23.8
			c-9-12.1-14.7-25.7-18.1-40.3c-2.3-9.7-3.8-19.6-5.2-29.4C3.8,129.4,3.4,122,2.7,114.1z M89,191.5c5.3-0.3,12-0.4,18.7-0.9
			c4.4-0.3,6.1-3.3,4.5-7.4c-2.8-6.9-6.6-13.3-11.3-19c-4.3-5.1-8.8-10.2-15.8-11.6c-7.1-1.5-14.2-3-21.3-3.5
			c-8.9-0.6-17.8-0.3-26.7-0.3c-4.3,0-7.3,3.4-5.3,7.9c3.2,7.3,7,14.2,12.2,20.3c8.2,9.7,18.2,15.4,31.3,14.7
			C79.3,191.4,83.4,191.5,89,191.5z M169.7,191.5c5.6,0,10.6,0.1,15.5,0c6.8-0.1,13.1-2.2,18.6-6.2c10.5-7.6,16.9-18.2,21.6-29.9
			c1.2-3.1-0.9-6.1-4.3-6.4c-2.2-0.2-4.5-0.1-6.7-0.1c-11.3,0.2-22.6-0.9-33.8,1.6c-5.3,1.2-10.8,1.8-15.4,5.3
			c-9.6,7.4-15.8,17.2-20.3,28.2c-1.4,3.3,0.8,6.3,4.6,6.5C156.4,190.9,163.4,191.2,169.7,191.5z"/>
	</g>
</g>
</svg>
