<?xml version="1.0" encoding="utf-8"?>
<!-- Generator: Adobe Illustrator 22.1.0, SVG Export Plug-In . SVG Version: 6.00 Build 0)  -->
<svg version="1.1" id="Capa_1" xmlns="http://www.w3.org/2000/svg" xmlns:xlink="http://www.w3.org/1999/xlink" x="0px" y="0px"
	 viewBox="0 0 512 512" style="enable-background:new 0 0 512 512;" xml:space="preserve">
<g>
	<g>
		<path d="M333.9,173.6c0-0.2,0-0.4,0-0.6c0-0.1,0-0.2,0-0.2c0-0.2-0.1-0.4-0.1-0.6c0-0.1,0-0.1,0-0.2c-0.1-0.2-0.1-0.5-0.2-0.7
			c0,0,0-0.1-0.1-0.1c-0.1-0.2-0.2-0.4-0.3-0.5c0-0.1-0.1-0.1-0.1-0.2c-0.1-0.2-0.2-0.3-0.3-0.5c0,0,0-0.1-0.1-0.1l-73.5-88.9
			c0-0.1-0.1-0.1-0.1-0.1c-0.1-0.1-0.2-0.2-0.3-0.3c-0.1-0.1-0.2-0.2-0.3-0.3c-0.1-0.1-0.2-0.2-0.4-0.3c-0.1-0.1-0.2-0.2-0.4-0.2
			c-0.1-0.1-0.3-0.1-0.4-0.2c-0.1-0.1-0.3-0.1-0.4-0.2c-0.1,0-0.1-0.1-0.2-0.1c-0.1,0-0.1,0-0.2-0.1c-0.2,0-0.3-0.1-0.5-0.1
			c-0.1,0-0.3-0.1-0.4-0.1c-0.1,0-0.3,0-0.4-0.1c-0.2,0-0.3,0-0.5,0c-0.1,0-0.3,0-0.4,0c-0.2,0-0.3,0-0.5,0.1c-0.1,0-0.3,0-0.4,0.1
			c-0.2,0-0.3,0.1-0.5,0.1c-0.1,0-0.1,0-0.2,0.1c-0.1,0-0.1,0.1-0.2,0.1c-0.2,0.1-0.3,0.1-0.4,0.2c-0.1,0.1-0.3,0.1-0.4,0.2
			c-0.1,0.1-0.3,0.2-0.4,0.2c-0.1,0.1-0.2,0.2-0.4,0.3c-0.1,0.1-0.2,0.2-0.3,0.3c-0.1,0.1-0.2,0.2-0.3,0.3c0,0.1-0.1,0.1-0.1,0.1
			l-30.5,36.9c-2.1,2.5-1.7,6.2,0.8,8.3c2.5,2.1,6.2,1.7,8.3-0.8l20-24.2v66.6h-55.1l12-14.5c2.1-2.5,1.7-6.2-0.8-8.3
			c-2.5-2.1-6.2-1.7-8.3,0.8l-19.9,24.1c0,0-0.1,0.1-0.1,0.1c-0.1,0.2-0.2,0.3-0.3,0.5c0,0.1-0.1,0.1-0.1,0.2
			c-0.1,0.2-0.2,0.4-0.3,0.5c0,0,0,0.1-0.1,0.1c-0.1,0.2-0.2,0.5-0.2,0.7c0,0.1,0,0.1,0,0.2c0,0.2-0.1,0.4-0.1,0.6
			c0,0.1,0,0.2,0,0.2c0,0.2,0,0.4,0,0.6c0,0.1,0,0.1,0,0.2c0,0.2,0,0.5,0.1,0.7l35.9,245.7v0c0.4,2.9,2.1,5.4,4.5,6.9l35.8,22.2
			c0,0,0.1,0,0.1,0.1c0,0,0.1,0.1,0.1,0.1c0.1,0.1,0.2,0.1,0.3,0.1c0.1,0,0.2,0.1,0.3,0.1c0.1,0.1,0.3,0.1,0.4,0.2
			c0.1,0,0.2,0.1,0.3,0.1c0.2,0,0.3,0.1,0.5,0.1c0.1,0,0.2,0,0.3,0c0.3,0,0.5,0.1,0.8,0.1c0.3,0,0.5,0,0.8-0.1c0.1,0,0.2,0,0.3,0
			c0.2,0,0.3-0.1,0.5-0.1c0.1,0,0.2-0.1,0.3-0.1c0.1,0,0.3-0.1,0.4-0.2c0.1,0,0.2-0.1,0.3-0.1c0.1,0,0.2-0.1,0.3-0.1
			c0,0,0.1-0.1,0.1-0.1c0,0,0.1,0,0.1-0.1l35.8-22.2c2.5-1.5,4.1-4,4.5-6.9l35.9-245.7c0-0.2,0.1-0.5,0.1-0.7
			C333.9,173.7,333.9,173.6,333.9,173.6z M248.7,433.7l-26-16.2l-34.8-238h60.8V433.7z M260.5,101.1l55.1,66.6h-55.1V101.1z
			 M286.4,417.6l-26,16.2V179.5h60.8L286.4,417.6z"/>
	</g>
</g>
<g>
	<g>
		<polygon points="380.6,427 380.6,427 380.6,427 		"/>
	</g>
</g>
<g>
	<g>
		<path d="M458,266.2c0-0.1,0-0.1,0-0.2c0-0.2-0.1-0.4-0.1-0.6c0-0.1,0-0.2-0.1-0.2c0-0.2-0.1-0.4-0.2-0.6c0,0,0-0.1,0-0.1
			L427.2,189c0-0.1-0.1-0.1-0.1-0.2c-0.1-0.1-0.1-0.3-0.2-0.4c-0.1-0.1-0.1-0.2-0.2-0.4c-0.1-0.1-0.2-0.3-0.3-0.4
			c-0.1-0.1-0.2-0.2-0.3-0.3c-0.1-0.1-0.2-0.2-0.3-0.3c-0.1-0.1-0.2-0.2-0.3-0.3c-0.1-0.1-0.1-0.1-0.2-0.2c-0.1-0.1-0.1-0.1-0.2-0.1
			c-0.1-0.1-0.2-0.1-0.3-0.2c-0.1-0.1-0.3-0.2-0.5-0.2c-0.1-0.1-0.2-0.1-0.3-0.2c-0.2-0.1-0.3-0.1-0.5-0.2c-0.1,0-0.2-0.1-0.4-0.1
			c-0.2,0-0.3-0.1-0.5-0.1c-0.1,0-0.3,0-0.4,0c-0.2,0-0.3,0-0.5,0c-0.1,0-0.1,0-0.2,0c-0.1,0-0.1,0-0.2,0c-0.2,0-0.3,0-0.5,0.1
			c-0.1,0-0.3,0-0.4,0.1c-0.1,0-0.3,0.1-0.4,0.1c-0.1,0-0.3,0.1-0.4,0.2c-0.1,0.1-0.3,0.1-0.4,0.2c-0.1,0.1-0.3,0.1-0.4,0.2
			c-0.1,0-0.1,0.1-0.2,0.1L350,230.3c0,0-0.1,0.1-0.1,0.1c-0.2,0.1-0.3,0.2-0.5,0.4c-0.1,0-0.1,0.1-0.2,0.2
			c-0.1,0.1-0.3,0.3-0.4,0.4c0,0-0.1,0.1-0.1,0.1c-0.2,0.2-0.3,0.4-0.4,0.6c0,0.1-0.1,0.1-0.1,0.2c-0.1,0.2-0.2,0.3-0.3,0.5
			c0,0.1-0.1,0.1-0.1,0.2c-0.1,0.2-0.1,0.3-0.2,0.5c0,0.1,0,0.1-0.1,0.2c-0.1,0.2-0.1,0.5-0.2,0.7l-28.4,173.1v0
			c-0.4,2.5,0.3,5.1,2,7l19.3,22.6c0,0,0.1,0.1,0.1,0.1c0,0,0,0.1,0.1,0.1c0,0,0.1,0.1,0.1,0.1c0.1,0.1,0.1,0.1,0.2,0.2
			c0.1,0.1,0.2,0.1,0.3,0.2c0.1,0.1,0.1,0.1,0.2,0.2c0.1,0.1,0.2,0.1,0.3,0.2c0.1,0,0.2,0.1,0.2,0.1c0.1,0.1,0.2,0.1,0.3,0.2
			c0.1,0,0.2,0.1,0.2,0.1c0.1,0,0.2,0.1,0.3,0.1c0.1,0,0.2,0.1,0.2,0.1c0.1,0,0.2,0.1,0.4,0.1c0.1,0,0.2,0,0.2,0.1
			c0.1,0,0.3,0,0.4,0.1c0.1,0,0.1,0,0.2,0c0.2,0,0.4,0,0.6,0c0,0,0,0,0,0c0,0,0,0,0,0c0.2,0,0.4,0,0.7,0c0.1,0,0.1,0,0.2,0
			c0.1,0,0.2,0,0.3,0c0,0,0.1,0,0.1,0c0,0,0.1,0,0.1,0l28.8-7.3c2.5-0.6,4.5-2.3,5.7-4.6l76.8-157.7c0.1-0.2,0.2-0.4,0.3-0.7
			c0-0.1,0-0.1,0.1-0.2c0.1-0.2,0.1-0.4,0.1-0.5c0-0.1,0-0.2,0-0.2c0-0.2,0.1-0.4,0.1-0.6c0-0.1,0-0.1,0-0.2
			C458,266.7,458,266.5,458,266.2z M422.3,208.6l19.6,48.8l-31.9-10.1L422.3,208.6z M411.1,205l-12.3,38.6l-12.4-4l-19.5-6.2
			L411.1,205z M342.3,421.3l-11.5-13.5L357.9,243l37.3,11.9L342.3,421.3z M370.7,420.6l-17.1,4.3l53-166.5l16.2,5.2l21.1,6.7
			L370.7,420.6z"/>
	</g>
</g>
<g>
	<g>
		<path d="M189.8,410.5l-10.7-58c-0.6-3.2-3.7-5.3-6.9-4.7c-3.2,0.6-5.3,3.7-4.7,6.9l10.4,56.5l-10.2,12.5l-53-156.4l9.4-3.2
			l25.3-8.6l11.6,63.1c0.6,3.2,3.7,5.3,6.9,4.7c3.2-0.6,5.3-3.7,4.7-6.9l-12.8-69.7l0,0l0-0.1c0-0.2-0.1-0.5-0.2-0.7
			c0-0.1,0-0.1-0.1-0.2c-0.1-0.2-0.1-0.3-0.2-0.5c0-0.1-0.1-0.1-0.1-0.2c-0.1-0.2-0.2-0.3-0.3-0.5c0-0.1-0.1-0.1-0.1-0.2
			c-0.1-0.2-0.3-0.4-0.5-0.6c0,0-0.1-0.1-0.1-0.1c-0.1-0.1-0.3-0.3-0.4-0.4c-0.1-0.1-0.1-0.1-0.2-0.2c-0.2-0.1-0.3-0.2-0.5-0.3
			c0,0-0.1-0.1-0.1-0.1L91.1,202c-0.1,0-0.1-0.1-0.2-0.1c-0.1-0.1-0.3-0.2-0.4-0.2c-0.1-0.1-0.3-0.1-0.4-0.2
			c-0.1-0.1-0.3-0.1-0.4-0.1c-0.1,0-0.3-0.1-0.4-0.1c-0.1,0-0.3-0.1-0.4-0.1c-0.2,0-0.3,0-0.5,0c-0.1,0-0.1,0-0.2,0
			c-0.1,0-0.2,0-0.2,0c-0.1,0-0.3,0-0.4,0c-0.2,0-0.4,0-0.5,0.1c-0.1,0-0.2,0-0.3,0.1c-0.2,0-0.4,0.1-0.6,0.2
			c-0.1,0-0.2,0.1-0.2,0.1c-0.2,0.1-0.4,0.2-0.6,0.3c-0.1,0-0.1,0.1-0.2,0.1c-0.2,0.1-0.4,0.2-0.5,0.4c0,0-0.1,0-0.1,0.1
			c0,0-0.1,0.1-0.1,0.1c-0.2,0.1-0.3,0.3-0.5,0.4c-0.1,0.1-0.2,0.2-0.2,0.2c-0.1,0.1-0.2,0.3-0.3,0.4c-0.1,0.1-0.2,0.2-0.2,0.3
			c-0.1,0.1-0.2,0.3-0.2,0.4c-0.1,0.1-0.1,0.3-0.2,0.4c0,0.1-0.1,0.1-0.1,0.2l-27.5,72.4c0,0,0,0.1,0,0.1c-0.1,0.2-0.1,0.4-0.2,0.6
			c0,0.1,0,0.2-0.1,0.2c0,0.2-0.1,0.4-0.1,0.6c0,0.1,0,0.1,0,0.2c0,0.2,0,0.5,0,0.7c0,0.1,0,0.1,0,0.2c0,0.2,0,0.4,0.1,0.6
			c0,0.1,0,0.2,0,0.2c0,0.2,0.1,0.4,0.1,0.5c0,0.1,0,0.1,0.1,0.2c0.1,0.2,0.2,0.4,0.3,0.7L131,430.5v0c1.1,2.2,3.2,3.8,5.6,4.4
			l27.5,6.4c0.1,0,0.1,0,0.2,0c0,0,0.1,0,0.1,0c0.1,0,0.2,0,0.3,0c0.1,0,0.1,0,0.2,0c0.2,0,0.4,0,0.6,0h0c0,0,0,0,0,0
			c0.2,0,0.4,0,0.6,0c0.1,0,0.1,0,0.2,0c0.1,0,0.3,0,0.4-0.1c0.1,0,0.2,0,0.2-0.1c0.1,0,0.2-0.1,0.4-0.1c0.1,0,0.2-0.1,0.2-0.1
			c0.1,0,0.2-0.1,0.3-0.1c0.1,0,0.2-0.1,0.2-0.1c0.1-0.1,0.2-0.1,0.3-0.2c0.1,0,0.2-0.1,0.2-0.1c0.1-0.1,0.2-0.1,0.3-0.2
			c0.1-0.1,0.1-0.1,0.2-0.2c0.1-0.1,0.2-0.2,0.3-0.2c0.1-0.1,0.1-0.1,0.2-0.2c0,0,0.1-0.1,0.1-0.1c0,0,0.1-0.1,0.1-0.1
			c0,0,0.1-0.1,0.1-0.1l17.9-21.8C189.6,415.6,190.2,413,189.8,410.5z M140.1,246.1l-29.3,9.9l-12-35.4L140.1,246.1z M87.7,224.4
			l12,35.4l-29.3,9.9L87.7,224.4z M140.8,423.8l-72-141l34.7-11.7l53,156.4L140.8,423.8z"/>
	</g>
</g>
<g>
	<g>
		<path d="M350.7,97.1h-12.4V84.7c0-3.3-2.6-5.9-5.9-5.9c-3.3,0-5.9,2.6-5.9,5.9v12.4h-12.4c-3.3,0-5.9,2.6-5.9,5.9
			c0,3.3,2.6,5.9,5.9,5.9h12.4v12.4c0,3.3,2.6,5.9,5.9,5.9c3.3,0,5.9-2.6,5.9-5.9v-12.4h12.4c3.3,0,5.9-2.6,5.9-5.9
			C356.6,99.8,354,97.1,350.7,97.1z"/>
	</g>
</g>
<g>
	<g>
		<path d="M149.1,175.5h-12.4v-12.4c0-3.3-2.6-5.9-5.9-5.9c-3.3,0-5.9,2.6-5.9,5.9v12.4h-12.4c-3.3,0-5.9,2.6-5.9,5.9
			s2.6,5.9,5.9,5.9h12.4v12.4c0,3.3,2.6,5.9,5.9,5.9c3.3,0,5.9-2.6,5.9-5.9v-12.4h12.4c3.3,0,5.9-2.6,5.9-5.9
			S152.3,175.5,149.1,175.5z"/>
	</g>
</g>
<g>
	<g>
		<path d="M381.7,146.4h-3.3v-3.3c0-3.3-2.6-5.9-5.9-5.9c-3.3,0-5.9,2.6-5.9,5.9v3.3h-3.3c-3.3,0-5.9,2.6-5.9,5.9
			c0,3.3,2.6,5.9,5.9,5.9h3.3v3.3c0,3.3,2.6,5.9,5.9,5.9c3.3,0,5.9-2.6,5.9-5.9v-3.3h3.3c3.3,0,5.9-2.6,5.9-5.9
			S385,146.4,381.7,146.4z"/>
	</g>
</g>
<g>
	<g>
		<path d="M192.3,101.3H187V96c0-3.3-2.6-5.9-5.9-5.9c-3.3,0-5.9,2.6-5.9,5.9v5.4h-5.4c-3.3,0-5.9,2.6-5.9,5.9s2.6,5.9,5.9,5.9h5.4
			v5.4c0,3.3,2.6,5.9,5.9,5.9c3.3,0,5.9-2.6,5.9-5.9v-5.4h5.4c3.3,0,5.9-2.6,5.9-5.9C198.2,104,195.6,101.3,192.3,101.3z"/>
	</g>
</g>
<g>
	<g>
		<path d="M105.2,71h-3.3v-3.3c0-3.3-2.6-5.9-5.9-5.9c-3.3,0-5.9,2.6-5.9,5.9V71h-3.3c-3.3,0-5.9,2.6-5.9,5.9c0,3.3,2.6,5.9,5.9,5.9
			h3.3V86c0,3.3,2.6,5.9,5.9,5.9c3.3,0,5.9-2.6,5.9-5.9v-3.3h3.3c3.3,0,5.9-2.6,5.9-5.9C111.1,73.6,108.4,71,105.2,71z"/>
	</g>
</g>
<g>
	<g>
		<path d="M431.5,71h-4.1v-4.1c0-3.3-2.6-5.9-5.9-5.9c-3.3,0-5.9,2.6-5.9,5.9V71h-4.1c-3.3,0-5.9,2.6-5.9,5.9c0,3.3,2.6,5.9,5.9,5.9
			h4.1v4c0,3.3,2.6,5.9,5.9,5.9c3.3,0,5.9-2.6,5.9-5.9v-4h4.1c3.3,0,5.9-2.6,5.9-5.9S434.8,71,431.5,71z"/>
	</g>
</g>
</svg>
