<?xml version="1.0" encoding="utf-8"?>
<!-- Generator: Adobe Illustrator 22.1.0, SVG Export Plug-In . SVG Version: 6.00 Build 0)  -->
<svg version="1.1" id="图层_1" xmlns="http://www.w3.org/2000/svg" xmlns:xlink="http://www.w3.org/1999/xlink" x="0px" y="0px"
	 viewBox="0 0 256 256" style="enable-background:new 0 0 256 256;" xml:space="preserve">
<path d="M244.8,148.6c0.2-0.7,0.5-1.5,0.7-2.1c-1.1-0.5-2.3-0.8-3.5-1.3c-3.7-1.5-7.6-2.8-11.2-4.3c-3.6-1.7-7.2-3.4-10.7-5.2
	c-4.2-2.5-8.1-5.4-11.7-8.7c-0.1-0.1-0.2-0.2-0.3-0.3c-0.2-0.2-0.4-0.5-0.5-0.7c-2.4-3.5-5.1-7.2-6.3-11.2
	c-0.8-6.7-0.4-13.7,0.1-20.6c0-0.5,0.8-1,1.8-1.5c3.9-1,7.8-2,11.6-3.3c0.7-0.2,1.2-0.7,1.9-1.1c0.3-0.1,0.7-0.2,0.9-0.3
	c0.5-0.1,1-1,0.9-1.2c-0.1-0.2-0.2-0.3-0.3-0.5l0.1-0.1c0.3-0.4-1-2.4-2.1-2.9c-7.9-3.5-16.2-6.1-23.9-10.3c-2.6-2.3-5-4.9-7.3-7.5
	c-2.5-2.9-4.9-6.2-6.9-9.6c-0.6-1.3-0.9-2.6-1.3-3.9c-0.9-3.7-0.4-7.8-0.5-11.7c0-0.4,0-0.7,0-1.1c0.2-1.6,0.5-3.2,0.3-4.8
	c0-0.2-0.2-0.5-0.4-0.7c-0.5-0.6-1.4-1.3-1.8-1.3c-0.1,0-0.1-0.1-0.2-0.1c0,0.1-0.1,0.1-0.1,0.2c-0.9,0.6-2.1,1.6-2.1,2.6
	c-0.1,0.7-0.2,1.4-0.3,2c-2.4,3-4.8,6.9-7.8,8c-2.5,0.8-5.2,1.5-7.9,2.1c-5.5,0.3-11-0.1-16.5,0.1c-3.7,0.1-7.4,0.4-11.1,0.7
	c-3.7-0.3-7.4-0.5-11.1-0.7c-5.5-0.2-11.1,0.3-16.5-0.1c-2.7-0.5-5.3-1.1-7.9-2.1c-3.2-1-5.4-5-7.8-8c-0.1-0.7-0.3-1.3-0.3-2
	c-0.1-0.9-1.2-2.1-2.1-2.6c0-0.1-0.1-0.1-0.1-0.2c-0.1,0-0.1,0.1-0.2,0.1c-0.5,0.1-1.4,0.7-1.8,1.3c-0.2,0.2-0.4,0.4-0.4,0.7
	c-0.1,1.6,0.1,3.2,0.3,4.8c0,0.4,0,0.7,0,1.1c0,3.9,0.5,8-0.5,11.7c-0.3,1.3-0.7,2.6-1.3,3.9c-2,3.5-4.3,6.7-6.9,9.6
	c-2.2,2.6-4.7,5.1-7.3,7.5c-7.6,4.1-15.9,6.8-23.9,10.3c-0.9,0.4-2.2,2.5-2.1,2.9l0.1,0.1c-0.1,0.2-0.2,0.4-0.3,0.5
	c-0.1,0.2,0.6,1,0.9,1.2c0.3,0.1,0.7,0.2,0.9,0.3c0.6,0.5,1.2,0.9,1.9,1.1c3.8,1.3,7.8,2.2,11.6,3.3c1,0.5,1.8,1,1.8,1.5
	c0.4,6.8,0.9,13.9,0.1,20.6c-1.2,3.9-3.8,7.8-6.3,11.2c-0.2,0.2-0.3,0.5-0.5,0.7c-0.1,0.1-0.2,0.2-0.3,0.3
	c-3.5,3.3-7.5,6.3-11.7,8.7c-3.5,1.8-7.2,3.5-10.7,5.2c-3.7,1.5-7.6,2.8-11.2,4.3c-1.1,0.5-2.2,0.8-3.5,1.3c0.3,0.7,0.5,1.4,0.7,2.1
	c-0.2,0.2-0.5,0.4-0.7,0.5c0.4,0.2,0.7,0.5,1,0.7c0.3,0.8,0.7,1.5,1.1,1.6c0.7,0.2,1.6,0.5,2.3,0.7c0.8,0.5,1.7,0.8,2.5,1.1
	c2.4,0.7,5,0.9,7.7,1.3c3.1,0.7,6.3,1.4,9.3,2.2c1.2,0.6,2.1,1.5,2.7,3.2c0,5.8,0.1,11.7,0.1,17.5c-0.3,12.3-0.1,24.7,0.2,37.1
	c0,3.4,0.1,6.6,0.2,10c0,0.2,0,0.3,0.1,0.5c0.2,2,3.4,5.2,5.1,5.2c7.1,0.1,14.2,0.2,21.2,0.2c20.4,0.1,40.8,0.1,61.2,0.1
	c0.7,0,1.3,0,2.1,0c0.7,0,1.3,0,2.1,0c20.4,0,40.8,0.1,61.2-0.1c7.1,0,14.2-0.1,21.2-0.2c1.8,0,4.9-3.3,5.1-5.2
	c0-0.2,0.1-0.4,0.1-0.5c0.1-3.4,0.1-6.6,0.2-10c0.3-12.3,0.4-24.7,0.2-37.1c0-5.8,0-11.7,0.1-17.5c0.6-1.6,1.5-2.5,2.7-3.2
	c3.1-0.7,6.3-1.5,9.3-2.2c2.6-0.4,5.2-0.6,7.7-1.3c0.8-0.3,1.7-0.7,2.5-1.1c0.7-0.2,1.6-0.5,2.3-0.7c0.5-0.1,0.8-0.7,1.1-1.6
	c0.4-0.2,0.7-0.5,1-0.7C245.3,148.9,245,148.8,244.8,148.6z M199.5,212.7c-0.1-1.2,0-2.5,0-3.7h0.1c0-1,0-2.1-0.1-3.1
	c0.2-1,0.7-3.3,1.4-5.7c0.3-0.3,0.6-0.7,0.8-0.9h0.1c0.3,0.8,0.7,1.6,0.8,2.5c0.2,1,0.4,2.1,0.5,3.1c0.4,2.8,0.7,5.5,0.7,8.3
	c0,1.3-1.8,2.6-2.8,4c-0.6-1.3-1.3-2.5-1.6-3.8C199.6,213.1,199.5,212.9,199.5,212.7z M204,194.1c-2.9,0.1-5.8,0.1-8.7,0.1
	c-3.1-0.5-6.3,0-9.5,0c-2.1,0-4.2,0-6.3,0c-11.2,0-14.1,0-14.8-6.3c-0.2-2.1-0.2-4.7-0.1-8.1c0-1,1.1-2.1,2.1-3
	c0.2-0.2,0.4-0.3,0.6-0.5c1.7-1.6,3.5-3.2,5.1-4.9c1.3-1.5,2.5-3.4,3.8-5c1.2-1.5,2.4-2.9,3.8-3.8c0.4-0.2,0.7-0.3,1-0.4
	c4-1,8.8-0.5,13.1,0.8c2.1,1.4,3.8,3.6,5.2,5.7l0,0c0.5,1.7,0.9,3.5,1.7,4.9c0.1,0.2,0.3,0.5,0.4,0.7c0.5,1.7,0.9,3.1,1.6,3.2
	c0.7,0,1.3,0.1,1.8,0.3c0.1,0.1,0.2,0.3,0.3,0.4c0.9,1.3,1.9,2.9,2.2,4.5c0.1,0.3,0.1,0.6,0.2,0.9c-0.3,1.3-0.5,2.6-0.1,3.6
	c0.3,0.8,0.4,1.8,0.3,2.6C207.2,191.8,206,193.3,204,194.1z M192.6,216c-0.2,0.4-0.5,0.7-0.7,1c-0.7-1.8-1.5-3.6-2.2-5.4
	c0-0.6,0-1.3,0-2.5c0.1,0,0.1,0,0.2-0.1c0-1-0.1-2.1-0.1-3.2c0.2-0.8,0.7-3.2,1.4-5.6c0.3-0.3,0.7-0.7,0.8-1l0,0c0,0,0,0,0.1,0
	c0.3,0.8,0.7,1.7,0.8,2.5c0.2,1,0.4,2.1,0.6,3.2c0.4,2.3,0.6,4.6,0.7,6.9C194.1,213.2,193.4,214.6,192.6,216z M182.5,217L182.5,217
	c-0.3-0.9-0.6-1.9-0.6-2.8c0-4.1,0-8.2,0.2-12.2c0.1-0.9,1-1.7,1.6-2.6c0.1,0,0.1,0,0.2-0.1l0,0c0.5,0.8,1.1,1.7,1.2,2.5
	c0.2,2.1,0.1,4.2,0.1,6.3c0.1,0,0.1,0,0.2,0.1c0,1,0,2.1,0,3.1C184.3,213.2,183.4,215.1,182.5,217z M173.7,216.8
	c-0.1,0-0.2,0-0.3,0.1c-0.5-0.7-1-1.6-1-2.3c-0.1-3.5-0.2-7.2,0.2-10.7c0.2-1.5,1.3-3,2.1-4.4c0-0.1,0.1-0.1,0.1-0.2
	c0.3,1.4,0.7,2.7,0.8,4.1c0.2,1.6,0,3.3,0,4.9c0.1,0,0.1,0,0.2,0.1c0,0.9,0,1.8,0,2.7C175.1,213,174.3,214.9,173.7,216.8z
	 M165.1,216.7c-0.3-0.4-0.7-0.7-1-1c-0.4-0.7-0.7-1.3-0.9-2.1c0.2-3.3,0.6-6.5,0.9-9.8c0.1-0.7,0.2-1.5,0.4-2.2
	c0.2-0.8,0.9-1.7,1.4-2.4l0,0l0,0c0.7,2.4,1.4,4.9,1.7,5.8c0,1.1-0.1,2.1-0.1,3.3c0.1,0,0.1,0.1,0.2,0.1c0,1.1,0.1,2.1,0.1,2.9
	C166.9,213.1,165.9,214.9,165.1,216.7z M175,109.3c-1.8,0.4-3.3,0.6-4.5,0.6c-0.7,0-1.4-0.1-2.1-0.3c-0.2-0.1-0.5-0.1-0.7-0.2h-0.1
	c-3.6-1.3-4.3-5.4-3.2-11c0-0.2,0.1-0.4,0.1-0.6v-0.1c0-0.1,0-0.1,0-0.1c0.3-1.5,1-3.6,1.8-5.2c1-1.1,2.3-1.6,3.8-1.3
	c6.4,1.3,13.1,2.3,19.5,3.5c0.5,0.1,1.2,0.6,1.5,0.9c0.1,0.2,0.1,0.4,0.1,0.6c0.5,13.2,0.5,13.2-13.5,13.2
	C176.9,109.2,175.9,109,175,109.3z M151.1,194c-3.2,0.1-6.3,0.1-9.4,0.1c-4.2-0.6-8.7,0-13,0c-4.3,0-8.8-0.6-13,0
	c-3.2,0-6.3,0-9.4-0.1c-1.9-0.7-3.2-2.1-3.7-4.1c0-2.1,0.2-4.1-0.1-6.2c-0.1-0.5-0.1-0.9-0.2-1.4c0-0.3,0.1-0.5,0.1-0.7
	c0.4-2.1,0.3-3.7,1.2-4.8c0.4-0.4,0.9-0.7,1.5-0.8c0.6-0.1,1.3-0.2,2.1-0.1c0.2,0,0.4,0,0.6-0.1c0.5,0,0.9,0.1,1.5,0.2
	c0.7,0.1,2.5-2,2.6-3.1c0-0.7,0.1-1.2,0.1-1.8c0,0,0,0,0-0.1c2.1-3.1,3.2-8,6-9.2c3.3-1.4,7-1.8,10.7-1.9c3.7,0.1,7.6,0.5,10.7,1.9
	c2.7,1.2,3.8,6.2,6,9.2c0,0,0,0,0,0.1c0.1,0.6,0.1,1.1,0.1,1.8c0,1.1,1.9,3.2,2.6,3.1c0.6-0.1,1-0.2,1.5-0.2
	c0.2,0.1,0.4,0.1,0.6,0.1c0.8-0.1,1.6,0,2.1,0.1c0.7,0.2,1.1,0.5,1.5,0.8c0.9,1,0.8,2.7,1.2,4.8c0,0.3,0.1,0.6,0.1,0.7
	c0,0.5-0.1,0.9-0.2,1.4c-0.3,2.1,0,4.1-0.1,6.2C154.3,191.9,153,193.3,151.1,194z M146,216.6c-0.3-0.4-0.6-0.7-0.8-1.1
	c-0.5-1-0.8-2.1-1-3.2c0.2-3,0.6-6,0.9-9.1c0.1-0.5,0.2-1,0.3-1.5c0.2-0.9,0.9-1.7,1.4-2.6c0.7,2.4,1.4,4.9,1.7,5.7
	c0,1-0.1,2.1-0.1,3.2c0.1,0,0.1,0.1,0.2,0.1c0,1.2,0.1,2.1,0.1,3C147.8,213,147,214.8,146,216.6z M136.4,216.7
	c-0.2-0.2-0.4-0.4-0.6-0.6c-0.5-1.2-1-2.4-1.3-3.5c0.2-3.3,0.7-6.4,1-9.7c0.1-0.4,0.2-0.8,0.3-1.2c0.2-0.8,0.8-1.5,1.3-2.2
	c0.7,2.4,1.5,4.8,1.8,5.5c0,1.1,0,2.2,0,3.4c0.1,0,0.1,0,0.2,0.1c0,1.1,0.1,2.1,0.1,2.9C138.3,213.1,137.4,215,136.4,216.7z
	 M128.7,215.4c-0.7-0.9-1.3-1.8-2-2.7c0.3-4.2,0.7-8.4,1-12.5c0.1-0.2,0.3-0.3,0.4-0.5c0.2-0.1,0.4-0.3,0.6-0.4
	c0.2,0.1,0.4,0.3,0.6,0.4c0.1,0.2,0.3,0.3,0.4,0.5c0.4,4.2,0.7,8.4,1,12.5C130,213.7,129.3,214.5,128.7,215.4z M121.5,216.2
	c-0.2,0.2-0.4,0.4-0.6,0.6c-0.9-1.9-1.8-3.6-2.7-5.5c0-0.8,0-1.8,0.1-2.9c0.1,0,0.1,0,0.2-0.1c0-1.1,0-2.2,0-3.4
	c0.3-0.7,1-3.1,1.8-5.5c0.5,0.7,1.1,1.4,1.3,2.2c0.1,0.4,0.2,0.8,0.3,1.2c0.4,3.3,0.8,6.4,1,9.7C122.5,213.8,122,215.1,121.5,216.2z
	 M112.2,215.5c-0.3,0.4-0.6,0.7-0.8,1.1c-0.8-1.8-1.8-3.6-2.6-5.4c0-0.7,0-1.7,0.1-3c0.1,0,0.1-0.1,0.2-0.1c0-1,0-2.1-0.1-3.2
	c0.3-0.8,0.9-3.3,1.7-5.7c0.5,0.8,1.3,1.7,1.4,2.6c0.1,0.5,0.2,1,0.3,1.5c0.4,3,0.7,6,0.9,9.1C113,213.4,112.6,214.5,112.2,215.5z
	 M153.1,109.2c-2.9,0.1-5.9,0.1-8.8,0.1c-5.1-0.7-10.5,0-15.6,0c-5.2,0-10.6-0.7-15.6,0c-2.9,0-5.9,0-8.8-0.1
	c-1.6-0.7-2.6-1.7-3.2-3.2c0.3-4.1,0.7-8.3,1-12.4c0.3-0.9,0.6-1.9,0.7-2.7c1.9,0.3,3.7,0.4,5.5,0.8c2.1,0.7,3.9,2.1,6.1,2.7
	c4.6,1.3,9.3,3.3,14,3c0.1,0,0.2,0,0.3,0c0.1,0,0.2,0,0.3,0c4.6,0.2,9.3-1.8,14-3c2.1-0.6,4-2.1,6.1-2.7c1.8-0.6,3.6-0.7,5.5-0.8
	c0.3,0.9,0.6,1.9,0.7,2.7c0.4,4.1,0.7,8.3,1,12.4C155.7,107.5,154.6,108.5,153.1,109.2z M93.3,215.7c-0.3,0.4-0.7,0.7-1,1
	c-0.9-1.8-1.8-3.6-2.7-5.4c0-0.8,0-1.8,0.1-2.9c0.1,0,0.1-0.1,0.2-0.1c0-1.1,0-2.1-0.1-3.3c0.3-0.9,0.9-3.4,1.7-5.8l0,0l0,0
	c0.5,0.8,1.3,1.6,1.4,2.4c0.1,0.7,0.3,1.5,0.4,2.2c0.4,3.3,0.7,6.5,0.9,9.8C94,214.4,93.7,215.1,93.3,215.7z M83.7,216.8
	c-0.7-2-1.4-3.9-2.1-5.9c0-0.9,0-1.8,0-2.7c0.1,0,0.1,0,0.2-0.1c0-1.6-0.1-3.3,0-4.9c0.1-1.4,0.6-2.7,0.8-4.1c0,0.1,0.1,0.1,0.1,0.2
	c0.7,1.5,1.9,2.9,2.1,4.4c0.4,3.5,0.3,7.2,0.2,10.7c0,0.7-0.7,1.6-1,2.3C83.9,216.9,83.8,216.9,83.7,216.8z M75,217
	c-0.9-1.9-1.9-3.7-2.8-5.7c0-1,0-2.1,0-3.1c0.1,0,0.1,0,0.2-0.1c0-2.1-0.1-4.3,0.1-6.3c0.1-0.8,0.7-1.7,1.2-2.5l0,0
	c0.1,0,0.1,0,0.2,0.1c0.7,0.8,1.6,1.7,1.6,2.6c0.3,4.1,0.2,8.1,0.2,12.2c0,0.9-0.3,1.9-0.5,2.8C75,217,75,217,75,217z M65.4,217
	c-0.2-0.4-0.4-0.7-0.7-1c-0.7-1.4-1.5-2.7-1.7-4.1c0.1-2.3,0.4-4.6,0.7-6.9c0.2-1,0.4-2.1,0.6-3.2c0.1-0.8,0.6-1.7,0.8-2.5
	c0,0,0,0,0.1,0l0,0c0.3,0.4,0.6,0.7,0.8,1c0.7,2.3,1.2,4.7,1.4,5.6c0,1-0.1,2.1-0.1,3.2c0.1,0,0.1,0,0.2,0.1c0,1.1,0.1,1.9,0,2.5
	C66.9,213.4,66.1,215.2,65.4,217z M71.5,194.2c-3.2,0-6.4-0.5-9.5,0c-2.9,0-5.8,0-8.7-0.1c-2-0.7-3.2-2.3-3.6-4.6
	c-0.1-0.9,0-1.9,0.3-2.6c0.4-1,0.1-2.3-0.1-3.6c0.1-0.3,0.1-0.6,0.2-0.9c0.4-1.6,1.2-3.2,2.2-4.5c0.1-0.1,0.2-0.3,0.3-0.4
	c0.6-0.1,1.1-0.2,1.8-0.3c0.7,0,1.1-1.4,1.6-3.2c0.2-0.2,0.3-0.4,0.4-0.7c0.7-1.4,1.2-3.3,1.7-4.9l0,0c1.4-2.1,3.2-4.3,5.2-5.7
	c4.2-1.3,9.1-1.9,13.1-0.8c0.4,0.1,0.7,0.2,1,0.4c1.4,0.9,2.7,2.3,3.8,3.8c1.2,1.7,2.4,3.6,3.8,5c1.6,1.8,3.4,3.3,5.1,4.9
	c0.2,0.2,0.4,0.3,0.6,0.5c0.9,0.9,2.1,2,2.1,3c0,3.5,0.1,6.2-0.1,8.1C92,194,89.1,194,77.9,194C75.7,194.2,73.6,194.2,71.5,194.2z
	 M56.2,217.1c-0.9-1.3-2.8-2.7-2.8-4c0.1-2.8,0.4-5.5,0.7-8.3c0.2-1,0.3-2.1,0.5-3.1c0.1-0.8,0.6-1.7,0.8-2.5h0.1
	c0.3,0.3,0.6,0.7,0.8,0.9c0.6,2.3,1.1,4.7,1.4,5.7c0,1-0.1,2.1-0.1,3.1h0.1c0,1.2,0.1,2.5,0,3.7c0,0.2,0,0.4,0,0.7
	C57.5,214.7,56.8,215.9,56.2,217.1z M92.7,97.6C92.7,97.7,92.7,97.7,92.7,97.6v0.2c0,0.2,0.1,0.4,0.1,0.6c1,5.5,0.4,9.7-3.2,11h-0.1
	c-0.2,0.1-0.5,0.1-0.7,0.2c-0.7,0.2-1.3,0.2-2.1,0.3c-1.3,0-2.8-0.2-4.5-0.6c-0.9-0.2-1.9,0-2.9,0c-14,0-14,0-13.5-13.2
	c0-0.2,0-0.4,0.1-0.6c0.3-0.4,1-0.8,1.5-0.9c6.5-1.2,13.1-2.1,19.5-3.5c1.5-0.3,2.8,0.2,3.8,1.3C91.7,93.9,92.4,96.1,92.7,97.6z"/>
</svg>
