<?xml version="1.0" encoding="utf-8"?>
<!-- Generator: Adobe Illustrator 22.1.0, SVG Export Plug-In . SVG Version: 6.00 Build 0)  -->
<svg version="1.1" id="Capa_1" xmlns="http://www.w3.org/2000/svg" xmlns:xlink="http://www.w3.org/1999/xlink" x="0px" y="0px"
	 viewBox="0 0 512 512" style="enable-background:new 0 0 512 512;" xml:space="preserve">
<g>
	<g>
		<path d="M382.5,109.2C345.1,71.8,296.3,50,243.9,47v110.9c46.7,19.2,79.6,65.2,79.6,118.7c0,58-47.2,105.2-105.2,105.2
			c-47.8,0-86.6-38.9-86.6-86.6c0-39.6,32.2-71.8,71.8-71.8c33.1,0,59.9,26.9,59.9,59.9h-25c0-19.3-15.7-34.9-34.9-34.9
			c-25.8,0-46.8,21-46.8,46.8c0,34,27.6,61.6,61.6,61.6c44.2,0,80.1-35.9,80.1-80.1c0-57-46.3-103.3-103.3-103.3
			C122.3,173.3,63,232.6,63,305.6C63,398.4,138.5,474,231.4,474c57.1,0,110.7-22.2,151.1-62.6c40.4-40.4,62.6-94,62.6-151.1
			S422.9,149.6,382.5,109.2z"/>
	</g>
</g>
</svg>
