<?xml version="1.0" encoding="utf-8"?>
<!-- Generator: Adobe Illustrator 22.1.0, SVG Export Plug-In . SVG Version: 6.00 Build 0)  -->
<svg version="1.1" id="Capa_1" xmlns="http://www.w3.org/2000/svg" xmlns:xlink="http://www.w3.org/1999/xlink" x="0px" y="0px"
	 viewBox="0 0 140.6 140.6" style="enable-background:new 0 0 140.6 140.6;" xml:space="preserve">
<g>
	<g>
		<path d="M45.4,64.7h7.9c1.7,0,3.1-1.4,3.1-3.1v-7.9c0-1.7-1.4-3.1-3.1-3.1h-7.9c-1.7,0-3.1,1.4-3.1,3.1v7.9
			C42.3,63.3,43.6,64.7,45.4,64.7z"/>
		<path d="M69.7,55.5h9.5c2.1,0,3.7-1.7,3.7-3.7v-9.5c0-2.1-1.7-3.7-3.7-3.7h-9.5c-2.1,0-3.7,1.7-3.7,3.7v9.5
			C66,53.8,67.7,55.5,69.7,55.5z"/>
		<path d="M76.8,87.5h-9.5c-2.1,0-3.7,1.7-3.7,3.7v9.5c0,2,1.7,3.7,3.7,3.7h9.5c2.1,0,3.7-1.7,3.7-3.7v-9.5
			C80.6,89.2,78.9,87.5,76.8,87.5z"/>
		<path d="M93.3,79.2V67.6c0-2.5-2-4.5-4.5-4.5H77.3c-2.5,0-4.5,2-4.5,4.5v11.5c0,2.5,2,4.5,4.5,4.5h11.5
			C91.3,83.7,93.3,81.7,93.3,79.2z"/>
		<path d="M90.5,29.7h5.4c1.2,0,2.1-1,2.1-2.1v-5.4c0-1.2-1-2.1-2.1-2.1h-5.4c-1.1,0-2.1,1-2.1,2.1v5.4
			C88.4,28.8,89.4,29.7,90.5,29.7z"/>
		<path d="M109.7,70.3h-5.4c-1.2,0-2.1,1-2.1,2.1v5.4c0,1.2,0.9,2.1,2.1,2.1h5.4c1.2,0,2.1-0.9,2.1-2.1v-5.4
			C111.8,71.2,110.9,70.3,109.7,70.3z"/>
		<path d="M65.8,76.1c1,0,1.8-0.8,1.8-1.8v-4.5c0-1-0.8-1.8-1.8-1.8h-4.5c-0.1,0-0.1,0.1-0.2,0.1V30.8L26.2,13.6h-9.7V127h9.7
			l34.8-43.1V76c0.1,0,0.1,0.1,0.2,0.1L65.8,76.1L65.8,76.1L65.8,76.1z M56.7,82.4l-26.2,32.4V20.5l26.2,13V82.4z"/>
		<path d="M98.1,87.5h-4.5c-1,0-1.8,0.8-1.8,1.8v4.5c0,1,0.8,1.8,1.8,1.8h4.5c1,0,1.8-0.8,1.8-1.8v-4.5
			C99.9,88.3,99.1,87.5,98.1,87.5z"/>
		<path d="M114.8,35.5H99.3c-3.3,0-6.1,2.7-6.1,6.1V57c0,3.3,2.7,6.1,6.1,6.1h15.5c3.4,0,6.1-2.7,6.1-6.1V41.6
			C120.8,38.2,118.1,35.5,114.8,35.5z"/>
	</g>
</g>
</svg>
