<?xml version="1.0" encoding="utf-8"?>
<!-- Generator: Adobe Illustrator 22.1.0, SVG Export Plug-In . SVG Version: 6.00 Build 0)  -->
<svg version="1.1" id="Capa_1" xmlns="http://www.w3.org/2000/svg" xmlns:xlink="http://www.w3.org/1999/xlink" x="0px" y="0px"
	 viewBox="0 0 438.5 438.5" style="enable-background:new 0 0 438.5 438.5;" xml:space="preserve">
<g>
	<path d="M338.5,73.6c-9.3-9.3-20.5-13.9-33.8-13.9c-13.2,0-24.5,4.6-33.8,13.9c-9.3,9.3-13.9,20.5-13.9,33.8c0,8.6,2.1,16.6,6.5,24
		c4.3,7.4,10.1,13.1,17.4,17.3c0,8.6-0.7,16.2-2.1,22.7c-1.4,6.5-3.7,12.3-7,17.3c-3.2,5-6.6,9.2-10.1,12.7
		c-3.5,3.5-8.4,6.7-14.7,9.8c-6.3,3.1-12.1,5.6-17.5,7.7c-5.4,2.1-12.6,4.5-21.7,7.3c-16.6,5.1-29.3,9.9-38.3,14.2V116.8
		c7.3-4.1,13.1-9.9,17.4-17.3c4.3-7.4,6.5-15.4,6.5-24c0-13.3-4.6-24.5-13.9-33.8c-9.3-9.3-20.5-13.9-33.8-13.9
		c-13.3,0-24.5,4.6-33.8,13.9C102.6,51.1,98,62.3,98,75.6c0,8.6,2.2,16.6,6.5,24c4.3,7.4,10.1,13.1,17.4,17.3v203.8
		c-7.3,4.1-13.1,9.9-17.4,17.3c-4.3,7.4-6.5,15.4-6.5,24c0,13.3,4.6,24.5,13.9,33.8s20.5,13.9,33.8,13.9c13.3,0,24.5-4.6,33.8-13.9
		c9.3-9.3,13.9-20.5,13.9-33.8c0-8.6-2.2-16.6-6.5-24c-4.3-7.4-10.1-13.1-17.4-17.3v-6.5c0-11.4,3.4-19.7,10.3-24.8
		c6.9-5.1,20.9-11,42.1-17.6c22.4-7.1,39.2-13.8,50.4-20.1c37.1-21,55.8-55.3,56.2-102.9c7.3-4.1,13.1-9.9,17.4-17.3
		c4.3-7.4,6.5-15.4,6.5-24C352.4,94.1,347.8,82.9,338.5,73.6z M162.6,378.7c-4.6,4.6-10.3,7-16.9,7c-6.6,0-12.3-2.3-16.9-7
		c-4.6-4.6-7-10.3-7-16.9c0-6.6,2.3-12.3,7-16.9c4.6-4.6,10.3-7,16.9-7c6.6,0,12.3,2.3,16.9,7c4.6,4.6,7,10.3,7,16.9
		C169.6,368.5,167.2,374.1,162.6,378.7z M162.6,92.5c-4.6,4.6-10.3,7-16.9,7c-6.6,0-12.3-2.3-16.9-7c-4.6-4.6-7-10.3-7-16.9
		c0-6.6,2.3-12.3,7-16.9c4.6-4.6,10.3-7,16.9-7c6.6,0,12.3,2.3,16.9,7c4.6,4.6,7,10.3,7,16.9C169.6,82.2,167.2,87.8,162.6,92.5z
		 M321.6,124.3c-4.6,4.6-10.3,7-16.9,7c-6.6,0-12.3-2.3-16.9-7c-4.6-4.6-7-10.3-7-16.9c0-6.6,2.3-12.3,7-16.9c4.6-4.6,10.3-7,16.9-7
		c6.6,0,12.3,2.3,16.9,7c4.6,4.6,7,10.3,7,16.9C328.6,114,326.3,119.6,321.6,124.3z"/>
</g>
</svg>
