<?xml version="1.0" encoding="utf-8"?>
<!-- Generator: Adobe Illustrator 22.1.0, SVG Export Plug-In . SVG Version: 6.00 Build 0)  -->
<svg version="1.1" id="Layer_1" xmlns="http://www.w3.org/2000/svg" xmlns:xlink="http://www.w3.org/1999/xlink" x="0px" y="0px"
	 viewBox="0 0 512 512" style="enable-background:new 0 0 512 512;" xml:space="preserve">
<path d="M476.7,345.8l-33.2,57.5c-2,3.4-6.2,4.9-9.8,3.4l-48.9-19.7c-4.1-1.6-6-6.3-4.4-10.3c1.6-4.1,6.3-6,10.3-4.4l42.5,17.1
	l26.3-45.6l-36-28.2c-2.6-2-3.7-5.4-2.7-8.6c10-32.5,10.4-68.3,0-102.1c-1-3.1,0.1-6.5,2.7-8.6l36-28.2l-26.3-45.6l-42.5,17.1
	c-3,1.2-6.5,0.5-8.8-2c-23.9-25.7-54.4-43.3-88.3-51c-3.2-0.7-5.6-3.4-6.1-6.6l-6.4-45.3h-52.6l-6.4,45.3c-0.5,3.3-2.9,5.9-6.1,6.6
	c-33.9,7.7-64.5,25.4-88.3,51c-2.2,2.4-5.7,3.2-8.8,2l-42.5-17.1l-26.3,45.6l36,28.2c2.6,2,3.7,5.4,2.7,8.6
	c-10,32.5-10.4,68.3,0,102.1c1,3.1-0.1,6.5-2.7,8.6l-36,28.2l26.3,45.6l42.5-17.1c3-1.2,6.5-0.5,8.8,2c23.9,25.7,54.4,43.3,88.3,51
	c3.2,0.7,5.6,3.4,6.1,6.6l6.4,45.3h52.6l6.4-45.3c0.5-3.3,2.9-5.9,6.1-6.6c18.6-4.2,36.2-11.5,52.5-21.6c3.7-2.3,8.6-1.2,10.9,2.6
	c2.3,3.7,1.2,8.6-2.6,10.9c-16.2,10-33.6,17.5-52,22.2l-6.6,46.8c-0.6,3.9-3.9,6.8-7.8,6.8h-66.4c-3.9,0-7.3-2.9-7.8-6.8l-6.6-46.8
	c-33.1-8.6-63.1-25.9-87.3-50.4l-43.9,17.7c-3.7,1.5-7.9,0-9.8-3.4l-33.2-57.5c-2-3.4-1.1-7.8,2-10.2l37.2-29.1
	c-9.1-32.9-9.1-68,0-100.8L35,176.5c-3.1-2.4-4-6.8-2-10.2l33.2-57.5c2-3.4,6.2-4.9,9.8-3.4l43.9,17.7
	c24.2-24.5,54.1-41.9,87.3-50.4l6.6-46.8c0.5-3.9,3.9-6.8,7.8-6.8h66.4c3.9,0,7.3,2.9,7.8,6.8l6.6,46.8
	c33.1,8.6,63.1,25.9,87.3,50.4l43.9-17.7c3.7-1.5,7.9,0,9.8,3.4l33.2,57.5c2,3.4,1.1,7.8-2,10.2l-37.2,29.1c9.1,32.9,9.1,68,0,100.8
	l37.2,29.1C477.8,338,478.7,342.3,476.7,345.8L476.7,345.8z M241.9,293.7l39.6-67.4c2.2-3.8,1-8.6-2.8-10.8c-3.8-2.2-8.6-1-10.8,2.8
	l-39.6,67.4c-2.2,3.8-1,8.6,2.8,10.8C234.8,298.8,239.7,297.5,241.9,293.7L241.9,293.7z M211,225.6c-3.1-3.1-8.1-3.1-11.2,0
	L175,250.4c-3.1,3.1-3.1,8.1,0,11.2l24.8,24.8c3.1,3.1,8.1,3.1,11.2,0c3.1-3.1,3.1-8.1,0-11.2L191.8,256l19.2-19.2
	C214.1,233.8,214.1,228.7,211,225.6L211,225.6z M303.4,288.7c2,0,4.1-0.8,5.6-2.3l24.8-24.8c3.1-3.1,3.1-8.1,0-11.2L309,225.6
	c-3.1-3.1-8.1-3.1-11.2,0c-3.1,3.1-3.1,8.1,0,11.2L317,256l-19.2,19.2C292.8,280.2,296.4,288.7,303.4,288.7L303.4,288.7z
	 M208.5,382.5c15.1,5.5,30.8,8.3,46.5,8.3c97.9,0,163.5-102.2,122.2-191.4c-31.2-67.4-111.5-96.8-178.9-65.6
	c-85.7,39.7-105.1,153.9-36.6,219.5c3.2,3,8.2,2.9,11.2-0.2c3-3.2,2.9-8.2-0.2-11.2c-60.4-57.9-43.4-158.6,32.3-193.7
	c59.5-27.6,130.3-1.6,157.8,57.9c27.6,59.5,1.6,130.3-57.9,157.8c-28.8,13.4-61.1,14.7-90.9,3.8c-4.1-1.5-8.7,0.6-10.2,4.7
	C202.3,376.5,204.4,381,208.5,382.5z"/>
</svg>
