<?xml version="1.0" encoding="utf-8"?>
<!-- Generator: Adobe Illustrator 22.1.0, SVG Export Plug-In . SVG Version: 6.00 Build 0)  -->
<svg version="1.1" id="图层_1" xmlns="http://www.w3.org/2000/svg" xmlns:xlink="http://www.w3.org/1999/xlink" x="0px" y="0px"
	 viewBox="0 0 244.1 248.4" style="enable-background:new 0 0 244.1 248.4;" xml:space="preserve">
<title>minami</title>
<path d="M18.7,115.1c0,1.7,0.1,3.3,0,5c-0.1,1.4-0.8,2.7-0.6,4.1c0.1,0.4-0.2,1-0.2,1.5c-0.3-0.4-0.6-0.9-0.9-1.4
	c-0.1-0.6-0.2-1.2-0.2-1.8c0.2-3.8,0.3-7.6,0.6-11.4c0.1-1.3,0.7-2.4,0.7-3.8c0-1.3,0.2-2.6,0.6-3.8c0.3-1.2,0.4-2.6,0.7-3.8
	c0.4-1.8,1.2-3.6,1.1-5.5c0.3-0.3,0.9-0.3,1-0.7c0.4-2.1,1.8-3.9,1.7-7c0-0.3-0.1-0.1-0.2,0.2v0.6c0.2-0.2,0.5-0.3,0.6-0.4
	c0.1-0.2-0.1-0.5-0.4-0.3c-0.9,0.9-1.5,2.1-1.5,3.4c0.1,0.8-0.4,1.6-1.2,1.7c0,0,0,0,0,0c-0.4-2.1,0.6-4,1.3-5.8
	c1.7-4.2,3.3-8.5,5.6-12.5c2.5-4.6,5.3-9.2,8.3-13.5c1.9-2.9,4.4-5.3,6.6-8c2.3-2.6,4.5-5.2,6.9-7.5c3.6-3.6,7.7-6.5,11.8-9.5
	c4.7-3.4,9.7-6.4,14.9-9c2.8-1.5,5.7-2.7,8.6-3.6c1.8-0.5,3.6-1.4,5.5-2c1.6-0.5,3.2-0.7,4.8-1.3s3.3-0.7,4.9-1.1c3-1,6.1-0.6,9-1.7
	h0.3c2.9,0.4,5.7-0.7,8.6-0.6h8.5c1.4,0,2.6,0.9,4.2,0.7c1.4-0.1,2.8,0,4.2,0.4c1.5,0.3,3.1,0.5,4.7,0.8c3.9,0.6,7.7,1.5,11.5,2.6
	c2.2,0.5,4.3,1.2,6.4,2c2,0.9,4.1,1.4,5.9,2.4c3.8,1.9,7.6,3.6,11.2,5.8c3.2,1.9,6.3,4,9.4,6.1c1.3,0.9,2.6,1.8,3.8,2.9
	c5.2,4.3,10.1,9,14.6,14.1c3.4,3.8,6.5,7.9,9.2,12.2c3.5,5.7,6.8,11.3,9.1,17.6c1.7,4.7,3.1,9.4,4.4,14.2c0.4,1.7,0.8,3.5,1.1,5.2
	c0.3,1.7,0.5,3.4,0.8,5.1c0.5,2.6,0.7,5.3,1,8c0.4,2.9,0.1,5.9,0.1,8.8v8.5c0,2.3-1.1,4.4-0.6,6.6c-0.4,0.1-1-0.3-1.2,0.4
	c-0.4,1.6-0.7,3.2-1,4.8c-0.4,1.8-0.9,3.8-1.4,5.6c-0.2,0.4-0.6,1.5,0.6,1.7v0.6c-0.4,0.1-1.1-0.3-1.2,0.4c0,0.5-0.4,1.3,0.6,1.4
	c0,2.3-0.4,4.6-1.4,6.6c-2.3,5.8-4.9,11.4-7.9,16.9c-2.4,4-4.6,8-7.8,11.6c-1,1.3-1.9,2.6-2.7,3.9c-1.3,1.8-3.3,2.9-4.5,5
	c-1.2,2.1-3.3,3.4-5,5.2c-0.7,0.8-1.5,0.6-2.3,0.6v-1.2c0.4-0.2,1-0.2,1.3-0.4c1-1,2.1-2,3.1-3.1c0.4-0.5,0.8-1.1,1.3-1.7
	c0.5-0.5,1.2-0.9,1.7-1.4c0.2-0.2,0.1-0.5,0.1-0.8c-0.2,0.1-0.5,0.2-0.7,0.2c-0.4,0.1-0.8,0.2-1.1,0.2c0.8-1.1,1.6-2.3,2.4-3.3
	c0.3-0.3,0.9-0.3,1.3-0.4v0.6c0,0.2,0.1,0.4,0.2,0.5c0.2-0.2,0.3-0.3,0.4-0.5c0.1-0.2,0-0.4,0-0.6l0.6-0.6c0.2-0.1,0.3-0.2,0.5-0.2
	c-0.2-0.2-0.3-0.3-0.5-0.4c0-1.7,0-1.7,1.2-1.9v0.6c0,0.2,0.1,0.4,0.2,0.5c0.2-0.2,0.3-0.3,0.4-0.5c0.1-0.2,0-0.4,0.2-0.9
	c0.1-0.2-0.1-0.1-0.2,0l0.3,0.3c0.1-0.1,0.2-0.3,0.3-0.3s-0.1-0.1-0.3,0.1c-0.2,0.2-0.5,0.3-0.8,0.3c0.3-1.7,0.8-2.4,1.9-2.5v0.6
	c0,0.2,0.1,0.4,0.2,0.5c0.2-0.2,0.3-0.3,0.4-0.5c0.1-0.2,0-0.4,0-0.6l0.6-0.6c1-0.3,1.4-0.9,1.5-2.2c0.1-0.2-0.1-0.1-0.2,0l0.3,0.3
	c0.1-0.1,0.2-0.3,0.3-0.3s-0.1-0.1-0.3,0.1c-1,0.3-1.6,1.2-1.5,2.2l-0.6,0.6H206c0.1-0.6-0.1-1.4,0.3-1.7c2.5-3.2,4.6-6.6,6.4-10.2
	c1.7-3.5,3.9-6.8,5.2-10.4c1.2-3.6,3.1-7.3,3.2-11.3c1.5-3,1.5-6.3,2.4-9.3c0.8-2.9,0.6-5.9,1.3-8.9c0.1-1.2,0.1-2.5,0.1-3.8
	c0.1-1.2,0.4-2.4,0.6-3.5v-12c0.3-3.1-1-6.1-0.8-9.3c0-0.1-0.3-0.2-0.5-0.2c-0.1-1.2-0.2-2.4-0.2-3.7c-1,1.1-0.2,2.4-0.4,3.7
	l-0.6,0.6c0-0.6,0-1.2,0-1.7c-0.3-0.5-0.5-1-0.6-1.5v-1.4c-0.1-0.3-0.3-0.6-0.3-1c-0.1,0.2-0.2,0.5-0.3,0.8v1.8
	c0,0.2,0.2,0.4,0.3,0.4c0.1-0.1,0.3-0.2,0.3-0.3v-0.4c0,1.6-0.1,2.4,0,3.1c0,0.3,0.3,0.5,0.6,0.8v4.3c0,0.3,0.3,0.5,0.6,0.8v3.7
	c0,0.3,0.3,0.5,0.6,0.8v10.7c-0.3,1,0.4,2.3-0.4,3.3s0.3,2-0.1,3.2c-0.4,1.5-0.7,3.1-0.9,4.7c-0.2,1.4,0,3-0.6,4.1
	c-1,2-1,4.2-1.7,6.2c-0.8,2.5-1.6,5.1-2.4,7.5c-0.8,2.4-1.4,5.1-2.7,7.3c-0.9,1.6-1.2,3.5-1.9,5.2c-1.3,2.8-2.7,5.6-4.2,8.3
	c-1.4,2.5-3,4.9-4.6,7.2c-1.9,2.9-4.1,5.7-6.5,8.3c-4.7,4.9-9.4,9.9-14.9,13.9c-3.8,2.9-7.7,5.5-11.9,7.8c-1-0.1-0.5-0.8-0.6-1.2
	c2.1-1.5,4.1-3,6.2-4.5c2.1-1.5,4.3-3,6.3-4.6c2-1.7,3.8-3.2,5.5-4.9s3.4-3.4,5.2-5.2c0.4-0.4,1-0.9,1.3-1.3c0.6-0.8,0-1.6-1.1-1.7
	h-0.6c1-2,2.3-3.8,3.8-5.4c2-2.3,3.9-4.8,5.6-7.4c2-3.3,3.9-6.7,5.8-10.2c2-4.2,3.8-8.6,5.2-13c1.2-3.6,1.9-7.3,3-11
	c0.3-1.8,0.6-3.6,0.7-5.4c0.3-2.2,0.3-4.5,0.7-6.6c0.2-1,0.6-1.7,0-2.7c-0.3-0.5,0.5-1.5,0.5-2.2c0.1-3.1,0.1-6.1,0-9.2
	c0-0.8-0.5-1.5-0.5-2.3c0-0.6,0.7-1.4,0.5-1.9c-0.7-2-0.3-4.1-0.7-6c-0.3-1.1-0.4-2.1-0.5-3.2c-0.1-1-0.4-1.9-0.7-2.9
	c-0.4-2.5-1-5-1.7-7.4c-1-2.8-1.5-5.7-2.6-8.4c-0.2-0.5-0.4-1.1-0.6-1.7c-1.2-2.6-2.4-5.3-3.7-8c-1.8-3.7-3.9-7.3-6.3-10.7
	c-2.4-3.5-5.2-6.9-7.7-10.4c-1.5-2.1-3.6-3.1-5.2-5c-1.7-1.8-3.1-3.8-5.5-5c-3.6-3.8-8-6.4-12.3-9.1c-3.2-2-6.6-3.8-10-5.3
	c-4.4-1.8-8.8-3.6-13.4-5.1c-2.2-0.7-4.4-1-6.6-1.7c-2.6-0.9-5.6-0.4-8-1.8c-0.2-0.1-0.4,0-0.6,0c-6.5-0.1-12.8-1-19.3-0.6
	c-1,0.1-2.1,0.5-3.2,0.6c-1.6,0.2-3.1,0.8-4.8,0.7c-1.7,0-3.4,0.3-5,0.8c-1.6,0.3-3.1,0.7-4.6,1.1c-4.4,1.6-9,2.5-13.2,4.6
	c-3.2,1.6-6.6,3.1-9.7,4.8c-4.4,2.4-8.7,5.1-12.7,8.2c-3.9,3-7.6,6.3-11.1,9.8c-0.6,0.6-1.5,1-2.2,1.6c-0.5,0.5-0.8,1.4-1.4,1.9
	c-2,2-3.7,4.3-5.2,6.7c-0.6,1-2.1,1.5-2,3c-2.9,3-4.3,6.8-6.3,10.3c-1.7,2.9-2.9,5.9-4.4,8.9c-1.7,0-1.7,0-1.9,1.2
	c-1.2,0.3-0.3,1.3-0.6,1.9c-1,0.1-0.5,0.8-0.6,1.2c-1.2,0.3-0.3,1.3-0.6,1.9c-0.2,0.3-0.6,0.5-0.6,0.8c0,0.8,0,1.6,0,2.4
	c-1.2,0.3-0.3,1.3-0.6,1.9c-0.2,0.3-0.5,0.4-0.6,0.8c0,0.6,0,1.2,0,1.7c-1.5,1.4-1.2,3.2-1.2,5.1c-0.2,0.2-0.6,0.3-0.6,0.5
	c-0.1,0.7,0.3,1.6-0.1,2.1c-0.9,1.4-0.1,3.1-0.7,4.4C18.5,112.2,18.8,113.7,18.7,115.1z M199.4,186.4c-0.1,0.1-0.3,0.2-0.3,0.3
	l0.3,0.3c0.1-0.1,0.2-0.3,0.3-0.3s-0.1-0.1-0.5,0.3c-0.3,0.3-0.5,0.6-0.6,1c-0.1-0.1-0.2-0.3-0.3-0.4c-0.4,0.4-0.7,0.9-1,1.4
	c0.1,0.2,0.3,0.4,0.5,0.4c1,0.1,0.6-0.8,0.7-1.8C198.6,187.4,198.8,187.1,199.4,186.4L199.4,186.4z M210.6,71.6h0.3
	c-0.1-0.2-0.1-0.3-0.2-0.4c-0.1,0-0.2,0.1-0.3,0.1c0.4,0.4,0.8,0.8,1.2,1c-0.1-0.2-0.3-0.4-0.3-0.6l-0.3,0.3c0.1,0.3,0.3,0.6,0.3,1
	C211.4,72.6,211.5,72.5,210.6,71.6z M209.6,68.9c-0.1-0.1-0.2-0.3-0.3-0.3l-0.3,0.3c0.1,0.1,0.3,0.2,0.3,0.3s0.1-0.1-0.3-0.5
	c-0.1-0.4,0.3-1.2-0.9-1.2h0.3c-0.1-0.2-0.1-0.3-0.2-0.4c-0.1,0-0.2,0.1-0.3,0.1c0.1,0.2,0.4,0.3,0.6,0.3
	C208.5,67.6,208.1,68.4,209.6,68.9z M205,62.1h0.3c-0.1-0.2-0.1-0.3-0.2-0.4c-0.1,0-0.2,0.1-0.3,0.1c0.1,0.2,0.4,0.3,0.6,0.3
	c0.1,0.4-0.3,1.2,1.2,1.7c-0.1-0.1-0.2-0.3-0.3-0.3l-0.3,0.3c0.1,0.1,0.3,0.2,0.3,0.3c0.1,0.1,0.1-0.1-0.3-0.5
	C205.8,62.9,206.2,62.2,205,62.1z M191.2,45.8h0.3c-0.1-0.2-0.1-0.3-0.2-0.4c-0.1,0-0.2,0.1-0.3,0.1c0.1,0.2,0.4,0.3,0.6,0.3
	c0.1,0.4-0.3,1.2,2.2,1.7c-0.5-0.2-0.7-0.3-1-0.3h-0.6c0.2,0.2,0.3,0.5,0.4,0.6c0.2,0.1,0.5-0.1-0.4-0.6
	C191.9,46.6,192.4,45.8,191.2,45.8z M188.6,43.9h0.3c-0.1-0.2-0.1-0.3-0.2-0.4c-0.1,0-0.2,0.1-0.3,0.1c0.1,0.1,0.2,0.3,2.1,0.8
	c-0.5-0.2-0.7-0.3-1-0.3h-0.6c0.2,0.2,0.3,0.5,0.4,0.6C189.5,44.7,189.8,44.4,188.6,43.9z M215.5,82.6c0.3-0.3,0.4-0.4,0.4-0.5
	c0-0.3-0.1-0.5-0.2-0.8c-0.1,0-0.3,0-0.4,0.1c0,0.3,0.1,0.7,1.2,1.7c-0.1-0.2-0.3-0.4-0.3-0.6l-0.3,0.3c0.1,0.3,0.3,0.6,0.3,1
	C216.4,83.4,216.5,83.2,215.5,82.6L215.5,82.6z M24.5,84.8c-0.2-0.3-0.3-0.4-0.4-0.5c-0.1,0.2-0.3,0.3-0.3,0.4
	c0,0.3,0.1,0.5,0.3,0.8c0.2-0.2,0.3-0.3,0.8-2.7c-0.2,0.5-0.3,0.7-0.3,1v0.6c0.2-0.2,0.5-0.3,0.6-0.4C25,83.5,24.8,83.3,24.5,84.8z
	 M219.1,91.1c0.3,0.6-0.6,1.6,0.6,3.1v0.3c0.1,0.3,0.3,0.6,0.3,1c0.1-0.3,0.2-0.7,0.3-1.1c0-0.3,0-0.6,0-0.9c0-0.2-0.2-0.4-0.3-0.4
	c-0.1,0.1-0.3,0.2-0.3,0.3v-0.3C219.5,92.4,220.3,91.4,219.1,91.1c-0.3-0.6,0.6-1.6-0.6-1.9c-0.3-0.6,0.6-1.6-1-1.7
	c0.3-0.3,0.4-0.4,0.4-0.5c0-0.3-0.1-0.5-0.2-0.8c-0.1,0-0.3,0-0.4,0.1c0,0.4,0.2,0.8,0.5,1c0.3,0.6-0.6,1.6,0.6,1.9
	C218.8,89.9,217.9,90.9,219.1,91.1z M220.2,97.1c0.1,0.3,0.3,0.6,0.4,1c0.1-0.2,0.2-0.4,0.3-0.6c-0.1-0.4-0.3-0.9-0.3-1.2
	c-0.1,0.3-0.3,0.5,0.3,3.1v0.3c0.1,0.3,0.3,0.6,0.3,1c0.1-0.3,0.2-0.7,0.3-1.1c0-0.3,0-0.6,0-0.9c0-0.2-0.2-0.4-0.3-0.4
	c-0.1,0.1-0.3,0.2-0.3,0.3C221,98.6,221,99,220.2,97.1z M160.7,25.3c-0.5-0.2-0.7-0.3-1-0.3h-0.6c0.2,0.2,0.3,0.5,0.4,0.6
	s0.5-0.1-0.4-0.6c-0.6-0.5-1.2-0.9-1.9-1.2c-0.5-0.2-1-0.4-1.6-0.6c-0.3-0.1-0.5,0.1-0.8,0.2c0.2,0.2,0.3,0.5,0.4,0.6
	c0.6,0.2,1.3,0.3,2,0.4C157.7,25.5,158.7,24.7,160.7,25.3z M147.6,20.5c-0.3,0.2-0.6,0.3-0.9,0.4c0.3,0.1,0.6,0.1,0.8,0.3
	c1.1,1,2.7,0.5,3.9,1.2c0.2,0.1,0.5-0.2,0.8-0.3c-0.2-0.3-0.3-0.6-0.5-0.6C150.4,21.2,149,20.8,147.6,20.5z M142.8,19.3
	c-0.2,0-0.4-0.1-0.6,0c-0.2,0.1-0.4,0.3-0.5,0.4c0.2,0.1,0.3,0.2,0.5,0.2h1c0.2,0,0.3,0.3,0.4,0.3c1.2,0.4,2.6,0,2.3-0.2
	c-0.9-0.4-1.6-1.2-2.7-0.9C143.1,19.3,143,19.3,142.8,19.3L142.8,19.3z M137.1,18.6c0.4,0,0.8-0.1,1.2-0.3c-0.4-0.9-1.2-0.3-1.8-0.3
	c-0.5,0-1,0-1.6,0c-0.1,0-0.3,0.2-0.2,0.2c0.1,0.2,0.2,0.3,0.3,0.4C135.7,18.7,136.4,18.7,137.1,18.6z M222.3,97.2v1.2
	c0,0.1,0.3,0.2,0.4,0.3v-2.3c-0.2,0.1-0.3,0.1-0.4,0.3V97.2z M223,100.5v0.6c0.1,0.3,0.2,0.5,0.3,0.8c0.1-0.2,0.2-0.5,0.3-0.8
	c0.1-0.4,0.1-0.8,0-1.2c0-0.2-0.2-0.3-0.3-0.5c-0.1,0.2-0.3,0.3-0.3,0.5C222.9,100,223,100.2,223,100.5L223,100.5z M139.9,18.5
	c-0.2,0.2-0.5,0.3-0.7,0.5c0.3,0.1,0.5,0.3,0.8,0.2c0.3-0.1,0.6-0.3,0.9-0.3C140.6,18.8,140.3,18.7,139.9,18.5z M220.9,92.6
	c0.2,0.3,0.3,0.7,0.4,1c0.1-0.2,0.2-0.5,0.3-0.8c-0.1-0.4-0.1-0.8-0.3-1.1C221.2,92,221.1,92.3,220.9,92.6z M154.2,22.9
	c-0.2-0.3-0.3-0.5-0.3-0.4c-0.3,0-0.5,0.1-0.8,0.2c0.1,0.2,0.2,0.3,0.3,0.4C153.6,23.1,153.9,23,154.2,22.9z M217,84.1
	c-0.2,0.3-0.3,0.4-0.3,0.5c0,0.3,0.1,0.5,0.3,0.8c0.1-0.2,0.3-0.3,0.3-0.4C217.2,84.7,217.1,84.4,217,84.1z M194.6,48.9
	c-0.1-0.2-0.2-0.4-0.3-0.5c-0.1,0.2-0.2,0.5-0.3,0.8c0,0.2,0.1,0.3,0.3,0.4C194.3,49.3,194.5,49.1,194.6,48.9z M214,78.5
	c0.1,0.2,0.3,0.5,0.3,0.7c0.1-0.2,0.3-0.3,0.3-0.4c0-0.3-0.1-0.5-0.3-0.8C214.3,78.1,214.1,78.3,214,78.5z M25.7,81.6
	c-0.1-0.2-0.2-0.4-0.3-0.5c-0.1,0.2-0.2,0.5-0.3,0.8c0,0.2,0.1,0.3,0.3,0.4C25.4,82.1,25.5,81.8,25.7,81.6z M161.2,26l0.3,0.3
	c0.1-0.2,0.2-0.3,0.2-0.4c0-0.1-0.1-0.2-0.2-0.2C161.4,25.7,161.3,25.9,161.2,26z M162.8,26.7l0.3-0.3c-0.2-0.1-0.3-0.2-0.4-0.2
	c-0.1,0-0.2,0.1-0.2,0.2C162.5,26.6,162.7,26.7,162.8,26.7z M170.6,30.3l-0.2-0.2c-0.2,0-0.3,0.1-0.4,0.2l0.2,0.2
	C170.4,30.5,170.4,30.4,170.6,30.3z M171.4,30.7l-0.3,0.3c0.2,0.1,0.3,0.2,0.4,0.2c0.1,0,0.2-0.1,0.2-0.2
	C171.8,30.9,171.6,30.8,171.4,30.7z M173.4,31.9l-0.2,0.2c0,0.2,0.1,0.3,0.2,0.4l0.2-0.2C173.6,32.2,173.5,32,173.4,31.9z
	 M174.7,32.5l-0.2,0.2c0,0.2,0.1,0.3,0.2,0.4l0.2-0.2C174.8,32.8,174.7,32.7,174.7,32.5z M178.8,35.9c0.1,0.2,0.2,0.3,0.3,0.4
	l0.2-0.2c0-0.2-0.1-0.3-0.2-0.4C179,35.7,178.9,35.8,178.8,35.9z M180.1,36.7l0.3,0.3c0.1-0.2,0.2-0.3,0.2-0.4
	c0-0.1-0.1-0.2-0.2-0.2C180.3,36.5,180.2,36.6,180.1,36.7z M181.4,37.9l0.3,0.3c0.1-0.2,0.2-0.3,0.2-0.4c0-0.1-0.1-0.2-0.2-0.2
	C181.5,37.7,181.5,37.8,181.4,37.9L181.4,37.9z M183.1,38.5l-0.3-0.3c-0.1,0.2-0.2,0.3-0.2,0.4c0,0.1,0.1,0.2,0.2,0.2
	C182.9,38.7,183,38.5,183.1,38.5L183.1,38.5z M184.2,40l0.3-0.3c-0.2-0.1-0.3-0.2-0.4-0.2c-0.1,0-0.2,0.1-0.2,0.2
	C184,39.9,184.1,40,184.2,40L184.2,40z M185.5,40.6l0.3-0.3c-0.2-0.1-0.3-0.2-0.4-0.2c-0.1,0-0.2,0.1-0.2,0.2
	C185.2,40.5,185.4,40.6,185.5,40.6L185.5,40.6z M210.3,70l-0.2-0.2c-0.2,0-0.3,0.1-0.4,0.2l0.2,0.2C210,70.2,210.2,70.1,210.3,70
	L210.3,70z M215.1,80.3l0.3-0.3c-0.2-0.1-0.3-0.2-0.4-0.2c-0.1,0-0.2,0.1-0.2,0.2C214.8,80.2,214.9,80.3,215.1,80.3L215.1,80.3z
	 M28,80.8c-0.1-0.2-0.2-0.3-0.3-0.4l-0.2,0.2c0,0.2,0.1,0.3,0.2,0.4C27.9,81,28,80.9,28,80.8L28,80.8z M214.4,174.4l-0.2,0.2
	c0,0.2,0.1,0.3,0.2,0.4l0.2-0.2C214.6,174.7,214.5,174.5,214.4,174.4z M215.4,173.4l-0.2-0.2c-0.2,0-0.3,0.1-0.4,0.2l0.2,0.2
	C215.1,173.6,215.2,173.5,215.4,173.4L215.4,173.4z M213.3,177.5l0.3-0.3c-0.2-0.1-0.3-0.2-0.4-0.2c-0.1,0-0.2,0.1-0.2,0.2
	C213,177.3,213.1,177.4,213.3,177.5L213.3,177.5z M213.5,175.9c0.1,0.2,0.2,0.3,0.3,0.4l0.2-0.2c0-0.2-0.1-0.3-0.2-0.4
	C213.7,175.7,213.6,175.8,213.5,175.9L213.5,175.9z M212.2,179.1l-0.2-0.2c-0.2,0-0.3,0.1-0.4,0.2l0.2,0.2
	C211.9,179.3,212,179.2,212.2,179.1L212.2,179.1z M211.6,180.3l-0.2-0.2c-0.2,0-0.3,0.1-0.4,0.2l0.2,0.2
	C211.3,180.5,211.4,180.4,211.6,180.3L211.6,180.3z"/>
<path d="M57.7,168.8v-12.3c0-1.5,0.5-2.1,2-2.3c2-0.3,3.9,0.6,4.9,2.4c1.4,2.8,3.4,5.1,4.8,7.8c0.9,1.6,1.8,3.1,2.8,4.5
	c0.2,0.4,0.5,0.7,0.8,1c0.6,0.4,1.3,0.2,1.7-0.3c0,0,0-0.1,0.1-0.1c1.1-2.8,3.3-4.9,4.7-7.5c1.1-2.2,2.9-4,4.1-6.2
	c0.5-0.8,1.3-1.4,2.3-1.5c1.3-0.2,2.7,0,3.8,0.6c0.3,0.2,0.3,0.7,0.3,1.1v24.5c0,1.6-0.4,2-1.9,2H84c-0.1-1.3-0.3-2.6-0.3-4v-9.4
	c0-0.3-0.1-0.6-0.2-0.9c-0.3,0.2-0.6,0.4-0.9,0.6c-1,1.3-1.8,2.6-2.7,3.9c-1.7,2.6-3.5,5.2-5.1,8c-0.5,1-1.2,0.7-1.7,0.4
	c-0.6-0.4-1.1-0.9-1.5-1.6c-2.4-3.5-4.3-7.3-6.9-10.7c-0.2-0.3-0.2-0.5-0.3-0.8c-0.1,0.3-0.3,0.5-0.3,0.8v9.1c0,5.1,0.3,4.5-4.5,4.5
	h-1c-0.7,0.1-0.9-0.3-0.9-0.9C57.7,177.4,57.7,173.1,57.7,168.8z"/>
<path d="M146,174v-6.9c0-1.9,0.4-2.3,2.4-2.3c0.4,0,0.8,0,1.2,0.2c2.2,0.7,2.1,0.7,4.7,0c2-0.5,4-0.2,5.7,1c0.7,0.8,1.9,0.8,2.7,0.1
	c0.9-0.6,1.9-0.9,3-1.1c2.1-0.4,4.2,0,6,1.1c1,0.5,1.9,2.1,2.6,3.7c0.4,1,0.6,2.1,0.6,3.2c0,2.2,0.1,4.5,0,6.6
	c-0.1,1,0.7,2.6-0.4,2.7c-1.7,0.2-3.8,1-5.2-0.9c-0.4-0.5-0.5-1.1-0.5-1.7c-0.1-2.2,0-4.5,0-6.6c-0.1-1.4-1.2-2.6-2.6-2.7
	c-1.3,0.2-2.3,1.3-2.4,2.6c0,2.7-0.1,5.5,0,8.2c0,1-0.3,1.2-1.3,1.1s-2.1,0-3.1,0c-1.4,0-1.8-0.5-1.9-1.8v-7.3
	c0.2-1.3-0.8-2.6-2.1-2.8c-0.3-0.1-0.6,0-0.9,0.1c-1.7,0.4-2.9,2.1-2.7,3.8v6.9c0,0.9-0.3,1-1,1c-1.5-0.1-2.9-0.1-4.4-0.1
	c-0.1-1.4-0.2-2.9-0.3-4.3C146,176.8,146,175.4,146,174z"/>
<path d="M105,174v-6.9c0-1.9,0.4-2.4,2.4-2.2c0.5,0,1,0.2,1.4,0.3c1.9,0.8,2,1,3.8,0.2c2.6-1.3,4.9-0.3,7.1,0.8
	c1,0.6,1.8,1.6,2.2,2.7c0.5,1.4,0.7,2.9,0.7,4.4c0.1,2.7,0,5.4,0.1,8.2c0,0.9-0.3,1-1.1,1c-1.1-0.1-2.3,0-3.5,0
	c-1.2,0-1.7-0.5-1.7-1.9c0-2.5-0.1-5.1,0-7.5c0.1-1.6-1.1-1.7-2-2.3c-1.1-0.9-1.8,0.4-2.8,0.5c-0.2,0.4-0.3,0.7-0.3,1.1v7.9
	c0,2.1-0.3,2.3-2.4,2.3c-1.2,0-2.5-0.1-3.8-0.1c-0.1-1.2-0.2-2.4-0.2-3.7C105,177.2,105,175.6,105,174z"/>
<path d="M141.6,174.7v4.4c0,0.5,0.1,1,0.3,1.5c0.3,1.1,0,1.9-1,1.9c-1.3-0.1-2.6,0.3-3.9-0.3c-1.3-0.6-2.9,0.3-4.2,0.8
	c-2,0.6-6.3-1.7-6.9-3.2c-0.3-1.1-0.3-2.3,0-3.4c0.3-1,1-1.9,1.8-2.5c1.9-1.6,4.4-2.2,6.8-2.6c0.3-0.1,0.5-0.4,0.8-0.6
	c-0.3-0.2-0.6-0.6-0.9-0.6c-1.4,0.2-2.8,0.4-4.1,0.8c-1.7,0.4-1.8,0.4-2.8-0.6c-1-1-0.4-2-0.3-3c0.1-0.6,0.9-1,1.7-1
	c1.7-0.3,3.2-1,4.8-1.1c1.6-0.3,3.3,0,4.7,0.8c2.1,1.2,3.4,2.7,3.2,5.2C141.5,172.2,141.6,173.5,141.6,174.7z M136,176.5
	c-0.1-0.3-0.2-0.7-0.3-0.7c-1-0.1-1.9,0-2.9,0.3c-0.6,0.3-1.6,0.8-1.2,1.8c0.3,0.9,1.3,1,2.5,0.4c0.5-0.1,0.9-0.4,1.3-0.7
	C135.7,177.3,135.9,176.9,136,176.5L136,176.5z"/>
<path d="M153.3,66.4c-0.7,1.2-1.1,2.2-1.7,3.1c-2.1,2.7-4.6,5-7.4,6.9c-1,0.7-0.9,1.8-0.3,2.7c0.5,0.9,0.3,2,0.3,3
	c0,0.1-0.3,0.2-0.5,0.3c-0.2,0.1-0.5-0.1-0.5-0.2c-0.1-0.4-0.1-0.8-0.1-1.2c0.1-0.7-0.3-1.5-1-1.7c-0.8-0.3-1.7-0.2-2.3,0.4
	c-0.9,1-1.9,1.9-2.9,2.9c-3.7,3.7-7.2,7.4-10.9,10.9c-9.4,8.6-18.2,17.9-27.4,26.7c-2.1,2-4.3,3.8-6.4,5.9c-0.6,0.6-1,0.5-1.6,0
	c-0.6-0.5-0.7-1-0.1-1.6c1.1-0.7,2.2-1.6,3.1-2.5c1.1-1.5,2.6-2.4,3.8-3.7c3.3-3.4,6.6-6.7,10-10c10-9.8,19.8-19.5,29.8-29.2
	c0.4-0.4,0.7-0.8,1.1-1.1c1.1-0.8,0.8-1.4-0.1-2c-0.2-0.2-0.2-0.5-0.2-0.8c0-0.2,0.4-0.3,0.6-0.3c2.2,0.3,3.7-0.8,5.1-2.3
	c1.2-1.3,2.6-2.4,3.8-3.8c1.3-1.7,3.2-1.8,4.9-2.8C152.4,65.9,152.7,66.1,153.3,66.4z"/>
<path d="M185.1,208.4c0.2-1.1,0.9-1.7,2.5-1.9v0.6c-0.2,0.1-0.3,0.1-0.4,0.2c0,0.1,0.1,0.2,0.1,0.3c0.2-0.1,0.3-0.3,0.3-0.4
	c0.2-0.2,0.4-0.1,0.6-0.2c0.2,0,0.4-0.1,0.5-0.2c-0.2-0.2-0.3-0.3-0.5-0.4c-0.2-0.1-0.4,0-0.6,0c1-2.5,3.7-3.8,5.4-5.7
	c0.2-0.2,0.6,0,0.9,0c-0.6,0.9-1.2,1.7-1.9,2.5c-0.7,0.5-1.4,1.1-2,1.7c-0.2,0.2-0.8,0.4-0.2,0.8c0.3,0,0.6,0,0.9,0
	c-0.2,0.4-0.2,1-0.4,1.4c-1,1-2.2,1.8-3.2,2.7c-3.9,3.3-8.1,6.1-12.5,8.6c-2.6,1.4-5.2,2.8-7.8,4.1c-2.4,1.2-4.9,2.4-7.4,3.4
	c-2.4,1-4.9,1.8-7.4,2.4c-1.7,0.4-3.3,1.2-5.1,1.4c-1.7,0.2-3.4,0.9-5.2,1.2c-2.2,0.4-4.5,0.2-6.6,0.8c-4,1-8,0.3-12.1,0.5
	c-0.3,0-0.6,0-1,0c-0.2-0.1-0.4-0.3-0.6-0.3l1.1-0.3c2.9,0.3,5.8-0.4,8.6-0.8c0.1,0,0.2-0.3,0.2-0.5h0.6c2.5,0.4,5.1-0.6,7.6-0.6
	c1-0.3,2.1-0.6,3.1-1v-1.5h0.6v0.6c0.3,1.2,1.3,0.3,1.9,0.6l0.6-0.6c0.6,0,1.2,0,1.7,0c0.3-0.1,0.6-0.4,0.8-0.6h1.9l0.6-0.6
	c0.6-0.3,1.6,0.6,1.9-0.6c0.4-0.1,1.2,0.3,1.2-0.6v-0.6l1.1-0.9c0.4-0.2,0.9-0.3,1.3-0.4c5.4-1.8,10.4-4.7,15.6-7.1
	c0.7-0.3,2-0.6,2-0.9c0-1.2,1.3-0.7,1.7-1.5c0.4-1,1.4-0.6,2.2-0.7v0.6c-0.2,0.2-0.5,0.5-0.6,0.8v-0.2c-0.2,0.1-0.3,0.1-0.4,0.2
	c0,0.1,0.1,0.2,0.1,0.3c0.2-0.1,0.3-0.3,0.3-0.4c0.2-0.3,0.4-0.5,0.6-0.8c0.3-0.1,0.8,0,1.1-0.3c0.3-0.2,0.5-0.5,0.6-0.9
	c-0.4-0.1-0.8-0.2-1.1-0.2c0.2-0.4,0.5-0.8,0.9-1.1c0.4-0.3,1-0.3,1,0.5c0.1,0.2,0.2,0.3,0.2,0.5c0.2-0.2,0.3-0.3,0.4-0.5v-0.9
	c-0.2-1.1,0.6-1,1.3-1v0.6c-0.2,0.1-0.3,0.1-0.4,0.2c0,0.1,0.1,0.2,0.1,0.3c0.2-0.1,0.3-0.3,0.3-0.4c0.4-0.3,1.2,0.2,1.2-0.8
	l0.6-0.6c0.3-0.1,0.8,0,1.1-0.3c0.3-0.2,0.5-0.5,0.6-0.9C185.8,208.6,185.5,208.5,185.1,208.4z M173.8,216.6
	c-0.2,0.1-0.4,0.3-0.6,0.3l0.3,0.3c0.3-0.1,0.6-0.3,1-0.3c-0.2-0.1-0.3-0.2-1.2,0.6v-0.3c-0.2,0.1-0.3,0.1-0.4,0.2
	c0,0.1,0.1,0.2,0.1,0.3C172.9,217.7,173,217.6,173.8,216.6z M175.9,215.4l-0.2,0.2c0,0.2,0.1,0.3,0.2,0.4l0.2-0.2
	C176.1,215.6,176.1,215.5,175.9,215.4z"/>
<path d="M100.6,174v5.7c0,2.8,0,2.8-2.7,2.8h-1c-2.1,0-2.7-0.6-2.7-2.9v-12.5c-0.1-1.1,0.7-2,1.7-2.2c0.6,0,1.2,0,1.8,0
	c2.5,0,2.6,0.1,2.6,2.6C100.6,169.7,100.6,171.9,100.6,174z"/>
<path d="M185.1,174v4.7c0,1.2-0.2,2.4-0.2,3.7c-1.7,0-3.3,0.1-5,0.1c-0.2,0-0.4-0.4-0.4-0.6c-0.2-1.3-0.8-2.4-0.7-3.8
	c0.2-3.3,0-6.7,0.1-10c0-2.1,0.9-3,2.9-3.1c2.8-0.1,3.6-0.4,3.4,3.5C185,170.3,185.1,172.1,185.1,174z"/>
<path d="M85.9,221.8c-0.9-0.2-1.9-0.5-2.8-0.9c-2.8-1.2-5.7-2.4-8.5-3.8c-1.7-0.9-3.4-1.9-5.1-3c-0.4-0.3-0.8-0.7-1.1-1.1
	c-0.1-0.2-0.1-0.4,0-0.6c0.2-0.2,0.6-0.4,0.8-0.3c1,0.5,2.1,1.1,3.1,1.7c2.9,1.9,6.1,3.4,9.3,4.6c2,0.7,3.9,1.7,5.9,2.5
	c0.2,0.1,0.3,0.3,0.4,0.3c-0.2,0.1-0.3,0.3-0.5,0.3h-1.6C85.8,221.7,85.9,221.7,85.9,221.8z"/>
<path d="M181.3,154.8c2.8,0,3.8,0.9,3.8,2.8c0,1.6-1.7,3.5-3.1,3.5c-1.2,0-3.3-2.1-3.1-3.5c0.1-0.9,0.5-1.7,1.1-2.4
	C180.4,155,180.8,154.8,181.3,154.8z"/>
<path d="M97.5,154.8c2.1,0,3.1,1,3.1,2.9c0.1,0.8-0.2,1.7-1,2.1c-0.7,0.6-1.4,1-2.3,1.2c-1.3,0.2-3.1-2.1-3.1-3.5
	C94.4,155.8,95.5,154.8,97.5,154.8z"/>
<path d="M25.6,86.1c0.1-1.2,0.1-1.2,1.9-1.2l-2.6,8.6c-0.4,1.4-0.8,2.8-1.1,4.2c-0.2,0.5-0.4,1-0.6,1.7l-0.6-0.6v-2.5
	c1.2-0.3,0.3-1.3,0.6-1.9c0.2-0.3,0.6-0.5,0.6-0.8c0-0.8,0-1.6,0-2.4c1.2-0.3,0.3-1.3,0.6-1.9c1-0.1,0.5-0.8,0.6-1.2
	C26.2,87.7,25.3,86.7,25.6,86.1z"/>
<path d="M132.1,230.5h-21.4v-0.6h15.6c0.5,0,1.3,0.4,1.4-0.6h8.1c-0.3,1.2-1.4,0.3-2,0.6C133.2,230.1,132.4,229.3,132.1,230.5z"/>
<path d="M224.2,152.3c-1.2-0.2-0.7-1.2-0.6-1.7c0.5-1.8,0.9-3.8,1.4-5.6c0.4-1.6,0.6-3.2,1-4.8c0.3-0.8,0.8-0.3,1.2-0.4
	c-0.6,2.3-0.7,4.7-1.3,7c-0.5,1.8-0.3,3.8-1.3,5.4C224.6,152.2,224.3,152.2,224.2,152.3z"/>
<path d="M128.3,229.2h-10.7c-0.2,0-0.3-0.3-0.6-0.4c0.2-0.1,0.3-0.2,0.5-0.2c4.7-0.3,9.4-0.4,14.2-0.6h1.6v0.6H129
	C128.9,228.6,128.6,229,128.3,229.2z"/>
<path d="M19.3,115.1l0.6-0.6h0.6c0.4,3.4-0.9,6.7-0.6,10h-0.6V115.1z"/>
<path d="M23.1,87.4c0.3,2.3-1.1,4.2-1.6,6.3c-0.1,0.3-0.6,0.4-1,0.7c-0.3,0.3-0.6,0.4-1,0.6c-0.1-0.3-0.3-0.8-0.3-1
	c0.3-0.7,0.3-1.7,1.2-2.1c0.8-0.1,1.4-0.9,1.2-1.7c0,0,0,0,0,0C21.7,89,22.2,88,23.1,87.4z"/>
<path d="M122.7,230.5h8.8c-0.1,0.2-0.1,0.5-0.2,0.5c-2.9,0.3-5.7,1-8.6,0.8L122.7,230.5z"/>
<path d="M14.9,122.7v-6.3c0-0.2,0.1-0.4,0.2-0.5c0.2,0.2,0.4,0.3,0.4,0.5v13.2c0,0.2-0.1,0.4-0.2,0.5c-0.2-0.2-0.4-0.3-0.4-0.5
	V122.7z"/>
<path d="M171.2,214.7c-0.3,1.2-1.8,0.3-2.4,1.4c-0.6,0.8-1.6,1.3-2.6,1.1c0-0.2-0.1-0.4,0-0.6c1-1.6,2.5-2.8,4.4-3.1
	C170.7,213.9,170.3,214.7,171.2,214.7z"/>
<path d="M37,187.6c-0.2,0-0.5,0.1-0.6,0c-1.4-1.1-2.6-2.4-2.5-4.4C35.4,184.2,36.6,185.8,37,187.6z"/>
<path d="M122.7,221.7c0.3,0,0.6,0,1,0c0.7,0.2,1.6-0.4,2.1,0.4c-0.6,0.2-1.2,0.4-1.9,0.6c-0.6,0.2-1.2,0.2-1.7,0.2
	c-0.8-0.2-1.6-0.5-2.4-0.8c0.7-0.9,1.7-0.2,2.4-0.4C122.2,221.6,122.5,221.7,122.7,221.7z"/>
<path d="M93,227.3h-0.6c-1.5-0.5-2.9-1-4.4-1.6v-0.3c1.6-0.3,2.9,0.5,4.3,0.9c0.2,0,0.3,0.3,0.4,0.3l0.8,0.3
	C93.3,227.1,93.1,227.2,93,227.3z"/>
<path d="M46.4,198.4c-0.1,0.2-0.2,0.4-0.3,0.4c-0.2,0.1-0.4,0.1-0.6,0c-0.8-0.7-1.5-1.4-2.2-2.2c-0.1-0.2-0.1-0.4,0-0.6
	c0.1-0.2,0.2-0.3,0.4-0.3C44.9,196.2,45.9,197.2,46.4,198.4z"/>
<path d="M110.7,229.9v0.6c-1.8,0.1-3.4-1-5.2-0.6c-0.1,0-0.3-0.3-0.3-0.3l0.2-0.2c1.7,0,3.5,0,5.2,0.1
	C110.6,229.3,110.6,229.7,110.7,229.9z"/>
<path d="M39.5,190.5c-0.3,0.1-0.6,0.3-0.7,0.3c-0.9-0.6-2-1.1-1.7-2.5c0-0.2,0.1-0.4,0.3-0.6l2.2,2.4V190.5z"/>
<path d="M20.5,106.2c0.1-0.3,0.1-0.8,0.2-1.1c0.1-0.5,0.3-0.9,0.4-1.4c0.3-0.6-0.6-1.6,0.6-1.9h0.6c-0.5,1.4-0.7,2.8-0.8,4.2
	c0,0.1-0.3,0.2-0.5,0.2C20.9,106.2,20.8,106.2,20.5,106.2z"/>
<path d="M20.5,114.5h-0.6v-4.3c0-0.3,0.3-0.5,0.6-0.8h0.6c-0.2,0.9-0.5,1.7-0.6,2.5C20.5,112.8,20.5,113.6,20.5,114.5z"/>
<path d="M133.4,228.6v-0.6c0.2-0.2,0.3-0.6,0.5-0.6c1.3-0.1,2.7-0.1,4,0c0.2,0,0.3,0.3,0.5,0.6h-3.1c-0.3,0-0.5,0.3-0.8,0.6H133.4z"
	/>
<path d="M52.7,204.6c1.7,0.3,2.2,0.9,2.5,2.5C53.9,207.1,52.8,206,52.7,204.6z"/>
<path d="M93.7,222.9c0.4,0.2,0.8,0.4,1.2,0.6c0.2,0.2,0.4,0.4,0.6,0.7c-0.3,0.2-0.6,0.4-0.9,0.5c-0.9,0-2,0.3-1.7-1.2
	C93.2,223.4,93.5,223.1,93.7,222.9z"/>
<path d="M137.8,73.2v1.2c-0.1,0.1-0.2,0.3-0.3,0.3l-0.2-0.2c-0.7-0.4-1-1.4-0.5-2.1c0.1-0.1,0.1-0.2,0.2-0.2
	c0.2-0.2,0.4-0.3,0.6-0.4c0.1,0.2,0.2,0.3,0.2,0.5C137.9,72.5,137.8,72.9,137.8,73.2z"/>
<path d="M98.3,224.2c0.3,0,0.6,0.1,0.9,0.1c0.1,0,0.2,0.2,0.2,0.2s-0.2,0.3-0.3,0.3c-0.8-0.1-1.6,0.1-2.2,0.6
	c-0.1,0.1-0.4-0.3-0.7-0.3c0.2-0.3,0.3-0.7,0.6-0.8C97.1,224.1,97.6,224.2,98.3,224.2z"/>
<path d="M108.7,226.7c-0.9-0.3-1.7,0.3-2.3-0.5c0.7-0.1,1.4-0.2,2.1-0.2c0.7,0.1,1.6-0.4,2.1,0.3
	C109.9,226.5,109.2,226.6,108.7,226.7z"/>
<path d="M49.1,202.3l-1.4-1.4c-0.1-0.1,0-0.4,0.2-0.5c0.2-0.1,0.3-0.2,0.5-0.2c0.7,0.3,1.3,0.7,1.1,1.6
	C49.5,201.9,49.4,202,49.1,202.3z"/>
<path d="M142.8,228.6v0.3c-1,0.3-2.1,0.6-3.1,1v-1.2L142.8,228.6L142.8,228.6z"/>
<path d="M154.2,224.8v0.6c-0.4,0.1-1.2-0.3-1.2,0.6h-1.9v-0.6l0.6-0.6H154.2z"/>
<path d="M151.1,225.4v0.6h-1.9c-0.3-1.2-1.3-0.3-1.9-0.6c0.3-0.2,0.4-0.5,0.8-0.6c0.6,0,1.2,0,1.7,0
	C149.8,225.8,150.5,225.3,151.1,225.4z"/>
<path d="M22.5,101.9h-0.6v-3.1h0.6l0.6,0.6c-0.1,0.3-0.1,0.8-0.2,1.1C22.8,100.8,22.6,101.4,22.5,101.9z"/>
<path d="M42.9,194.1c-0.4,0.2-0.8,0.4-1,0.3c-0.4-0.2-0.7-0.4-1-0.7c-0.1-0.4-0.2-0.7-0.3-1.1c0.3,0.1,0.9,0,1.1,0.3
	C42.3,193.2,42.5,193.6,42.9,194.1z"/>
<path d="M19.3,124.6h0.6c-0.3,1.2,0.5,2.5-0.4,3.7C19.4,127,19.4,125.8,19.3,124.6z"/>
<path d="M144.8,226c0.3-0.2,0.4-0.5,0.8-0.6c0.6,0,1.2,0,1.7,0l0.6,0.6c-0.1,1-0.8,0.5-1.2,0.6C146.3,225.5,145.4,226.3,144.8,226z"
	/>
<path d="M223.6,154.8c-1-0.1-0.6-1-0.6-1.4c0.1-0.8,0.8-0.3,1.2-0.4C223.9,153.5,224.8,154.6,223.6,154.8z"/>
<path d="M153.6,224.8h-1.9v-0.6c0.1-1,1-0.6,1.4-0.6C153.8,223.7,153.5,224.4,153.6,224.8z"/>
<path d="M31.7,181.1c-0.4-0.6-0.7-1.2-1-1.8c0.1-0.2,0.3-0.4,0.5-0.4c1,0,0.6,0.8,0.7,1.3C31.9,180.2,31.8,180.5,31.7,181.1z"/>
<path d="M157.1,215.9c-0.3,0.3-0.6,0.5-1,0.7c-0.4,0-0.8,0-1.1-0.2c0.4-0.4,0.7-0.7,1.1-1C156.2,215.3,156.6,215.6,157.1,215.9z"/>
<path d="M103.2,226c0.3,0-0.1,0-0.4-0.1c-0.1,0-0.2-0.1-0.2-0.2v-0.3c1,0.1,2,0.1,3,0.2l0.1,0.2c0,0.1-0.2,0.2-0.2,0.2L103.2,226z"
	/>
<path d="M99.3,224.8c0.8,0,1.6,0,2.4,0c0.3,0,0.5,0.3,0.8,0.6c-0.8,0-1.6,0-2.4,0C99.9,225.3,99.6,225,99.3,224.8z"/>
<path d="M139.7,228.6v0.6h-3.1c0.3-1.2,1.3-0.3,1.9-0.6H139.7z"/>
<path d="M141.6,226.7c0.3-1.2,1.3-0.3,1.9-0.6v0.6c-0.4,0.1-1.2-0.3-1.2,0.6v0.6h-0.6v-0.6C141.6,227.1,141.6,226.9,141.6,226.7z"/>
<ellipse cx="20.9" cy="107.8" rx="0.4" ry="2.3"/>
<path d="M141.6,227.9h1.2v0.6h-2.5C140.4,227.6,141.1,228,141.6,227.9z"/>
<path d="M19.3,97v0.6c-0.1,0.2-0.2,0.3-0.3,0.4c-0.1-0.1-0.3-0.2-0.3-0.3v-1.8c0-0.1,0.3-0.3,0.3-0.3c0.1,0.2,0.3,0.3,0.3,0.5V97z"
	/>
<path d="M18,101.9v1c0,0.1-0.3,0.2-0.4,0.3v-2.3c0.2,0.1,0.3,0.1,0.4,0.2C18,101.3,18,101.6,18,101.9z"/>
<path d="M40,192.9c-0.2-0.4-0.5-0.8-0.4-1s0.5-0.3,0.8-0.5c0.2,0.3,0.3,0.6,0.3,1C40.7,192.5,40.4,192.6,40,192.9z"/>
<path d="M184.4,198c0.3,0.4,0.6,0.6,0.6,0.9c0.1,0.7-0.4,0.8-1,0.7c-0.2,0-0.3-0.4-0.3-0.5C184,198.7,184.2,198.3,184.4,198z"/>
<path d="M151.7,224.2v0.6l-0.6,0.6c-0.1-1-0.8-0.5-1.2-0.6C150.1,223.6,151.1,224.4,151.7,224.2z"/>
<path d="M141.6,226.7v0.6c-0.8-0.3-1.7,0.5-2.4-0.4C140,226.8,140.8,226.7,141.6,226.7z"/>
<path d="M97.9,228.6h-0.6l-0.5-0.3c0.2-0.1,0.3-0.3,0.5-0.3c0.4-0.1,0.8-0.1,1.2,0c0.3,0,0.5,0.1,0.8,0.3c-0.3,0.1-0.5,0.3-0.8,0.3
	C98.3,228.7,98.1,228.6,97.9,228.6z"/>
<path d="M90.9,223.1c-0.3-0.2-0.6-0.3-1-0.5c0.3-0.1,0.7-0.2,1-0.3c0.3,0,0.6,0.2,0.8,0.3C91.4,222.7,91.1,222.9,90.9,223.1z"/>
<path d="M151.2,217.1c0.4,0.2,0.7,0.3,1,0.3c-0.2,0.2-0.6,0.3-0.9,0.3c-0.3,0-0.5-0.1-0.8-0.2C150.8,217.5,151,217.3,151.2,217.1z"
	/>
<path d="M18.8,99c-0.2,0.3-0.3,0.6-0.5,1c-0.1-0.3-0.2-0.7-0.3-1c0-0.3,0.2-0.6,0.3-0.8C18.5,98.4,18.7,98.7,18.8,99z"/>
<path d="M93.7,222.9l-0.6,0.6c-0.4-0.1-1.2,0.3-1.2-0.6H93.7z"/>
<path d="M193.2,191.3c0.2,1-0.3,1.5-1.2,1.2C192.5,192.2,192.9,191.8,193.2,191.3z"/>
<path d="M95.1,227.2c0.4,0.2,0.7,0.3,1,0.3c-0.2,0.2-0.6,0.3-0.9,0.3c-0.3,0-0.5-0.1-0.8-0.2C94.7,227.5,94.9,227.3,95.1,227.2z"/>
<path d="M182.6,200.2c0.1-1,0.8-0.5,1.2-0.6C183.8,200.5,183,200.1,182.6,200.2z"/>
<path d="M33.2,182.5c-1-0.1-0.5-0.8-0.6-1.2C33.5,181.4,33.1,182.1,33.2,182.5z"/>
<path d="M55.2,207.2c0.4,0.1,1.2-0.3,1.2,0.6C56,207.7,55.3,208.1,55.2,207.2z"/>
<path d="M87.4,225.5c-0.2-0.2-0.4-0.3-0.6-0.5c0.2-0.1,0.5-0.2,0.8-0.3c0.2,0,0.3,0.2,0.4,0.3C87.8,225.2,87.6,225.4,87.4,225.5z"/>
<path d="M61.5,211.1c-0.2,0.3-0.3,0.5-0.3,0.4c-0.3,0-0.5-0.1-0.8-0.2c0.1-0.2,0.2-0.3,0.3-0.4C60.9,210.9,61.2,211,61.5,211.1z"/>
<path d="M67.2,215.4c-0.4-0.1-1.2,0.3-1.2-0.6C66.4,214.8,67.2,214.4,67.2,215.4z"/>
<path d="M70.6,216.9c-0.5,0.1-0.9,0.3-1,0.2c-0.2-0.1-0.3-0.3-0.4-0.6h0.6C70,216.7,70.3,216.9,70.6,216.9z"/>
<path d="M153.2,216.5c0.3,0.1,0.5,0.2,0.8,0.3c-0.2,0.2-0.3,0.3-0.5,0.4c-0.2,0-0.4-0.1-0.5-0.2
	C153.1,216.9,153.2,216.7,153.2,216.5z"/>
<path d="M82.4,223.7c-0.2-0.2-0.4-0.3-0.6-0.5c0.2-0.1,0.5-0.2,0.8-0.3c0.2,0,0.3,0.2,0.4,0.3C82.8,223.4,82.6,223.5,82.4,223.7z"/>
<path d="M84.5,223.9c-0.5,0.1-0.9,0.3-1,0.2s-0.3-0.3-0.4-0.6h0.6L84.5,223.9z"/>
<path d="M85.2,224c0.3,0.1,0.5,0.2,0.8,0.3c-0.2,0.2-0.3,0.3-0.5,0.4c-0.2,0-0.4-0.1-0.5-0.2C85,224.4,85.1,224.2,85.2,224z"/>
<path d="M27.1,173.3c-0.1-0.4-0.1-0.8-0.1-1.2c0.1,0,0.3-0.1,0.4-0.1c0.1,0.3,0.2,0.5,0.2,0.8C27.4,173,27.2,173.1,27.1,173.3z"/>
<path d="M143.5,226.7v-0.6h1.2C144.7,227,144,226.5,143.5,226.7z"/>
<path d="M192,192.9c-0.1,0.1-0.3,0.2-0.3,0.3c0-0.2-0.2-0.3-0.1-0.3c0.1-0.1,0.3-0.1,0.4-0.2V192.9z"/>
<path d="M190.5,194l0.2,0.2c-0.1,0.1-0.2,0.2-0.3,0.3l-0.3-0.3C190.3,194.1,190.4,194,190.5,194z"/>
<path d="M189.5,195.2l0.6-0.6L189.5,195.2z"/>
<path d="M189.5,195.4c-0.1,0.1-0.3,0.2-0.3,0.3c0-0.2-0.2-0.3-0.1-0.3c0.1-0.1,0.3-0.1,0.4-0.2V195.4z"/>
<path d="M33.2,182.5l0.6,0.6C33.6,183,33.4,182.8,33.2,182.5z"/>
<path d="M182.6,200.5c-0.1,0.1-0.3,0.2-0.3,0.3c0-0.2-0.2-0.3-0.1-0.3c0.1-0.1,0.3-0.1,0.4-0.2V200.5z"/>
<path d="M64.9,209.8c0.2,0.1,0.3,0.2,0.4,0.3l-0.2,0.2c-0.2,0-0.3-0.1-0.4-0.2C64.7,209.9,64.8,209.9,64.9,209.8z"/>
<path d="M59.4,209.8l0.3,0.3c-0.2,0.1-0.3,0.2-0.4,0.2c-0.1,0-0.2-0.1-0.2-0.2C59.1,209.9,59.3,209.9,59.4,209.8z"/>
<path d="M28.7,174.6c-0.1,0.2-0.2,0.3-0.3,0.4l-0.2-0.2c0-0.2,0.1-0.3,0.2-0.4C28.5,174.4,28.6,174.5,28.7,174.6z"/>
<path d="M63.8,213.4c-0.1-0.1-0.2-0.3-0.3-0.3c0.2,0,0.3-0.2,0.3-0.1c0.1,0.1,0.1,0.3,0.2,0.4H63.8z"/>
<path d="M28,173.4l-0.2,0.2c-0.1-0.1-0.2-0.2-0.3-0.3l0.3-0.3C27.8,173.2,27.9,173.3,28,173.4z"/>
<path d="M58.3,209.3c-0.1,0.2-0.2,0.3-0.3,0.4l-0.2-0.2c0-0.2,0.1-0.3,0.2-0.4C58.1,209.1,58.2,209.2,58.3,209.3z"/>
<path d="M64.6,213.8l-0.2,0.2c-0.1-0.1-0.2-0.2-0.3-0.3l0.3-0.3C64.5,213.5,64.6,213.7,64.6,213.8z"/>
<path d="M15.5,131.9l-0.3,0.3c-0.1-0.2-0.2-0.3-0.2-0.4c0-0.1,0.1-0.2,0.2-0.2C15.3,131.6,15.4,131.8,15.5,131.9z"/>
<path d="M30.6,177.9l-0.2,0.2c-0.1-0.1-0.2-0.2-0.3-0.3l0.3-0.3C30.4,177.6,30.5,177.8,30.6,177.9z"/>
<path d="M65.7,214.7c-0.1-0.1-0.2-0.3-0.3-0.3c0.2,0,0.3-0.2,0.3-0.1c0.1,0.1,0.1,0.3,0.2,0.4H65.7z"/>
<path d="M57,208.1l-0.2,0.2c-0.1-0.1-0.2-0.2-0.3-0.3l0.3-0.3C56.9,207.9,57,208,57,208.1z"/>
<path d="M61.9,207.7c-0.2-0.1-0.3-0.2-0.4-0.3l0.2-0.2c0.2,0,0.3,0.1,0.4,0.2C62.1,207.5,62,207.6,61.9,207.7z"/>
<path d="M60.4,206.9c0.1-0.2,0.2-0.3,0.3-0.4l0.2,0.2c0,0.2-0.1,0.3-0.2,0.4C60.5,207.1,60.5,207,60.4,206.9z"/>
<path d="M67.2,211.3l-0.2,0.2c-0.1-0.1-0.2-0.2-0.3-0.3l0.3-0.3C66.9,211.1,67.1,211.2,67.2,211.3z"/>
<path d="M191.4,205.2l-0.6,0.6L191.4,205.2z"/>
<path d="M192,204.6l-0.6,0.6L192,204.6z"/>
<path d="M66.3,210.9c-0.1-0.1-0.2-0.3-0.3-0.3c0.2,0,0.3-0.2,0.3-0.1c0.1,0.1,0.1,0.3,0.2,0.4H66.3z"/>
<path d="M52.4,204.6c-0.1-0.1-0.2-0.3-0.3-0.3c0.2,0,0.3-0.2,0.3-0.1c0.1,0.1,0.1,0.3,0.2,0.4H52.4z"/>
<path d="M51.4,203.7l-0.2,0.2c-0.1-0.1-0.2-0.2-0.3-0.3l0.3-0.3C51.2,203.5,51.3,203.6,51.4,203.7z"/>
<path d="M50.1,202.7l0.6,0.6L50.1,202.7z"/>
<path d="M50.1,202.7l-0.6-0.6C49.8,202.3,50,202.5,50.1,202.7z"/>
<path d="M67.8,215.7l-0.2,0.2c-0.1-0.1-0.2-0.2-0.3-0.3l0.3-0.3C67.6,215.5,67.7,215.6,67.8,215.7z"/>
<path d="M32.5,181.3l-0.6-0.6C32.1,180.9,32.3,181.1,32.5,181.3z"/>
<path d="M100.4,228.6l0.3,0.3c-0.2,0.1-0.3,0.2-0.4,0.2c-0.1,0-0.2-0.1-0.2-0.2C100.1,228.8,100.3,228.7,100.4,228.6z"/>
<path d="M29.3,176.1l-0.3,0.3c-0.1-0.2-0.2-0.3-0.2-0.4c0-0.1,0.1-0.2,0.2-0.2C29.2,175.8,29.2,175.9,29.3,176.1z"/>
<path d="M68.8,216.6c-0.1-0.1-0.2-0.3-0.3-0.3c0.2,0,0.3-0.2,0.3-0.1c0.1,0.1,0.1,0.3,0.2,0.4H68.8z"/>
<path d="M62.7,212.6l-0.3,0.3c-0.1-0.2-0.2-0.3-0.2-0.4c0-0.1,0.1-0.2,0.2-0.2C62.6,212.3,62.6,212.5,62.7,212.6z"/>
<path d="M29.7,177.5c-0.1-0.1-0.2-0.3-0.3-0.3c0.2,0,0.3-0.2,0.3-0.1c0.1,0.1,0.1,0.3,0.2,0.4H29.7z"/>
<path d="M224.2,106.2c0.2,0.1,0.3,0.1,0.5,0.2c-0.2,3.1,1,6.1,0.8,9.3c-0.2,0.3-0.4,0.5-0.6,0.8s-0.4,0.3-0.6,0.5
	c-0.2-0.3-0.6-0.5-0.6-0.8c-0.1-1.2,0-2.4,0-3.7h0.3c0.1-1.4,0.2-2.8,0.2-4.2c-0.4-0.1-0.7-0.2-1.1-0.2v-1.2l0.6-0.6
	C223.8,106.3,224,106.2,224.2,106.2z"/>
<path d="M223,108.2c0.3,0.1,1.1,0.2,1.1,0.2c0,1.4-0.1,2.8-0.2,4.2h-0.3c-0.2-0.3-0.6-0.5-0.6-0.8
	C222.9,110.6,222.9,109.4,223,108.2z"/>
<path d="M137.1,18.6H135c-0.1,0-0.2-0.3-0.3-0.4c0,0,0.1-0.2,0.2-0.2c0.5,0,1,0,1.6,0c0.6,0.1,1.4-0.4,1.8,0.3
	C137.9,18.5,137.5,18.6,137.1,18.6z"/>
<path d="M224.2,106.2h-0.6c0.3-1.2-0.5-2.5,0.4-3.7C224,103.8,224.1,105,224.2,106.2z"/>
<path d="M23.7,91.1c0,0.8,0,1.6,0,2.4c0,0.3-0.3,0.5-0.6,0.8c0-0.8,0-1.6,0-2.4C23.1,91.7,23.5,91.4,23.7,91.1z"/>
<path d="M223,106.9v0.6c-0.2-0.3-0.6-0.5-0.6-0.8c0-0.8,0-1.6,0-2.4c0.2,0.3,0.5,0.4,0.6,0.8V106.9z"/>
<path d="M222.3,102.8v1.2c0,0.1-0.2,0.2-0.3,0.3c-0.1-0.2-0.2-0.3-0.3-0.4v-1.8c0-0.3,0.1-0.5,0.3-0.8c0.1,0.3,0.3,0.6,0.3,1
	C222.3,102.4,222.3,102.7,222.3,102.8z"/>
<path d="M157.3,24.3v-0.6c0.6,0.5,1.2,0.9,1.9,1.2C158.7,24.7,157.7,25.5,157.3,24.3z"/>
<path d="M22.5,98.7h-0.6c0-0.6,0-1.2,0-1.7c0.1-0.3,0.4-0.6,0.6-0.8V98.7z"/>
<path d="M222.3,97.2c0-0.2-0.1-0.4,0-0.6c0.1-0.2,0.3-0.2,0.4-0.3v2.3c-0.2-0.1-0.3-0.2-0.4-0.3V97.2z"/>
<path d="M221,99.3v-0.9c0-0.1,0.2-0.2,0.3-0.3c0.1,0.2,0.3,0.3,0.3,0.4c0.1,0.3,0.1,0.6,0,0.9c-0.1,0.3-0.2,0.7-0.3,1.1
	c-0.1-0.3-0.3-0.6-0.3-1V99.3z"/>
<path d="M223,100.5v-0.6l0.3-0.5c0.1,0.2,0.3,0.3,0.3,0.5c0.1,0.4,0.1,0.8,0,1.2c0,0.3-0.1,0.5-0.3,0.8c-0.1-0.3-0.3-0.5-0.3-0.8
	C222.8,100.8,223,100.7,223,100.5z"/>
<path d="M207.1,186.4c-0.2-0.9,0.4-1.7,1.2-1.9c0,0,0,0,0,0c0.2,0.8-0.2,1.6-1,1.9C207.3,186.3,207.2,186.4,207.1,186.4z"/>
<path d="M219.7,94.3v-0.9c0-0.1,0.2-0.2,0.3-0.3c0.1,0.2,0.3,0.3,0.3,0.4c0.1,0.3,0.1,0.6,0,0.9c-0.1,0.3-0.2,0.7-0.3,1.1
	c-0.1-0.3-0.3-0.6-0.3-1V94.3z"/>
<path d="M220.9,92.6c0.1-0.3,0.3-0.5,0.4-0.8c0.1,0.4,0.2,0.7,0.3,1.1c0,0.3-0.1,0.5-0.3,0.8C221.2,93.4,221.1,93,220.9,92.6z"/>
<path d="M23.1,94.3c-0.3,0.6,0.6,1.6-0.6,1.9C22.7,95.6,21.8,94.6,23.1,94.3z"/>
<path d="M220.2,97.1c0.1-0.3,0.3-0.6,0.3-0.9c0.1,0.4,0.3,0.8,0.3,1.2c0,0.2-0.1,0.4-0.3,0.6C220.6,97.7,220.4,97.4,220.2,97.1z"/>
<path d="M25.6,86.1c-0.3,0.6,0.6,1.6-0.6,1.9C25.2,87.4,24.4,86.4,25.6,86.1z"/>
<path d="M217.9,87.4c1.2,0.3,0.3,1.3,0.6,1.9C217.3,89,218.1,88,217.9,87.4z"/>
<path d="M24.4,89.2c-0.3,0.6,0.6,1.6-0.6,1.9C23.9,90.5,23.1,89.6,24.4,89.2z"/>
<path d="M218.5,89.2c1.2,0.3,0.3,1.3,0.6,1.9C217.9,90.9,218.8,89.9,218.5,89.2z"/>
<path d="M219.1,91.1c1.2,0.3,0.3,1.3,0.6,1.9C218.6,92.7,219.4,91.7,219.1,91.1z"/>
<path d="M160.7,25.3c-0.5,0.1-0.9,0.3-1,0.2c-0.2-0.1-0.3-0.3-0.4-0.6h0.6C160.2,25.1,160.4,25.2,160.7,25.3z"/>
<path d="M217,84.1c0.1,0.3,0.2,0.6,0.3,0.9c0,0.2-0.1,0.3-0.3,0.4c-0.1-0.2-0.2-0.5-0.3-0.8C216.6,84.6,216.8,84.4,217,84.1z"/>
<path d="M24.5,84.8c-0.2,0.2-0.3,0.4-0.5,0.6c-0.1-0.2-0.2-0.5-0.3-0.8c0-0.2,0.2-0.3,0.3-0.4C24.1,84.4,24.3,84.6,24.5,84.8z"/>
<path d="M24.7,82.7c0.1,0.5,0.3,0.9,0.2,1c-0.1,0.2-0.3,0.3-0.6,0.4v-0.6C24.5,83.3,24.6,83,24.7,82.7z"/>
<path d="M216.7,82.9c-0.1,0.2-0.2,0.4-0.3,0.5c-0.1-0.3-0.3-0.6-0.3-1c0-0.1,0.2-0.2,0.3-0.3C216.4,82.6,216.6,82.7,216.7,82.9z"/>
<path d="M215.5,82.6c-0.1-0.4-0.1-0.8-0.1-1.2c0.1,0,0.3-0.1,0.4-0.1c0.1,0.3,0.2,0.5,0.2,0.8C215.9,82.2,215.7,82.4,215.5,82.6z"/>
<path d="M190.4,44.2c-0.5,0.1-0.9,0.3-1,0.2c-0.2-0.1-0.3-0.3-0.4-0.6h0.6C189.8,44,190,44.1,190.4,44.2z"/>
<path d="M191.4,45.8c1,0.1,0.5,0.8,0.6,1.2C191.1,46.9,191.5,46.2,191.4,45.8z"/>
<path d="M193.5,47.4c-0.5,0.1-0.9,0.3-1,0.2c-0.2-0.1-0.3-0.3-0.4-0.6h0.6C192.9,47.1,193.2,47.3,193.5,47.4z"/>
<path d="M194.6,48.9c-0.1,0.2-0.3,0.5-0.3,0.7c-0.1-0.2-0.3-0.3-0.3-0.4c0-0.3,0.1-0.5,0.3-0.8C194.4,48.5,194.5,48.7,194.6,48.9z"
	/>
<path d="M205.9,63.4c-1-0.1-0.5-0.8-0.6-1.2C206.2,62.2,205.8,62.9,205.9,63.4z"/>
<path d="M208.4,67.2c1,0.1,0.5,0.8,0.6,1.2C208.1,68.4,208.5,67.6,208.4,67.2z"/>
<path d="M211.6,72.3c-0.1,0.2-0.2,0.4-0.3,0.5c-0.1-0.3-0.3-0.6-0.3-1c0-0.1,0.2-0.2,0.3-0.3C211.3,71.8,211.5,72,211.6,72.3z"/>
<path d="M214,78.5c0.1-0.2,0.2-0.4,0.3-0.5c0.1,0.2,0.2,0.5,0.3,0.8c0,0.2-0.1,0.3-0.3,0.4C214.3,78.9,214.2,78.7,214,78.5z"/>
<path d="M204.6,189.5c0,0.2,0.1,0.4,0,0.6c-0.1,0.2-0.3,0.4-0.4,0.5c-0.1-0.2-0.2-0.3-0.2-0.5v-0.6H204.6z"/>
<path d="M25.7,81.6c-0.1,0.2-0.3,0.5-0.3,0.7c-0.1-0.2-0.3-0.3-0.3-0.4c0-0.3,0.1-0.5,0.3-0.8C25.5,81.3,25.6,81.4,25.7,81.6z"/>
<path d="M206.5,187c0,0.2,0.1,0.4,0,0.6c-0.1,0.2-0.3,0.4-0.4,0.5c-0.1-0.2-0.2-0.3-0.2-0.5V187H206.5z"/>
<path d="M202.1,192.7c0,0.2,0.1,0.4,0,0.6c-0.1,0.2-0.3,0.4-0.4,0.5c-0.1-0.2-0.2-0.3-0.2-0.5v-0.6H202.1z"/>
<path d="M25,88c-0.1,0.4,0.3,1.2-0.6,1.2C24.5,88.8,24,88.1,25,88z"/>
<path d="M217.4,87.6c-0.1-0.4-0.1-0.8-0.1-1.2c0.1,0,0.3-0.1,0.4-0.1c0.1,0.3,0.2,0.5,0.2,0.8C217.8,87.3,217.6,87.4,217.4,87.6z"/>
<path d="M23.5,85.8c0.1,0.5,0.3,0.9,0.2,1c-0.1,0.2-0.3,0.3-0.6,0.4v-0.6C23.2,86.4,23.4,86.1,23.5,85.8z"/>
<path d="M161.2,26c0.1-0.2,0.2-0.3,0.3-0.4l0.2,0.2c0,0.2-0.1,0.3-0.2,0.4C161.4,26.1,161.3,26,161.2,26z"/>
<path d="M162.8,26.7c-0.2-0.1-0.3-0.2-0.4-0.3l0.2-0.2c0.2,0,0.3,0.1,0.4,0.2C162.9,26.6,162.8,26.7,162.8,26.7z"/>
<path d="M170.6,30.3c-0.2,0.1-0.3,0.2-0.4,0.2c-0.1,0-0.2-0.1-0.2-0.2c0.2-0.1,0.3-0.2,0.4-0.2C170.4,30.1,170.5,30.2,170.6,30.3z"
	/>
<path d="M171.4,30.7c0.2,0.1,0.3,0.2,0.4,0.3l-0.2,0.2c-0.2,0-0.3-0.1-0.4-0.2C171.3,30.9,171.3,30.8,171.4,30.7z"/>
<path d="M173.4,31.9c0.1,0.2,0.2,0.3,0.2,0.4c0,0.1-0.1,0.2-0.2,0.2c-0.1-0.2-0.2-0.3-0.2-0.4L173.4,31.9z"/>
<path d="M174.7,32.5c0.1,0.2,0.2,0.3,0.2,0.4c0,0.1-0.1,0.2-0.2,0.2c-0.1-0.2-0.2-0.3-0.2-0.4C174.5,32.7,174.6,32.6,174.7,32.5z"/>
<path d="M178.8,35.9l0.3-0.3c0.1,0.2,0.2,0.3,0.2,0.4c0,0.1-0.1,0.2-0.2,0.2C179,36.2,178.9,36,178.8,35.9z"/>
<path d="M180.1,36.7c0.1-0.2,0.2-0.3,0.3-0.4l0.2,0.2c0,0.2-0.1,0.3-0.2,0.4C180.3,36.9,180.2,36.8,180.1,36.7z"/>
<path d="M181.4,37.9c0.1-0.2,0.2-0.3,0.3-0.4l0.2,0.2c0,0.2-0.1,0.3-0.2,0.4C181.5,38.1,181.5,38,181.4,37.9z"/>
<path d="M183.1,38.5c-0.1,0.2-0.2,0.3-0.3,0.4l-0.2-0.2c0-0.2,0.1-0.3,0.2-0.4C182.9,38.3,183,38.4,183.1,38.5z"/>
<path d="M184.2,40c-0.2-0.1-0.3-0.2-0.4-0.3l0.2-0.2c0.2,0,0.3,0.1,0.4,0.2C184.4,39.9,184.3,39.9,184.2,40z"/>
<path d="M185.5,40.6c-0.2-0.1-0.3-0.2-0.4-0.3l0.2-0.2c0.2,0,0.3,0.1,0.4,0.2C185.6,40.5,185.6,40.6,185.5,40.6z"/>
<path d="M188.6,43.9c-0.1-0.1-0.2-0.3-0.3-0.3c0.2,0,0.3-0.2,0.3-0.1c0.1,0.1,0.1,0.3,0.2,0.4H188.6z"/>
<path d="M191.2,45.8c-0.1-0.1-0.2-0.3-0.3-0.3c0.2,0,0.3-0.2,0.3-0.1c0.1,0.1,0.1,0.3,0.2,0.4H191.2z"/>
<path d="M205,62.1c-0.1-0.1-0.2-0.3-0.3-0.3c0.2,0,0.3-0.2,0.3-0.1c0.1,0.1,0.1,0.3,0.2,0.4H205z"/>
<path d="M208.1,67.2c-0.1-0.1-0.2-0.3-0.3-0.3c0.2,0,0.3-0.2,0.3-0.1c0.1,0.1,0.1,0.3,0.2,0.4H208.1z"/>
<path d="M209.6,68.9l-0.2,0.2c-0.1-0.1-0.2-0.2-0.3-0.3l0.3-0.3C209.4,68.6,209.5,68.7,209.6,68.9z"/>
<path d="M210.3,70c-0.2,0.1-0.3,0.2-0.4,0.2c-0.1,0-0.2-0.1-0.2-0.2c0.2-0.1,0.3-0.2,0.4-0.2C210.1,69.8,210.2,70,210.3,70z"/>
<path d="M210.6,71.6c-0.1-0.1-0.2-0.3-0.3-0.3c0.2,0,0.3-0.2,0.3-0.1c0.1,0.1,0.1,0.3,0.2,0.4H210.6z"/>
<path d="M215.1,80.3c-0.2-0.1-0.3-0.2-0.4-0.3l0.2-0.2c0.2,0,0.3,0.1,0.4,0.2C215.3,80.2,215.2,80.2,215.1,80.3z"/>
<path d="M28,80.8l-0.3,0.3c-0.1-0.2-0.2-0.3-0.2-0.4c0-0.1,0.1-0.2,0.2-0.2C27.9,80.6,28,80.7,28,80.8z"/>
<path d="M202.8,192l-0.6,0.6C202.3,192.4,202.5,192.2,202.8,192z"/>
<path d="M199.4,186.4l0.2,0.2c-0.1,0.1-0.2,0.2-0.3,0.3l-0.3-0.3C199.1,186.6,199.2,186.4,199.4,186.4z"/>
<path d="M208.8,183.8l0.2,0.2c-0.1,0.1-0.2,0.2-0.3,0.3l-0.3-0.3C208.5,184.1,208.6,184,208.8,183.8z"/>
<path d="M206.5,187l0.6-0.6L206.5,187z"/>
<path d="M214.4,174.4c0.1,0.2,0.2,0.3,0.2,0.4c0,0.1-0.1,0.2-0.2,0.2c-0.1-0.2-0.2-0.3-0.2-0.4C214.2,174.5,214.3,174.4,214.4,174.4
	z"/>
<path d="M215.4,173.4c-0.2,0.1-0.3,0.2-0.4,0.2c-0.1,0-0.2-0.1-0.2-0.2c0.2-0.1,0.3-0.2,0.4-0.2
	C215.2,173.2,215.3,173.3,215.4,173.4z"/>
<path d="M205,188.9l0.2,0.2c-0.1,0.1-0.2,0.2-0.3,0.3l-0.3-0.3C204.8,189,204.9,189,205,188.9z"/>
<path d="M213.3,177.5c-0.2-0.1-0.3-0.2-0.4-0.3l0.2-0.2c0.2,0,0.3,0.1,0.4,0.2C213.4,177.3,213.3,177.4,213.3,177.5z"/>
<path d="M213.5,175.9l0.3-0.3c0.1,0.2,0.2,0.3,0.2,0.4c0,0.1-0.1,0.2-0.2,0.2C213.7,176.1,213.6,176,213.5,175.9z"/>
<path d="M206.4,63.8l-0.2,0.2c-0.1-0.1-0.2-0.2-0.3-0.3l0.3-0.3C206.3,63.5,206.4,63.7,206.4,63.8z"/>
<path d="M212.2,179.1c-0.2,0.1-0.3,0.2-0.4,0.2c-0.1,0-0.2-0.1-0.2-0.2c0.2-0.1,0.3-0.2,0.4-0.2C212,178.8,212.1,179,212.2,179.1z"
	/>
<path d="M198.9,187l-0.6,0.6C198.5,187.4,198.7,187.2,198.9,187z"/>
<path d="M211.6,180.3c-0.2,0.1-0.3,0.2-0.4,0.2c-0.1,0-0.2-0.1-0.2-0.2c0.2-0.1,0.3-0.2,0.4-0.2L211.6,180.3z"/>
<path d="M202.8,191.3c0.2,0.2,0.3,0.3,0.5,0.4c-0.2,0.1-0.3,0.2-0.5,0.2V191.3z"/>
<path d="M182.6,210.3c0-0.7-0.1-1.4,1-1.3c0.3,0,0.6-0.3,1-0.6v1.2l-0.6,0.6C183.5,210.3,183,210.3,182.6,210.3z"/>
<path d="M202.8,191.3v0.6l-0.6,0.6h-0.6C201.3,191.6,201.7,191.2,202.8,191.3z"/>
<path d="M197.1,197c-0.1,0.4,0.3,1.2-0.6,1.2C196.6,197.8,196.1,197.1,197.1,197z"/>
<path d="M196.4,198.3l-0.6,0.6C196,198.8,196.2,198.6,196.4,198.3z"/>
<path d="M195.8,198.9l-0.6,0.6L195.8,198.9z"/>
<path d="M195.2,199.6l-0.6,0.6C194.8,200,195,199.8,195.2,199.6z"/>
<path d="M181.3,212.2c-0.2,0.2-0.3,0.3-0.4,0.5c-0.1-0.2-0.2-0.3-0.2-0.5H181.3z"/>
<path d="M178.1,213.4l0.6-0.6C178.6,213.1,178.4,213.3,178.1,213.4z"/>
<path d="M194.6,200.2l-0.6,0.6L194.6,200.2z"/>
<path d="M136.5,229.2h3.1v0.6c-2.5,0-5,1-7.6,0.6c0.2-1.2,1.1-0.4,1.7-0.6c0.6-0.2,1.7,0.6,2-0.6H136.5z"/>
<path d="M146,227.3l0.6-0.6c0.4-0.1,1.2,0.3,1.2-0.6h3.1v0.6l-0.6,0.6c-0.6-0.9-1.2-0.9-1.9,0H146z"/>
<path d="M146,227.3h2.5c-0.3,0.2-0.4,0.5-0.8,0.6c-0.6,0-1.2,0-1.7,0V227.3z"/>
<path d="M148.5,227.3c0.6-0.9,1.2-0.9,1.9,0H148.5z"/>
<path d="M145.4,227.9v0.6c-0.6-0.3-1.6,0.6-1.9-0.6H145.4z"/>
<path d="M145.4,227.9h-1.9v-0.6C144.1,227.5,145.1,226.7,145.4,227.9z"/>
<path d="M151.1,226.7v-0.6h1.9C152.6,227.2,151.7,226.5,151.1,226.7z"/>
<path d="M187.6,206.5c0.2,0,0.4-0.1,0.6,0c0.2,0.1,0.4,0.3,0.5,0.4c-0.2,0.1-0.3,0.2-0.5,0.2h-0.6V206.5z"/>
<path d="M173.8,216.6c0.2,0.1,0.4,0.2,0.5,0.3c-0.3,0.1-0.6,0.3-1,0.3c-0.1,0-0.2-0.2-0.3-0.3C173.3,216.8,173.5,216.7,173.8,216.6z
	"/>
<path d="M153,226c0.1-1,0.8-0.5,1.2-0.6C154.1,226.4,153.4,225.9,153,226z"/>
<path d="M183.8,210.3l0.6-0.6L183.8,210.3z"/>
<path d="M173.2,217.5c-0.1,0.1-0.3,0.2-0.3,0.3c0-0.2-0.2-0.3-0.1-0.3c0.1-0.1,0.3-0.1,0.4-0.2V217.5z"/>
<path d="M187.6,207.4c-0.1,0.1-0.3,0.2-0.3,0.3c0-0.2-0.2-0.3-0.1-0.3c0.1-0.1,0.3-0.1,0.4-0.2V207.4z"/>
<path d="M178.1,214.1l-0.6,0.6C177.7,214.5,178,214.3,178.1,214.1z"/>
<path d="M177.5,215c-0.1,0.1-0.3,0.2-0.3,0.3c0-0.2-0.2-0.3-0.1-0.3c0.1-0.1,0.3-0.1,0.4-0.2V215z"/>
<circle cx="142.6" cy="227.6" r="0.4"/>
<path d="M175.9,215.4c0.1,0.2,0.2,0.3,0.2,0.4c0,0.1-0.1,0.2-0.2,0.2c-0.1-0.2-0.2-0.3-0.2-0.4C175.8,215.4,175.9,215.4,175.9,215.4
	z"/>
<path d="M182.6,211.2c-0.1,0.1-0.3,0.2-0.3,0.3c0-0.2-0.2-0.3-0.1-0.3c0.1-0.1,0.3-0.1,0.4-0.2V211.2z"/>
</svg>
