<svg id="Capa_1" enable-background="new 0 0 512.064 512.064" height="512" viewBox="0 0 512.064 512.064" width="512" xmlns="http://www.w3.org/2000/svg"><g><path d="m88.078 461.594v-78.096c0-55.851 18.314-108.449 52.962-152.106 33.609-42.349 80.867-72.763 133.07-85.64 18.372-4.532 36.413-9.309 53.839-14.246-13.8-37.668-34.814-75.291-62.634-112.047l-14.729-19.459c-40.823 44.617-86.766 87.948-140.396 132.418-36.304 30.104-62.012 72.187-72.387 118.497-10.689 47.711-5.061 96.251 16.276 140.373z"/><path d="m470.813 144.256c-23.79 47.656-53.42 94.853-88.439 140.803-36.165 47.454-78.129 93.705-124.727 137.467-42.171 39.605-80.147 69.739-106.884 89.539h14.95c60.109 0 112.89-9.061 156.878-26.93 40.327-16.382 73.564-40.291 98.789-71.063 53.044-64.705 70.547-160.418 49.433-269.816z"/><path d="m358.774 266.532c35.514-46.642 65.26-94.538 88.715-142.803-30.479 11.572-62.678 22.378-96.007 32.206v.001c-.099.029-.201.058-.3.088l-13.803 4.07-.023-.074c-18.136 5.154-36.924 10.138-56.06 14.859-45.789 11.295-87.254 37.988-116.757 75.163-30.395 38.299-46.46 84.447-46.46 133.457v115.253c28.719-20.464 73.161-54.962 119.546-98.576 45.301-42.596 86.061-87.56 121.149-133.644z"/></g></svg>