<?xml version="1.0" encoding="utf-8"?>
<!-- Generator: Adobe Illustrator 22.1.0, SVG Export Plug-In . SVG Version: 6.00 Build 0)  -->
<svg version="1.1" id="_x31__px" xmlns="http://www.w3.org/2000/svg" xmlns:xlink="http://www.w3.org/1999/xlink" x="0px" y="0px"
	 viewBox="0 0 512 512" style="enable-background:new 0 0 512 512;" xml:space="preserve">
<path d="M408,223.3h-4.1c-5.3,0-9.7-4.3-9.7-9.7s4.3-9.7,9.7-9.7h4.1c23.7,0,43.7-16.9,47.7-40.3l11-64.9c0.1-6.5-4.3-10.8-9.6-10.8
	h-42.1c-24.2,0-46.7,13.1-58.8,34.1l-16.4,28.7c-2.7,4.6-8.6,6.2-13.2,3.6c-4.6-2.6-6.2-8.5-3.6-13.2l16.4-28.7
	c15.4-27,44.4-43.8,75.5-43.8H457c16,0,29,13,29,29c0,1.4-0.1,2.8-0.3,4.2l-11,65.1C469.2,199.6,441.1,223.3,408,223.3L408,223.3z"
	/>
<path d="M104.2,223.3H100c-33.2,0-61.2-23.7-66.7-56.4l-11-64.9c-0.2-1.6-0.3-3-0.3-4.4c0-16,13-29,29-29h42.1
	c31.1,0,60.1,16.8,75.5,43.8l16.4,28.7c2.6,4.6,1,10.5-3.6,13.2c-4.6,2.6-10.5,1-13.2-3.6l-16.4-28.7c-12-21-34.5-34.1-58.8-34.1H51
	c-5.3,0-9.7,4.3-9.7,9.7l11,66.1c3.9,23.3,24,40.3,47.7,40.3h4.1c5.3,0,9.7,4.3,9.7,9.7S109.5,223.3,104.2,223.3z"/>
<circle cx="196" cy="223.3" r="19.3"/>
<circle cx="312" cy="223.3" r="19.3"/>
<circle cx="287.8" cy="373.2" r="14.5"/>
<circle cx="220.2" cy="373.2" r="14.5"/>
<path d="M273.3,455.3h-38.7C149.4,455.3,80,385.9,80,300.7c0-6.5,0.4-13,1.2-19.3l3.4-27.6c9-72.4,70.9-127.1,143.9-127.1h51
	c73,0,134.9,54.6,143.9,127.1l3.4,27.6c0.8,6.3,1.2,12.8,1.2,19.3C428,385.9,358.6,455.3,273.3,455.3z M228.5,146
	c-63.3,0-116.9,47.3-124.7,110.1l-3.4,27.6c-0.7,5.5-1,11.2-1,16.9C99.3,375.3,160,436,234.7,436h38.7
	c74.6,0,135.3-60.7,135.3-135.3c0-5.7-0.3-11.4-1-16.9c0,0,0,0,0,0l-3.4-27.6C396.4,193.3,342.7,146,279.5,146H228.5z"/>
<path d="M254,455.3c-53.3,0-96.7-34.7-96.7-77.3s43.4-77.3,96.7-77.3s96.7,34.7,96.7,77.3C350.7,420.6,307.3,455.3,254,455.3z
	 M254,320c-42.6,0-77.3,26-77.3,58s34.7,58,77.3,58s77.3-26,77.3-58S296.6,320,254,320z"/>
</svg>
