<svg viewBox="0 0 512 512" xmlns="http://www.w3.org/2000/svg"><path d="m264.539062 141.195312-8.539062-17.300781-8.539062 17.300781-19.089844 2.769532 13.816406 13.476562-3.265625 19.011719 17.078125-8.976563 17.078125 8.976563-3.265625-19.011719 13.816406-13.476562zm0 0"/><path d="m422 30v-30h-332v30h-90v60c0 65.554688 42.761719 122.855469 104.613281 142.535156 25.871094 57.367188 84.480469 97.464844 151.386719 97.464844 64.457031 0 121.25-37.238281 148.390625-91.253906 60.285156-6.300782 107.609375-56.820313 107.609375-118.746094v-90zm-392 60v-30h60v105c0 10.308594 1.074219 20.355469 2.890625 30.144531-37.933594-20.628906-62.890625-60.441406-62.890625-105.144531zm282.925781 141.300781-56.925781-29.929687-56.925781 29.929687 10.886719-63.402343-46.070313-44.882813 63.648437-9.242187 28.460938-57.667969 28.460938 57.667969 63.648437 9.246093-46.070313 44.878907zm169.074219-111.300781c0 41.046875-27.777344 75.375-65.40625 86.152344 3.40625-13.179688 5.40625-26.921875 5.40625-41.152344v-105h60zm0 0"/><path d="m30 390 30-45 30 45v-130.925781c-22.496094-7.980469-42.847656-19.835938-60-35.238281zm0 0"/><path d="m482 239.234375c-17.527344 13.265625-37.695312 23.1875-60 27.734375v123.03125l30-45 30 45zm0 0"/><path d="m256 360c-10.226562 0-20.195312-1.027344-30-2.554688v94.554688h-45c-16.570312 0-30 13.429688-30 30v30h210v-30c0-16.570312-13.429688-30-30-30h-45v-94.554688c-9.804688 1.527344-19.773438 2.554688-30 2.554688zm0 0"/></svg>