<?xml version="1.0" encoding="iso-8859-1"?>
<!-- Generator: Adobe Illustrator 19.0.0, SVG Export Plug-In . SVG Version: 6.00 Build 0)  -->
<svg version="1.1" id="Capa_1" xmlns="http://www.w3.org/2000/svg" xmlns:xlink="http://www.w3.org/1999/xlink" x="0px" y="0px"
	 viewBox="0 0 512 512" style="enable-background:new 0 0 512 512;" xml:space="preserve">
<g>
	<g>
		<path d="M376,0H136c-8.291,0-15,6.709-15,15v151c0,74.443,60.557,135,135,135s135-60.557,135-135V15C391,6.709,384.291,0,376,0z
			 M326.474,129.306l-24.111,23.496l5.698,33.164c0.967,5.625-1.348,11.309-5.962,14.663c-4.521,3.301-10.662,3.851-15.806,1.143
			l-29.78-15.659l-29.78,15.659c-5.024,2.666-11.147,2.212-15.806-1.128c-4.614-3.369-6.929-9.053-5.962-14.678l5.684-33.164
			l-24.111-23.496c-4.087-3.984-5.552-9.946-3.794-15.366c1.758-5.435,6.46-9.39,12.114-10.21l33.311-4.849l14.897-30.176
			c5.039-10.254,21.855-10.254,26.895,0l14.897,30.176l33.296,4.849c5.654,0.82,10.356,4.775,12.114,10.21
			C332.025,119.359,330.561,125.321,326.474,129.306z"/>
	</g>
</g>
<g>
	<g>
		<path d="M390.546,493.368l-30-90C358.876,396.688,352.885,392,346,392h-45v-67.396c-14.328,4.072-29.385,6.396-45,6.396
			s-30.672-2.324-45-6.396V392h-45c-6.885,0-12.876,4.688-14.546,11.367l-30,90c-1.128,4.482-0.117,9.229,2.725,12.861
			C127.021,509.876,131.386,512,136,512h240c4.614,0,8.979-2.124,11.821-5.771C390.663,502.596,391.674,497.85,390.546,493.368z
			 M286,467h-60c-8.291,0-15-6.709-15-15c0-8.291,6.709-15,15-15h60c8.291,0,15,6.709,15,15C301,460.291,294.291,467,286,467z"/>
	</g>
</g>
<g>
	<g>
		<path d="M468.139,16.04C459.467,5.845,446.825,0,433.466,0H421c0,10.854,0,19.144,0,30h12.466c4.556,0,8.862,2.992,11.821,6.479
			c1.567,1.831,4.043,5.684,3.193,10.928c-4.178,25.86-13.685,50.427-27.48,72.332V166v2.587
			c29.771-32.252,50.034-72.698,57.1-116.391C480.121,39.672,476.489,25.854,468.139,16.04z"/>
	</g>
</g>
<g>
	<g>
		<path d="M78.534,30H91c0-10.856,0-19.146,0-30H78.534C65.175,0,52.533,5.845,43.861,16.04
			c-8.349,9.814-11.982,23.632-9.961,36.142c7.066,43.704,27.328,84.152,57.1,116.404V166v-46.263
			C77.205,97.83,67.698,73.259,63.52,47.392c-0.85-5.229,1.626-9.082,3.193-10.913C69.672,32.992,73.979,30,78.534,30z"/>
	</g>
</g>
<g>
</g>
<g>
</g>
<g>
</g>
<g>
</g>
<g>
</g>
<g>
</g>
<g>
</g>
<g>
</g>
<g>
</g>
<g>
</g>
<g>
</g>
<g>
</g>
<g>
</g>
<g>
</g>
<g>
</g>
</svg>
