<svg viewBox="0 0 512 512" xmlns="http://www.w3.org/2000/svg"><path d="m199.078125 231.296875 56.921875-29.925781 56.921875 29.925781-10.871094-63.386719 46.054688-44.886718-63.644531-9.25-28.460938-57.667969-28.460938 57.671875-63.644531 9.246094 46.054688 44.890624zm48.382813-90.101563 8.539062-17.300781 8.539062 17.300781 19.09375 2.773438-13.816406 13.46875 3.261719 19.015625-17.078125-8.976563-17.078125 8.976563 3.261719-19.015625-13.816406-13.46875zm0 0"/><path d="m30 381.214844 45-45 45 45v-121.71875c21.710938 30.78125 53.710938 53.886718 91 64.339844v98.164062h-15c-24.8125 0-45 20.1875-45 45v45h210v-45c0-24.8125-20.1875-45-45-45h-15v-98.238281c36.84375-10.457031 68.476562-33.429688 90-64.003907v121.457032l45-45 45 45v-181.097656c19.261719-21.261719 31-49.351563 31-80.117188v-90h-91v-30h-331v30h-90v60c0 33.363281 11.023438 64.6875 30 90.003906zm60-72.429688-15-15-15 15v-98.742187c9.324219 7.003906 19.527344 12.964843 30.464844 17.683593h-.464844zm241 158.214844v15h-150v-15c0-8.269531 6.730469-15 15-15h120c8.269531 0 15 6.730469 15 15zm-60-45h-30v-92.679688c4.941406.441407 9.941406.679688 15 .679688s10.058594-.242188 15-.6875zm165-128.214844-15 15v-72.519531c10.628906-2.699219 20.699219-6.796875 30-12.085937v84.605468zm46-233.785156v60c0 41.171875-28.097656 75.972656-66.324219 86.636719 3.472657-13.304688 5.324219-27.257813 5.324219-41.636719v-105zm-362-30h271v135c0 74.4375-60.5625 135-135 135-74.988281 0-136-60.5625-136-135zm-90 30h60v105c0 10.441406.992188 20.652344 2.867188 30.558594-38.042969-20.59375-62.867188-60.777344-62.867188-105.558594zm0 0"/></svg>