<?xml version="1.0" encoding="iso-8859-1"?>
<!-- Generator: Adobe Illustrator 19.0.0, SVG Export Plug-In . SVG Version: 6.00 Build 0)  -->
<svg version="1.1" id="Capa_1" xmlns="http://www.w3.org/2000/svg" xmlns:xlink="http://www.w3.org/1999/xlink" x="0px" y="0px"
	 viewBox="0 0 512 512" style="enable-background:new 0 0 512 512;" xml:space="preserve">
<g>
	<g>
		<path d="M286,422h-60c-8.284,0-15,6.716-15,15s6.716,15,15,15h60c8.284,0,15-6.716,15-15S294.284,422,286,422z"/>
	</g>
</g>
<g>
	<g>
		<path d="M433.473,0C430.799,0,81.2,0,78.527,0C51.015,0,29.569,24.431,33.898,51.19c9.517,58.828,42.628,112.009,91.192,146.822
			c11.073,43.891,43.696,79.296,85.91,94.266V362h-45c-6.883,0-12.883,4.685-14.552,11.362l-30,120
			c-1.12,4.481-0.113,9.229,2.729,12.869C127.02,509.872,131.381,512,136,512h240c4.619,0,8.98-2.128,11.823-5.769
			c2.843-3.641,3.85-8.388,2.729-12.869l-30-120C358.883,366.685,352.883,362,346,362h-45v-69.722
			c42.215-14.97,74.838-50.375,85.911-94.266c48.564-34.814,81.676-87.995,91.192-146.822C482.429,24.452,461.003,0,433.473,0z
			 M121,155.667c-30.281-29.129-50.74-67.56-57.487-109.268C62.123,37.808,69.579,30,78.527,30H121V155.667z M334.288,392l22.5,90
			H155.211l22.5-90H334.288z M241,362v-62.838c4.927,0.547,9.93,0.838,15,0.838c5.07,0,10.073-0.291,15-0.838V362H241z M361,165
			c0,57.897-47.103,105-105,105s-105-47.103-105-105V30h210V165z M448.487,46.399C441.74,88.106,421.282,126.537,391,155.666V30
			h42.473C442.439,30,449.875,37.827,448.487,46.399z"/>
	</g>
</g>
<g>
	<g>
		<path d="M330.267,112.928c-1.765-5.43-6.458-9.388-12.108-10.209l-33.304-4.839L269.96,67.701
			c-2.527-5.12-7.741-8.361-13.451-8.361c-5.709,0-10.924,3.242-13.451,8.361L228.163,97.88l-33.304,4.839
			c-5.65,0.821-10.345,4.779-12.109,10.209c-1.765,5.43-0.293,11.391,3.795,15.376l24.1,23.491l-5.689,33.169
			c-0.965,5.627,1.348,11.315,5.967,14.671c4.62,3.356,10.743,3.799,15.797,1.142l29.788-15.66l29.788,15.66
			c5.101,2.681,11.219,2.184,15.797-1.142c4.619-3.356,6.933-9.043,5.968-14.671l-5.689-33.169l24.099-23.491
			C330.56,124.319,332.032,118.358,330.267,112.928z M275.783,135.817c-3.535,3.446-5.148,8.411-4.314,13.277l1.884,10.986
			l-9.866-5.187c-4.369-2.298-9.591-2.298-13.96,0l-9.866,5.187l1.884-10.986c0.834-4.866-0.779-9.831-4.314-13.277l-7.981-7.78
			l11.031-1.603c4.886-0.71,9.109-3.778,11.294-8.206l4.933-9.996l4.933,9.996c2.185,4.427,6.409,7.496,11.294,8.206l11.03,1.603
			L275.783,135.817z"/>
	</g>
</g>
<g>
</g>
<g>
</g>
<g>
</g>
<g>
</g>
<g>
</g>
<g>
</g>
<g>
</g>
<g>
</g>
<g>
</g>
<g>
</g>
<g>
</g>
<g>
</g>
<g>
</g>
<g>
</g>
<g>
</g>
</svg>
