<?xml version="1.0" encoding="utf-8"?>
<!-- Generator: Adobe Illustrator 22.1.0, SVG Export Plug-In . SVG Version: 6.00 Build 0)  -->
<svg version="1.1" id="图层_1" xmlns="http://www.w3.org/2000/svg" xmlns:xlink="http://www.w3.org/1999/xlink" x="0px" y="0px"
	 viewBox="0 0 512 512" style="enable-background:new 0 0 512 512;" xml:space="preserve">
<style type="text/css">
	.st0{fill:#FF4D4D;}
	.st1{fill:#FF001E;}
	.st2{fill:#FF9F00;}
	.st3{fill:#FFD400;}
	.st4{fill:#FFE470;}
	.st5{fill:#FDBF00;}
</style>
<path class="st0" d="M66.2,188.7v174.5l38.1-38.1l38.1,38.1V233.4L66.2,188.7z"/>
<path class="st1" d="M370.7,230.2v133l38.1-38.1l38.1,38.1V204.5L370.7,230.2z"/>
<path class="st2" d="M370.7,243.8v-25.4c42,0,76.1-34.1,76.1-76.1V91.6h-63.4V66.2H473v76.1C473,198.3,426.6,243.8,370.7,243.8z"/>
<path class="st3" d="M135.4,239.7C79.7,225,40,174.6,40,117V66.2h89.6v25.4H66.2V117c0,46.1,31.1,86.5,75.6,98.2L135.4,239.7z"/>
<path class="st3" d="M231.1,294.6h50.7v153.1h-50.7V294.6z"/>
<path class="st2" d="M256.5,294.6h25.4v153.1h-25.4V294.6z"/>
<path class="st4" d="M117,40v140.4c0,76.9,62.7,139.5,139.5,139.5S396,257.3,396,180.4V40H117z"/>
<path class="st5" d="M396,40v140.4c0,76.9-62.7,139.5-139.5,139.5V40H396z"/>
<path class="st5" d="M334.4,144.9l-53.8-7.9l-24.1-48.7L232.4,137l-53.8,7.9l39.1,38.1l-9.4,53.5l48.2-25.4l48.2,25.4l-9.4-53.5
	L334.4,144.9z"/>
<path class="st2" d="M295.3,182.9l9.4,53.5l-48.2-25.4V88.3l24.1,48.7l53.8,7.9L295.3,182.9z"/>
<path class="st4" d="M345.3,447.6V473H167.7v-25.4c0-14,11.4-25.4,25.4-25.4h126.9C333.9,422.3,345.3,433.7,345.3,447.6z"/>
<path class="st5" d="M345.3,447.6V473h-88.8v-50.7h63.4C333.9,422.3,345.3,433.7,345.3,447.6z"/>
</svg>
