<?xml version="1.0" encoding="utf-8"?>
<!-- Generator: Adobe Illustrator 22.1.0, SVG Export Plug-In . SVG Version: 6.00 Build 0)  -->
<svg version="1.1" id="图层_1" xmlns="http://www.w3.org/2000/svg" xmlns:xlink="http://www.w3.org/1999/xlink" x="0px" y="0px"
	 viewBox="0 0 480 480" style="enable-background:new 0 0 480 480;" xml:space="preserve">
<path d="M361.1,329l10.8,30c1.8,5,1.4,10.6-1.2,15.3c-2.6,4.7-7,8-12.3,9.2c-39.9,8.7-80.6,12.9-121.5,12.5
	c-41,0.4-81.9-3.8-121.9-12.6c-5.1-1.2-9.4-4.5-12-9c-2.6-4.7-3-10.3-1.2-15.4l10.5-29.8C76,338.6,51,352.7,51,371.2
	c0,36.3,95.9,55.8,186,55.8s186-19.5,186-55.8C423,352.6,397.8,338.4,361.1,329z"/>
<path d="M118,371.3c39.1,8.5,79,12.7,119,12.3c40,0.4,79.8-3.7,118.9-12.3c1.7-0.4,3.2-1.5,4-3.1c0.8-1.5,1-3.4,0.4-5l-8-22.1
	c-37.9,7.9-76.6,11.8-115.3,11.5c-38.9,0.3-77.6-3.6-115.7-11.6l-7.8,22.2c-0.6,1.6-0.5,3.5,0.4,5
	C114.8,369.8,116.2,370.9,118,371.3z"/>
<path d="M348,329.4l-52.7-145.9c-1.5-4-2.7-8.1-3.6-12.3l-32.3,25.1l-7.6-9.8l34.1-26.5l-43.5-5.8l1.6-12.3l45.1,6
	c0-4.4,0.3-8.9,0.8-13.3l9.1-72.7c0.3-2.5-0.9-4.9-3.1-6.1c-2.2-1.3-4.9-1-6.9,0.6l-68,54.4c-17.3,13.8-30.3,32.2-37.6,53.1
	l-57.9,165.4c36.7,7.7,74.1,11.4,111.5,10.9C274.3,340.6,311.5,337,348,329.4z M214.2,310.8c-1.9-1.4-2.9-3.7-2.5-6.1l3.2-18.1
	l-13.2-12.8c-1.7-1.6-2.3-4.1-1.6-6.3c0.7-2.3,2.7-3.9,5-4.3l18.2-2.6l8.1-16.5c1.2-2,3.3-3.2,5.6-3.2c2.3,0,4.4,1.2,5.6,3.2
	l8.1,16.5l18.2,2.6c2.4,0.4,4.3,2,5,4.3c0.7,2.2,0.1,4.7-1.5,6.3l-13.2,12.8l3.2,18.1c0.4,2.3-0.6,4.7-2.5,6.1
	c-1.1,0.8-2.3,1.2-3.7,1.2c-1,0-2-0.2-2.9-0.7l-16.2-8.6l-16.2,8.6C218.6,312.4,216.1,312.2,214.2,310.8z"/>
</svg>
