<?xml version="1.0" encoding="utf-8"?>
<!-- Generator: Adobe Illustrator 22.1.0, SVG Export Plug-In . SVG Version: 6.00 Build 0)  -->
<svg version="1.1" id="Capa_1" xmlns="http://www.w3.org/2000/svg" xmlns:xlink="http://www.w3.org/1999/xlink" x="0px" y="0px"
	 viewBox="0 0 60 60" style="enable-background:new 0 0 60 60;" xml:space="preserve">
<g>
	<path d="M6.2,23.5c-0.4,0.6-0.7,1.3-0.7,2.2v9.7c0,2.1,1.7,3.8,3.8,3.8h20.1v6.7c-1.6,0.3-2.9,1.6-3.2,3.2H6.3
		c-0.5,0-0.8,0.4-0.8,0.8s0.4,0.8,0.8,0.8h19.9c0.4,1.9,2,3.3,4,3.3s3.7-1.4,4-3.3h19.9c0.5,0,0.8-0.4,0.8-0.8S54.6,49,54.2,49H34.3
		c-0.3-1.6-1.6-2.9-3.2-3.2v-6.7h20.1c2.1,0,3.8-1.7,3.8-3.8v-9.7c0-0.8-0.3-1.5-0.7-2.2H6.2z M14.2,34.2c-2,0-3.7-1.7-3.7-3.7
		s1.7-3.7,3.7-3.7s3.7,1.7,3.7,3.7S16.2,34.2,14.2,34.2z M32.7,49.9c0,1.4-1.1,2.5-2.5,2.5s-2.5-1.1-2.5-2.5s1.1-2.5,2.5-2.5
		S32.7,48.5,32.7,49.9z M33.5,30.1c-0.5,0-0.8-0.4-0.8-0.8s0.4-0.8,0.8-0.8s0.8,0.4,0.8,0.8S34,30.1,33.5,30.1z M35.2,32.5
		c-0.5,0-0.8-0.4-0.8-0.8c0-0.5,0.4-0.8,0.8-0.8s0.8,0.4,0.8,0.8S35.7,32.5,35.2,32.5z M36.8,30.1c-0.5,0-0.8-0.4-0.8-0.8
		s0.4-0.8,0.8-0.8s0.8,0.4,0.8,0.8S37.3,30.1,36.8,30.1z M38.5,32.5c-0.5,0-0.8-0.4-0.8-0.8c0-0.5,0.4-0.8,0.8-0.8s0.8,0.4,0.8,0.8
		S39,32.5,38.5,32.5z M40.2,30.1c-0.5,0-0.8-0.4-0.8-0.8s0.4-0.8,0.8-0.8s0.8,0.4,0.8,0.8S40.6,30.1,40.2,30.1z M41.8,32.5
		c-0.5,0-0.8-0.4-0.8-0.8c0-0.5,0.4-0.8,0.8-0.8s0.8,0.4,0.8,0.8S42.3,32.5,41.8,32.5z M43.5,30.1c-0.5,0-0.8-0.4-0.8-0.8
		s0.4-0.8,0.8-0.8s0.8,0.4,0.8,0.8S43.9,30.1,43.5,30.1z M45.1,32.5c-0.5,0-0.8-0.4-0.8-0.8c0-0.5,0.4-0.8,0.8-0.8s0.8,0.4,0.8,0.8
		S45.6,32.5,45.1,32.5z M46.8,30.1c-0.5,0-0.8-0.4-0.8-0.8s0.4-0.8,0.8-0.8s0.8,0.4,0.8,0.8S47.2,30.1,46.8,30.1z M48.4,32.5
		c-0.5,0-0.8-0.4-0.8-0.8c0-0.5,0.4-0.8,0.8-0.8s0.8,0.4,0.8,0.8S48.9,32.5,48.4,32.5z"/>
	<path d="M51.2,6.2H9.3c-2.1,0-3.8,1.7-3.8,3.8v9.7c0,0.8,0.3,1.5,0.7,2.2h48.1c0.4-0.6,0.7-1.3,0.7-2.2V10
		C55,7.9,53.3,6.2,51.2,6.2z M14.2,18.5c-2,0-3.7-1.7-3.7-3.7s1.7-3.7,3.7-3.7s3.7,1.7,3.7,3.7S16.2,18.5,14.2,18.5z M33.5,14.4
		c-0.5,0-0.8-0.4-0.8-0.8c0-0.5,0.4-0.8,0.8-0.8s0.8,0.4,0.8,0.8C34.4,14,34,14.4,33.5,14.4z M35.2,16.9c-0.5,0-0.8-0.4-0.8-0.8
		c0-0.5,0.4-0.8,0.8-0.8S36,15.6,36,16C36,16.5,35.7,16.9,35.2,16.9z M36.8,14.4c-0.5,0-0.8-0.4-0.8-0.8c0-0.5,0.4-0.8,0.8-0.8
		s0.8,0.4,0.8,0.8C37.7,14,37.3,14.4,36.8,14.4z M38.5,16.9c-0.5,0-0.8-0.4-0.8-0.8c0-0.5,0.4-0.8,0.8-0.8s0.8,0.4,0.8,0.8
		C39.3,16.5,39,16.9,38.5,16.9z M40.2,14.4c-0.5,0-0.8-0.4-0.8-0.8c0-0.5,0.4-0.8,0.8-0.8s0.8,0.4,0.8,0.8
		C41,14,40.6,14.4,40.2,14.4z M41.8,16.9c-0.5,0-0.8-0.4-0.8-0.8c0-0.5,0.4-0.8,0.8-0.8s0.8,0.4,0.8,0.8
		C42.6,16.5,42.3,16.9,41.8,16.9z M43.5,14.4c-0.5,0-0.8-0.4-0.8-0.8c0-0.5,0.4-0.8,0.8-0.8s0.8,0.4,0.8,0.8
		C44.3,14,43.9,14.4,43.5,14.4z M45.1,16.9c-0.5,0-0.8-0.4-0.8-0.8c0-0.5,0.4-0.8,0.8-0.8s0.8,0.4,0.8,0.8
		C45.9,16.5,45.6,16.9,45.1,16.9z M46.8,14.4c-0.5,0-0.8-0.4-0.8-0.8c0-0.5,0.4-0.8,0.8-0.8s0.8,0.4,0.8,0.8
		C47.6,14,47.2,14.4,46.8,14.4z M48.4,16.9c-0.5,0-0.8-0.4-0.8-0.8c0-0.5,0.4-0.8,0.8-0.8s0.8,0.4,0.8,0.8
		C49.2,16.5,48.9,16.9,48.4,16.9z"/>
</g>
</svg>
