<?xml version="1.0" encoding="utf-8"?>
<!-- Generator: Adobe Illustrator 22.1.0, SVG Export Plug-In . SVG Version: 6.00 Build 0)  -->
<svg version="1.1" id="图层_1" xmlns="http://www.w3.org/2000/svg" xmlns:xlink="http://www.w3.org/1999/xlink" x="0px" y="0px"
	 viewBox="0 0 256 256" style="enable-background:new 0 0 256 256;" xml:space="preserve">
<g id="图层_x0020_1">
	<path d="M178.8,154.9c2.5,0,5.6,3.9-0.1,5.7c-30.8,7.6-74.9,7.6-105.7,0c-5.7-1.8-2.6-5.8-0.1-5.7
		C117.6,160.7,134.2,160.7,178.8,154.9z M96.6,49.9c-7.4-5.6-13.5-6.3-21.8-3.4c-25.9,9.1-31,58.5-34.6,82.5c-1-0.1-2.1-0.3-3.2-0.4
		c-6.7-0.8-11.6,10.4-17.3,17.9c-11.9,15.8,5.7,28,0,38.6c-3,6.6-7.2,13.4-10.2,20.5c-1.4,3.2-0.9,5.2,2,6.2
		c2.2,0.8,4.7-0.9,6.5-4.6c1-2.1,2.1-4.2,3.2-6.3c0.5-1,6.1-12.2,6.1-12.3c3.8-7.6,1.5-13.9-1-20.9c-1.9-5.1-4.4-10.3-0.3-15.7
		c2.4-3.8,7.9-14.4,10.7-14.7c3-0.4,8.4,0.8,11.4,1.5c-7.7,4.2-12.1,8-12.5,16.4c0,7.6,5.3,13,13.3,9.1c2-1.3,8.8-4.7,10.4-1.7
		c0.7,3-2.9,5.5-4.7,7.7c-1.6,2-2.9,4.4-3.5,7.2c-0.9,4.6-2.6,7.3-6,10.5c-4.5,4.1-7.4,19.6-8.8,28.6c-0.3,2,0,4.8,3.1,5.5
		c1,0.2,4,0.5,5.2-4.7c2.1-9.4,3.8-21,5.8-22.9c0.7-0.7,5.2-4.3,7.7-10.6c9.2,7.9,25.2,21.1,35.8,26.5l0,0l0,0
		c19.1,9.7,44.9,9.7,64,0l0,0l0,0c10.6-5.4,26.6-18.6,35.8-26.5c2.5,6.3,7,10,7.7,10.6c2,2,3.7,13.5,5.8,22.9c1.2,5.2,4.2,5,5.2,4.7
		c3.1-0.8,3.4-3.6,3.1-5.5c-1.4-9-4.3-24.5-8.8-28.6c-3.5-3.2-5.1-5.9-6-10.5c-0.6-2.9-1.9-5.2-3.5-7.2c-1.8-2.1-5.4-4.7-4.7-7.7
		c1.6-3,8.5,0.4,10.4,1.7c8,3.9,13.3-1.5,13.3-9.1c-0.4-8.4-4.8-12.2-12.5-16.4c3-0.7,8.4-1.9,11.4-1.5c2.7,0.4,8.3,10.9,10.7,14.7
		c4.1,5.5,1.6,10.7-0.3,15.7c-2.6,6.9-4.8,13.2-1,20.9c0.1,0.1,5.6,11.4,6.1,12.3c1.1,2.1,2.2,4.2,3.2,6.3c1.8,3.6,4.3,5.3,6.5,4.6
		c2.8-1,3.4-3,2-6.2c-3-7.1-7.2-13.9-10.2-20.5c-5.7-10.5,11.9-22.8,0-38.6c-5.7-7.5-10.6-18.7-17.3-17.9c-1.1,0.1-2.2,0.3-3.2,0.4
		c-3.6-23.9-8.7-73.4-34.6-82.5c-8.3-2.9-14.4-2.2-21.8,3.4c-11.8,9-19.3,20.4-24.1,34.5c-3.3-0.2-7.1-0.2-10.4,0
		C115.8,70.3,108.4,58.9,96.6,49.9L96.6,49.9z M60.9,175.9c1.3-1.7,3.1-3.2,5-5.5c2.9-7,2.8-13.2-5.1-16.4
		c-4.8-1.1-11.3-0.5-16.5,3.2c-0.6-1.6-0.5-3.1,0-4.8c3.8-5,6.8-6.1,12.2-8.4c3.1-1.3,9.2-6.2,12.5-12.7l0.3-0.3
		c2.9-8.1,7.6-15.4,13.6-21.4c22.8-22.8,63-22.8,85.8,0c6,6,10.7,13.3,13.6,21.4l0.3,0.3c3.3,6.5,9.5,11.4,12.5,12.7
		c5.4,2.3,8.4,3.3,12.2,8.4c0.5,1.7,0.6,3.2,0,4.8c-5.2-3.7-11.7-4.4-16.5-3.2c-8,3.1-8,9.4-5.1,16.4c2,2.3,3.8,3.8,5,5.5
		C138.1,220.5,113.6,220.5,60.9,175.9L60.9,175.9z M66.6,117.3c-1.6,2.7-3,5.6-4.2,8.5c-1.7,3.6-3.3,6.1-5.4,8
		c-1.6-1.7-3.9-2.6-8-3.5c2.1-15.9,7.2-67.7,29.5-76.1c3.5-1.3,7.3-0.7,10.5,1c10.6,5.7,17.9,19.7,22.1,30.4
		C92.3,89.4,76.4,100.9,66.6,117.3z M80.2,100.9c0.2-1,0.4-2,0.7-3L80.2,100.9z M111.7,125.9c-7.5,1-35.9,5.5-35.3,11.3
		c0.5,0.4,1.8,0.6,3.7,0.7c8.7,0.1,29-3.3,32.5-3.6c2.2-0.2,3.7-2.4,3.4-4.7l0,0C115.8,127.3,113.8,125.6,111.7,125.9z M185.1,117.3
		c1.6,2.7,3,5.6,4.2,8.5c1.7,3.6,3.3,6.1,5.4,8c1.6-1.7,3.9-2.6,8-3.5c-2.1-15.9-7.2-67.7-29.5-76.1c-3.5-1.3-7.3-0.7-10.5,1
		c-10.6,5.7-17.9,19.7-22.1,30.4C159.4,89.4,175.4,100.9,185.1,117.3z M171.6,100.9c-0.2-1-0.4-2-0.7-3L171.6,100.9z M140,125.9
		c7.5,1,35.9,5.5,35.3,11.3c-0.5,0.4-1.8,0.6-3.7,0.7c-8.7,0.1-29-3.3-32.5-3.6c-2.2-0.2-3.7-2.4-3.4-4.7l0,0
		C135.9,127.3,137.9,125.6,140,125.9L140,125.9z"/>
</g>
</svg>
