<?xml version="1.0" encoding="utf-8"?>
<!-- Generator: Adobe Illustrator 22.1.0, SVG Export Plug-In . SVG Version: 6.00 Build 0)  -->
<svg version="1.1" id="图层_1" xmlns="http://www.w3.org/2000/svg" xmlns:xlink="http://www.w3.org/1999/xlink" x="0px" y="0px"
	 viewBox="0 0 512 512" style="enable-background:new 0 0 512 512;" xml:space="preserve">
<path d="M385.8,201.8c-1.6-2.8-4.6-4.6-7.9-4.6H259.4l19.9-151.9c0.5-5-3.1-9.5-8.1-10c-3.4-0.4-6.7,1.2-8.6,4.1L118.3,292.1
	c-2.6,4.3-1.3,9.8,3,12.5c1.4,0.9,3.1,1.3,4.7,1.3h116.8L227.1,458c-0.4,5,3.4,9.4,8.4,9.8c3.4,0.3,6.6-1.4,8.4-4.2l141.8-252.6
	C387.4,208.1,387.4,204.7,385.8,201.8L385.8,201.8z"/>
</svg>
