<?xml version="1.0" encoding="utf-8"?>
<!-- Generator: Adobe Illustrator 22.1.0, SVG Export Plug-In . SVG Version: 6.00 Build 0)  -->
<svg version="1.1" id="Capa_1" xmlns="http://www.w3.org/2000/svg" xmlns:xlink="http://www.w3.org/1999/xlink" x="0px" y="0px"
	 viewBox="0 0 124.1 124.1" style="enable-background:new 0 0 124.1 124.1;" xml:space="preserve">
<g>
	<path d="M93,17.7L66.7,44l13.2,13.2l26.4-26.3c3.6-3.6,3.6-9.6,0-13.2C102.6,14.1,96.7,14.1,93,17.7z"/>
	<path d="M75.1,62.2L61.8,48.9l-2.2-2.2c-1-1-1.4-2.4-1-3.7c0.6-2.3,0.9-4.8,0.6-7.4c-0.2-2.9-1-5.7-2.3-8.2c-1.2-2.5-3-4.7-5.1-6.6
		c-2.1-1.9-4.6-3.3-7.2-4.3c-3.5-1.2-7.2-1.5-10.8-1c-1.9,0.3-2.6,2.6-1.2,4l9.1,9.1c3.6,3.6,3.9,9.8,0.2,13.5
		c-1.9,1.9-4.3,2.7-6.7,2.7c-2.4,0-4.8-0.9-6.7-2.8l-9.3-9.1c-0.5-0.5-1.1-0.7-1.6-0.7c-1.1,0-2.2,0.8-2.3,2c-0.2,1-0.2,2-0.2,3
		c-0.2,11,9,21.4,20.1,22.4c0.7,0.1,1.4,0.1,2.1,0.1c1.9,0,3.7-0.2,5.5-0.7c1.4-0.3,2.8,0.1,3.8,1.1l2.1,2.1l3.7,3.7l5.5,5.5l4,4
		l30.1,30.1c1.9,1.9,4.3,2.8,6.7,2.8c2.4,0,4.8-0.9,6.7-2.8c3.6-3.6,3.6-9.6,0-13.2L75.1,62.2z"/>
	<path d="M36.6,97l-0.2-1.9c-0.1-1,0.3-1.9,1-2.6l9.1-9.1c0.2-0.2,0.6-0.2,0.9,0c1.9,1.9,4.8,1.9,6.7,0l3-3l-3.7-3.7l-2.9-2.9
		l-2.9-2.9L43.7,67l-3,3c-1.9,1.9-1.9,4.8,0,6.7c0.2,0.2,0.2,0.6,0,0.9l-9.1,9.1c-0.7,0.7-1.6,1.1-2.6,1L27,87.5
		c-0.8-0.1-1.5,0.2-2,0.9l-11.5,14.1c-0.8,0.9-0.7,2.3,0.2,3.2l2.4,2.4l2.4,2.4c0.9,0.9,2.2,0.9,3.2,0.2l14.1-11.5
		C36.3,98.5,36.6,97.8,36.6,97z"/>
</g>
</svg>
