<svg id="图层_1" data-name="图层 1" xmlns="http://www.w3.org/2000/svg" viewBox="0 0 534.74 506.53" style="fill:#ffffff;"><path class="cls-1" d="M367.09,422.78c-6,22.83-13.59,31-28.3,31.32-17.9.34-25.22-6.26-32.15-29.33H292.41c-59.82.18-119.64.48-179.45.41-8.91,0-15.15.23-18.33,11.25-3.68,12.82-15.51,18.5-28.81,17.44-12.71-1-21.29-8-24.55-21.2-1.33-5.44-3.14-7.79-9.08-7.32-6.61.54-13.35-.65-20-.14-17.62,1.37-31.83-6.15-44.45-17-23.54-20.3-34-46.83-34.06-77.43q-.3-94.72.07-189.46c0-16.29-1-32.84,1.52-48.81C-59.34,57.77-38.77,35-5.24,24.14a28.88,28.88,0,0,1,8.36-1q54-.57,108-1h6.53c-1.49-1.69-2.31-2.77-3.27-3.71Q93-2.34,71.69-23.06c-6-5.85-6.37-12.53-1-19A28,28,0,0,1,73.43-45c10.72-9.87,13.56-10,24,.09,21.92,21.19,43.65,42.58,65.64,63.7A12.5,12.5,0,0,0,170.79,22c20.16.35,40.32.23,60.48.5a12.28,12.28,0,0,0,9.64-3.89q32.1-31.51,64.5-62.72c8.77-8.42,11.16-8.33,20.62-.43a32.23,32.23,0,0,1,6.1,6.52c3.78,5.57,3,11.56-1.78,16.24Q309.74-1.78,289,18.12a31.45,31.45,0,0,1-4.5,3.05l1,1.73h7.23q52.72.39,105.46.84a22.63,22.63,0,0,1,7.32,1.18c35.29,12.69,56.25,37.32,61.5,74.7a143.07,143.07,0,0,1,1,19.43c.16,72.15.59,144.3.14,216.44-.16,25.06-8.74,47.81-26.23,66.27C428.42,416,411.88,424,391.61,422.86,383.48,422.41,375.31,422.78,367.09,422.78ZM203.66,78.17h-187C1.33,78.18-7,86.57-7,102V349c0,15.45,8.37,23.91,23.66,23.91h374c15.38,0,23.65-8.34,23.65-23.86q0-123.48,0-247c0-15.82-8.15-23.88-24.1-23.89Z" transform="translate(66.39 52.42)"/><path class="cls-2" d="M370.54,212.76,259.63,191.38c2.88-13.92,5.69-27.51,8.68-42l111.51,21.36C376.7,184.87,373.68,198.57,370.54,212.76Z" transform="translate(66.39 52.42)"/><path class="cls-2" d="M32.53,170.75l111.76-21.38c2.84,14.09,5.57,27.68,8.45,42L42.15,212.78C39,198.86,35.81,185.06,32.53,170.75Z" transform="translate(66.39 52.42)"/><path class="cls-3" d="M134.42,286.7l17.73-11.51c3.42,3.66,6.39,7.49,10,10.59,8,6.9,17.31,7.35,24.69-.15,6.9-7,12.28-15.49,18.35-23.36a45,45,0,0,0,2.62,4.69c3.57,5.19,6.75,10.78,11,15.31,9.59,10.16,21,10.7,32.11,2.07,3.13-2.44,5.84-5.41,9-8.41L276,286.26C259.31,315,231.82,319.9,204.91,299c-2.42,2-4.82,4.24-7.42,6.21-10.38,7.86-21.72,9.6-33.86,4.76C151.74,305.25,142.56,297.06,134.42,286.7Z" transform="translate(66.39 52.42)"/></svg>
