<?xml version="1.0" standalone="no"?><!DOCTYPE svg PUBLIC "-//W3C//DTD SVG 1.1//EN" "http://www.w3.org/Graphics/SVG/1.1/DTD/svg11.dtd"><svg t="1747530106125" class="icon" viewBox="0 0 1024 1024" version="1.1" xmlns="http://www.w3.org/2000/svg" p-id="3603" width="40" height="40" xmlns:xlink="http://www.w3.org/1999/xlink"><path d="M402.6784 258.8672C451.328 171.6224 475.6352 128 512 128c36.3648 0 60.672 43.6224 109.3216 130.8672l12.5952 22.5792c13.824 24.8064 20.736 37.2096 31.488 45.3888 10.752 8.1792 24.192 11.2128 51.072 17.28l24.4192 5.5296c94.464 21.3888 141.6544 32.0672 152.9056 68.2016 11.2128 36.096-20.9664 73.7664-85.36 149.0688l-16.6656 19.4688c-18.2784 21.3888-27.456 32.1024-31.5648 45.312-4.1088 13.248-2.7264 27.5328 0.0384 56.064l2.5344 25.9968c9.7152 100.4928 14.592 150.72-14.8224 173.0336-29.4112 22.3104-73.648 1.9584-162.0448-38.7488l-22.9216-10.5216c-25.1136-11.5968-37.6704-17.3568-50.9952-17.3568s-25.8816 5.76-50.9952 17.3568l-22.8832 10.5216c-88.4352 40.7072-132.672 61.0592-162.048 38.7872-29.4496-22.352-24.576-72.5792-14.8576-173.072l2.5344-25.9584c2.7648-28.5696 4.1472-42.8544 0-56.064-4.0704-13.248-13.248-23.9616-31.5264-45.312l-16.6656-19.5072c-64.3936-75.264-96.576-112.9344-85.36-149.0688 11.2128-36.1344 58.48-46.8512 152.944-68.2016l24.4224-5.5296c26.8384-6.0672 40.24-9.1008 51.0304-17.28 10.7904-8.1792 17.664-20.5824 31.488-45.3888l12.5952-22.5792z" fill="#D9D9D9" p-id="3604"></path></svg>