<svg id="图层_1" data-name="图层 1" xmlns="http://www.w3.org/2000/svg" viewBox="0 0 400 400"><defs><style>.cls-1{fill:#fe7600;}.cls-2{fill:#fe7c0d;}.cls-3{fill:#231915;}.cls-4{fill:#231814;}.cls-5{fill:#221b1b;}.cls-6{fill:#321e12;}.cls-7{fill:#1b1213;}.cls-8{fill:#e6e6e6;}.cls-9{fill:#f1ac00;}.cls-10{fill:#f8d236;}.cls-11{fill:#f7d135;}.cls-12{fill:#f7d236;}.cls-13{fill:#fa7600;}.cls-14{fill:#efab00;}.cls-15{fill:#eeab01;}.cls-16{fill:#0f0812;}.cls-17{fill:#140b09;}.cls-18{fill:#0a0606;}.cls-19{fill:#270605;}.cls-20{fill:#372008;}.cls-21{fill:#fa7500;}.cls-22{fill:#f87500;}</style></defs><title>douyu</title><path class="cls-1" d="M60.94.78h4.68a22.43,22.43,0,0,0,4.06.75q131.1.06,262.21,0a22.17,22.17,0,0,0,4.05-.75h3.9c1.41.45,2.8,1,4.23,1.35C372.82,8.8,391,26.43,398.89,54.82c.64,2.3,1.26,4.6,1.89,6.9v3.9a22.43,22.43,0,0,0-.75,4.06q-.06,131.1,0,262.21a22.17,22.17,0,0,0,.75,4.05v4.68a27.29,27.29,0,0,0-1.4,3.81,70.3,70.3,0,0,1-55.31,55,38.32,38.32,0,0,0-4.23,1.33h-4.68a22.27,22.27,0,0,0-4.06-.75Q200.39,400,69.68,400a22.43,22.43,0,0,0-4.06.75H60.94a21.23,21.23,0,0,0-3.41-1.32,70.27,70.27,0,0,1-55.35-55,26.28,26.28,0,0,0-1.4-3.79v-4.68a22.17,22.17,0,0,0,.75-4.05q.06-131.11,0-262.21a22.43,22.43,0,0,0-.75-4.06V60.94a25.86,25.86,0,0,0,1.33-3.41Q12.7,12.7,57.53,2.11A25.86,25.86,0,0,0,60.94.78ZM303.16,117.72l1.72-1.12c11.59-7.29,24-11.66,37.91-11.41,4.1.07,5.3-2.51,3.35-6.34-10.74-21-35.6-34-59-30.57-6.79,1-13.49,2.46-19.13,6.79l-5.51-3.16a33.72,33.72,0,0,0-2.69-2.22C241.21,57.24,220.63,52.82,198.5,55A86.22,86.22,0,0,0,162,66.85c-10,6.06-19.12,14-27.37,22.37-17.57,17.78-30,39.11-40,61.94-1.13,2.59-1.14,4.86,1.61,6.37,10.94,6,22.46,10.22,35,11.21l4.59.92-6.92,6.13-.78.81-1.86,2.34a26.28,26.28,0,0,1-3.7.64c-4.29.14-8.59-.05-12.86.25-9.92.71-19.61,2.53-28.34,7.63-12.21,7.13-13.69,18.68-3.25,28.13,3.86,3.5,8.82,5.79,13.27,8.63,8.74,4.59,18.11,6.79,27.75,7.73L93.28,221.69c-4.58-3.58-9.7-6.67-13.61-10.88-6-6.48-5.13-13.24,2.51-17.56a66.82,66.82,0,0,1,18.47-6.81c7.08-1.54,14.47-1.62,21.35-2.3-5.16,31.9,13,48.6,37.07,62-4,.75-7.81,1.68-11.65,2.13-4.13.49-6.82,3.81-10.17,5.09a57,57,0,0,0-25.88,19.31c-10.41-14.57-16.87-19-28.55-19.61l-29.72,0c-3.87.78-5.62,3.44-6.12,7.08-3.09,22.33-6.24,44.65-9,67-.28,2.27,1.63,4.82,2.52,7.24,1.33.71,2.67,2,4,2,9.66,0,19.33-.27,29-.46,13.9-1.24,24.34-8.41,32.52-19.45,7.93,13.24,16.27,19.3,27.61,20.25l14.06-.07c12.29-1.45,21.63-8.06,29.79-17.32,2.88,6.49,6.57,11.85,12.89,14.9,18,8.68,41.27,1.12,49.59-17,3.06-6.68,3.79-14.46,5.3-21.8.94-4.54,1.34-9.2,2-13.81A87.55,87.55,0,0,1,254,295.09a12.72,12.72,0,0,1,.85,5.91c-1,8.79-2.18,17.55-3.31,26.32,0,1,.07,2.09.1,3.14l2.34,3.91c1.46.73,2.89,2,4.39,2.09a119.06,119.06,0,0,0,14,0c1.51-.09,2.94-1.36,4.41-2.08,1-1.91,2.43-3.72,2.78-5.73,1.23-7.17,2.67-14.39,2.94-21.63.4-10.56,8.66-16.15,13.63-25-.86,10-1.71,18.71-2.35,27.47a26.35,26.35,0,0,0,15.38,25.3c22.07,9.51,47.59-3.59,51.84-27.18,2.75-15.21,4.41-30.63,6.42-46,.57-4.29-1.32-6.84-5.66-8.54l-16.43,0c-4.07.9-5.59,3.87-6.1,7.61-1.64,12.12-3.2,24.25-4.94,36.35a33.21,33.21,0,0,1-2.19,8.61c-1.25,2.83-5.6,4.22-8.08,3-2.8-1.35-2.05-3.86-1.74-6.16q2.73-20.1,5.48-40.21c.79-5.89-2.89-9.69-8.8-9.23a12.37,12.37,0,0,1-3-.69c1.82-.94,3-1.49,4.08-2.11a25.38,25.38,0,0,0,12.21-27.64c-3.44-15-20.11-24.75-36.59-16.8-.18-.19-.36-.37-.55-.55.41-.8.81-1.61,1.23-2.4,6.68-12.4,11.51-25.36,12.3-39.58l0-19.55q-2-9.37-4-18.75Q303.88,121.35,303.16,117.72Z" transform="translate(-0.78 -0.78)"/><path class="cls-2" d="M335.94.78a22.17,22.17,0,0,1-4.05.75q-131.11.06-262.21,0A22.43,22.43,0,0,1,65.62.78Z" transform="translate(-0.78 -0.78)"/><path class="cls-2" d="M.78,65.62a22.43,22.43,0,0,1,.75,4.06q.06,131.1,0,262.21a22.17,22.17,0,0,1-.75,4.05Z" transform="translate(-0.78 -0.78)"/><path class="cls-2" d="M400.78,335.94a22.17,22.17,0,0,1-.75-4.05Q400,200.77,400,69.68a22.43,22.43,0,0,1,.75-4.06Z" transform="translate(-0.78 -0.78)"/><path class="cls-2" d="M65.62,400.78a22.43,22.43,0,0,1,4.06-.75q130.71-.06,261.42,0a22.27,22.27,0,0,1,4.06.75Z" transform="translate(-0.78 -0.78)"/><path class="cls-3" d="M304.58,125q2,9.38,4,18.75l0,19.55c-.79,14.22-5.62,27.18-12.3,39.58-.42.79-.82,1.6-1.23,2.4-.11.27-.23.54-.34.8l.89-.25c16.48-8,33.15,1.76,36.59,16.8A25.38,25.38,0,0,1,320,250.27c-1.11.62-2.26,1.17-4.08,2.11a12.37,12.37,0,0,0,3,.69c5.91-.46,9.59,3.34,8.8,9.23q-2.73,20.1-5.48,40.21c-.31,2.3-1.06,4.81,1.74,6.16,2.48,1.19,6.83-.2,8.08-3a33.21,33.21,0,0,0,2.19-8.61c1.74-12.1,3.3-24.23,4.94-36.35.51-3.74,2-6.71,6.1-7.61l16.43,0c4.34,1.7,6.23,4.25,5.66,8.54-2,15.34-3.67,30.76-6.42,46-4.25,23.59-29.77,36.69-51.84,27.18a26.35,26.35,0,0,1-15.38-25.3c.64-8.76,1.49-17.51,2.35-27.47-5,8.86-13.23,14.45-13.63,25-.27,7.24-1.71,14.46-2.94,21.63-.35,2-1.82,3.82-2.78,5.73l-22.81,0-2.34-3.91c0-1-.07-2.1-.1-3.14,1.13-8.77,2.35-17.53,3.31-26.32a12.72,12.72,0,0,0-.85-5.91,87.55,87.55,0,0,0-6.76-13.48c-.64,4.61-1,9.27-2,13.81-1.51,7.34-2.24,15.12-5.3,21.8-8.32,18.17-31.56,25.73-49.59,17-6.32-3-10-8.41-12.89-14.9-8.16,9.26-17.5,15.87-29.79,17.32l-14.06.07c-11.34-.95-19.68-7-27.61-20.25-8.18,11-18.62,18.21-32.52,19.45A32.43,32.43,0,0,0,69,335.2c-9.52-.31-19.05-.55-28.57-.81-.89-2.42-2.8-5-2.52-7.24,2.8-22.37,6-44.69,9-67,.5-3.64,2.25-6.3,6.12-7.08a6.3,6.3,0,0,0,2.07.79q12.78.09,25.56,0a6.7,6.7,0,0,0,2.09-.76c11.68.62,18.14,5,28.55,19.61a57,57,0,0,1,25.88-19.31c3.35-1.28,6-4.6,10.17-5.09,3.84-.45,7.63-1.38,11.65-2.13-24-13.43-42.23-30.13-37.07-62-6.88.68-14.27.76-21.35,2.3a66.82,66.82,0,0,0-18.47,6.81c-7.64,4.32-8.53,11.08-2.51,17.56,3.91,4.21,9,7.3,13.61,10.88-.62.85-1.25,1.69-1.88,2.53-4.45-2.84-9.41-5.13-13.27-8.63-10.44-9.45-9-21,3.25-28.13,8.73-5.1,18.42-6.92,28.34-7.63,4.27-.3,8.57-.11,12.86-.25a26.28,26.28,0,0,0,3.7-.64l1.86-2.34.78-.81.94,3.49a9.22,9.22,0,0,0,2.5,1.66c6,1.48,12.21,2.46,18.1,4.35,3.18,1,4.89.21,7-1.81,4.5-4.22,9.23-8.2,13.91-12.23a35.31,35.31,0,0,1,3.24-2.19c-12.63-3.46-24.37-3.3-35.74,2.35-.64-.37-1.67-.61-1.86-1.15-1.23-3.48-3.47-2.56-5.8-1.52-12.55-1-24.07-5.2-35-11.21-2.75-1.51-2.74-3.78-1.61-6.37,10-22.83,22.46-44.16,40-61.94C142.91,80.86,152,72.91,162,66.85A86.22,86.22,0,0,1,198.5,55c22.13-2.15,42.71,2.27,61.33,14.72a33.72,33.72,0,0,1,2.69,2.22v2.28c-2.94-1.45-5.5-3-8.23-4a44.45,44.45,0,0,0-6.63-1.45l-15.58-4-3.17-.62-12.43-1-14.18.06-1.51,0-4,.75-1.52.1-2.39.68-4.46.59,9.92,10.45.51.66.37.76.62,1.68a1.69,1.69,0,0,1,.15.7L201.18,81h-.07l1.37,5v3c0,1.86,0,3.72,0,5.58-.06.77-.12,1.54-.17,2.3-.1.08-.28.21-.26.24a4.34,4.34,0,0,0,.33.54c-1.73,7.57-5.33,13.67-12.3,17.8-18.19,10.79-39-.73-42.56-19-.46-2.34-.53-4.77-.85-7.84-20,17.87-32.65,40-44,63.45A86.25,86.25,0,0,0,146,161.79c24.45-.85,45.08-10.73,61.65-28.19,6.37-6.71,10.2-15.83,15.19-23.86.74-1.19,1.43-2.41,2.14-3.62l5.14.27a.35.35,0,0,1,.26.32l1.65,5.78a1.57,1.57,0,0,1,.08.68l.72,2.45c0,.47.05.95.07,1.43l.7,2.47.15,3.08.66,2.4c0,1,0,2.07.07,3.11-.23,1.07-.46,2.14-.68,3.21-.07,1.28-.13,2.57-.2,3.85l-.7,2.47c0,.48-.05,1-.07,1.43l-.72,2.44a1.82,1.82,0,0,1-.08.69c0,.51,0,1,0,1.54-3.55,12.39-11.06,21.89-21.5,29.2-3.21,2.25-6.52,4.35-9.34,6.23l8.24,9.14c.29,1.1.57,2.2.86,3.3l-3.17,2.93-2.2,1.77,0,0-3.23,2.31.05,0-1.52,1,.06-.05-2.55,1.43-3.12,1.57-2.26,1.1-14.8,4.52c8.72,8.39,24.45,12.59,38.38,10.34,14.1-2.28,24.44-10.36,33.22-21l1,3.46,0,0c-.11,0-.33.09-.32.12a2.37,2.37,0,0,0,.11.58c-2.82,3.95-5,8.71-8.62,11.67-5,4.05-10.94,6.89-16.67,9.9-1.84,1-3.16,1.62-3.68,3.89-1.49,6.44-5.28,11.47-10.27,15.73-3.08,2.64-6,5.5-8.86,8.18H158.29l-.12.72,35.38,14.19c.46,13,11.78,22.12,13.51,36,8.67-11.9,12.92-23.92,11.41-38.33l-8.84,4.28-.93-.8c1.25-1.9,2.51-3.8,3.75-5.71,3.36-5.17,9-6.73,14.21-8.93,17-7.13,32.45-16.71,45.39-30.1a123.41,123.41,0,0,0,25.07-37.83c.42-.26,1.14-.44,1.23-.8q3.16-11.49,6.13-23c.07-.26-.8-.77-1.23-1.16.25-2.87.51-5.74.76-8.61a6.54,6.54,0,0,0-.05-8.58c-.13-1-.25-2-.37-3,1.56-1.75,2.11-3.41-.4-4.83-.06-.51-.11-1-.17-1.54l-.57-2.36-.39-2.22c.35-.83.71-1.66,1.07-2.49ZM245.31,252.31l-1,.14,1,.67c4.84.25,9.68.69,14.52.71a8.16,8.16,0,0,1,7.78,4.7,45.92,45.92,0,0,0,3.19,4.59l2.34,4.4L283.4,254.6l11.94-.71a23.36,23.36,0,0,0,3.85-.24c.51-.11.85-1,1.26-1.59l-2-.47c-11.05-3.78-16-12.81-15.88-29a11.5,11.5,0,0,0-1.26,1,142.43,142.43,0,0,1-34.46,27.23,8.64,8.64,0,0,0-1.55,1.48Zm-51.56-97.63-1.31,1,2.43,1.28.22-.11.21.14,8.94,3.88.23-.12.21.15,2.36.84-1.88-14.59ZM182.84,301.57l-.83,3.9.1,1.59,0,3.85c0,.53-.08,1.06-.11,1.59,1,2.47,1.95,5,3.12,7.41,2.14,4.37,5.42,7.7,10.14,9.13,18.88,5.68,38.73-2.24,42.06-24.91,1.42-9.64,2.66-19.3,4-28.95.68-5.09,1.32-10.19,2-15.81-3.69,0-6.79.23-9.84-.05-4.51-.42-6.35.6-6.07,6.29l-.75,2.41c0,.76-.08,1.53-.13,2.29-.24,1.09-.48,2.17-.73,3.25l0,2.22-.73,3.27,0,3.74a12.64,12.64,0,0,0-1.55,11.78l-.79,5.41-.76,2.41-.15,1.52c-.09.08-.27.2-.26.23a3.7,3.7,0,0,0,.31.55,13.71,13.71,0,0,1-16.68,10.75c-4.12-.95-7.5-4.62-7-8.2,1.38-9.25-2-17-7.12-24.28a60,60,0,0,0-5-5.58l-.16,1.53c-.23,1.55-.47,3.11-.71,4.66l-.12,1.57-.75,3.15-.6,2.86c-.06.87-.11,1.74-.17,2.6-.17.7-.35,1.4-.52,2.1l-.15,4.91ZM104.78,275l-1-2.05-1.73-2.67c-6.34-7.94-14.77-11.08-24.71-10.93-6.38.09-12.76.24-19.12-.08-3.52-.17-4.66,1-5.1,4.39-2.68,20.64-5.58,41.25-8.33,61.88-.19,1.41.33,2.92.51,4.38.68.44,1.35,1.25,2,1.26q10,.15,20.09,0c.69,0,1.37-.81,2.05-1.25,18.47-1.77,30.6-11.39,36.15-29.17l2.93-5.18c0,3.08-.39,6.36.12,9.49.42,2.56,1.91,4.95,2.92,7.42l1,2.31-.37.48.87.33a.54.54,0,0,1,.25.6l.6.94c1.89,2.41,3.33,5.49,5.74,7.13,16.42,11.15,35.87,6.59,47.17-3.64a44.79,44.79,0,0,0,13.21-22l.38-1.74c0-4.45.66-9,0-13.33-1.75-11.87-8.58-19.94-20.08-23.42-14.53-4.39-27.2.19-38.15,9.7-6.19,5.37-9.23,13-11.48,20.78L108.59,292c0-2.23.4-4.51-.09-6.59C107.67,281.79,108.64,277.49,104.78,275Zm93.67-49.26c-12-1.49-21.88-7.11-30.06-15.81-1.83-1.95-4.94-3.79-3.37-7.2s4.8-1.74,7.34-1.69a58.69,58.69,0,0,0,34.83-10.27c-5.64-7.77-17.37-16.64-25.47-19.17a5.11,5.11,0,0,0-3.57.45c-21.56,11.69-33.53,29.71-35.34,54.24a6.14,6.14,0,0,0,2.12,4.43,62.25,62.25,0,0,0,27.25,12.85c9.61,1.92,19.15,1.79,28.31-2.27a27,27,0,0,0,13.91-13.06c.31-.64-.22-1.67-.36-2.53Zm122.84,33.62c-4.27,0-8,.15-11.73-.05-2.54-.14-3.35.81-3.61,3.27-.67,6.21-1.66,12.38-2.51,18.57-1.11,8.12-2.31,16.24-3.32,24.37-1.24,10,3.44,19.34,11.31,23,17.62,8.07,39.44-2.6,42.93-21.65,2.71-14.84,4.3-29.88,6.22-44.85a3.33,3.33,0,0,0-2.1-2.49c-3-.3-6,.07-9-.17-2.73-.22-3.55.92-3.87,3.45-1.61,12.52-3.28,25-5.14,37.53a27.39,27.39,0,0,1-2.73,8.84c-3,5.45-10.17,7.93-15.91,6-5-1.66-7.14-6-6.27-13.17s1.87-13.93,2.81-20.9S320.28,267,321.29,259.37Zm-63.5,70.17h14.92c1.29-9.38,2.39-18.67,3.94-27.88a21.36,21.36,0,0,1,3.36-8.43c7-10,14.33-19.82,21.5-29.72a42.63,42.63,0,0,0,2.28-4.14c-5,0-9.18-.2-13.28.11a6.84,6.84,0,0,0-4.44,2.24c-3.89,4.88-7.45,10-11.16,15-.88,1.19-1.88,2.28-3.31,4-3-6.63-5.64-12.53-8.38-18.38-.51-1.09-1.43-2.78-2.24-2.82-5-.26-10-.13-15.61-.13.81,2,1.22,3.23,1.74,4.37,4.14,9.11,8.1,18.32,12.54,27.28a19.71,19.71,0,0,1,1.69,12.73C259.93,312.22,259,320.72,257.79,329.54ZM175.2,68.48c-13.65.61-23.16,9.27-22.82,23.14.36,14.92,9.15,21.94,22.42,22.88,12.62.89,23.46-10.64,23.38-23.23A23.15,23.15,0,0,0,175.2,68.48Zm151,159.89a18.59,18.59,0,1,0-18.67,18.51A18.6,18.6,0,0,0,326.15,228.37ZM152,189c-7.27-1.49-13.85-2.7-20.36-4.22-3.93-.91-5.31.74-6,4.33-2.36,12.89,2.52,23.44,10.35,33.1.73.91,1.58,1.74,2.81,3.08C139.82,211.84,144.13,200.44,152,189Zm65.29-35.86,1.44-.23c.82-5.74-2.15-11.06-2.57-17.34l-8.75,9.17Zm-41.7,10.94-.17,1.13L193.81,167c-1.94-3.69-3.33-6.36-4.7-9Zm49.25-24.17c3.42-5.43.24-10-.74-15.54l-6.43,9.31C220.15,135.92,222.46,137.92,224.79,139.94Z" transform="translate(-0.78 -0.78)"/><path class="cls-3" d="M268,75.07c5.64-4.33,12.34-5.81,19.13-6.79,23.38-3.4,48.24,9.56,59,30.57,1.95,3.83.75,6.41-3.35,6.34-13.89-.25-26.32,4.12-37.91,11.41l-.75-.75c8.76-9.76,19.95-15,33.89-17.5-5.13-4.84-9.27-9.41-14.06-13.14C312.8,76.52,299.76,72.86,285.78,73c-5.91.06-11.82,1.34-17.72,2.07Z" transform="translate(-0.78 -0.78)"/><path class="cls-4" d="M91.4,224.22c.63-.84,1.26-1.68,1.88-2.53L119.15,232C109.51,231,100.14,228.81,91.4,224.22Z" transform="translate(-0.78 -0.78)"/><path class="cls-4" d="M247.66,68.75a44.45,44.45,0,0,1,6.63,1.45c2.73,1,5.29,2.54,8.23,4V71.91L268,75.07l0,0c1.2,1.39,2.38,2.81,3.63,4.15s2.29,2.3,3.45,3.44l-.06-.5Z" transform="translate(-0.78 -0.78)"/><path class="cls-5" d="M304.58,125l-1.45.77-1.6-.76q-2.88-9-5.78-17.93l.84-.44c1.41,2.77,2.75,5.57,4.28,8.27a12.68,12.68,0,0,0,2.27,2.37,2.2,2.2,0,0,0,0,.44Q303.88,121.35,304.58,125Z" transform="translate(-0.78 -0.78)"/><path class="cls-6" d="M40.46,334.39c9.52.26,19,.5,28.57.81a32.43,32.43,0,0,1,4.42.76c-9.66.19-19.33.46-29,.46C43.13,336.42,41.79,335.1,40.46,334.39Z" transform="translate(-0.78 -0.78)"/><path class="cls-6" d="M82.82,253.09a6.7,6.7,0,0,1-2.09.76q-12.78.08-25.56,0a6.3,6.3,0,0,1-2.07-.79Z" transform="translate(-0.78 -0.78)"/><path class="cls-7" d="M131.25,168.74c2.33-1,4.57-2,5.8,1.52.19.54,1.22.78,1.86,1.15l-6.06,4.49-.95-1.27.24,2-2.28,2.67-.94-3.49,6.92-6.13Z" transform="translate(-0.78 -0.78)"/><path class="cls-6" d="M253.93,334.37l22.81,0c-1.47.72-2.9,2-4.41,2.08a119.06,119.06,0,0,1-14,0C256.82,336.37,255.39,335.1,253.93,334.37Z" transform="translate(-0.78 -0.78)"/><path class="cls-6" d="M308.64,163.3l0-19.55Z" transform="translate(-0.78 -0.78)"/><path class="cls-6" d="M361.72,253.11l-16.43,0Z" transform="translate(-0.78 -0.78)"/><path class="cls-6" d="M133.58,336.76l14.06-.07Z" transform="translate(-0.78 -0.78)"/><path class="cls-6" d="M251.49,327.32c0,1,.07,2.09.1,3.14C251.56,329.41,251.52,328.36,251.49,327.32Z" transform="translate(-0.78 -0.78)"/><path class="cls-7" d="M128.14,176.6l-1.86,2.34Z" transform="translate(-0.78 -0.78)"/><path class="cls-3" d="M303.16,117.72a2.2,2.2,0,0,1,0-.44l1-1.43.75.75Z" transform="translate(-0.78 -0.78)"/><path class="cls-8" d="M304.13,115.85l-1,1.43a12.68,12.68,0,0,1-2.27-2.37c-1.53-2.7-2.87-5.5-4.28-8.27l-.84.44q2.89,9,5.78,17.93l.53,3.25.39,2.22.57,2.36c.06.51.11,1,.17,1.54.13,1.61.26,3.22.4,4.83.12,1,.24,2,.37,3q0,4.29.05,8.58c-.25,2.87-.51,5.74-.76,8.61q-3.06,12.5-6.13,25a123.41,123.41,0,0,1-25.07,37.83c-12.94,13.39-28.35,23-45.39,30.1-5.25,2.2-10.85,3.76-14.21,8.93-1.24,1.91-2.5,3.81-3.75,5.71l.93.8,8.84-4.28c1.51,14.41-2.74,26.43-11.41,38.33-1.73-13.83-13.05-23-13.51-36l-35.38-14.19.12-.72h43.53c2.9-2.68,5.78-5.54,8.86-8.18,5-4.26,8.78-9.29,10.27-15.73.52-2.27,1.84-2.92,3.68-3.89,5.73-3,11.72-5.85,16.67-9.9,3.63-3,5.8-7.72,8.62-11.67a2.1,2.1,0,0,0,.21-.7l0,0c3.57-4.73,5-10.22,6.09-16.61-2.6,4.83-4.83,9-7.06,13.15-8.78,10.63-19.12,18.71-33.22,21-13.93,2.25-29.66-2-38.38-10.34l14.8-4.52,2.26-1.1,3.12-1.57,2.55-1.43-.06.05,1.52-1-.05,0,3.23-2.31,0,0,2.2-1.77,3.17-2.93q3.26-3.62,6.49-7.24l-.46-.26-6.89,4.2-8.24-9.14c2.82-1.88,6.13-4,9.34-6.23,10.44-7.31,17.95-16.81,21.5-29.2,0-.52,0-1,0-1.54a1.82,1.82,0,0,0,.08-.69l.72-2.44c0-.48.05-.95.07-1.43l.7-2.47c.07-1.28.13-2.57.2-3.85.22-1.07.45-2.14.68-3.21,0-1-.05-2.07-.07-3.11l-.66-2.4-.15-3.08-.7-2.47c0-.48-.05-1-.07-1.43l-.72-2.45a1.57,1.57,0,0,0-.08-.68l-1.65-5.78a.35.35,0,0,0-.26-.32l-5.14-.27c-.71,1.21-1.4,2.43-2.14,3.62-5,8-8.82,17.15-15.19,23.86C191,151.06,170.41,160.94,146,161.79a86.25,86.25,0,0,1-43.31-9.71c11.35-23.44,24-45.58,44-63.45.32,3.07.39,5.5.85,7.84,3.59,18.26,24.37,29.78,42.56,19,7-4.13,10.57-10.23,12.3-17.8l-.07-.78c.05-.76.11-1.53.17-2.3,0-1.86,0-3.72,0-5.58V86l-1.37-5h.07L200,79.59a1.69,1.69,0,0,0-.15-.7l-.62-1.68-.37-.76-.51-.66-9.92-10.45,4.46-.59,2.39-.68,1.52-.1c1.58,1.14,3.06,1.73,4-.75l1.51,0,14.18-.06,12.43,1c.67,2.16,1.83,1.85,3.17.62l15.58,4,27.42,13.43.06.5c-1.16-1.14-2.35-2.25-3.45-3.44s-2.43-2.76-3.63-4.15c5.9-.73,11.81-2,17.72-2.07,14-.16,27,3.5,38.18,12.19,4.79,3.73,8.93,8.3,14.06,13.14C324.08,100.85,312.89,106.09,304.13,115.85Z" transform="translate(-0.78 -0.78)"/><path class="cls-9" d="M214,225.72c.14.86.67,1.89.36,2.53a27,27,0,0,1-13.91,13.06c-9.16,4.06-18.7,4.19-28.31,2.27a62.25,62.25,0,0,1-27.25-12.85,6.14,6.14,0,0,1-2.12-4.43c1.81-24.53,13.78-42.55,35.34-54.24a5.11,5.11,0,0,1,3.57-.45c8.1,2.53,19.83,11.4,25.47,19.17a58.69,58.69,0,0,1-34.83,10.27c-2.54-.05-5.78-1.68-7.34,1.69s1.54,5.25,3.37,7.2c8.18,8.7,18.05,14.32,30.06,15.81Z" transform="translate(-0.78 -0.78)"/><path class="cls-10" d="M113.34,316.22a.54.54,0,0,0-.25-.6l-.5-.81-1-2.31c-2.41-7.22-2.14-14.54-.88-21.9,2.25-7.8,5.29-15.41,11.48-20.78,11-9.51,23.62-14.09,38.15-9.7,11.5,3.48,18.33,11.55,20.08,23.42.64,4.35,0,8.88,0,13.33l-.38,1.74a44.79,44.79,0,0,1-13.21,22c-11.3,10.23-30.75,14.79-47.17,3.64-2.41-1.64-3.85-4.72-5.74-7.13ZM165,292c.27-13.53-8.38-21.11-20.34-19a20.27,20.27,0,0,0-12,6.77,28,28,0,0,0-6.93,17.79c-.34,7.41,1.82,13.87,8.8,17.31,7.15,3.52,14.26,2.23,20.52-2.51C162.1,307,164.61,299.36,165,292Z" transform="translate(-0.78 -0.78)"/><path class="cls-10" d="M103.81,273l1,2.05c3.12,8.49,2.64,17.1.88,25.76-5.55,17.78-17.68,27.4-36.15,29.17H45.33c-.18-1.46-.7-3-.51-4.38,2.75-20.63,5.65-41.24,8.33-61.88.44-3.39,1.58-4.56,5.1-4.39,6.36.32,12.74.17,19.12.08,9.94-.15,18.37,3,24.71,10.93ZM61.42,315.38a88.82,88.82,0,0,0,9.1.52c12.63-.52,21.44-11.74,21-26.6-.31-11.57-7-16.82-21.09-16.56-.39,0-.89-.16-1.15,0-.82.58-2.12,1.21-2.23,2C65.12,288.2,63.3,301.68,61.42,315.38Z" transform="translate(-0.78 -0.78)"/><path class="cls-10" d="M321.29,259.37c-1,7.62-1.94,14.66-2.89,21.71s-2,13.92-2.81,20.9,1.3,11.51,6.27,13.17c5.74,1.92,12.95-.56,15.91-6a27.39,27.39,0,0,0,2.73-8.84c1.86-12.49,3.53-25,5.14-37.53.32-2.53,1.14-3.67,3.87-3.45,3,.24,6-.13,9,.17a3.33,3.33,0,0,1,2.1,2.49c-1.92,15-3.51,30-6.22,44.85-3.49,19.05-25.31,29.72-42.93,21.65-7.87-3.61-12.55-13-11.31-23,1-8.13,2.21-16.25,3.32-24.37.85-6.19,1.84-12.36,2.51-18.57.26-2.46,1.07-3.41,3.61-3.27C313.28,259.52,317,259.37,321.29,259.37Z" transform="translate(-0.78 -0.78)"/><path class="cls-11" d="M185.22,283.57c.24-1.55.48-3.11.71-4.66l.16-1.53a60,60,0,0,1,5,5.58c5.1,7.26,8.5,15,7.12,24.28-.54,3.58,2.84,7.25,7,8.2a13.71,13.71,0,0,0,16.68-10.75l0-.78.15-1.52.76-2.41.79-5.41,1.55-11.78,0-3.74.73-3.27,0-2.22c.25-1.08.49-2.16.73-3.25,0-.76.09-1.53.13-2.29l.75-2.41c-.28-5.69,1.56-6.71,6.07-6.29,3.05.28,6.15.05,9.84.05-.72,5.62-1.36,10.72-2,15.81-1.3,9.65-2.54,19.31-4,28.95C234,326.8,214.16,334.72,195.28,329c-4.72-1.43-8-4.76-10.14-9.13C184,317.5,183.05,315,182,312.5l.11-1.59,0-3.85-.1-1.59c.28-1.3.55-2.6.83-3.9l.07-.81.15-4.91c.17-.7.35-1.4.52-2.1.06-.86.11-1.73.17-2.6l.6-2.86.75-3.15Z" transform="translate(-0.78 -0.78)"/><path class="cls-10" d="M257.79,329.54c1.19-8.82,2.14-17.32,3.55-25.74a19.71,19.71,0,0,0-1.69-12.73c-4.44-9-8.4-18.17-12.54-27.28-.52-1.14-.93-2.33-1.74-4.37,5.65,0,10.64-.13,15.61.13.81,0,1.73,1.73,2.24,2.82,2.74,5.85,5.37,11.75,8.38,18.38,1.43-1.72,2.43-2.81,3.31-4,3.71-5,7.27-10.15,11.16-15a6.84,6.84,0,0,1,4.44-2.24c4.1-.31,8.25-.11,13.28-.11a42.63,42.63,0,0,1-2.28,4.14c-7.17,9.9-14.5,19.69-21.5,29.72a21.36,21.36,0,0,0-3.36,8.43c-1.55,9.21-2.65,18.5-3.94,27.88Z" transform="translate(-0.78 -0.78)"/><path class="cls-12" d="M326.15,228.37a18.59,18.59,0,1,1-18.46-18.76A18.52,18.52,0,0,1,326.15,228.37Zm-19.67-7.06-1.16-.67a.32.32,0,0,0-.35-.18l-3.8-2.3v20.16l3-1.91.22-.15a.25.25,0,0,0,.32-.24l14-7.85-10.09-5.57-1.83-1.14Z" transform="translate(-0.78 -0.78)"/><path class="cls-13" d="M283.4,254.6l-10.26,12.92-2.34-4.4c-.33-.83-.7-1.66-1-2.52-1.88-6-5.85-8.64-12.23-8.14-4.08.32-8.21,0-12.32-.1a8.64,8.64,0,0,1,1.55-1.48,142.43,142.43,0,0,0,34.46-27.23,11.5,11.5,0,0,1,1.26-1c-.16,16.15,4.83,25.18,15.88,29-2.65.31-5.32.47-7.92,1C288.1,253.05,285.76,253.91,283.4,254.6Z" transform="translate(-0.78 -0.78)"/><path class="cls-14" d="M152,189c-7.82,11.41-12.13,22.81-13.17,36.29-1.23-1.34-2.08-2.17-2.81-3.08-7.83-9.66-12.71-20.21-10.35-33.1.66-3.59,2-5.24,6-4.33C138.1,186.33,144.68,187.54,152,189Z" transform="translate(-0.78 -0.78)"/><path class="cls-15" d="M132.85,175.9l6.06-4.49c11.37-5.65,23.11-5.81,35.74-2.35a35.31,35.31,0,0,0-3.24,2.19c-4.68,4-9.41,8-13.91,12.23-2.15,2-3.86,2.84-7,1.81-5.89-1.89-12.07-2.87-18.1-4.35a9.22,9.22,0,0,1-2.5-1.66l2.28-2.67Z" transform="translate(-0.78 -0.78)"/><path class="cls-7" d="M105.66,300.77c1.76-8.66,2.24-17.27-.88-25.76,3.86,2.48,2.89,6.78,3.72,10.35.49,2.08.09,4.36.09,6.59l2.16-1.35c-1.26,7.36-1.53,14.68.88,21.9-1-2.47-2.5-4.86-2.92-7.42-.51-3.13-.12-6.41-.12-9.49Z" transform="translate(-0.78 -0.78)"/><path class="cls-6" d="M245.28,252.36c4.11.06,8.24.42,12.32.1,6.38-.5,10.35,2.12,12.23,8.14.27.86.64,1.69,1,2.52a45.92,45.92,0,0,1-3.19-4.59,8.16,8.16,0,0,0-7.78-4.7c-4.84,0-9.68-.46-14.52-.71v-.81Z" transform="translate(-0.78 -0.78)"/><path class="cls-16" d="M45.33,329.93H69.51c-.68.44-1.36,1.24-2.05,1.25q-10,.15-20.09,0C46.68,331.18,46,330.37,45.33,329.93Z" transform="translate(-0.78 -0.78)"/><path class="cls-7" d="M297.12,184.37q3.06-12.5,6.13-25c.43.39,1.3.9,1.23,1.16q-3,11.55-6.13,23C298.26,183.93,297.54,184.11,297.12,184.37Z" transform="translate(-0.78 -0.78)"/><path class="cls-5" d="M249.12,197.44c2.23-4.16,4.46-8.32,7.06-13.15-1.1,6.39-2.52,11.88-6.09,16.61Z" transform="translate(-0.78 -0.78)"/><path class="cls-6" d="M283.4,254.6c2.36-.69,4.7-1.55,7.11-2,2.6-.52,5.27-.68,7.92-1l2,.47c-.41.56-.75,1.48-1.26,1.59a23.36,23.36,0,0,1-3.85.24Z" transform="translate(-0.78 -0.78)"/><path class="cls-3" d="M214,225.72l-15.59,0Z" transform="translate(-0.78 -0.78)"/><path class="cls-7" d="M225.08,282.79l-1.55,11.78A12.64,12.64,0,0,1,225.08,282.79Z" transform="translate(-0.78 -0.78)"/><path class="cls-7" d="M209.37,188.31l6.89-4.2.46.26q-3.24,3.62-6.49,7.24C209.94,190.51,209.66,189.41,209.37,188.31Z" transform="translate(-0.78 -0.78)"/><path class="cls-17" d="M304,150.77q0-4.29-.05-8.58A6.54,6.54,0,0,1,304,150.77Z" transform="translate(-0.78 -0.78)"/><path class="cls-7" d="M195.3,157l8.94,3.88Z" transform="translate(-0.78 -0.78)"/><path class="cls-17" d="M202.47,89v0Z" transform="translate(-0.78 -0.78)"/><path class="cls-17" d="M303.59,139.21c-.14-1.61-.27-3.22-.4-4.83C305.7,135.8,305.15,137.46,303.59,139.21Z" transform="translate(-0.78 -0.78)"/><path class="cls-17" d="M224.94,106.12l5.14.27Z" transform="translate(-0.78 -0.78)"/><path class="cls-17" d="M230.34,106.71l1.65,5.78Z" transform="translate(-0.78 -0.78)"/><path class="cls-17" d="M201.11,81l1.37,5Z" transform="translate(-0.78 -0.78)"/><path class="cls-17" d="M302.06,128.26c-.18-1.08-.35-2.17-.53-3.25l1.6.76C302.77,126.6,302.41,127.43,302.06,128.26Z" transform="translate(-0.78 -0.78)"/><path class="cls-7" d="M204.89,196.27l-3.23,2.31Z" transform="translate(-0.78 -0.78)"/><path class="cls-7" d="M193.75,154.68l1.12,2.24-2.43-1.28Z" transform="translate(-0.78 -0.78)"/><path class="cls-17" d="M234.44,128.11l-.68,3.21Z" transform="translate(-0.78 -0.78)"/><path class="cls-7" d="M225.78,275.78l-.73,3.27Z" transform="translate(-0.78 -0.78)"/><path class="cls-17" d="M233.71,122.6l.66,2.4Z" transform="translate(-0.78 -0.78)"/><path class="cls-17" d="M233.56,135.17l-.7,2.47Z" transform="translate(-0.78 -0.78)"/><path class="cls-7" d="M200.25,199.47l-2.55,1.43Z" transform="translate(-0.78 -0.78)"/><path class="cls-7" d="M204.68,160.86l2.36.84Z" transform="translate(-0.78 -0.78)"/><path class="cls-17" d="M232.07,113.17l.72,2.45Z" transform="translate(-0.78 -0.78)"/><path class="cls-7" d="M222.74,300l-.76,2.41Z" transform="translate(-0.78 -0.78)"/><path class="cls-7" d="M227.43,265.61l-.75,2.41Z" transform="translate(-0.78 -0.78)"/><path class="cls-7" d="M103.81,273l-1.73-2.67Z" transform="translate(-0.78 -0.78)"/><path class="cls-7" d="M207.06,194.54l-2.2,1.77Z" transform="translate(-0.78 -0.78)"/><path class="cls-17" d="M232.86,117.05l.7,2.47Z" transform="translate(-0.78 -0.78)"/><path class="cls-17" d="M303,132.84l-.57-2.36Z" transform="translate(-0.78 -0.78)"/><path class="cls-7" d="M194.58,202.47l-2.26,1.1Z" transform="translate(-0.78 -0.78)"/><path class="cls-17" d="M232.79,139.07l-.72,2.44Z" transform="translate(-0.78 -0.78)"/><path class="cls-7" d="M226.55,270.31c-.24,1.09-.48,2.17-.73,3.25C226.07,272.48,226.31,271.4,226.55,270.31Z" transform="translate(-0.78 -0.78)"/><path class="cls-16" d="M184.35,288.29l-.6,2.86Z" transform="translate(-0.78 -0.78)"/><path class="cls-16" d="M186.09,277.38l-.16,1.53Z" transform="translate(-0.78 -0.78)"/><path class="cls-16" d="M185.22,283.57l-.12,1.57Z" transform="translate(-0.78 -0.78)"/><path class="cls-17" d="M199.26,77.21l.62,1.68Z" transform="translate(-0.78 -0.78)"/><path class="cls-16" d="M183.58,293.75c-.17.7-.35,1.4-.52,2.1C183.23,295.15,183.41,294.45,183.58,293.75Z" transform="translate(-0.78 -0.78)"/><path class="cls-16" d="M180.06,298.61l.38-1.74Z" transform="translate(-0.78 -0.78)"/><path class="cls-17" d="M200,79.59,201.18,81Z" transform="translate(-0.78 -0.78)"/><path class="cls-16" d="M182,305.47l.1,1.59Z" transform="translate(-0.78 -0.78)"/><path class="cls-16" d="M182.13,310.91,182,312.5Z" transform="translate(-0.78 -0.78)"/><path class="cls-7" d="M112.59,314.81l.5.81-.87-.33Z" transform="translate(-0.78 -0.78)"/><path class="cls-13" d="M245.31,252.31v.81l-1-.67Z" transform="translate(-0.78 -0.78)"/><path class="cls-7" d="M201.71,198.55l-1.52,1Z" transform="translate(-0.78 -0.78)"/><path class="cls-17" d="M232,142.2c0,.51,0,1,0,1.54C232,143.22,232,142.71,232,142.2Z" transform="translate(-0.78 -0.78)"/><path class="cls-17" d="M198.38,75.79l.51.66Z" transform="translate(-0.78 -0.78)"/><path class="cls-16" d="M182.91,300.76l-.07.81Z" transform="translate(-0.78 -0.78)"/><path class="cls-7" d="M221.83,303.91l0,.78a3.7,3.7,0,0,1-.31-.55S221.74,304,221.83,303.91Z" transform="translate(-0.78 -0.78)"/><path class="cls-7" d="M113.34,316.22l.6.94Z" transform="translate(-0.78 -0.78)"/><path class="cls-17" d="M202.29,96.88l.07.78a4.34,4.34,0,0,1-.33-.54S202.19,97,202.29,96.88Z" transform="translate(-0.78 -0.78)"/><path class="cls-1" d="M295.66,205.83l-.89.25c.11-.26.23-.53.34-.8C295.3,205.46,295.48,205.64,295.66,205.83Z" transform="translate(-0.78 -0.78)"/><path class="cls-5" d="M250.13,200.86a2.1,2.1,0,0,1-.21.7,2.37,2.37,0,0,1-.11-.58S250,200.9,250.13,200.86Z" transform="translate(-0.78 -0.78)"/><path class="cls-3" d="M132.85,175.9l-.71.71-.24-2Z" transform="translate(-0.78 -0.78)"/><path class="cls-4" d="M165,292c-.34,7.35-2.85,15-9.91,20.33-6.26,4.74-13.37,6-20.52,2.51-7-3.44-9.14-9.9-8.8-17.31a28,28,0,0,1,6.93-17.79,20.27,20.27,0,0,1,12-6.77C156.57,270.9,165.22,278.48,165,292Zm-6.57-1.12c.08-8-4.31-12.37-11.77-11.17-3.19.51-7,2.31-8.86,4.77-2.57,3.33-4.08,7.73-5.13,11.9-1.2,4.8-.08,9.56,4.54,12.27s9.38,1.54,13.54-1.43C156.39,303.16,158,297,158.38,290.89Z" transform="translate(-0.78 -0.78)"/><path class="cls-4" d="M61.42,315.38c1.88-13.7,3.7-27.18,5.67-40.65.11-.76,1.41-1.39,2.23-2,.26-.18.76,0,1.15,0,14.09-.26,20.78,5,21.09,16.56.4,14.86-8.41,26.08-21,26.6A88.82,88.82,0,0,1,61.42,315.38ZM73,279.7c-1.34,9.88-2.66,19.6-4,29.51a14.22,14.22,0,0,0,1.9,0c8.62-1.57,12.53-6.31,13.9-16.79C86,283.63,82.57,279.79,73,279.7Z" transform="translate(-0.78 -0.78)"/><path class="cls-18" d="M160.83,99.17c-3-6.7-2.54-12.34,1.48-17.47s9.41-7,16.75-5.82c-5.24,2.36-7.54,5.83-6.3,10.77.91,3.62,3.7,5.69,7.34,6.1,5.09.57,8.24-2.23,10.11-7,2.43,7,.69,13.52-4.52,17.88a15.76,15.76,0,0,1-17.69,2c1.25-2.14,3.18-4.2,3.5-6.48.18-1.31-2-3.73-3.6-4.34C164.72,93.63,162.22,95.37,160.83,99.17Z" transform="translate(-0.78 -0.78)"/><path class="cls-19" d="M308.61,222.6l10.09,5.57-14,7.85-.32.24-.22.15c-.61-1.16-1.66-2.28-1.75-3.47-.25-3.1.11-6.25-.16-9.34-.19-2.28,1-2.85,2.73-3.14a.32.32,0,0,1,.35.18l1.16.67.29.15Z" transform="translate(-0.78 -0.78)"/><path class="cls-20" d="M305,220.46c-1.77.29-2.92.86-2.73,3.14.27,3.09-.09,6.24.16,9.34.09,1.19,1.14,2.31,1.75,3.47l-3,1.91V218.16Z" transform="translate(-0.78 -0.78)"/><path class="cls-20" d="M308.61,222.6l-1.84-1.14Z" transform="translate(-0.78 -0.78)"/><path class="cls-20" d="M306.48,221.31l-1.16-.67Z" transform="translate(-0.78 -0.78)"/><path class="cls-20" d="M304.37,236.26l.32-.24A.25.25,0,0,1,304.37,236.26Z" transform="translate(-0.78 -0.78)"/><path class="cls-21" d="M158.38,290.89c-.43,6.15-2,12.27-7.68,16.34-4.16,3-8.89,4.16-13.54,1.43s-5.74-7.47-4.54-12.27c1-4.17,2.56-8.57,5.13-11.9,1.89-2.46,5.67-4.26,8.86-4.77C154.07,278.52,158.46,282.92,158.38,290.89Z" transform="translate(-0.78 -0.78)"/><path class="cls-22" d="M73,279.7c9.55.09,12.93,3.93,11.79,12.71-1.37,10.48-5.28,15.22-13.9,16.79a14.22,14.22,0,0,1-1.9,0C70.36,299.3,71.68,289.58,73,279.7Z" transform="translate(-0.78 -0.78)"/></svg>