<svg t="1677508867755" class="icon" viewBox="0 0 1024 1024" version="1.1" xmlns="http://www.w3.org/2000/svg" p-id="2778" width="200" height="200"><path d="M512 51.2a460.8 460.8 0 1 0 460.8 460.8 460.8 460.8 0 0 0-460.8-460.8z m0 849.408A388.608 388.608 0 1 1 900.608 512 388.608 388.608 0 0 1 512 900.608zM307.2 386.048a53.76 53.76 0 1 0 55.296-54.272A53.76 53.76 0 0 0 307.2 386.048z m302.592 0A53.76 53.76 0 1 0 665.6 331.776a53.76 53.76 0 0 0-54.784 54.272z m-313.856 196.096a217.088 217.088 0 0 0 433.664 0z" fill="#666666" p-id="2779"></path></svg>