<svg id="Layer_1" enable-background="new 0 0 135 135" height="512" viewBox="0 0 135 135" width="512" xmlns="http://www.w3.org/2000/svg"><g id="Homework"><g><g><g><path d="m110.0825119 19.2656097v96.4699707c0 2.5800171-2.1000366 4.6900024-4.6900024 4.6900024h-75.7200337c-2.5899658 0-4.6900024-2.1099854-4.6900024-4.6900024v-96.4699707c0-2.5900269 2.1000366-4.6900024 4.6900024-4.6900024h75.7200317c2.5899678 0 4.6900044 2.0999756 4.6900044 4.6900024z" fill="#52eef8"/></g><g opacity=".05"><path d="m110.0797729 19.2663746v96.4688644c0 2.581398-2.0974045 4.6903458-4.6903458 4.6903458h-75.7138709c-2.201088 0-4.0449982-1.5212021-4.5520649-3.549469.368782.0922165.7490997.1383591 1.1408825.1383591 22.2071152 0 42.3052902-9.0003815 56.848793-23.5554276 14.5550461-14.5435104 23.5554276-34.6532135 23.5554276-56.8487968v-20.7550583c0-.3918533-.0460739-.7721004-.1382828-1.1408825 2.0398025.5070667 3.5494613 2.3509064 3.5494613 4.5520649z"/></g><g opacity=".05"><path d="m110.0825119 74.4255829v41.3099976c0 2.5800171-2.1000366 4.6900024-4.6900024 4.6900024h-20.1000367c-.7399902-1.0700073-1.1699829-2.3599854-1.1699829-3.7600098v-30.2199707l12.039978-12.0200195z"/></g><g opacity=".5"><path d="m110.0106354 18.4365978c-.2651062-.046072-.5416718-.0691433-.8297806-.0691433h-75.713871c-2.5814037 0-4.6903477 2.1089439-4.6903477 4.6903496v96.4689331c0 .2881012.0230713.5646744.0691414.8297043-2.201086-.4033127-3.8605709-2.3163681-3.8605709-4.6212006v-96.4688663c0-2.5929413 2.0974083-4.6903496 4.6903496-4.6903496h75.7138672c2.3048362 0 4.2293586 1.6594849 4.621212 3.8605728z" fill="#fff"/></g><g opacity=".05"><path d="m46.9924812 95.3256073c.4799805 1.8300171.7199707 3.7199707.7199707 5.6400146 0 4-1.0699463 7.9400024-3.0899658 11.3799438-.6600342 1.1100464-1.4000244 2.1600342-2.2200317 3.1300049l.3200073.6600342c.6799927 1.3999634.6600342 2.9699707.0700073 4.289978h-13.1199932c-2.5899658 0-4.6900024-2.1099854-4.6900024-4.6900024v-41.5700073c.0900269-.0199585.1900024-.0199585.2800293-.0199585 1.5100098 0 2.9499512.5899658 4.039978 1.6599731.9400024.9400024 1.5300293 2.1799927 1.6699829 3.4799805.2800293.0800171.5599976.1600342.8400269.2400513.0200195-.0100098.039978-.0300293.0599976-.0500488 1.8300152-1.7599487 4.169981-2.6999512 6.6400127-2.6999512 2.5499878 0 4.9400024.9899902 6.7399902 2.789978l2.0299683 2.0599976c3.6900024 3.6900024 3.6900024 9.7199707-.0099487 13.4199829z"/></g><g><g><path d="m90.2581406 33.5217781v15.5576439c0 1.9093857-1.5478668 3.4572525-3.4572525 3.4572525h-38.5368615c-1.9093895 0-3.4572525-1.5478668-3.4572525-3.4572525v-15.5576439c0-1.9093876 1.547863-3.4572525 3.4572525-3.4572525h38.5368614c1.9093857 0 3.4572526 1.5478649 3.4572526 3.4572525z" fill="#fff"/></g><g><path d="m90.2581711 33.5217781v.0576057h-38.4792481c-1.9015198 0-3.4572525 1.5557365-3.4572525 3.4572563v15.5000343h-.0576095c-1.9130516 0-3.4572525-1.5442696-3.4572525-3.4572525v-15.5576438c0-1.9130535 1.5442009-3.4572525 3.4572525-3.4572525h38.5368576c1.9129867 0 3.4572525 1.544199 3.4572525 3.4572525z" fill="#f3fcff"/></g><g><path d="m90.2581711 33.5217781v15.5576439c0 1.9129829-1.5442657 3.4572525-3.4572525 3.4572525h-38.5368576c-1.9130516 0-3.4572525-1.5442696-3.4572525-3.4572525v-.7260323h22.9792175c10.060585 0 18.2888641-8.2282791 18.2888641-18.2888641h.7260284c1.9129868 0 3.4572526 1.544199 3.4572526 3.4572525z" fill="#d4f4ff"/></g></g></g><g><g><path d="m28.0017757 79.8844986v3.4991302h-5.4864063v-3.4991302c0-1.5150223 1.2281723-2.7432022 2.7432003-2.7432022h.0000057c1.515028 0 2.7432003 1.2281799 2.7432003 2.7432022z" fill="#fc6868"/></g><g><g><path d="m45.150486 92.9251938-.1328773.1328735-4.6936111 4.6875687-11.2175237-11.2597428 4.8023396-4.8024445c.0301933-.0300903.0543442-.0542755.0845757-.0845032 2.555191-2.4646454 6.6205482-2.42836 9.1334877.0905457l2.0296555 2.0418243c2.5310401 2.5430986 2.5310401 6.6568299-.0060464 9.1938783z" fill="#fc6868"/></g><g opacity=".05"><path d="m45.0176086 93.0580673-4.6936111 4.6875687-11.2175236-11.2597428 4.8023396-4.8024445c.0301933-.0300903.0543442-.0542755.0845757-.0845032 5.0197944 2.2410585 8.9824714 6.36084 11.0242194 11.4591218z"/></g><g><path d="m21.4106712 86.4858932-11.2175235 11.2597428-4.6694241-4.669426-.157063-.1510162c-2.5370877-2.5370483-2.5370877-6.6507797-.0060468-9.1938782l2.0296555-2.0418243c2.5189848-2.5249557 6.5964346-2.555191 9.1516256-.0724106z" fill="#fc6868"/></g><g opacity=".05"><path d="m21.4106712 86.4858932-11.2175235 11.2597428-4.6694241-4.669426c.392621-.9847031.8577642-1.9390335 1.4014392-2.8572235.7007012-1.1899948 1.522223-2.3196716 2.4525094-3.3646927.6825981-.7611313 1.3953924-1.4496994 2.1262894-2.0598145 1.528307-1.2988358 3.2257328-2.368042 5.0379333-3.1773987z"/></g></g><g><path d="m44.7155762 100.96521c0 3.6064072-.9785881 6.9709549-2.6881065 9.8644562-.8819504 1.5041199-1.9692612 2.8814087-3.2196846 4.0955887-1.0148277.9847031-2.138382 1.8605728-3.3465157 2.6035614-1.4135323.8758698-2.9478493 1.570488-4.5667439 2.0598145-.8578014.2598572-1.7397156.4651489-2.6397686.6040726-.9785862.1510162-1.9813576.2296219-2.9961853.2296219-.2718372 0-.5436745-.0060501-.8154736-.0181427-3.4311314-.1389236-6.6387253-1.1718521-9.3872213-2.8753662-1.2081327-.7429886-2.3316879-1.6188583-3.3465157-2.6035614-3.64254-3.533699-5.9077902-8.4750748-5.9077902-13.9600449 0-3.582077.9785848-6.9405746 2.6820574-9.8219833.6463556-1.0994415 1.4014397-2.13237 2.2471476-3.0808029.6040668-.6704254 1.2504225-1.3047256 1.9390306-1.884758 3.3948889-2.8814087 7.7924757-4.621048 12.5887651-4.621048.2718391 0 .5436764.0060425.8094673.0181351 10.3476297.4228209 18.6475374 8.946266 18.6475374 19.390457z" fill="#fc6868"/></g><g opacity=".3"><g><path d="m28.2547569 120.1927032c-.9785862.1510162-1.9813576.2296219-2.9961853.2296219-.2718372 0-.5436745-.0060501-.8154736-.0181427l-15.9594697-29.2609558c.6463556-1.0994415 1.4014397-2.13237 2.2471476-3.0808029z" fill="#fff"/></g></g><g opacity=".3"><path d="m42.0274696 110.8296661c-.8819504 1.5041199-1.9692612 2.8814087-3.2196846 4.0955887-1.0148277.9847031-2.138382 1.8605728-3.3465157 2.6035614-1.4135323.8758698-2.9478493 1.570488-4.5667439 2.0598145l-18.22472-33.410965c3.3948889-2.8814087 7.7924757-4.621048 12.5887651-4.621048.2718391 0 .5436764.0060425.8094673.0181351z" fill="#fff"/></g><g opacity=".05"><path d="m44.7155762 100.96521c0 3.6064072-.9785881 6.9709549-2.6881065 9.8644562-.8819504 1.5041199-1.9692612 2.8814087-3.2196846 4.0955887-1.0148277.9847031-2.138382 1.8605728-3.3465157 2.6035614-1.4135323.8758698-2.9478493 1.570488-4.5667439 2.0598145-.8578014.2598572-1.7397156.4651489-2.6397686.6040726-.9785862.1510162-1.9813576.2296219-2.9961853.2296219-.2718372 0-.5436745-.0060501-.8154736-.0181427-3.4311314-.1389236-6.6387253-1.1718521-9.3872213-2.8753662-1.2081327-.7429886-2.3316879-1.6188583-3.3465157-2.6035614-.3261833-.3141251-.634263-.6401978-.9242401-.9726105.8396616.7491837 1.7457619 1.4196167 2.7062435 2.0115891 2.7484961 1.7035065 5.95609 2.7364426 9.3871832 2.8753662.2718372.0120926.5436745.0181351.8154755.0181351 1.0148659 0 2.0175991-.0784531 2.9961853-.2294769.900053-.1389236 1.7820034-.3443527 2.6397686-.6040649 1.6188927-.4893265 3.1532459-1.1839447 4.5667439-2.0599594 1.2081299-.7429886 2.3316879-1.6188583 3.34655-2.6035614 1.2503853-1.214035 2.337738-2.5913239 3.2196503-4.0954437 1.7095184-2.8935013 2.6881027-6.258194 2.6881027-9.8644562 0-4.9472733-1.8544884-9.4535828-4.9110641-12.878746 3.9687232 3.5519864 6.4756164 8.7045514 6.4756164 14.4431836z"/></g><g opacity=".3"><path d="m39.7259789 88.0019608c-3.2740326-2.971962-7.556881-4.8384323-12.2625484-5.0317764-.2657909-.0120926-.5376282-.0181351-.8094654-.0181351-4.7962914 0-9.1938782 1.7396393-12.5887661 4.621048-.6886082.5798798-1.3349638 1.21418-1.9390306 1.884758-.8457079.9482803-1.6007919 1.9813614-2.2471476 3.0808029-1.7034721 2.8812561-2.6820574 6.2399063-2.6820574 9.8219833 0 5.0319214 1.9088717 9.604744 5.0379324 13.0539398-.1812124-.1570587-.3564157-.3201675-.5255346-.4893265-3.64254-3.533699-5.9077902-8.4750748-5.9077902-13.9600449 0-3.582077.9785848-6.9405746 2.6820574-9.8219833.6463556-1.0994415 1.4014397-2.13237 2.2471476-3.0808029.6040668-.6704254 1.2504225-1.3047256 1.9390306-1.884758 3.3948889-2.8814087 7.7924757-4.621048 12.5887651-4.621048.2718391 0 .5436764.0060425.8094673.0181351 5.4124126.2234345 10.2630882 2.6579819 13.6579399 6.427208z" fill="#fff"/></g><g><path d="m39.9494781 100.971405c0 1.6309509-.265789 3.1955338-.7611275 4.6573257-1.6007919 4.8204422-5.6359558 8.5172577-10.6376076 9.6590271-.894043.2113342-1.8242931.3322601-2.7726822.3623505-.1691189.0060425-.3443222.0120926-.5194893.0120926-1.2564678 0-2.4827042-.1570663-3.6485481-.4530487-6.3366909-1.6249084-11.0423574-7.3695908-11.0423574-14.2377472 0-1.6190033.2657909-3.1713486.7550831-4.6272507.4409571-1.3470535 1.0812664-2.6035614 1.8846855-3.7391357.5315819-.7671738 1.1356478-1.4799347 1.8061533-2.1263275 2.6518612-2.5793762 6.2641697-4.1621017 10.2449837-4.1621017 1.2564697 0 2.4766598.1572113 3.64254.4530487 6.342701 1.6190109 11.0483665 7.3636856 11.0483665 14.2017669z" fill="#fff"/></g><g><path d="m39.9494781 100.971405c0 8.1307144-6.5963974 14.6907959-14.6909065 14.6907959-4.5123596 0-8.5596142-2.0416794-11.2598114-5.2553558 2.549181 2.1444702 5.8413525 3.4310608 9.429472 3.4310608 8.1005554 0 14.6969547-6.5600815 14.6969547-14.6907959 0-3.5761719-1.2806206-6.8441238-3.4129562-9.3872223 3.2015457 2.6880722 5.2372474 6.7110977 5.2372474 11.2115173z" fill="#f3fcff"/></g><g><g><path d="m39.1883507 105.6287308c-1.6007919 4.8204422-5.6359558 8.5172577-10.6376076 9.6590271l-13.5371551-24.8090668c2.6518612-2.5793762 6.2641697-4.1621017 10.2449837-4.1621017 1.2564697 0 2.4766598.1572113 3.64254.4530487z" fill="#d4f4ff"/></g><g><circle cx="25.263" cy="100.985" fill="#76819f" r="1.489"/></g><g><path d="m25.7780609 115.6501083c-.1691189.0060425-.3443222.0120926-.5194893.0120926-1.2564678 0-2.4827042-.1570663-3.6485481-.4530487l-10.2872744-18.8649978c.4409571-1.3470535 1.0812664-2.6035614 1.8846855-3.7391357z" fill="#d4f4ff"/></g></g><g><path d="m39.0818214 120.2048874h-.003315c-1.0330162.5131302-2.2845268.0827713-2.7877998-.9569168l-.8277397-1.7183685c1.2084694-.7449646 2.3308868-1.6191025 3.3440208-2.6057587l1.2184486 2.5229874c.4966432 1.0230331.0728723 2.2547836-.9436149 2.7580566z" fill="#fc6868"/></g><g><path d="m15.0541782 117.5296021-.8277397 1.7183685c-.5032721 1.0396881-1.7547836 1.470047-2.7878008.9569168h-.003314c-1.0164871-.503273-1.440259-1.7350235-.943615-2.7580566l1.2184505-2.5229874c1.0131322.9866562 2.1355516 1.8607941 3.344019 2.6057587z" fill="#fc6868"/></g></g><g><g><g><path d="m87.1192474 87.6844559h6.5787048c2.045639 0 3.7039566-1.6583176 3.7039566-3.7039566v-6.5576096z" fill="#d4f4ff"/></g><g><path d="m123.1124802 81.1255951v35.539978c0 2.0400391-1.6599731 3.7000122-3.710022 3.7000122h-28.5799561c-2.0400391 0-3.7000122-1.6599731-3.7000122-3.7000122v-28.9799804h6.5800171c2.039978 0 3.6999512-1.6599731 3.6999512-3.710022v-6.5499878h22c1.5700073 0 2.9100342.9700317 3.4500122 2.3400269.1700439.4199829.2600098.8800048.2600098 1.3599853z" fill="#fff"/></g><g><path d="m123.1031342 81.1222076h-22.0013733v6.555954c0 2.0556641-1.6482849 3.703949-3.7039566 3.703949h-6.5746003v28.9834747c-2.0371323 0-3.7039566-1.6668243-3.7039566-3.703949v-28.9834747h6.5746078c2.0556641 0 3.703949-1.6482849 3.703949-3.703949v-6.5559616h22.0013733c2.0557862 0 3.7039567 1.6667099 3.7039567 3.7039566z" fill="#f3fcff"/></g><g><path d="m123.1124802 81.1255951v35.539978c0 2.0400391-1.6599731 3.7000122-3.710022 3.7000122h-28.5799561c-1.8500366 0-3.3800049-1.3599854-3.6500244-3.1300049.1900024.0400391.3800049.0499878.5700073.0499878 17.8300171 0 32.289978-14.4599609 32.289978-32.289978v-6.9500122c0-.2000122-.0199585-.3899536-.0499878-.5799561 1.3099976.2099609 2.4000244 1.0999756 2.8699951 2.2999878.170044.419983.2600099.8800049.2600099 1.3599854z" fill="#d4f4ff"/></g><g opacity=".05"><path d="m123.1124802 81.1255951v29.0800171l-3.3499756 3.1599731-3.8581085 3.6356049c-1.2576065 1.1850891-3.3248978.3250885-3.3709106-1.4023132l-.140976-5.2932892-.1400146-4.9699707 10.5999756-25.5700073c.1700438.4199829.2600097.8800048.2600097 1.3599853z"/></g></g><g><g><path d="m115.4768829 113.288826 2.2273941-2.1033478 3.1512986-2.9752884-5.5829392-2.3125305.1165772 4.3288956z" fill="#ffcb8f"/></g><g><path d="m110.155 92.19h25.63v6.043h-25.63z" fill="#ffe93e" transform="matrix(.383 -.924 .924 .383 -12.052 172.384)"/></g><g><path d="m126.153 81.5h2.489v6.043h-2.489z" fill="#f3fcff" transform="matrix(.383 -.924 .924 .383 .557 169.876)"/></g><g><path d="m129.6664581 79.0432205h.0000153c1.541687.638588 2.2737885 2.4060516 1.6352081 3.9477463l-.6365814 1.5368195-5.5829391-2.3125381.6365662-1.5368118c.6385879-1.5416948 2.4060439-2.2738038 3.9477309-1.6352159z" fill="#76819f"/></g><g opacity=".3"><path d="m130.7275848 84.3769608.5749817-1.3881454c.6370697-1.5380173-.095932-3.3076401-1.6339569-3.9447098-1.5445404-.6397629-3.3141098.0932541-3.9511719 1.631279l-.5749893 1.3881378c.6397705-1.544548 2.4093399-2.277565 3.9538803-1.6377945 1.5380249.6370696 2.2710266 2.4066848 1.6312561 3.9512329z" fill="#fff"/></g><g fill="#384b7d"><path d="m4.3523278 119.9224091h-.8198244c-.2763672 0-.5.2236328-.5.5s.2236328.5.5.5h.8198245c.2763672 0 .5-.2236328.5-.5s-.2236329-.5-.5000001-.5z"/><path d="m130.5325012 119.9224091h-1.4716797c-.2763672 0-.5.2236328-.5.5s.2236328.5.5.5h1.4716797c.2763672 0 .5-.2236328.5-.5s-.2236328-.5-.5-.5z"/><path d="m55.0033913 73.5081024c0 .1812744.0618896.3334961.1856689.4577637.1237183.123291.2759399.1848145.4569092.1848145.1806641 0 .3355103-.0615234.4639282-.1848145.1286621-.1242676.1928711-.2764893.1928711-.4577637v-8.8087158c0-.1812744-.064209-.3358154-.1928711-.4647217-.128418-.1279297-.2832642-.1918945-.4639282-.1918945-.1809692 0-.3331909.0639648-.4569092.1918945-.1237793.1289063-.1856689.2834473-.1856689.4647217v3.7972412h-5.4111938v-3.7972412c0-.1812744-.0645142-.3358154-.1928711-.4647217-.128418-.1279297-.2832642-.1918945-.4639282-.1918945-.1809692 0-.3334961.0639648-.4569092.1918945-.1240845.1289063-.1856689.2834473-.1856689.4647217v8.8087158c0 .1812744.0615845.3334961.1856689.4577637.1234131.123291.2759399.1848145.4569092.1848145.1806641 0 .3355103-.0615234.4639282-.1848145.1283569-.1242676.1928711-.2764893.1928711-.4577637v-3.7972412h5.4111938z"/><path d="m59.9007912 73.7510223c.5518799.3148193 1.194458.4716797 1.9273682.4716797.7233276 0 1.3612061-.1568604 1.9134521-.4716797.5519371-.3137207.9800987-.7587891 1.2847862-1.3352051.3047485-.5750732.4569702-1.2338867.4569702-1.9763184 0-.7425537-.1522217-1.4025879-.4569702-1.9777832-.3046875-.5762939-.7328491-1.0212402-1.2847862-1.3349609-.5522461-.3149414-1.1901245-.4718018-1.9134521-.4718018-.7329102 0-1.3754883.1568604-1.9273682.4718018-.5522461.3137207-.9780884.758667-1.2778931 1.3349609-.3000488.5751953-.4499512 1.2352295-.4499512 1.9777832 0 .7424316.1499023 1.4012451.4499512 1.9763184.2998047.5764161.725647 1.0214844 1.2778931 1.3352051zm-.0856934-4.7966308c.2282715-.3903809.5211182-.6738281.8781128-.8505859.3567505-.175293.7352295-.2636719 1.1349487-.2636719.3901367 0 .7639771.0883789 1.1209717.2636719.3567505.1767578.6518555.4602051.8851318.8505859.2332726.3903809.3497276.8796387.3497276 1.4699707 0 .5994873-.1164551 1.0944824-.3497276 1.4848633-.2332764.3903809-.5283813.6762695-.8851318.857666-.3569946.1799316-.730835.2706299-1.1209717.2706299-.3997192 0-.7781982-.0906982-1.1349487-.2706299-.3569946-.1813965-.6498413-.4672852-.8781128-.857666-.2286377-.3903809-.3428345-.885376-.3428345-1.4848633 0-.590332.1141968-1.0795899.3428345-1.4699707z"/><path d="m77.1700134 67.0546112c-.3569946-.2659912-.802063-.3996582-1.335083-.3996582-1.161377 0-2.0372314.4903564-2.6271973 1.4710693-.1621094-.4090576-.4334106-.7564697-.8139648-1.0423584-.3807983-.2857666-.8377686-.4287109-1.3704834-.4287109-.5998535 0-1.0875854.1243896-1.463501.3718262-.3761597.2474365-.6974487.5611572-.9638672.9422607v-.5855713c0-.1812744-.0641479-.3358154-.1928711-.463623-.1283569-.1290283-.2832031-.1928711-.4638672-.1928711-.1810303 0-.3334961.0638428-.4569702.1928711-.1237183.1278076-.1856079.2823486-.1856079.463623v6.1246338c0 .1812744.0618896.3334961.1856079.4577637.1234741.123291.2759399.1848145.4569702.1848145.1806641 0 .3355103-.0615234.4638672-.1848145.1287231-.1242676.1928711-.2764893.1928711-.4577637v-4.282959c.2474976-.4089355.5304565-.7401123.8494263-.9923096.3189697-.2520752.7212524-.3787842 1.206665-.3787842.5327759 0 .9089355.1452637 1.1279907.435791.21875.2905273.3282471.744751.3282471 1.3640137v3.854248c0 .1812744.0618896.3334961.1856079.4577637.1237793.123291.276001.1848145.4569702.1848145.1806641 0 .3355103-.0615234.4641724-.1848145.128418-.1242676.192627-.2764893.192627-.4577637v-4.282959c.2474976-.4089355.5303955-.7401123.8496704-.9923096.3186646-.2520752.7209473-.3787842 1.2063599-.3787842.5330811 0 .9089355.1452637 1.1279907.435791.21875.2905273.3282471.744751.3282471 1.3640137v3.854248c0 .1812744.0618896.3334961.1856079.4577637.1237793.123291.276001.1848145.4569702.1848145.1806641 0 .3355103-.0615234.4641724-.1848145.128418-.1242676.192627-.2764893.192627-.4577637v-4.1109619c0-.4578857-.0856934-.8946533-.2568359-1.3140869-.1713869-.4184568-.4357301-.7612303-.7924196-1.0284422z"/><path d="m85.2014465 67.1475067c-.513916-.3276367-1.1233521-.4925537-1.8275146-.4925537-.7520142 0-1.3850098.1766357-1.8991699.5286865-.513916.3520508-.8947144.8133545-1.1422119 1.3850098-.2474976.5705566-.3712158 1.1945801-.3712158 1.8708496 0 1.1989746.3259277 2.1297607.9780273 2.7908936.6518555.6612549 1.5584717.9923096 2.7201538.9923096.571106 0 1.0373535-.0522461 1.399292-.1568604.3613281-.1046143.7279663-.2625732 1.0991821-.4718018.2474976-.1428223.3712769-.3183594.3712769-.5274658 0-.1627197-.0569458-.2950439-.1713867-.4008789-.1141968-.1046143-.2474976-.1568604-.3997192-.1568604-.0952759 0-.1809692.0197754-.2570801.0568848-.2855835.1430664-.578064.253418-.8778687.3288574-.3000488.0766602-.6498413.1138916-1.0495605.1138916-.7520752 0-1.3374023-.1846924-1.7562866-.5565186-.4188843-.3707275-.6663818-.8901367-.7424927-1.5559082h4.8404541c.1998291 0 .3590088-.0615234.4780884-.1859131.1191406-.1231689.1786499-.2753906.1786499-.456665 0-.6472168-.1333008-1.2443848-.3996582-1.791748-.2666627-.5472412-.6567994-.9853516-1.1709596-1.314209zm-3.9265747 2.6911621c.0288086-.4659424.147583-.8563232.3570557-1.170166.2091064-.3137207.4711304-.5449219.7851563-.6923828.3143311-.1477051.6329956-.2219238.9568481-.2219238.3233643 0 .6422729.0742188.956604.2219238.3140259.1474609.578064.3786621.7924805.6923828.2140503.3138428.3355103.7042236.3639526 1.170166z"/><path d="m63.1284523 78.0687714c-.1524658 0-.2855225.0477295-.3996582.1417236-.114502.0953369-.1952515.2197266-.2428589.3718262l-2.3985596 7.8815918-2.4130859-7.8536377c-.0479736-.161499-.140625-.291626-.2786255-.3916016-.1379395-.0999756-.2924805-.1499023-.4638672-.1499023s-.3262329.0499268-.4642334.1499023c-.1379395.0999756-.2306519.2301025-.2782593.3916016l-2.4130859 7.8536377-2.3985596-7.8815918c-.0479736-.1520996-.1287231-.2764893-.2428589-.3718262-.1141357-.0939941-.2474976-.1417236-.3997192-.1417236-.1905518 0-.3450928.0592041-.4639282.1778564-.1193848.1196289-.1740112.2695313-.1643677.449707 0 .0568848.0142212.1381836.0429688.2426758l2.798584 8.5949707c.0758057.2104492.1876221.3696289.3355103.4787598.1472778.1092529.3163452.1638184.5065918.1638184.1905518 0 .3642578-.0592041.5214233-.1777344.1568604-.1184082.2640381-.2741699.3209839-.4648438l2.2989502-7.2807617 2.298645 7.2807617c.0571899.1906738.1643677.3464355.321228.4648438.1571655.1185303.3306274.1777344.5211792.1777344.1902466 0 .359314-.0545654.506897-.1638184.147583-.1091309.2593994-.2683105.3355103-.4787598l2.798584-8.5949707c.0284424-.1044922.0429688-.185791.0429688-.2426758.0092773-.1801758-.0453491-.3300781-.1644287-.449707-.1190798-.1186523-.2736208-.1778564-.4639284-.1778564z"/><path d="m69.7533264 81.1526337c-.5521851-.3149414-1.1901245-.4716797-1.9133911-.4716797-.7329102 0-1.3754883.1567383-1.9274292.4716797-.5521851.3137207-.9780884.7587891-1.277832 1.335083-.3001099.5750732-.4500122 1.2352295-.4500122 1.9776611s.1499023 1.4013672.4500122 1.9764404c.2997437.5762939.725647 1.0213623 1.277832 1.335083.5519409.3149414 1.194519.4716797 1.9274292.4716797.7232666 0 1.3612061-.1567383 1.9133911-.4716797.5519409-.3137207.9801636-.7587891 1.2848511-1.335083.3047485-.5750732.4569702-1.2340088.4569702-1.9764404s-.1522217-1.4025879-.4569702-1.9776611c-.3046875-.576294-.7329102-1.0213623-1.2848511-1.335083zm.0927124 4.7825927c-.2332764.3905029-.5284424.6762695-.8851318.8575439-.3569946.1800537-.730896.270752-1.1209717.270752-.3997192 0-.7782593-.0906982-1.1349487-.270752-.3570557-.1812744-.6498413-.467041-.8781738-.8575439-.2285767-.3905029-.3427734-.885376-.3427734-1.4849854 0-.590332.1141968-1.0794678.3427734-1.4698486.2283325-.3905029.5211182-.6739502.8781738-.8505859.3566895-.175415.7352295-.2637939 1.1349487-.2637939.3900757 0 .7639771.0883789 1.1209717.2637939.3566895.1766357.6518555.460083.8851318.8505859.2332153.3903809.3497314.8795166.3497314 1.4698486.0000001.5996095-.116516 1.0944825-.3497314 1.4849854z"/><path d="m76.9205627 80.680954h-.071167c-.828186 0-1.5756226.4472656-2.2416992 1.342041v-.6135254c0-.1813965-.064209-.3359375-.1928711-.463623-.128418-.1290283-.2832031-.1928711-.4639282-.1928711-.1809692 0-.3334961.0638428-.4569092.1928711-.1237793.1276855-.1856079.2822266-.1856079.463623v6.1245117c0 .1813965.0618286.3334961.1856079.4578857.1234131.1231689.2759399.1846924.4569092.1846924.1807251 0 .3355103-.0615234.4639282-.1846924.1286621-.1243896.1928711-.2764893.1928711-.4578857v-4.3398438c.2570801-.3903809.5757446-.6971436.956604-.9213867.3804932-.2231445.7996826-.3347168 1.2563477-.3347168h.0714722c.1902466 0 .3474121-.0581055.4711304-.171875.1237793-.1138916.1856689-.2614746.1856689-.442749 0-.1800537-.0595703-.3322754-.1784058-.456665-.1190796-.1230469-.2689819-.185791-.4499512-.185791z"/><path d="m82.2321472 83.7368622 2.0560913-1.8417969c.161499-.161377.2425537-.3242188.2425537-.4855957 0-.1719971-.0499878-.3183594-.1499023-.442749-.0999146-.1231689-.2593994-.1859131-.4781494-.1859131-.1428833 0-.2855225.0627441-.4284668.1859131l-3.3981323 3.1407471v-5.8388672c0-.1811523-.064209-.3356934-.1928711-.4647217-.128418-.1278076-.2832031-.1928711-.4639282-.1928711-.1809692 0-.3334961.0650635-.4569092.1928711-.1237793.1290283-.1856689.2835693-.1856689.4647217v9.2653809c0 .1813965.0618896.3334961.1856689.4578857.1234131.1231689.2759399.1846924.4569092.1846924.1807251 0 .3355103-.0615234.4639282-.1846924.1286621-.1243896.1928711-.2764893.1928711-.4578857v-1.8415527l1.2421265-1.1271973 2.4558105 3.3405762c.0665283.0860596.147583.1523438.2428589.1999512.0949707.0476074.1902466.0708008.2855225.0708008.1902466 0 .3474121-.0568848.4711914-.1706543.1234131-.1140137.1856079-.2661133.1856079-.4567871 0-.1335449-.0479126-.2613525-.1429443-.3857422z"/><path d="m48.2639503 53.0366669h38.5371056c2.1821289 0 3.9570313-1.7749023 3.9570313-3.9570313v-15.5576172c0-2.1821289-1.7749023-3.9575195-3.9570313-3.9575195h-38.5371056c-2.1821289 0-3.9570313 1.7753906-3.9570313 3.9575195v15.5576172c.0000001 2.1821289 1.7749024 3.9570313 3.9570313 3.9570313zm-2.9570312-19.5146485c0-1.6308594 1.3266602-2.9575195 2.9570313-2.9575195h38.5371056c1.6303711 0 2.9570313 1.3266602 2.9570313 2.9575195v15.5576172c0 1.6303711-1.3266602 2.9570313-2.9570313 2.9570313h-38.5371057c-1.6303711 0-2.9570313-1.3266602-2.9570313-2.9570313v-15.5576172z"/><path d="m54.8591652 37.1318817h25.3461876c.2763672 0 .5-.2236328.5-.5s-.2236328-.5-.5-.5h-25.3461876c-.2763672 0-.5.2236328-.5.5s.2236328.5.5.5z"/><path d="m57.5559425 40.800827c-.2763672 0-.5.2236328-.5.5s.2236328.5.5.5h19.9531212c.2763672 0 .5-.2236328.5-.5s-.2236328-.5-.5-.5z"/><path d="m54.8591652 46.4692841h25.3461876c.2763672 0 .5-.2236328.5-.5s-.2236328-.5-.5-.5h-25.3461876c-.2763672 0-.5.2236328-.5.5s.2236328.5.5.5z"/><path d="m29.5901203 25.3267059 3.3447285-3.3447266c.1953125-.1953125.1953125-.5117188 0-.7070313s-.5117188-.1953125-.7070313 0l-3.3447285 3.3447266c-.1953125.1953125-.1953125.5117188 0 .7070313.1953068.1953068.5117131.1953183.7070313 0z"/><path d="m31.1252766 26.429245c.1953068.1953068.511713.1953182.7070313 0l2.20508-2.2050781c.1953125-.1953125.1953125-.5117188 0-.7070313s-.5117188-.1953125-.7070313 0l-2.20508 2.2050781c-.1953125.1953125-.1953125.5117188 0 .7070313z"/><path d="m25.2585773 116.1650848c8.376955 0 15.1923847-6.8154297 15.1923847-15.1923828 0-8.3583984-6.8154297-15.1582031-15.1923847-15.1582031s-15.1923828 6.7998047-15.1923828 15.1582031c0 8.3769532 6.8154297 15.1923828 15.1923828 15.1923828zm0-29.3505859c7.8256855 0 14.1923847 6.3515625 14.1923847 14.1582031 0 7.8256836-6.3666992 14.1923828-14.1923847 14.1923828s-14.1923828-6.3666992-14.1923828-14.1923828c0-7.8066406 6.3666993-14.1582031 14.1923828-14.1582031z"/><path d="m16.2107258 101.4897919h7.1363525c.2249756.8515625.9950562 1.484375 1.9163818 1.484375 1.0966797 0 1.9887695-.8920898 1.9887695-1.9887695 0-.9229736-.6348877-1.6943359-1.4887695-1.9177246v-6.4626465c0-.2763672-.2236328-.5-.5-.5s-.5.2236328-.5.5v6.4626465c-.6947632.1816406-1.2389526.7265625-1.4191284 1.4221191h-7.133606c-.2763672 0-.5.2236328-.5.5s.2236329.5.5000001.5zm9.0527344-1.4936524c.5361328 0 .9887695.453125.9887695.9892578 0 .5454102-.4433594.9887695-.9887695.9887695s-.9892578-.4433594-.9892578-.9887695.4438476-.9892578.9892578-.9892578z"/><path d="m93.3962708 94.6821747h23.4350586c.2763672 0 .5-.2236328.5-.5s-.2236328-.5-.5-.5h-23.4350586c-.2763672 0-.5.2236328-.5.5s.2236328.5.5.5z"/><path d="m93.3962708 99.4585419h23.4350586c.2763672 0 .5-.2236328.5-.5s-.2236328-.5-.5-.5h-23.4350586c-.2763672 0-.5.2236328-.5.5s.2236328.5.5.5z"/><path d="m131.7634583 80.4868622c-.3598633-.8691406-1.0366211-1.5458984-1.9057617-1.9057617-1.7949219-.7431641-3.8583984.1123047-4.6010742 1.9057617l-.6362305 1.5371094-.9526367 2.2993164c-.0001221.0002441-.000061.0007324-.0001831.0009766l-.0598755.1445313v-3.3432617c0-2.315918-1.8842773-4.199707-4.2001953-4.199707h-8.8295898v-57.6601564c0-2.8618164-2.328125-5.1899414-5.1899414-5.1899414h-75.7104474c-2.8618164 0-5.1899414 2.328125-5.1899414 5.1899414v57.480957c-1.4335938.3513184-2.4697266 1.6235352-2.4697266 3.1391602v1.460083c-1.3741455.2254639-2.7001953.5865479-3.965271 1.0775146l-1.0913696-1.0913086c-1.324707-1.324707-3.0849609-2.0537109-4.9570313-2.0537109-.0029297 0-.0053711 0-.0078125 0-1.8764648.0019531-3.6386719.7348633-4.9628901 2.0649414l-2.0302735 2.0390625c-2.7197268 2.7314453-2.714844 7.1708984.0112305 9.8969727l1.3455811 1.3455811c-.6748047 1.9952393-1.0565186 4.1239014-1.0565186 6.3433838 0 5.3215332 2.0678711 10.2893066 5.8077388 14.0461426l-1.069458 2.2141113c-.4393921.9050293-.2869873 1.9443359.2928467 2.6938477h-3.2635494c-.2763672 0-.5.2236328-.5.5s.2236328.5.5.5c27.3182659.0001373 2.8701339.0041199 118.9897461 0 .2763672 0 .5-.2236328.5-.5s-.2236328-.5-.5-.5h-4.0339966c.9559937-.7705078 1.5808716-1.9362793 1.5808716-3.2568359v-13.7927246l7.5195313-18.1535645.6362305-1.5371094c.3598608-.8691407.3598608-1.826172-.0000024-2.6953126zm-11.1767579 27.0664062c-.1602478-.0663681-4.9653244-2.0564804-4.6591797-1.9296875l8.4729004-20.4555664 4.6591187 1.9298096zm-3.2648315 3.3059082c-.4609756-.347847-.8567734-.511734-1.4254761-.5925293-.0029297-.1052094-.1065369-3.8246231-.100708-3.6152344.1052246.0435791 4.3405991 1.7976761 4.1571045 1.7216797zm8.0309448-27.9904785 2.3295898.9648438 2.3295898.9648438-.5698242 1.3754883-4.6591187-1.9296875zm.8276367-1.9990234c.5322266-1.2856445 2.0112305-1.8959961 3.2944336-1.3647461.6225586.2578125 1.1069336.7426758 1.3647461 1.3647461s.2578125 1.3076172 0 1.9296875l-.4448242 1.0751953-2.3295898-.9648438-2.3295898-.9648438zm-96.5029277-65.7939453h75.7104473c2.3105469 0 4.1899414 1.8793945 4.1899414 4.1899414v57.6601562h-12.1801758c-.019104 0-.0352783.0087891-.053833.0108643-.026123.0030518-.0484619.0078125-.0737915.0148926-.0875854.0235596-.1680298.0627441-.2294922.1258545l-10.2740479 10.2529296c-.0622559.0616455-.1001587.142334-.123291.2297363-.0050659.0192871-.008606.036377-.0113525.0561523-.003418.0236816-.0139771.0446777-.0139771.0693359v28.9799805c0 1.3205566.6263428 2.4863281 1.5845337 3.2568359h-48.0198936c.579895-.7493896.7322998-1.7885742.2932739-2.6928711l-1.0699463-2.2150879c3.7401123-3.7574463 5.8077393-8.7248535 5.8077393-14.0461426 0-2.2200928-.381897-4.3491211-1.0570068-6.3447266l1.3446045-1.3442383c2.7260742-2.7260742 2.730957-7.1660156.0107422-9.8964844l-2.0297852-2.0400391c-2.7353439-2.7464371-7.182373-2.7565918-9.9282227-.0107422l-1.0905151 1.0909424c-1.2651997-.4910889-2.5914326-.8521729-3.9656391-1.0773926v-1.4598385c0-1.7078857-1.3325195-3.0965576-3.0102539-3.217041v-57.4030762c0-2.3105469 1.8793945-4.1899414 4.1899414-4.1899414zm64.0205059 72.1088867h-5.3696289l8.5693359-8.5517578v5.3427734c0 1.3425293-.8275757 2.4916992-1.9966431 2.9700928-.3721313.1514892-.7771606.2388916-1.2030639.2388916zm-56.013546 29.3801269c.3294067-.2626953.6572876-.5273438.9686279-.8098145l.9228516 1.9101563c.3642578.7509766.0708008 1.6591797-.6533203 2.059082l-.0664063.0332031c-.7841072.3905334-1.7343445.0608902-2.1147461-.7260742l-.6342773-1.3168945c.4698486-.3048096.9249878-.6312256 1.3669434-.973877.0724487-.0561523.1387328-.1186523.2103271-.1757812zm-2.4393311 1.664795.595459 1.2363281c.0794678.1640625.1762085.3156738.2849731.456543h-4.6656513c1.3137226-.4294434 2.5814228-.9953614 3.7852192-1.6928711zm-1.7838745-35.3903809.7997437-.8000488c2.3517876-2.3507767 6.1629524-2.3490677 8.512207.0092773l2.0302734 2.0400391c2.3320313 2.3408203 2.3276367 6.1469727-.0092773 8.4838867l-1.0175781 1.017334c-1.9187012-4.7755127-5.635376-8.6340332-10.3153687-10.7504883zm-10.4434223-2.9533691c0-1.15625.8686523-2.1162109 2.0263672-2.2333984.0566406-.0063477.1132813-.0068359.1694336-.0068359 1.2675781.0185547 2.2841797.9902344 2.2841797 2.2402344v1.3071289c-1.5907192-.1783142-2.8891239-.1779709-4.4799805.0002441zm-17.2963863 12.6865234c-2.3369143-2.3369141-2.3413088-6.1430664-.0092773-8.484375l2.0302734-2.0390625c2.3454032-2.3554916 6.1574101-2.3640747 8.5117188-.0097656l.8005981.8005371c-4.6798706 2.1169434-8.3964233 5.9755859-10.3147583 10.7512207zm19.5371089-10.5131836c10.4516621 0 18.95508 8.4824219 18.95508 18.9091797 0 5.171875-2.0439453 10.0004883-5.7553711 13.597168-.984375.9589844-2.0805664 1.8129883-3.2573242 2.5385742l-.0045166.0026855c-7.3932953 4.5625687-16.9581661 3.4788284-23.1380634-2.541748-3.7109375-3.5961914-5.7548823-8.4248047-5.7548823-13.5966797 0-10.4267578 8.5034175-18.9091797 18.9550776-18.9091797zm-14.3168945 35.6049805.9223633-1.9091797c.3115234.2827148.6396484.5474854.9692383.8103027.0712891.0568848.1373291.1191406.2094727.1750488.4420166.3427734.8972168.6691895 1.3671875.9741211l-.6337891 1.315918c-.3839512.7942429-1.3372021 1.1140518-2.1152344.7270508l-.050293-.0244141c-.7358398-.3955078-1.0366211-1.3110351-.6689453-2.0688476zm3.7353516 1.8007812.5950317-1.2355957c1.2039185.6977539 2.4717407 1.2636719 3.7854004 1.6931152h-4.6660767c.1089478-.1411132.2059327-.2929687.2856446-.4575195zm107.9306621-2.7993164c0 1.7646484-1.4355469 3.2001953-3.2001953 3.2001953h-28.5795898c-1.7700195 0-3.2099609-1.4355469-3.2099609-3.2001953v-28.4799804h6.0795898c.4957886 0 .9649658-.1020508 1.4069214-.2607422 1.6251221-.5817871 2.7976685-2.121582 2.7976685-3.9443359v-6.0546876h21.5053711c1.7646484 0 3.2001953 1.4355469 3.2001953 3.199707v5.7575684l-6.7734375 16.3522949h-22.4365235c-.2763672 0-.5.2236328-.5.5s.2236328.5.5.5h22.0223389l-.6077881 1.4672852c-.0263672.0637207-.0375977.1313477-.0365601.1989746 0 .0021973-.0015869.0042725-.0015259.0065918l.0587158 2.1074219h-21.4351806c-.2763672 0-.5.2236328-.5.5s.2236328.5.5.5h21.4630737l.1051025 3.7714844h-21.569641c-.2763672 0-.5.2236328-.5.5s.2236328.5.5.5h22.0805664c.0006104 0 .0010986-.0003662.001709-.0003662s.0011597.0003662.001709.0003662c.1335068 0 .2638397-.0619049.3432617-.1367188l5.3769531-5.0805664c.0488052-.0458527.0867157-.0944977.1186523-.171875l1.2885742-3.1108398z"/></g></g></g></g></g></svg>