<svg id="图层_1" data-name="图层 1" xmlns="http://www.w3.org/2000/svg" viewBox="0 0 353 329.47"><defs><style>.cls-1{fill:#fea802;}.cls-2{fill:#fefefe;}.cls-3{fill:#feb827;}.cls-4{fill:#fefefd;}.cls-5{fill:#bc5123;}.cls-6{fill:#bc5224;}.cls-7{fill:#feac0b;}.cls-8{fill:#feac0d;}.cls-9{fill:#bc5023;}.cls-10{fill:#bd5224;}.cls-11{fill:#fefdfc;}.cls-12{fill:#fec129;}.cls-13{fill:#feb017;}.cls-14{fill:#feb420;}.cls-15{fill:#feb118;}.cls-16{fill:#bb5024;}</style></defs><title>huya</title><path class="cls-1" d="M221,364.73H191.65c-.19-.12-.37-.32-.56-.34-4.83-.51-9.65-.95-14.47-1.48-19.22-2.1-38.19-5.32-56.27-12.48-5.61-2.22-11.17-4.55-16.75-6.83.26-4,.54-8,.76-12a173,173,0,0,1,4-28.57,107.81,107.81,0,0,1,9.1-25.59,4.21,4.21,0,0,0,0-3.23c-.64-1.38-2.09-1.3-3.43-.88-5.83,1.83-11.55,3.85-16.78,7.19-5.79,3.68-11.46,7.39-16.46,12.19a116.63,116.63,0,0,0-15.93,19c-1,1.42-1.66,3-2.47,4.5-.36-.41-.7-.83-1.06-1.23-4.13-4.56-8.43-9-12.35-13.73-2.66-3.2-4.8-6.84-7.17-10.28.46-.95.95-1.87,1.36-2.84A169,169,0,0,1,62.83,254c4-5.44,8.64-10.47,13-15.65,1-1.13,1.53-2.3.83-3.71a2.86,2.86,0,0,0-3.47-1.48c-7.48,1.62-15,3.12-22.4,5-9,2.31-17.06,6.8-25,11.41-.38-2.31-.79-4.61-1.15-6.93-.4-2.58-.75-5.17-1.12-7.75v-20a11.59,11.59,0,0,0,.4-1.51c.8-5.87,1.36-11.78,2.43-17.6A146.66,146.66,0,0,1,37.8,159.65,243.51,243.51,0,0,1,51,135.32c3.85-6.22,8.64-11.86,13-17.76.39-.54.68-1.15,1-1.73s.68-1.3.93-2c1.74-4.81,3.33-9.67,5.19-14.44,3.09-7.92,6.2-15.84,9.57-23.65,2.2-5.08,4.87-10,7.33-14.92A6,6,0,0,1,89.2,62c1.07,1.88,2,3.82,3.08,5.7q8.11,14.43,16.25,28.84,5.25,9.35,10.48,18.69c-3.44,3.62-6.93,7.18-10.29,10.86a104.72,104.72,0,0,0-16,23.93,108.77,108.77,0,0,0-8.82,24.72,96,96,0,0,0-1.67,35.34,44,44,0,0,0,11,23.87c4.86,5.33,11.15,8.58,17.67,11.25a62.92,62.92,0,0,0,20.6,4.39c11.16.57,22.37.94,33.53.68,12.47-.3,24.92-1.41,37.38-2.17,1,2,1.91,4.09,3,6.07,4.48,8.07,9,16.1,13.49,24.18,1.66,3,3.13,6.12,4.69,9.18-3.14.25-6.27.64-9.42.72a122,122,0,0,1-37.89-4.94,74.33,74.33,0,0,1-9.45-3.28c-4.95-2.21-9.75-4.76-14.65-7.1a3.93,3.93,0,0,0-4.71,1.08,3.62,3.62,0,0,0-.28,4.77,27.26,27.26,0,0,0,3.68,3.24,77.38,77.38,0,0,0,10.35,27.33c1.88,3,3.75,3.36,6.81,1.45,5.89-3.69,10.58-8.63,14.79-14.08.6-.77,1.09-1.64,1.64-2.46.3,0,.61,0,.91.09a119,119,0,0,0,23.27,2.45c4.12,0,8.23-.19,12.35-.3a8,8,0,0,0,.47,1.58q8.34,15.06,16.72,30.09c5.28,9.42,10.62,18.8,15.91,28.21.66,1.17,1.2,2.42,1.8,3.63-9.29,1.33-18.58,2.68-27.88,4C225.66,364.31,223.31,364.49,221,364.73Z" transform="translate(-23.5 -35.27)"/><path class="cls-2" d="M65.06,115.83c-.34.58-.63,1.19-1,1.73-4.36,5.9-9.15,11.54-13,17.76A243.51,243.51,0,0,0,37.8,159.65a146.66,146.66,0,0,0-11.47,36.07c-1.07,5.82-1.63,11.73-2.43,17.6a11.59,11.59,0,0,1-.4,1.51V35.27h353V222.62l-.39-.74c-.35-4-.57-8-1.08-12a168.1,168.1,0,0,0-16-52.71,235.64,235.64,0,0,0-12-21.46,189.28,189.28,0,0,0-18.59-24.4c-2.48-2.82-5.13-5.51-7.7-8.26l-.32-.7,0,0-.38-.41,0,0a12.43,12.43,0,0,0-.8-2.39c-2.24-3.84-4.41-7.72-6.86-11.42A170.18,170.18,0,0,0,292,62.51a109.47,109.47,0,0,0-11-10.07c-8.19-6.35-16.79-12.07-26.63-15.66a12.38,12.38,0,0,0-9,.18c-7.33,2.82-14.05,6.8-20.74,10.82A64.7,64.7,0,0,0,219,51.86l-4.74.39a2.46,2.46,0,0,0-.7-.22q-13,0-26,0c-3.45.47-6.92.84-10.35,1.42-5.7,1-11.38,2.12-17.08,3.12a11.09,11.09,0,0,1-2.61-.19c-2-1.35-4-2.8-6.09-4-8.64-5-18.09-8.24-27.36-11.81a52.32,52.32,0,0,0-8.71-2.43,142.74,142.74,0,0,0-14.9-2.44c-4.14-.37-7.49,1.91-9.64,5.29-2.73,4.29-5.11,8.82-7.42,13.36A182,182,0,0,0,69.61,90.61,134.93,134.93,0,0,0,65.06,115.83Z" transform="translate(-23.5 -35.27)"/><path class="cls-3" d="M376.11,221.88l.39.74v2.23a5.73,5.73,0,0,0-1.5-1,179.94,179.94,0,0,0-27.71-4.26,3.26,3.26,0,0,0-3.62,1.93c-.72,1.57,0,2.78,1.23,3.89,3.29,3.07,6.51,6.2,9.74,9.32,6.37,6.16,11.7,13.19,17.07,20.18.78,1,1.53,2.05,2.29,3.07a109.73,109.73,0,0,1-10.73,31.19c-6.67-5.76-13.35-11.58-21.48-15.17-6.23-2.75-12.73-4.85-19.11-7.24a5.46,5.46,0,0,0-.35-1.23c-4.3-7.72-8.64-15.43-12.92-23.16-1.22-2.19-2.29-4.46-3.43-6.69,4.22-2.16,8.55-4.12,12.63-6.51a38,38,0,0,0,16.72-20.35c3-8.16,3.36-16.67,2.43-25.23a101.92,101.92,0,0,0-18.54-48.24,115.83,115.83,0,0,0-22.93-24.07A146.82,146.82,0,0,0,280,100.14a137.22,137.22,0,0,0-31.3-13.26c-5.9-1.74-12-2.72-18.06-4-1.14-2.31-2.18-4.67-3.44-6.92-3.36-6-6.85-12-10.21-18-1-1.81-1.77-3.76-2.64-5.64l4.74-.39a12.56,12.56,0,0,0,1.76-.43c3.67-1.48,7.34-3,11-4.48,10.49-4.42,20.58-3.81,30.29,2.25,3.08,1.93,6.18,3.81,9.29,5.69a106.63,106.63,0,0,1,20.17,15.85A22.19,22.19,0,0,0,292.72,74q7.8,14.2,15.69,28.35,6.72,12,13.48,24.06l26.48,47.35q6.83,12.19,13.68,24.37,5.49,9.76,11.06,19.49A51.9,51.9,0,0,0,376.11,221.88Z" transform="translate(-23.5 -35.27)"/><path class="cls-2" d="M103.6,343.6c5.58,2.28,11.14,4.61,16.75,6.83,18.08,7.16,37.05,10.38,56.27,12.48,4.82.53,9.64,1,14.47,1.48.19,0,.37.22.56.34H23.5V234.87c.37,2.58.72,5.17,1.12,7.75.36,2.32.77,4.62,1.15,6.93a7.71,7.71,0,0,0,.11,1.28c1.52,5.61,2.87,11.28,4.64,16.82a89.33,89.33,0,0,0,11.29,23.27c2.37,3.44,4.51,7.08,7.17,10.28,3.92,4.74,8.22,9.17,12.35,13.73.36.4.7.82,1.06,1.23,5,4.2,10,8.57,15.21,12.52a106.14,106.14,0,0,0,11.73,7.39C94,338.72,98.84,341.1,103.6,343.6Z" transform="translate(-23.5 -35.27)"/><path class="cls-4" d="M363.27,289.2A109.73,109.73,0,0,0,374,258c.58-3.71,1.17-7.41,1.74-11.12.27-1.78.51-3.56.76-5.34V364.73H221c2.34-.24,4.69-.42,7-.75,9.3-1.31,18.59-2.66,27.88-4,.61-.07,1.24-.09,1.84-.22,11.14-2.34,22.26-4.73,32.76-9.33,4.07-1.77,8.26-3.26,12.3-5.09,3.13-1.41,6.1-3.16,9.14-4.76l3.87-2.21c7-4.07,13.82-8.45,19.69-14.12,3.24-3.09,6.71-6,9.68-9.32a160.3,160.3,0,0,0,11-13.68C358.82,297.46,360.91,293.24,363.27,289.2Z" transform="translate(-23.5 -35.27)"/><path class="cls-5" d="M376.5,241.55c-.25,1.78-.49,3.56-.76,5.34-.57,3.71-1.16,7.41-1.74,11.12-.76-1-1.51-2.06-2.29-3.07-5.37-7-10.7-14-17.07-20.18-3.23-3.12-6.45-6.25-9.74-9.32-1.19-1.11-1.95-2.32-1.23-3.89a3.26,3.26,0,0,1,3.62-1.93A179.94,179.94,0,0,1,375,223.88a5.73,5.73,0,0,1,1.5,1Z" transform="translate(-23.5 -35.27)"/><path class="cls-6" d="M230.59,82.83c6,1.33,12.16,2.31,18.06,4A137.22,137.22,0,0,1,280,100.14a146.82,146.82,0,0,1,16.34,11.17,115.83,115.83,0,0,1,22.93,24.07,101.92,101.92,0,0,1,18.54,48.24c.93,8.56.56,17.07-2.43,25.23a38,38,0,0,1-16.72,20.35c-4.08,2.39-8.41,4.35-12.63,6.51-13.71,4.79-28,6.72-42.32,8.14l-1.25.62a.33.33,0,0,0-.24,0q-10.34.65-20.68,1.29-7.47.47-15,.88c-5.41.3-10.82.55-16.23.85-2.64.15-5.28.39-7.92.59-12.46.76-24.91,1.87-37.38,2.17-11.16.26-22.37-.11-33.53-.68a62.92,62.92,0,0,1-20.6-4.39c-6.52-2.67-12.81-5.92-17.67-11.25a44,44,0,0,1-11-23.87,96,96,0,0,1,1.67-35.34A108.77,108.77,0,0,1,92.68,150a104.72,104.72,0,0,1,16-23.93c3.36-3.68,6.85-7.24,10.28-10.86a25.92,25.92,0,0,1,3.24-3.22c6-4.25,11.78-8.9,18.18-12.43,7.9-4.35,16.34-7.73,24.54-11.53l1.44-.33c6.18-1.48,12.3-3.28,18.54-4.38,6-1,12.14-1.38,18.22-2ZM157,244.07c19.48-1.22,36.32-2.24,53.15-3.34,19.92-1.3,39.84-2.53,59.74-4.06a119,119,0,0,0,34-7.43c6.1-2.35,11.87-5.17,16.77-9.8,8.71-8.24,11.35-18.47,11-29.91-.48-15.12-4.84-29.15-12.2-42.26A98.5,98.5,0,0,0,301,123.83a107.82,107.82,0,0,0-14.82-11.91,178.14,178.14,0,0,0-20.55-11.6C252.47,94,238.34,90.83,224,88.79a107.21,107.21,0,0,0-34.42.53c-13.6,2.45-26.87,5.6-39.11,12.32-6.64,3.65-13.47,7-19.21,12-4.51,4-9.14,7.88-13.47,12.07a98.58,98.58,0,0,0-17.75,24,100.68,100.68,0,0,0-9.58,24.77c-2.86,12-3.95,24-1.63,36.2,2.49,13,9.76,22.4,22.27,27.39A63.84,63.84,0,0,0,130,242.59C139.84,243.35,149.72,243.69,157,244.07Z" transform="translate(-23.5 -35.27)"/><path class="cls-7" d="M311.91,340.59c-3,1.6-6,3.35-9.14,4.76-4,1.83-8.23,3.32-12.3,5.09-10.5,4.6-21.62,7-32.76,9.33-.6.13-1.23.15-1.84.22-.6-1.21-1.14-2.46-1.8-3.63-5.29-9.41-10.63-18.79-15.91-28.21q-8.4-15-16.72-30.09a8,8,0,0,1-.47-1.58c7.27-1,14.58-1.79,21.8-3.05,4.41-.76,8.69-2.25,13-3.41.81.83,1.56,1.71,2.43,2.47a51.52,51.52,0,0,0,15.45,9.24c2.48.95,4.42.18,5.3-2.36,1.23-3.52,2.21-7.13,3.3-10.7.56.45,1.32.78,1.66,1.36,2.41,4.15,4.75,8.35,7.08,12.55q7.35,13.23,14.67,26.49C307.8,332.89,309.84,336.75,311.91,340.59Z" transform="translate(-23.5 -35.27)"/><path class="cls-7" d="M165,88c-8.2,3.8-16.64,7.18-24.54,11.53-6.4,3.53-12.19,8.18-18.18,12.43a25.92,25.92,0,0,0-3.24,3.22q-5.23-9.34-10.47-18.69-8.11-14.43-16.25-28.84c-1.06-1.88-2-3.82-3.08-5.7a6,6,0,0,0-1.12-1.14c.83-1.43,1.6-2.92,2.51-4.3,5.22-8,12.75-11.67,22.15-11.12a96.45,96.45,0,0,1,14.82,2.16c6.08,1.31,12.05,3.11,18.07,4.7a12.92,12.92,0,0,0,.75,2.25c4.81,8.63,9.67,17.22,14.48,25.84C162.27,82.9,163.6,85.47,165,88Z" transform="translate(-23.5 -35.27)"/><path class="cls-8" d="M202.39,248.08c2.64-.2,5.28-.44,7.92-.59,5.41-.3,10.82-.55,16.23-.85q7.49-.4,15-.88,10.35-.63,20.68-1.29a10.75,10.75,0,0,0,.59,1.55q5.13,9.09,10.32,18.17c.94,1.64,1.95,3.24,2.93,4.87-5.15,5.2-11.55,8.53-18.12,11.29-10.92,4.58-22.59,6.14-34.32,7.16-1.56-3.06-3-6.17-4.69-9.18-4.46-8.08-9-16.11-13.49-24.18C204.3,252.17,203.38,250.11,202.39,248.08Z" transform="translate(-23.5 -35.27)"/><path class="cls-9" d="M103.6,343.6c-4.76-2.5-9.59-4.88-14.27-7.53a106.14,106.14,0,0,1-11.73-7.39c-5.24-3.95-10.16-8.32-15.21-12.52.81-1.5,1.52-3.08,2.47-4.5a116.63,116.63,0,0,1,15.93-19c5-4.8,10.67-8.51,16.46-12.19,5.23-3.34,11-5.36,16.78-7.19,1.34-.42,2.79-.5,3.43.88a4.21,4.21,0,0,1,0,3.23,107.81,107.81,0,0,0-9.1,25.59,173,173,0,0,0-4,28.57C104.14,335.6,103.86,339.6,103.6,343.6Z" transform="translate(-23.5 -35.27)"/><path class="cls-9" d="M41.81,290.92a89.33,89.33,0,0,1-11.29-23.27c-1.77-5.54-3.12-11.21-4.64-16.82a7.71,7.71,0,0,1-.11-1.28c8-4.61,16-9.1,25-11.41,7.41-1.9,14.92-3.4,22.4-5a2.86,2.86,0,0,1,3.47,1.48c.7,1.41.13,2.58-.83,3.71-4.38,5.18-9,10.21-13,15.65a169,169,0,0,0-19.66,34.12C42.76,289.05,42.27,290,41.81,290.92Z" transform="translate(-23.5 -35.27)"/><path class="cls-5" d="M223.57,287.51c11.73-1,23.4-2.58,34.32-7.16,6.57-2.76,13-6.09,18.11-11.29,1.25-1.26,2.47-2.54,3.74-3.78,1.81-1.78,4-1.95,5.78-.49a4.53,4.53,0,0,1,.48,6c-.62.83-1.38,1.56-2.08,2.34-.51.44-1,.86-1.54,1.31-4.64,4.1-9.28,8.22-15,10.76-3.81,1.69-7.7,3.2-11.55,4.79-4.34,1.16-8.62,2.65-13,3.41-7.22,1.26-14.53,2.06-21.8,3.05-4.12.11-8.23.31-12.35.3a119,119,0,0,1-23.27-2.45c-.3-.06-.61-.06-.91-.09l-10.35-3A136.59,136.59,0,0,1,150.85,282a27.26,27.26,0,0,1-3.68-3.24,3.62,3.62,0,0,1,.28-4.77,3.93,3.93,0,0,1,4.71-1.08c4.9,2.34,9.7,4.89,14.65,7.1a74.33,74.33,0,0,0,9.45,3.28,122,122,0,0,0,37.89,4.94C217.3,288.15,220.43,287.76,223.57,287.51Z" transform="translate(-23.5 -35.27)"/><path class="cls-10" d="M145.63,52.28c-6-1.59-12-3.39-18.07-4.7a96.45,96.45,0,0,0-14.82-2.16c-9.4-.55-16.93,3.13-22.15,11.12-.91,1.38-1.68,2.87-2.51,4.3-2.46,5-5.13,9.84-7.33,14.92-3.37,7.81-6.48,15.73-9.57,23.65-1.86,4.77-3.45,9.63-5.19,14.44-.25.68-.62,1.32-.93,2a134.93,134.93,0,0,1,4.55-25.22A182,182,0,0,1,83.4,54.29c2.31-4.54,4.69-9.07,7.42-13.36,2.15-3.38,5.5-5.66,9.64-5.29a142.74,142.74,0,0,1,14.9,2.44,52.32,52.32,0,0,1,8.71,2.43c9.27,3.57,18.72,6.78,27.36,11.81,2.1,1.23,4.06,2.68,6.09,4a9.27,9.27,0,0,1-1.75-.29C152.38,54.82,149,53.54,145.63,52.28Z" transform="translate(-23.5 -35.27)"/><path class="cls-11" d="M150.85,282a136.59,136.59,0,0,0,23.24,9.25l10.35,3c-.55.82-1,1.69-1.64,2.46-4.21,5.45-8.9,10.39-14.79,14.08-3.06,1.91-4.93,1.58-6.81-1.45A77.38,77.38,0,0,1,150.85,282Z" transform="translate(-23.5 -35.27)"/><path class="cls-12" d="M376.11,221.88a51.9,51.9,0,0,1-3-4.26q-5.6-9.7-11.06-19.49-6.87-12.16-13.68-24.37l-26.48-47.35q-6.74-12-13.48-24.06Q300.54,88.19,292.72,74a22.19,22.19,0,0,1-1.19-3.26c4.44,4.59,9,9.1,13.31,13.78,2.82,3,5.44,6.27,8.1,9.46,2,2.38,3.88,4.83,5.86,7.22a5.07,5.07,0,0,0,1.32.81l0,0,.38.41,0,0,.32.7c2.57,2.75,5.22,5.44,7.7,8.26a189.28,189.28,0,0,1,18.59,24.4,235.64,235.64,0,0,1,12,21.46,168.1,168.1,0,0,1,16,52.71C375.54,213.88,375.76,217.89,376.11,221.88Z" transform="translate(-23.5 -35.27)"/><path class="cls-13" d="M145.63,52.28c3.38,1.26,6.75,2.54,10.14,3.78a9.27,9.27,0,0,0,1.75.29,11.09,11.09,0,0,0,2.61.19c5.7-1,11.38-2.14,17.08-3.12,3.43-.58,6.9-1,10.35-1.42a13.09,13.09,0,0,0,.72,2.08c2.59,4.69,5.26,9.34,7.83,14,2.4,4.37,4.7,8.78,7,13.18-6.08.64-12.21,1-18.22,2-6.24,1.1-12.36,2.9-18.54,4.38L165,88c-1.36-2.56-2.69-5.13-4.1-7.66-4.81-8.62-9.67-17.21-14.48-25.84A12.92,12.92,0,0,1,145.63,52.28Z" transform="translate(-23.5 -35.27)"/><path class="cls-14" d="M203.16,81.3c-2.35-4.4-4.65-8.81-7-13.18-2.57-4.7-5.24-9.35-7.83-14a13.09,13.09,0,0,1-.72-2.08q13,0,26,0a2.46,2.46,0,0,1,.7.22c.87,1.88,1.63,3.83,2.64,5.64,3.36,6,6.85,12,10.21,18,1.26,2.25,2.3,4.61,3.44,6.92Z" transform="translate(-23.5 -35.27)"/><path class="cls-10" d="M320.12,102a5.07,5.07,0,0,1-1.32-.81c-2-2.39-3.88-4.84-5.86-7.22-2.66-3.19-5.28-6.43-8.1-9.46-4.35-4.68-8.87-9.19-13.31-13.78a106.63,106.63,0,0,0-20.17-15.85c-3.11-1.88-6.21-3.76-9.29-5.69-9.71-6.06-19.8-6.67-30.29-2.25-3.64,1.53-7.31,3-11,4.48a12.56,12.56,0,0,1-1.76.43,64.7,64.7,0,0,1,5.47-4.08c6.69-4,13.41-8,20.74-10.82a12.38,12.38,0,0,1,9-.18c9.84,3.59,18.44,9.31,26.63,15.66a109.47,109.47,0,0,1,11,10.07,170.18,170.18,0,0,1,20.5,25.69c2.45,3.7,4.62,7.58,6.86,11.42A12.43,12.43,0,0,1,320.12,102Z" transform="translate(-23.5 -35.27)"/><path class="cls-10" d="M320.78,103.08l-.32-.7Z" transform="translate(-23.5 -35.27)"/><path class="cls-10" d="M320.48,102.4l-.38-.41Z" transform="translate(-23.5 -35.27)"/><path class="cls-15" d="M283.92,273.16c.7-.78,1.46-1.51,2.08-2.34a4.53,4.53,0,0,0-.48-6c-1.76-1.46-4-1.29-5.78.49-1.27,1.24-2.49,2.52-3.74,3.78-1-1.63-2-3.23-2.92-4.87q-5.19-9.08-10.32-18.17a10.75,10.75,0,0,1-.59-1.55.33.33,0,0,1,.24,0l1.25-.62c14.35-1.42,28.61-3.35,42.32-8.14,1.14,2.23,2.21,4.5,3.43,6.69,4.28,7.73,8.62,15.44,12.92,23.16a5.52,5.52,0,0,1,.35,1.22c-1-.14-2.09-.21-3.11-.43-1.33-.3-2.52-.15-3.26,1.07a3.49,3.49,0,0,0,.2,3.81c2.87,5.09,6,10.09,8.34,15.41,5.35,12,8.32,24.73,10.62,37.62-5.87,5.67-12.67,10.05-19.69,14.12l-3.87,2.21c-2.07-3.84-4.11-7.7-6.22-11.52q-7.31-13.26-14.67-26.49c-2.33-4.2-4.67-8.4-7.08-12.55-.34-.58-1.1-.91-1.66-1.36A49.46,49.46,0,0,0,283.92,273.16Z" transform="translate(-23.5 -35.27)"/><path class="cls-9" d="M335.47,324.26c-2.3-12.89-5.27-25.62-10.62-37.62-2.38-5.32-5.47-10.32-8.34-15.41a3.49,3.49,0,0,1-.2-3.81c.74-1.22,1.93-1.37,3.26-1.07,1,.22,2.07.29,3.11.43,6.38,2.4,12.88,4.5,19.11,7.25,8.13,3.59,14.81,9.41,21.48,15.17-2.36,4-4.45,8.26-7.14,12.06a160.3,160.3,0,0,1-11,13.68C342.18,318.27,338.71,321.17,335.47,324.26Z" transform="translate(-23.5 -35.27)"/><path class="cls-2" d="M157,244.07c-7.27-.38-17.15-.72-27-1.48a63.84,63.84,0,0,1-18.86-4.46c-12.51-5-19.78-14.34-22.27-27.39-2.32-12.16-1.23-24.24,1.63-36.2a100.68,100.68,0,0,1,9.58-24.77,98.58,98.58,0,0,1,17.75-24c4.33-4.19,9-8.07,13.47-12.07,5.74-5.08,12.57-8.39,19.21-12,12.24-6.72,25.51-9.87,39.11-12.32A107.21,107.21,0,0,1,224,88.79c14.31,2,28.44,5.25,41.57,11.53a178.14,178.14,0,0,1,20.55,11.6A107.82,107.82,0,0,1,301,123.83a98.5,98.5,0,0,1,18.47,23.44c7.36,13.11,11.72,27.14,12.2,42.26.37,11.44-2.27,21.67-11,29.91-4.9,4.63-10.67,7.45-16.77,9.8a119,119,0,0,1-34,7.43c-19.9,1.53-39.82,2.76-59.74,4.06C193.31,241.83,176.47,242.85,157,244.07Zm22.19-80.52-.52.06c.87,8.22,1.51,16.46,2.67,24.64.76,5.36,2.12,10.66,5.16,15.32a10,10,0,0,0,9.27,4.91,24.86,24.86,0,0,0,4.64-.9,88.31,88.31,0,0,0,27.29-11.85c6.16-4,12.47-7.66,18-12.52,5.09-4.44,10.18-8.77,13.76-14.62,2.55-4.18,2.58-8.24-.44-12a54.88,54.88,0,0,0-7.93-8.72,158.91,158.91,0,0,0-17.44-12.72,216,216,0,0,0-21.13-10.89A45.64,45.64,0,0,0,195.76,120c-3.87-.22-7.54.49-9.61,4.24a37.78,37.78,0,0,0-3.08,7.3C179.89,141.94,179.32,152.72,179.18,163.55Z" transform="translate(-23.5 -35.27)"/><path class="cls-8" d="M263.66,243.85l-1.25.62Z" transform="translate(-23.5 -35.27)"/><path class="cls-11" d="M283.92,273.16a49.46,49.46,0,0,1-1.64,15.51c-1.09,3.57-2.07,7.18-3.3,10.7-.88,2.54-2.82,3.31-5.3,2.36a51.52,51.52,0,0,1-15.45-9.24c-.87-.76-1.62-1.64-2.43-2.47,3.85-1.59,7.74-3.1,11.55-4.79,5.75-2.54,10.39-6.66,15-10.76C282.88,274,283.41,273.6,283.92,273.16Z" transform="translate(-23.5 -35.27)"/><path class="cls-16" d="M179.18,163.55c.14-10.83.71-21.61,3.89-32.06a37.78,37.78,0,0,1,3.08-7.3c2.07-3.75,5.74-4.46,9.61-4.24a45.64,45.64,0,0,1,16.78,4.27,216,216,0,0,1,21.13,10.89,158.91,158.91,0,0,1,17.44,12.72,54.88,54.88,0,0,1,7.93,8.72c3,3.8,3,7.86.44,12-3.58,5.85-8.67,10.18-13.76,14.62-5.56,4.86-11.87,8.55-18,12.52a88.31,88.31,0,0,1-27.29,11.85,24.86,24.86,0,0,1-4.64.9,10,10,0,0,1-9.27-4.91c-3-4.66-4.4-10-5.16-15.32-1.16-8.18-1.8-16.42-2.67-24.64Z" transform="translate(-23.5 -35.27)"/></svg>