<?xml version="1.0" standalone="no"?><!DOCTYPE svg PUBLIC "-//W3C//DTD SVG 1.1//EN" "http://www.w3.org/Graphics/SVG/1.1/DTD/svg11.dtd"><svg t="1747530184680" class="icon" viewBox="0 0 1024 1024" version="1.1" xmlns="http://www.w3.org/2000/svg" p-id="4009" width="40" height="40" xmlns:xlink="http://www.w3.org/1999/xlink"><path d="M512 85.333333C277.333333 85.333333 85.333333 277.333333 85.333333 512s192 426.666667 426.666667 426.666667 426.666667-192 426.666667-426.666667S746.666667 85.333333 512 85.333333z m0 768c-188.16 0-341.333333-153.173333-341.333333-341.333333S323.84 170.666667 512 170.666667s341.333333 153.173333 341.333333 341.333333-153.173333 341.333333-341.333333 341.333333z m21.333333-522.666666a32 32 0 0 0-64 0v192.199111a56.888889 56.888889 0 0 0 27.079111 48.469333l167.196445 102.883556a32.369778 32.369778 0 1 0 33.649778-55.324445l-136.305778-81.777778a56.888889 56.888889 0 0 1-27.619556-48.782222v-157.667555z" p-id="4010" fill="#D9D9D9"></path></svg>