<?xml version="1.0" standalone="no"?><!DOCTYPE svg PUBLIC "-//W3C//DTD SVG 1.1//EN" "http://www.w3.org/Graphics/SVG/1.1/DTD/svg11.dtd"><svg t="1747665019542" class="icon" viewBox="0 0 1024 1024" version="1.1" xmlns="http://www.w3.org/2000/svg" p-id="4298" width="40" height="40" xmlns:xlink="http://www.w3.org/1999/xlink"><path d="M128.64 160.384c-4.864-29.856 24.224-58.912 54.048-54.112 22.432 2.432 35.264 23.072 50.688 36.96 227.936 227.872 455.776 455.808 683.712 683.648 12.064 11.968 27.392 24.8 26.624 43.488 3.584 27.84-23.2 54.56-51.072 50.912-19.584 0.64-32.544-15.84-45.056-28.384-49.184-48.96-98.048-98.24-147.328-147.136-22.816 22.848-45.696 45.632-68.48 68.512-5.056 4.864-10.112 10.72-17.472 11.872-8.832 1.92-17.44-2.88-23.296-9.152-49.728-50.112-100.032-99.648-149.568-149.952-76.384 76.736-153.184 153.12-229.632 229.856-13.088 13.568-34.24 19.04-51.968 12-19.52-6.816-33.408-27.552-31.456-48.288 0.48-12.224 7.008-23.328 15.52-31.776 76.608-76.64 153.28-153.216 229.856-229.92-55.296-53.472-108.8-108.8-163.648-162.752-7.456-6.368-10.976-17.312-7.52-26.656 2.08-8.16 9.44-13.056 14.976-18.752 21.344-21.44 42.72-42.784 64.128-64.128-39.008-38.016-77.088-76.96-115.776-115.296-13.888-15.616-34.752-28.384-37.28-50.944zM640.48 109.792c9.344-5.088 20.896-1.664 27.776 5.92 80.608 80.448 161.024 161.056 241.632 241.504 6.24 5.888 11.392 14.368 9.504 23.296-0.896 8.512-8.256 13.76-13.856 19.328-58.56 49.184-116.64 99.008-175.168 148.224-9.824 8.8-25.792 6.976-34.016-3.072-72.352-71.584-144.512-143.392-216.672-215.136-8.704-7.808-10.016-22.528-2.112-31.36 42.56-50.368 85.44-100.512 127.872-150.976 12.128-12.128 20.64-28.096 35.04-37.728z" fill="#D9D9D9" p-id="4299"></path></svg>