<?xml version="1.0" standalone="no"?><!DOCTYPE svg PUBLIC "-//W3C//DTD SVG 1.1//EN" "http://www.w3.org/Graphics/SVG/1.1/DTD/svg11.dtd"><svg t="1747530079327" class="icon" viewBox="0 0 1024 1024" version="1.1" xmlns="http://www.w3.org/2000/svg" p-id="3400" width="40" height="40" xmlns:xlink="http://www.w3.org/1999/xlink"><path d="M624.864 119.424c6.144-7.872 13.696-16.928 24.672-16.64 7.68-0.736 14.24 3.808 19.2 9.184 81.984 82.304 164.32 164.192 246.08 246.688 7.776 5.92 7.456 16.416 6.016 25.088-2.304 7.488-9.152 11.968-14.848 16.736-58.272 49.504-116.512 99.072-174.784 148.544-4.48 4.416-10.912 5.44-16.768 6.912-5.696 40.8-13.376 81.28-18.08 122.208 6.528 16.32 5.28 34.368 8.16 51.488 1.984 8.864-1.728 17.792-7.84 24.128-24.608 23.552-47.776 48.544-72.544 71.936-8.96 9.056-24.864 6.912-32.96-2.272-51.136-51.008-101.92-102.368-153.056-153.312-71.616 70.784-142.272 142.624-213.632 213.664-11.424 11.008-21.44 24.384-35.968 31.424-14.144 4.8-31.008 4.512-43.84-3.776-10.336-7.616-19.36-18.144-21.76-31.072-3.808-16.288 2.208-33.984 14.592-45.056 77.344-78.144 155.424-155.616 232.768-233.728-56.736-56.032-112.64-113.024-169.216-169.248-8.128-9.088-7.648-26.016 2.368-33.632 24.416-24.672 48.992-49.12 73.44-73.696 3.808-3.424 9.056-4.16 13.984-4.096 18.112 0.192 36.064 2.944 53.984 5.408 41.824-4.8 83.744-8.992 125.408-15.264 0.608-6.048 2.624-11.904 6.528-16.64 49.44-58.24 98.848-116.544 148.096-174.976z" fill="#D9D9D9" p-id="3401"></path></svg>