<svg width="35" height="38" viewBox="0 0 35 38" fill="none" xmlns="http://www.w3.org/2000/svg">
<path d="M15.2296 10.9295L2.09768 17.4612C1.22698 17.8943 0.563984 18.6555 0.254541 19.5774C-0.0549023 20.4994 0.0145571 21.5064 0.447639 22.3771L3.71351 28.9431C4.14659 29.8138 4.90782 30.4768 5.82974 30.7862C6.75165 31.0957 7.75873 31.0262 8.62943 30.5931L10.2709 29.7767L13.5368 36.3426C13.7533 36.778 14.134 37.1095 14.5949 37.2642C15.0559 37.4189 15.5594 37.3842 15.9948 37.1677L19.2777 35.5347C19.7131 35.3182 20.0446 34.9376 20.1993 34.4766C20.354 34.0157 20.3193 33.5121 20.1028 33.0768L16.8369 26.5108L21.7614 24.0614L33.2347 26.545L20.1712 0.281171L15.2296 10.9295ZM34.0896 9.73898C35.4858 12.5459 35.1755 15.8741 33.2518 18.3461L26.72 5.21419C29.8439 5.19612 32.7016 6.94845 34.0896 9.73898Z" fill="white"/>
</svg>
