<?xml version="1.0" standalone="no"?><!DOCTYPE svg PUBLIC "-//W3C//DTD SVG 1.1//EN" "http://www.w3.org/Graphics/SVG/1.1/DTD/svg11.dtd"><svg t="1747530116462" class="icon" viewBox="0 0 1024 1024" version="1.1" xmlns="http://www.w3.org/2000/svg" p-id="3806" width="40" height="40" xmlns:xlink="http://www.w3.org/1999/xlink"><path d="M224.096 703.952A95.9936 95.9936 0 0 0 128 799.856a96.0032 96.0032 0 0 0 163.8144 68.0448 95.9968 95.9968 0 0 0-67.7184-163.9488zM224 128a96 96 0 1 0 0 192c264.672 0 480 215.328 480 480a96 96 0 0 0 192 0c0-370.56-301.44-672-672-672z m0 288a96 96 0 0 0 0 192c105.84 0 192 86.112 192 192a96 96 0 0 0 192 0c0-211.728-172.272-384-384-384z" fill="#D9D9D9" p-id="3807"></path></svg>