<?xml version="1.0" standalone="no"?><!DOCTYPE svg PUBLIC "-//W3C//DTD SVG 1.1//EN" "http://www.w3.org/Graphics/SVG/1.1/DTD/svg11.dtd"><svg t="1747530026394" class="icon" viewBox="0 0 1024 1024" version="1.1" xmlns="http://www.w3.org/2000/svg" p-id="3151" width="40" height="40" xmlns:xlink="http://www.w3.org/1999/xlink"><path d="M473.792 128a345.8496 345.8496 0 0 0-282.064 145.7792 345.8112 345.8112 0 0 0 349.8112 539.152 345.792 345.792 0 0 0 148.128-68.9248l141.2128 141.2064a38.4256 38.4256 0 0 0 54.3328-54.3296L744 689.6768A345.8048 345.8048 0 0 0 473.792 128zM243.2384 473.8112a230.5344 230.5344 0 0 1 230.5536-230.5408 230.5568 230.5568 0 0 1 230.5536 230.5408 230.5536 230.5536 0 0 1-461.1072 0z" fill="#FEDAA3" p-id="3152"></path></svg>