<svg id="图层_1" data-name="图层 1" xmlns="http://www.w3.org/2000/svg" viewBox="0 0 409.65 392.04">
    <path class="cls-1" style="fill:#feef83;" d="M589.6,432c-4.34,8.85-10.34,12.42-17.32,10a88.33,88.33,0,0,1-11.67-5.11c-15.08-7.89-30.08-15.92-45.1-23.9-.59-.31-1.41-.47-1.72-1-.71-1.12-1.82-2.58-1.55-3.56s2.15-2.05,3.21-2c6.46.61,12.91,1.39,19.33,2.38,13.87,2.13,27.71,4.51,41.59,6.62,6.36,1,10.54,4.51,13.23,10.13Z" transform="translate(-179.95 -188.75)" />
    <path class="cls-2" style="fill:#fedb64;" d="M408.15,234.34q8.31,19,16.63,38c3.09,7.08,6.19,14.15,9.14,21.28.94,2.28,2.3,3,4.77,3.26,16.28,1.4,32.55,3,48.83,4.54,15.76,1.45,31.52,2.81,47.28,4.23,2.64.24,5.32.4,7.92.88,3.19.6,5.83,2.28,6.68,5.58.92,3.55.35,6.87-2.62,9.47-7.4,6.5-14.77,13.05-22.17,19.55l-49,42.91a6.07,6.07,0,0,1-.89.8c-8.12,4.38-8.11,10.66-6.09,18.94,7.36,30.07,13.9,60.34,20.69,90.54a15.9,15.9,0,0,1,.52,5.87c-1,6.38-7.18,9.17-13.14,5.77-10.88-6.19-21.59-12.67-32.35-19.06Q416,470.05,387.77,453.14c-2.31-1.39-4-1.13-6.2.18q-37,22.14-74.14,44.11c-.8.48-1.68.81-2.52,1.21,3.09-16,5.81-32,9.34-47.84,5.48-24.62,12.29-48.92,21.48-72.41,8.84-22.61,17.93-45.18,28.14-67.19,7.86-17,17.34-33.21,26.62-49.48C395.85,252.29,402.23,243.44,408.15,234.34Z" transform="translate(-179.95 -188.75)" />
    <path class="cls-3" style="fill:#fec750;" d="M408.15,234.34c-5.92,9.1-12.3,17.95-17.66,27.38-9.28,16.27-18.76,32.51-26.62,49.48-10.21,22-19.3,44.58-28.14,67.19-9.19,23.49-16,47.79-21.48,72.41-3.53,15.85-6.25,31.88-9.34,47.84-4.28,2.65-8.48,5.46-12.88,7.9a7.74,7.74,0,0,1-9.3-.89,8.68,8.68,0,0,1-3-9.27c7.46-32.87,14.73-65.79,22.32-98.63,1-4.21.15-6.51-3.12-9.33-18.59-16-36.9-32.27-55.31-48.46q-10-8.83-20.1-17.69c-3-2.62-4.83-5.66-3.5-9.84s4.16-5.83,8.33-6.2c13.5-1.19,27-2.54,40.49-3.82,13-1.24,25.93-2.51,38.9-3.72,7.41-.68,14.83-1.37,22.25-1.85,3-.19,4.76-1.17,6-4.11q19.93-46.8,40.12-93.49c1.64-3.79,4-6.55,8.58-6.6,4.34,0,6.94,2.34,8.55,6q7.22,16.65,14.32,33.35A16.32,16.32,0,0,1,408.15,234.34Z" transform="translate(-179.95 -188.75)" />
    <path class="cls-1" style="fill:#feef83;" d="M398.39,565c.17,9.81-5.27,15.8-13.26,15.77s-13.92-6.12-13-14.8c1.43-13.44,3.74-26.8,5.82-40.17,1.08-7,2.45-13.86,3.7-20.78a5.54,5.54,0,0,1,.6-2.29c.8-1,2-2.72,2.79-2.58a4.58,4.58,0,0,1,3.08,2.74c1.46,6.47,2.69,13,3.77,19.54,2.15,13,4.17,25.94,6.21,38.92A31.64,31.64,0,0,1,398.39,565Z" transform="translate(-179.95 -188.75)" />
    <path class="cls-1" style="fill:#feef83;" d="M263.6,188.75c6,.09,10.14,2.33,12.56,6.93q9.12,17.28,17.9,34.74,5.38,10.68,10.25,21.63c.59,1.33-.11,3.24-.21,4.88-1.61-.39-3.72-.27-4.75-1.26q-19.56-18.84-38.82-38a81.54,81.54,0,0,1-6.31-7.19c-3.59-4.51-4-9.41-1.41-14.56C255.18,191.15,259.33,189.23,263.6,188.75Z" transform="translate(-179.95 -188.75)" />
    <path class="cls-1" style="fill:#feef83;" d="M506.17,188.79a12.59,12.59,0,0,1,10.67,7.27c2.54,5.17,2.39,10.37-1.58,14.49C502.34,224,489.14,237.11,476,250.34a48.32,48.32,0,0,1-6.14,5.67c-1.13.8-3,.6-4.49.85-.17-1.42-.95-3.13-.42-4.21q14-28.44,28.32-56.73C495.76,191.1,499.92,188.85,506.17,188.79Z" transform="translate(-179.95 -188.75)" />
    <path class="cls-1" style="fill:#feef83;" d="M195.37,442.44c-8.93,0-14.31-4.71-15.3-11.72a13.09,13.09,0,0,1,10-14.38c10.75-2.25,21.6-4.1,32.45-5.85,9.16-1.47,18.36-2.65,27.57-3.73,2.5-.29,6-2.12,7.31,1.58s-2.53,4.13-4.68,5.27c-16.09,8.52-32.2,17-48.38,25.33A75.8,75.8,0,0,1,195.37,442.44Z" transform="translate(-179.95 -188.75)" />
</svg>